<?xml version="1.0" encoding="utf-8"?>
<!-- Generator: Adobe Illustrator 25.0.1, SVG Export Plug-In . SVG Version: 6.00 Build 0)  -->
<svg version="1.1" id="Layer_1" xmlns="http://www.w3.org/2000/svg" xmlns:xlink="http://www.w3.org/1999/xlink" x="0px" y="0px"
	 viewBox="0 0 985 433.3" style="enable-background:new 0 0 985 433.3;" xml:space="preserve">
<style type="text/css">
	.st0{fill:#7C7C7C;}
</style>
<path class="st0" d="M105.9,210.4C48.4,326.3,0.9,422.9,0.1,424.9c-0.8,2.4,4,4,10.9,4c12.5,0,12.9-0.8,105.4-186.3
	c51.1-102.2,94.2-186.3,95.4-186.7c1.6-0.4,44.2,83.7,95.4,186.3l92.5,186.7h26.2l-107-214.4C260,97,211.3,0.4,211.3,0
	C210.9,0,163.4,94.6,105.9,210.4z"/>
<path class="st0" d="M145.3,245.8L80.2,376.6h27L157.8,274c28.2-56.3,52.3-102.6,53.9-102.6s25.3,45.9,53.1,101.8
	c49.5,99.4,50.7,101.4,63.6,102.6c6.8,0.8,12.9,0.4,12.9-0.8c0-3.2-128.4-259.9-130-259.9C210.9,115.1,181.1,173.8,145.3,245.8z"/>
<path class="st0" d="M187.2,278l-22.9,46.3h13.3c12.1,0,14.1-2,23.7-20.9l10.1-21.3l10.9,21.3c9.2,18.5,12.1,20.9,22.9,20.9
	c6.8,0,11.7-1.6,10.9-3.6c-4.8-12.9-41.8-88.5-43.4-88.9C211.3,231.7,200.1,252.7,187.2,278z"/>
<path class="st0" d="M503,286.1c-9.2,19.3-16.9,35.8-16.9,36.6s2.4,1.6,5.6,1.6c2.8,0,9.7-10,14.9-22.1s11.3-21.3,13.3-20.9
	c2,0.8,7.2,10.5,12.1,22.1c4.4,11.7,10.9,20.9,13.7,20.9c6.4,0,4.8-6.4-12.9-45.1l-12.9-28.6L503,286.1z"/>
<path class="st0" d="M579.8,257.9c-14.5,6.4-21.3,16.9-21.3,33.4c0,24.1,28.6,43.5,47.9,33c13.7-7.2,10.1-12.5-6.8-9.6
	c-12.1,2-16.5,0.8-22.5-6c-17.7-19.7-1.6-47.5,24.5-42.6c16.1,2.8,18.1-4.4,2.8-10.1c-3.5-1.6-7.2-2.9-10.9-4
	C593.1,252.3,587.1,254.7,579.8,257.9z"/>
<path class="st0" d="M622.9,259.5c0,2,4,4.4,9.2,5.2c8.5,1.2,8.8,2.8,7.2,30.2c-1.2,25-0.4,29.4,5.2,29.4c5.2,0,6.4-5.2,6.4-30.2
	c0-27.4,0.8-30.2,8-30.2c4.4,0,8-2,8-4c0-2.4-10.1-4-22.1-4S622.9,257.5,622.9,259.5z"/>
<path class="st0" d="M680,290.1c0.8,19.3,2.8,34.2,5.2,34.2s4.4-14.9,5.2-34.2c0.8-29,0-34.2-5.2-34.2S679.2,261.1,680,290.1z"/>
<path class="st0" d="M718.7,292.1c13.3,32.6,20.9,43.9,20.9,31.8c0-2.4,6-18.9,13.7-36.2c12.1-27.4,12.9-31.8,6.8-31.8
	c-4.8,0-9.3,6.8-14.5,22.1c-4,12.1-8.8,22.1-10.5,22.1s-6.4-10-10.1-22.1c-5.2-15.7-9.2-22.1-14.1-22.1
	C705,255.9,705.8,260.7,718.7,292.1z"/>
<path class="st0" d="M778.6,287.3c-16.5,35-17.3,37-9.7,37c2.8,0,9.7-10,14.5-22.1c5.2-12.1,10.5-22.1,12.1-22.1
	c1.2,0,7.7,11.3,13.7,24.9c7.2,16.5,12.1,23.7,14.9,20.9s-0.8-14.9-10.9-37c-8.5-18.1-16.1-33-17.7-33
	C794.3,255.9,786.7,270,778.6,287.3z"/>
<path class="st0" d="M828.1,259.9c0,2,3.6,4,8,4c7.2,0,8,2.8,8,30.2c0,24.1,1.2,30.2,6,30.2s6-6,6-30.2c0-27.4,0.8-30.2,8-30.2
	c4.4,0,8-2,8-4c0-2.4-10.1-4-22.1-4S828.1,257.5,828.1,259.9z"/>
<path class="st0" d="M884.4,290.1v34.2h20.1c11.3,0,20.1-2,20.1-4c0-2.4-6.4-4-14.1-4c-12.9,0-14.1-0.8-14.1-12.1
	s1.2-12.1,14.5-12.1c9.7,0,13.7-1.6,12.5-5.2c-0.8-2.4-7.2-4.4-14.4-4.4c-10.5,0.8-12.5-0.4-12.5-8.9s2-9.7,14.1-9.7
	c7.6,0,14.1-2,14.1-4c0-2.4-8.8-4-20.1-4h-20.2V290.1z"/>
<path class="st0" d="M617.7,361.3c-1.2,2.8-8.5,19.3-16.5,36.2c-10.9,24.1-12.9,31.4-8.5,31.4c3.6,0,10.5-9.7,16.1-22.1
	c5.2-12.1,10.9-22.1,12.1-22.1s6.8,10.1,12.1,22.1c5.6,12.1,12.5,22.1,15.7,22.1c4,0,1.6-9.2-9.7-34.2
	C622.1,356.1,620.9,354.1,617.7,361.3z"/>
<path class="st0" d="M726.3,359.7c-0.8,1.6-2,17.7-2.4,35.8c-0.4,27.4,0.4,33.4,5.6,33.4c4.8,0,6-4.8,6-22.1
	c0-12.1,1.2-22.1,2.4-22.1s11.3,10.1,22.5,22.1c10.9,12.1,21.7,22.1,23.7,22.1s3.6-15.3,3.6-34.2c0-27.8-1.2-34.2-6-34.2
	s-6,5.2-6,22.9l-0.4,23.3l-23.7-24.9C738.8,367.7,727.1,358.1,726.3,359.7z"/>
<path class="st0" d="M840.2,391.5c0,32.2,0.8,37.4,6.4,37.4s6.4-3.2,4-22.1c-1.2-12.5-0.8-22.1,1.2-22.1s13.7,10.8,26.2,24.5
	l22.5,24.1v-36.2c0-27.8-1.2-36.6-5.2-36.6s-5.2,5.6-3.6,22.1c0.8,12.1,0.4,22.1-1.6,22.1c-1.6,0-13.7-11.3-26.2-25.4l-23.4-24.9
	L840.2,391.5z"/>
<path class="st0" d="M935.9,362.9c-27.8,14.9-26.2,52.3,2.8,64.4c21.3,8.9,46.3-6,46.3-27.8c0-6-2.8-7.2-14.9-6
	c-16.1,1.2-19.3,8.5-5.2,10.5c10.9,2,8,10-5.2,14.5c-15.7,5.6-31-6-31-23.3c0-7.6,3.2-16.1,7.2-19.7c9.2-8.5,26.2-8.9,33-0.8
	c4.8,6,12.1,4.8,12.1-2c0-4.4-21.3-16.1-29-16.1C949.2,356.9,942,359.3,935.9,362.9z"/>
<path class="st0" d="M488.1,394.7v34.2h17.3c9.2,0,16.9-2,16.9-4c0-2.4-5.2-4-12.1-4h-12.1v-30.2c0-21.3-1.6-30.2-4.8-30.2
	C489.3,360.5,488.1,370.2,488.1,394.7z"/>
<path class="st0" d="M538.4,394.7v34.2h18.1c20.9,0,24.5-6.8,5.2-8.9c-11.3-0.8-13.7-3.2-14.5-12.5c-1.2-10.1-0.4-10.9,12.9-10.9
	c10.5,0,14.5-1.6,14.5-6.4s-3.2-6-12.9-4.8c-10.9,0.8-13.3,0-13.3-6.8c0-6.4,3.2-8.5,15.3-9.3c22.1-2,18.1-8.9-5.2-8.9h-20.1V394.7z
	"/>
<path class="st0" d="M667.2,394.7c0,28.6,1.2,34.2,6.4,34.2c4.8,0,5.6-2.8,3.6-12.1c-1.6-7.2-1.2-12.1,1.6-12.1
	c2,0,7.2,5.2,11.3,12.1c3.6,6.8,10.5,12.1,14.5,12.1c7.2,0,6.8-1.2-2.8-14.1l-10.9-13.7l8.5-8.5c9.7-9.7,9.7-11.7,1.6-23.3
	c-4.4-6-10.1-8.9-20.1-8.9h-13.7V394.7z M688.9,371c8.5,3.2,8.5,16.1,0,19.3s-13.7-0.4-13.7-9.3C675.2,369.8,678.8,367.3,688.9,371
	L688.9,371z"/>
<path class="st0" d="M808,394.7c0,27.8,1.2,34.2,6,34.2s6-6.4,6-34.2s-1.2-34.2-6-34.2S808,366.9,808,394.7z"/>
</svg>
