<?xml version="1.0" encoding="utf-8"?>
<!-- Generator: Adobe Illustrator 25.0.1, SVG Export Plug-In . SVG Version: 6.00 Build 0)  -->
<svg version="1.1" id="Layer_1" xmlns="http://www.w3.org/2000/svg" xmlns:xlink="http://www.w3.org/1999/xlink" x="0px" y="0px"
	 viewBox="0 0 980.1 162.7" style="enable-background:new 0 0 980.1 162.7;" xml:space="preserve">
<style type="text/css">
	.st0{fill:#7C7C7C;}
</style>
<path class="st0" d="M43.7,4.7C36.7,13.6-0.6,107,0,114c0.9,12.7,23.8,48.6,30.8,48.6c3.6,0,21.6-8.9,39.9-19.9l33.5-19.9L71.7,121
	l-32.3-1.9l15.9-36.9C63.9,62,71.9,45.5,72.8,45.5c1.1,0,12.9,26.3,26.3,58.4l24.4,58.6h46.9L137.5,86c-18-42.2-34.1-78.7-35.8-81.3
	C99.9,1.7,89.7,0,73,0C56.9,0,46,1.7,43.7,4.7z M73.4,21.4c7.2,6.4,10,22.5,3.2,18.4c-5.1-3-16.1-24.6-12.7-24.6
	C65.4,15.1,69.6,18,73.4,21.4z"/>
<path class="st0" d="M237,40.1c-3.2,7.6-12.5,28.2-20.6,46c-17.6,38.2-17.2,35-5.9,35c6.4,0,10.2-3.2,13.6-11.4
	c4.5-10.8,5.9-11.4,27-11.4c21.6,0,22.7,0.4,26.5,11.4c3,8.5,6.2,11.4,13.4,11.4c5.1,0,8.7-1.5,8.1-3.2
	C265.4,29.9,249.5,10,237,40.1z M258.4,63.4c3,7.8,6,15.5,6.8,17c0.6,1.5-5.9,2.8-14.6,2.8s-15.1-1.3-14.6-2.8
	c0.8-1.5,3.8-9.3,6.8-17s6.4-14.2,7.8-14.2S255.4,55.6,258.4,63.4L258.4,63.4z"/>
<path class="st0" d="M307.4,59.6c0,51.5,19.3,72.2,56.2,60.3c26.7-8.7,42.5-93.4,17.6-93.4c-9.5,0-9.5,0.4-9.5,33.5
	c0,36.9-4.7,46-23.6,46c-17.8,0-21.8-8.5-21.8-45.6c0-33.7,0-33.9-9.5-33.9S307.4,26.9,307.4,59.6z"/>
<path class="st0" d="M406.5,35c1,7.4,3,8.3,15.3,7.2L436,41v80h18.9V41.6h12.9c11.2,0,17.4-4.9,17.4-13.6c0-0.8-18-1.5-39.9-1.5
	C405.9,26.5,405.2,26.7,406.5,35z"/>
<path class="st0" d="M503.7,41.2c-12.5,12.3-14.8,17-14.8,30.5c0,47.1,55,69.2,84.7,34C613.8,58.1,547.6-2.8,503.7,41.2z
	 M559.1,50.9c19.3,19.3,6.1,55-20.4,55c-16.7,0-22.9-3.4-29.3-15.9C492.7,57.9,533.8,25.5,559.1,50.9z"/>
<path class="st0" d="M602.4,73.8V121h24.8c29.1,0,44.3-6.6,54.8-23.8c22.1-36.3-5.5-70.7-56.7-70.7h-22.9V73.8z M651,45.8
	c33.9,11.7,22.3,60.1-14.4,60.1h-15.3V73.8C621.3,37.8,623.2,36.1,651,45.8L651,45.8z"/>
<path class="st0" d="M704.6,73.8V121h34c31.6,0,34-0.6,34-7.6c0-6.8-2.5-7.6-24.6-7.6h-24.5V93.2c0-12.3,0.4-12.5,16.1-12.3
	c13.6,0.4,16.1-0.8,16.1-7.2c0-6.6-2.1-7.4-16.1-6.4l-16.1,1.3V41l24.6,1.1c23.5,1.3,24.6,0.9,24.6-7.2s-1.3-8.5-34-8.5h-34
	L704.6,73.8z"/>
<path class="st0" d="M800.1,32.1c-20.4,14.8-6.1,42.2,26.1,49.4c5.7,1.1,12.3,4.5,14.8,7.6c11.7,14.2-19.9,23.1-37.6,10.6
	c-7.4-5.1-9.3-5.3-12.1-1c-7.2,11.5-4.2,14.6,24.4,23.8c10.6,3.4,35.9-4.5,40.3-12.7C866.5,90,857.6,76,827,64.5
	c-27.6-10.4-25.9-21.2,3.2-20.6c20,0.4,31.2-5.7,23.8-13.1C848.5,25.3,808.2,26.3,800.1,32.1z"/>
<path class="st0" d="M874.8,73.8V121h9.5c9.1,0,9.5-0.9,9.6-23.6l0.2-23.6l21.8,23.6c17.2,18.7,24,23.6,32.7,23.6
	c11,0,10.8-0.2-12.1-23.6l-23.3-23.6L934.4,51c20.6-21.9,21-22.7,11.7-23.8c-7.6-0.9-14.4,3.6-31,20.8l-21.2,22l-0.2-21.8
	c0-20.6-0.6-21.8-9.5-21.8h-9.5L874.8,73.8z"/>
<path class="st0" d="M967.7,109.5c-3.4,5.3,0.8,11.5,7.9,11.5c3.2,0,5.1-2.6,4.4-6.2C978.7,107,971.1,104,967.7,109.5z"/>
<ellipse class="st0" cx="72" cy="25.5" rx="25" ry="16.5"/>
</svg>
