<?xml version="1.0" encoding="utf-8"?>
<!-- Generator: Adobe Illustrator 25.0.1, SVG Export Plug-In . SVG Version: 6.00 Build 0)  -->
<svg version="1.1" id="Layer_1" xmlns="http://www.w3.org/2000/svg" xmlns:xlink="http://www.w3.org/1999/xlink" x="0px" y="0px"
	 viewBox="0 0 985 453.4" style="enable-background:new 0 0 985 453.4;" xml:space="preserve">
<style type="text/css">
	.st0{fill:#7C7C7C;}
</style>
<path class="st0" d="M170.8,8.9C56.6,41.5-15.2,148.2,2.7,259.1c13.7,84.5,82.6,161,169,186.9c51.4,15.6,136.9,5.7,191.6-21.7
	l17.5-9v-50c0-38.7-1.4-48.6-5.7-46.3c-3.3,2.4-14.6,9.4-25,16.5c-35.4,24.1-57.6,30.2-106.2,30.2c-49.6,0-72.2-8-102.9-37.3
	c-28.3-26-40.6-56.6-40.6-99.6c-0.5-32.1,1.4-41.5,12.7-64.7c16-33,44.4-57.1,80.7-69.8c46.7-16.5,100.1-9.5,157.1,20.8l29.7,16
	v-101l-29.3-10.3C286.9-1.9,221.8-5.7,170.8,8.9z"/>
<path class="st0" d="M595.6,8.9c-43.4,12.3-72.2,28.8-104.8,59c-127.9,119-71.7,326.6,102,377.6c49.6,14.6,148.7,7.6,203-14.2
	l19.4-7.5V193.5H649.9v85h75.5v42.4c0,42,0,42.5-12.7,45.8c-7.5,2.4-27.8,3.8-46.3,3.8c-57.1-0.5-107.6-30.7-133.6-80.2
	c-10.4-19.8-12.3-29.7-12.3-61.4c0.5-44.8,8-64.7,36.3-95.3c51.5-56.2,128.9-62.8,224.7-19.8c16.5,7.6,30.7,13.7,31.6,13.7
	s1.9-22.2,1.9-49.1V29.3l-29.3-9.4C718.3-1.9,647.5-6.1,595.6,8.9z"/>
<path class="st0" d="M890.6,226.6v217.1H985V9.4h-94.4V226.6z"/>
</svg>
