<?xml version="1.0" encoding="utf-8"?>
<!-- Generator: Adobe Illustrator 25.0.1, SVG Export Plug-In . SVG Version: 6.00 Build 0)  -->
<svg version="1.1" id="Layer_1" xmlns="http://www.w3.org/2000/svg" xmlns:xlink="http://www.w3.org/1999/xlink" x="0px" y="0px"
	 viewBox="0 0 1006 482" style="enable-background:new 0 0 1006 482;" xml:space="preserve">
<style type="text/css">
	.st0{fill:#7C7C7C;}
</style>
<path class="st0" d="M450.2,3.5c-16.7,6.9-27.3,20.5-27.3,35.8v14.2l6.8-11.5c10.9-18.1,25.9-25.7,47-24c14.6,1,20.1,3.5,28.3,11.5
	c17.4,17.7,17.7,44.5,1,61.5c-21.5,21.9-50.4,19.1-72.9-7.3c-19.7-22.9-29.6-28.4-49-28.4c-30.3,0-49.8,19.5-49.8,49.3
	c0,38.6,41.9,62.2,75.3,42.4c9.2-5.6,11.9-9.4,12.6-19.8l1-12.5l-10.6,10.1c-13.3,12.9-26.6,15.6-41.9,9
	c-32.7-13.9-22.8-61.1,12.6-61.1c13,0,16,2.1,34.4,20.8c15.7,16.3,24.5,22.2,38.2,26.4c27.9,8.3,56.6-2.8,70.9-27.4
	C551,50,521.4-0.7,473.4,0C465.2,0,455,1.7,450.2,3.5z"/>
<path class="st0" d="M727.9,169.5c-26.6,6.9-42.9,22.2-49.8,45.5c-9.5,32,7.2,56.3,57.6,83.7c17.7,10.1,35.1,20.8,38.5,24.3
	c14.7,14.9,1.7,43.8-23.2,52.1c-16,5.2-44.3,2.1-61.7-6.9l-13.6-7l4.8,16c5.8,19.4,8.5,21.5,28.6,22.2c60.7,1.4,86.6-8.3,101.6-38.5
	c9.2-19.1,9.5-30.9,0.7-48.6c-8.2-16-19.1-25-59-46.5c-39.9-22.2-47-33.7-34.8-57.3c9.5-19.4,50.8-25.7,70.2-11.1l9.9,7.6v-15.7
	c0-8.7-1.7-16.7-3.8-17.7C788.6,167.8,739.2,166.4,727.9,169.5z"/>
<path class="st0" d="M6.8,178.9c6.8,9,7.2,13.6,7.2,105.9S13.6,382,7.1,388.6l-6.8,6.9h31.3c30,0,30.7-0.3,25.6-6.2
	c-4.8-5.2-5.8-14.6-5.8-55.6v-49.3h28.3c20.1,0,30.3,1.7,35.8,5.6c7.5,5.2,7.5,5.2,7.5-10.4v-16H51.5v-69.4h38.8
	c31,0,40.2,1,44.3,5.6c5.1,4.9,5.4,3.8,5.4-12.1v-17.7H0L6.8,178.9z"/>
<path class="st0" d="M155.7,177.1c5.8,6.6,6.5,14.9,8.2,93.1c1,55.6,3.1,87.9,5.8,92.4c12.9,22.9,39.5,36.8,70.5,37.2
	c37.5,0.7,65.8-14.2,77.4-40.3c5.5-12.5,6.5-23.6,6.5-94.1c0-66.7,1-81.3,5.5-87.9l5.1-7.6h-58.3l5.1,8.3c4.8,7.3,5.5,20.5,4.4,92.4
	l-1,84.1l-12.6,11.8c-10.2,9.4-15.7,11.8-26.9,11.8c-16.7,0-30.7-7.6-38.5-20.8c-4.8-8.3-5.4-22.2-5.4-92.4
	c0-71.9,0.7-83.4,5.8-88.9c5.1-5.9,4.4-6.3-26.2-6.3h-31.7L155.7,177.1z"/>
<path class="st0" d="M362.6,176.1c5.1,5.9,5.8,20.1,5.8,133c0,119.8-0.7,127.1-7.2,142c-3.8,8.7-10.2,19.1-14,23.6
	c-8.5,9-6.8,9.4,9.9,2.4c19.8-8.7,35.4-22.2,42.3-37.9c5.8-12.9,6.5-24.7,6.5-132.7c0-114.6,0.4-118.8,7.2-127.8l6.8-9h-31.3
	C358.2,169.8,357.5,170.2,362.6,176.1z"/>
<path class="st0" d="M448.1,177.5c4.8,6.6,5.5,22.6,5.5,105.2s-0.7,98.6-5.5,105.2l-5.1,7.6h58.6l-5.1-7.6
	c-4.8-6.6-5.5-22.6-5.5-105.2s0.7-98.6,5.5-105.2l5.1-7.6H443L448.1,177.5z"/>
<path class="st0" d="M517,186.2c-6.8,20.1-6.8,19.8,2,13.5c5.1-3.8,15.3-5.6,30.7-5.6h23.2v94.5c0,83-0.7,95.2-5.8,100.7
	c-5.1,5.9-4.4,6.2,26.2,6.2s31.3-0.3,26.2-6.2c-5.1-5.6-5.8-17.7-5.8-100.7v-94.5h20.1c14,0,22.2,1.7,25.6,5.6
	c5.1,4.9,5.8,4.5,8.9-3.8c1.7-4.9,4.4-12.9,5.5-17.4l2-8.7H522.4L517,186.2z"/>
<path class="st0" d="M825,172.3c0,1.7,2.4,5.9,5.1,9.4c4.1,5.6,5.1,21.9,5.1,86.1c0,86.5,1.4,94.1,19.1,111.1
	c15.3,14.6,33.4,20.5,61.3,20.8c30.7,0,51.8-9.4,67.5-29.5l10.6-13.5l1.7-85.4c1.4-60.8,3.1-88.2,6.1-93.8l4.4-7.6h-58.2l5.1,8.3
	c4.8,7.3,5.5,20.5,4.4,92.4l-1,84.1l-12.6,11.8c-10.9,9.7-15.4,11.8-28.7,11.8c-14,0-17.4-1.7-29-13.5l-13.3-13.5v-84.4
	c0-73.6,0.7-85.1,5.8-90.6c5.1-5.9,4.4-6.3-23.9-6.3C838.3,169.8,825,170.9,825,172.3z"/>
</svg>
