<?xml version="1.0" encoding="utf-8"?>
<!-- Generator: Adobe Illustrator 25.0.1, SVG Export Plug-In . SVG Version: 6.00 Build 0)  -->
<svg version="1.1" id="Layer_1" xmlns="http://www.w3.org/2000/svg" xmlns:xlink="http://www.w3.org/1999/xlink" x="0px" y="0px"
	 viewBox="0 0 952.1 330" style="enable-background:new 0 0 952.1 330;" xml:space="preserve">
<style type="text/css">
	.st0{fill:#7C7C7C;}
</style>
<path class="st0" d="M8.6,5.3C-2,13,1.3,30.1,13.5,31.8c17.9,2.8,27.3-13,14.7-25.2C20.4-1.2,18-1.6,8.6,5.3z"/>
<path class="st0" d="M700.8,6.5c-7.7,8.1-6.5,17.5,3.2,23.6c8.2,5.3,20.4-0.8,22.4-10.6C727.6,13,717.1,0,711,0
	C708.9,0,704.4,2.8,700.8,6.5z"/>
<path class="st0" d="M617.2,34.6c0,11.4-1.6,14.3-8.2,14.3c-6.1,0-8.1,2.9-8.1,10.2c0,7.7,2,10.2,9.4,10.2c8.1,0,9,1.6,7.7,19.6
	c-2,27.7,7.3,48.1,23.2,51.7c13.8,2.9,35.8-0.4,39.1-6.5c1.2-2,0.4-6.9-1.6-11c-2.8-5.7-7.3-7.3-17.1-5.7c-15.9,2.4-20-3.3-20-28.9
	V69.2h17.5c15.5,0,17.1-0.8,17.5-10.2c0.8-9.4-0.4-10.2-17.5-10.2h-18.3l1.6-14.3c1.6-13.8,1.2-14.2-11.8-14.2
	C618.1,20.4,617.2,21.2,617.2,34.6z M635.6,64.8c-5.7,5.7-6.9,5.7-10.2,0.4c-5.3-8.6,3.3-17.9,11-11.4
	C641.3,57.9,641.3,59.5,635.6,64.8z"/>
<path class="st0" d="M88.5,51.3c-4.9,3.3-9,4.1-9,2c0-2.4-5.3-4.5-12.2-4.5H55.1v88.9l12.2,1.6l12.2,2v-28.1c0-34.6,4.5-44,20.4-44
	c16.3,0,21.2,10.6,20,44c-0.4,15.1,0.4,26.9,1.6,26.1c1.6-0.4,7.7-0.8,13.4-0.8h10.6l-1.6-37.1c-1.2-34.6-2-37.5-12.6-46.9
	C118.2,43.2,101.5,42,88.5,51.3z"/>
<path class="st0" d="M201.7,51.7c-6.9,4.9-10.2,5.3-11.4,2c-0.8-2.8-6.1-4.9-11.4-4.9c-9.8,0-9.8,0-9.8,46v46.4l12.2-2l12.2-1.6
	v-29.4c0-31,3.7-39.1,18.3-39.1c14.7,0,18.3,8.1,18.3,39.5v29.7h24.4v-35c0-33-0.4-35.4-11.8-46.9C229.4,43.2,216.4,41.6,201.7,51.7
	z"/>
<path class="st0" d="M305.6,48.9c-30.1,12.2-39.1,53.8-16.7,77c30.6,31.8,83.9,11.8,83.9-31.4C372.8,59.9,337.4,35.4,305.6,48.9z
	 M338.6,72.5c15.1,9.8,14.7,37.1-0.4,43.2c-28.1,10.6-51.3-17.5-31.8-39.1C312.9,69.2,330.5,66.8,338.6,72.5L338.6,72.5z"/>
<path class="st0" d="M381.8,48.9c0.8,1.2,8.5,22,17.5,46l15.9,43.6h15.5c11.4,0,16.3-2,17.9-7.3c1.2-3.7,8.5-22.8,16.3-42.8
	c7.7-19.6,13.9-36.3,13.9-37.5s-5.3-2-11.8-2c-11.4,0-12.6,1.6-23.2,33.4l-11,33.8l-7.3-17.5c-4.1-9.4-9.4-24.4-12.2-33
	c-4.1-13.9-6.5-16.3-18.3-17.5C387.1,47.2,381.4,47.7,381.8,48.9z"/>
<path class="st0" d="M507.7,55c-6.5,5.7-14.3,16.7-16.7,24.4c-12.6,37.9,30.2,77.8,60.3,56.6c4.9-3.3,9-4.1,9-2
	c0,2.4,5.7,4.5,12.2,4.5h12.2V48.9h-12.3c-6.5,0-12.2,2-12.2,4.5c0,2-4.1,1.2-9-2C537.8,42,521.9,43.2,507.7,55z M553.7,75.8
	c3.7,3.3,6.5,11.4,6.5,17.9c0,14.7-9.8,24.4-24.4,24.4c-12.2,0-24.5-12.2-24.5-24.4C511.3,73.3,539.4,61.5,553.7,75.8L553.7,75.8z"
	/>
<path class="st0" d="M774.1,48.9c-30.1,12.2-39.1,53.8-16.7,77c30.2,31.4,83.9,12.2,83.9-30.1C841.3,59.5,806.7,35,774.1,48.9z
	 M809.1,73.3c5.7,3.2,7.7,8.6,7.7,20.4s-2,17.1-7.7,20.4C790,124.2,768,113.7,768,94.5C768,73.7,789.2,63.1,809.1,73.3z"/>
<path class="st0" d="M895.1,51.3c-4.9,3.3-9,4.1-9,2c0-2.4-4.9-4.5-11-4.5h-11.4l0.4,45.6l0.4,45.2l10.6,0.4c11,0.8,11,0.4,11-27.3
	c0-34.2,4.5-43.6,20.4-43.6s20.4,9.4,20.4,44v28.1l12.6-2l12.6-2l-1.6-36.2c-1.2-34.2-2-37.1-12.6-46.4
	C924.8,43.2,908.1,42,895.1,51.3z"/>
<path class="st0" d="M6.2,93.3v44.4l12.2,1.6l12.2,2V48.9H6.2V93.3z"/>
<path class="st0" d="M698.7,93.3v44.4l12.2,1.6l12.2,2V48.9h-24.4V93.3z"/>
<path class="st0" d="M417.6,224.1v69.2h24.5V154.8h-24.5V224.1z"/>
<path class="st0" d="M226.2,185.4c0,12.6-1.2,14.2-10.2,14.2c-8.1,0-10.2,2-10.2,10.2s2,10.2,10.2,10.2c9.8,0,10.2,0.8,10.2,26.5
	c0,23.2,1.2,28.1,10.2,36.7c17.9,18.3,55.4,10.6,48.9-9.8c-2-6.5-4.9-8.1-9.4-6.5c-4.1,1.6-9,3.7-11.4,4.9
	c-9.4,3.7-17.1-10.6-17.1-31.4l-0.4-20.4h18.3c16.3,0,17.9-0.8,17.9-10.2s-1.6-10.2-18.3-10.2h-18.7l2.9-14.2
	c2.4-13.9,2-14.3-10.2-14.3C227,171.1,226.2,171.9,226.2,185.4z M245.7,204.9c2.9,3.3,2.4,7.3-1.6,13c-5.3,7.3-6.1,7.3-12.2,1.2
	c-7.7-7.3-4.9-19.6,3.7-19.6C238.8,199.6,243.3,202.1,245.7,204.9L245.7,204.9z"/>
<path class="st0" d="M674.3,185.4c0,11.4-1.6,14.2-8.2,14.2c-6.1,0-8.2,2.9-8.2,10.2s2,10.2,7.7,10.2c6.5,0,7.7,4.1,9.4,28.9
	c1.2,24.9,2.8,30.1,11.4,37.1c7.7,6.5,14.3,7.7,27.7,6.1c22-2.4,27.7-7.3,21.6-18.7c-4.1-6.9-6.1-7.7-14.7-3.7
	c-15.5,6.9-22.4-1.6-22.4-27.7v-22H715c14.7,0,16.3-1.2,16.3-10.2c0-9.4-1.6-10.2-16.3-10.2c-15.9,0-16.3-0.4-16.3-14.2
	c0-13-0.8-14.3-12.2-14.3S674.3,172.3,674.3,185.4z M697.5,206.1c2.8,7.7-8.2,20-14.7,16.3c-4.9-3.3-6.1-15.9-1.6-20
	C686.1,197.6,694.7,199.6,697.5,206.1L697.5,206.1z"/>
<path class="st0" d="M26.5,202.9c-29.7,14.7-35.8,53.8-11.4,77c10.2,9.8,15.5,11.4,33.8,11.4c15.5,0,24-2,28.9-6.9
	c6.9-6.5,6.9-7.3,0-15.1s-8.1-7.7-17.5-1.6c-19.2,12.6-42.8-10.2-33.8-33.4c4.5-11.8,22.4-17.5,33.4-10.6c6.5,4.1,9.4,3.7,15.9-2
	c10.6-9.4,9.8-11.8-6.1-19.5C52.2,193.9,44.1,193.9,26.5,202.9z"/>
<path class="st0" d="M121.5,201.6c-15.9,6.9-25.7,24.9-25.7,47.3c0,13.4,2.4,19.1,13.9,30.5c15.5,15.5,37.5,18.7,48.9,7.7
	c7.3-7.3,10.6-7.7,10.6-0.8c0,3.3,4.5,5.3,11.4,4.9c6.1,0,10.6-1.2,10.2-3.2c-0.8-1.6-1.2-22-1.2-45.6c0-42.4,0-42.8-9.8-42.8
	c-5.3,0-10.6,2-11.4,4.5s-5.7,2-13.4-2C140.2,194.3,138.2,194.3,121.5,201.6z M161,228.1c4.5,4.5,8.1,11.8,8.1,16.3
	c0,9.8-17.1,28.5-26.5,28.5c-9.8,0-22.4-15.1-22.4-27.3C120.2,222.4,144.7,211.8,161,228.1L161,228.1z"/>
<path class="st0" d="M325.6,199.6c-16.3,6.5-26.1,24-26.1,46.5c0.4,37.5,33.4,59.9,60.3,40.7c6.9-4.5,9-4.9,9-0.8
	c0,3.3,5.3,5.3,12.2,5.7l12.2,0.4v-92.5H381c-6.5,0-12.2,1.6-12.2,3.7c0,2.4-4.9,1.2-11-2C345.1,194.7,338.2,194.3,325.6,199.6z
	 M381,224.9c0,2-1.6,3.3-4.1,3.3c-2,0-4.1-4.1-4.1-9.4c0-7.3,0.8-7.7,4.1-2.9C378.9,219.2,381,223.2,381,224.9L381,224.9z
	 M361.4,226.9c11,9.8,9.8,32.2-2.9,40.3c-11.8,7.7-24.5,4.5-33-8.6C309.7,234.6,339.8,207.4,361.4,226.9L361.4,226.9z"/>
<path class="st0" d="M592.8,198.4c-11.8,4.5-24.4,19.1-24.4,27.7c0,14.7,9.4,22.8,32.6,27.7c28.9,6.5,31.4,17.1,4.1,16.7
	c-10.2,0-21.2-1.2-24.8-2.9c-4.5-2.5-7.7-0.4-11,6.9c-4.1,9-3.3,10.2,8.2,14.3c29.7,10.6,60.7,3.3,68.4-15.9s-6.5-36.7-30.2-36.7
	c-14.3,0-22.8-4.1-22.8-10.6c0-7.7,16.7-11,30.5-5.7c10.2,3.7,12.6,3.3,17.1-2.4c6.9-9.4,6.5-12.6-0.4-15.1
	C629.9,198.4,598.9,196,592.8,198.4z"/>
<path class="st0" d="M458.4,201.6c0,3.3,32.6,60.3,36.7,64.8c2,1.6-4.5,17.1-14.3,33.4L462.8,330h13.9c13,0,15.1-1.6,26.1-23.6
	c6.5-12.6,22-41.1,34.6-63.5c12.6-22,22.8-40.7,22.8-41.6s-6.1-1.6-13.8-1.6c-12.6,0-14.3,1.6-24.4,24.5
	c-6.1,13.4-11.8,24.4-12.6,24.4s-6.5-11-12.6-24.4c-10.2-22.8-11.8-24.5-24.5-24.5C464.5,199.6,458.4,200.4,458.4,201.6z
	 M515.4,256.6c0,1.6-2.8,5.3-6.1,8.1c-3.7,3.2-6.1,3.2-6.1,0.8s-1.2-6.9-2.5-10.2c-1.6-4.9,0-5.7,6.1-4.1
	C511.7,252.6,515.4,255,515.4,256.6L515.4,256.6z"/>
<ellipse class="st0" cx="628.1" cy="58.7" rx="14" ry="11"/>
<ellipse transform="matrix(0.9977 -6.836355e-02 6.836355e-02 0.9977 -13.885 16.705)" class="st0" cx="237.1" cy="211.2" rx="16.5" ry="10"/>
<ellipse class="st0" cx="377.1" cy="223.2" rx="10" ry="16.5"/>
<ellipse transform="matrix(0.9926 -0.1215 0.1215 0.9926 -24.1344 30.4238)" class="st0" cx="237.4" cy="213.1" rx="10.9" ry="18.1"/>
<ellipse class="st0" cx="508.1" cy="264.2" rx="10" ry="16.5"/>
<ellipse transform="matrix(0.9736 -0.2282 0.2282 0.9736 -45.2957 121.0986)" class="st0" cx="501.1" cy="256.4" rx="5.6" ry="9.2"/>
<ellipse class="st0" cx="688.1" cy="211.2" rx="10" ry="16.5"/>
</svg>
