<?xml version="1.0" encoding="utf-8"?>
<!-- Generator: Adobe Illustrator 25.0.1, SVG Export Plug-In . SVG Version: 6.00 Build 0)  -->
<svg version="1.1" id="Layer_1" xmlns="http://www.w3.org/2000/svg" xmlns:xlink="http://www.w3.org/1999/xlink" x="0px" y="0px"
	 viewBox="0 0 986.5 240.6" style="enable-background:new 0 0 986.5 240.6;" xml:space="preserve">
<style type="text/css">
	.st0{fill:#7C7C7C;}
</style>
<path class="st0" d="M0,120.3v120h72.3v-92h35.2l47.3,41.4c26,22.7,50.6,43.4,54.2,46c5.6,3.6,17.4,4.6,55.5,4l48.3-1l-71.7-60.5
	l-71.3-60.5l20.4-18.4C201.4,89,229.4,63.7,253,43c23.3-20.7,42.4-38.8,42.4-40.4c0.3-1.3-20.7-2.3-46.3-2.3h-47l-46.7,44.4
	l-46.3,44.4H72.3V0.3H0V120.3z"/>
<path class="st0" d="M345,120.3v120h121.6c73.9,0,127.8-1.3,137.7-3.6c31.5-6.6,44.4-24.3,44.4-60.5c0-15.4-2-26.6-5.6-33.5
	c-5.6-10.5-20.4-20.7-30.2-20.7c-8.2,0-5.6-4.6,5.9-9.9c16.1-7.6,22.7-23.3,21-51.6c-1.3-25.3-6.6-36.5-20.7-46
	C601,3,574.1,0.3,457.7,0.3H345V120.3z M558.6,60.5c5.9,3,8.5,7.2,9.2,15.4c2,18.7-1.6,19.7-80.5,19.7h-70V56.2H484
	C530.7,56.2,552.7,57.5,558.6,60.5L558.6,60.5z M570.1,150.2c3.3,3.3,4.9,9.5,4.3,15.8c-1.7,16.8-8.9,18.4-87.1,18.4h-70v-39.5h73.6
	C554.7,144.9,565.5,145.6,570.1,150.2z"/>
<path class="st0" d="M696.7,119.9v120.3h34.2c39.8,0,38.1,1.6,38.1-38.8v-23.7H834c50.9,0,66.4,1,71.6,4.6c4.9,3.6,6.6,9.9,7.9,30.6
	l1.6,25.6l35.5,1l35.8,1l-1.3-34.5c-1-31.2-1.7-35.2-9.2-43c-4.6-4.9-12.5-10.8-18.1-12.8l-9.9-4.3l12.2-5.3
	c20.4-8.5,25.6-21,25.6-61.1c0-44-5.9-58.8-28.9-70C941.8,2,939.2,2,819.2,1L696.7,0V119.9z M909.6,64.7c5.9,4.3,7.2,8.2,7.2,24.3
	c0,29.2-0.7,29.6-81.2,29.6h-66.4l-1-9.2c-0.7-4.9-0.3-18.1,0-29.6l1.3-20.4H836C890.5,59.5,903.4,60.5,909.6,64.7z"/>
</svg>
