<?xml version="1.0" encoding="utf-8"?>
<!-- Generator: Adobe Illustrator 25.0.1, SVG Export Plug-In . SVG Version: 6.00 Build 0)  -->
<svg version="1.1" id="Layer_1" xmlns="http://www.w3.org/2000/svg" xmlns:xlink="http://www.w3.org/1999/xlink" x="0px" y="0px"
	 viewBox="0 0 991.1 371" style="enable-background:new 0 0 991.1 371;" xml:space="preserve">
<style type="text/css">
	.st0{fill:#7C7C7C;}
</style>
<path class="st0" d="M0,185.3V371L44.9,326l44.9-44.9l-16.6-1l-16.6-1V56.6h222.5l1,16.6l1,16.6L326,44.9L370.9,0H0V185.3z"/>
<path class="st0" d="M76.5,168v91.5h33.3v-36.6h39.9v36.6h-36.6v36.6h183V113.2h-33.3v36.6h-39.9v-40h36.6V76.5h-183L76.5,168z
	 M224.2,155c1,3,2,11,2,18.3v13h-39.9v36.6h-36.6v-36.6h36.6v-36.6h18C217.6,149.7,222.6,151,224.2,155L224.2,155z"/>
<path class="st0" d="M337,113.8c-2.3,4,2,9.3,7.6,9.3c2.7,0,7.7,3,11.3,6.6c6.3,6.3,6.6,11,6.6,75.2v68.5l-10.3,9.7
	c-6,5.3-9.6,10.7-8.6,12c1.3,1,21,2,43.6,2.3c31.3,0.3,42.2-0.7,43.2-3.7c1-2.7-2.7-6.3-9.6-9c-15-6.3-18.3-14-18.3-41.3
	c0-18,1.3-24,6-28.3c3.3-3.3,7.6-5.6,9.6-5.6c1.7,0,16.3,19.3,31.9,43.2l28.9,43.2h28.3c15.6,0,28.3-1,28.3-2.7c0-1.3-5-6.3-11-11
	c-9-7.3-75.5-98.8-75.5-103.8c0-4.3,52.2-46.2,65.5-52.6c8-3.7,13.6-8.3,12.3-10c-2.7-4.3-71.2-4-71.2,0.3c0,2,3.7,5,8.3,6.7
	c15.6,6,10.3,15-27,47.9c-16,14-30.3,25.3-31.6,25.3c-3.3,0-4-56.6-1-64.9c1.3-3,6-7,10.3-8.6c4.7-1.7,7.7-4.6,7-7
	C420.5,111.8,339.7,109.8,337,113.8z"/>
<path class="st0" d="M579.9,112.2c-38.3,1.3-46.9,4.6-27.3,11.6c5.7,2,11.3,7,13.3,11.6c1.7,4.3,3,37.3,3,73.2v64.9l-10,9.3
	c-5.3,5-10,10.7-10,12.3c0,4.3,84.2,2.7,85.8-2c0.7-2-3.3-5.3-9-7.3c-5.7-2-12-6.3-13.7-9.6c-2-3.7-3.3-36.3-3.3-74.5
	c0-62.5,0.7-69.2,6.3-74.9c3.3-3.3,8-6.7,10.7-7.7c5-1.7,1-9.6-4.7-8.6C618.8,110.8,600.2,111.8,579.9,112.2z"/>
<path class="st0" d="M643.4,112.8c-3.7,3.7-0.3,7.6,8.3,10.6c15.6,5.6,17.6,15,16.3,87.8l-1,65.5l-9,7.4c-5.3,4-9.3,8.7-9.3,10.3
	c0,2,24,3,61.9,3c59.2-0.7,61.9-1,69.5-8c10.6-10,20.6-35.6,15.6-40.6c-2.3-2.3-7.7,1-18,11.6c-11.3,12-18,15.6-31.9,18.6
	c-23,4.7-26,4.7-31.9-1.7c-6.7-6.3-7.7-64.2-1.3-70.5c9.3-9.3,41.2,0.3,43.2,13c0.7,4,3,8,5.3,9c3,1,4-6.6,4-30.6
	c0-17.6-1-31.9-2.3-31.9c-1.7,0-7,5.3-12,11.6c-8.3,10.6-11,11.6-26,11.6h-16.6l1-30.9l1-30.6l23-1c26.6-1,36.9,3.7,40.2,19.3
	c2.7,12.6,11.7,13.3,11.3,0.7c-0.2-7.5-1-14.9-2.3-22.3l-2.3-13.3h-67.6C675.4,111.4,644.4,112.2,643.4,112.8z"/>
<path class="st0" d="M804.5,113.4c-4.7,3-0.3,9.6,6,9.6c2.7,0,7.7,3,11.3,6.6c6.3,6.3,6.7,11,6.7,76.5v69.5l-10,7.6
	c-5.7,4-9.7,8.7-9,10.6c0.7,1.7,19.3,3,43.9,3c45.6,0,54.9-3.3,33.6-12.3c-15.3-6.3-18.6-13.6-18.6-42.6c0-22.6,3.3-32.6,10.7-32.6
	c5.3,0,17.3,16.3,31.6,44.2c8.3,16,18.6,31.9,23.3,35.6c12,9.3,29,11.6,43.6,6c14.6-5.3,18.6-16,6.3-16c-4.3,0-11-3.3-14.6-7.3
	c-6.7-7-44.2-64.2-44.2-67.2c0-0.7,6.7-3.7,14.6-6.6c34.9-13.3,33.6-60.6-2-78.9c-13-6.7-19.3-7.3-71.9-7.7
	C833.7,111.4,806.1,112.4,804.5,113.4z M904.6,127.8c18.3,9.6,23.6,43.9,9,60.6c-6.7,8-10.3,9.3-25.6,9.6h-18l-1-31.9
	c-0.7-26,0-33.3,4.3-37.6C880,121.8,892.3,121.4,904.6,127.8z"/>
</svg>
