<?xml version="1.0" encoding="utf-8"?>
<!-- Generator: Adobe Illustrator 25.0.1, SVG Export Plug-In . SVG Version: 6.00 Build 0)  -->
<svg version="1.1" id="Layer_1" xmlns="http://www.w3.org/2000/svg" xmlns:xlink="http://www.w3.org/1999/xlink" x="0px" y="0px"
	 viewBox="0 0 997.2 404.5" style="enable-background:new 0 0 997.2 404.5;" xml:space="preserve">
<style type="text/css">
	.st0{fill:#7C7C7C;}
	.st1{fill:#FFFFFF;}
</style>
<path class="st0" d="M700.9,110.4c23,20.4,29.8,37.8,29.5,76.7c0,27.6-1.5,37.4-8.7,52.1c-18.9,38.5-38.9,46.1-123.2,46.1H538
	l-1.1-132.3c-0.4-72.6,0-134.5,1.1-137.2c1.1-3.4,6.8-4.5,15.9-3.8l14.3,1.1l1.9,30.6c2.7,44.2,6,46.9,52.5,46.9
	C666.5,90.7,683.1,94.9,700.9,110.4z"/>
<path class="st0" d="M723.5,118.3c30.2,44.2,24.2,121.7-12.5,153.8c-24.2,21.5-34.4,23.8-113.4,25.7l-72.9,1.6V0h56.7v78.2l47.2,1.9
	C685.8,82.4,703.9,89.6,723.5,118.3z M730.4,187.1c0.4-38.9-6.4-56.3-29.5-76.7c-17.8-15.5-34.4-19.6-78.2-19.6
	c-46.5,0-49.9-2.6-52.5-46.9l-1.9-30.6l-14.4-1.1c-9.1-0.8-14.7,0.4-15.9,3.8c-1.1,2.7-1.5,64.6-1.1,137.2l1.2,132.3h60.5
	c84.3,0,104.3-7.6,123.2-46.1C728.8,224.5,730.4,214.7,730.4,187.1L730.4,187.1z"/>
<path class="st0" d="M94.3,114.5c-40.4,12.5-58.6,71.4-35.2,116c12.8,24.9,28.3,34,57.8,34c37.4,0,62.3-26.5,65-68.4
	C185.8,136.8,144.9,99,94.3,114.5z M134.4,125.1c45.3,17,52.2,95.6,10.6,122.8c-14.4,9.5-47.2,8.7-61.6-1.5
	c-17.8-12.9-24.6-31-22.7-63.5c1.5-31.4,7.9-43.5,29.5-54.8C104.9,120.2,118.8,119,134.4,125.1z"/>
<path class="st0" d="M474.2,188.8c0,31.4-1.1,38.2-9.5,52.5c-13.2,23.4-31.8,36.7-60.5,44.2c-28.7,7.2-57.1,5.3-82.8-6.4
	c-22.3-9.8-32.9-20-45-43.1c-7.9-15.5-9.5-24.2-9.5-47.2c0-32.1,5.7-48.8,23.8-69.5c13.3-14.7,28.8-24.6,47.3-29.1
	c19.3-4.5,52.5-3.8,72.2,2.3c23,6.8,44.6,24.2,55.5,44.6C472.7,150.3,474.2,159,474.2,188.8z"/>
<path class="st0" d="M487,189.4c0,46.1-21.2,81.6-59.7,100.5c-18.5,9.1-25.7,10.6-55.6,10.2c-38.9,0-62.7-8.3-84.3-29.1
	c-23.8-22.7-29.1-37.4-29.1-82c0-36.7,0.8-41.2,11-59.3c12.1-22.3,34-39.3,60.9-48c26.5-8.3,69.5-6.1,95.6,5.3
	C464.3,103.5,487,141.7,487,189.4z M464.3,241.5c8.3-14.4,9.5-21.2,9.5-52.5c0-29.9-1.5-38.6-8.3-51.8c-11-20.4-32.5-37.8-55.5-44.6
	c-19.7-6-52.9-6.8-72.2-2.3c-18.5,4.5-34,14.4-47.2,29.1c-18.1,20.8-23.8,37.4-23.8,69.5c0,23.1,1.5,31.7,9.5,47.2
	c12.1,23,22.7,33.3,45,43.1c25.7,11.7,54,13.6,82.8,6.4C432.5,278.2,451.1,264.9,464.3,241.5L464.3,241.5z"/>
<path class="st0" d="M341.2,156c-22.3-2.6-23.8-2.3-23.8,5.3c0,6.4,2.3,7.6,17,7.6c9.5,0,17,1.9,17,3.8c0,9.1-11.7,25.7-28.4,40.8
	c-16.2,15.1-18.9,23.4-8.3,23.4c2.6,0,13.2-8.3,23-18.5c13.6-14,19.6-23.4,23.4-38.6c3-11,4.9-20,4.2-20.4
	C365.1,159.1,354.1,157.5,341.2,156z M325,177.2c-22.7-10.2-15.1-27.6,13.6-30.6c14.4-1.9,18.9-3.8,19.6-9.8
	c0.8-4.1,4.2-10.6,7.6-14.4c3-3.4,7.6-6.4,9.5-6.4c7.9,0,17.8,12.9,17.8,22.7c0,13.6,3.4,15.9,12.9,9.4c9.8-7.2,15.5-7.2,22.7,0.4
	c8.3,8.3,7.6,14.4-3.8,27.6l-9.8,11.7l12.1,11.3c6.8,6.4,13.2,11.3,14.7,11.3s5.3,4.2,7.9,9.4c4.5,8.3,4.2,10.2-2.3,15.1
	c-10.6,7.9-21.2,6.8-37-3.8c-17-11.7-17.4-11.7-17.4-0.4c0,14-14,28.7-26.8,28.7c-12.5,0-27.6-12.8-24.6-21.2
	c2.6-6.8-1.5-6.4-10.6,0.4c-10.2,7.6-18.9,7.2-26.8-1.9c-6-6.8-6.4-7.9-0.4-16.6c3.4-5.3,9.4-11.3,13.6-13.6s9.8-8.7,12.9-14.4
	C335.6,182.1,335.2,181.7,325,177.2z M440.7,232.7c7.6-6.4,6.8-8.3-7.6-16.2c-8.6-4.8-16.5-10.8-23.4-17.8l-10.6-11l15.9-16.3
	c8.7-9.1,14.7-17.4,13.6-18.9c-6-5.7-15.5-1.9-21.5,8.7c-3.8,6.1-9.1,11.3-12.1,11.3c-6,0-13.2-19.3-13.2-36.3
	c0-9.1-1.9-12.9-5.7-12.9c-6.8,0-6.4-5.7-5.7,59.7l0.4,54.4l-8.7-0.8c-13.6-1.1-14.7-0.4-10.6,7.6c4.5,8.7,19.6,10.2,25.7,2.6
	c2.3-2.6,4.5-18.5,5.3-34.8l1.1-30.2l6.8,12.1c3.4,6.8,15.1,19.3,25.7,27.6C431.2,233.9,436.5,236.2,440.7,232.7L440.7,232.7z"/>
<path class="st1" d="M430,216.7c14.4,7.9,15.1,9.8,7.6,16.2c-4.2,3.4-9.5,1.1-24.6-11c-10.6-8.3-22.3-20.8-25.7-27.6l-6.8-12.1
	l-1.1,30.2c-0.8,16.2-3,32.1-5.3,34.8c-6,7.6-21.2,6-25.7-2.6c-4.2-7.9-3-8.7,10.6-7.6l8.7,0.8l-0.4-54.4
	c-0.8-65.4-1.1-59.7,5.7-59.7c3.8,0,5.7,3.8,5.7,12.9c0,17,7.2,36.3,13.2,36.3c3,0,8.3-5.3,12.1-11.3c6-10.6,15.5-14.4,21.5-8.7
	c1.1,1.5-4.9,9.8-13.6,18.9L396,188l10.6,11C413.6,205.9,421.5,211.9,430,216.7z"/>
<path class="st1" d="M362.4,159.6c0.8,0.4-1.1,9.4-4.2,20.4c-3.8,15.1-9.8,24.6-23.4,38.6c-9.8,10.2-20.4,18.5-23,18.5
	c-10.6,0-7.9-8.3,8.3-23.4c16.6-15.1,28.4-31.8,28.4-40.8c0-1.9-7.6-3.8-17-3.8c-14.7,0-17-1.1-17-7.6c0-7.6,1.5-7.9,23.8-5.3
	C351,157.7,362,159.2,362.4,159.6z"/>
<path class="st1" d="M682.7,182.2c1.1,19.7,0,31.8-4.2,41.6c-8.7,21.2-20.4,26.5-61.2,28.7l-35.9,1.9V124.7h25.7
	c14,0,31.4,1.9,38.9,3.8c7.2,1.9,18.1,8.7,24.2,15.1C679.3,153.1,681.2,158.4,682.7,182.2z"/>
<path class="st0" d="M982.1,176.9c1.1,26.5,1.1,61.6,0,78.2l-1.9,30.3l-77.5,1.1c-74.1,0.8-78.2,0.4-94.5-7.6
	c-13.6-6.8-18.1-11.7-22.3-23.8c-6.8-20-3-47.2,8.7-59.7c12.5-13.2,30.2-17,88.1-18.9c33.2-0.8,51.8-3,55.5-6.4c7.6-6,7.6-26.1,0-37
	c-11.3-16.2-23.8-19.3-79-20c-28.7,0-54.4-1.1-57.4-2.3c-5.3-1.9-6.8-13.2-2.3-17.8c1.5-1.5,32.5-2.3,69.2-1.5
	c57.1,1.1,68,2.3,80.9,8.7C976,113.8,979.8,122.4,982.1,176.9z M942,256.2c9.5-13.2,7.9-41.6-2.6-51.4c-7.9-7.6-12.8-8.3-48.4-8.3
	c-27.6,0-42.7,1.9-51,6c-22.3,11-26.5,34-9.5,51c11,11,11.3,11,58.6,11C933.7,264.5,936.7,264.2,942,256.2z"/>
<path class="st0" d="M218.6,189c0,38.2-6.8,56.3-28.4,75.2c-18.1,15.9-33.2,22.3-59.3,25.3c-44.6,5.3-88.1-13.6-107-46.1
	c-9.8-16.6-11-21.9-11-54.4c-0.4-40.8,6-57.8,29.5-78.2c26.5-23.4,78.2-30.6,116.8-16.2C201.2,110,218.6,137.9,218.6,189z"/>
<path class="st0" d="M993.4,210.9c1.1,46.5,1.1,85.4,0.4,86.2s-40.1,1.5-86.9,1.5c-94.1,0-107.3-2.6-124.3-24.2
	c-17.8-22.7-13.6-73.3,7.2-91.1c16.6-13.6,34-17,93.3-17h53.7v-9.8c0-5.7-4.5-14.4-11-20.8l-11-11H785.5V78.6l76.7,1.5
	c69.9,1.1,77.8,1.9,93.3,9.4c9.5,4.9,21.2,14.7,26.5,22.7C991.2,125.8,991.5,128.1,993.4,210.9z M982.1,255.1
	c1.1-16.6,1.1-51.8,0-78.2c-2.3-54.4-6-63.1-32.5-76.7c-12.8-6.4-23.8-7.6-80.9-8.7c-36.7-0.8-67.7,0-69.2,1.5
	c-4.5,4.5-3,15.9,2.3,17.8c3,1.1,28.7,2.3,57.4,2.3c55.2,0.8,67.7,3.8,79,20c7.6,11,7.6,31,0,37c-3.8,3.4-22.3,5.7-55.5,6.4
	c-57.8,1.9-75.6,5.7-88.1,18.9c-11.7,12.5-15.5,39.7-8.7,59.7c4.2,12.1,8.7,17,22.3,23.8c16.2,7.9,20.4,8.3,94.5,7.6l77.5-1
	L982.1,255.1z"/>
<path class="st0" d="M939.4,204.8c10.6,9.8,12.1,38.2,2.6,51.4c-5.3,7.9-8.3,8.3-52.9,8.3c-47.2,0-47.6,0-58.6-11
	c-17-17-12.8-40.1,9.5-51c8.3-4.2,23.4-6,51-6C926.5,196.5,931.4,197.3,939.4,204.8z M936.7,255.1v-47.2h-44.6
	c-51.8,0-61.2,3.8-61.2,24.2c0,7.2,2.3,14.4,4.9,16.6c2.3,2.3,26.1,4.5,52.9,5.3L936.7,255.1z"/>
<path class="st0" d="M579.9,255.9c-9.5-9.8-9.8-11-9.8-62.7c0-57.1,2.7-70.7,15.9-76c13.6-5.3,45.4-4.2,64.6,2.3
	c31.4,10.6,46.9,39.7,43.1,81.6c-3.8,42.3-23.8,59-74.5,62.4C591.3,265.3,589,264.9,579.9,255.9z M581.5,254.3l35.9-1.9
	c40.8-2.3,52.5-7.6,61.2-28.7c4.2-9.8,5.3-21.9,4.2-41.6c-1.5-23.8-3.4-29.1-12.5-38.6c-6-6.4-17-13.2-24.2-15.1
	c-7.6-1.9-25-3.8-38.9-3.8h-25.7V254.3L581.5,254.3z"/>
<path class="st0" d="M170.2,86.2c39.7,17.4,61.2,54.4,60.5,105.1c-0.8,66.9-43.8,108.5-112.2,108.8c-37,0-57.1-5.7-78.2-21.5
	C-2.8,246-13.8,163.6,19.5,120.2c15.5-20,27.6-28.7,52.2-37.8C98.1,73.4,144.2,74.8,170.2,86.2z M190.2,264.2
	c21.6-18.9,28.4-37,28.4-75.2c0-51-17.4-79-59.3-94.5c-38.5-14.4-90.3-7.2-116.8,16.2C19.1,131.1,12.6,148.1,13,189
	c0,32.5,1.1,37.8,11,54.4c18.9,32.5,62.4,51.4,107,46.1C157,286.5,172.2,280,190.2,264.2L190.2,264.2z"/>
<path class="st0" d="M529.7,338.2c-7.2,5.3-8.7,9.5-8.7,27.6c0,11.7,1.5,23.4,3,26.1c4.2,6.4,23.4,12.9,31.4,10.6
	c11.7-3.8,8.3-12.5-4.9-14c-14-1.1-20.8-14-16.6-31c1.9-8.3,4.5-9.8,15.9-9.8c10.6,0,13.2-1.1,12.1-6.8
	C560.3,332.2,540.6,330.7,529.7,338.2z"/>
<path class="st0" d="M583,337.5c-1.1,3-1.5,18.5-0.8,35.1c0.8,23.4,2.3,29.9,6.8,29.9c3.8,0,6-4.5,6.8-14.4
	c1.5-18.1,6.4-17.8,15.9,1.1c7.2,14,14.4,18.5,20,12.9c1.1-1.1-1.5-8.3-6-15.5c-7.2-12.1-7.2-13.6-1.5-17c9.4-4.9,8.3-24.2-1.9-31
	C611.7,331.1,585.6,330.7,583,337.5z M611,347.3c7.9,4.9,3.8,17.4-6,18.5c-7.2,1.1-8.3-0.4-8.3-10.2
	C596.6,343.9,601.5,340.9,611,347.3L611,347.3z"/>
<path class="st0" d="M660.1,336.7c-5.7,3-6.8,9.1-6.8,32.1c0,26.8,0.4,28.4,9.8,31.8c12.8,4.9,29.9,2.6,29.9-4.2c0-3-5.3-6-13.2-7.2
	c-18.5-2.6-20.8-15.1-2.6-15.1c14.4,0,18.1-2.3,15.5-9.4c-1.5-3.4-6-4.5-15.5-3c-12.1,1.9-13.2,1.5-11.7-6.8
	c0.8-7.6,3.4-9.1,14.4-9.1c9.1,0,13.2-1.9,13.2-5.7C692.9,333.4,669.5,330.7,660.1,336.7z"/>
<path class="st0" d="M719.8,338.6c-4.5,4.2-6,13.6-6,35.5c0,26.1,0.8,29.5,6.8,28.7c4.5-0.8,6.4-4.5,6.4-13.2
	c0-10.6,0.8-11.7,12.1-11.7c11.7,0,12.5,0.8,11.7,12.1c-1.1,10.2,0.4,12.5,6,12.5c6.8,0,7.2-2.6,6.4-30.2c-0.4-23-2.3-31.4-6.8-35.1
	C747.7,330.7,727,331.4,719.8,338.6z M747,348.5c8.7,8.7,5.3,18.1-6.4,18.1c-13.6,0-15.5-3-11.3-14.4
	C732.6,343.2,739.8,341.3,747,348.5L747,348.5z"/>
<path class="st0" d="M781.8,341.3c0,4.9,2.3,6.4,8.3,5.7c7.9-1.1,8.3,0.4,8.3,27.2c0.4,25.3,1.1,28.4,7.9,28.4
	c6.4,0,7.2-2.6,7.6-28.4c0-27.2,0.4-28.3,8.7-27.2c6,0.8,8.3-0.8,8.3-5.7c0-6.4-3-7.2-24.6-7.2S781.8,334.9,781.8,341.3z"/>
<path class="st0" d="M849.4,334.1c0,1.1-0.4,17-0.8,35.1c-0.4,30.6,0.4,33.3,7.2,33.3c6.4,0,7.2-3,7.2-34c0-29.1-0.8-34-6.4-35.1
	C852.8,332.6,849.8,333,849.4,334.1z"/>
<path class="st0" d="M881.5,339c1.1,3.8,4.5,17.8,7.6,31.4c4.9,21.2,12.8,34,21.2,34c7.9,0,15.5-13.2,21.9-38.9
	c5.7-23.8,6-30.2,2.3-31.7c-8.7-3.4-12.1,2.3-17,29.1c-2.7,14.7-6,27.6-7.6,28.3c-1.5,1.1-4.9-11.3-7.9-27.2
	c-4.5-26.1-6.4-29.5-14-30.6C881.2,332.2,879.6,333.4,881.5,339z"/>
<path class="st0" d="M961.6,338.6c-7.9,7.9-8.3,51.4-0.4,58.2c3,2.3,12.1,5.3,20.8,6.4c13.6,1.9,15.1,1.1,15.1-6
	c0-6.4-2.3-7.9-13.2-7.9c-10.6,0-13.2-1.5-13.2-7.6s2.7-7.6,13.6-7.6c10.6,0,13.2-1.1,12.1-6.8c-0.8-4.9-4.2-6-13.6-5.3
	c-11.3,1.1-12.5,0.4-11.3-7.6c0.8-7.2,3-8.7,13.6-7.6c10.2,1.1,12.1,0,12.1-6.4c0-6.8-2.3-7.9-14.7-7.9
	C973.8,332.6,965.1,335.2,961.6,338.6z"/>
<circle class="st1" cx="119.7" cy="187.9" r="82.5"/>
</svg>
