<?xml version="1.0" encoding="utf-8"?>
<!-- Generator: Adobe Illustrator 25.0.1, SVG Export Plug-In . SVG Version: 6.00 Build 0)  -->
<svg version="1.1" id="Layer_1" xmlns="http://www.w3.org/2000/svg" xmlns:xlink="http://www.w3.org/1999/xlink" x="0px" y="0px"
	 viewBox="0 0 994.9 217.6" style="enable-background:new 0 0 994.9 217.6;" xml:space="preserve">
<style type="text/css">
	.st0{fill:#7C7C7C;}
</style>
<path class="st0" d="M82.4,41.3c15.8,14.1,0.7,29.3-29.3,29.3c-12,0-17.9-2.1-24.1-8.3c-10-10-8.6-17.2,4.8-24.4
	C45.5,31,73.4,33,82.4,41.3z"/>
<path class="st0" d="M104.4,86.1c2.4,16.9-5.8,32.7-22.7,43.4c-9,5.2-15.5,6.5-29.6,5.5c-15.5-1-20.3-3.1-31-13.8
	c-10-10-12.4-15.1-12.1-25.5c0.1-10.6,1.5-21.1,4.1-31.3c0.7-1.4,2.8-0.7,15.1,4.5c16.2,6.6,42.7,6.6,55.4,0
	C96.5,62,101.3,66.1,104.4,86.1z"/>
<path class="st0" d="M141.3,14.5c1.7,1.7,2.8,42.4,2.4,96.1l-1,92.6l-30.6,1.7c-37.9,2.1-44.8-0.7-46.1-18.2
	c-1.4-16.9,5.2-26.9,21.7-33c7.2-2.4,17.9-10,23.8-16.5c16.9-18.9,18.6-23.4,18.9-45.1c0.3-6.5,1.7-10.7,3.8-9.3
	c2.1,1,3.4-1.4,3.4-5.9c0-6.2-0.7-6.9-3.4-2.8c-2.4,3.8-3.4,1.7-3.4-7.9c0-6.9-1.4-12.7-3.4-12.7c-1.7,0-3.4-2.4-3.4-5.2
	c0-3.1-6.2-12.1-13.8-20.3C102.4,20,97.2,12,98.6,11C101.7,7.9,137.5,10.7,141.3,14.5z"/>
<path class="st0" d="M994.9,54c0,1.7-1.4,2.8-3.4,2.8c-1.7,0-9.6,11.4-17.6,24.8c-23.1,40.6-28.2,47.2-39.6,51
	c-12,4.1-22,1.7-22-5.5c0-3.8,3.8-4.8,13.8-4.1c13.4,0.7,23.8-6.2,24.1-16.2c0-6.2-32-49.9-36.8-49.9c-2.4,0-4.5-1-4.5-2.8
	c0-1.4,8.6-2.4,18.9-2.4s18.9,1,18.9,2.4c0,1.7-2.4,2.8-5.2,2.8s-5.2,1-5.2,2.1c0,1.7,13.8,21.4,21,29.9c1,1.7,6.2-4.5,11.4-13.4
	c10.7-18.9,10.7-18.6,3.1-18.6c-3.1,0-4.5-1-3.4-2.1C971.5,51.3,994.9,51,994.9,54z"/>
<path class="st0" d="M870.9,57.5c0,1.4-3.1,2.8-6.9,2.8c-5.5,0-6.5,1.7-5.2,7.9c3.1,11.4-8.6,20.3-29.3,22.4
	c-11.4,1-17.2,0.3-17.2-2.4c0-2.1-2.1-3.8-4.8-3.8c-4.8,0-9-7.2-9-15.8c0-2.8,5.2-7.9,11.4-12.1c8.6-5.5,13.8-6.2,24.8-4.5
	c7.6,1.4,18.9,2.8,25.1,2.8C865.7,54.8,870.9,55.8,870.9,57.5z M831,84.4c14.1,0,18.2-7.6,10.7-19.3c-10.7-16.5-34.4-6.6-26.5,10.7
	C818.2,82.6,821.7,84.4,831,84.4z"/>
<path class="st0" d="M836.9,101.2c32,1,42.4,9.3,27.9,22c-6.9,6.2-39.6,13.8-48.5,11.4c-3.1-0.7-9.6-2.4-14.8-3.4
	c-11.4-2.8-13.1-14.1-2.8-17.6c7.9-2.4,9-7.2,2.8-9.6c-3.5-1-3.5-2.4,0.3-6.9c5.5-6.9,9.3-7.6,11.7-1.4
	C814.4,98.8,822.7,100.5,836.9,101.2z M831,125.7c20.7,0,37.9-6.5,32.4-12.4c-1.4-1.4-14.1-3.1-28.6-4.1
	c-21.3-1.4-26.2-0.7-27.9,3.8C803.4,122.6,808.9,125.7,831,125.7L831,125.7z"/>
<path class="st0" d="M741.8,105.4c4.1,1.7-2.4,2.4-17.2,2.4c-13.1,0-20.7-1-16.2-1.7c6.9-1.4,7.6-3.4,7.6-23.8s-0.7-22-7.6-22.4
	c-4.8-0.3-1.4-2.1,7.6-4.5l15.5-4.1l1.7,25.8C734.5,98.5,735.9,102.9,741.8,105.4z"/>
<path class="st0" d="M724.9,25.8c9.3,0,11.4,8.3,2.8,11.7c-6.5,2.4-16.2-4.1-13.1-8.6C715.6,27.2,720.1,25.8,724.9,25.8z"/>
<path class="st0" d="M657.4,101.6c0,1.7-1,3.4-2.4,3.4c-66.8,4.5-65.8,4.5-75.1-4.8c-10.3-10.3-11-22-1.4-34.1
	c8.9-11.7,30.3-18.6,40.3-13.1c10.3,5.5,11,4.8,11-6.9c0-8.3-1.7-11-7.6-12.7c-7.9-2.1-7.9-2.1,0.7-4.5c20.7-5.9,20.3-6.2,21.3,33.8
	c1,33,1.7,37.2,7.2,36.1C654.7,98.1,657.4,99.5,657.4,101.6z M625.7,97.4c5.8-5.9,5.2-28.9-1.4-35.1c-7.2-7.6-23.1-6.9-30,0.7
	c-7.6,8.6-7.2,25.8,0.3,32.7S619.9,103.3,625.7,97.4z"/>
<path class="st0" d="M633.7,167c5.2,0,6.5,2.4,6.5,12c0,11.4-0.7,12-11,12c-21.3,0-32.4-24.5-15.8-35.8c9.3-6.5,26.9-7.2,26.9-1
	c0,2.4-4.5,4.1-10.7,4.1c-13.1,0-20.7,9-14.8,17.9c5.2,8.3,18.6,10.3,18.6,3.1c0-3-2.4-5.5-5.4-5.5c0,0-0.1,0-0.1,0
	c-2.8,0-4.1-1.7-3.1-3.4C625.7,168.4,629.9,167,633.7,167z"/>
<path class="st0" d="M573.8,150.8c2.4-1,3.4,5.2,3.1,19.3c-0.3,25.1-4.8,26.9-17.2,6.2l-8.6-14.5l-0.3,14.5c0,8.3-1.4,14.8-3.4,14.8
	s-3.4-9.3-3.4-20.7c0-24.8,6.2-27.5,15.5-6.9c7.9,17.2,13.1,17.6,11.4,1C570.3,157.4,571.3,151.5,573.8,150.8z"/>
<path class="st0" d="M490.1,51.7c26.9,3.8,40.3,18.6,33.1,36.5c-8.3,20-40.6,27.5-63,14.5c-22-13.1-19.3-36.5,5.5-47.9
	C473.4,51.8,481.8,50.7,490.1,51.7z M476.6,103c24.8,9.3,42-16.2,25.5-37.2c-12.4-15.8-41-9.3-41,9.6
	C461.1,84,470.4,100.5,476.6,103L476.6,103z"/>
<path class="st0" d="M513.9,171.5c0.7,13.8-0.7,19.6-3.4,19.6c-3.1,0-4.5-6.5-4.5-21C505.9,142.9,513.1,144.3,513.9,171.5z"/>
<path class="st0" d="M474.2,150.5c3.1-1,4.1,4.5,4.1,19.6c0,25.8-5.9,27.9-18.6,6.2l-9-14.5v14.5c0,8.3-1.4,14.8-3.4,14.8
	s-3.5-9.3-3.5-20.7c0-24.8,5.9-27.5,15.8-6.9c8.3,17.2,12.4,17.6,11,1C470.1,157,471.5,151.5,474.2,150.5z"/>
<path class="st0" d="M412.9,180.4c4.5,8.6,4.5,10.7,0,10.7c-2.1,0-5.2-3.8-6.9-8.6s-4.8-8.6-6.9-8.6c-1.7,0-3.4,3.8-3.4,8.6
	s-1.4,8.6-3.5,8.6s-3.4-9.3-3.4-20.7c0-20.7,0-20.7,10.3-20.7c11.7,0,18.6,9,13.4,18.2C410.5,171.9,410.6,176.7,412.9,180.4z
	 M401.2,167c2.8-0.1,4.9-2.4,4.8-5.2c0-5.2-7.2-7.2-11.4-3.1C391.6,162.2,395.4,167,401.2,167z"/>
<path class="st0" d="M397.1,53.4c7.9,6.5,2.8,11.4-10,9c-14.8-2.8-19.6,3.4-18.2,24.1c1,14.5,2.1,16.9,9.6,18.9
	c5.5,1.4-0.3,2.4-15.5,2.4c-17.6,0.4-22-0.7-16.2-2.8c6.5-2.8,7.6-5.9,7.6-22.7s-1-19.6-7.6-21.4s-5.5-2.4,5.9-5.9
	c10.7-2.8,14.1-2.8,14.8,0.7c1,3.1,3.8,2.8,12.7-1.4C389.9,49.9,393,49.6,397.1,53.4z"/>
<path class="st0" d="M340.6,149.8c3.8,0,21.4,38.6,18.6,41c-1,1-3.8-0.7-6.2-4.1c-5.5-7.2-22.7-7.9-22.7-0.7
	c-0.1,2.9-2.6,5.2-5.5,5.2c-3.1,0-4.8-1-4.1-2.8c0.7-1.4,4.8-10.7,9.3-20.7C334.4,158,339.3,149.8,340.6,149.8z M344.1,175.3
	c1.4-1.7,1.4-6.2,0-10c-2.4-6.5-2.4-6.5-6.2,0.7C333.4,173.9,338.6,181.1,344.1,175.3L344.1,175.3z"/>
<path class="st0" d="M295.9,153.2c0,1.7-3.8,3.5-8.6,3.5c-5.5,0-8.6,2.1-8.6,5.2s3.1,5.2,8.6,5.2c4.8,0,8.6,1.4,8.6,3.4
	c0,1.7-3.8,3.4-8.6,3.4c-5.5,0-8.6,2.1-8.6,5.2s3.1,5.2,8.6,5.2c4.8,0,8.6,1.4,8.6,3.5c0,1.7-5.5,3.4-12,3.4h-12v-41.3h12
	C290.4,149.8,295.9,151.2,295.9,153.2z"/>
<path class="st0" d="M299.3,49.6c0,13.8-13.1,21.4-40.3,23.8L237.3,75v11c0,11.7,4.1,17.2,15.5,20c3.8,0.7-6.2,1.7-22.4,1.7
	c-23.4,0-27.6-0.7-19.6-3.4c9.3-3.4,9.3-3.4,9.3-37.5c0-31.3-0.7-34.1-6.5-34.1c-3.8,0-7.9-1.4-9-3.4c-1.4-2.1,11.7-2.8,35.5-2.1
	C284.9,28.9,299.3,34.1,299.3,49.6z M275.2,60.2c8.3-8.3,8.3-10.3,2.4-18.6c-4.8-6.5-33-11.7-37.5-6.9c-1.7,1.4-2.8,9.3-2.8,17.6
	v14.8h15.5C263.9,67.1,270.4,65.1,275.2,60.2z"/>
<path class="st0" d="M235.6,184.2c4.8,0,8.6,1.4,8.6,3.5c0,1.7-5.5,3.4-12.1,3.4h-12v-20.7c0-11.4,1.4-20.7,3.4-20.7
	s3.4,7.6,3.4,17.2C227,183.2,227.7,184.2,235.6,184.2z"/>
<path class="st0" d="M154.7,108.8v108.8h-49.9l-50.3-0.3l1-32.4l1-32.7l15.5-3.8c19.6-5.2,29.3-11.7,40.6-28.2
	c15.8-23.8,13.8-58.2-5.2-80.9c-10.3-12-31.7-23.8-44.1-23.8c-6.2,0-8.6-1.7-8.6-6.2c0-3.4,0.7-7.2,1.4-7.9S79.6,0,106.2,0h48.5
	V108.8z M143.7,110.5c0.3-53.7-0.7-94.3-2.4-96.1c-3.8-3.8-39.6-6.5-42.7-3.4c-1.4,1,3.8,8.9,11.4,16.9c7.6,8.3,13.8,17.2,13.8,20.3
	c0,2.8,1.7,5.2,3.4,5.2c2.1,0,3.4,5.9,3.4,12.7c0,9.6,1,11.7,3.4,7.9c2.8-4.1,3.4-3.4,3.4,2.8c0,4.5-1.4,6.9-3.4,5.9
	c-2.1-1.4-3.4,2.8-3.8,9.3c-0.4,21.7-2.1,26.2-18.9,45.1c-5.8,6.5-16.5,14.1-23.8,16.5c-16.5,6.2-23.1,16.2-21.7,33.1
	c1.4,17.6,8.3,20.3,46.1,18.2l30.6-1.7L143.7,110.5z"/>
<path class="st0" d="M83.8,68.9c-12.7,6.6-39.2,6.6-55.4,0c-12.4-5.2-14.5-5.8-15.2-4.5C10.5,74.6,9.1,85.1,9,95.7
	c-0.3,10.3,2.1,15.5,12.1,25.5c10.7,10.7,15.5,12.7,31,13.8c14.1,1,20.7-0.3,29.6-5.5c16.9-10.7,25.1-26.5,22.7-43.4
	C101.3,66.1,96.5,62,83.8,68.9z M29,62.3c6.2,6.2,12,8.3,24.1,8.3c30,0,45.1-15.1,29.3-29.3c-9-8.3-36.8-10.3-48.5-3.4
	C20.4,45.1,19,52.3,29,62.3z M32.5,30.6c38.6-16.9,83.7,15.5,79.9,57.9c-1.7,18.9-14.1,37.5-31,46.5c-14.1,7.2-38.9,7.2-53,0
	C-11.3,114-8.9,48.6,32.5,30.6z"/>
</svg>
