<?xml version="1.0" encoding="utf-8"?>
<!-- Generator: Adobe Illustrator 25.0.1, SVG Export Plug-In . SVG Version: 6.00 Build 0)  -->
<svg version="1.1" id="Layer_1" xmlns="http://www.w3.org/2000/svg" xmlns:xlink="http://www.w3.org/1999/xlink" x="0px" y="0px"
	 viewBox="0 0 788.3 477.9" style="enable-background:new 0 0 788.3 477.9;" xml:space="preserve">
<style type="text/css">
	.st0{fill:#7C7C7C;}
</style>
<path class="st0" d="M335.9,1.6l-1.3,111.8c-0.5,61.8-2.1,114.2-2.9,116.6c-2.6,5.8-5,6.6-30.9,10c-12,1.6-23,4.5-24.9,6
	c-1.8,1.8-4.2,8.9-5.2,16s-1.8-37.7-1.6-102.1c0.5-73.3,1.8-118.9,3.7-125.5c3.1-11.8,14.1-24.9,20.7-24.9c2.5-0.1,4.8-0.9,6.8-2.4
	c2.9-2.9,11.8-4.7,25.4-5.2L335.9,1.6z"/>
<path class="st0" d="M330.7,243.1c0.8,1.8,1.3,29.1,1,60.2c-0.3,51.6-0.8,57.1-5.2,62.1c-6.8,7.6-21,11.3-38.2,10.2l-14.4-0.8v-24.9
	c0-40.3,2.4-99,4.5-100.8c1.8-1.8,36.1-8.6,45.6-8.9C327,239.9,330.1,241.5,330.7,243.1z"/>
<path class="st0" d="M335.9,1.6l-10.2,0.3c-13.6,0.5-22.5,2.4-25.4,5.2c-2,1.5-4.4,2.3-6.8,2.4c-6.5,0-17.5,13.1-20.7,24.9
	c-1.8,6.6-3.1,52.1-3.7,125.5c-0.3,64.4,0.5,109.2,1.6,102.1s3.4-14.1,5.2-16c1.8-1.6,12.8-4.5,24.9-6c25.9-3.4,28.3-4.2,30.9-10
	c0.8-2.4,2.4-54.7,2.9-116.6L335.9,1.6z M323.6,0l15.7,0.3v362.5l-7.3,7.6c-9.2,9.4-23.8,13.6-48.7,13.6h-18.6V208.5
	c0-168.7,0.3-176,5-185.7c6-11.5,14.4-17.8,28.3-21C303.4,0.8,314.9,0,323.6,0z M331.7,303.3c0.3-31.2-0.3-58.4-1-60.2
	c-0.5-1.6-3.7-3.1-6.8-2.9c-9.4,0.3-43.7,7.1-45.6,8.9c-2.1,1.8-4.5,60.5-4.5,100.8v24.9l14.4,0.8c17.3,1,31.4-2.6,38.2-10.2
	C330.9,360.4,331.4,354.9,331.7,303.3z"/>
<path class="st0" d="M200.5,104c6.5,1.3,0.5,1.6-17,0.5c-15.2-0.8-32.2-2.4-38-3.7c-6.8-1.3-0.5-1.6,17-0.5
	C177.7,101.1,194.7,102.7,200.5,104z M159.4,214c7.9,1.6,13.4,3.4,12.8,4.2c-2.4,2.4-88.3-14.4-88.3-17.3
	C83.9,199.3,98.3,201.9,159.4,214L159.4,214z M18.7,230.8c1.8,3.4,0.3,2.6-3.9-2.1C11.1,224.7,8,220,8,218.2
	C8.2,214.8,14.8,222.4,18.7,230.8z M214.9,261.7c13.6,11,17.8,30.9,11.5,56c-6.3,25.9-26.5,44.8-55.5,52.1
	c-32.2,8.1-143.8,6.5-154.5-2.1c-4.7-4.2-2.4-21.2,4.7-30.9c7.6-10.7,16.5-12.8,47.4-11c34.6,2.1,66.5,2.1,78.6-0.3
	c9.4-1.8,23.3-11.5,23.3-16.2c0-1.3-3.7,1-8.1,5.5l-8.1,7.6l-55.3-0.8c-59.2-0.8-67.8,0.5-78.8,11.8c-6.8,6.8-9.4,5.5-3.4-1.8
	c7.9-10,16-13.1,35.9-13.4c15.4-0.3,18.1-0.8,11.8-2.6c-6-1.6-5-1.8,5-1c7.1,0.8,21.2,1.6,31.4,1.8l18.6,0.3l-14.4,2.1
	c-11,1.3-7.3,1.6,14.4,1.3c32.7-0.5,44.5-4.7,47.4-16.5c1.8-6.5,2.1-6.5,3.9-2.1c1.6,3.9,2.1,2.9,2.1-4.7c0.3-10.7-4.7-17.3-17.5-23
	c-14.1-6.3-11.3-8.4,19.1-12.6C197.4,257.7,210.4,258,214.9,261.7L214.9,261.7z"/>
<path class="st0" d="M93.6,259.9c-20.7-2.9-36.9-6.8-46.4-11c-16-7.3-26.2-15.7-26.2-21.5c0-1.8-4.2-8.4-8.9-14.1
	c-5-5.8-9.7-13.1-10.2-16.2c0-0.1-0.1-0.2-0.1-0.3c16.1-46,50.8-92.7,109-93.2c13.1-0.3,42.4,1.3,64.7,3.1l40.6,3.7l0.8,11.8
	c0.8,15.5-6,28.8-17.8,34.8c-8.1,3.9-14.1,4.4-55,2.9c-50.6-1.8-63.1,0-73.1,10.5c-7.9,8.4-6,17,6,29.1c7.1,7.1,12.8,9.4,33.3,14.1
	c16.5,3.5,33.2,6.1,50,7.9c33,2.6,49.2,12.1,65.2,36.7c8.9,13.9,10.2,23.6,1.6,10.5c-10.5-15.7-14.7-16.5-60.8-10
	C126.4,264.3,125.1,264.3,93.6,259.9z"/>
<path class="st0" d="M31,380.6l-25.7-2.4v-17.3c0.3-25.1,6.8-38.5,22.3-45.3c11.3-5,14.9-5.2,54.5-3.1c51.1,2.6,62.6,2.1,72.6-3.1
	c7.3-3.7,9.2-7.9,8.1-16.8c-0.5-1.8,0.5-2.6,2.1-1.6c1.6,0.8,2.9,0.8,2.9-0.5c0-4.5-24.6-11.8-67.6-20.4
	c-27-5.2-49.5-11.3-57.4-15.2c-24.1-12.3-42.9-36.9-42.4-54.7c0-0.1,0-0.2,0-0.4c0.1,0.3,0.3,0.2,0.5-0.4c0.3-0.9,0.6-1.8,0.9-2.7
	c0,0.1,0.1,0.2,0.1,0.3c0.5,3.1,5.2,10.5,10.2,16.2c4.7,5.8,8.9,12.3,8.9,14.1c0,5.8,10.2,14.1,26.2,21.5c9.4,4.2,25.7,8.1,46.4,11
	c31.4,4.5,32.7,4.5,72.8-1.3c46.1-6.5,50.3-5.8,60.8,10c8.6,13.1,7.3,3.4-1.6-10.5c-16-24.6-32.2-34.1-65.2-36.7
	c-16.8-1.7-33.5-4.3-50-7.9c-20.4-4.7-26.2-7.1-33.3-14.1c-12-12-13.9-20.7-6-29.1c10-10.5,22.5-12.3,73.1-10.5
	c40.9,1.6,46.9,1,55-2.9c11.8-6,18.6-19.4,17.8-34.8l-0.8-11.8l-40.6-3.7c-22.3-1.8-51.6-3.4-64.7-3.1C52.7,104,18,150.7,1.9,196.7
	c-0.7-3.2-1.2-1.9-1.5,3.1c-1-2.3,0.1-25.7,0.8-34C1,136.4,38.7,105.8,84,98.5c14.7-2.4,99.8-1.3,125.2,1.6l13.5,1.8v17.3
	c0,22-6.8,37.5-18.9,43.7c-9.2,5-12.8,5-73.1,3.7c-38-0.8-52.9,1.8-57.4,10.7c-3.7,6.6,0.3,13.9,9.7,17.6c3.9,1.6,23.8,6,44,9.7
	c44.3,8.1,62.6,13.9,78.3,24.6c23.8,16.5,33.8,36.2,33.5,66.3c0,24.4-7.6,43-23,58.1c-23.8,23-45.8,29.1-109.8,29.1
	C79,382.7,44.9,381.6,31,380.6z"/>
<path class="st0" d="M1.9,196.6c-0.3,0.9-0.6,1.8-0.9,2.7c-0.2,0.6-0.4,0.7-0.5,0.4C0.6,194.7,1.1,193.5,1.9,196.6z"/>
<path class="st0" d="M530.3,102.4c5.2,2.1,9.4,3.1,9.4,2.4c0-1.1,9.2,13.4,20.4,31.9s29.3,47.9,40.1,65.2c24.6,39.3,23.8,38,22.5,38
	c-0.8,0-6.3-7.6-12.3-16.8c-16-24.6-13.9-23.8-47.7-19.6l-29.3,3.4l-7.3-9.2c-3.9-4.7-11-14.1-15.7-20.4c-4.7-6.6-10.2-12-12-12.8
	c-1.8-0.5-15.2,10.7-30.1,25.1c-14.7,14.1-29.1,27.2-32,28.6c-2.9,1.6-14.7,4.2-26.2,5.8c-35.3,5-53.7,8.6-55,11
	c-0.8,1,4.2,11.3,11.3,22.5c21.2,34,24.6,40.1,23.3,40.1c-0.8,0-10.2-14.1-21.2-31.7l-19.9-31.4l14.9-15.5
	c8.4-8.4,24.1-24.9,34.8-36.7s23.3-25.4,27.7-30.4c4.5-4.7,11.3-12.8,14.9-17.5s13.4-13.4,21.5-19.1c14.7-10,15.5-10.2,35.6-9.4
	c25.9,1,33.8-2.9,10.2-5l-17-1.6l14.7-0.3C514.3,98.7,524.8,100.3,530.3,102.4z M768.4,105.3c8.9,1.8,8.6,3.1-8.6,37.7
	c-18.1,36.1-17.5,35.6-49.5,40.3c-14.9,2.1-28.8,5.5-30.9,7.3c-1.9,2.1-10.5,18.9-18.9,37.7c-16.5,35.9-20.7,39.8-28.5,27.2
	l-4.2-6.5l6,6c3.1,3.1,6.8,5.2,8.1,4.5c1-0.8,14.7-29.9,30.1-64.7c15.5-35.1,30.4-66.8,33.3-70.7c2.6-3.9,10-10.7,16-14.9
	c10-7.1,12.6-7.9,25.4-6.6C754.4,103.5,764.4,104.5,768.4,105.3L768.4,105.3z M522.7,201.7l4.5,8.1l-5.2-6.3
	c-3.5-4.6-6.7-9.4-9.7-14.4l-4.5-8.1l5.2,6.3C516.5,191.9,519.7,196.7,522.7,201.7z M430.4,225.8c0.8,1-0.3,5.2-2.3,9.2
	c-2.9,5.8-3.2,8.9-1,12.8c2.3,4.4,54.2,80.9,75.1,111.1c10.5,15.2,8.7,17.3-14.7,17.3c-25.4,0-39.5-4.7-50.5-17.3
	c-10.2-11.3-36.7-52.6-50.5-79.1c-5.5-10.2-11-18.9-12.3-18.9c-1,0-2.1-1.3-2.1-2.9s-2.6-6.3-5.5-10.7c-3.9-5.2-4.7-8.6-2.9-10.5
	c1.3-1.3,16-4.7,32.5-7.3c16.2-2.6,30.4-4.7,31.2-5C428.5,224.6,429.5,225.1,430.4,225.8z M451.4,274.5c11,17,19.6,30.9,18.9,30.9
	c-1.6,0-40.9-57.9-42.4-62.6C425,234.9,431.2,243.3,451.4,274.5z M596.3,370.1c-2.1,3.9-3.9,6.5-4.2,5.5c0-3.1,6-15.2,7.1-14.1
	C599.9,362,598.6,365.9,596.3,370.1L596.3,370.1z"/>
<path class="st0" d="M739.6,184.9c1,1-1.3,9.4-5.8,18.9c-13.6,28.8-32,70.2-32,71.8c0,0.8-1.8,5.2-3.9,9.7
	c-3.9,8.9-18.6,43.2-29.3,68.6c-3.7,8.6-9.4,22-12.8,29.6s-6.3,14.4-6.3,14.9s-3.2,7.9-6.8,16.2c-19.4,44-25.2,51.3-46.9,58.7
	l-0.3,0.1v-6.5h-35c0-0.1,0-0.3,0-0.4c0-1.8,12.6-29.1,27.8-60.5c15.5-31.7,28.5-61.5,29.1-66.5c1-7.3,0-11.3-5-17
	c-13.6-16.2-64.2-97.7-66.3-106.6c-1.8-7.1-1.8-7.1,17.5-8.9c36.4-3.9,32.2-6.3,55.3,28.3c27.8,41.9,28.8,41.9,51.6-9.2
	c7.6-17,16-32,18.3-33.3C696.3,188.9,736.9,182.3,739.6,184.9z"/>
<path class="st0" d="M595.4,477.7v0.1h-35v-0.8c3-0.1,6-0.5,8.9-1.2c6-1.3,8.1-2.4,5-2.6c-8-0.5-13.5-3-13.8-6.4l0,0h35v6.5
	l-10.1,3.5L595.4,477.7z"/>
<polygon class="st0" points="595.4,473.4 595.4,477.7 585.3,477 "/>
<path class="st0" d="M574.3,473.3c3.2,0.3,1,1.3-5,2.6c-2.9,0.7-5.9,1.1-8.9,1.2v-10.2C560.8,470.4,566.2,472.8,574.3,473.3z"/>
<path class="st0" d="M533.4,216.3c-0.8,0-7.6-9.7-15.2-21.7c-7.3-11.7-13.9-21.7-14.4-22.3c-0.5-0.8-31.4,31.2-53.2,55l-11,12.3
	l43.8,66.3c23.8,36.4,44,67.6,44.8,69.1c2.9,7.6-47.4,11.8-67.6,6c-21-6.5-26.2-13.1-86.7-108.7l-25.2-39.5l49.5-54.2
	c58.2-63.7,63.2-68.4,83-76.8c13.1-5.5,17.8-6,39.3-5.2c16.5,0.8,25.7,2.4,27.8,4.7c1.8,2.1,24.4,38.2,50,80.1L645,258l22.8-54.2
	c12.6-29.9,25.2-59.5,28-66c11.8-26.4,30.6-39.3,57.4-39.3c13.9,0,35.1,3.9,35.1,6.6c0,0.5-11.3,26.2-25.2,56.8
	s-46.9,104.8-73.6,164.5s-52,115.5-56.5,124.2c-10.2,19.1-23,28.5-37.5,27.2h-0.1v-4.3l0.3-0.1c21.7-7.3,27.5-14.7,46.9-58.7
	c3.7-8.4,6.8-15.7,6.8-16.2s2.9-7.3,6.3-14.9s9.2-21,12.8-29.6c10.7-25.4,25.4-59.7,29.3-68.6c2.1-4.5,3.9-8.9,3.9-9.7
	c0-1.6,18.3-43,32-71.8c4.5-9.4,6.8-17.8,5.8-18.9c-2.6-2.6-43.2,3.9-50.8,7.9c-2.4,1.3-10.7,16.2-18.3,33.3
	c-22.8,51.1-23.8,51.1-51.6,9.2c-23-34.6-18.9-32.2-55.3-28.3c-19.4,1.8-19.4,1.8-17.5,8.9c2.1,8.9,52.6,90.4,66.3,106.6
	c5,5.8,6,9.7,5,17c-0.5,5-13.6,34.8-29.1,66.5c-15.3,31.4-27.8,58.7-27.8,60.5c0,0.1,0,0.3,0,0.4l0,0V477c-2.9,0.2-5.9-0.2-8.7-1.2
	l-6.8-2.6l10-21.7c5.5-12,20.2-42.4,32.5-67.8l22-46.4l-33.5-52.6c-18.6-29.1-33.5-53.7-33.5-54.7c0.8-4.2-0.8-7.3-5.8-13.6
	c-2.9-3.7-4.7-5-3.7-3.4C533.7,214.8,534,216.3,533.4,216.3z"/>
<path class="st0" d="M730.9,106.3c-2.9,1.8-1.8,2.6,4.5,2.6c4.5,0,9.2-1.3,10-2.6C747.4,102.9,736.1,102.9,730.9,106.3z"/>
</svg>
