<?xml version="1.0" encoding="utf-8"?>
<!-- Generator: Adobe Illustrator 25.0.1, SVG Export Plug-In . SVG Version: 6.00 Build 0)  -->
<svg version="1.1" id="Layer_1" xmlns="http://www.w3.org/2000/svg" xmlns:xlink="http://www.w3.org/1999/xlink" x="0px" y="0px"
	 viewBox="0 0 992.7 118.7" style="enable-background:new 0 0 992.7 118.7;" xml:space="preserve">
<style type="text/css">
	.st0{fill:#7C7C7C;}
</style>
<path class="st0" d="M30.8,0.9C3.5,4.4,0,5.9,0,15.9c0,9.2,0.8,9.6,26.9,9.6h26.9V114h30.8V25.5h24.6c23.1,0,24.6-0.8,26.2-9.2
	c1.2-5.8,0-10.4-3.1-11.5C125.1,2.1,46.5-1,30.8,0.9z"/>
<path class="st0" d="M715.7,1.7l-17.3,2.7l-1.2,54.2l-1.2,54.3l20.4,2.3c25.8,3.5,57.3,3.5,83.1,0.4c17.7-2.3,20-3.5,20-11.5
	c0-8.9-0.8-8.9-46.9-10l-47.3-1.1l-1.2-12.7L723,67.9h61.9V44.8h-30.8c-30.4,0-30.8,0-30.8-9.6v-9.6h96.2v-9.2
	c0-5.4-1.5-10.4-3.1-11.5C810.7,1.3,733.8-1,715.7,1.7z"/>
<path class="st0" d="M911.9,0.5c-3.1,0.8-12.3,2.3-20,3.9c-20.4,3.1-26.2,10.8-26.2,32.7c0,28.5,4.2,30.8,56.2,30.8h43.9v26.9h-100
	v9.2c0,8.9,1.9,9.6,25.4,11.9c41.6,4.6,91.2-2.7,98.5-14.6c1.5-2.7,3.1-12.7,3.1-23.1c0-29.6-6.5-33.5-57.7-33.5h-42.2V21.7h48.1
	c45,0,48.1-0.4,48.1-7.3c0-4.2-1.5-8.5-3.1-9.6C981.5,2.4,919.2-1.4,911.9,0.5z"/>
<path class="st0" d="M178.9,6.3c-1.1,1.9-1.9,26.2-1.5,53.9c0.4,50,0.4,50.4,10,54.2c18.9,6.9,20.4,5.4,20.4-21.5v-25h76.9v25
	c0,26.9,1.5,28.5,21.2,21.2l10-3.9l-1.2-52.8l-1.2-53.1l-14.2-1.1l-14.2-1.2l-1.1,22.3l-1.2,22.3h-73.1l-1.1-22.3l-1.1-21.9h-13.1
	C187,2.4,180.1,4,178.9,6.3z"/>
<path class="st0" d="M379.8,57.1c-28.1,52.7-28.9,55-20.8,57.7c20,5.8,21.2,4.6,46.5-45.8l24.6-49.2l23.5,49.6l23.5,49.2l14.2-2.7
	c8.1-1.5,15.4-3.1,16.2-3.8S496,86.7,480.6,57.5L452.1,4.4l-21.5-1.1L409,2.1L379.8,57.1z"/>
<path class="st0" d="M546.4,57.9v55l17.7,2.7c25.3,3.1,50.9,3.1,76.2,0c16.5-2.3,17.7-3.5,17.7-13.5V90.9h-80.8V2.4h-30.8V57.9z"/>
<path class="st0" d="M415.7,69.6c-2.9,6.5-1.4,15.1,2.9,19.5c10.8,10.8,31.8,0.7,28.9-13.7C444.5,58.7,421.5,54.4,415.7,69.6z"/>
</svg>
