<?xml version="1.0" encoding="utf-8"?>
<!-- Generator: Adobe Illustrator 25.0.1, SVG Export Plug-In . SVG Version: 6.00 Build 0)  -->
<svg version="1.1" id="Layer_1" xmlns="http://www.w3.org/2000/svg" xmlns:xlink="http://www.w3.org/1999/xlink" x="0px" y="0px"
	 viewBox="0 0 454.4 454.5" style="enable-background:new 0 0 454.4 454.5;" xml:space="preserve">
<style type="text/css">
	.st0{fill:#7C7C7C;}
</style>
<path class="st0" d="M454.4,205.7c0,1.4,0,2.6,0,3.6c0-5.2-0.1-8.8-0.2-8.8s-0.2,6.1-0.4,13.6c-0.3-0.2-0.7-2.1-1.2-5.9
	c-0.6-4.6-1.8-11.7-2.3-13.5c-0.3-1-1.1-4.9-1.8-8.7c-1.8-10.1-2.1-11.2-2.8-11.9c-0.4-0.8-0.6-1.6-0.6-2.5c0-1.3-0.3-2.6-0.8-3.8
	c-0.4-1-0.7-2-0.8-3c-0.1-0.9-0.4-1.7-1-2.3c-0.7-1.2-1.1-2.4-1.3-3.8c-0.5-3.2-1.3-5.9-1.8-5.9c-0.2,0-0.6-0.9-0.8-2.1
	c-0.2-1.1-0.6-2.2-1.3-3.1c-0.5-0.5-0.8-1-1-1.7c-0.3-1.1-0.7-2.2-1.3-3.2c-1.2-2.2-1.6-3.4-2.5-7.9c-0.2-0.8-0.6-1.4-1-1.4
	c-0.4,0-0.7-0.3-0.8-0.8c0-0.6-0.2-1.2-0.5-1.7c-0.4-0.7-0.6-1.4-0.8-2.2c-0.1-0.7-0.6-1.3-1.3-1.6c-0.7-0.1-1.1-1-1.6-3.1
	c-0.4-1.8-0.8-2.9-1.3-2.9s-0.7-0.4-0.7-1c0-0.6-0.3-1.2-0.8-1.6c-0.4-0.4-0.7-0.8-0.8-1.4c-0.3-1-0.8-1.9-1.5-2.7
	c-0.6-0.7-1.2-1.6-1.5-2.4c-0.5-0.9-1.1-1.7-1.8-2.4c-0.8-0.8-1.4-1.9-1.8-3c0-0.5-1.2-2.5-2.8-4.3c-2.1-2.4-3.8-5.1-5.1-8
	c-0.5-1.1-1-1.6-1.5-1.4c-0.8,0.3-2.4-1.5-2.4-2.8c-0.4-0.9-0.9-1.7-1.6-2.4c-0.9-0.9-2.2-2.4-3-3.3s-2.3-2.8-3.7-4.1
	c-0.9-0.8-1.7-1.8-2.4-2.8c-0.3-0.5-0.8-1-1.3-1.3c-0.7-0.6-1.3-1.2-1.3-1.5s-1.8-2.3-4.1-4.5s-4.1-4.3-4.1-4.6
	c0-0.4-0.4-0.6-0.7-0.6c-0.3,0-2.2-1.5-4.1-3.3c-1.1-1.2-2.4-2.3-3.7-3.3c-0.7-0.4-1.4-1-1.9-1.7c-0.9-0.9-2.8-2.7-4.3-3.9l-4.1-3.5
	c-1.1-0.9-2.3-1.6-3.5-2.2c-1.1-0.5-2-1.2-2-1.5s-1-1-2.3-1.5s-2.3-1.3-2.3-1.7s-1-1.2-2.3-1.7c-1.1-0.4-2.2-1.1-3-2
	c-0.3-0.5-0.9-0.9-1.5-1c-0.9-0.2-1.7-0.7-2.3-1.3c-1.3-1.1-2.7-2-4.2-2.7c-1.2-0.5-2.3-1.1-3.2-2c-0.3-0.4-0.7-0.6-1.2-0.7
	c-1.2,0-3.8-1.6-3.8-2.4c0-0.6-2.9-1.7-4.4-1.7c-0.7-0.2-1.3-0.5-1.8-0.9c-1.1-0.7-2.3-1.4-3.6-1.8c-1.1-0.3-2.1-0.9-3-1.6
	c-0.6-0.5-1.3-0.7-2-0.7c-0.8,0-1.5-0.4-1.9-1c-0.6-0.7-1.4-1.2-2.3-1.3c-1.3-0.3-2.5-0.8-3.7-1.3c-0.9-0.5-1.8-0.8-2.8-1
	c-0.7-0.2-1.4-0.5-2-1c-0.6-0.5-1.4-0.8-2.2-0.8c-0.5,0.2-2.5-0.6-4.3-1.5c-1.6-0.9-3.2-1.5-5-1.8c-2.5-0.2-4.8-0.9-7-2.1
	c-1.3-0.6-2.7-0.9-4.2-1c-0.9,0.1-1.8-0.1-2.5-0.5c-0.9-0.5-2-0.7-3-0.8c-1.1-0.1-2.2-0.4-3.3-0.9c-0.7-0.6-9.5-1.9-12.6-1.9
	c-1,0.1-2-0.2-2.8-0.7c-1-0.5-2-1-3.2-1.2c-2.2-0.5-14.4-2.1-16.3-2.1c-0.3,0-0.5-0.1-0.8-0.2c4.1-0.1,6.8-0.2,6.6-0.4
	c-1.5-0.2-3.1-0.2-4.6-0.2c1.7-0.1,4.5-0.1,8.4,0c10.9,0.2,18.1,0.9,20.6,1.8c1,0.3,2.1,0.5,3.2,0.6c1.2,0.1,2.5,0.3,3.6,0.8
	c1,0.4,2.1,0.7,3.3,0.8c1,0,1.9,0.2,2.8,0.6c1.1,0.4,2.3,0.8,3.5,1c1.3,0.3,2.5,0.6,3.7,1c2.2,0.8,4.4,1.5,6.7,2.1
	c2.3,0.5,4.6,1.3,6.8,2.3c0.7,0.4,1.5,0.6,2.3,0.7c0.7,0.1,1.3,0.4,1.9,0.8c0.6,0.4,1.3,0.7,2,0.8c0.7,0.1,1.4,0.3,2,0.8
	c0.6,0.4,1.3,0.7,2,0.8c0.7,0,1.3,0.3,1.7,0.8c0.5,0.5,1.1,0.7,1.8,0.8c0.7,0,1.3,0.3,1.8,0.8c0.5,0.5,1.2,0.7,1.8,0.7
	c0.7,0,1.3,0.3,1.8,0.8c0.4,0.4,0.9,0.7,1.5,0.8c0.6,0.1,1.1,0.3,1.5,0.8c0.4,0.4,0.9,0.7,1.5,0.8c1.5,0.5,3,1.2,4.4,2
	c2,1.1,4.7,2.6,6.1,3.3c1.4,0.7,2.8,1.5,4.1,2.3c0.9,0.6,2,1.2,2.5,1.5s1.7,1,2.5,1.5s1.9,1.2,2.3,1.4c0.9,0.5,1.8,1.1,2.6,1.8
	c0.7,0.6,1.4,1.1,2.2,1.4c0.8,0.4,1.6,0.9,2.3,1.5c0.7,0.6,1.5,1.1,2.2,1.5c0.4,0,11.2,8.1,14.6,11c11.3,9.5,21.8,20,31.3,31.3
	c2.8,3.4,11,14.2,11,14.6c0.4,0.8,1,1.5,1.5,2.2c0.6,0.7,1.1,1.5,1.5,2.3c0.4,0.8,0.8,1.5,1.4,2.2c0.7,0.8,1.3,1.7,1.8,2.6
	c0.2,0.4,0.8,1.4,1.4,2.3s1.2,2,1.5,2.6s1,1.7,1.5,2.6s1.2,2,1.5,2.5c0.3,0.7,0.6,1.3,1,1.9c1.1,1.9,1.6,2.9,4.1,7.8
	c1,1.9,1.8,3.8,2.5,5.7c0.1,0.5,0.4,0.9,0.8,1.2c0.5,0.5,0.7,1.1,0.8,1.8c0,0.7,0.3,1.3,0.8,1.8c0.4,0.4,0.7,0.9,0.8,1.5
	c0.1,0.7,0.3,1.3,0.8,1.9c0.4,0.6,0.7,1.3,0.8,2c0.1,0.7,0.3,1.4,0.8,2c0.4,0.6,0.7,1.3,0.8,2c0.1,0.7,0.3,1.4,0.8,2
	c0.4,0.6,0.7,1.3,0.8,2c0.1,0.8,0.3,1.6,0.7,2.3c1,2,1.7,4.1,2.2,6.3c0.2,1,0.6,2,1,2.9c0.4,0.9,0.6,1.8,0.7,2.8
	c0.1,0.9,0.4,1.7,0.8,2.4c0.4,0.8,0.7,1.6,0.8,2.5c0.1,1.2,0.3,2.4,0.7,3.6c1,3.3,1.8,6.6,2.3,10c0.2,1.4,0.7,3.8,0.9,5.3
	C454.1,193.2,454.6,199.5,454.4,205.7z"/>
<path class="st0" d="M454.4,209.4c0.1,13,0,36.1-0.1,40.5c-0.2,10.4-1,18.6-1.9,20.2c-0.3,0.8-0.5,1.7-0.5,2.6
	c-0.1,1.4-0.3,2.8-0.7,4.2c-1.2,4.2-1.9,7-2.3,9.2c-0.2,1.1-0.5,2.1-1,3.2c-0.4,0.7-0.6,1.4-0.6,2.2c-0.1,0.9-0.3,1.8-0.7,2.7
	c-0.4,0.9-0.8,1.9-1,2.9c-0.5,2.2-1.2,4.3-2.2,6.3c-0.4,0.7-0.6,1.4-0.7,2.1c-0.5,2.1-1.3,4.1-2.3,6c-0.4,0.7-0.6,1.4-0.7,2.1
	c-0.1,0.7-0.4,1.5-0.7,2.1c-0.8,1.5-2.1,4.5-2.5,5.8c-0.2,0.5-0.5,1-0.8,1.5c-0.2,0.4-1.6,3.2-3.1,6.1s-3.4,6.7-4.3,8.4
	s-2,3.5-2.3,4.1c-1.1,2.2-2.4,4.4-3.8,6.4c-0.3,0.3-0.6,0.7-0.8,1.2c-0.8,1.4-1.7,2.8-2.7,4.2c-1.5,2.1-2.9,4.3-3.2,4.7
	c-1.5,2.4-10.1,13.7-14.2,18.4c-4.5,5.3-17.5,18.5-21.5,21.9l-5.5,4.7c-3.8,3.2-15.5,12.2-15.9,12.2c-1.1,0.6-2.2,1.4-3.2,2.2
	c-1.2,0.9-2.4,1.8-3.7,2.6c-0.4,0.2-1.2,0.6-1.8,1s-1.9,1.2-3.1,1.9s-2.5,1.6-3.1,1.9s-1.5,0.9-2,1.1s-2.4,1.3-4.1,2.3
	c-3.1,1.7-12.6,6.5-14,7.1c-0.4,0.1-1.1,0.5-1.5,0.7c-2.5,1.4-4.3,2.1-5.1,2.1c-0.6,0.1-1.1,0.3-1.5,0.8c-0.4,0.4-0.9,0.7-1.5,0.8
	c-0.8,0.1-1.6,0.3-2.4,0.7c-1.9,1-3.9,1.8-6,2.4c-0.7,0.1-1.5,0.4-2.1,0.7c-2.2,1-4.4,1.8-6.8,2.4c-2.3,0.5-4.5,1.2-6.7,2.1
	c-1.2,0.4-2.5,0.7-3.7,1c-2.3,0.5-5.5,1.3-9.1,2.4c-1.3,0.4-2.7,0.6-4.1,0.7c-1.1,0-2.1,0.2-3.2,0.6c-1.9,0.5-3.8,0.9-5.8,1.1
	c-5.8,0.7-23.4,1.1-23.4,0.5c0-0.3,2-0.7,4.5-1.1c1.7-0.2-19.2,0.7-31.8,1.2c0.2,0,0.3-0.1,0.3-0.2s-0.1-0.2-0.3-0.4
	c15.7-1.1,46.5-3.1,47.6-3.3c1.4-0.2,2.9-0.5,4.2-1c0.6-0.3,1.2-0.4,1.8-0.4c0.2,0.2,4.8-0.7,11.4-2c0.7-0.2,1.4-0.5,2-1
	c0.7-0.5,1.5-0.8,2.4-0.7c3.3-0.2,6.5-1.2,9.4-2.7c0.6-0.6,1.4-0.8,2.2-0.7c1.3,0.5,5.7-1.1,6.3-2.3c0.4-0.7,1.1-1,2.6-1
	c1.2,0,2.3-0.3,3.3-0.9c1.2-0.9,10.1-4.3,13.1-4.9c0.9-0.2,1.3-0.6,1.1-1.1c-0.4-0.9,2.7-2.3,4.9-2.3c0.7,0,1.4-0.3,2-0.8
	c0.8-0.8,1.7-1.4,2.8-1.8c1.8-0.8,3.6-1.8,5.1-3c0.6-0.4,1.3-0.6,2.1-0.6c0.7,0.1,1.2,0,1.2-0.3c0-0.7,5.3-4.2,6.3-4.2
	c0.5,0,0.8-0.2,0.8-0.5s0.9-1,1.9-1.4c1.2-0.6,2.4-1.4,3.5-2.4c1.5-1.4,2.4-1.9,7.8-5.1c1.1-0.6,2.1-1.4,2.9-2.4
	c0.2-0.6,0.7-1,1.3-1.2c1-0.5,1.9-1.2,2.6-2.1c0.7-0.8,1.5-1.5,2.5-2c1.6-1,3.1-2.2,4.4-3.6c1.9-1.8,4.2-3.9,5-4.6
	c6.8-6,13.1-12.6,18.8-19.6c1.3-1.5,2.6-3,4-4.3c1.5-1.5,2.9-3.1,4.1-4.8c0.7-1.2,1.6-2.3,2.7-3.2c0.7-0.7,1.3-1.6,1.7-2.5
	c0.9-1.6,1.9-3.2,3.1-4.6c0.8-0.9,1.5-2,2-3.1c0-0.4,0.5-0.8,1-0.9c0.7-0.1,1-0.7,1-1.6c0.1-1.1,0.7-2,1.5-2.7
	c0.9-0.7,1.6-1.6,2.1-2.6c0.3-0.7,1.3-2.6,2.3-4.3s2.1-3.8,2.5-4.7s1-1.6,1.3-1.6s0.5-0.5,0.3-1.2c-0.2-0.9,0.2-1.6,1.7-3.2
	s2-2.3,1.9-3.3c-0.1-0.6,0-1.1,0.4-1.6c1.1-0.5,2.8-3.7,2.8-5.1c-0.1-0.6,0.1-1.3,0.5-1.8c0.7-1.1,1.2-2.4,1.5-3.7
	c0.6-1.8,1.4-3.6,2.3-5.3c0.9-1.3,1.4-2.9,1.3-4.5c0-2.1,0.2-2.5,0.9-2.4s1-0.3,1.2-1.4c0.2-0.9,0.5-1.8,0.9-2.6
	c0.4-1,0.6-2,0.6-3.1c0-1.1,0.4-2.3,1-3.2c1.1-1.4,1.6-3.2,1.9-6.8c0.1-1.2,0.4-2.5,1-3.6c0.5-0.9,0.7-2,0.7-3
	c-0.1-0.9,0.1-1.8,0.5-2.6c0.3-0.3,0.8-2.4,1-4.7c0.4-2.7,0.9-5.3,1.6-7.9c1.4-6.2,2.5-12.5,3.3-18.8c0.1-1,0.4-16.8,0.6-28.9
	C454.1,214.3,454.3,212.7,454.4,209.4z"/>
<path class="st0" d="M454.4,209.3L454.4,209.3c-0.1,3.4-0.3,5-0.6,4.8c0.2-7.6,0.3-13.6,0.4-13.6S454.4,204.1,454.4,209.3z"/>
<path class="st0" d="M453.8,214.1c-0.2,12.1-0.5,27.9-0.6,28.9c-0.8,6.3-1.9,12.6-3.3,18.8c-0.7,2.6-1.2,5.2-1.6,7.9
	c-0.3,2.3-0.7,4.5-1,4.7c-0.4,0.8-0.5,1.7-0.5,2.6c0,1.1-0.2,2.1-0.7,3c-0.6,1.1-0.9,2.3-1,3.6c-0.4,3.7-0.9,5.5-1.9,6.8
	c-0.6,0.9-1,2.1-1,3.2c0,1.1-0.2,2.1-0.6,3.1c-0.4,0.9-0.7,1.7-0.9,2.6c-0.2,1.1-0.6,1.5-1.2,1.4s-0.9,0.3-0.9,2.4
	c0.1,1.6-0.3,3.2-1.3,4.5c-1,1.7-1.8,3.5-2.3,5.3c-0.3,1.3-0.8,2.6-1.5,3.7c-0.3,0.5-0.5,1.2-0.5,1.8c0,1.4-1.7,4.6-2.8,5.1
	c-0.4,0.4-0.5,1-0.4,1.6c0.1,0.9-0.4,1.8-1.9,3.3s-1.9,2.2-1.7,3.2c0.2,0.7,0.1,1.2-0.3,1.2s-0.9,0.8-1.3,1.6s-1.6,3.1-2.5,4.7
	s-2,3.6-2.3,4.3c-0.5,1-1.2,1.9-2.1,2.6c-0.8,0.7-1.4,1.6-1.5,2.7c0,0.9-0.3,1.5-1,1.6c-0.6,0.1-1,0.6-1,0.9c-0.5,1.1-1.2,2.2-2,3.1
	c-1.1,1.5-2.2,3-3.1,4.6c-0.4,1-1,1.8-1.7,2.5c-1,1-1.9,2-2.7,3.2c-1.2,1.7-2.6,3.4-4.1,4.8c-1.4,1.4-2.7,2.8-4,4.3
	c-5.8,7-12.1,13.5-18.8,19.6c-0.8,0.7-3.1,2.8-5,4.6c-1.3,1.4-2.8,2.6-4.4,3.6c-0.9,0.5-1.8,1.2-2.5,2c-0.7,0.9-1.6,1.6-2.6,2.1
	c-0.6,0.2-1,0.6-1.3,1.2c-0.8,1-1.8,1.8-2.9,2.4c-5.4,3.2-6.3,3.8-7.8,5.1c-1.1,0.9-2.2,1.7-3.5,2.4c-1.1,0.5-1.9,1.1-1.9,1.4
	s-0.4,0.5-0.8,0.5c-1,0-6.3,3.5-6.3,4.2c0,0.3-0.6,0.4-1.2,0.3c-0.7,0-1.5,0.2-2.1,0.6c-1.6,1.2-3.3,2.2-5.1,3
	c-1,0.5-1.9,1.1-2.8,1.8c-0.6,0.5-1.3,0.8-2,0.8c-2.2,0-5.2,1.4-4.9,2.3c0.2,0.5-0.2,0.9-1.1,1.1c-3,0.6-11.9,4-13.1,4.9
	c-1,0.6-2.1,0.9-3.3,0.9c-1.5,0-2.2,0.3-2.6,1c-0.6,1.2-5,2.8-6.3,2.3c-0.8-0.1-1.6,0.1-2.2,0.7c-2.9,1.5-6.1,2.5-9.4,2.7
	c-0.9-0.1-1.7,0.2-2.4,0.7c-0.6,0.5-1.3,0.8-2,1c-6.5,1.4-11.1,2.2-11.4,2c-0.6,0-1.3,0.1-1.8,0.4c-1.4,0.5-2.8,0.8-4.2,1
	c-1.2,0.1-31.9,2.1-47.6,3.3c-0.6-0.4-2.5-0.6-7.3-1.2c-2.5-0.3-4.9-0.7-7.4-1.3c-1.8-0.4-3.6-0.8-5.4-1c-7.2-1.1-14.4-2.6-21.4-4.6
	c-1.5-0.5-4.2-1.2-5.9-1.6c-1.4-0.3-2.9-0.8-4.2-1.5c-0.9-0.5-1.9-0.7-3-0.8c-2,0-4.7-1.2-5.7-2.5c-0.7-0.6-1.5-0.8-2.4-0.7
	c-1.1,0.1-2-0.1-2.2-0.6s-2-1.3-4-2s-4.2-1.6-5.1-1.9c-1.3-0.4-2.5-0.8-3.8-1.1c-1.9-0.5-2.1-0.7-1.4-1.1s0.7-0.6-1-1.4
	c-0.7-0.5-1.5-0.7-2.3-0.7c-1.2,0.4-2.5-0.1-3.1-1.3c-0.1-0.7-0.9-1-2.6-1.3c-1.3-0.2-2.5-0.7-3.5-1.5c-1.6-1.7-3.6-2.9-4.6-2.9
	c-0.5,0-2.7-1.2-4.8-2.7c-1.7-1.2-3.5-2.3-5.4-3.3c-1-0.4-1.9-1.1-2.7-1.9c-0.5-0.6-1.1-1-1.8-1.2c-0.4,0-0.8-0.2-0.8-0.4
	c-0.7-0.8-1.5-1.4-2.5-1.8c-1.1-0.6-2.2-1.3-3.1-2.1c-0.3-0.4-0.8-0.7-1.3-0.8c-0.4,0-1-0.6-1.2-1.3s-0.7-1.3-0.9-1.3
	c-1-0.5-1.9-1.2-2.6-2c-0.8-0.8-1.8-1.5-2.9-2c-0.9-0.3-1.7-0.8-2.3-1.5c-4.2-3.8-6.3-5.5-7.1-5.8c-0.5-0.2-0.9-0.6-0.9-0.9
	c0-0.5-3.8-4.6-4.3-4.6c-0.6,0-10.4-10.4-15.3-16.3c-1-1.3-2.2-2.5-3.6-3.4c-0.7-0.4-1.2-1-1.5-1.8c-0.5-1.1-1.2-2.1-1.9-3
	c-1-1.2-1.9-2.4-2.6-3.8c-0.6-1-1.4-2-1.9-2.1c-0.6-0.2-1-0.8-0.9-1.4c-0.3-1.1-0.9-2.1-1.8-2.9c-0.9-0.8-1.6-1.8-2.1-3
	c-0.2-0.7-0.5-1.3-0.8-1.3s-0.8-0.8-1.2-1.8c-0.7-1.4-1.5-2.8-2.5-4c-1-1.2-1.8-2.5-2.5-3.9c-1.7-3.7-2.5-4.9-4.2-6.4
	c-1.3-1.1-1.7-1.9-1.6-2.8c-0.1-1.3-0.5-2.5-1.2-3.6c-0.7-1.2-1.3-2.5-1.7-3.8c-0.2-0.8-0.6-1.6-1.3-2.1c-0.7-0.7-1.1-1.6-1.3-2.5
	c-0.1-0.8-0.4-1.6-0.9-2.2c-0.7-0.5-1.9-3.9-2.2-6.2c-0.1-1-0.5-1.9-0.7-1.9s-0.5-0.5-0.5-1.1c-0.2-1-0.7-1.9-1.3-2.6
	c-0.8-0.7-1.1-1.8-1.1-2.8c0.2-0.8-0.1-1.6-0.7-2.2c-0.5-0.5-0.9-1.2-1-1.9c0-0.5-0.2-1.1-0.6-1.5c-0.7-1.6-1.1-3.3-1.4-5
	c-0.5-2.5-1.2-4.6-1.6-4.8s-0.7-1.5-0.9-2.9c-0.1-1.4-0.4-2.7-0.9-4c-0.7-1.4-0.9-2.4-2.3-8c-0.3-1.5-0.5-3-0.4-4.6
	c0.2-1.4-0.1-2.8-0.7-4.1c-0.5-0.9-0.8-1.8-0.9-2.8c-0.1-1.5-0.4-3-0.7-4.5c-0.5-2-1-5.7-1.3-8.2c-0.6-5-1.1-23.6-1.4-34.6
	c0.4-1.4,0.7-2.8,0.9-4.3c0.3-2.4,0.8-6.1,1.1-8c0.4-2.4,0.9-4.7,1.5-7c0.8-2.9,1.3-5.9,1.7-8.9c0.9-7.1,1.9-10.6,3-10.4
	c0.9,0.2,1.1-0.7,0.3-1.2s-0.2-4.7,0.8-6.2c0.4-0.8,0.7-1.7,0.7-2.6c0-0.8,0.2-1.5,0.7-2.1c0.5-0.8,0.9-1.8,1-2.8
	c0.2-1.2,0.4-2.6,0.5-3.2c0.2-1.4,1.3-3.3,1.8-3.3c0.2,0,0.6-1.3,0.8-3c0.2-1.6,0.7-3.1,1.5-4.4c0.8-1.2,1.4-2.5,1.8-3.8
	c1.1-3.7,1.5-4.6,2.4-4.6c0.6,0,0.8-0.5,0.8-1.8s0.3-1.8,0.8-1.8s0.8-0.5,0.8-1.5c0.1-1,0.4-1.9,1-2.6c1.4-1.8,3.1-5.6,3.1-6.9
	c0-1.7,0.5-2.7,1.2-2.4c0.4,0.1,1.7-1.7,3.4-5.2c1.5-3,3.3-5.8,3.8-6.2c0.7-0.5,1.2-1.2,1.4-2.1c0.4-1.1,1-2.1,1.8-2.9
	c0.8-0.6,1.3-1.5,1.6-2.4c0-0.5,0.3-0.9,0.5-0.9s0.5-0.3,0.5-0.8c0-0.5,0.3-0.9,0.8-1.1c0.4-0.2,0.7-0.5,0.8-0.9
	c0.4-0.9,0.9-1.7,1.5-2.3c1.2-1.5,2.4-3,3.4-4.6c2.8-4.1,5.3-7.1,6-7.1c0.3,0,0.8-0.5,1.1-1.2c1.3-1.8,2.7-3.5,4.2-5.1
	c1.3-1.3,2.5-2.8,3.6-4.3c1.1-1.2,2.3-2.3,3.5-3.3c1.8-1.5,3.4-3.1,5-4.8c1.2-1.4,2.5-2.7,4-3.8c1.4-1.1,2.6-2.2,3.8-3.5
	c0.9-1,2-1.9,3.1-2.7c0.9-0.5,1.7-1.3,2.2-2.2c0.4-0.7,0.9-1.2,1.6-1.6c2.2-1.2,4.2-2.7,5.9-4.4c0.4-0.5,1-0.8,1.7-0.9
	c0.7-0.2,1.3-0.6,1.3-0.8s0.8-0.9,1.7-1.3c1.1-0.7,2.2-1.5,3-2.5c0.8-0.9,1.7-1.6,2.1-1.4s1.5-0.4,2.5-1.3c0.7-0.7,1.4-1.2,2.3-1.6
	c0.4-0.1,0.8-0.4,1.1-0.8c0.4-0.5,1-0.7,1.6-0.8c0.5,0,1-0.3,1.2-0.8c0.7-0.7,1.6-1.2,2.6-1.4c1.1-0.2,2.1-0.7,2.9-1.5
	c0.8-0.9,1.7-1.6,2.8-2c1.2-0.5,2.1-1.3,2.1-1.7c0-0.7,2.8-1.8,4.4-1.8c0.7-0.2,1.3-0.5,1.9-1c1.1-0.7,2.2-1.3,3.5-1.8
	c1.1-0.4,2.1-0.9,3-1.5c0.8-0.5,1.6-0.8,2.5-0.9c1.1-0.1,1.7-0.4,1.7-0.8c-0.1-0.8,2-1.9,4.5-2.4c0.9-0.1,1.8-0.5,2.5-1.1
	c0.6-0.5,1.3-0.8,2.1-0.8c0.6,0,1.2-0.1,1.7-0.5c0.1-0.3,0.9-0.5,1.7-0.5c1.1-0.1,2.2-0.5,3.2-1.2c1.9-1.3,3.6-1.8,7.1-2.2
	c1.1-0.1,2.2-0.4,3.2-1c0.5-0.4,1.2-0.6,1.8-0.6c0.7,0,1.4-0.2,1.9-0.6c1.1-0.6,2.3-1,3.5-1.1c3.1-0.3,6.2-1,9.2-2.1
	c2.7-0.8,5.5-1.3,8.4-1.6c2.3-0.2,4.6-0.6,6.9-1.2c1-0.8,5.1-1.6,11.7-2.3c4.3-0.5,21.4-0.8,31-1.1c0.2,0.2,0.5,0.3,0.8,0.2
	c1.9,0,14.1,1.6,16.3,2.1c1.1,0.3,2.2,0.7,3.2,1.3c0.8,0.5,1.8,0.8,2.8,0.7c3.1,0,11.9,1.4,12.6,1.9c1,0.4,2.1,0.7,3.3,0.9
	c1,0.1,2.1,0.3,3,0.8c0.8,0.4,1.7,0.6,2.5,0.5c1.4,0.1,2.9,0.4,4.2,1c2.2,1.2,4.5,1.9,7,2.1c1.8,0.3,3.4,0.9,5,1.8
	c1.9,1,3.9,1.7,4.3,1.5c0.8,0,1.6,0.2,2.2,0.8c0.6,0.5,1.3,0.8,2,1c1,0.2,1.9,0.5,2.8,1c1.2,0.6,2.4,1,3.7,1.3
	c0.9,0.2,1.7,0.6,2.3,1.3c0.5,0.6,1.2,1,1.9,1c0.7,0,1.4,0.2,2,0.7c0.9,0.7,1.9,1.3,3,1.6c1.3,0.5,2.5,1.1,3.6,1.8
	c0.5,0.4,1.1,0.8,1.8,0.9c1.5,0,4.4,1.1,4.4,1.7c0,0.8,2.6,2.4,3.8,2.4c0.5,0,0.9,0.3,1.2,0.7c0.9,0.9,2,1.5,3.2,2
	c1.5,0.7,2.9,1.6,4.2,2.7c0.6,0.6,1.4,1.1,2.3,1.3c0.6,0.1,1.2,0.5,1.5,1c0.8,0.9,1.9,1.6,3,2c1.3,0.6,2.3,1.3,2.3,1.7
	s1,1.2,2.3,1.7s2.3,1.2,2.3,1.5s0.9,1,2,1.5c1.2,0.6,2.4,1.3,3.5,2.2l4.2,3.6c1.4,1.3,3.4,3.1,4.3,3.9c0.5,0.7,1.2,1.2,1.9,1.7
	c1.3,1,2.6,2.1,3.7,3.3c1.9,1.8,3.7,3.3,4.1,3.3c0.4,0,0.7,0.2,0.7,0.6c0,0.3,1.8,2.3,4.1,4.6s4.1,4.2,4.1,4.5
	c0,0.3,0.6,0.9,1.3,1.5c0.5,0.3,0.9,0.8,1.3,1.3c0.7,1,1.5,2,2.4,2.8c1.3,1.4,3,3.2,3.7,4.1s2,2.4,3,3.3c0.7,0.7,1.3,1.5,1.6,2.4
	c0,1.2,1.6,3,2.4,2.8c0.5-0.2,1,0.2,1.5,1.4c1.3,2.9,3,5.6,5.1,8c1.5,1.8,2.8,3.8,2.8,4.3c0.3,1.1,1,2.2,1.8,3
	c0.7,0.7,1.3,1.5,1.8,2.4c0.4,0.9,0.9,1.7,1.5,2.4c0.7,0.8,1.2,1.7,1.5,2.7c0.1,0.5,0.4,1,0.8,1.4c0.4,0.4,0.7,1,0.8,1.6
	c0,0.6,0.3,1,0.7,1s1,1,1.3,2.9c0.5,2.1,0.9,3,1.6,3.1c0.7,0.3,1.1,0.9,1.3,1.6c0.1,0.8,0.4,1.5,0.8,2.2c0.3,0.5,0.4,1.1,0.5,1.7
	c0,0.4,0.3,0.7,0.8,0.8c0.4,0,0.9,0.6,1,1.4c1,4.5,1.4,5.8,2.5,7.9c0.6,1,1,2.1,1.3,3.2c0.2,0.6,0.5,1.2,1,1.7
	c0.7,0.9,1.1,1.9,1.3,3.1c0.2,1.2,0.6,2.1,0.8,2.1c0.6,0,1.4,2.6,1.8,5.9c0.2,1.3,0.6,2.6,1.3,3.8c0.6,0.7,0.9,1.5,1,2.3
	c0.1,1,0.4,2,0.8,3c0.5,1.2,0.7,2.5,0.8,3.8c-0.1,0.9,0.1,1.7,0.6,2.5c0.7,0.7,0.9,1.8,2.8,11.9c0.7,3.8,1.5,7.7,1.8,8.7
	c0.5,1.8,1.7,8.9,2.3,13.5C453.1,212,453.5,214,453.8,214.1z M438.8,246.7c1.1-6.7,1.1-30.1,0-37.7c-0.4-2.9-0.9-6.8-1-8.7
	c-0.4-6.8-0.9-10.1-1.5-10.4s-0.8-0.9-1.7-7.8c-0.2-1.7-0.6-3.3-1.3-4.8c-0.5-0.9-0.8-2-0.8-3.1c0-1-0.2-1.9-0.8-2.7
	c-0.6-0.6-0.7-1.4-0.5-2.7c0.3-1.5,0-2.4-1.3-4.8c-0.8-1.4-1.4-3-1.6-4.6c0-2-1.3-5.5-2.3-6.1c-0.5-0.4-0.7-0.9-0.7-1.5
	c-0.2-2.1-0.9-4.1-2.2-5.9c-0.5-0.7-0.8-1.6-0.9-2.6c0-1.9-1.5-5.2-2.3-5.2c-0.7,0-1.2-1.1-1.2-2.7c-0.1-0.8-0.3-1.5-0.7-2.2
	c-1.4-2.3-2.6-4.8-3.6-7.4c-0.3-0.9-0.8-1.8-1.5-2.6c-0.8-0.9-1.4-1.9-1.9-3c-0.7-1.4-1.5-2.7-2.4-4c-0.8-0.9-1.3-1.9-1.7-3
	c-0.5-1.3-1.2-2.6-2.1-3.7c-1.1-1.7-3.2-4.7-4.7-6.7c-1.2-1.9-2.6-3.7-4.1-5.3c-2-2.4-4-4.9-5.7-7.5c-0.6-0.9-1.2-1.7-1.9-2.4
	c-1.5-1.5-1.6-1.7-5-5.6c-5.5-6.3-13-13.6-15.8-15.3c-1-0.6-1.9-1.4-2.7-2.3c-1.7-1.8-3.6-3.4-5.6-4.8c-2.7-2-5.3-4.1-5.8-4.6
	c-0.8-0.7-1.6-1.2-2.5-1.7c-0.9-0.4-1.6-1-1.6-1.2s-1.2-1.1-2.6-1.8c-1.2-0.6-2.4-1.3-3.5-2.1c-1.1-1.1-4.6-3.3-5.2-3.3
	c-0.7-0.3-1.4-0.8-2-1.3c-1-0.8-2.1-1.3-3.4-1.6c-0.8,0-1.6-0.4-2.2-1.1c-0.6-1.5-1.9-2.6-3.5-2.9c-0.8-0.1-1.6-0.5-2.3-1
	c-0.4-0.4-0.9-0.7-1.5-0.7c-0.5,0-0.9-0.2-1.2-0.5c-0.2-0.3-0.9-0.5-1.6-0.5c-1.1-0.2-2-0.7-2.8-1.5c-0.6-0.7-1.4-1.3-2.3-1.5
	c-0.8,0-2-0.5-6.6-2.5c-1.1-0.5-3.2-1.3-4.5-1.7c-1.3-0.5-2.6-1-3.9-1.6c-0.9-0.5-2-0.7-3-0.8c-0.9,0-1.6-0.3-1.8-0.7
	s-0.8-0.6-1.6-0.5c-1,0.2-1.3,0-1.3-0.5c0-1-1.1-1.4-3.8-1.4c-1.6-0.1-3.2-0.5-4.7-1.3c-1.3-0.7-2.7-1.2-4.2-1.4
	c-1.2,0-2.4-0.2-3.6-0.5c-3.4-1-7.8-1-9.4,0c-3,1.8-4.1,3.3-4.5,6.1c-0.1,0.4-0.1,0.8-0.1,1.3l-0.2,3.5l2.1,2.5
	c1.2,1.3,2.6,2.4,3.2,2.4c1,0.2,1.9,0.5,2.7,1.1c0.8,0.6,1.7,0.8,2.7,0.7c1-0.5,2.3,0,2.7,1.1c0.1,0.1,0.1,0.3,0.1,0.5
	c0.3,1.2,0.6,1.3,6.1,2.1c0.8,0.1,1.5,0.4,2.2,0.8c0.3,0.3,0.8,0.5,1.3,0.5c0.5,0,1,0.3,1,0.7c0,0.7,4.3,2.4,6,2.4
	c0.6,0,1.2,0.3,1.6,0.7c0.7,0.6,1.5,1.1,2.4,1.4c2.3,0.9,4.4,1.9,6.6,3.1c1.8,1.1,3.7,1.9,5.7,2.5c0.6,0,1,0.4,1,0.8
	c0,0.8,2.5,2.3,3.7,2.3c0.8,0.3,1.6,0.8,2.1,1.5c0.6,0.6,1.2,1.2,2,1.5c1.1,0.4,2.2,1,3.1,1.8c0.9,0.7,1.9,1.3,3,1.8
	c1.1,0.5,2.2,1.2,3.1,2c0.9,0.8,2,1.5,3.1,2c0.3,0,1,0.6,1.4,1.3c0.4,0.7,1.1,1.1,1.8,1.3c0.6,0.1,1.2,0.4,1.5,1
	c0.8,0.9,1.8,1.7,2.8,2.3c1.4,0.9,2.8,1.9,4.1,3c1,0.9,2.4,2.2,3.2,2.9s4,3.7,7.1,6.6c2,2,4.2,4,6.5,5.8c0.4,0.2,0.8,0.7,0.8,0.9
	c1,1.4,2.1,2.7,3.4,3.9c1.8,1.9,4.7,5.3,6.5,7.4c1,1.5,2.2,2.8,3.5,4c0.2,0,0.5,0.4,0.7,0.9c0.5,1.1,1.2,2,2,2.9
	c1.1,1.3,2.1,2.7,2.8,4.2c0.4,1,1,1.8,1.8,2.5c0.6,0.5,1,1.1,1.3,1.7c0.4,0.9,1.1,1.8,1.8,2.5c0.6,0.4,1,1.1,1.2,1.8
	c0,0.8,3,6,4.3,7.4c0.5,0.6,0.7,1.4,0.8,2.2c0.1,1,0.5,1.9,1.3,2.5c0.6,0.4,1,1,1.3,1.7c0.2,0.9,0.5,1.8,1,2.6
	c0.5,1.1,1.3,2.9,1.8,4s1.3,2.9,1.8,3.9c0.5,0.8,0.8,1.7,1,2.6c0.1,0.6,0.5,1.2,1,1.6c0.6,0.6,0.9,1.3,1,2.1c0,0.5,0.1,1.1,0.5,1.5
	c0.3,0.2,0.5,1,0.5,1.7c0,0.7,0.2,1.4,0.7,2c0.6,1.1,1,2.4,1,3.7c0.4,3.4,1,4.9,2.3,5.8c0.5,0.4,0.8,1.7,1,4.1c0,1.4,0.2,2.7,0.7,4
	c0.4,0.9,0.5,1.8,0.5,2.8c0,1.9,0.1,2.2,0.7,1.7c1-0.9,1.3,0.1,1.6,6.9c0.2,3.5,0.5,7,1.1,10.4c1.2,6.9,1.5,34.9,0.5,44.1
	c-0.4,3.8-1,8.1-1.3,9.7c-0.4,2.4-0.6,4.8-0.7,7.2c-0.1,3.5-0.3,4.3-0.9,4.3c-1.1,0-1.4,0.6-1.4,3c0,1.1-0.3,3.7-0.6,5.6
	s-0.6,3.9-0.6,4.2c0,0.4-0.4,0.7-0.8,0.7c-0.8,0-1,0.5-0.8,2.2c0,0.7-0.3,1.4-0.8,1.9c-0.6,0.6-0.8,1.6-0.6,2.4c0.3,1,0,2.1-0.7,2.8
	c-0.5,0.7-0.9,1.5-1,2.4c0,0.5-0.2,1-0.5,1.4c-0.3,0.1-0.4,0.5-0.3,0.8c0,0,0,0,0,0c0.4,0.7-0.9,4.6-1.6,4.6c-0.4,0-0.7,0.4-0.9,0.9
	c-1.1,3.5-2.5,6.9-4.2,10.2c-0.7,1-1.1,2.1-1.3,3.3c0,1.1-0.3,1.6-1,1.8c-0.5,0.1-0.9,0.5-1,1.1c0,0.7-0.7,1.9-3.6,6.2
	c-0.7,1.1-1.3,2.2-1.8,3.4c-0.3,1-1,1.9-1.8,2.5c-0.7,0.4-1.2,1-1.5,1.7c-0.6,1.2-1.4,2.2-2.3,3.2c-0.7,0.6-1.3,1.3-1.8,2.2
	c0,0.8-12.1,13.2-13.9,14.3c-0.8,0.4-1.5,1-2.1,1.6c-1.3,1.6-6.6,5.4-7.4,5.4c-0.9,0.2-1.7,0.6-2.4,1.1c-1.4,1.2-3,2.2-4.7,3
	c-0.7,0.3-1.1,0.8-0.9,1.2c0.3,0.8-0.7,1.3-2.4,1.3c-0.5,0-1.1,0.1-1.5,0.4c-0.5,0.5-3.8,1.6-7.4,2.5c-1.5,0.3-2.9,0.9-4.3,1.6
	c-1,0.7-2.1,1-3.3,0.9c-1.3,0-3.6,0.1-5,0.1c-2,0-2.7,0.2-2.7,0.8c0,1-2.2,1.3-10.4,1.1c-9.3-0.2-9.5-0.2-9.2-0.8
	c0.5-0.8-0.5-1.1-4.1-1.1c-1.9,0-3.8-0.3-5.5-1c-2-0.8-4.1-1.3-6.3-1.7c-2.1-0.4-4.2-1-6.1-1.8c-1.3-0.6-2.8-1-4.3-1
	c-1.7,0-2.6-0.2-3.1-0.9c-1.1-1.5-3.9-2.6-6.3-2.6c-1.5,0-2.3-0.3-2.5-0.8c-0.3-0.5-0.9-0.8-1.5-0.8c-0.7,0-1.3-0.3-1.8-0.8
	c-0.8-0.6-1.8-0.9-2.8-0.8c-0.9,0.1-1.8-0.1-2.6-0.5c-0.6-0.6-4.5-1.5-8.9-2.1c-1.5-0.2-2.9-0.5-4.3-1c-1.4-0.6-9.4-1.4-11.4-1.1
	c-1.1,0.2-1.8,0-2.1-0.5s-0.7-0.6-1.4-0.2c-1.5,0.6-3.1,0.9-4.7,1c-1.7,0.1-3.4,0.5-4.9,1.2c-1,0.5-2.2,0.7-3.3,0.5
	c-1.5-0.2-3.2,0.1-6.2,1.2c-2.2,0.8-4.4,1.4-6.7,1.8c-3.9,0.5-6,1.3-5.6,2.1c0.2,0.6-0.3,0.7-2,0.7c-2.5,0-5.1,1.1-6.2,2.6
	c-0.5,0.7-1.3,1-3.1,1c-1.6,0.1-3.2,0.4-4.7,1c-2.2,0.9-4.5,1.6-6.8,2.1c-2,0.5-4,1.1-5.9,1.8c-1.5,0.5-3.1,0.8-4.6,0.8
	c-1.5,0-2.9,0.3-4.3,0.9c-1.4,1.2-19.1,1.1-20.4,0c-0.7-0.6-2.4-0.9-5.2-1.1c-1.6-0.1-3.3-0.3-4.8-0.8c-0.6-0.5-6.1-2.3-8.5-2.8
	c-0.9-0.3-1.8-0.7-2.5-1.3c-0.6-0.6-1.5-0.9-2.4-0.8c-1.5,0.4-2.8-0.1-2.4-1c0.1-0.5-0.1-0.7-0.8-0.7s-2-0.9-3.3-2
	c-1-1-2.3-1.8-3.6-2.3c-1.1-0.3-2.1-0.9-2.9-1.7c-1.1-1-2.2-2-3.5-2.8c-1.5-1-2.9-2.2-4.3-3.4c-1.2-1.2-3.2-3-4.3-4
	c-6.4-5.9-15-16.6-15-18.5c-0.1-0.6-0.5-1.1-1.1-1.4c-0.9-0.8-1.5-1.7-2-2.8c-0.7-1.5-1.5-3-2.4-4.4c-0.9-1.5-1.8-3-2.6-4.6
	c-2.2-4.5-3.3-6.4-3.9-6.8c-0.4-0.4-0.7-1-0.7-1.6c0-1.5-1.4-5-2.3-5.5c-0.6-0.8-0.9-1.8-1-2.8c-0.7-4.7-1.3-6.7-2.2-6.6
	c-0.7,0.1-0.9-0.6-1.2-3.3c-0.1-1.5-0.4-2.9-0.9-4.3c-0.6-1.6-1-3.3-1.3-5c-0.5-2.2-1.1-4.6-1.4-5.2c-0.3-0.8-0.4-1.7-0.5-2.5
	c0-0.8-0.3-1.6-0.8-2.3c-0.5-0.7-0.8-2.3-0.8-4.9c0-2.9-0.2-4.1-0.7-4.4s-0.8-1.6-1-3.2s-0.5-4.5-0.8-6.6c-0.5-3.7-0.5-40.2,0.1-47
	c0.2-1.7,0.6-3.5,1.3-5.1c0.8-1.9,1.2-3.9,1.3-6c0.3-4.2,0.4-5.1,1-6c0.5-1.4,0.9-2.9,1.1-4.3c0.4-2,1.1-5,1.6-6.5
	c0.8-2.7,1.4-5.5,1.9-8.2c0.2-1.3,0.6-1.8,1.1-1.6s0.8-0.1,1-0.9c0.2-0.6,0.5-2.6,0.9-4.3c0.4-1.9,0.9-3.1,1.2-2.9s0.8-0.5,1.1-1.2
	c0.3-1,1.2-1.7,2.2-1.7c1.5-0.2,1.7-0.1,2.6,1.7c1.7,3.5,6,5.6,11.1,5.6c2.2-0.1,3.5,1.2,4.2,3.9c0.2,1.2,0.7,2.2,1,2.2
	c0.7,0,0.6,1.9-0.1,3.1c-0.5,0.6-0.5,1.5,0,2.1c0.4,1.2,0.7,2.5,0.6,3.7c0,1.4,0,3.2,0.1,4.1v3.9c-0.2,4.7-0.1,6.3,0,10.4
	c0.4,7,0.7,8.2,3.5,11s4.6,3.3,8.6,2.9c4.5-0.6,7.6-2.9,8.8-6.7c0.4-1.4,0.6-7.5,0.6-19.1l0.1-17l2.2-2c2.5-2.2,4.8-3,6.6-2.4
	c0.8,0.3,1.7,0.1,3-0.6c1-0.5,2-0.9,2.2-0.7c0.8,0.5,1,4.8,1.2,21.9c0.1,16.5,0.2,17.4,1.3,19.5c0.4,0.8,0.8,1.7,1.1,2.6
	c0,0.3,1.2,1.4,2.7,2.6c2.6,1.9,2.9,2,6.4,2c2.1,0,3.7-0.2,3.7-0.5s0.6-0.7,1.4-0.8c1.5-0.4,4.2-2.9,4.2-4c0.1-0.5,0.3-0.9,0.7-1.3
	c0.4-0.8,0.6-1.6,0.6-2.5c0.2-18.4,0.2-19,1-19s1-0.8,0.2-1.3c-1-0.6-0.5-1.3,1.5-2.3s2-1,3.1-0.1s1.1,1.4,1.3,9
	c0.4,13.9,0.6,15.4,2.9,18.2c3.3,4.1,7.5,5.4,12.3,3.8c2.5-0.9,5.3-3.7,5.8-5.7c0.7-3.4,2.6-3.8,5.4-1c1,1,2,1.9,3.3,2.6
	c1.1,0.6,2.1,1.4,3,2.2c1,1,1.8,1.4,2.4,1.2c1.2-0.4,2.9,1.3,3.3,3.2c0.2,0.7,0.4,1.4,0.8,2c0.4,0.5,0.1,0.7-0.8,1
	c-0.6,0.2-1.2,0.2-1.8,0c-0.8-0.5-2.9,1.4-6,5.4c-1.9,2.6-2.6,3.9-2.4,4.6c0,1.1-0.2,2.1-0.8,3c-0.5,0.9-0.9,1.8-1.1,2.8
	c0,0.4-0.4,0.8-0.8,0.8c-0.5,0-0.7,0.3-0.5,0.9c0.4,1.4-0.5,4.8-1.6,5.9c-0.9,0.9-1.2,0.9-2.6,0.3c-0.9-0.4-1.6-1.1-1.6-1.5
	c-0.1-0.6-0.4-1.2-0.8-1.7c-0.5-1.1-0.8-2.2-0.8-3.4c0.1-0.9-0.1-1.9-0.5-2.8c-0.8-0.5-2.1-3.4-2.1-4.6c-0.1-0.9-0.5-1.7-1-2.4
	c-0.5-0.6-0.8-1.3-1-2c0-1.1-1.6-2.6-4.3-4.2c-1-0.5-1.9-1.2-2.8-1.9c-0.4-0.5-5.9-0.2-7.4,0.4c-1.4,0.8-2.7,1.8-3.9,2.9
	c-2.5,2.1-2.9,2.8-3.2,4.7c-0.2,1.3-0.7,2.4-1,2.6c-0.5,0.3-0.8,0.9-0.7,1.4c0,0.7-0.3,1.3-0.8,1.8c-0.5,0.6-0.8,1.4-0.8,2.2
	c-0.1,1-0.3,2-0.8,2.9c-0.4,0.8-0.7,1.7-0.8,2.6c0,0.8-0.3,1.4-0.7,1.4s-0.9,0.5-1.3,1c-0.5,0.7-1.1,1-2.3,0.9
	c-1.6-0.1-1.6-0.2-1.9-2.9c-0.2-2-0.7-4-1.4-5.9c-0.6-1.7-1.3-4.1-1.6-5.3c-0.5-2-2.1-4.8-4.4-7.5c-1.4-1.6-5.8-3.6-7-3.2
	c-1,0.3-2,0.4-3,0.4c-1.5,0-2.2,0.4-2.7,1.1c-0.4,0.5-0.9,0.9-1.6,1c-0.6,0-1.3,0.8-2,2.3c-0.6,1.3-1.3,2.3-1.5,2.3
	c-0.7,0,0,8.2,0.8,9.8c0.4,0.8,0.7,1.7,0.7,2.6c0,0.7,0.2,1.3,0.6,1.4s0.7,1.4,0.9,2.9s0.4,2.6,0.7,2.6c0.8,0,2,3.2,2,5.2
	c0,1.3,0.2,2.1,0.8,2.2c0.4,0.2,0.7,0.7,0.8,1.2c0.2,0.8,0.5,1.6,1,2.3c0.6,0.8,0.9,1.8,0.7,2.9c0,2,0.7,3.9,2.1,5.4
	c0.5,0.6,0.8,1.3,0.9,2c0.1,0.8,0.5,2.2,0.6,3.1s0.4,2.1,0.6,2.7s0.5,1.1,1,1c0.8-0.4,1.3,0.7,1.3,2.9c0,3.5,4.3,9.7,7.1,10.3
	c0.7,0.1,2.4,0.7,3.7,1.1c2.3,0.7,2.6,0.7,5.9-0.4c4.2-1.3,5.8-2.7,7.5-6.4c0.5-1.1,1.1-2.1,1.8-3.1c0.4-0.7,0.5-1.6,0.5-2.4
	c0.1-1.7,0.6-3.3,1.5-4.7c0.8-1.3,1.4-2.8,1.5-4.4c0-2,1.1-3.3,2.3-2.8c0.5,0.3,0.8,0.8,0.8,1.3c0,0.6,0.3,1,0.7,1
	c0.8,0,2.9,3.8,2.9,5.2c0.1,0.6,0.3,1.1,0.8,1.4c0.5,0.6,0.8,1.5,0.8,2.3c0,0.8,0.2,1.6,0.8,2.3c0.5,0.5,0.7,1.1,0.8,1.7
	c0,1.2,1.7,3.9,4,6.4s8.7,3.8,11.7,2.2c0.6-0.3,1.3-0.5,1.9-0.6c1.2-0.4,2.2-1.1,3.1-1.9c1.7-1.5,2.3-2.4,2.6-3.8
	c0.1-1.1,0.5-1.9,0.7-1.9c0.7,0,2.6-4.2,2.3-4.9c-0.4-1,0.6-3.3,1.6-4.1c0.7-0.5,1.6-0.7,2.5-0.7c1.4,0,1.6,0.3,2.6,2.7
	c0.5,1.1,0.9,2.3,1.1,3.6c0,0.5,0.2,0.9,0.5,0.9c0.8,0.6,1.4,1.3,1.9,2.1c1.2,1.6,2.7,2.9,4.3,4c1.2,0.7,2.3,1.6,3.1,2.6
	c0.2,0.7,0.7,0.9,1.9,0.9c1.3,0.1,2.5,0.2,3.7,0.6c5.6,1.5,10.5,1.8,12.1,0.8c0.6-0.4,1.3-0.6,2-0.6c0.9,0.1,1.8-0.1,2.7-0.4
	c1.6-0.6,3.4-0.7,5.1-0.2c5,0.8,12.5,0.2,12.5-1c0.5-0.8,1.1-1.6,1.8-2.3c0.8-1.1,1.4-2.2,1.8-3.5c0.2-0.9,0.8-1.7,1.5-2.4
	c1.1-0.7,1.2-0.7,1.8,0.9c0.3,0.9,0.8,1.6,1.2,1.6s1,0.8,1.5,1.8c0.5,1.1,1.4,1.9,2.4,2.5c0.8,0.4,1.4,1,1.4,1.2c0,0.8,2.9,2,4.8,2
	c1,0,1.9,0.2,2.1,0.5c0.4,0.7,6.9,0.3,10.4-0.6c1.4-0.3,2.7-0.7,3.9-1.4c0.1,0.4,0.2,0.9,0.3,1.3c0,1.8,2.2,3.4,5,3.7
	c2.3,0.2,2.6,0.1,4.5-1.8c0.9-0.9,1.7-2,2.2-3.2c1.7,0.8,3.5,1.3,5.3,1.5c1,0,2,0.2,2.9,0.7c1.5,1.1,10,0.7,12.3-0.5
	c1.2-0.6,2.5-0.8,3.8-0.7c2.3,0.3,4.4-0.7,4.4-1.9c0-0.4,0.3-0.7,0.7-0.7c0,0,0,0,0,0c1-0.4,1.9-1.1,2.6-2c1.1-1.1,2.3-2,2.8-2
	s2.3,1.4,3.9,3.1c2.5,2.6,3.3,3.2,5.5,3.6c3.6,0.7,9.9-0.4,9.9-1.6c0.3-0.7,0.7-1.4,1.3-1.9c2.3-2.8,2.9-5.4,3.1-13.6
	c0.1-4.6,0.4-8.4,0.9-9.5c0.7-1.8,3.4-4.5,7-7c1.4-1,2.6-2.2,3.7-3.5c1.8-2.2,1.9-2.4,1.9-6.3c0-4.7-0.9-6.7-4.1-8.9
	c-1.7-1.2-2.5-1.4-5-1.3c-1.9,0.1-3.8,0.4-5.6,0.9c-2.3,0.8-2.9,0.8-4.3,0.2c-1.9-0.5-3.8-0.7-5.8-0.7c-4.1,0-4.2,0-6.7,2.1
	c-1.3,1.1-2.5,2.4-3.4,3.8c-0.4,0.9-1.1,1.7-1.9,2.2c-1,0.6-1.3,0.5-3.6-1.9c-0.8-1-1.8-1.8-2.8-2.6c-0.7-0.3-1.3-0.8-1.8-1.3
	c-0.7-0.7-1.6-1.1-2.5-1.3c-0.8-0.1-1.6-0.4-2.3-0.8c-1.9-1.1-13.8-1.7-15.8-0.9c-0.7,0.3-1.5,0.5-2.2,0.4c-0.6-0.1-1.1,0.1-1.5,0.6
	c-0.3,0.4-0.7,0.7-1.2,0.8c-2,0.6-3.8,1.5-5.5,2.9c-0.9,0.6-1.9,0.8-3,0.7c-2,0-2.5-0.2-3.9-1.8c-1.2-1.2-2.6-2.3-4.1-3.2
	c-1.5-0.7-2.8-1.9-3.6-3.4c-0.4-0.9-1-1.7-1.7-2.4c-0.6-0.5-1.1-1.2-1.4-1.9c-0.6-1-1.4-2-2.4-2.7c-1.6-1.1-2-1.2-6.1-0.9l-4.4,0.3
	l-2.5,2.8c-1.3,1.4-2.3,3-3.1,4.8c-0.6,1.5-1.5,2.9-2.7,4.1l-2,1.9l-2.6-1.4c-2.5-1.4-2.7-1.4-8.6-1.1c-3.4,0.2-6.7,0.1-10.1-0.4
	c-5.5-0.8-11-0.7-16.5,0.1c-7.3,1.3-7.2,1.3-7.7,0.6c-0.3-0.9-0.3-1.8-0.1-2.6c0.4-2.4-0.7-6.5-1.6-6.5c-0.4,0-0.8-0.6-1-1.2
	c-0.3-0.9-1-1.6-1.8-1.9c-1.4-0.6-1.5-0.8-1.2-2.4c0.4-2.2,0.9-2.8,2.5-3c2.6-0.1,6.6-1.1,7.1-1.6c0.8-0.8,6.2-0.7,7.6,0.1
	c2.8,1.5,10.5-0.1,13.3-2.8c1.4-1.1,3.4-1.2,4.8-0.1c2.2,2.1,5.1,3.4,8.1,3.5c3,0.3,3.7,0.1,3.7-0.5c0-0.4,0.4-0.7,0.8-0.7
	c0,0,0,0,0,0c0.5,0,1.9-1.2,3.2-2.6c3-3.3,3.2-4,3.3-16.6c0-8.4,0.2-10,1-11.1c0.5-0.7,1.1-1.3,1.5-1.1c1.3,0.4,2.6,3,2.7,5.3
	c0.1,1.3,0.2,2.6,0.5,3.8c0.2,0.9,0.1,1.4-0.2,1.4s-0.6,1.1-0.6,3.1c0,3.1,0.8,4.2,1.2,1.6c0.2-0.8,0.2,0.1,0.1,1.9
	c-0.1,1.7,0.1,3.4,0.6,5c0.4,1,0.6,2,0.4,2.2c-0.4,0.6,1.6,4.7,2.8,5.6c1.3,1.1,4.4,2.1,7.2,2.3c3.5,0.3,6.9-1.4,8.9-4.3l1.5-2.1
	l0.3-12c0.2-6.6,0.5-12.2,0.7-12.3c0.5-0.6,4.4-0.4,4.9,0c0.2,0.3,0.7,4.7,1.1,9.9s0.8,10.3,1,11.5s0.6,2.6,0.8,3.4
	c0.4,1.8,2.4,3.8,5.2,5c4.1,1.9,8.9,0.9,11.9-2.5c1.6-1.8,2-2.7,2-4.3c0-2,0-2,1.6-1.7c0.9,0.2,1.7,0.5,2.5,1.1
	c0.4,0.4,0.9,0.6,1.4,0.8c0.3,0,1,0.7,1.6,1.5c0.6,0.8,1.4,1.5,2.3,1.8c0.7,0.1,1.2,0.6,1.2,0.9c0,0.9,3.3,2.3,5,2.3
	c0.8,0,1.6,0.3,1.7,0.7c0.3,0.8,3.1,1.3,9,1.5c2.7,0.3,5.4-0.1,7.9-1.1c1.6-0.6,3.3-1,5-1.3c1.5-0.1,3.2-1.3,6.4-4.6
	c0.8-0.9,1.8-1.5,2.9-1.9c0.6,0,2.4,1.3,4.2,3c2.8,2.6,3.5,3,5.7,3.2c1.2,0.1,2.4,0.4,3.4,1c1.8,1.6,17.6,1.5,19.2-0.1
	c0.5-0.3,1.2-0.5,1.8-0.5c1.2-0.2,2.3-0.8,3-1.8c0.7-0.8,1.5-1.4,2.3-1.8c0.7,0,3.2-3.5,4.7-6.5c0.8-1.7,1.1-3.1,1.1-6.3
	c0-5.1-1.2-8.8-4-12.1c-0.9-0.9-1.6-2.1-2.1-3.3c0.3-1,0.9-1.9,1.7-2.6c2.1-2.1,3.5-6.2,2.8-8.6c-0.5-1.9-5.6-7.5-8-8.7
	c-0.9-0.5-1.9-0.7-2.8-0.8c-0.6,0-1.3-0.2-1.8-0.6c-0.4-0.4-2.6-0.7-6.4-0.7c-2.3,0-4.5-0.1-6.8-0.4c-0.7-0.3-1.6,0-2,0.7
	c-0.7,0.6-1.5,1-2.4,1c-1.9,0-4.5,1.6-7.5,4.6c-3.3,3.3-5.5,4.7-6.9,4.4c-1.4-0.8-2.7-1.9-3.8-3.1c-0.9-1.1-2-2-3.3-2.8
	c-0.4-0.1-0.8-0.4-1-0.8c-0.2-0.5-0.7-0.7-1.2-0.8c-0.7-0.1-1.4-0.3-2-0.7c-1.9-1.3-5.5-2-11.4-2.1c-4.8-0.1-6.1,0-7.4,0.8
	c-1.1,0.6-2.2,1-3.4,1.2c-2,0.3-7.7,4.7-11,8.6c-0.6,0.8-1.3,1.4-2.1,1.9c-0.2,0-0.9-0.8-1.5-1.8s-1.4-1.8-1.8-1.8s-1-0.6-1.3-1.4
	c-0.7-1.5-4.2-5.2-5-5.2c-0.5-0.1-1-0.2-1.4-0.5c-3.4-1.7-13.9-2.5-15.5-1.2c-1,0.9-6.1,2.1-8.4,2.1c-1,0-2-0.3-2.8-0.8
	c-0.7-0.5-1.5-0.7-2.3-0.8c-0.6,0-1.2-0.1-1.8-0.5c-0.3-0.2-3.1-0.6-6.3-0.7c-4.7-0.2-5.8-0.1-6.1,0.5c-0.2,0.4-1,0.7-1.9,0.7
	c-0.8,0-1.5,0.2-2.2,0.6c-0.4,0.4-1.3,0.4-3.2,0c-1.4-0.3-3.7-0.8-5.1-1.1c-1.7-0.4-2.9-0.4-3.5,0c-0.6,0.3-1.2,0.5-1.9,0.5
	c-0.6,0.1-1.2,0.3-1.7,0.7c-0.5,0.4-1.5,1.3-2.2,2c-1.9,1.8-3.1,1.7-5.7-0.7c-0.8-0.9-1.9-1.6-3-2c-0.4,0-0.8-0.2-1.1-0.5
	c-0.5-0.8-4.1-0.6-7.2,0.3c-2.1,0.7-4.3,0.7-6.4,0.2c-1.5-0.2-3.1-0.5-4.5-1c-2-0.4-4.1-0.5-6.2-0.3c-5.6,0.1-12.9,2-14.2,3.6
	c-0.3,0.4-0.7,0.6-1.2,0.8c-0.8,0.4-1.6,1.1-2.1,1.8c-0.9,1-2.5,2.9-3.6,4.1l-2,2.2l-1.9-1.8c-1.1-1-2.2-2.2-2.5-2.6
	c-3.8-4.3-5.4-5.6-7.5-6.2c-0.9-0.2-1.8-0.6-2.6-1.1c-0.1-0.2-2.7-0.5-5.6-0.6c-4.1-0.1-5.9-0.4-7.7-1.3c-2.2-1-2.5-1.3-2.2-2.4
	c0.4-1.4-0.9-4.7-1.9-5.1c-0.5-0.3-0.9-0.7-1.1-1.3c-0.7-2-8.2-4.5-9.2-3c-0.6,0.5-1.2,0.7-1.9,0.8c-1.4,0.5-2.7,1.1-4,1.9l-2.5,1.5
	l-1.5-1.3c-1.8-1.4-4.1-2.2-6.4-2.3c-0.8-0.1-1.6-0.3-2.4-0.7c-1-0.5-5.1-0.7-17.9-0.8c-16-0.1-16.7,0-18.3,0.9
	c-1.2,0.7-2.6,1.1-4,1.1c-1.9,0-2.1-0.1-1.8-0.9c0.3-0.7,0.4-1.4,0.5-2.1c0.2-2.1,0.8-3.5,1.8-4.1c0.5-0.3,0.9-0.9,1-1.5
	c0.2-1.3,0.7-2.6,1.6-3.6c0.6-0.9,1.2-1.8,1.6-2.9c0.6-1.2,1.3-2.3,2.1-3.3c0.7-0.7,1.2-1.4,1.5-2.3c0.7-1.2,1.5-2.4,2.5-3.3
	c1.1-0.9,2-2,2.7-3.3c0.9-1.5,2-2.8,3.2-4.1c1.2-1.2,2.2-2.6,3.1-4c1.8-2.4,3.8-4.7,5.9-6.9c7.4-7.9,7.3-7.7,11.1-11.1
	c1.9-1.7,4.3-3.9,5.3-4.9c2.8-2.7,5.8-5.2,9-7.3c1.3-0.8,2.6-1.7,3.8-2.6c1.3-1,3.5-2.5,4.9-3.6c1.1-0.7,2.1-1.4,3-2.3
	c0.2-0.3,0.6-0.5,0.9-0.5c1.1-0.4,2.2-1,3.1-1.8c0.8-0.7,1.7-1.3,2.7-1.8c1.1-0.5,2.2-1.1,3.1-1.8c1.2-0.9,2.6-1.6,3.9-2.3
	c0.6-0.2,1.1-0.8,1.1-1.2c0-0.8,0.6-1.1,3.7-1.6c0.8-0.1,1.6-0.4,2.2-1c0.2-0.4,0.7-0.7,1.2-0.7c0.8-0.2,1.6-0.5,2.2-1.1
	c1.2-0.8,2.4-1.4,3.8-1.8c1-0.3,2-0.7,2.9-1.2c1.9-1,3.9-1.6,6-2c0.4,0,0.8-0.3,0.9-0.7c0-1.2,2.1-2.3,4-2.3
	c2.3-0.1,4.5-0.7,6.6-1.6c0.9-0.4,1.1-0.6,0.6-1.1c-0.7-0.9-0.2-1,3.8-1.6c3.1-0.3,5.9-1.9,7.9-4.4c1.6-1.9,1.8-2.4,1.8-4.9
	c0.2-1.6-0.3-3.1-1.3-4.3l-0.2-0.3c-1.7-2.1-3.5-3.5-5-3.9c-1.9,0-3.8,0.1-5.6,0.4c-7.9,1.1-9.2,1.4-9.9,2c-1.5,0.7-3,1.1-4.6,1.2
	c-2.1,0.4-4,0.9-4.3,1.3c-0.7,0.5-1.6,0.9-2.5,1c-1.4,0.3-2.8,0.7-4.1,1.3c-1.1,0.5-3.5,1.5-5.4,2.1c-1.8,0.6-3.6,1.4-5.4,2.3
	c-1,0.6-2.2,1-3.4,1.2c-1,0.2-2,0.6-2.8,1.3c-0.9,0.7-1.9,1.3-3,1.6c-1.2,0.4-2.3,1-3.3,1.8c-1.2,0.9-2.6,1.5-4,1.8
	c-1.6,0.2-2.3,0.7-2.9,1.8c-0.5,1-1.5,1.7-2.5,1.9c-1.1,0.3-2.2,0.8-3.2,1.5c-1.5,1-3.1,1.8-4.7,2.6c-1.4,0.7-2.8,1.5-4.1,2.4
	c-0.4,0.3-1.6,1.3-2.5,1.9s-2.6,1.8-3.6,2.5c-1.3,0.9-2.4,1.8-3.6,2.8c-1.3,1.1-2.7,2.1-4.1,3.1c-3.4,2.5-6.6,5.3-9.6,8.2
	c-0.3,0.4-0.7,0.7-1.1,0.9c-0.5,0-14.3,13.9-17,17.1c-1,1.1-1.8,2.3-2.5,3.7c-0.2,0.7-0.7,1.2-1.1,1.2c-0.7,0.3-1.3,0.7-1.8,1.4
	c-0.6,0.8-3.1,4-5.6,7.2c-2.5,3.2-4.6,6.1-4.6,6.4c-0.3,0.7-0.7,1.3-1.3,1.8c-1.5,1.9-2.8,3.9-3.9,6.1c-1,2.1-2.2,4-3.5,5.9
	c-0.9,1.2-1.6,2.5-2.2,3.9c-0.7,1.6-1.6,3-1.8,3c-0.7,0-2.1,3.3-2.1,4.6c-0.3,1.1-0.8,2.2-1.5,3.1c-0.8,1-1.3,2.1-1.5,3.3
	c-0.2,1.1-0.7,2.1-1.5,2.9c-0.8,0.8-1.4,1.9-1.5,3c0,0.8-0.3,1.6-0.8,2.3c-0.4,0.6-0.7,1.3-0.8,2c-0.1,0.8-0.5,1.5-1.1,2
	c-0.7,0.5-1,1.4-0.7,2.2c0.1,1.1-0.1,2.1-0.6,3.1c-1.8,3.8-2.2,4.9-2.5,7.4c-0.2,1.5-0.7,2.8-1.6,4c-0.8,0.9-1.2,2-1.2,3.1
	c-0.1,1.4-0.4,2.7-1,3.9c-0.6,1.6-1.1,3.3-1.3,5c-0.2,1.5-0.9,5.1-1.6,7.9c-1,4.2-1.5,8.5-1.7,12.8c-0.3,5.4-0.6,7.9-1.1,8.6
	c-0.8,1-1,6-1.1,26c0,11.1,0.2,16.4,1.1,17.3c0.6,0.7,1,4.3,1.2,11.8c0,2.4,0.3,4.9,0.8,7.2c0.4,1,0.6,2.1,0.6,3.2
	c0.1,1.6,0.3,3.2,0.8,4.7c0.4,1.2,0.6,2.4,0.5,3.7c-0.1,1,0.1,1.9,0.5,2.8c1,2.4,1.7,4.9,2.1,7.5c0.2,1.3,0.7,2.5,1.3,3.6
	c0.7,1,1,2.2,1.1,3.4c0.1,1.1,0.3,2.1,0.8,3.1c0.3,0.7,0.5,1.5,0.6,2.2c0.2,1.1,0.6,2.2,1.3,3.2c0.7,1.1,1.1,2.3,1.3,3.6
	c0,0.9,0.3,1.8,0.8,2.5c0.4,0.6,0.7,1.3,0.8,2c0.1,0.9,0.5,1.8,1,2.6c0.6,0.9,0.9,1.8,1,2.9c0.1,0.9,0.5,1.8,1.2,2.4
	c0.8,0.9,1.4,1.9,1.8,3.1c0.2,1,0.7,1.8,1.3,2.6c0.5,0.6,0.8,1.3,0.8,2.1c0,1.6,1.5,3.5,2.8,3.5c0.4,0,0.9,0.7,1.1,1.6
	c0.3,1.2,0.9,2.3,1.6,3.4c0.5,0.7,1,1.6,1.2,2.5c0.2,0.6,0.5,1.1,0.9,1.6c1.4,1.4,3.7,5,3.7,5.6c0.4,0.8,0.9,1.5,1.5,2.2
	c0.6,0.6,1.2,1.3,1.5,2.1c0.5,0.9,1.2,1.7,1.9,2.4c1,1.1,2.9,3.2,4.2,4.6c3,3.4,9.9,10.2,15.5,15.2c0.8,0.7,1.6,1.2,2.5,1.7
	c1.2,0.8,2.3,1.6,3.4,2.6c0.8,0.8,1.8,1.5,2.9,1.9c0.6,0.2,1.2,0.6,1.6,1.1c0.9,0.9,2,1.6,3.1,2.1c1,0.4,1.8,0.9,2.5,1.6
	c0.5,0.8,5.2,3.4,6.2,3.4c1.1,0.3,2.1,0.7,3.1,1.3c4,2.1,7.2,3.4,9.3,3.6c3.2,0.3,4.2,0.7,3.5,1.6c-0.5,0.6-0.4,0.7,0.5,0.7
	c0.7,0,1.4,0.2,2,0.5c1.4,0.5,2.8,0.7,4.3,0.7c1.4,0,2.7,0.3,4,0.7c1.8,1.5,5,1.7,23.3,1.8c17.3,0.1,20.4-0.1,22.7-1.3
	c1.5-0.6,3.2-1,4.8-1.1c1.5-0.1,3-0.3,4.5-0.8c0.6-0.4,1.3-0.5,1.9-0.4c0.7,0.2,1.3,0.2,2,0c0.9-0.2,1.1-0.5,0.7-1
	c-0.8-0.9-0.1-1.3,2.6-1.3c1.4,0,2.7-0.3,4-0.8c1.8-0.7,3.6-1.2,5.5-1.5c2.1-0.4,4.1-1,6-1.7c1.7-0.7,3.4-1.1,5.2-1.3
	c1.9-0.2,3.2-0.6,3.4-1s1-0.7,1.8-0.7c1.3-0.1,2.5-0.5,3.7-1c1.5-0.7,3.1-1,4.7-0.7c2.2,0.1,4.4,0,6.6-0.3c2.8-0.4,4.2-0.4,4.6,0
	c1.4,0.4,2.9,0.6,4.4,0.5c3.9,0,8.7,1.1,10.2,2.4c1.3,0.6,2.7,0.9,4.1,1c1.9,0.1,3.7,0.7,5.4,1.5c1.1,0.6,2.3,1.1,3.6,1.2
	c2.8,0.3,5.5,1,8.2,2.1c1.1,0.3,2.2,0.5,3.3,0.5c2.4,0,3,0.4,3.6,1.7c0.3,0.8,0.7,0.9,2,0.6c0.8-0.2,1.6-0.1,2.3,0.3
	c1.2,0.5,2.6,0.7,3.9,0.7c2.5,0,3.4,0.3,4.2,1.1s1.7,1.1,3.8,1.1c1.7,0,3.3,0.2,5,0.4c2.3,0.4,26.2,0,32.8-0.6
	c2.7-0.2,3.7-0.5,4.5-1.4s1.4-1,2.9-0.8c2.3,0.3,6.2-0.7,7.5-1.8c0.8-0.6,1.8-1,2.8-1.2c3.7-0.8,7.3-2.1,10.7-3.8l6.5-3.2
	c1.4-0.6,2.8-1.4,4-2.3c0.8-0.7,1.7-1.4,2.7-1.8c2.6-1.3,5-2.9,7.2-4.8c0.7-0.6,3-2.4,5-3.9s3.7-3,3.7-3.3s0.6-0.7,1.3-0.9
	s1.3-0.8,1.3-1.1c0.8-1.2,1.8-2.3,2.9-3.2c1.6-1.4,3.2-3,3.7-3.5s1.4-1.7,2.2-2.5c3.1-3.3,6-6.7,8.7-10.3c2.2-2.8,4.1-5.7,5.7-8.9
	c0.6-1.3,1.5-2.6,2.5-3.7c0.5-0.5,0.9-1.2,1-2c0-1.4,0.9-2.4,1.8-2.1c0.5,0.2,0.8-0.5,1-2.3c0.2-1.5,0.8-2.9,1.6-4.2
	c0.6-0.8,1.1-1.8,1.2-2.9c0-0.7,0.3-1.2,0.7-1.2c0.7,0,2.3-3.6,2.3-5.1c0.2-0.7,0.5-1.3,1-1.8c0.9-1.3,1.5-2.8,1.7-4.3
	c0.3-1.8,0.9-3.4,1.2-3.5c0.4-0.2,0.7-0.7,0.6-1.1c0-0.5,0.1-0.9,0.5-1.2c0.4-0.9,0.6-1.9,0.7-2.9c0.1-1.3,0.5-2.5,1.2-3.6
	c0.7-1,1.2-2.1,1.4-3.3c0.2-1.3,0.6-3.3,0.8-4.5c0.2-1.1,0.5-2.1,1.1-3c0.4-0.7,0.5-1.5,0.3-2.3c-0.2-1.2-0.1-1.6,0.7-2.1
	c1-0.5,1.1-1,1.1-4.8c0-2.3,0.2-4.4,0.5-4.5c0.4-1.1,0.7-2.3,0.7-3.6c0.1-1.5,0.4-3.1,1.1-4.5c0.6-0.9,0.8-3.1,1-8
	C437.9,254.5,438.3,250.6,438.8,246.7L438.8,246.7z M383.4,314.8c0.8-0.3,0.7-3.1-0.3-7c-0.6-2.5-2.8-4.1-6.2-4.5
	c-0.5-0.1-1-0.1-1.5-0.1c-1.6,0-3.3,0.1-4.9,0.5c-1.9,0.6-6.8,3.6-9.1,5.7c-1.8,1.7-12.2,7.1-13.5,7.1c-0.6,0.1-1.2,0.5-1.5,1
	c-0.3,0.7-1.5,1.2-3.4,1.6c-1.4,0.3-2.8,0.7-4.1,1.3c-0.9,0.5-1.8,0.7-2.8,0.7c-1,0-1.9,0.3-2.7,0.8c-1.1,0.8-2.1,0.9-16.2,0.7
	c-4.7,0-9.1-0.2-9.7-0.5c-1.4-0.4-2.8-0.6-4.2-0.8c-1.1,0-2.2-0.3-3.3-0.8c-1-0.5-2.2-0.7-3.3-0.8c-3.8-0.5-6.4-1.5-6.1-2.4
	c0.2-0.5-0.5-0.8-2.6-1c-1.2-0.1-2.4-0.3-3.5-0.8c-0.5-0.5-2.6-1.2-10-3.7c-1.4-0.4-2.9-0.8-4.3-0.9c-1.8-0.2-2.5-0.5-2.5-1
	c0-1.2-0.8-1.5-4.9-1.8c-1.7-0.1-3.4-0.4-5-0.9c-0.7-0.3-1.5-0.6-1.8-0.7s-1.9-0.6-3.5-1.2c-2.6-0.8-5.3-1.1-8-1
	c-2.9,0-5.7-0.3-8.6-0.8c-1.4-0.4-2.8-0.6-4.3-0.6c-0.4,0.1-4,0.3-8,0.5s-7.7,0.4-8.1,0.5c-2,0.3-4.1,0.5-6.1,0.6
	c-7.2,0.4-9.1,0.7-9.8,1.8c-0.5,0.7-1.8,1.1-5.9,1.5c-6,0.7-6.8,0.9-6.5,1.8s-0.8,1.3-3,1.3c-0.9,0-5.2,1.3-9.5,2.8
	c-2.9,1.1-5.9,2.1-9,2.8c-0.9,0-1.2,0.2-0.9,0.8c0.4,1-0.9,1.5-5.8,2.2c-1.5,0.2-2.9,0.5-4.3,1.1c-1.3,0.5-2.6,0.9-4,1
	c-1.4,0.2-2.7,0.4-4,0.8c-0.3,0.2-5.5,0.4-11.6,0.4c-9.7,0-11.4-0.2-14.3-1.1c-1.4-0.5-2.8-0.9-4.2-1.1c-0.5,0-0.9-0.2-1.2-0.5
	c-0.1-0.3-0.8-0.5-1.5-0.5c-1.5,0-5.9-1.5-5.9-2c0-0.3-2.3-1.6-5.2-3s-5.6-2.8-6-3c-0.7-0.4-1.4-0.6-2.1-0.8
	c-0.8-0.1-1.4-0.6-1.4-0.9c0-1.4-4.3-4.2-8.7-5.6c-3.1-1-6.1-1.3-7.9-0.8c-2.2,0.6-4.9,3.4-4.9,5.1c0,0.3,0,0.6-0.1,0.9
	c0,0.3-0.3,0.6-0.6,0.6c-0.6,0-0.8,0.6-0.8,2c-0.1,0.9,0.2,1.9,0.8,2.6c0.4,0.4,0.7,1,0.8,1.6c0,0.5,0.3,1,0.7,1.2
	c0.7,0.6,1.2,1.3,1.5,2.2c0.9,1.7,2.1,3.3,3.4,4.6c1.5,1.5,4,4.3,5.8,6.3c1.5,1.7,3.1,3.2,4.9,4.5c0.9,0.6,1.8,1.3,2.6,2.1
	c0.8,1,2.2,1.8,5,3.2c0.9,0.4,1.6,1,1.6,1.2c0,0.6,6.7,3.8,8.8,4.3c1,0.2,1.3,0.6,1.1,1.1s0,0.8,0.7,0.8c0.6,0,1.2,0.3,1.6,0.8
	c0.7,0.5,1.6,0.8,2.5,0.8c1.2,0,2,0.2,2.2,0.7c0.2,0.7,0.8,0.8,7.1,1.7c1.4,0.2,2.9,0.5,4.2,1.1c2.5,2.1,32.5,2.3,35.7,0.2
	c1.2-0.6,2.6-0.9,3.9-0.9c1.4,0,2.8-0.3,4.1-0.7c0.9-0.3,1.8-0.5,2.7-0.6c1-0.1,1.9-0.5,2.8-1.1c0.8-0.7,2-1,3.1-0.8
	c1.8,0.4,4.6-0.8,4.6-2c0-0.8,0.5-0.9,4.2-1.5c1.3-0.2,2.5-0.7,3.6-1.3c1.8-0.8,3.7-1.4,5.6-1.7c1.7-0.2,3.3-0.7,4.8-1.5
	c0.9-0.5,1.9-0.8,3-0.8c1.2,0,2.4-0.3,3.4-0.9c2.6-1.7,7.2-2.2,21.1-2.2c10.3,0,13.7,0.2,14.8,0.7c0.8,0.4,1.6,0.7,2.5,0.7
	c0.8,0,1.6,0.3,2.3,0.7c1.3,0.6,2.7,1,4.2,1.1c1.5,0.1,2.9,0.5,4.3,1c1.3,0.5,2.7,1,4.1,1.3c1.6,0.4,3.2,1,4.7,1.7
	c1.5,0.6,3,1.1,4.6,1.3c2.1,0.2,2.7,0.5,2.7,1.2c0,1.3,1,1.7,4.5,2.1c1.3,0.1,2.7,0.4,3.9,1c0.8,0.7,1.5,0.8,8.2,1.8
	c1.6,0.2,3.3,0.5,4.8,1c4,1.8,15.2,2.7,24.2,1.9c7-0.6,10-1.1,11-1.7c1.4-0.6,2.9-0.9,4.5-1c1.3-0.1,2.5-0.3,3.7-0.8
	c0.6-0.4,1.3-0.5,2-0.5c1.2,0,1.7-0.2,1.7-0.7c0-0.9,1.6-1.5,2.8-1s4.4-1.2,4.4-2s1.1-1.3,2.9-1.3c0.7,0,1.2-0.2,1.2-0.5
	s0.5-0.7,1.2-0.9c1.2-0.5,2.3-1.2,3.4-2c0.8-0.7,1.8-1.3,2.8-1.7c1-0.4,2-1,2.9-1.7c8.8-6.1,20.3-19.1,20.3-22.8
	C382.5,315.6,382.9,315,383.4,314.8z M316,421.3c3.3-2,4.4-6.4,2.3-9.7c-0.7-1.2-1.8-2.2-3.1-2.8c-0.6-0.3-1.2-0.5-1.9-0.7
	c-2.7-0.9-6.2-1.3-7.7-0.9c-0.6,0.3-1.4,0.2-1.9-0.2c-0.4-0.4-0.7-0.4-1.2,0c-1.1,0.8-2.7,0.8-3.8-0.1c-0.6-0.8-1.7-1-2.5-0.5
	c-0.2,0.1-0.3,0.3-0.5,0.5c-0.4,0.4-0.9,0.7-1.5,0.8c-0.5-0.1-1-0.4-1.4-0.8c-0.8-0.9-2.3-1-2.8-0.2c-0.2,0.4-1,0.4-1.9,0.2
	c-2.3-0.3-4.6-0.5-6.9-0.6c-8.9-0.5-9.1-0.5-9.5-0.9c-0.8-0.3-1.7-0.4-2.6-0.4c-1.6,0-2.2-0.2-2.2-0.8s-0.5-0.8-1.5-0.8
	c-1.1-0.1-2.2-0.3-3.3-0.8c-1.3-0.5-2.7-0.7-4.1-0.8c-0.9,0.1-1.8-0.1-2.6-0.5c-0.7-0.5-1.6-0.8-2.5-0.8c-1.2-0.2-2.3-0.7-2.5-1.1
	s-1.1-0.7-3.3-0.6s-3.3-0.2-3.9-0.6s-2.4-0.8-5.2-0.8c-3.2,0-4.5-0.3-4.8-0.8c-0.6-1-13.9-1.1-13.5-0.1c0.2,0.7-0.1,0.7-6.5,0.9
	c-0.7,0-1.4,0.3-1.8,0.8c-0.3,0.5-1.4,0.8-3.2,0.8c-1.3,0-2.6,0.2-3.8,0.7c-0.7,0.4-1.5,0.6-2.3,0.6c-0.6,0-1.2,0.2-1.7,0.5
	c-0.9,0.5-2,0.9-3.1,1c-7.9,1.4-9.4,1.8-9.4,2.3c0,0.9-1.5,1.3-2.3,0.7c-0.5-0.4-1.4-0.3-3.4,0.6c-1.6,0.7-3.3,1-5,0.8
	c-0.9-0.2-1.9-0.3-2.8-0.3c-0.3,0-2.2,0.1-4.3,0.2c-1.7,0.1-3.5,0.2-5.2,0.6c-0.6,0.2-1.4,0.2-2,0c-1.3-0.3-2.6-0.5-3.9-0.5
	c-2.5-0.1-3.3,0-3.6,0.6s-1.2,0.8-6.8,0.5c-6.3-0.3-6.6-0.2-9,0.9c-2.4,1.3-4,3.6-4.3,6.2c-0.4,2.4,0.5,4.8,2.4,6.2
	c0.9,0.6,1.7,1.2,2.4,1.9c1.5,1.3,4.6,2.8,6.1,2.8c0.8,0,1.5,0.3,2.1,0.8c0.6,0.4,1.2,0.7,1.9,0.8c0.6,0.1,1.1,0.3,1.5,0.8
	c0.6,0.5,1.3,0.8,2,0.8c0.8,0,1.5,0.3,1.6,0.6s1.3,0.6,2.5,0.7c1.6,0.1,3.3,0.4,4.8,0.9c1.3,0.4,3.7,1.1,5.2,1.4s3.4,0.7,4.2,0.9
	s1.4,0.6,1.4,1c0,0.6,0.8,0.7,3.3,0.7c1.8,0,3.5,0.2,3.6,0.5c0.9,0.4,1.8,0.6,2.8,0.5c2.9,0,4.1,0.4,4.1,1.2c0,0.5,1,0.7,3,0.7
	c6.9,0.2,11.9,0.8,13.9,1.5c1.8,0.7,13.1,1.4,22.9,1.3c8.7,0,21.3-0.6,22.1-1.1c1.2-0.8,8.2-1.7,12.7-1.7c4.1,0,4.9-0.1,4.7-0.7
	s0.3-0.9,2.1-1.1c1.3-0.2,3.3-0.6,4.4-0.9c1.2-0.3,2.4-0.4,3.6-0.4c2.8,0.2,3.9,0,3.9-0.8c0-0.9,1.7-1.5,3-1.1
	c0.6,0.1,1.2-0.1,1.6-0.5c0.4-0.5,1.5-0.8,3.4-0.8s2.8-0.2,3-0.8s1-0.8,2-0.8c0.9,0,1.9-0.2,2.8-0.5c0.6-0.3,1.5-0.8,2.1-1
	c0.6-0.3,1.3-0.4,2-0.2c0.7,0.2,1.5,0,1.9-0.6c1-1,3.6-1.9,6.8-2.5c1.3-0.3,2.5-0.9,3.6-1.7C313.9,422.8,314.9,422,316,421.3z"/>
<path class="st0" d="M438.9,209c1.1,7.6,1.1,31,0,37.7c-0.6,3.9-0.9,7.8-1,11.7c-0.2,4.9-0.5,7.2-1,8c-0.6,1.4-1,2.9-1.1,4.5
	c0,1.2-0.3,2.4-0.7,3.6c-0.2,0.1-0.5,2.2-0.5,4.5c0,3.8-0.1,4.4-1.1,4.8c-0.8,0.5-1,0.9-0.7,2.1c0.2,0.8,0.1,1.6-0.3,2.3
	c-0.5,0.9-0.9,2-1.1,3c-0.2,1.2-0.6,3.3-0.8,4.5c-0.2,1.2-0.7,2.3-1.4,3.3c-0.7,1.1-1.1,2.3-1.2,3.6c0,1-0.2,2-0.7,2.9
	c-0.3,0.3-0.5,0.8-0.5,1.2c0,0.5-0.2,0.9-0.6,1.1c-0.3,0.1-0.9,1.7-1.2,3.5c-0.3,1.5-0.9,3-1.7,4.3c-0.5,0.5-0.8,1.1-1,1.8
	c0,1.5-1.7,5.1-2.3,5.1c-0.4,0-0.7,0.5-0.7,1.2c-0.2,1-0.6,2-1.2,2.9c-0.8,1.3-1.4,2.7-1.6,4.2c-0.3,1.8-0.6,2.5-1,2.3
	c-0.9-0.3-1.8,0.7-1.8,2.1c-0.1,0.8-0.5,1.5-1,2c-1,1.1-1.8,2.4-2.5,3.7c-1.6,3.2-3.4,6.2-5.7,8.9c-2.7,3.6-5.6,7-8.7,10.3
	c-0.8,0.8-1.7,1.9-2.2,2.5s-2.1,2.1-3.7,3.5c-1.1,0.9-2.1,2-2.9,3.2c0,0.4-0.6,0.9-1.3,1.1s-1.3,0.7-1.3,0.9s-1.7,1.7-3.7,3.3
	s-4.3,3.3-5,3.9c-2.2,1.8-4.7,3.4-7.2,4.8c-1,0.5-1.9,1.1-2.7,1.8c-1.2,0.9-2.6,1.7-4,2.3l-6.5,3.2c-3.4,1.7-7,3-10.7,3.8
	c-1,0.2-1.9,0.6-2.8,1.2c-1.3,1.2-5.2,2.1-7.5,1.8c-1.5-0.2-2.1,0-2.9,0.8s-1.8,1.2-4.5,1.4c-6.6,0.6-30.5,1-32.8,0.6
	c-1.7-0.2-3.3-0.4-5-0.4c-2,0-3-0.3-3.8-1.1s-1.7-1.1-4.2-1.1c-1.3,0.1-2.7-0.1-3.9-0.7c-0.7-0.4-1.6-0.5-2.3-0.3
	c-1.3,0.3-1.7,0.2-2-0.6c-0.5-1.4-1.2-1.7-3.6-1.7c-1.1,0-2.2-0.1-3.3-0.5c-2.6-1.1-5.4-1.8-8.2-2.1c-1.3-0.2-2.5-0.6-3.6-1.2
	c-1.7-0.9-3.5-1.4-5.4-1.5c-1.4-0.1-2.8-0.4-4.1-1c-1.5-1.3-6.3-2.4-10.2-2.4c-1.5,0.1-3-0.1-4.4-0.5c-0.4-0.4-1.8-0.4-4.6,0
	c-2.2,0.3-4.4,0.4-6.6,0.3c-1.6-0.2-3.3,0-4.7,0.7c-1.2,0.5-2.4,0.9-3.7,1c-0.8,0-1.6,0.3-1.8,0.7s-1.5,0.8-3.4,1
	c-1.8,0.2-3.5,0.6-5.2,1.3c-1.9,0.8-3.9,1.4-6,1.7c-1.9,0.3-3.7,0.8-5.5,1.5c-1.3,0.5-2.6,0.8-4,0.8c-2.7,0-3.4,0.4-2.6,1.3
	c0.4,0.5,0.2,0.7-0.7,1c-0.7,0.2-1.3,0.2-2,0c-0.7-0.1-1.4,0-1.9,0.4c-1.4,0.5-3,0.7-4.5,0.8c-1.7,0.1-3.3,0.4-4.8,1.1
	c-2.3,1.2-5.5,1.4-22.7,1.3c-18.3-0.1-21.5-0.3-23.3-1.8c-1.3-0.5-2.6-0.7-4-0.7c-1.5,0-2.9-0.3-4.3-0.7c-0.6-0.3-1.3-0.4-2-0.5
	c-0.9,0-1-0.2-0.5-0.7c0.7-0.9-0.3-1.3-3.5-1.6c-2-0.2-5.2-1.4-9.3-3.6c-1-0.6-2-1-3.1-1.3c-1,0-5.7-2.5-6.2-3.4
	c-0.7-0.7-1.6-1.3-2.5-1.6c-1.1-0.5-2.2-1.2-3.1-2.1c-0.4-0.5-1-0.9-1.6-1.1c-1.1-0.5-2-1.1-2.9-1.9c-1-1-2.2-1.8-3.4-2.6
	c-0.9-0.5-1.7-1.1-2.5-1.7c-5.6-5-12.5-11.8-15.5-15.2c-1.3-1.4-3.1-3.5-4.2-4.6c-0.8-0.7-1.4-1.5-1.9-2.4c-0.4-0.8-0.9-1.5-1.5-2.1
	c-0.6-0.6-1.1-1.4-1.5-2.2c0-0.6-2.3-4.2-3.7-5.6c-0.4-0.4-0.7-1-0.9-1.6c-0.3-0.9-0.7-1.7-1.2-2.5c-0.7-1-1.2-2.2-1.6-3.4
	c-0.2-0.9-0.7-1.6-1.1-1.6c-1.2,0-2.8-1.9-2.8-3.5c0-0.8-0.3-1.5-0.8-2.1c-0.6-0.8-1.1-1.6-1.3-2.6c-0.4-1.1-1-2.2-1.8-3.1
	c-0.7-0.7-1.1-1.5-1.2-2.4c-0.1-1-0.4-2-1-2.9c-0.5-0.8-0.9-1.7-1-2.6c-0.1-0.7-0.3-1.4-0.8-2c-0.5-0.7-0.7-1.6-0.8-2.5
	c-0.1-1.3-0.6-2.5-1.3-3.6c-0.6-1-1.1-2.1-1.3-3.2c0-0.8-0.2-1.5-0.6-2.2c-0.4-1-0.7-2-0.8-3.1c-0.1-1.2-0.5-2.4-1.1-3.4
	c-0.7-1.1-1.1-2.3-1.3-3.6c-0.4-2.6-1.1-5.1-2.1-7.5c-0.4-0.9-0.6-1.8-0.5-2.8c0.1-1.2-0.1-2.5-0.5-3.7c-0.4-1.5-0.7-3.1-0.8-4.7
	c0-1.1-0.2-2.2-0.6-3.2c-0.5-2.4-0.7-4.8-0.8-7.2c-0.2-7.5-0.6-11.1-1.2-11.8c-0.8-1-1.1-6.2-1.1-17.3c0-20,0.2-25,1.1-26
	c0.5-0.6,0.8-3.1,1.1-8.6c0.2-4.3,0.7-8.6,1.7-12.8c0.7-2.8,1.4-6.4,1.6-7.9c0.2-1.7,0.6-3.4,1.3-5c0.6-1.2,0.9-2.6,1-3.9
	c0-1.1,0.5-2.2,1.2-3.1c0.9-1.2,1.4-2.5,1.6-4c0.3-2.5,0.7-3.7,2.5-7.4c0.5-0.9,0.7-2,0.6-3.1c-0.2-0.8,0-1.7,0.7-2.2
	c0.6-0.5,1-1.2,1.1-2c0.1-0.7,0.3-1.4,0.8-2c0.5-0.7,0.7-1.5,0.8-2.3c0.2-1.1,0.7-2.2,1.5-3c0.8-0.8,1.3-1.8,1.5-2.9
	c0.2-1.2,0.8-2.3,1.5-3.3c0.7-0.9,1.3-2,1.5-3.1c0-1.4,1.4-4.6,2.1-4.6c0.3,0,1.1-1.3,1.8-3c0.6-1.4,1.3-2.7,2.2-3.9
	c1.3-1.9,2.5-3.9,3.5-5.9c1.1-2.1,2.4-4.2,3.9-6.1c0.6-0.5,1-1.1,1.3-1.8c0-0.4,2-3.2,4.6-6.4c2.6-3.2,5-6.4,5.6-7.2
	c0.4-0.6,1.1-1.1,1.8-1.4c0.4,0,0.9-0.5,1.1-1.2c0.7-1.3,1.5-2.6,2.5-3.7c2.7-3.2,16.6-17.1,17-17.1c0.4-0.2,0.7-0.5,1-0.9
	c3-3,6.2-5.7,9.6-8.2c1.4-1,2.8-2,4.1-3.1c1.1-1,2.3-2,3.6-2.8c1-0.7,2.6-1.8,3.6-2.5s2.1-1.6,2.5-1.9c1.3-0.9,2.7-1.7,4.1-2.4
	c1.6-0.8,3.2-1.7,4.7-2.7c1-0.6,2-1.1,3.2-1.5c1.1-0.3,2-1,2.5-1.9c0.6-1.1,1.2-1.5,2.9-1.8c1.4-0.3,2.8-0.9,4-1.8
	c1-0.8,2.1-1.4,3.2-1.8c1.1-0.3,2.1-0.9,3-1.6c0.8-0.7,1.8-1.1,2.8-1.2c1.2-0.1,2.4-0.5,3.4-1.2c1.7-0.9,3.5-1.7,5.4-2.3
	c1.8-0.7,4.2-1.6,5.4-2.1c1.3-0.6,2.7-1,4.1-1.3c0.9-0.1,1.8-0.5,2.5-1c0.3-0.4,2.2-0.9,4.3-1.3c1.6-0.2,3.1-0.6,4.6-1.2
	c0.8-0.7,2-0.9,9.9-2c1.9-0.3,3.7-0.4,5.6-0.4c1.5,0.3,3.3,1.7,5,3.9l0.2,0.3l-2.7,1l-0.3-0.3c-0.6-0.5-1.2-0.9-1.9-1.2
	c-1.1-0.3-5.2,0.3-6.5,1c-0.8,0.4-1.7,0.6-2.6,0.6c-1,0.1-2,0.3-3,0.8c-0.9,0.4-1.8,0.7-2.8,0.8c-0.9,0.1-1.8,0.3-2.5,0.8
	c-0.8,0.4-1.7,0.7-2.6,0.8c-0.8,0-1.6,0.3-2.3,0.8c-0.7,0.5-1.5,0.7-2.3,0.8c-0.8,0-1.6,0.3-2.3,0.8c-0.6,0.4-1.3,0.7-2.1,0.8
	c-0.9,0.1-1.8,0.4-2.6,0.8c-0.9,0.4-2.3,1.1-3.2,1.5c-0.8,0.4-1.6,0.6-2.5,0.8c-0.6,0.1-1.1,0.3-1.5,0.8c-0.5,0.5-1.1,0.7-1.8,0.8
	c-0.7,0-1.3,0.3-1.8,0.8c-0.3,0.4-0.8,0.7-1.3,0.8c-1.7,0.5-3.3,1.2-4.8,2.1c-0.4,0.2-1.1,0.6-1.5,0.7c-0.5,0.2-1,0.5-1.5,0.8
	c-0.4,0.2-1.1,0.6-1.4,0.7c-1.2,0.4-2.4,1-3.4,1.7c-0.8,0.5-2.6,1.6-4.1,2.3c-2.6,1.3-5.2,2.9-7.6,4.5c-1.7,1.1-3.5,2.2-3.9,2.6
	c-3.7,2.2-14.4,10-15.4,11.2c-0.9,0.8-1.8,1.6-2.8,2.3c-3.6,2.8-4.7,3.8-14,13c-7.5,7.2-14.4,15-20.5,23.4l-5.3,7.1
	c-1.1,1.4-2.2,3-3,4.6c-0.7,1.2-1.3,2.3-3.1,5.1c-0.6,0.9-1.1,1.8-1.6,2.8c-0.2,0.4-0.8,1.4-1.4,2.3c-0.6,0.9-1.1,1.9-1.6,2.9
	c-0.3,0.8-0.8,1.4-1,1.4s-0.5,0.4-0.5,1c0,0.5-0.1,0.9-0.5,1.3c-0.7,0.8-1.2,1.8-1.6,2.8c-0.6,1.3-1.3,2.8-1.6,3.2
	c-0.3,0.5-0.5,1-0.8,1.5c-0.3,0.7-0.6,1.5-1,2.2c-0.3,0.6-0.6,1.3-0.8,2.1c-0.1,0.5-0.4,1-0.8,1.3c-0.5,0.5-0.7,1.1-0.8,1.8
	c0,0.7-0.3,1.3-0.8,1.8c-0.5,0.5-0.7,1.1-0.8,1.7c-0.1,0.8-0.3,1.5-0.8,2.1c-0.4,0.6-0.7,1.3-0.8,2c-0.1,0.7-0.3,1.4-0.8,2
	c-0.4,0.6-0.7,1.3-0.8,2.1c-0.1,0.8-0.3,1.5-0.8,2.1c-0.5,0.7-0.7,1.5-0.8,2.3c0,0.8-0.3,1.6-0.8,2.3c-0.5,0.8-0.8,1.6-0.8,2.5
	c0,0.9-0.3,1.8-0.8,2.6c-0.5,0.7-0.8,1.6-0.8,2.5c-0.1,1-0.3,1.9-0.8,2.8c-0.4,0.9-0.7,2-0.8,3c0,1-0.2,1.9-0.6,2.8
	c-0.5,1.2-0.8,2.4-1,3.7c-0.2,1.6-0.5,3.2-0.9,4.8c-1.1,4.8-1.8,9.6-2.1,14.5c-0.2,2.8-0.7,6.3-1,7.9c-0.9,4.2-0.7,31.3,0.2,37.5
	c0.4,2.8,0.7,5.7,0.8,8.5c0,2.1,0.3,4.3,0.8,6.4c0.4,1.7,0.7,3.3,0.8,5c0.1,1.5,0.3,2.9,0.8,4.3c0.4,1.3,0.7,2.7,0.8,4.1
	c0.1,1.3,0.4,2.5,0.8,3.7c0.4,1.1,0.7,2.2,0.8,3.3c0.1,1.1,0.3,2.3,0.8,3.3c0.4,1.1,0.7,2.2,0.8,3.3c0,0.9,0.3,1.7,0.8,2.4
	c0.5,0.7,0.7,1.5,0.8,2.4c0,0.9,0.2,1.8,0.6,2.5c0.4,0.8,0.8,1.7,1,2.6c0.5,2.2,1.3,4.4,2.3,6.5c0.4,0.6,0.6,1.4,0.7,2.1
	c0.1,0.8,0.3,1.5,0.7,2.2c0.4,0.8,1.1,2.3,1.5,3.3c0.9,2.2,1.9,4.4,3,6.5c0.2,0.4,0.6,1.1,0.7,1.5c1.1,2.5,2.4,5.1,2.8,5.4
	c0.3,0.3,0.5,0.8,0.5,1.3c0,0.5,0.2,1,0.5,1s0.7,0.6,1,1.4c0.4,1,1,2.1,1.6,3c0.6,0.8,1.2,2,1.5,2.5c0.9,1.7,2,3.4,3.2,4.9
	c0.6,0.7,1,1.5,1.4,2.4c0.4,0.7,0.8,1.4,1.4,2c0.7,0.7,1.3,1.4,1.7,2.2c0.5,1.2,10.1,12.2,14,15.8c1.9,1.8,4.9,4.5,6.5,5.9
	s3.4,3,4,3.5c0.3,0.4,0.8,0.7,1.2,0.9c1.1,0.7,2.2,1.4,3.3,2.3c1,0.9,2.1,1.6,3.3,2.3c1.2,0.7,2.4,1.5,3.6,2.3
	c1.2,0.9,2.6,1.7,4.1,2.3c0.4,0.1,0.8,0.3,1.1,0.7c0.5,0.5,1.1,0.8,1.8,1c0.7,0.2,1.3,0.6,1.3,0.8s0.4,0.5,0.9,0.5
	c0.7,0.1,1.4,0.3,1.9,0.8c0.5,0.4,1.1,0.7,1.8,0.8c0.6,0.1,1.1,0.3,1.5,0.8c0.4,0.5,1,0.7,1.6,0.8c0.8,0.1,1.6,0.3,2.3,0.7
	c2.2,1,4.5,1.8,6.8,2.3c0.9,0.1,1.7,0.4,2.5,0.9c0.8,0.4,1.8,0.7,2.7,0.8c1.1,0.1,3.1,0.5,4.3,0.8c8.4,2,23.8,2.8,30.4,1.4
	c2.1-0.4,4.2-0.7,6.3-0.8c1.3,0,2.6-0.2,3.9-0.6c1.4-0.5,2.8-0.8,4.2-1c3-0.5,6-1.2,8.9-2.1c1.2-0.4,2.4-0.7,3.6-0.9
	c2.7-0.5,5.4-1.3,8-2.3c0.9-0.4,1.8-0.7,2.8-0.7c0.9,0,1.7-0.3,2.4-0.8c0.8-0.5,1.7-0.7,2.6-0.8c0.8,0,1.5-0.2,2.2-0.6
	c0.8-0.5,1.8-0.8,2.8-0.9c1.3-0.2,2.5-0.5,3.7-0.9c3-1,6.1-1.7,9.2-2.1c1.7-0.2,4.8-0.7,7-1.1c2.6-0.5,5.3-0.5,7.9,0
	c2.1,0.4,5.3,0.9,7,1.1c3.1,0.4,6.2,1.1,9.2,2.1c1.2,0.4,2.5,0.7,3.7,0.9c1,0.1,1.9,0.4,2.8,0.9c0.6,0.4,1.4,0.6,2.2,0.6
	c0.9,0,1.8,0.3,2.6,0.8c0.8,0.5,1.6,0.8,2.5,0.8c0.9,0,1.8,0.3,2.5,0.8c0.7,0.5,1.5,0.7,2.4,0.8c0.9,0,1.8,0.2,2.5,0.6
	c1,0.5,2.1,0.8,3.2,1c1.2,0.2,2.4,0.5,3.6,0.9c2.9,1,5.9,1.7,8.9,2.1c1.4,0.2,2.9,0.5,4.2,1c1.2,0.4,2.5,0.6,3.8,0.6
	c2.1,0.1,4.3,0.4,6.4,0.8c5.2,1,17.8,1,22.3,0c1.8-0.4,3.6-0.6,5.4-0.8c1.3,0,2.7-0.3,3.9-0.8c1.1-0.4,2.3-0.7,3.6-0.8
	c0.8,0,1.6-0.2,2.2-0.6c0.8-0.5,1.6-0.9,2.5-1c2.4-0.5,4.7-1.3,6.9-2.3c0.7-0.4,1.5-0.7,2.3-0.7c0.6,0,1.2-0.3,1.6-0.8
	c0.4-0.4,0.9-0.7,1.5-0.8c0.7-0.1,1.3-0.4,1.8-0.8c0.6-0.4,1.2-0.7,1.9-0.8c0.5,0,0.9-0.2,0.9-0.5s0.6-0.7,1.4-1
	c0.8-0.3,1.6-0.7,2.3-1.1c1.1-0.7,2.2-1.3,3.4-1.9c0.9-0.5,1.8-1.1,2.6-1.8c0.7-0.6,1.4-1,2.2-1.4c0.8,0,8.2-5.7,14-10.8
	c6.1-5.4,15.7-15.8,18.2-19.7c0.6-0.9,1.3-1.8,2-2.6c0.5-0.5,0.9-1,1.2-1.7c0.4-0.9,0.8-1.6,1.4-2.4c0.7-0.8,1.3-1.7,1.9-2.6
	c0.4-0.8,0.9-1.6,1.4-2.3c0.6-0.9,1.2-2,1.5-2.5s1-1.7,1.5-2.5s1.1-1.9,1.3-2.3c0.2-0.5,0.4-1,0.7-1.5c0.2-0.4,1.3-2.5,2.3-4.6
	s2.2-4.4,2.6-5.2c0.4-0.6,0.6-1.4,0.7-2.1c0.1-0.5,0.4-1,0.8-1.4c0.5-0.5,0.7-1.1,0.8-1.7c0.1-0.8,0.3-1.5,0.8-2.1
	c0.4-0.6,0.7-1.3,0.8-2c0.1-0.7,0.3-1.4,0.8-2c0.4-0.6,0.7-1.3,0.8-2.1c0.1-0.7,0.3-1.4,0.7-2c0.5-0.8,0.8-1.7,0.9-2.5
	c0.2-1.1,0.5-2.2,0.9-3.2c0.3-0.9,0.8-2.4,1.1-3.3c0.4-1.2,0.7-2.4,0.9-3.7c0.2-1.1,0.5-2.1,1-3.2c0.4-1,0.6-2,0.6-3
	c0-1.1,0.3-2.2,0.8-3.2c0.5-1.1,0.7-2.2,0.8-3.4c0.1-1.5,0.3-2.9,0.8-4.3c0.5-1.5,0.7-3,0.8-4.5c0.1-1.8,0.3-3.6,0.8-5.3
	c0.5-2,0.7-4.1,0.8-6.1c0.1-2.7,0.4-5.4,0.8-8c1.1-6.8,1.1-33.6,0-40c-0.4-2.5-0.7-5.1-0.8-7.7c0-1.8-0.3-3.6-0.8-5.3
	c-0.5-1.4-0.7-2.9-0.8-4.3c-0.1-1.5-0.3-2.9-0.8-4.3c-0.4-1.3-0.7-2.6-0.8-4c-0.1-1.1-0.3-2.2-0.8-3.2c-0.5-1-0.7-2-0.8-3.1
	c0-1.1-0.3-2.1-0.8-3.1c-0.4-0.9-0.7-1.8-0.8-2.8c0-1-0.3-1.9-0.8-2.8c-0.4-0.8-0.7-1.6-0.8-2.5c0-0.8-0.3-1.6-0.8-2.2
	c-0.5-0.7-0.7-1.5-0.8-2.3c0-0.8-0.3-1.6-0.8-2.3c-0.4-0.6-0.7-1.3-0.8-2.1c-0.1-0.8-0.3-1.5-0.8-2.1c-0.4-0.6-0.7-1.3-0.8-2
	c-0.1-0.7-0.3-1.4-0.8-2c-0.4-0.6-0.7-1.3-0.8-2c0-0.7-0.3-1.3-0.8-1.7c-0.5-0.5-0.7-1.1-0.8-1.8c0-0.7-0.3-1.3-0.8-1.8
	c-0.5-0.5-0.7-1.1-0.8-1.8c0-0.7-0.3-1.3-0.8-1.8c-0.4-0.3-0.7-0.8-0.8-1.3c-0.3-1-0.7-2-1.3-2.9c-0.7-1.2-1.4-2.6-1.6-3
	c-0.2-0.5-0.5-1-0.8-1.5c-0.3-0.5-0.6-1-0.8-1.5c-0.2-0.5-0.5-1-0.8-1.5c-0.3-0.6-0.7-1.2-0.9-1.9c-0.3-0.5-0.6-1-1-1.4
	c-0.3-0.2-0.5-0.6-0.6-1c-0.5-1.4-1.3-2.7-2.2-3.9c-1.2-1.8-2.3-3.6-2.5-4c-0.4-0.8-0.9-1.6-1.4-2.3c-0.5-0.8-1-1.5-1.4-2.4
	c-0.5-0.8-1-1.6-1.6-2.3c-0.6-0.8-3-4-5.3-7.1s-5.8-7.7-7.9-10.2c-4.8-5.8-21.2-22.2-25.6-25.4c-1.3-1-2.6-2-3.8-3.1
	c-0.8-0.8-10.8-8.4-11.3-8.4c-0.8-0.4-1.5-0.9-2.2-1.5c-0.7-0.6-1.4-1.1-2.2-1.5c-1.2-0.6-2.4-1.4-3.5-2.2c-2.5-1.8-5.1-3.3-7.8-4.7
	c-1.4-0.7-3.2-1.8-4.1-2.3c-0.7-0.5-1.5-0.9-2.3-1.3c-0.5-0.2-1-0.5-1.5-0.8c-0.4-0.3-1.1-0.6-1.4-0.7s-1-0.3-1.3-0.5
	c-0.5-0.2-1-0.4-1.4-0.7c-0.9-0.5-1.8-0.9-2.8-1.3c-1.1-0.5-2.4-1.1-2.8-1.4s-1.1-0.6-1.5-0.7s-1.4-0.6-2.2-1
	c-0.8-0.4-1.6-0.6-2.4-0.7c-0.6-0.1-1.1-0.3-1.5-0.8c-0.5-0.5-1.1-0.7-1.7-0.8c-0.8-0.1-1.5-0.3-2.1-0.8c-0.6-0.4-1.3-0.7-2.1-0.8
	c-0.9-0.1-1.8-0.3-2.5-0.7c-2.2-1-4.4-1.8-6.8-2.3c-1-0.2-2-0.6-2.9-1c-0.7-0.4-1.5-0.6-2.3-0.6c-0.9-0.1-1.8-0.3-2.7-0.8
	c-0.9-0.5-2-0.7-3-0.8c-1-0.1-2.1-0.3-3-0.8c-1.3-0.6-2.7-0.8-4.1-0.8c-3-0.1-4.7,1-5,3.4l-2.7-0.4c0.4-2.8,1.5-4.3,4.5-6.1
	c1.7-1,6-1,9.4,0c1.2,0.3,2.4,0.5,3.6,0.5c1.5,0.1,2.9,0.6,4.3,1.3c1.5,0.8,3.1,1.2,4.7,1.3c2.7,0,3.8,0.4,3.8,1.4
	c0,0.6,0.4,0.7,1.3,0.5c0.8-0.2,1.4,0,1.6,0.5s0.9,0.7,1.8,0.7c1,0.1,2.1,0.3,3,0.8c1.3,0.6,2.6,1.1,3.9,1.6
	c1.3,0.5,3.4,1.2,4.5,1.7c4.5,2,5.8,2.5,6.6,2.5c0.9,0.3,1.7,0.8,2.3,1.5c0.7,0.8,1.7,1.3,2.8,1.5c0.7,0,1.4,0.2,1.6,0.5
	c0.3,0.3,0.8,0.5,1.2,0.5c0.6,0,1.1,0.3,1.5,0.7c0.7,0.5,1.4,0.9,2.3,1c1.6,0.3,2.9,1.4,3.5,3c0.5,0.7,1.3,1.1,2.1,1.1
	c1.2,0.3,2.4,0.8,3.4,1.6c0.6,0.6,1.3,1,2,1.3c0.6,0,4,2.2,5.2,3.3c1.1,0.8,2.2,1.5,3.5,2.1c1.4,0.7,2.6,1.5,2.6,1.8
	s0.7,0.8,1.6,1.2c0.9,0.5,1.7,1.1,2.5,1.7c0.5,0.5,3.1,2.6,5.8,4.6c2,1.4,3.9,3,5.6,4.8c0.7,0.9,1.6,1.7,2.7,2.3
	c2.8,1.7,10.3,9,15.8,15.3c3.4,3.9,3.6,4.1,5,5.6c0.7,0.8,1.3,1.6,1.9,2.4c1.8,2.6,3.7,5.1,5.7,7.5c1.5,1.7,2.8,3.5,4.1,5.3
	c1.4,2,3.5,5,4.7,6.6c0.9,1.1,1.6,2.4,2.1,3.7c0.4,1.1,0.9,2.1,1.7,3c0.9,1.3,1.7,2.6,2.4,4c0.4,1.1,1.1,2.1,1.9,3
	c0.7,0.7,1.2,1.6,1.5,2.6c0.9,2.6,2.1,5,3.6,7.4c0.4,0.7,0.6,1.4,0.7,2.2c0,1.6,0.5,2.7,1.2,2.7c0.9,0,2.3,3.3,2.3,5.2
	c0,0.9,0.3,1.8,0.9,2.6c1.2,1.7,2,3.7,2.2,5.9c0,0.6,0.2,1.2,0.7,1.5c1,0.6,2.3,4,2.3,6.1c0.2,1.6,0.8,3.2,1.6,4.6
	c1.3,2.3,1.5,3.3,1.3,4.8c-0.2,1.3-0.1,2.1,0.5,2.7c0.5,0.8,0.8,1.7,0.8,2.7c0,1.1,0.3,2.2,0.8,3.1c0.7,1.5,1.1,3.2,1.3,4.8
	c0.9,6.9,1.1,7.5,1.7,7.8s1.1,3.6,1.5,10.4C438,202.2,438.5,206.1,438.9,209z"/>
<path class="st0" d="M415.6,216.1c0.5,5.6-0.6,30.4-1.4,32.2c-0.4,1.3-0.6,2.7-0.6,4.1c0,1.8-0.3,3.5-0.8,5.2
	c-0.4,1.4-0.7,2.9-0.8,4.4c-0.1,1.3-0.3,2.6-0.8,3.8c-0.5,1.2-0.7,2.4-0.8,3.7c0,1.1-0.3,2.1-0.8,3.1c-0.5,0.9-0.7,2-0.8,3
	c0,1.1-0.3,2.1-0.8,3.1c-0.5,0.9-0.7,1.8-0.8,2.8c0,0.9-0.3,1.8-0.8,2.5c-0.5,0.7-0.7,1.5-0.8,2.3c0,0.8-0.3,1.6-0.8,2.3
	c-0.5,0.7-0.7,1.5-0.8,2.3c0,0.8-0.3,1.6-0.8,2.3c-0.4,0.6-0.7,1.3-0.8,2c-0.1,0.7-0.3,1.4-0.8,2c-0.4,0.6-0.7,1.3-0.8,2
	c-0.1,0.7-0.3,1.4-0.8,2c-0.4,0.6-0.7,1.2-0.8,1.9c-0.1,0.6-0.3,1.1-0.8,1.5c-0.5,0.5-0.7,1.1-0.8,1.8c0,0.7-0.3,1.3-0.8,1.8
	c-0.4,0.4-0.7,0.9-0.8,1.5c0,0.6-0.3,1.1-0.8,1.5c-0.4,0.4-0.7,0.9-0.8,1.5c0,0.5-0.2,0.9-0.5,1.3c-1.5,2.2-2.8,4.6-4,7
	c-0.4,0.8-0.9,1.4-1.2,1.4s-0.5,0.4-0.7,0.9c-0.6,1.7-8,11.9-11.2,15.4c-10.3,11-17.9,17.2-27.6,22.2c-1.4,0.7-2.9,1.5-3.3,1.7
	s-1.7,0.8-2.8,1.3s-2.7,1.2-3.5,1.6c-0.8,0.4-1.7,0.6-2.6,0.7c-0.6,0-1.2,0.2-1.7,0.6c-0.8,0.5-1.6,0.8-2.5,1
	c-1.8,0.4-3.5,0.8-8.4,2c-6.4,1.6-26.7,1.7-30.4,0.1c-1.1-0.4-2.3-0.7-3.6-0.7c-1.1,0-2.1-0.3-3.1-0.8c-0.9-0.5-1.8-0.7-2.8-0.8
	c-1-0.1-1.9-0.3-2.8-0.8c-0.8-0.4-1.7-0.7-2.6-0.8c-0.8,0-1.6-0.3-2.3-0.8c-0.7-0.5-1.5-0.7-2.3-0.8c-0.8,0-1.6-0.3-2.3-0.8
	c-0.7-0.5-1.4-0.7-2.2-0.8c-0.8,0-1.6-0.3-2.2-0.8c-0.6-0.4-1.3-0.7-2.1-0.8c-0.8-0.1-1.5-0.3-2.1-0.8c-0.7-0.5-1.5-0.7-2.3-0.8
	c-0.8,0-1.6-0.3-2.3-0.8c-0.7-0.5-1.5-0.7-2.3-0.8c-0.8,0-1.6-0.3-2.3-0.8c-0.8-0.5-1.6-0.7-2.5-0.8c-0.9,0-1.8-0.3-2.5-0.8
	c-0.8-0.5-1.8-0.8-2.8-0.8c-1.1,0-2.1-0.3-3.1-0.8c-1-0.5-2-0.7-3.1-0.8c-1.5-0.1-2.9-0.3-4.3-0.8c-3.4-1-15.7-1-19.6,0
	c-1.5,0.4-3,0.7-4.6,0.8c-1.1,0-2.1,0.3-3,0.8c-0.9,0.5-1.8,0.7-2.8,0.8c-1,0.1-1.9,0.3-2.8,0.8c-0.9,0.5-1.8,0.7-2.8,0.8
	c-0.9,0-1.8,0.3-2.5,0.8c-0.7,0.5-1.5,0.7-2.3,0.8c-0.8,0-1.6,0.3-2.3,0.8c-0.7,0.5-1.5,0.7-2.3,0.8c-0.8,0-1.6,0.3-2.3,0.8
	c-0.6,0.4-1.3,0.7-2,0.8c-0.7,0.1-1.4,0.3-2,0.8c-0.6,0.4-1.4,0.7-2.1,0.8c-0.9,0.1-1.8,0.3-2.5,0.8c-0.8,0.4-1.6,0.7-2.5,0.8
	c-0.7,0.1-1.4,0.3-2,0.8c-0.7,0.5-1.5,0.7-2.3,0.8c-0.9,0.1-1.8,0.3-2.6,0.8c-0.9,0.5-1.8,0.7-2.8,0.8c-1,0-1.9,0.3-2.8,0.8
	c-0.9,0.4-1.9,0.7-2.9,0.8c-1.3,0.1-2.6,0.4-3.8,0.8c-3.3,1.3-25.8,1.3-28.7,0c-1.2-0.5-2.5-0.8-3.8-0.8c-1.1,0-2.3-0.3-3.3-0.8
	c-0.9-0.4-1.8-0.7-2.8-0.8c-0.9,0-1.7-0.3-2.4-0.8c-0.7-0.5-1.5-0.7-2.3-0.8c-0.7,0-1.5-0.3-2-0.8c-0.4-0.4-0.9-0.7-1.4-0.8
	c-0.7,0-9.1-4-12.1-5.8c-8-4.7-15.8-11.3-23.8-20.1c-2.8-3-8.6-10.7-8.6-11.3c-0.1-0.4-0.3-0.7-0.7-0.9c-0.5-0.3-0.8-0.7-1.1-1.2
	c-0.8-1.5-1.7-3-2.7-4.4c-0.6-0.9-1.2-1.8-1.7-2.8c-0.4-1-1-1.9-1.5-2.8c-0.6-0.9-1.1-1.9-1.3-2.3c-0.2-0.5-0.5-1-0.8-1.5
	c-0.3-0.5-0.5-1-0.8-1.5c-0.3-0.7-0.6-1.4-1-2.1c-0.4-0.6-0.6-1.4-0.7-2.1c-0.1-0.5-0.4-1-0.8-1.4c-0.4-0.4-0.7-0.9-0.8-1.5
	c-0.1-0.9-0.4-1.8-0.9-2.6c-0.5-0.9-1.1-2.3-1.5-3c-0.4-0.7-0.6-1.5-0.7-2.3c-0.1-0.7-0.3-1.4-0.8-2c-0.5-0.7-0.7-1.4-0.8-2.2
	c0-0.7-0.2-1.3-0.6-1.9c-0.5-0.8-0.8-1.6-1-2.5c-0.6-2.3-1.2-4.7-2.1-6.9c-0.4-1.3-0.8-2.6-1-3.9c-0.2-1.3-0.5-2.5-1-3.7
	c-0.3-0.9-0.5-1.9-0.6-2.9c-0.1-1.1-0.3-2.2-0.8-3.3c-0.5-1.3-0.7-2.6-0.8-4c0-1.4-0.3-2.9-0.8-4.2c-0.5-1.5-0.7-3.1-0.8-4.7
	c-0.1-2.1-0.4-4.1-0.9-6.1c-1.2-5.1-1.2-43.4,0-49c0.4-1.9,0.7-3.9,0.8-5.9c0.1-1.6,0.3-3.2,0.8-4.7c0.4-1.3,0.7-2.7,0.8-4.1
	c0.1-1.3,0.3-2.6,0.8-3.8c0.4-1.2,0.7-2.4,0.8-3.7c0-0.9,0.2-1.8,0.6-2.6c0.5-1,0.8-2.1,1-3.2c0.2-1.3,0.6-2.6,1-3.8
	c1.1-3.2,1.6-4.8,2-6.4c0.6-2.2,1.4-4.4,2.4-6.5c0.4-0.7,0.6-1.4,0.7-2.1c0.1-0.7,0.4-1.5,0.7-2.1l1.6-3.2c0.5-1.1,1.2-2.9,1.6-3.8
	c0.4-0.9,0.8-1.7,1.2-2.6c0.3-0.5,0.5-1,0.8-1.5c0.2-0.5,0.5-1,0.8-1.5c0.3-0.5,0.5-1,0.8-1.5s0.5-1,0.8-1.5
	c0.3-0.5,0.5-0.9,0.7-1.4c0.4-1.2,1-2.4,1.8-3.4c0.6-0.9,1.1-1.8,1.6-2.8c0.5-1,1.1-2,1.8-2.9c0.5-0.6,1-1.4,1.2-2.1
	c0.1-0.4,0.3-0.9,0.7-1.2c1-1.2,1.8-2.5,2.4-3.9c0.3-0.6,0.7-1.1,1-1.1c0.3,0,0.5-0.3,0.5-0.6c0.6-1.2,1.3-2.4,2.2-3.4
	c1.2-1.6,2.5-3.5,3-4.2c0.5-0.7,1-1.4,1.5-2c0.4-0.4,2-2.4,3.7-4.5c8.1-9.7,17-18.6,26.7-26.8c2.1-1.7,4.5-3.7,5.4-4.5
	c0.6-0.6,1.3-1.1,2.1-1.4c0.6-0.2,1-0.5,1.4-1c0.7-0.9,5.8-4.5,9-6.4c0.5-0.3,2.2-1.4,3.9-2.6c2-1.4,4-2.7,6.1-3.8
	c0.6-0.3,1.7-1,2.5-1.5s1.9-1.1,2.3-1.3c0.5-0.2,1-0.5,1.5-0.8c0.4-0.3,1.9-1,3.3-1.7c3.1-1.6,3.8-2,5.1-2.7
	c0.6-0.4,1.2-0.7,1.8-0.9c0.4-0.2,2.2-1,4.1-1.8s4.1-1.9,5.1-2.3s2.4-1.1,3.2-1.5c0.7-0.4,1.5-0.6,2.3-0.7c0.7-0.1,1.3-0.3,1.9-0.8
	c0.6-0.4,1.4-0.7,2.1-0.8c0.7,0,1.3-0.3,1.7-0.8c0.5-0.5,1.3-0.8,2-0.8c0.8,0,1.6-0.3,2.3-0.8c0.6-0.4,1.4-0.7,2.1-0.8
	c0.9-0.1,1.8-0.3,2.5-0.8c0.8-0.4,1.7-0.7,2.6-0.8c1-0.2,1.9-0.7,2.6-1.3c1.2-0.7,1.8-2.1,1.6-3.4c0.1-1-0.2-2.1-0.8-2.9l2.7-1
	c1,1.2,1.5,2.8,1.4,4.3c0,2.5-0.2,3-1.8,4.9c-1.9,2.5-4.7,4-7.9,4.4c-4,0.6-4.4,0.7-3.8,1.6c0.5,0.6,0.4,0.8-0.6,1.1
	c-2.1,0.9-4.3,1.5-6.6,1.6c-1.9,0-4,1.2-4,2.3c-0.1,0.4-0.5,0.7-0.9,0.7c0,0,0,0,0,0c-2.1,0.4-4.1,1-6,2c-0.9,0.5-1.9,0.9-3,1.2
	c-1.3,0.4-2.6,1-3.7,1.8c-0.6,0.5-1.4,0.9-2.2,1.1c-0.5,0-1,0.3-1.2,0.7c-0.6,0.6-1.4,0.9-2.2,1c-3.1,0.6-3.7,0.8-3.7,1.6
	c0,0.4-0.5,0.9-1.1,1.2c-1.4,0.7-2.7,1.4-3.9,2.3c-1,0.7-2,1.4-3.1,1.8c-1,0.5-1.9,1.1-2.7,1.8c-0.9,0.8-2,1.4-3.1,1.8
	c-0.4,0-0.8,0.2-1.1,0.5c-0.9,0.9-1.9,1.6-3,2.3c-1.5,1-3.7,2.6-4.9,3.6c-1.2,0.9-2.5,1.8-3.8,2.6c-3.2,2.1-6.2,4.6-9,7.3
	c-1,1-3.4,3.2-5.3,4.9c-3.8,3.4-3.7,3.2-11.1,11.1c-2.1,2.2-4.1,4.5-5.9,6.9c-0.9,1.4-1.9,2.8-3.1,4c-1.2,1.2-2.3,2.6-3.2,4.1
	c-0.7,1.2-1.6,2.3-2.7,3.3c-1,1-1.9,2.1-2.5,3.3c-0.3,0.9-0.8,1.6-1.5,2.3c-0.8,1-1.6,2.1-2.1,3.3c-0.4,1-1,2-1.6,2.9
	c-0.9,1-1.4,2.3-1.6,3.6c-0.1,0.6-0.5,1.2-1,1.5c-1.1,0.6-1.7,1.9-1.8,4.1c0,0.7-0.2,1.5-0.5,2.1c-0.4,0.8-0.1,0.9,1.8,0.9
	c1.4,0,2.8-0.4,4-1.1c1.6-1,2.3-1,18.3-0.9c12.7,0.1,16.9,0.2,17.9,0.8c0.7,0.4,1.5,0.6,2.4,0.7c2.3,0.1,4.5,0.9,6.4,2.3l1.5,1.3
	l2.5-1.5c1.3-0.8,2.6-1.4,4-1.9c0.7-0.1,1.4-0.4,1.9-0.8c0.9-1.5,8.5,1.1,9.2,3c0.2,0.6,0.6,1,1.1,1.3c1.1,0.4,2.3,3.7,1.9,5.1
	c-0.3,1.1,0,1.4,2.2,2.4c1.9,0.9,3.6,1.2,7.7,1.3c2.9,0.1,5.5,0.4,5.6,0.6c0.8,0.6,1.7,1,2.6,1.1c2.1,0.6,3.7,1.9,7.5,6.2
	c0.4,0.4,1.5,1.6,2.5,2.6l1.9,1.8l2.1-2.1c1.1-1.2,2.7-3.1,3.6-4.1c0.5-0.8,1.3-1.4,2.1-1.8c0.5-0.1,0.9-0.4,1.2-0.8
	c1.3-1.6,8.7-3.5,14.2-3.6c2.1-0.2,4.1-0.1,6.2,0.3c1.5,0.5,3,0.8,4.5,1c2.1,0.5,4.3,0.5,6.4-0.2c3.1-0.9,6.7-1.1,7.2-0.3
	c0.3,0.3,0.7,0.5,1.1,0.5c1.1,0.4,2.2,1.1,3,2c2.6,2.4,3.7,2.6,5.7,0.7c0.8-0.7,1.8-1.6,2.2-2c0.5-0.4,1.1-0.7,1.7-0.7
	c0.7-0.1,1.3-0.2,1.9-0.5c0.7-0.4,1.8-0.4,3.5,0c1.4,0.3,3.7,0.8,5.1,1.1c1.9,0.4,2.8,0.4,3.2,0c0.7-0.4,1.4-0.6,2.2-0.6
	c0.9,0,1.7-0.3,1.9-0.7c0.3-0.6,1.3-0.7,6.1-0.5c3.2,0.1,6,0.5,6.3,0.7c0.5,0.3,1.2,0.5,1.8,0.5c0.8,0,1.6,0.3,2.3,0.8
	c0.9,0.5,1.8,0.8,2.8,0.8c2.3,0,7.4-1.3,8.4-2.1c1.6-1.3,12.2-0.5,15.5,1.2c0.4,0.2,0.9,0.4,1.4,0.5c0.8,0,4.3,3.7,5,5.2
	c0.3,0.8,0.9,1.4,1.3,1.4s1.2,0.8,1.8,1.8s1.3,1.8,1.5,1.8c0.8-0.5,1.6-1.2,2.1-1.9c3.4-3.9,9-8.3,11-8.6c1.2-0.2,2.3-0.6,3.4-1.2
	c1.3-0.8,2.6-0.9,7.4-0.8c5.9,0.1,9.5,0.8,11.4,2.1c0.6,0.4,1.3,0.7,2,0.7c0.5,0,0.9,0.3,1.2,0.8c0.2,0.4,0.6,0.7,1,0.8
	c1.2,0.8,2.3,1.7,3.3,2.8c1.1,1.3,2.5,2.3,4,3.2c1.4,0.4,3.7-1.1,6.9-4.4c3-3,5.5-4.6,7.5-4.6c0.9,0,1.8-0.4,2.4-1
	c0.4-0.6,1.3-0.9,2-0.7c2.2,0.3,4.5,0.4,6.8,0.4c3.8,0,6,0.2,6.4,0.7c0.5,0.4,1.1,0.6,1.8,0.6c1,0.1,2,0.4,2.8,0.8
	c2.3,1.2,7.4,6.8,8,8.7c0.7,2.4-0.7,6.4-2.8,8.6c-0.8,0.7-1.4,1.6-1.7,2.6c0.4,1.2,1.2,2.4,2.1,3.3c2.8,3.4,4,7,4,12.1
	c0,3.2-0.3,4.6-1.1,6.3c-1.5,3-4.1,6.5-4.7,6.5c-0.9,0.4-1.7,1-2.3,1.8c-0.8,0.9-1.9,1.6-3,1.8c-0.7,0-1.3,0.2-1.8,0.5
	c-1.6,1.6-17.4,1.7-19.2,0.1c-1.1-0.6-2.2-0.9-3.4-1c-2.2-0.2-2.9-0.6-5.7-3.2c-1.8-1.7-3.7-3-4.2-3c-1.1,0.4-2.1,1-2.9,1.9
	c-3.3,3.3-5,4.5-6.4,4.6c-1.7,0.3-3.4,0.7-5,1.3c-2.5,1-5.2,1.3-7.9,1.1c-6-0.2-8.7-0.7-9-1.5c-0.2-0.4-0.9-0.7-1.7-0.7
	c-1.8,0-5-1.5-5-2.3c0-0.3-0.6-0.8-1.2-0.9c-0.9-0.4-1.8-1-2.3-1.8c-0.6-0.9-1.3-1.5-1.6-1.5c-0.5-0.1-1-0.4-1.4-0.8
	c-0.7-0.5-1.6-0.9-2.5-1.1c-1.6-0.3-1.6-0.3-1.6,1.7c0,1.6-0.4,2.5-2,4.3c-2.9,3.4-7.8,4.4-11.9,2.5c-2.8-1.2-4.9-3.3-5.2-5
	c-0.2-0.8-0.5-2.3-0.8-3.4s-0.7-6.3-1-11.5s-0.8-9.6-1.1-9.9c-0.5-0.5-4.4-0.6-4.9,0c-0.2,0.2-0.5,5.7-0.7,12.3l-0.3,12l-1.5,2
	c-2,2.9-5.4,4.5-8.9,4.3c-2.8-0.2-5.9-1.2-7.2-2.3c-1.1-0.9-3.1-5-2.8-5.6c0.2-0.3,0-1.3-0.4-2.2c-0.5-1.6-0.7-3.3-0.6-5
	c0-1.8,0-2.6-0.1-1.9c-0.4,2.5-1.2,1.5-1.2-1.6c0-1.9,0.2-3.1,0.6-3.1s0.5-0.5,0.2-1.4c-0.3-1.3-0.4-2.5-0.5-3.8
	c-0.1-2.3-1.4-4.9-2.7-5.3c-0.3-0.1-1,0.4-1.5,1.1c-0.8,1.2-0.9,2.8-1,11.1c-0.2,12.6-0.3,13.4-3.3,16.6c-1.3,1.4-2.8,2.6-3.2,2.6
	c-0.4-0.1-0.8,0.3-0.9,0.7c0,0,0,0,0,0c0,0.6-0.7,0.7-3.7,0.5c-3-0.1-5.9-1.3-8.1-3.5c-1.5-1-3.4-1-4.8,0.1
	c-2.9,2.6-10.5,4.3-13.3,2.8c-1.4-0.8-6.9-0.8-7.6-0.1c-0.6,0.6-4.5,1.5-7.1,1.6c-1.5,0.1-2,0.8-2.5,3c-0.3,1.7-0.2,1.9,1.2,2.4
	c0.9,0.3,1.5,1,1.8,1.9c0.2,0.7,0.6,1.2,1,1.2c1,0,2,4.1,1.6,6.5c-0.2,0.9-0.1,1.8,0.1,2.6c0.5,0.7,0.4,0.7,7.7-0.6
	c5.5-0.8,11-0.9,16.5-0.1c3.3,0.5,6.7,0.6,10.1,0.4c5.9-0.3,6.1-0.2,8.6,1.1l2.6,1.4l2-1.9c1.2-1.1,2.1-2.5,2.7-4.1
	c0.7-1.8,1.7-3.4,3.1-4.8l2.5-2.8l4.4-0.3c4.1-0.3,4.5-0.2,6.1,0.9c1,0.7,1.8,1.7,2.4,2.7c0.3,0.7,0.8,1.4,1.4,1.9
	c0.7,0.7,1.3,1.5,1.7,2.4c0.8,1.5,2,2.7,3.6,3.4c1.5,0.9,2.9,1.9,4.1,3.2c1.4,1.6,1.9,1.8,3.9,1.8c1,0.1,2.1-0.2,3-0.7
	c1.6-1.3,3.5-2.3,5.5-2.9c0.5-0.1,0.9-0.4,1.2-0.8c0.4-0.4,0.9-0.6,1.5-0.6c0.8,0.1,1.5,0,2.2-0.4c2-0.8,13.8-0.2,15.8,0.9
	c0.7,0.4,1.5,0.7,2.3,0.8c1,0.2,1.8,0.6,2.5,1.3c0.5,0.5,1.2,0.9,1.8,1.3c1,0.8,2,1.6,2.8,2.6c2.3,2.4,2.6,2.5,3.6,1.9
	c0.8-0.6,1.5-1.4,1.9-2.2c0.9-1.4,2-2.7,3.4-3.8c2.5-2.1,2.6-2.1,6.7-2.1c1.9,0,3.9,0.2,5.8,0.7c1.4,0.6,2,0.6,4.3-0.2
	c1.8-0.5,3.7-0.8,5.6-0.9c2.5-0.1,3.3,0.1,5,1.3c3.2,2.2,4.1,4.2,4.1,8.9c0,3.9,0,4.1-1.9,6.3c-1.1,1.3-2.4,2.4-3.7,3.5
	c-3.6,2.4-6.3,5.1-7,7c-0.5,1.2-0.8,4.9-0.9,9.5c-0.2,8.2-0.8,10.9-3.1,13.6c-0.6,0.5-1,1.2-1.3,1.9c0,1.2-6.3,2.2-9.9,1.6
	c-2.2-0.4-3-0.9-5.5-3.6c-1.6-1.7-3.4-3.1-3.9-3.1s-1.7,0.9-2.8,2c-0.7,0.9-1.6,1.6-2.6,2c-0.4,0-0.7,0.3-0.8,0.7c0,0,0,0,0,0
	c0,1.2-2.1,2.2-4.4,1.9c-1.3-0.2-2.6,0.1-3.8,0.7c-2.3,1.2-10.8,1.5-12.3,0.5c-0.9-0.5-1.9-0.7-2.9-0.7c-1.9-0.2-3.7-0.7-5.3-1.5
	c0-0.1,0.1-0.3,0.1-0.4c0.4-2.5-0.7-5.1-2.8-6.6c-0.9-0.6-1.7-1.2-2.5-1.9c-0.7-0.7-1.1-0.6-3.3,0.5c-1.1,0.4-2.1,1.1-2.8,2.1
	c0.8-1.7,0.4-3.4-1.5-5.3c-1.7-1.7-2-1.8-3.7-1.5c-2.8,0.6-4,0.5-5.4-0.5l-1.3-0.8v-23.4h8.8l1.7-1.9c2.2-2.5,2.2-4.4,0-6.9
	l-1.7-1.8h-8.9v-4.4c0-4.3,0-4.4-1.7-6.1c-1.5-1.5-2-1.7-4.4-1.7s-3,0.2-4.5,1.7c-1.8,1.8-1.8,1.8-1.7,6.1l0,4.3h-1.9
	c-1.5,0-2.3,0.4-3.8,1.9c-2.1,2.1-2.4,3.8-1,5.8c1.4,2,2.8,3,4.7,3h1.8v13.9c0,12.9,0,14.1,1,15.9c1.8,3.5,3.9,5,8.4,6.1
	c3.9,0.9,4.2,0.9,8,0c3.3-0.7,4.3-1.2,5.7-2.6c0.3-0.3,0.6-0.7,0.9-1.1c-0.1,0.3-0.3,0.6-0.4,0.9c-1,2.2-1,2.6-0.4,3.7
	c0.2,0.3,0.3,0.7,0.4,1c-1.2,0.7-2.6,1.1-3.9,1.4c-3.5,0.9-10,1.3-10.4,0.6c-0.2-0.3-1.1-0.5-2.1-0.5c-1.9,0-4.8-1.2-4.8-2
	c0-0.2-0.6-0.8-1.4-1.2c-1-0.6-1.9-1.5-2.4-2.5c-0.6-1-1.2-1.8-1.5-1.8s-0.9-0.7-1.2-1.6c-0.6-1.5-0.7-1.6-1.8-0.9
	c-0.7,0.6-1.3,1.4-1.5,2.3c-0.5,1.3-1.3,2.5-2.2,3.5c-0.7,0.7-1.3,1.5-1.8,2.3c0,1.2-7.5,1.8-12.5,1c-1.7-0.4-3.5-0.3-5.1,0.2
	c-0.9,0.3-1.8,0.5-2.7,0.4c-0.7-0.1-1.4,0.1-2,0.6c-1.6,1-6.5,0.7-12.1-0.8c-1.2-0.3-2.5-0.5-3.7-0.6c-1.2,0-1.8-0.2-1.9-0.9
	c-0.8-1.1-1.9-2-3.1-2.6c-1.7-1.1-3.1-2.4-4.3-4c-0.5-0.8-1.1-1.6-1.9-2.1c-0.3,0-0.5-0.4-0.5-0.9c-0.2-1.2-0.6-2.4-1.1-3.6
	c-1-2.4-1.3-2.7-2.6-2.7c-0.9,0-1.7,0.2-2.5,0.7c-1.1,0.8-2,3.1-1.6,4.1c0.3,0.7-1.7,4.9-2.3,4.9c-0.2,0-0.5,0.9-0.7,1.9
	c-0.3,1.4-0.9,2.3-2.6,3.8c-0.9,0.8-2,1.5-3.1,1.9c-0.7,0.1-1.3,0.3-1.9,0.6c-3,1.6-9.3,0.4-11.7-2.2s-4-5.2-4-6.4
	c0-0.7-0.3-1.3-0.8-1.7c-0.5-0.6-0.8-1.5-0.8-2.3c0-0.8-0.2-1.6-0.8-2.3c-0.4-0.4-0.7-0.9-0.8-1.4c0-1.4-2.1-5.2-2.9-5.2
	c-0.4,0-0.7-0.5-0.7-1c0-0.5-0.3-1.1-0.8-1.3c-1.2-0.5-2.3,0.8-2.3,2.8c-0.2,1.6-0.7,3.1-1.5,4.4c-0.9,1.4-1.4,3-1.5,4.7
	c0.1,0.8-0.1,1.7-0.5,2.4c-0.7,1-1.3,2-1.8,3.1c-1.7,3.7-3.3,5-7.5,6.4c-3.2,1.1-3.6,1.1-5.9,0.4c-1.3-0.4-3-0.9-3.7-1.1
	c-2.8-0.6-7.1-6.9-7.1-10.3c0-2.2-0.5-3.2-1.3-2.9c-0.5,0.2-0.8-0.2-1-1s-0.4-1.9-0.6-2.7s-0.5-2.3-0.6-3.1c-0.1-0.7-0.4-1.4-0.9-2
	c-1.4-1.4-2.2-3.4-2.1-5.4c0.2-1-0.1-2-0.7-2.9c-0.5-0.7-0.8-1.5-1-2.3c0-0.5-0.3-0.9-0.8-1.2c-0.5-0.1-0.8-1-0.8-2.2
	c0-2-1.2-5.2-2-5.2c-0.3,0-0.6-1.2-0.7-2.6s-0.6-2.8-0.9-2.9s-0.6-0.8-0.6-1.4c-0.1-0.9-0.3-1.8-0.7-2.6c-0.8-1.6-1.4-9.8-0.8-9.8
	c0.3,0,0.9-1,1.5-2.3c0.7-1.5,1.4-2.3,2-2.3c0.6-0.1,1.2-0.5,1.6-1c0.5-0.7,1.2-1,2.7-1.1c1,0,2-0.1,3-0.4c1.2-0.4,5.6,1.5,7,3.2
	c2.4,2.8,4,5.5,4.4,7.5c0.3,1.2,1,3.6,1.6,5.3c0.7,1.9,1.2,3.9,1.4,5.9c0.3,2.7,0.4,2.8,1.9,2.9c1.2,0.1,1.8-0.1,2.3-0.9
	c0.4-0.6,0.9-1,1.3-1s0.7-0.6,0.7-1.4c0.1-0.9,0.3-1.8,0.8-2.6c0.4-0.9,0.7-1.9,0.8-2.9c0-0.8,0.2-1.6,0.8-2.2
	c0.5-0.5,0.7-1.1,0.8-1.8c-0.1-0.6,0.2-1.1,0.7-1.4c0.4-0.1,0.8-1.3,1-2.6c0.3-1.9,0.8-2.6,3.2-4.7c1.2-1.1,2.5-2.1,3.9-2.9
	c1.5-0.6,7.1-0.9,7.4-0.4c0.9,0.7,1.8,1.3,2.8,1.9c2.7,1.5,4.3,3.1,4.3,4.2c0.2,0.7,0.5,1.4,1,2c0.5,0.7,0.9,1.6,1,2.4
	c0,1.2,1.3,4.1,2.1,4.6c0.4,0.9,0.5,1.8,0.5,2.8c0,1.2,0.2,2.4,0.8,3.4c0.4,0.5,0.7,1.1,0.8,1.7c0,0.4,0.7,1.1,1.6,1.5
	c1.4,0.6,1.7,0.6,2.6-0.3c1.1-1.1,2-4.5,1.6-5.9c-0.2-0.6,0-0.9,0.5-0.9c0.4,0,0.8-0.3,0.8-0.8c0.2-1,0.6-1.9,1.1-2.8
	c0.5-0.9,0.8-1.9,0.8-3c-0.2-0.7,0.5-2.1,2.4-4.6c3-4,5.1-5.9,6-5.4c0.6,0.2,1.2,0.2,1.8,0c0.9-0.3,1.2-0.5,0.8-1
	c-0.4-0.6-0.7-1.3-0.8-2c-0.5-1.9-2.1-3.5-3.3-3.2c-0.6,0.2-1.4-0.2-2.4-1.2c-0.9-0.9-1.9-1.6-3-2.2c-1.2-0.7-2.3-1.6-3.3-2.6
	c-2.7-2.8-4.6-2.4-5.4,1c-0.5,2-3.3,4.7-5.8,5.7c-4.8,1.6-9.1,0.4-12.3-3.8c-2.3-2.9-2.5-4.3-2.9-18.2c-0.2-7.6-0.3-8.2-1.3-9
	s-1.2-0.9-3.1,0.1s-2.5,1.7-1.5,2.3c0.8,0.5,0.6,1.3-0.2,1.3s-0.8,0.5-1,19c0,0.9-0.2,1.7-0.6,2.5c-0.4,0.3-0.6,0.8-0.7,1.3
	c0,1.1-2.7,3.6-4.2,4c-0.8,0.2-1.4,0.6-1.4,0.8s-1.6,0.5-3.7,0.5c-3.5,0-3.8-0.1-6.4-2c-1.5-1.2-2.7-2.3-2.7-2.6
	c-0.3-0.9-0.6-1.8-1.1-2.6c-1.1-2-1.1-2.9-1.3-19.5c-0.1-17.1-0.4-21.4-1.2-21.9c-0.2-0.1-1.2,0.2-2.2,0.7c-1.3,0.7-2.2,0.9-3,0.6
	c-1.8-0.6-4.1,0.2-6.6,2.4l-2.2,2l-0.1,17c0,11.6-0.2,17.7-0.6,19.1c-1.2,3.8-4.2,6.2-8.8,6.7c-4,0.5-5.9-0.1-8.6-2.9s-3.1-4-3.5-11
	c-0.2-4-0.2-5.7,0-10.4v-3.9c-0.1-0.9-0.1-2.7-0.1-4.1c0-1.3-0.2-2.5-0.6-3.7c-0.5-0.6-0.5-1.5,0-2.1c0.7-1.2,0.8-3.1,0.1-3.1
	c-0.2,0-0.7-1-1-2.2c-0.7-2.8-2-4-4.2-3.9c-5.1,0-9.4-2.1-11.1-5.6c-0.9-1.7-1.2-1.9-2.6-1.7c-1,0-1.9,0.7-2.2,1.7
	c-0.3,0.8-0.8,1.4-1.1,1.2s-0.8,1.1-1.2,2.9c-0.4,1.7-0.7,3.7-0.9,4.3c-0.1,0.8-0.5,1.1-1,0.9s-0.8,0.3-1.1,1.6
	c-0.5,2.8-1.1,5.5-1.9,8.2c-0.5,1.5-1.2,4.5-1.6,6.5c-0.2,1.5-0.6,2.9-1.1,4.3c-0.6,0.9-0.7,1.7-1,6c-0.1,2.1-0.5,4.1-1.3,6
	c-0.7,1.6-1.1,3.3-1.3,5.1c-0.6,6.7-0.6,43.3-0.1,47c0.3,2.1,0.7,5.1,0.8,6.6s0.6,3,1,3.2s0.7,1.5,0.7,4.4c0,2.6,0.2,4.2,0.8,4.9
	c0.5,0.7,0.7,1.5,0.8,2.3c0,0.9,0.2,1.7,0.5,2.5c0.3,0.7,0.9,3,1.4,5.2c0.3,1.7,0.8,3.4,1.3,5c0.5,1.4,0.8,2.9,0.9,4.3
	c0.3,2.7,0.5,3.4,1.2,3.3c0.9-0.1,1.5,1.9,2.2,6.6c0.1,1,0.4,2,1,2.8c0.9,0.5,2.3,4,2.3,5.5c0,0.6,0.2,1.2,0.7,1.6
	c0.7,0.4,1.7,2.2,3.9,6.8c0.8,1.6,1.7,3.1,2.6,4.6c0.9,1.4,1.7,2.9,2.4,4.4c0.5,1.1,1.1,2,2,2.8c0.5,0.3,0.9,0.8,1.1,1.4
	c0,1.9,8.7,12.6,15,18.5c1.1,1,3.1,2.8,4.3,4c1.3,1.2,2.8,2.4,4.3,3.4c1.2,0.8,2.4,1.8,3.5,2.8c0.8,0.8,1.8,1.4,2.9,1.7
	c1.4,0.5,2.6,1.3,3.6,2.3c1.2,1.1,2.6,2,3.3,2s0.9,0.2,0.8,0.7c-0.4,0.9,0.9,1.4,2.4,1c0.9-0.1,1.7,0.2,2.4,0.8
	c0.7,0.6,1.6,1.1,2.5,1.3c2.5,0.5,7.9,2.3,8.5,2.8c1.6,0.5,3.2,0.8,4.8,0.8c2.9,0.2,4.6,0.6,5.2,1.1c1.3,1.2,19,1.2,20.4,0
	c1.3-0.6,2.8-0.9,4.3-0.9c1.6,0,3.1-0.3,4.6-0.8c1.9-0.8,3.9-1.4,5.9-1.8c2.4-0.6,4.8-1.3,7.1-2.2c1.5-0.6,3.1-0.9,4.7-1
	c1.8,0,2.6-0.2,3.1-1c1.1-1.5,3.7-2.6,6.2-2.6c1.8,0,2.2-0.1,2-0.7c-0.3-0.8,1.7-1.6,5.6-2.1c2.3-0.4,4.5-1,6.7-1.8
	c3-1,4.7-1.4,6.2-1.2c1.1,0.2,2.3,0.1,3.3-0.5c1.6-0.7,3.2-1.1,4.9-1.2c1.6-0.1,3.2-0.4,4.7-1c0.7-0.4,1.1-0.4,1.4,0.2
	s1,0.6,2.1,0.5c2-0.3,10,0.5,11.4,1.1c1.4,0.5,2.9,0.8,4.3,1c4.4,0.7,8.3,1.6,8.9,2.1c0.8,0.4,1.7,0.5,2.6,0.5c1-0.1,2,0.2,2.8,0.8
	c0.5,0.5,1.1,0.7,1.8,0.8c0.6,0,1.1,0.3,1.5,0.8c0.2,0.5,1,0.8,2.5,0.8c2.4,0,5.2,1.2,6.3,2.6c0.5,0.7,1.4,0.9,3.1,0.9
	c1.5,0,2.9,0.4,4.3,1c2,0.8,4,1.5,6.1,1.8c2.1,0.4,4.2,1,6.3,1.7c1.8,0.7,3.7,1,5.5,1c3.6,0,4.6,0.3,4.1,1.1
	c-0.4,0.6-0.1,0.6,9.2,0.8c8.2,0.2,10.4,0,10.4-1.1c0-0.6,0.7-0.8,2.7-0.8c1.4,0,3.7-0.1,5-0.1c1.2,0.1,2.3-0.3,3.3-0.9
	c1.3-0.8,2.8-1.3,4.3-1.6c3.7-0.9,6.9-2,7.4-2.5c0.5-0.3,1-0.4,1.5-0.4c1.7,0,2.7-0.5,2.4-1.3c-0.2-0.4,0.2-0.9,0.9-1.2
	c1.7-0.8,3.3-1.8,4.7-3c0.7-0.6,1.5-0.9,2.4-1.1c0.8,0,6.1-3.8,7.4-5.4c0.6-0.6,1.4-1.1,2.1-1.6c1.8-1.1,13.9-13.5,13.9-14.3
	c0.4-0.8,1-1.6,1.7-2.1c0.9-0.9,1.7-2,2.3-3.2c0.3-0.7,0.8-1.3,1.5-1.7c0.9-0.6,1.5-1.5,1.8-2.5c0.5-1.2,1.1-2.3,1.8-3.4
	c2.9-4.3,3.6-5.5,3.6-6.2c0.1-0.5,0.5-1,1-1.1c0.7-0.2,1-0.7,1-1.8c0.1-1.2,0.6-2.3,1.3-3.3c1.7-3.3,3.1-6.7,4.2-10.2
	c0.2-0.5,0.5-0.9,0.9-0.9c0.7,0,2-3.9,1.6-4.6c-0.1-0.3,0-0.6,0.3-0.8c0,0,0,0,0,0c0.4-0.4,0.5-0.9,0.5-1.4c0.1-0.9,0.5-1.7,1-2.4
	c0.7-0.7,1-1.8,0.7-2.8c-0.2-0.8,0-1.7,0.6-2.4c0.5-0.5,0.7-1.2,0.8-1.9c-0.2-1.7,0-2.2,0.8-2.2c0.4,0,0.7-0.3,0.8-0.7
	c0-0.3,0.3-2.2,0.6-4.2s0.5-4.5,0.6-5.6c0.1-2.4,0.3-3,1.4-3c0.6,0,0.8-0.9,0.9-4.3c0.1-2.4,0.3-4.8,0.7-7.2
	c0.2-1.6,0.9-5.9,1.3-9.7c1-9.2,0.8-37.2-0.5-44.1c-0.5-3.4-0.8-6.9-0.9-10.4c-0.3-6.8-0.6-7.8-1.6-6.9c-0.6,0.5-0.7,0.2-0.7-1.7
	c0.1-0.9-0.1-1.9-0.5-2.8c-0.5-1.3-0.7-2.6-0.7-4c-0.2-2.4-0.5-3.7-1-4.1c-1.3-0.9-1.9-2.4-2.3-5.8c0-1.3-0.4-2.6-1-3.7
	c-0.5-0.6-0.7-1.3-0.7-2c0-0.8-0.2-1.6-0.5-1.7c-0.4-0.4-0.5-0.9-0.5-1.5c-0.1-0.8-0.4-1.5-1-2.1c-0.5-0.4-0.9-1-1-1.6
	c-0.2-0.9-0.5-1.8-1-2.6c-0.6-1-1.4-2.8-1.8-3.9s-1.3-2.9-1.8-4c-0.5-0.8-0.8-1.7-1-2.6c-0.2-0.7-0.7-1.3-1.3-1.7
	c-0.7-0.6-1.2-1.5-1.3-2.5c0-0.8-0.3-1.6-0.8-2.2c-1.3-1.4-4.3-6.7-4.3-7.4c-0.2-0.7-0.6-1.3-1.2-1.8c-0.8-0.7-1.4-1.5-1.8-2.5
	c-0.3-0.7-0.7-1.3-1.3-1.7c-0.8-0.7-1.4-1.5-1.8-2.5c-0.8-1.5-1.7-2.9-2.8-4.2c-0.8-0.9-1.5-1.8-2-2.9c-0.2-0.5-0.5-0.9-0.7-0.9
	c-1.3-1.2-2.5-2.5-3.5-4c-1.7-2.1-4.6-5.5-6.5-7.4c-1.3-1.2-2.4-2.5-3.4-3.9c0-0.2-0.3-0.6-0.8-0.9c-2.3-1.8-4.4-3.7-6.5-5.8
	c-3.1-2.9-6.3-5.9-7.1-6.6c-0.8-0.7-2.2-2-3.2-2.9c-1.3-1.1-2.6-2.1-4.1-3c-1.1-0.6-2-1.3-2.8-2.3c-0.3-0.6-0.8-0.9-1.5-1
	c-0.8-0.1-1.4-0.6-1.8-1.3c-0.5-0.7-1.1-1.3-1.4-1.3c-1.1-0.5-2.2-1.2-3.1-2c-0.9-0.8-2-1.5-3.1-2c-1.1-0.5-2.1-1.1-3-1.8
	c-0.9-0.7-2-1.3-3.1-1.8c-0.8-0.4-1.4-0.9-2-1.5c-0.6-0.7-1.3-1.2-2.1-1.5c-1.3,0-3.7-1.5-3.7-2.3c0-0.4-0.5-0.8-1-0.8
	c-2-0.6-3.9-1.4-5.8-2.5c-2.1-1.2-4.3-2.2-6.6-3.1c-0.9-0.3-1.7-0.7-2.4-1.4c-0.4-0.4-1-0.7-1.6-0.7c-1.7,0-6-1.7-6-2.4
	c0-0.4-0.5-0.7-1-0.7c-0.5,0-0.9-0.1-1.3-0.5c-0.7-0.4-1.4-0.7-2.2-0.8c-5.5-0.8-5.8-0.9-6.1-2.1c-0.2-1.1-1.3-1.9-2.4-1.7
	c-0.2,0-0.3,0.1-0.5,0.1c-0.9,0.1-1.9-0.2-2.7-0.7c-0.8-0.6-1.7-1-2.7-1.1c-0.6,0-1.9-1.1-3.2-2.4l-2.1-2.5l0.2-3.5
	c0-0.5,0.1-0.9,0.1-1.3l2.8,0.3c-0.1,0.3-0.1,0.7-0.1,1c0,1.9,0.2,2.4,1.7,3.5c0.9,0.7,1.9,1.2,3,1.3c0.8,0,1.6,0.3,2.2,0.8
	c0.7,0.5,1.5,0.7,2.3,0.8c0.8,0,1.6,0.3,2.3,0.8c0.7,0.5,1.4,0.7,2.2,0.8c0.8,0,1.6,0.3,2.2,0.8c0.6,0.4,1.4,0.7,2.1,0.8
	c0.7,0,1.3,0.3,1.7,0.8c0.4,0.4,1,0.7,1.6,0.8c0.8,0.1,1.6,0.3,2.3,0.7c0.8,0.4,2.2,1.1,3.2,1.5c3.7,1.6,5.9,2.6,6.6,3.1
	c0.4,0.2,1.1,0.6,1.5,0.7c0.5,0.2,1,0.5,1.5,0.8c0.5,0.3,1,0.6,1.5,0.8c0.5,0.2,1,0.4,1.5,0.7c0.4,0.3,1.9,1.1,3.3,1.8
	s2.9,1.5,3.3,1.7c0.5,0.3,1,0.5,1.5,0.8c0.8,0.4,1.6,0.8,2.3,1.3c0.9,0.6,2,1.2,2.5,1.5s1.7,1,2.5,1.5s1.9,1.2,2.3,1.4
	c0.9,0.5,1.8,1,2.5,1.6c1,0.7,2.2,1.5,2.7,1.8c5.8,3.5,17.2,12.3,24.3,18.9c6.7,6.1,17.8,17.8,21.2,22.4c0.8,1.1,1.6,2.1,2.5,3.1
	c0.7,0.8,1.3,1.7,1.9,2.6c0.6,1,1.3,1.9,2,2.8c0.7,0.7,3,4,4.5,6.3c3.2,5,6.1,10,6.1,10.4c0,0.3,0.2,0.5,0.5,0.6
	c0.2,0,0.7,0.6,1,1.4c0.3,0.8,0.7,1.7,1.1,2.4c0.9,1.6,1.8,3.2,2.5,4.8c0.6,1.3,1.3,2.6,1.6,3.1c0.3,0.5,0.6,1,0.8,1.5
	c0.2,0.4,0.6,1.4,1,2.3c1.9,4.3,2.5,5.7,3.2,7c0.4,0.7,0.6,1.5,0.7,2.3c0.1,0.7,0.3,1.3,0.8,1.9c0.4,0.6,0.7,1.3,0.8,2
	c0.1,0.7,0.3,1.4,0.8,2c0.5,0.7,0.7,1.5,0.8,2.3c0.1,0.9,0.3,1.8,0.8,2.6c0.4,0.7,0.6,1.5,0.8,2.3c0.1,0.9,0.3,1.8,0.8,2.6
	c0.4,0.9,0.7,2,0.8,3c0.1,1,0.3,1.9,0.8,2.8c0.4,0.9,0.7,1.9,0.8,2.9c0.1,1.2,0.3,2.3,0.8,3.4c0.5,1.2,0.7,2.5,0.8,3.8
	c0.1,1.5,0.3,3,0.8,4.4c0.4,1.5,0.7,3,0.8,4.6c0.1,1.9,0.4,3.8,0.8,5.7c0.5,2.9,0.8,5.9,0.8,8.9
	C415.3,209.4,415.5,213.8,415.6,216.1z M388.6,191.5c0.7-0.8,0.9-1.9,0.9-5.9c0-4.5-0.1-5.1-1.3-7c-0.8-1.2-1.7-2.2-2.8-3.1
	c-2.1-1.5-5.9-3.2-7.1-3.2c-0.8-0.1-1.5-0.4-2.2-0.8c-0.9-0.5-2-0.7-3-0.8c-1.1,0-2.1-0.3-3.1-0.8c-0.7-0.4-1.5-0.7-2.3-0.8
	c-2.5,0-3.7-3.6-1.7-5.2c1.4-1.1,8.4-1.2,9.9-0.1c0.6,0.4,1.4,0.7,2.1,0.8c0.7,0,1.3,0.3,1.7,0.8c0.8,1,4.9,1.5,6.4,0.9
	c1-0.7,1.8-1.6,2.2-2.7c1-2.1,1-2.1,0-4c-1.5-3-4.8-4.8-11-6.3c-5.5-1.3-12.2-0.8-15.5,1.3c-0.4,0.2-1.2,0.7-1.8,0.9
	c-2,1.2-3.8,2.9-5,4.9c-1.6,3.1-2.4,5.4-2.4,6.8c0,4.2,3.7,10.9,6.4,11.5c0.7,0.2,1.2,0.6,1.2,0.8s0.5,0.5,1.2,0.5
	c0.8,0.1,1.7,0.4,2.4,0.8c1,0.5,2,0.7,3.1,0.8c1.3,0.1,2.5,0.3,3.7,0.8c1,0.4,2.1,0.7,3.2,0.8c2.8,0,5.3,2.8,4.2,4.6
	c-1.8,3-9.1,3.3-14.3,0.7c-0.7-0.4-1.4-0.6-2.1-0.7c-0.5-0.1-0.9-0.4-1.3-0.8c-1.1-1.3-3.7-0.9-5.8,0.8c-1.7,1.4-1.9,1.8-1.9,4
	c0,3.3,1.7,4.8,8.2,7.2c4.6,1.6,16.8,1.8,19.1,0.2c0.5-0.4,1.1-0.6,1.8-0.7c0.9,0,6.1-4.4,6.1-5.2
	C387.8,192.6,388.1,192,388.6,191.5L388.6,191.5z M354.3,231.8c0-2.8-0.2-3.5-1.2-4.6c-3.4-3.6-9.6-1.7-12.1,3.8
	c-1.2,2.6-2.2,2.6-2.2,0c0.1-1.4-0.5-2.7-1.4-3.6c-1.2-1.3-1.9-1.6-4-1.8c-2.9-0.2-4.1,0.2-5.8,2l-1.2,1.3l-0.1,19.8v19.8l1.2,1.6
	c2.4,3.1,7.5,3.3,10.4,0.2c1.1-1.1,1.1-1.8,1.5-11.2c0.4-11.3,0.6-12.9,2.2-15.4c1.9-3,5.6-5.6,8-5.6c1.1-0.2,2.2-0.8,3-1.5
	C354.2,235.2,354.3,235,354.3,231.8z M349.6,186.1c1.9,0.2,3.7-1.3,3.8-3.2c0-0.3,0-0.5,0-0.8c-0.2-1.7-0.3-1.9-1.8-2
	c-0.7-0.1-1.4,0-2,0.5c-0.9,1.3-1.5,2.7-1.7,4.3C348,185.9,348.2,186.1,349.6,186.1z M344.5,180.5c2.3-1.5,3.5-4.1,3.4-6.8
	c-0.5-4.5-2.1-8.7-4.7-12.4c-2.7-3.7-3-3.9-8.4-6.8c-1.1-0.5-2.2-0.9-3.4-1.3c-3.3-1-9.6-1.1-11.4-0.1c-0.6,0.4-1.3,0.6-2,0.8
	c-2.5,0.1-10.2,5.9-11.4,8.7c-0.2,0.4-0.9,1.8-1.6,3c-0.6,0.9-1,1.9-1.3,3c-0.2,1.4-0.5,2.8-0.9,4.2c-0.8,3-0.8,3.8-0.2,6.4
	c0.4,1.6,0.8,3.6,0.9,4.5c0.7,2.4,1.7,4.7,3,6.8c0.9,1.6,5.7,6.1,6.9,6.4c0.5,0.2,1,0.6,1,0.8s0.3,0.5,0.8,0.5
	c0.7,0.1,1.3,0.3,1.9,0.6c1.7,0.6,3.4,1.1,5.2,1.3c7.9,1.2,16-1,20.7-5.7c1.7-1.6,2-2.3,2-4.1c0-3.2-1.7-4.6-5.3-4.6
	c-1.7-0.2-3.5,0.4-4.7,1.6c-0.9,0.8-2,1.3-3.1,1.6c-0.9,0.1-1.7,0.3-2.5,0.6c-2.3,0.9-7.8-0.4-9.9-2.3s-3.5-4-3.5-5.2
	c0-0.9,0.8-0.9,13.4-0.8C342.1,181.6,342.7,181.6,344.5,180.5z M318.8,251.4c1.5-1.6,1.7-2.2,1.7-4.7c0-6.4-4.8-15.4-9.6-18
	c-2.5-1.6-5.3-2.6-8.2-3.2c-1.6-0.3-3.2-0.5-4.8-0.6c-2.7,0.1-5.5,0.7-8,1.7c-0.6,0.4-1.4,0.6-2.1,0.7c-0.5,0.1-0.9,0.3-1.1,0.8
	c-0.2,0.4-0.6,0.7-1,0.8c-0.9,0-5.8,4.7-6.4,6.3c-0.3,0.6-0.7,1.5-1,1.9c-1.9,3.7-2.9,7.8-3.1,12c0.2,3.1,0.8,6.2,1.8,9.2
	c0.4,0.8,0.8,1.9,1,2.3c1.8,4.5,9.6,11.2,13,11.2c0.9,0.1,1.8,0.4,2.7,0.8c3.7,1,7.7,1,11.4,0c0.8-0.4,1.7-0.6,2.6-0.8
	c1.4,0,5-2,7.4-4.1c2.2-1.9,2.3-2.2,2.3-4.6c0-2.1-0.2-2.8-1.4-3.8c-1.5-1.3-5.4-1.8-6-0.7c-0.4,0.4-0.9,0.7-1.4,1
	c-0.6,0.3-1.3,0.6-1.9,0.9c-6.4,3.8-13.3,2.3-17.1-3.6c-2.3-3.6-2.8-3.5,13.1-3.5H317L318.8,251.4z M296.2,196.3l-0.2-16.7
	c-0.2-13.3-0.3-16.9-0.9-17.8c-0.4-0.5-0.6-1.1-0.7-1.8c0-1-3.1-4.1-4.8-5.1c-3.7-1.9-5.5-2.4-8.6-2.4s-8,1.4-9.2,2.5
	c-0.3,0.3-0.6,0.5-1,0.6c-1,0.6-1.9,1.5-2.7,2.4c-2.1,2.3-2.3,2.4-2.8,1.4c-1-1.6-4.7-5.4-5.4-5.4c-0.8-0.1-1.7-0.4-2.4-0.8
	c-2-1-7.1-0.8-10,0.4c-2.5,0.9-5.9,3.7-6.3,5c-0.5,1.6-1.6,1.2-2.2-0.9c-0.4-2-1.7-3.6-3.6-4.3c-2.1-1.1-3-1.1-5.4,0.3
	c-3.8,2.1-3.9,2.4-3.8,23c0,19.6,0.1,20.2,2.8,22.3c1.1,0.9,2.1,1.2,4.1,1.2c2.3,0,2.9-0.2,4.5-1.8l1.8-1.8v-12.8
	c0-11.9,0-12.9,1.1-14.8c1.2-2.6,4-4.3,6.9-4.1c2.7-0.2,5.2,1.3,6.3,3.7c0.9,1.7,1,2.9,1,14.7V196l1.8,2c1.7,1.9,2,2,4.8,2
	c3.4,0,4.1-0.4,6-3.4c1.2-1.9,1.3-2.1,1.2-12.8c-0.2-16.1-0.3-14.7,2.1-17.1c2-1.9,2.3-2.1,5-2.1c2.4,0,3.2,0.2,4.7,1.5
	c0.9,0.8,1.7,1.8,2.2,2.9c0.2,0.8,0.6,7.3,0.7,14.6l0.3,13.1l1.7,1.6c1.5,1.3,2.1,1.6,4.5,1.6c2.5,0,2.9-0.2,4.7-1.9L296.2,196.3z
	 M270,254.2c0.3-0.2,0.4-2.8,0.3-5.2c0-1.5-0.2-3-0.5-4.4c-0.4-1-1.1-1.1-2.4-0.3c-0.9,0.5-1.1,1.6-0.6,2.5c0.1,0.2,0.3,0.4,0.5,0.5
	c1,0.9,1,2.5,0.1,3.5c0,0-0.1,0.1-0.1,0.1c-0.4,0.4-0.7,0.9-0.8,1.5C266.5,253.2,269.2,254.6,270,254.2z M246.1,263.3
	c0-0.4-0.2-0.8-0.5-1.1c-0.2-0.1-0.5,0.1-0.5,0.7s0.3,1.1,0.5,1.1S246.1,263.7,246.1,263.3L246.1,263.3z M238.2,267.7
	c0.3-1,0.4-10.4,0.2-20.8l-0.3-18.9l-1.4-1.3c-1-0.8-2.1-1.5-3.4-1.9c-2.9-1-5.6,0.5-7.2,3.8l-1.1,2.4l-1.3-1.6
	c-1.4-1.8-3.2-2.9-7-4.3c-3-1.1-8.5-1.1-10.7-0.1c-0.8,0.4-1.6,0.6-2.4,0.8c-1.1,0-5.9,2.9-7.3,4.3c-2,2.1-3.6,4.4-4.9,6.9
	c-2.5,5.4-2.5,5.6-2.5,11.9c0,4.6,0.2,6.5,0.8,7.2c0.4,0.6,0.7,1.2,0.8,1.9c0.4,1.8,1.2,3.4,2.3,4.8c0.3,0.4,1.1,1.3,1.8,2.2
	c2.4,2.9,7.8,6.3,11.2,6.8c4.9,0.9,6.9,0.9,9.6,0.3c3-0.7,8-3.6,8.5-4.8s1.6-0.8,2.6,1.4c1.3,2.8,2.8,3.6,6.3,3.3
	C236,271.7,237.6,270.5,238.2,267.7L238.2,267.7z M218.5,177.2c0.1-12.1,0-20-0.4-20.8c-0.7-1.7-4.1-3.9-6.2-3.9
	c-2.8,0.1-5.2,2-5.9,4.7c-0.2,0.8-0.5,1.4-0.7,1.4c-1-0.6-1.9-1.3-2.7-2.2c-1.3-1.2-2.7-2.1-4.3-2.9c-2.9-1.1-11.3-1.3-12.9-0.3
	c-0.7,0.4-1.5,0.7-2.3,0.8c-0.7,0-1.3,0.3-1.7,0.8c-0.3,0.4-0.8,0.7-1.3,0.8c-1.2,0-7.1,6.2-8.2,8.7c-0.5,1-0.9,2-1.1,3.1
	c-0.1,0.7-0.4,1.3-0.8,1.9c-0.6,0.9-0.7,2.3-0.6,7.6c0.2,7.7,1,10.3,4.7,15.2c1.7,2.3,6.5,6.4,7.4,6.4c0.7,0.1,1.3,0.4,1.9,0.7
	c1.7,0.6,3.4,1,5.2,1.2c6,0.9,11.4-0.7,14.7-4.2c0.6-0.7,1.3-1.3,2.1-1.8c0.2,0,0.5,0.6,0.6,1.4c0.3,1.1,0.9,2.1,1.6,3
	c1.2,1.4,1.6,1.5,4.4,1.5s3.1-0.2,4.6-1.7l1.7-1.6L218.5,177.2z M191.3,219.3c1.6-2.2-1-6.5-4.6-7.7c-4.7-1.5-8.4,2-9.9,9.3
	c-0.1,0.9-0.5,1.8-1,2.6c-0.4,0.5-0.6,1.2-0.6,1.9c-0.1,0.9-0.3,1.8-0.8,2.6c-0.4,0.8-0.7,1.7-0.8,2.6c0,0.8-0.3,1.6-0.8,2.2
	c-0.5,0.7-0.7,1.5-0.8,2.3c0,0.8-0.3,1.6-0.7,2.3c-0.5,0.8-0.8,1.6-0.9,2.5c-0.2,1-0.5,2.1-0.8,3.1c-0.8,2.4-1.5,4.9-1.9,7.5
	c-0.5,2.9-1.5,2.4-2.5-1c-0.5-1.6-1.1-3.6-1.3-4.4c-0.4-1.1-0.7-2.2-1-3.3c-0.6-2.4-1.4-4.7-2.4-7c-0.4-0.8-0.6-1.7-0.7-2.6
	c-0.1-0.8-0.3-1.6-0.7-2.4c-1-2.1-1.8-4.3-2.2-6.5c-0.1-0.9-0.5-1.8-0.9-2.6c-0.4-0.6-0.7-1.4-0.7-2.2c0-2.3-2.3-5.6-4.9-6.9
	c-1-0.5-2-0.7-3.1-0.8c-3.1,0.1-7.2,3.5-7.3,6.1c0,0.8-0.3,1.6-0.8,2.2c-0.5,0.7-0.7,1.5-0.8,2.3c0,0.8-0.3,1.6-0.8,2.3
	c-0.5,0.7-0.7,1.5-0.8,2.3c0,0.8-0.3,1.6-0.8,2.3c-0.5,0.7-0.7,1.5-0.8,2.3c0,0.8-0.3,1.6-0.8,2.3c-0.5,0.7-0.7,1.4-0.8,2.2
	c-0.1,0.9-0.3,1.8-0.8,2.5c-0.4,0.8-0.7,1.7-0.8,2.5c0,0.8-0.3,1.6-0.8,2.2c-0.4,0.6-0.7,1.3-0.8,2c0,0.9-0.2,1.7-0.5,2.5
	c-0.3,1.1-0.6,2.3-0.8,3.5c-0.5,2.9-1.5,2.4-2.5-1c-0.5-1.6-1.1-3.6-1.4-4.4c-0.4-1.1-0.6-2.2-0.8-3.3c-0.1-1-0.4-1.9-0.9-2.8
	c-0.4-0.7-0.7-1.5-0.7-2.3c0-0.7-0.2-1.3-0.6-1.9c-0.5-0.8-0.9-1.6-1-2.6c-0.5-2.4-1.3-4.7-2.3-6.9c-0.4-0.9-0.7-1.8-0.7-2.8
	c0-0.8-0.3-1.6-0.8-2.3c-0.5-0.7-0.7-1.5-0.8-2.3c-0.2-1.2-0.7-2.3-1.4-3.4c-2.7-3.9-7.3-4.2-10.9-0.9c-1.3,1.2-1.4,1.7-1.4,4.4
	c-0.1,1.4,0.2,2.8,0.8,4.1c0.4,0.6,0.7,1.3,0.8,2c0.1,0.7,0.3,1.4,0.8,2c0.4,0.6,0.7,1.3,0.8,2.1c0.1,0.8,0.3,1.5,0.8,2.1
	c0.5,0.7,0.7,1.4,0.8,2.2c0,0.8,0.3,1.6,0.8,2.2c0.4,0.6,0.7,1.3,0.8,2.1c0.1,0.8,0.3,1.5,0.8,2.1c0.5,0.7,0.7,1.4,0.8,2.2
	s0.3,1.6,0.8,2.2c0.4,0.6,0.7,1.3,0.8,2.1c0.1,0.8,0.3,1.5,0.8,2.1c0.5,0.7,0.7,1.5,0.8,2.3c0,0.7,0.3,1.4,0.8,2
	c0.5,0.5,0.8,1.3,0.8,2c0,0.8,0.3,1.6,0.8,2.3c0.4,0.6,0.7,1.3,0.8,2.1c0.1,0.8,0.3,1.5,0.8,2.1c0.5,0.7,0.7,1.4,0.8,2.2
	c0,0.8,0.3,1.6,0.8,2.2c0.4,0.6,0.7,1.3,0.8,2c0,1.3,2.5,4.6,4.2,5.6c3.4,2,8.6,0.4,10.2-3.1c0.5-1.1,1.3-2.6,1.7-3.4
	c0.4-0.8,0.6-1.7,0.7-2.6c0.1-0.8,0.3-1.5,0.8-2.1c0.5-0.7,0.7-1.5,0.8-2.3c0-0.8,0.3-1.6,0.8-2.3c0.5-0.7,0.7-1.4,0.8-2.3
	c0-0.8,0.3-1.6,0.8-2.2c0.4-0.6,0.7-1.3,0.8-2.1c0.1-0.7,0.3-1.5,0.8-2.1c0.4-0.6,0.7-1.3,0.8-2.1c0.1-1,0.3-1.9,0.7-2.8
	c1-2.4,1.7-4.9,2.1-7.4c0.2-1.2,0.6-2.1,1-2.1c0.7,0,2.3,3.7,2.3,5.3c0.1,0.8,0.4,1.6,0.8,2.3c0.4,0.8,0.7,1.7,0.8,2.5
	c0,0.8,0.3,1.6,0.8,2.2c0.5,0.7,0.7,1.5,0.8,2.3c0,0.7,0.2,1.3,0.6,1.9c0.5,0.7,0.8,1.4,1,2.2c0.6,2.3,1.3,4.6,2.3,6.7
	c0.4,0.8,0.6,1.7,0.7,2.5c0.1,0.8,0.3,1.5,0.8,2.1c0.4,0.6,0.7,1.4,0.8,2.2c0,1.7,2.2,4.9,4.2,6.2c2.5,1.5,5.6,1.4,8-0.2
	c2.5-1.6,3.4-3,4.6-7.8c0.2-0.8,0.5-1.6,1-2.2c0.4-0.5,0.6-1.2,0.6-1.9c0-0.8,0.3-1.6,0.8-2.2c0.4-0.6,0.7-1.3,0.8-2.1
	c0.1-0.7,0.3-1.4,0.7-2c0.4-0.7,0.8-1.5,1-2.3c0.5-2.2,1.3-4.3,2.1-6.4c0.9-2.2,1.7-4.5,2.3-6.8c0.2-0.8,0.5-1.6,1-2.2
	c0.4-0.5,0.6-1,0.6-1.6c0.1-0.7,0.3-1.4,0.7-2c0.4-0.7,0.8-1.5,1-2.3c0.5-2.1,1.3-4.2,2.2-6.2c0.4-0.7,0.6-1.5,0.7-2.3
	C190.6,220.7,190.9,219.9,191.3,219.3L191.3,219.3z M163,180.7c0-11.7-0.2-14.8-0.8-16.4c-0.4-0.8-0.6-1.7-0.8-2.6
	c0-1.1-3.9-6.2-5.1-6.5c-0.6-0.1-1-0.6-1-0.8s-0.5-0.5-1.1-0.5c-0.9-0.1-1.7-0.4-2.4-0.8c-1.4-0.5-2.9-0.8-4.4-0.8
	c-4.1,0-7.3,1.4-10.5,4.6c-1.4,1.4-2.7,2.4-2.9,2.2s-0.3-3.9-0.2-8.3l0.3-8l-2.2-2.2c-1.9-1.9-2.4-2.1-4.5-2.1c-2.8,0-4.3,0.9-6,3.6
	l-1.2,1.9v25.1c0,22.8,0.1,25.2,0.9,26.9c1.3,2.9,2.8,3.7,6.3,3.7c2.8,0,3.1-0.1,4.7-2l1.8-2v-13c0-14.3,0.1-14.7,3.5-17.3
	c2-1.5,6.3-1.5,8.4-0.1c3.3,2.2,3.4,2.5,3.4,16.7c0,13.9,0.1,14.5,3,16.7c1.7,1.3,6.1,1.3,7.9,0C163,196.9,163,196.4,163,180.7
	L163,180.7z M111.7,151.4c2-1.2,4-4,4-5.8c0-1.6-2.3-4.9-3.9-5.5c-1.4-0.5-42.7-0.6-44-0.1s-2.9,2.6-3.6,4.2
	c-0.5,1.2-0.4,1.8,0.5,3.5c0.7,1.3,1.7,2.5,2.9,3.4c1.8,1.4,1.8,1.4,8.8,1.2l7-0.1l-0.1,21.2C83,196.7,83,196.8,86,199.1
	c2.1,1.5,6.4,1.3,8.2-0.5c0.9-0.9,1.6-2,1.9-3.3c0.3-1.2,0.4-9.3,0.2-22c-0.2-11.1-0.2-20.4-0.1-20.8c0.2-0.6,1.5-0.6,6.9-0.3
	C109.4,152.5,109.9,152.5,111.7,151.4z"/>
<path class="st0" d="M383.1,307.8c1,3.9,1.1,6.7,0.3,7c-0.5,0.2-0.7,0.7-0.8,1.2c0,3.7-11.6,16.7-20.3,22.8
	c-0.9,0.7-1.9,1.3-2.9,1.7c-1,0.4-2,1-2.8,1.7c-1,0.8-2.2,1.5-3.4,2c-0.7,0.2-1.2,0.6-1.2,0.9s-0.6,0.5-1.2,0.5
	c-1.7,0-2.9,0.5-2.9,1.3s-3.3,2.5-4.4,2s-2.8,0.1-2.8,1c0,0.5-0.6,0.7-1.7,0.7c-0.7-0.1-1.4,0.1-2,0.5c-1.2,0.4-2.4,0.7-3.7,0.8
	c-1.5,0.1-3,0.4-4.5,1c-1,0.7-3.9,1.1-11,1.7c-9,0.8-20.2-0.1-24.2-1.9c-1.6-0.5-3.2-0.8-4.8-1c-6.6-1-7.4-1.1-8.2-1.8
	c-1.2-0.6-2.5-0.9-3.9-1c-3.5-0.4-4.5-0.9-4.5-2.1c0-0.7-0.6-1-2.7-1.2c-1.6-0.2-3.1-0.7-4.6-1.3c-1.5-0.7-3.1-1.3-4.7-1.7
	c-1.4-0.3-2.8-0.7-4.1-1.3c-1.4-0.5-2.8-0.9-4.3-1c-1.4-0.1-2.9-0.5-4.2-1.1c-0.7-0.4-1.5-0.7-2.3-0.7c-0.9-0.1-1.7-0.3-2.5-0.7
	c-1.1-0.5-4.4-0.7-14.8-0.7c-14,0-18.5,0.5-21.1,2.2c-1.1,0.5-2.2,0.8-3.4,0.9c-1.1,0-2.1,0.2-3,0.8c-1.5,0.8-3.1,1.3-4.8,1.5
	c-1.9,0.3-3.8,0.9-5.6,1.7c-1.1,0.6-2.3,1.1-3.6,1.3c-3.7,0.6-4.2,0.8-4.2,1.5c0,1.2-2.8,2.4-4.6,2c-1.1-0.3-2.2,0-3.1,0.8
	c-0.8,0.6-1.8,0.9-2.8,1.1c-0.9,0.1-1.8,0.2-2.7,0.6c-1.3,0.5-2.7,0.7-4.1,0.7c-1.4,0-2.7,0.4-3.9,0.9c-3.2,2.1-33.2,2-35.7-0.2
	c-1.3-0.6-2.7-1-4.2-1.1c-6.4-0.9-6.9-1-7.1-1.7c-0.1-0.5-1-0.7-2.2-0.7c-0.9,0-1.8-0.2-2.5-0.8c-0.4-0.5-1-0.7-1.6-0.8
	c-0.7,0-0.9-0.3-0.7-0.8s-0.2-0.9-1.1-1.1c-2.1-0.5-8.8-3.8-8.8-4.3c0-0.2-0.8-0.8-1.6-1.2c-2.8-1.3-4.2-2.2-5-3.2
	c-0.8-0.8-1.7-1.5-2.6-2.1c-1.8-1.3-3.4-2.8-4.9-4.5c-1.7-1.9-4.3-4.7-5.8-6.3c-1.4-1.4-2.5-2.9-3.4-4.6c-0.3-0.9-0.8-1.6-1.5-2.2
	c-0.4-0.2-0.7-0.7-0.7-1.2c0-0.6-0.3-1.2-0.8-1.6c-0.6-0.7-0.8-1.7-0.8-2.6c0-1.4,0.2-2,0.8-2c0.3,0,0.6-0.2,0.6-0.6l2.9,0.1
	c-0.4,1.5-0.4,3.4,0.2,3.6c0.7,0.6,1.2,1.3,1.7,2.1c5.5,8,19.3,21,25.5,24c0.8,0.4,1.5,0.8,2.2,1.3c0.9,0.6,1.9,1.1,2.3,1.3
	c0.5,0.2,1,0.5,1.5,0.8c0.5,0.3,1,0.6,1.5,0.8c0.7,0.3,1.5,0.6,2.2,1c0.7,0.3,1.4,0.6,2.1,0.7c0.7,0.1,1.5,0.4,2.1,0.7
	c1.3,0.7,3.7,1.4,9.3,2.9c6.7,1.7,30.1,1.9,34.8,0.2c1.3-0.4,2.6-0.7,3.9-0.7c1.1,0,2.1-0.3,3.1-0.8c0.9-0.4,1.8-0.7,2.8-0.8
	c1,0,1.9-0.3,2.8-0.8c0.8-0.4,1.6-0.7,2.5-0.8c0.8,0,1.6-0.3,2.2-0.8c0.6-0.4,1.4-0.7,2.1-0.8c0.7,0,1.3-0.3,1.7-0.8
	c0.5-0.5,1.1-0.7,1.7-0.8c0.7-0.1,1.4-0.3,2-0.8c0.6-0.4,1.2-0.7,1.9-0.8c0.8-0.1,1.6-0.3,2.4-0.7c2.2-1,4.4-1.8,6.8-2.3
	c1-0.2,2-0.6,2.9-1c0.8-0.4,1.7-0.6,2.5-0.6c0.9-0.1,1.9-0.3,2.7-0.8c1-0.5,2-0.7,3.1-0.8c1.5-0.1,2.9-0.4,4.3-0.8
	c3.8-1.2,28.5-1.2,31.8,0c1.3,0.5,2.7,0.7,4.1,0.8c1.1,0,2.1,0.3,3.1,0.8c1,0.5,2,0.7,3.1,0.8c1,0,1.9,0.3,2.8,0.8
	c0.7,0.5,1.6,0.7,2.5,0.8c0.9,0,1.8,0.3,2.5,0.8c0.7,0.5,1.5,0.7,2.4,0.8c0.7,0,1.4,0.3,2,0.8c0.5,0.5,1.1,0.7,1.7,0.8
	c0.8,0.1,1.5,0.3,2.1,0.8c0.6,0.4,1.3,0.7,2,0.8c0.7,0.1,1.4,0.3,2,0.8c0.6,0.4,1.2,0.7,1.9,0.8c0.8,0.1,1.6,0.3,2.3,0.7
	c2.2,1.1,4.6,1.8,7,2.3c1.1,0.2,2.1,0.5,3.2,1c0.9,0.4,1.8,0.6,2.8,0.6c1.2,0,2.3,0.2,3.5,0.6c3.2,0.6,6.4,1,9.7,1.2
	c8.5,0.6,21.7,0,24.6-1.2c1-0.3,2-0.5,3-0.6c1-0.1,2-0.3,2.9-0.8c0.8-0.4,1.6-0.7,2.5-0.8c0.8,0,1.6-0.3,2.2-0.8
	c0.6-0.4,1.4-0.7,2.1-0.8c0.7,0,1.3-0.3,1.7-0.8c0.3-0.4,0.7-0.7,1.2-0.8c1.9-0.6,3.7-1.4,5.2-2.6c0.3-0.3,0.8-0.5,1.2-0.5
	c0.4,0,0.8-0.1,1.1-0.4c0.6-0.6,1.4-1.2,2.2-1.6c6.5-3.9,16.2-12.7,21-19.2c1.1-1.4,2.5-3.1,3.1-3.8c3.3-3.4,2.5-8.5-1.3-9.3
	l-0.5-0.1l0.2-2.8C380.3,303.7,382.4,305.2,383.1,307.8z"/>
<path class="st0" d="M376.9,303.3l-0.2,2.8c-1.7-0.2-3.1,0.5-6.3,3c-1.1,0.9-2.2,1.7-3.5,2.3c-0.3,0-0.6,0.1-0.7,0.4
	c-1.1,1.1-2.4,2-3.8,2.7c-0.9,0.4-1.8,0.9-2.6,1.5c-0.9,0.7-1.8,1.2-2.9,1.5c-0.5,0.1-1,0.4-1.3,0.8c-0.4,0.4-0.9,0.7-1.5,0.8
	c-0.6,0-1.1,0.3-1.5,0.8c-0.4,0.4-0.9,0.7-1.5,0.8c-0.6,0-1.1,0.3-1.5,0.8c-0.5,0.5-1.1,0.7-1.7,0.8c-0.6,0-1.2,0.2-1.7,0.6
	c-0.7,0.5-1.4,0.8-2.2,1c-1,0.2-2.4,0.7-3.3,0.9c-6.8,2.3-10.7,2.9-19.9,2.9c-7.6,0-14.1-0.6-17-1.5c-1.2-0.4-2.5-0.6-3.8-0.7
	c-1-0.1-2-0.3-2.8-0.8c-0.9-0.5-1.8-0.7-2.8-0.8c-0.9,0-1.7-0.3-2.5-0.8c-0.7-0.5-1.5-0.7-2.3-0.8c-0.8,0-1.6-0.3-2.3-0.8
	c-0.6-0.4-1.2-0.7-1.9-0.8c-0.9-0.1-1.8-0.4-2.6-0.8c-3.9-1.9-4.6-2.2-5.3-2.2c-0.7-0.1-1.4-0.3-2.1-0.7c-2.2-1.1-4.5-1.8-6.9-2.4
	c-0.9-0.1-1.8-0.5-2.5-1c-0.6-0.4-1.2-0.6-1.9-0.6c-1-0.1-1.9-0.3-2.8-0.8c-0.9-0.4-1.9-0.7-2.9-0.8c-1.2-0.1-2.3-0.3-3.4-0.8
	c-1.1-0.4-2.3-0.7-3.5-0.8c-1.2-0.1-2.4-0.3-3.6-0.7c-5.5-1.9-36-2.1-39.6-0.2c-1.3,0.5-2.7,0.8-4.1,0.9c-3.2,0.4-6.3,1.1-9.3,2.1
	c-1.1,0.4-2.2,0.6-3.3,0.8c-1,0.1-1.9,0.4-2.8,0.9c-0.7,0.4-1.5,0.7-2.3,0.7c-0.8,0-1.6,0.3-2.2,0.8c-0.6,0.4-1.3,0.7-2.1,0.8
	s-1.5,0.3-2.1,0.8c-0.6,0.4-1.3,0.7-2,0.8c-0.7,0.1-1.4,0.3-2,0.8c-0.6,0.4-1.3,0.7-2,0.8c-0.7,0.1-1.4,0.3-2,0.8
	c-0.6,0.4-1.3,0.7-2,0.8c-0.7,0.1-1.4,0.3-2,0.8c-0.7,0.5-1.5,0.7-2.3,0.8c-0.8,0-1.6,0.3-2.3,0.8c-0.8,0.5-1.6,0.7-2.5,0.8
	c-1,0.1-2,0.3-2.9,0.8c-0.9,0.4-1.9,0.7-2.9,0.8c-1.3,0.1-2.6,0.3-3.8,0.7c-6.1,1.9-28.2,2-31.8,0.2c-1-0.4-2-0.7-3.1-0.9
	c-2.5-0.5-5-1.3-7.4-2.4c-1-0.4-2.6-1.1-3.6-1.5s-2.1-1-2.5-1.2s-1.9-1-3.3-1.7s-3.2-1.7-4.1-2.3c-0.9-0.6-1.8-1.1-2.8-1.5
	c-0.6-0.2-1.1-0.5-1.5-0.9c-1-0.9-2.2-1.6-3.4-2.1c-0.7-0.3-1.2-0.7-1.2-1s-0.4-0.5-0.8-0.5c-0.5,0-0.9-0.3-1.1-0.8
	c-0.2-0.4-0.5-0.8-0.8-0.8c-0.7-0.2-1.3-0.6-1.9-1c-2.6-1.8-4.8-1.7-6.8,0.5c-0.3,0.5-0.6,1-0.7,1.6l-2.9-0.1
	c0.1-0.3,0.1-0.6,0.1-0.9c0-1.7,2.7-4.5,4.9-5.1c1.8-0.5,4.8-0.2,7.9,0.8c4.3,1.4,8.7,4.2,8.7,5.6c0,0.4,0.6,0.8,1.4,0.9
	c0.7,0.2,1.5,0.5,2.1,0.8c0.4,0.2,3.1,1.6,6,3s5.2,2.8,5.2,3c0,0.5,4.4,2,5.9,2c0.7,0,1.3,0.2,1.5,0.5c0.3,0.3,0.8,0.5,1.2,0.5
	c1.4,0.2,2.8,0.6,4.2,1.1c2.9,0.9,4.5,1.1,14.3,1.1c6.1,0,11.3-0.2,11.6-0.4c1.3-0.4,2.6-0.6,4-0.8c1.4-0.1,2.7-0.5,4-1
	c1.4-0.5,2.8-0.9,4.3-1.1c4.9-0.8,6.2-1.2,5.8-2.2c-0.3-0.6,0-0.8,0.9-0.8c3.1-0.7,6.1-1.7,9-2.8c4.3-1.5,8.6-2.8,9.5-2.8
	c2.2,0,3.3-0.5,3-1.3s0.5-1.1,6.5-1.8c4.1-0.5,5.4-0.8,5.9-1.5c0.8-1.1,2.6-1.4,9.8-1.8c2-0.1,4.1-0.3,6.1-0.6
	c0.4-0.2,4.1-0.4,8.1-0.5s7.7-0.4,8-0.5c1.4,0,2.9,0.1,4.2,0.5c2.8,0.5,5.7,0.7,8.6,0.8c2.7-0.1,5.4,0.2,8,1
	c1.6,0.6,3.3,1.1,3.5,1.2s1.1,0.4,1.8,0.7c1.6,0.5,3.3,0.7,5,0.9c4.1,0.4,4.9,0.7,4.9,1.8c0,0.6,0.8,0.9,2.5,1
	c1.5,0.2,2.9,0.5,4.3,0.9c7.4,2.5,9.5,3.3,10,3.7c1.1,0.5,2.3,0.8,3.5,0.8c2.1,0.2,2.8,0.5,2.6,1c-0.4,1,2.2,2,6.1,2.4
	c1.1,0,2.3,0.3,3.3,0.8c1,0.5,2.1,0.8,3.3,0.8c1.4,0.2,2.8,0.4,4.2,0.8c0.6,0.3,5,0.5,9.7,0.5c14.1,0.2,15.1,0.1,16.2-0.7
	c0.8-0.5,1.7-0.8,2.7-0.8c1,0,1.9-0.3,2.8-0.7c1.3-0.6,2.7-1.1,4.1-1.3c1.9-0.4,3.1-0.9,3.4-1.6c0.3-0.5,0.9-0.9,1.5-1
	c1.3,0,11.7-5.5,13.5-7.1c2.3-2,7.2-5.1,9.1-5.7c1.6-0.3,3.2-0.5,4.9-0.5C376,303.2,376.5,303.2,376.9,303.3z"/>
<path class="st0" d="M353.5,182.1c0.3,1.9-1.1,3.7-3,4c-0.3,0-0.5,0-0.8,0c-1.4,0-1.7-0.2-1.7-1.2c0.2-1.6,0.7-3,1.7-4.3
	c0.6-0.5,1.3-0.7,2-0.5C353.2,180.2,353.3,180.4,353.5,182.1z"/>
<path class="st0" d="M329.3,164c3.3,1.9,6.8,7.2,5.4,8.1c-0.8,0.5-18.4,0.3-18.9-0.2c-1-1,2.4-5.7,5.7-7.9
	C323.2,162.9,327.3,162.9,329.3,164z"/>
<path class="st0" d="M315.2,408.8c3.6,1.6,5.2,5.8,3.6,9.3c-0.6,1.3-1.5,2.4-2.8,3.1c-1.1,0.7-2.1,1.4-3.1,2.3
	c-1,0.8-2.3,1.4-3.6,1.7c-3.3,0.5-5.9,1.4-6.8,2.5c-0.5,0.6-1.2,0.8-1.9,0.6c-0.7-0.1-1.4,0-2,0.2c-0.6,0.3-1.5,0.7-2.1,1
	c-0.9,0.3-1.8,0.5-2.8,0.5c-1.1,0-1.8,0.3-2,0.8s-1.1,0.8-3,0.8s-3,0.2-3.4,0.8c-0.4,0.5-1,0.7-1.6,0.5c-1.3-0.5-3,0.2-3,1.1
	c0,0.7-1.1,1-3.9,0.8c-1.2,0-2.4,0.1-3.6,0.4c-1.1,0.3-3.1,0.7-4.4,0.9c-1.8,0.2-2.3,0.5-2.1,1.1s-0.6,0.7-4.7,0.7
	c-4.5,0-11.6,0.9-12.7,1.7c-0.8,0.5-13.5,1.1-22.1,1.1c-9.7,0.1-21.1-0.6-22.9-1.3c-2-0.8-7-1.3-13.9-1.5c-1.9,0-3-0.2-3-0.7
	c0-0.9-1.2-1.2-4.1-1.2c-1,0.1-1.9-0.1-2.8-0.5c-0.1-0.3-1.8-0.5-3.6-0.5c-2.5,0-3.3-0.2-3.3-0.7c0-0.4-0.6-0.8-1.4-1
	s-2.7-0.6-4.2-0.9s-3.9-1-5.2-1.4c-1.6-0.5-3.2-0.8-4.8-0.9c-1.3,0-2.4-0.4-2.5-0.7s-0.8-0.6-1.6-0.6c-0.7,0-1.4-0.3-2-0.8
	c-0.4-0.4-0.9-0.7-1.5-0.8c-0.7-0.1-1.3-0.3-1.9-0.8c-0.6-0.4-1.3-0.7-2.1-0.8c-1.4,0-4.6-1.5-6.1-2.8c-0.8-0.7-1.6-1.3-2.4-1.9
	c-1.9-1.4-2.9-3.8-2.4-6.2l2.8,0.3c-0.1,0.5,0,1,0.1,1.5c0.4,1.2,3.9,3.5,5.2,3.5c0.7,0.1,1.4,0.3,1.9,0.8c0.7,0.5,1.4,0.7,2.2,0.8
	s1.6,0.3,2.2,0.8c0.6,0.4,1.3,0.7,2.1,0.8c0.8,0.1,1.5,0.3,2.1,0.8c0.7,0.5,1.6,0.7,2.5,0.8c0.9,0,1.7,0.3,2.5,0.8
	c0.7,0.5,1.5,0.7,2.3,0.8c0.9,0.1,1.8,0.3,2.6,0.8c0.9,0.4,1.8,0.7,2.8,0.8c1,0.1,2.1,0.3,3,0.8c0.9,0.4,1.9,0.7,2.9,0.8
	c1.2,0.1,2.3,0.3,3.4,0.8c1.1,0.4,2.3,0.7,3.6,0.8c1.2,0.1,2.4,0.3,3.6,0.8c1.3,0.5,2.6,0.7,4,0.8c1.5,0.1,2.9,0.3,4.3,0.8
	c1.6,0.5,3.2,0.7,4.8,0.8c1.9,0.1,3.8,0.3,5.6,0.7c3.3,0.8,16.5,1.6,25.2,1.6s22-0.8,25.2-1.6c1.9-0.4,3.7-0.7,5.7-0.7
	c1.6,0,3.2-0.3,4.8-0.8c1.4-0.5,2.9-0.7,4.4-0.8c1.1,0,2.3-0.2,3.3-0.6c1.3-0.5,2.6-0.8,3.9-1c3.1-0.4,6.1-1.1,9-2.1
	c1.1-0.4,2.2-0.6,3.3-0.8c1.2-0.2,2.3-0.5,3.4-1c0.9-0.4,1.8-0.6,2.8-0.7c0.8-0.1,1.6-0.3,2.2-0.8c0.7-0.5,1.6-0.7,2.5-0.8
	c0.9,0,1.8-0.3,2.5-0.8c0.6-0.4,1.3-0.7,2.1-0.8c0.8-0.1,1.5-0.3,2.1-0.8c0.7-0.5,1.4-0.7,2.2-0.8c0.8,0,1.6-0.3,2.2-0.8
	c0.6-0.4,1.2-0.7,1.9-0.8c1-0.2,1.9-0.6,2.8-1.1c3.2-1.9,3.6-4,1.4-6.6c-0.9-1.1-1.2-1.5-2.3-1.5l0.6-2.7
	C314.1,408.3,314.6,408.5,315.2,408.8z"/>
<path class="st0" d="M313.3,408.1l-0.6,2.7c-0.8,0-1.6,0.1-2.4,0.2c-5.1,0.6-29.2,0.5-34.7-0.2c-3.7-0.4-7.4-1.1-11-2.3
	c-0.8-0.2-2.3-0.7-3.3-0.9c-2.3-0.6-4.5-1.3-6.7-2.1c-1.2-0.4-2.5-0.7-3.7-0.9c-1.1-0.2-2.1-0.5-3.2-1c-0.9-0.4-1.9-0.6-2.8-0.6
	c-1.3-0.1-2.6-0.3-3.9-0.8c-4.2-1.5-24.5-1.3-28.2,0.1c-1.1,0.4-2.2,0.6-3.3,0.6c-1.1,0-2.2,0.3-3.2,0.8c-0.8,0.4-1.8,0.7-2.7,0.8
	c-0.9,0-1.8,0.2-2.5,0.6c-0.9,0.4-1.9,0.8-2.9,1c-1.2,0.3-2.4,0.6-3.6,1c-1,0.4-2.4,0.8-3.3,1.1c-1.2,0.4-2.4,0.7-3.6,0.9
	c-1.2,0.2-2.4,0.5-3.6,0.9c-2,0.5-4,0.8-6.1,1c-5.6,0.5-29.3,0.5-33.9,0c-2.8-0.3-3.5-0.2-4.4,0.6c-0.9,0.9-1.5,2-1.6,3.3l-2.8-0.3
	c0.3-2.7,2-5,4.3-6.2c2.4-1.2,2.8-1.2,9-0.9c5.6,0.3,6.5,0.2,6.8-0.5s1-0.8,3.6-0.6c1.3,0,2.6,0.2,3.9,0.5c0.6,0.2,1.4,0.2,2,0
	c1.7-0.3,3.5-0.5,5.2-0.6c2.1-0.1,4.1-0.2,4.3-0.2c0.9,0,1.9,0.1,2.8,0.3c1.7,0.2,3.4,0,5-0.8c1.9-0.8,2.9-1,3.4-0.6
	c0.8,0.6,2.3,0.1,2.3-0.7c0-0.6,1.4-0.9,9.4-2.3c1.1-0.1,2.1-0.5,3.1-1c0.5-0.3,1.1-0.5,1.7-0.5c0.8-0.1,1.6-0.3,2.3-0.6
	c1.2-0.5,2.5-0.7,3.8-0.7c1.8,0,2.9-0.3,3.2-0.8c0.5-0.5,1.1-0.8,1.8-0.8c6.4-0.2,6.7-0.2,6.5-0.9c-0.4-1,12.8-0.9,13.5,0.1
	c0.4,0.5,1.7,0.8,4.8,0.8c2.9,0,4.6,0.4,5.2,0.8c0.6,0.5,1.9,0.7,3.9,0.6s3.1,0,3.3,0.6s1.3,0.9,2.5,1.1c0.9,0,1.8,0.3,2.5,0.8
	c0.8,0.4,1.7,0.5,2.6,0.5c1.4,0,2.8,0.3,4.1,0.8c1,0.4,2.1,0.7,3.3,0.8c1,0,1.5,0.2,1.5,0.8s0.6,0.8,2.2,0.8
	c0.9-0.1,1.8,0.1,2.6,0.4c0.3,0.4,0.6,0.4,9.5,0.9c2.3,0.1,4.6,0.3,6.9,0.6c1,0.1,1.7,0.1,1.9-0.2c0.5-0.8,2.1-0.7,2.8,0.2
	c0.4,0.4,0.8,0.7,1.4,0.8c0.6-0.1,1.1-0.4,1.5-0.8c0.6-0.8,1.7-1,2.5-0.5c0.2,0.1,0.3,0.3,0.5,0.5c1.1,0.9,2.6,1,3.8,0.1
	c0.5-0.5,0.8-0.5,1.2,0c0.6,0.4,1.3,0.4,1.9,0.2C307.1,406.8,310.6,407.3,313.3,408.1z"/>
<path class="st0" d="M307.2,242.4c0.6,0.6,0.7,1.6,0.1,2.2c-0.1,0.1-0.2,0.2-0.3,0.2c-1.5,0.1-3.1,0-4.6-0.2c-2.9-0.3-5.7-0.3-8.6,0
	c-1.7,0.2-3.4,0.3-5,0.2c-0.7-0.4-0.5-2.5,0.4-3.2c0.4-0.3,0.6-0.7,0.8-1.1c0-0.8,3.5-3.7,5.2-4.3c2-0.8,4.1-0.8,6.1,0
	c2.2,0.8,5.5,3.7,5.5,5C306.7,241.6,306.9,242.1,307.2,242.4z"/>
<path class="st0" d="M282.9,267.3c2.1,1.5,3.1,4.1,2.8,6.6c0,0.1-0.1,0.2-0.1,0.4c-0.7-0.3-1.2-0.6-1.3-0.9c-0.4-0.8-6-3.3-6.9-3
	c-0.8,0.4-1.5,1.1-1.9,1.9c-0.5,0.8-1.1,1.5-1.9,2c-0.1-0.3-0.3-0.7-0.4-1c-0.6-1.1-0.6-1.5,0.4-3.7c0.2-0.3,0.3-0.6,0.4-0.9
	c0.2-0.2,0.3-0.4,0.4-0.7c0.7-1,1.7-1.7,2.8-2.1c2.2-1.1,2.7-1.2,3.3-0.5C281.1,266.1,282,266.7,282.9,267.3z"/>
<path class="st0" d="M285.5,274.3c-0.5,1.2-1.3,2.3-2.2,3.2c-1.9,1.9-2.1,2-4.5,1.8c-2.8-0.3-5-1.9-5-3.7c-0.1-0.4-0.2-0.9-0.3-1.3
	c0.8-0.5,1.4-1.2,1.9-2c0.5-0.8,1.1-1.4,1.9-1.9c0.9-0.3,6.5,2.2,6.9,3C284.3,273.6,284.8,274,285.5,274.3z"/>
<path class="st0" d="M270.3,248.9c0.1,2.5,0,5-0.3,5.2c-0.8,0.5-3.5-1-3.5-1.9c0.1-0.6,0.3-1.1,0.8-1.5c0.5-0.5,0.7-1.1,0.8-1.8
	L270.3,248.9z"/>
<path class="st0" d="M270.3,248.9L268,249c0-0.7-0.3-1.3-0.8-1.8c-0.8-0.6-1-1.7-0.4-2.5c0.1-0.2,0.3-0.4,0.5-0.5
	c1.3-0.8,2-0.7,2.4,0.3C270.1,246,270.3,247.4,270.3,248.9z"/>
<path class="st0" d="M245.2,0.5c0.2,0.2-2.5,0.3-6.6,0.4c-0.1-0.1-0.1-0.2-0.1-0.3c0-0.2,0.6-0.3,2-0.3h0.2
	C242.1,0.2,243.7,0.3,245.2,0.5z"/>
<path class="st0" d="M240.4,0.3c-1.3,0.1-2,0.2-2,0.3c0,0.1,0.1,0.2,0.1,0.3c-9.6,0.3-26.7,0.6-31,1.1c-6.6,0.7-10.7,1.5-11.7,2.3
	c-2.2,0.6-4.6,1-6.9,1.2c-2.8,0.3-5.6,0.9-8.4,1.6c-3,1.1-6.1,1.8-9.2,2.1c-1.2,0.1-2.4,0.5-3.5,1.1c-0.5,0.4-1.2,0.6-1.9,0.6
	c-0.7-0.1-1.3,0.1-1.8,0.6c-1,0.6-2,0.9-3.2,1c-3.6,0.4-5.2,0.9-7.1,2.2c-1,0.6-2,1-3.2,1.2c-0.8,0-1.5,0.2-1.7,0.5
	c-0.5,0.4-1.1,0.6-1.7,0.5c-0.8,0-1.5,0.3-2.1,0.8c-0.7,0.6-1.6,0.9-2.5,1.1c-2.5,0.5-4.6,1.6-4.5,2.4c0.1,0.4-0.6,0.7-1.7,0.8
	c-0.9,0.1-1.8,0.4-2.5,0.9c-0.9,0.6-1.9,1.1-3,1.5c-1.2,0.4-2.4,1-3.5,1.8c-0.6,0.5-1.2,0.8-1.9,1c-1.6,0-4.4,1.2-4.4,1.8
	c0,0.4-1,1.2-2.1,1.7c-1.1,0.4-2,1.1-2.8,2c-0.8,0.8-1.8,1.3-2.9,1.5c-1,0.2-1.9,0.7-2.6,1.4c-0.2,0.5-0.7,0.7-1.2,0.8
	c-0.6,0-1.2,0.3-1.6,0.8c-0.3,0.4-0.7,0.6-1.1,0.8c-0.9,0.4-1.6,0.9-2.3,1.6c-1,0.9-2.1,1.4-2.5,1.3s-1.3,0.5-2.1,1.4
	c-0.9,1-1.9,1.9-3,2.5c-0.9,0.5-1.7,1.1-1.7,1.3s-0.6,0.6-1.3,0.8c-0.6,0.1-1.2,0.4-1.7,0.9c-1.7,1.8-3.7,3.3-5.9,4.4
	c-0.7,0.3-1.3,0.9-1.6,1.6c-0.5,0.9-1.3,1.7-2.2,2.2c-1.1,0.8-2.2,1.7-3.1,2.7c-1.2,1.2-2.5,2.4-3.8,3.5c-1.5,1.1-2.8,2.4-4,3.8
	c-1.5,1.7-3.2,3.4-4.9,4.8c-1.3,1-2.5,2.1-3.5,3.3c-1.1,1.5-2.3,3-3.6,4.3c-1.5,1.6-2.9,3.3-4.2,5.1c-0.3,0.7-0.8,1.2-1.1,1.2
	c-0.7,0-3.3,3-6,7.1c-1.1,1.6-2.2,3.2-3.4,4.6c-0.6,0.7-1.2,1.5-1.5,2.3c-0.1,0.4-0.4,0.8-0.8,0.9c-0.4,0.2-0.7,0.6-0.8,1.1
	c0,0.4-0.2,0.8-0.5,0.8s-0.5,0.4-0.5,0.9c-0.3,1-0.8,1.8-1.6,2.4c-0.8,0.8-1.5,1.8-1.8,2.9c-0.2,0.8-0.7,1.6-1.4,2.1
	c-0.6,0.4-2.3,3.2-3.8,6.2c-1.7,3.5-3,5.4-3.4,5.2c-0.7-0.3-1.2,0.8-1.2,2.4c0,1.3-1.7,5.1-3.1,6.9c-0.6,0.8-0.9,1.7-1,2.6
	c0,1-0.2,1.5-0.8,1.5s-0.8,0.6-0.8,1.8s-0.2,1.8-0.8,1.8c-0.8,0-1.3,0.9-2.4,4.6c-0.4,1.4-1,2.6-1.8,3.8c-0.8,1.3-1.3,2.9-1.5,4.4
	c-0.2,1.6-0.6,3-0.8,3c-0.5,0-1.6,1.9-1.8,3.3c-0.1,0.6-0.3,2-0.5,3.2c-0.1,1-0.5,1.9-1,2.8c-0.5,0.6-0.8,1.3-0.7,2.1
	c0,0.9-0.3,1.8-0.7,2.6c-1,1.5-1.5,5.8-0.8,6.2s0.6,1.3-0.3,1.2c-1.1-0.2-2.1,3.3-3,10.4c-0.4,3-1,6-1.7,8.9c-0.7,2.3-1.2,4.6-1.5,7
	c-0.2,1.9-0.8,5.6-1.1,8c-0.2,1.4-0.5,2.9-0.9,4.3c0-2.8-0.1-5.6-0.4-8.4c-0.1,0-0.1,1.9-0.1,4.9c0-1.3-0.1-2.8-0.1-4.4
	c-0.1-6.2,0.4-12.3,1.6-18.3c0.3-1.5,0.7-4.2,0.9-5.9c0.2-1.4,0.5-2.8,1-4.2c0.4-0.8,0.6-1.7,0.6-2.6c0-1,0.2-2,0.6-3
	c0.5-1.1,0.8-2.3,1-3.5c0.2-1.2,0.5-2.4,0.9-3.6c0.3-0.9,0.8-2.3,1.1-3.3s0.8-2.6,1-3.7c0.2-0.9,0.5-1.8,1-2.6
	c0.4-0.6,0.6-1.2,0.6-1.9c0-0.8,0.3-1.6,0.8-2.3c0.4-0.6,0.7-1.3,0.8-2c0.1-0.7,0.3-1.4,0.8-2c0.4-0.5,0.7-1.2,0.8-1.9
	c0.1-0.8,0.3-1.6,0.7-2.3c0.4-0.8,1.1-2.1,1.5-3.1c0.4-0.8,0.7-1.7,0.9-2.6c0.1-0.6,0.3-1.1,0.8-1.5c0.4-0.4,0.7-0.8,0.8-1.4
	c0.1-0.7,0.3-1.4,0.7-2.1c0.4-0.7,0.7-1.4,1-2.1c0.2-0.5,0.5-1,0.8-1.5c0.3-0.4,0.9-1.8,1.5-3.1s1.3-2.7,1.6-3.2
	c1.3-2.3,1.6-2.8,2.8-5.2c0.7-1.4,1.5-2.8,2.3-4.1c0.6-0.9,1.2-2,1.5-2.6s1-1.7,1.5-2.6s1.2-1.9,1.4-2.3c0.5-0.9,1-1.8,1.7-2.7
	c0.6-0.7,1.1-1.4,1.4-2.2c0.4-0.8,0.9-1.6,1.5-2.3c0.6-0.7,1.1-1.4,1.5-2.2c0-0.4,7.2-10,8.6-11.5c0.5-0.5,1.4-1.6,2.1-2.6
	s1.7-2.2,2.3-2.8s2.4-2.7,4-4.6c4-4.5,13.9-14.4,18.3-18.3c1.9-1.6,3.9-3.4,4.3-3.8s1.8-1.5,3.1-2.5c1-0.7,1.9-1.5,2.8-2.3
	c3.6-3,7.4-5.8,11.3-8.4c0.8-0.4,1.5-1,2.2-1.5c0.7-0.6,1.5-1.1,2.3-1.5c0.8-0.4,1.6-0.9,2.2-1.4c0.8-0.7,1.7-1.3,2.6-1.8
	c0.8-0.4,1.6-0.9,2.3-1.4c0.9-0.6,2-1.2,2.5-1.5s1.7-1,2.5-1.5s2.7-1.6,4.1-2.3c2.4-1.2,2.9-1.5,5.2-2.8c1.3-0.7,4.8-2.4,5.7-2.8
	c0.5-0.2,1-0.5,1.5-0.8c2.4-1.3,4.1-2.1,4.8-2.1c0.5-0.1,1-0.3,1.4-0.8c0.5-0.5,1.1-0.7,1.8-0.8c0.7,0,1.3-0.3,1.8-0.8
	c0.5-0.5,1.1-0.7,1.7-0.8c0.7-0.1,1.4-0.3,2-0.8c0.6-0.4,1.3-0.7,2-0.8c0.7-0.1,1.4-0.3,2-0.8c0.6-0.4,1.3-0.7,2-0.8
	c0.7-0.1,1.4-0.3,2-0.8c0.7-0.5,1.5-0.7,2.4-0.8c0.7,0,1.3-0.2,1.9-0.6c0.8-0.5,1.6-0.9,2.5-1c1.3-0.3,2.5-0.6,3.7-1
	c1-0.4,2.5-0.8,3.3-1.1c1.2-0.4,2.4-0.7,3.6-0.9c1.2-0.2,2.3-0.6,3.5-1c0.9-0.3,1.9-0.5,2.9-0.6c1.1-0.1,2.2-0.3,3.3-0.8
	c1.2-0.4,2.4-0.7,3.6-0.8c1.1,0,2.2-0.2,3.2-0.6c2-0.5,4-0.9,6-1.1c2.5-0.3,5.9-0.7,7.4-0.9C200.6-0.1,228.9,0,240.4,0.3z"/>
<path class="st0" d="M224.7,243.7c1.8,4.1,0.7,10.5-2.3,13.8c-2.2,2.4-5.4,3.7-8.7,3.6c-2.6,0-3.7-0.3-5.2-1.3
	c-3.9-2.5-5.2-4.4-6.2-8.6c-1.5-6.4,2.1-13.2,7.9-14.7c2.2-0.6,8,0,9,0.9c0.3,0.3,0.7,0.6,1.2,0.7
	C221.1,238.1,223.8,241.5,224.7,243.7z M220.2,249.9c0.4-2.5-0.7-5.1-2.8-6.6c-0.9-0.6-1.7-1.2-2.5-1.9c-0.7-0.7-1.1-0.6-3.3,0.5
	s-2.8,1.6-3.6,3.7s-1,2.6-0.4,3.7c0.4,0.7,0.6,1.5,0.7,2.3c0,1.8,2.2,3.4,5,3.7c2.4,0.2,2.6,0.1,4.5-1.8
	C218.9,252.5,219.7,251.3,220.2,249.9L220.2,249.9z"/>
<path class="st0" d="M217.5,243.3c2.1,1.5,3.1,4.1,2.8,6.6c-0.5,1.4-1.3,2.6-2.3,3.6c-1.9,1.9-2.1,2-4.5,1.8c-2.8-0.3-5-1.9-5-3.7
	c-0.1-0.8-0.3-1.6-0.7-2.3c-0.6-1.1-0.6-1.5,0.4-3.7s1.5-2.6,3.6-3.7s2.6-1.2,3.3-0.5C215.8,242.1,216.6,242.7,217.5,243.3z"/>
<path class="st0" d="M213.2,453.8c0.2,0.1,0.3,0.2,0.3,0.4s-0.1,0.1-0.3,0.2l0,0c-2.1,0.1-4,0.1-5.4,0.2h-0.1c-0.9,0-1.9,0-3,0
	C205.7,454.3,208.9,454.1,213.2,453.8z"/>
<path class="st0" d="M205.9,452.5c4.9,0.6,6.7,0.9,7.3,1.2c-4.3,0.3-7.5,0.5-8.6,0.7h-0.4c-9.9-0.2-17.1-0.9-19.4-1.8
	c-1-0.3-2.1-0.5-3.2-0.6c-1.2-0.1-2.5-0.3-3.6-0.8c-1-0.4-2.1-0.7-3.3-0.8c-1,0-1.9-0.2-2.9-0.6c-1.1-0.4-2.3-0.8-3.5-1
	c-1.2-0.2-2.4-0.5-3.6-0.9c-0.8-0.3-2.3-0.8-3.3-1.1c-1.2-0.4-2.4-0.7-3.6-1c-2.3-0.5-4.6-1.3-6.8-2.4c-0.7-0.4-1.5-0.6-2.4-0.7
	c-0.7-0.1-1.3-0.4-1.9-0.8c-0.6-0.4-1.3-0.7-2-0.8c-0.7-0.1-1.4-0.3-2-0.8c-0.6-0.4-1.3-0.7-2-0.8c-0.7,0-1.3-0.3-1.7-0.8
	c-0.5-0.5-1.1-0.7-1.8-0.8c-0.7,0-1.3-0.3-1.8-0.8c-0.3-0.4-0.8-0.7-1.4-0.8c-0.7-0.1-1.4-0.3-2.1-0.7c-0.8-0.4-3.8-1.9-6.7-3.4
	s-6.7-3.4-8.4-4.3s-3.5-2-4.1-2.3s-1.7-1-2.5-1.5s-2-1.2-2.5-1.5c-1.7-0.9-3.4-2-4.9-3.2c-0.7-0.6-1.4-1-2.2-1.4
	c-0.8-0.4-1.6-0.9-2.3-1.5c-0.7-0.6-1.5-1.1-2.3-1.5c-0.4,0-13.7-10.1-16.3-12.5c-1.1-1-3.5-3.1-5.4-4.7
	c-4.3-3.8-14.9-14.3-18.4-18.4c-1.5-1.8-3.7-4.3-4.9-5.6c-0.9-0.8-1.6-1.8-2.2-2.8c-0.2-0.5-0.5-0.9-0.9-1.3
	c-1.3-1.3-8.8-11.2-8.8-11.6c-0.4-0.8-0.9-1.6-1.5-2.2c-0.6-0.7-1.1-1.5-1.5-2.3c-0.3-0.8-0.8-1.6-1.4-2.2c-1.2-1.5-2.3-3.2-3.2-4.9
	c-0.3-0.6-1-1.7-1.5-2.5s-1.2-2-1.5-2.5s-1.3-2.4-2.2-4.1c-1.8-3.2-5.1-9.6-5.6-11c-0.2-0.5-0.5-1-0.8-1.5c-1.3-2.3-2.1-4.1-2.1-4.7
	c-0.1-0.5-0.4-1-0.8-1.4c-0.5-0.5-0.7-1.1-0.8-1.8c0-0.7-0.3-1.3-0.8-1.8c-0.5-0.5-0.7-1.1-0.8-1.7c-0.1-0.7-0.3-1.4-0.8-2
	c-0.4-0.6-0.7-1.3-0.8-2c-0.1-0.7-0.3-1.4-0.8-2c-0.4-0.6-0.7-1.3-0.8-2c-0.1-0.7-0.3-1.4-0.8-2c-0.5-0.7-0.7-1.5-0.8-2.3
	c0-0.7-0.2-1.3-0.6-1.9c-0.5-0.8-0.8-1.6-1-2.5c-0.3-1.1-0.7-2.7-1-3.6S6.9,291,6.6,290c-0.4-1.2-0.8-2.4-1-3.7
	c-0.2-1.2-0.5-2.4-1-3.5c-0.3-1-0.5-1.9-0.6-3c0-0.9-0.2-1.8-0.6-2.6c-0.5-1.4-0.8-2.8-0.9-4.2c-0.2-1.7-0.7-4.3-0.9-5.9
	C0.4,261.2-0.2,255,0,248.7c0-3.5,0-27.7,0.1-38.2c0.1,2.3,0.2,3.8,0.4,3.8s0.1-0.1,0.2-0.2c0.3,11,0.8,29.6,1.4,34.6
	c0.3,2.5,0.9,6.2,1.3,8.2c0.3,1.5,0.6,3,0.7,4.5c0.2,1,0.5,1.9,0.9,2.8c0.6,1.2,0.9,2.5,0.7,3.9c-0.1,1.5,0.1,3.1,0.4,4.6
	c1.4,5.6,1.6,6.6,2.3,8c0.5,1.3,0.8,2.6,0.9,4c0.1,1.4,0.5,2.6,0.9,2.9s1.1,2.4,1.6,4.8c0.3,1.7,0.8,3.4,1.4,5
	c0.4,0.4,0.5,0.9,0.6,1.5c0.1,0.7,0.5,1.4,1,1.9c0.6,0.6,0.9,1.4,0.7,2.2c-0.1,1,0.3,2.1,1.1,2.8c0.7,0.7,1.1,1.7,1.3,2.6
	c0,0.6,0.2,1.1,0.5,1.1s0.6,0.9,0.7,1.9c0.3,2.3,1.5,5.8,2.2,6.2c0.5,0.6,0.8,1.4,0.9,2.2c0.1,1,0.6,1.9,1.3,2.5
	c0.6,0.6,1.1,1.3,1.3,2.1c0.4,1.3,1,2.6,1.7,3.8c0.7,1.1,1.1,2.3,1.2,3.6c-0.1,0.9,0.4,1.7,1.6,2.8c1.7,1.5,2.5,2.8,4.2,6.4
	c0.7,1.4,1.6,2.7,2.5,3.9c1,1.2,1.8,2.6,2.5,4c0.5,1,1,1.8,1.2,1.8s0.6,0.6,0.8,1.3c0.5,1.1,1.2,2.1,2.1,3c0.9,0.7,1.5,1.7,1.8,2.9
	c-0.1,0.6,0.3,1.2,0.9,1.4c0.5,0.1,1.4,1.1,1.9,2.1c0.7,1.3,1.6,2.6,2.6,3.8c0.8,0.9,1.4,1.9,1.9,3c0.3,0.7,0.8,1.3,1.5,1.7
	c1.4,1,2.6,2.1,3.6,3.4c4.9,5.9,14.7,16.3,15.3,16.3c0.5,0,4.3,4.1,4.3,4.6c0,0.3,0.4,0.7,0.9,0.9c0.8,0.3,3,2,7.1,5.8
	c0.6,0.7,1.5,1.2,2.3,1.5c1.1,0.5,2.1,1.2,2.9,2c0.8,0.8,1.7,1.5,2.6,2c0.2,0,0.6,0.6,0.9,1.3s0.8,1.3,1.2,1.3
	c0.5,0.1,1,0.4,1.3,0.8c0.9,0.8,2,1.6,3.1,2.1c1,0.4,1.8,1,2.5,1.8c0,0.2,0.4,0.4,0.8,0.4c0.7,0.2,1.4,0.6,1.8,1.2
	c0.7,0.9,1.7,1.5,2.7,2c1.9,1,3.7,2.1,5.5,3.4c2.1,1.5,4.3,2.7,4.8,2.7c1,0,3,1.2,4.6,2.9c1,0.8,2.2,1.3,3.5,1.5
	c1.7,0.3,2.5,0.6,2.6,1.3c0.6,1.2,1.9,1.7,3.1,1.3c0.8,0,1.7,0.2,2.3,0.7c1.6,0.8,1.8,1,1,1.4s-0.5,0.6,1.4,1.1
	c1.3,0.3,2.6,0.7,3.8,1.1c0.9,0.3,3.1,1.2,5.1,1.9s3.8,1.6,4,2s1.1,0.7,2.2,0.6c0.9-0.2,1.7,0.1,2.4,0.7c0.9,1.3,3.7,2.5,5.7,2.5
	c1,0,2,0.3,3,0.8c1.3,0.7,2.7,1.2,4.2,1.5c1.7,0.4,4.3,1.1,5.9,1.6c7,2,14.2,3.6,21.4,4.6c1.8,0.2,3.6,0.6,5.4,1
	C201,451.9,203.4,452.3,205.9,452.5z"/>
<path class="st0" d="M213.2,454.3c-1.8,0.2-3.6,0.3-5.4,0.2C209.2,454.4,211.1,454.4,213.2,454.3z"/>
<path class="st0" d="M207.6,454.5c-2.5,0.1-3.9,0.1-3.4,0l0.4,0l0,0C205.7,454.5,206.7,454.5,207.6,454.5z"/>
<path class="st0" d="M205.8,176.1c0,4.3-3.8,11.5-6.1,11.5c-0.7,0.1-1.3,0.4-1.8,0.8c-1.5,1.2-6.2,1-8.8-0.3
	c-5.5-2.6-8.1-8.8-6.7-15.3c0.9-4.1,3.9-7.3,7.9-8.4c1.3-0.3,2.7-0.5,4-0.4c0.9,0.2,2.3,0.4,3.2,0.6
	C201.2,165.2,205.8,171.6,205.8,176.1z M200,179c0.7-1.4,0.7-1.8-0.1-4.1c-0.5-1.7-1.6-3.1-3.1-4.1c-0.8-0.6-1.8-1.1-2.8-1.4
	c-1.9,0.2-3,0.6-3.5,1.3c-0.3,0.4-0.8,0.6-1.3,0.7c-1,0-1.7,2.1-1.7,5.2c0,2.3,0.2,2.8,2,4.5c1.6,1.6,2.3,2,3.8,2
	C196,182.8,198.5,181.3,200,179z"/>
<path class="st0" d="M199.9,174.8c0.8,2.3,0.8,2.7,0.1,4.1c-1.5,2.3-3.9,3.8-6.7,4.1c-1.5,0-2.2-0.4-3.8-2c-1.8-1.8-2-2.2-2-4.5
	c0-3.1,0.7-5.2,1.7-5.2c0.5-0.1,1-0.3,1.3-0.7c0.5-0.7,1.6-1.1,3.5-1.3c1,0.3,2,0.8,2.8,1.4C198.3,171.7,199.4,173.1,199.9,174.8z"
	/>
<path class="st0" d="M0.6,213.9c-0.1,0.1-0.1,0.2-0.2,0.2s-0.3-1.5-0.4-3.8c0-2.9,0.1-4.8,0.1-4.9C0.5,208.3,0.6,211.1,0.6,213.9z"
	/>
<path class="st0" d="M274.2,268c0.7-1,1.7-1.7,2.8-2.1c2.2-1.1,2.7-1.2,3.3-0.5c0.8,0.7,1.6,1.3,2.5,1.9c2.1,1.5,3.1,4.1,2.8,6.6
	c0,0.1-0.1,0.2-0.1,0.4c-0.5,1.2-1.3,2.3-2.2,3.2c-1.9,1.9-2.1,2-4.5,1.8c-2.8-0.3-5-1.9-5-3.7c-0.1-0.4-0.2-0.9-0.3-1.3
	c-0.1-0.3-0.3-0.7-0.4-1c-0.6-1.1-0.6-1.5,0.4-3.7c0.2-0.3,0.3-0.6,0.4-0.9C274,268.4,274.1,268.2,274.2,268z"/>
</svg>
