<?xml version="1.0" encoding="utf-8"?>
<!-- Generator: Adobe Illustrator 25.0.1, SVG Export Plug-In . SVG Version: 6.00 Build 0)  -->
<svg version="1.1" id="Layer_1" xmlns="http://www.w3.org/2000/svg" xmlns:xlink="http://www.w3.org/1999/xlink" x="0px" y="0px"
	 viewBox="0 0 989 386.3" style="enable-background:new 0 0 989 386.3;" xml:space="preserve">
<style type="text/css">
	.st0{fill:#7C7C7C;}
</style>
<path class="st0" d="M646.1,5.8c2.8,3.4,20.7,24.8,39.3,47.9s51.7,62.8,73.1,88.6c21,25.9,38.6,48.6,38.6,50.7s-12.1,18.3-26.6,35.9
	c-30,35.5-113.1,136.9-122.8,149.4l-6.2,7.9h191.8l77.3-93.5c42.1-51.7,77.6-95.6,78.3-98c1-2.4-25.2-36.9-58-76.6
	s-67.9-82.4-78.2-95.1L834.1,0h-96.6C645.7,0,641.2,0.3,646.1,5.8z"/>
<path class="st0" d="M128,167.3v150h31V17.3h-31V167.3z"/>
<path class="st0" d="M193.5,43.1c0,23.5-0.7,25.9-6.9,25.9c-5.9,0-6.9,2.4-6.9,17.2c0,14.8,1,17.2,6.9,17.2c6.9,0,6.9,2.4,6.9,106.9
	v106.9h31V211.8c0-102.4,0.3-105.6,6.9-107.3c5.9-1.4,6.9-4.8,6.9-18.6c0-14.5-1-16.9-6.9-16.9c-6.2,0-6.9-2.4-6.9-25.9V17.3h-31
	L193.5,43.1z"/>
<path class="st0" d="M259,34.5v17.2h31V17.3h-31V34.5z"/>
<path class="st0" d="M1,177c1,97.3,1.7,109,7.2,117.3c19.3,29.7,60.7,30.4,78.3,1.4c6.6-10.4,6.9-17.9,6.9-119V69h-31v103.1
	c0,89.3-0.7,104.2-5.5,108.7c-6.2,6.5-6.9,6.5-15.5,2c-6.2-3.5-6.5-8.3-6.5-108.7V69H0L1,177z"/>
<path class="st0" d="M259,193.2v124.2h31V69h-31V193.2z"/>
<path class="st0" d="M368.4,71.1c-1.7,1.7-12.1,2.4-23.5,2.1l-20.4-1v245.2h31V212.5c0-103.1,0-105.2,7.2-110.4
	c4.1-2.8,10-4.1,13.1-3.1c13.5,4.8,14.1,9.3,14.1,115.6v102.8h34.5V210.4c0-104.2,0-106.9,7.2-110.4c5.5-3.1,9-2.8,15.5,1.7l8.3,5.2
	v210.4h34.8l-1-114.2l-1-114.2l-11.7-10.4c-10.4-9.3-13.5-10.3-28.6-9c-9.3,1-19.7,4.5-23.5,7.9c-6.6,5.9-7.2,5.9-13.8,0
	C403.6,71.1,373.2,66.2,368.4,71.1z"/>
<path class="st0" d="M539.5,74.2c-4.1,2.8-10.3,12.4-13.8,21.4c-5.5,14.5-6.2,27.2-6.2,95.9c0,85.2,2.4,102.8,16.9,117.3
	c7.2,7.2,11.4,7.9,41.4,8.3h33.1V69h-17.3c-9.7,0-17.2,1.7-17.2,3.4c0,2.4-2.1,2.4-6.5,0C560.2,67.6,548.1,68.3,539.5,74.2z
	 M572.6,104.8c2.8,3.1,3.8,30,3.1,90c-1,75.9-1.7,85.9-6.9,89c-4.5,3.1-7.6,2.4-12.8-2.4c-6.9-6.2-7.2-10.4-7.2-88.6
	c0-70,0.7-82.8,5.5-87.3C560.9,98.7,567.4,98.7,572.6,104.8z"/>
</svg>
