<svg xmlns="http://www.w3.org/2000/svg" xmlns:xlink="http://www.w3.org/1999/xlink" width="1275" height="1080" viewBox="0 0 1275 1080">
  <defs>
    <clipPath id="clip-Book-Login-Page-Lighter_3">
      <rect width="1275" height="1080"/>
    </clipPath>
  </defs>
  <g id="Book-Login-Page-Lighter_3" data-name="Book-Login-Page-Lighter – 3" clip-path="url(#clip-Book-Login-Page-Lighter_3)">
    <rect width="1275" height="1080" fill="#fff"/>
    <rect id="Rectangle_7" data-name="Rectangle 7" width="1920" height="1080" transform="translate(9 78)" fill="#fff"/>
    <path id="Path_270" data-name="Path 270" d="M2454.666,1591.974s152.927-297.939,529.646-46.692,193.955,0,369.26-68.926,410.288-4.447,414.019,115.618,85.788,282.375-227.524,240.13-745.98,93.384-917.555,0S2454.666,1591.974,2454.666,1591.974Z" transform="translate(-1816.417 -61.452) rotate(-9)" fill="#cfdcef"/>
    <path id="Path_269" data-name="Path 269" d="M2407.971,1800.976s-531.4-133.406-17.787-235.683-31.128-84.49,37.8-168.98,329.067-122.289,391.323-33.351,438.015,151.193,166.757,309.056S2407.971,1800.976,2407.971,1800.976Z" transform="translate(-2262.872 -1430.499)" fill="#cfdcef"/>
    <path id="Path_268" data-name="Path 268" d="M607.85,40.2s454.065,41.4,128.164,163.406-32.956,137.261,0,185.193S552.923,589.241,292.935,480.3-120.85,216.676,120.829,179.637,325.891-75.276,465.04,27.125,607.85,40.2,607.85,40.2Z" transform="matrix(-0.809, -0.588, 0.588, -0.809, 562.905, 1328.816)" fill="#cfdcef"/>
    <path id="Path_265" data-name="Path 265" d="M2407.971,1800.976s-531.4-133.406-17.787-235.683-31.128-84.49,37.8-168.98,329.067-122.289,391.323-33.351,438.015,151.193,166.757,309.056S2407.971,1800.976,2407.971,1800.976Z" transform="translate(-2324.372 -1430.499)" fill="#e5ecf6"/>
    <path id="Path_266" data-name="Path 266" d="M607.85,40.2s454.065,41.4,128.164,163.406-32.956,137.261,0,185.193S552.923,589.241,292.935,480.3-120.85,216.676,120.829,179.637,325.891-75.276,465.04,27.125,607.85,40.2,607.85,40.2Z" transform="matrix(-0.809, -0.588, 0.588, -0.809, 589.885, 1294.021)" fill="#e5ecf6"/>
    <path id="Path_267" data-name="Path 267" d="M2454.666,1591.974s152.927-297.939,529.646-46.692,193.955,0,369.26-68.926,410.288-4.447,414.019,115.618,85.788,282.375-227.524,240.13-745.98,93.384-917.555,0S2454.666,1591.974,2454.666,1591.974Z" transform="translate(-1785.417 -9.657) rotate(-9)" fill="#e5ecf6"/>
    <path id="Path_119" data-name="Path 119" d="M688.44,180.84c-64.72-2.25-126.37-23.14-185.23-46S386.05,86.65,322.88,74.54c-40.63-7.79-87.1-8.89-119.83,12.89-31.51,21-41.69,57.15-47.16,90.73-4.12,25.26-6.54,51.84,4.75,75.49,7.83,16.42,21.74,30.22,31.35,46,33.47,54.72,9.82,122.2-26.45,175.63-17,25.07-36.75,49-49.87,75.66s-19.2,57.25-7.72,84.47c11.39,27,38.52,47.24,67.9,61.49,59.69,28.95,130,37.23,198.61,41.92,151.83,10.39,304.46,5.89,456.69,1.39,56.34-1.67,112.92-3.36,168.34-12.07,30.78-4.84,62.55-12.51,84.9-31.05,28.36-23.53,35.39-63.38,16.39-92.88-31.89-49.49-120-61.78-142.32-114.9-12.26-29.23.34-61.79,18.16-88.91,38.24-58.16,102.33-109.19,105.71-175.67,2.32-45.67-28.5-91.39-76.14-113C956.26,89,887,91.88,850.18,129.37,812.24,168,745.58,182.82,688.44,180.84Z" transform="translate(745.42 62.41)" fill="#0046a5" opacity="0.19"/>
    <path id="Path_290" data-name="Path 290" d="M688.44,180.84c-64.72-2.25-126.37-23.14-185.23-46S386.05,86.65,322.88,74.54c-40.63-7.79-87.1-8.89-119.83,12.89-31.51,21-41.69,57.15-47.16,90.73-4.12,25.26-6.54,51.84,4.75,75.49,7.83,16.42,21.74,30.22,31.35,46,33.47,54.72,9.82,122.2-26.45,175.63-17,25.07-36.75,49-49.87,75.66s-19.2,57.25-7.72,84.47c11.39,27,38.52,47.24,67.9,61.49,59.69,28.95,130,37.23,198.61,41.92,151.83,10.39,304.46,5.89,456.69,1.39,56.34-1.67,112.92-3.36,168.34-12.07,30.78-4.84,62.55-12.51,84.9-31.05,28.36-23.53,35.39-63.38,16.39-92.88-31.89-49.49-120-61.78-142.32-114.9-12.26-29.23.34-61.79,18.16-88.91,38.24-58.16,102.33-109.19,105.71-175.67,2.32-45.67-28.5-91.39-76.14-113C956.26,89,887,91.88,850.18,129.37,812.24,168,745.58,182.82,688.44,180.84Z" transform="translate(700.553 112.924)" fill="#e5ecf6"/>
  </g>
</svg>
