<svg xmlns="http://www.w3.org/2000/svg" width="396" height="120" viewBox="0 0 396 120">
  <g id="Group_45" data-name="Group 45" transform="translate(-67 -221)">
    <text id="oTeach" transform="translate(168 318)" fill="#1d71b8" font-size="90" font-family="SegoeUI-Bold, Segoe UI" font-weight="700"><tspan x="0" y="0">oTeach</tspan></text>
    <g id="CoTeach-Logo-Blue" transform="translate(66.96 224.056)">
      <path id="Path_532" data-name="Path 532" d="M128.292,97.616a51.046,51.046,0,0,1-4.769,4.2l1.022-.789a49.605,49.605,0,0,1-10.945,6.4l1.2-.506a49.524,49.524,0,0,1-9.75,2.971q-1.418.276-2.853.471l1.345-.182a49.9,49.9,0,0,1-10.344.307q-1.461-.112-2.913-.307l1.345.182a49.523,49.523,0,0,1-9.873-2.387c-.921-.325-1.829-.672-2.727-1.055l1.2.506a49.6,49.6,0,0,1-10.942-6.4l1.022.789a50.761,50.761,0,0,1-4.764-4.2,5.628,5.628,0,0,0-3.565-1.477l-1.345.179a3.81,3.81,0,0,0-1.714.9,2.535,2.535,0,0,0-.9.9,3.8,3.8,0,0,0-.9,1.714,5.378,5.378,0,0,0,.509,3.883l.063.119,7.9-6.091a51.047,51.047,0,0,1-4.2-4.764l.789,1.02a49.553,49.553,0,0,1-6.4-10.945l.506,1.206A49.624,49.624,0,0,1,53.33,74.5q-.276-1.419-.471-2.853l.182,1.345a49.873,49.873,0,0,1-.307-10.346q.112-1.466.307-2.913l-.182,1.345A49.587,49.587,0,0,1,55.246,51.2c.325-.919.672-1.829,1.055-2.727l-.506,1.206a49.553,49.553,0,0,1,6.4-10.945l-.789,1.02a62.3,62.3,0,0,1,4.2-4.764c.345-.363.672-.744,1.015-1.12.648-.688,1.358-1.327,2.059-1.956q1.331-1.19,2.745-2.286l-1.008.789a49.554,49.554,0,0,1,10.933-6.4l-1.206.506a49.777,49.777,0,0,1,9.75-2.971q1.418-.276,2.853-.471l-1.345.182a49.873,49.873,0,0,1,10.342-.307q1.466.11,2.913.307l-1.345-.182a49.587,49.587,0,0,1,9.876,2.387c.919.325,1.829.672,2.727,1.055l-1.19-.506a49.554,49.554,0,0,1,10.945,6.4l-1.024-.784a51.046,51.046,0,0,1,4.764,4.2,5.2,5.2,0,0,0,3.565,1.477,5.616,5.616,0,0,0,3.565-1.477,5.079,5.079,0,0,0,1.477-3.565,5.255,5.255,0,0,0-1.472-3.559,58.46,58.46,0,0,0-7.1-5.968,49.382,49.382,0,0,0-6.734-4.083A53.537,53.537,0,0,0,106.977,11.5a58.488,58.488,0,0,0-8.843-.766,58.488,58.488,0,0,0-8.845.733A53.428,53.428,0,0,0,73.54,16.55,49.1,49.1,0,0,0,66.793,20.6a57.768,57.768,0,0,0-7.115,5.938c-.5.491-.939,1.031-1.427,1.526q-1.432,1.452-2.745,3.014a57.816,57.816,0,0,0-5.345,7.431,57.278,57.278,0,0,0-3.924,8.1,49.474,49.474,0,0,0-2.3,7.339A54.338,54.338,0,0,0,42.672,70.36a53.789,53.789,0,0,0,3.715,16.11,57.469,57.469,0,0,0,3.982,8.067,57.673,57.673,0,0,0,5.405,7.395q1.291,1.513,2.689,2.913a5.615,5.615,0,0,0,3.565,1.477l1.345-.179a3.8,3.8,0,0,0,1.714-.9,2.539,2.539,0,0,0,.9-.9,3.8,3.8,0,0,0,.9-1.714,5.378,5.378,0,0,0-.509-3.886l-.065-.117-7.917,6.111a58.619,58.619,0,0,0,6.974,5.878,49.175,49.175,0,0,0,6.59,4.034,54.433,54.433,0,0,0,31.476,5.616,51.929,51.929,0,0,0,16.746-4.809,53.633,53.633,0,0,0,13.788-9.338q.733-.672,1.439-1.383a5.192,5.192,0,0,0,1.477-3.565,5.584,5.584,0,0,0-1.477-3.565,5.062,5.062,0,0,0-3.565-1.477,5.271,5.271,0,0,0-3.565,1.477Z" transform="translate(-42.48 -10.74)" fill="#1d71b8"/>
      <path id="Path_533" data-name="Path 533" d="M169.436,137.853A36.668,36.668,0,0,1,166,140.9l1.02-.787a36.028,36.028,0,0,1-7.946,4.65l1.206-.509a36.177,36.177,0,0,1-9.188,2.505l1.345-.179a36.334,36.334,0,0,1-9.537,0l1.345.179a36.136,36.136,0,0,1-9.188-2.505l1.206.509a36.094,36.094,0,0,1-7.948-4.65l1.022.787a36.383,36.383,0,0,1-3.478-3.043,5.628,5.628,0,0,0-3.565-1.477l-1.345.182a3.794,3.794,0,0,0-1.714.9,2.534,2.534,0,0,0-.9.9,3.8,3.8,0,0,0-.9,1.714l-.179,1.345a5.006,5.006,0,0,0,.688,2.546l.045.085,7.919-6.111a37.325,37.325,0,0,1-3.05-3.438l.789,1.02a35.939,35.939,0,0,1-4.65-7.946l.509,1.2A36.049,36.049,0,0,1,117,119.581l.182,1.345a36.335,36.335,0,0,1,0-9.537L117,112.732a36.049,36.049,0,0,1,2.508-9.188l-.509,1.2a35.991,35.991,0,0,1,4.645-7.962l-.789,1.022a36.385,36.385,0,0,1,2.689-3.095c.314-.323.672-.578.993-.9q.733-.726,1.508-1.41.874-.769,1.793-1.483l-1.02.789a36.028,36.028,0,0,1,7.946-4.65l-1.206.509a36.177,36.177,0,0,1,9.188-2.505l-1.345.179a36.335,36.335,0,0,1,9.537,0l-1.345-.179a36.136,36.136,0,0,1,9.188,2.505l-1.2-.509a36.078,36.078,0,0,1,7.946,4.65l-1.022-.789a37.042,37.042,0,0,1,3.451,3.041,5.039,5.039,0,0,0,7.128,0,5.07,5.07,0,0,0,1.477-3.565,5.242,5.242,0,0,0-1.477-3.565,44.354,44.354,0,0,0-5.378-4.506,35.533,35.533,0,0,0-4.836-2.962,40.072,40.072,0,0,0-11.628-3.879,38.986,38.986,0,0,0-13.479-.1,39.98,39.98,0,0,0-11.666,3.684,35.407,35.407,0,0,0-4.874,2.841,44.343,44.343,0,0,0-5.425,4.4c-.533.511-1.1.973-1.609,1.506q-1.008,1.055-1.927,2.187a39.129,39.129,0,0,0-6.875,11.821,35.711,35.711,0,0,0-1.6,5.327,40.621,40.621,0,0,0-.867,12.159,40.193,40.193,0,0,0,2.774,11.928,43.748,43.748,0,0,0,3.014,6.127,44.225,44.225,0,0,0,4.128,5.62q.928,1.082,1.934,2.091a5.615,5.615,0,0,0,3.565,1.477l1.345-.179a3.81,3.81,0,0,0,1.717-.9,2.535,2.535,0,0,0,.9-.9,3.8,3.8,0,0,0,.9-1.714l.179-1.345a5.006,5.006,0,0,0-.679-2.55l-.047-.083-7.926,6.1a44.819,44.819,0,0,0,5.342,4.482,35.741,35.741,0,0,0,4.791,2.933,40.224,40.224,0,0,0,11.458,3.89,40.81,40.81,0,0,0,12.1.365,38.737,38.737,0,0,0,12.816-3.671,35.975,35.975,0,0,0,4.874-2.736,44.776,44.776,0,0,0,5.418-4.258c.356-.329.7-.672,1.047-1.006a5.056,5.056,0,0,0,.007-7.135A5.079,5.079,0,0,0,173,136.376,5.266,5.266,0,0,0,169.436,137.853Z" transform="translate(-92.347 -60.491)" fill="#2aaee4"/>
      <circle id="Ellipse_152" data-name="Ellipse 152" cx="25.564" cy="25.564" r="25.564" transform="translate(29.568 30.101)" fill="#78b7e5"/>
    </g>
  </g>
</svg>
