<svg xmlns="http://www.w3.org/2000/svg" xmlns:xlink="http://www.w3.org/1999/xlink" width="1920" height="2403" viewBox="0 0 1920 2403">
  <defs>
    <linearGradient id="linear-gradient" x1="0.5" y1="1" x2="0.5" gradientUnits="objectBoundingBox">
      <stop offset="0" stop-color="gray" stop-opacity="0.251"/>
      <stop offset="0.54" stop-color="gray" stop-opacity="0.122"/>
      <stop offset="1" stop-color="gray" stop-opacity="0.102"/>
    </linearGradient>
    <linearGradient id="linear-gradient-2" x1="0.5" x2="0.5" y2="0" xlink:href="#linear-gradient"/>
    <linearGradient id="linear-gradient-3" x1="0.5" x2="0.5" y2="0" xlink:href="#linear-gradient"/>
    <linearGradient id="linear-gradient-4" x1="1.096" x2="1.096" y2="0" xlink:href="#linear-gradient"/>
    <clipPath id="clip-Landing-Page_2">
      <rect width="1920" height="2403"/>
    </clipPath>
  </defs>
  <g id="Landing-Page_2" data-name="Landing-Page – 2" clip-path="url(#clip-Landing-Page_2)">
    <rect width="1920" height="2403" fill="#fff"/>
    <rect id="Rectangle_227" data-name="Rectangle 227" width="1920" height="1080" transform="translate(-32)" fill="#fff"/>
    <g id="Ellipse_147" data-name="Ellipse 147" transform="translate(1671.418 190.229) rotate(56)" fill="none" stroke="#707070" stroke-width="1" stroke-dasharray="30">
      <ellipse cx="323" cy="263" rx="323" ry="263" stroke="none"/>
      <ellipse cx="323" cy="263" rx="322.5" ry="262.5" fill="none"/>
    </g>
    <g id="Ellipse_148" data-name="Ellipse 148" transform="translate(1631.653 267) rotate(71)" fill="none" stroke="#707070" stroke-width="1" stroke-dasharray="30">
      <ellipse cx="323" cy="263" rx="323" ry="263" stroke="none"/>
      <ellipse cx="323" cy="263" rx="322.5" ry="262.5" fill="none"/>
    </g>
    <g id="Ellipse_145" data-name="Ellipse 145" transform="translate(1432.312 294.136) rotate(124)" fill="none" stroke="#707070" stroke-width="1" stroke-dasharray="30">
      <ellipse cx="323" cy="263" rx="323" ry="263" stroke="none"/>
      <ellipse cx="323" cy="263" rx="322.5" ry="262.5" fill="none"/>
    </g>
    <g id="Ellipse_146" data-name="Ellipse 146" transform="translate(652 83.4) rotate(-13)" fill="none" stroke="#707070" stroke-width="1" stroke-dasharray="30">
      <ellipse cx="323" cy="263" rx="323" ry="263" stroke="none"/>
      <ellipse cx="323" cy="263" rx="322.5" ry="262.5" fill="none"/>
    </g>
    <path id="Path_2" data-name="Path 2" d="M785.882,9.7S612.331-134.108,406.772-94.7,50.225-5.926-36.354,167.338,3.9,383.824,34.721,617.852s-104.359,283.98,52.2,485.6,754.63-19.421,754.63-19.421Z" transform="translate(928.953 765.751) rotate(-87)" fill="#a2bbe1" opacity="0.79"/>
    <path id="Path_540" data-name="Path 540" d="M785.882,9.7S612.331-134.108,406.772-94.7,50.225-5.926-36.354,167.338,3.9,383.824,34.721,617.852s-104.359,283.98,52.2,485.6,754.63-19.421,754.63-19.421Z" transform="translate(952.279 727.978) rotate(-87)" fill="#d9e3f2"/>
    <g id="undraw_team_spirit_hrr4" transform="translate(977.156 64.306)">
      <path id="Path_291" data-name="Path 291" d="M43.44,426.65c14.525,56.608,45.278,105.542,93.881,129.258,101.047,49.3,328.793,23.87,498.794-5.31,87.958-15.1,165.216-56.729,221.372-115.394Z" transform="translate(-33.533 -98.614)" fill="#2e7eb7" opacity="0.25"/>
      <path id="Path_292" data-name="Path 292" d="M940.556,81.727H847.28c-4.438,0-8.07-3.309-8.07-7.351s3.623-7.351,8.07-7.351h16.139c-4.438,0-8.07-3.309-8.07-7.351s3.623-7.343,8.07-7.343H851.9c-4.438,0-8.07-3.309-8.07-7.351s3.623-7.351,8.07-7.351h48.684c-10.805-4.583-23.4-7.836-37.975-9.538C729.86,12.539,682.46,22.82,665.715,33.4a195.371,195.371,0,0,1-68.228,27.267c-81.906,15.4-235.082,33.94-373.918-5.939-69-19.811-120.285,13.718-151.029,69.648H956.752c-1.154-16.268-4.608-31.294-10.95-44.439A8.457,8.457,0,0,1,940.556,81.727Z" transform="translate(-39.151 -20.14)" fill="#2e7eb7" opacity="0.25"/>
      <path id="Path_293" data-name="Path 293" d="M33.151,280.23a342.1,342.1,0,0,0,3.623,98.763L855.735,406.3a349.538,349.538,0,0,0,56.9-79.082Zm323.887,70.455H340.9c4.43,0,8.07,3.309,8.07,7.351s-3.631,7.343-8.07,7.343H247.663c-4.43,0-8.07-3.3-8.07-7.343s3.631-7.351,8.07-7.351H263.8c-4.43,0-8.07-3.308-8.07-7.351s3.631-7.351,8.07-7.351H252.271c-4.43,0-8.07-3.3-8.07-7.343s3.631-7.351,8.07-7.351h93.276c4.438,0,8.07,3.309,8.07,7.351s-3.623,7.343-8.07,7.343h11.491c4.438,0,8.07,3.309,8.07,7.351S361.5,350.685,357.038,350.685Z" transform="translate(-31.16 -70.349)" fill="#2e7eb7" opacity="0.25"/>
      <path id="Path_294" data-name="Path 294" d="M949.309,149.94,55.2,169.767c-10.894,25.492-18.1,54.308-21.425,84.181H933.638a321.973,321.973,0,0,0,12.992-53.654C949.309,182.735,950.383,165.756,949.309,149.94ZM215.32,214.908H199.181c4.43,0,8.07,3.309,8.07,7.351s-3.631,7.351-8.07,7.351H105.914c-4.43,0-8.07-3.309-8.07-7.351s3.631-7.351,8.07-7.351h16.139c-4.43,0-8.07-3.3-8.07-7.343s3.631-7.351,8.07-7.351H110.521c-4.43,0-8.07-3.309-8.07-7.351s3.631-7.351,8.07-7.351H203.8c4.438,0,8.07,3.309,8.07,7.351s-3.623,7.351-8.07,7.351H215.32c4.43,0,8.07,3.309,8.07,7.351S219.751,214.908,215.32,214.908Z" transform="translate(-31.668 -45.197)" fill="#2e7eb7" opacity="0.25"/>
      <ellipse id="Ellipse_118" data-name="Ellipse 118" cx="60.707" cy="13.629" rx="60.707" ry="13.629" transform="translate(475.382 591.538)" fill="#2e7eb7" opacity="0.1"/>
      <ellipse id="Ellipse_119" data-name="Ellipse 119" cx="109.52" cy="8.989" rx="109.52" ry="8.989" transform="translate(567.633 639.463)" fill="#2e7eb7" opacity="0.1"/>
      <ellipse id="Ellipse_120" data-name="Ellipse 120" cx="109.52" cy="13.629" rx="109.52" ry="13.629" transform="translate(127.9 621.194)" fill="#2e7eb7" opacity="0.1"/>
      <ellipse id="Ellipse_121" data-name="Ellipse 121" cx="82.406" cy="13.629" rx="82.406" ry="13.629" transform="translate(321.996 552.966)" fill="#2e7eb7" opacity="0.1"/>
      <path id="Path_295" data-name="Path 295" d="M570.577,285.5c-1.743-11.733-12.4-39.113-12.4-39.113h0q-.278-1.21-.629-2.421c-7.561-25.984-18.027-28.243-18.027-28.243l-37.491-8.07a2.906,2.906,0,0,1,.807.75,5.2,5.2,0,0,0-.589.089,14.687,14.687,0,0,1-3.284-7.1c-.073-.387-.137-.807-.186-1.2a26.371,26.371,0,0,0-2.146-39.646c-.4-.307-.807-.605-1.2-.888,1.767-1.88,1.824-4.495.5-7.109-2.953-6.133-9.377-10.014-15.978-11.911-5.043-1.444-10.49-1.912-15.51-.331a56.029,56.029,0,0,0-8.118,3.768c-4.979,2.485-10.49,4.454-14.21,8.546-.871.952-1.678,2.171-1.42,3.43a9.256,9.256,0,0,0,1.412,2.493c1.073,1.864.807,4.212.073,6.246a60.527,60.527,0,0,0-2.316,6c-.508,2.082-.315,4.535,1.251,6.028a26.551,26.551,0,0,0,2.34,1.614,12.272,12.272,0,0,1,2.235,2.51q2.227,2.986,4.438,6a61.765,61.765,0,0,1,5.56,8.449,41.173,41.173,0,0,0,3.438,6.456,9.572,9.572,0,0,0,1.477,1.549l-.436-.169a6.722,6.722,0,0,0,4.931,2.009h.226a1.356,1.356,0,0,0,.9-.371c0,.274,0,.549,0,.807.089,2.881.073,5.947-.129,8.828l-.347-.178a3.026,3.026,0,0,0-3.228.339L428,242.351s-7.5,10.264-6.456,27.985L415.5,296.909s-7.561,22.546-1.743,38.645,9.191,25.306,9.191,25.306,2.324,18.294,5.818,19.786,5,2.3,5,2.3l.694,4.374h0s.234.428.646,1.146c2.542,4.422,11.959,20.029,17.43,18.358a69.955,69.955,0,0,1,.888,12.823L458.838,456s3.777,9.885,3.543,15.066,4.406,12.564,4.406,12.564a24.007,24.007,0,0,0-2.324,16.906c2.211,9.683,5,54.292,5,54.292l4.035,10.813-.113,12.677a12.1,12.1,0,0,1-2.5,5.649c-2.615,2.84-2.421,6.125-8.723,10.006s-10.3,5.35-10.3,10.49a13.488,13.488,0,0,1-.194,2.138c-.581,3.777-1.711,5.826,9.877,6.924a30.552,30.552,0,0,0,22.692-7.585s2-3.631,11.426-5.1c0,0,3.228-.17,3.4-3.018.065-.984.048-2.865,0-4.938-.153-3.946-.533-8.554-1.033-8.78-.629-.282-1.727-4.253-2.106-5.689h2.623s2.421-18.294,0-30.14-.234-20.247-.234-20.247l-.468-31.286s-3.228-3.454-.694-9.554,0-36.232,0-36.232.936-10.813,3.607-13.347.129-15.841,0-16.534l4.761,15.97s2.09,31.746,6.52,37.491l1.275,14.38s9.07,13.234,7.327,20.359,1.864,32.9,1.864,32.9v26.347s-4.075,10.579,1.614,14.38l2.421-.1c-.807.75-1.428,1.88-2.372,2.857-1.089,1.122-1.711,5.391-2.058,9.062-.29,3.107-.387,5.778-.387,5.778a9.514,9.514,0,0,0,6.98,4.14c4.559.266,19.585,11.693,19.585,11.693s14.84,0,18.681-.807l.226-.057a5.043,5.043,0,0,0,2.9-2.364,6.052,6.052,0,0,0,.694-4.349c-.476-2.267-2.276-4.753-6.262-6.867-9.917-5.229-11.394-10.127-11.394-10.127l-6.512-9.772h.928s-.573-10.353,6.512-21.973l-.46-51.185s2.905-17.6-2.09-27.154c0,0-.412-10.119,2.929-13.226s-4.446-34.505-4.446-34.505-1.614-16.857-3.51-32.238h0c7.852,7.448,15.994-19.367,17.366-24.136h.2l-.089-.347c.057-.226.089-.339.089-.339h0s-1.743-6.2-.468-4.939S568,368.494,568,368.494s-.468-25.653,5-38.58S570.577,285.5,570.577,285.5Zm-23.4,16.325.04-.073c.807,15.663-.153,49.087-.153,49.087s-1.081,4.285-2.235,9.328l-.807-31.754h0l-.807-29.914Zm-100.151-10.8s3.954,49.458,0,56.592c-1.122,2.034-2.066,5.649-2.849,9.772-1.307-3.43-4.075-11.483-3.083-15.752,1.283-5.52-2.558-20.021-2.558-20.359s-.347-8.07,2.421-13.976.952-8.465.952-8.465S444.232,289.154,447.024,291.026Z" transform="translate(-104.596 -43.145)" fill="url(#linear-gradient)"/>
      <path id="Path_296" data-name="Path 296" d="M462.45,459.48c-3.446,15.147-17.148-7.755-20.271-13.25-.4-.718-.629-1.138-.629-1.138l1.485-6.964,7.852-3.228a21.934,21.934,0,0,1,3.518,2.292C458.706,440.573,465.1,447.747,462.45,459.48Z" transform="translate(-110.387 -100.207)" fill="#d38884"/>
      <path id="Path_297" data-name="Path 297" d="M593.778,433.721a1.059,1.059,0,0,1-.089.339,1.717,1.717,0,0,1-.1.363c-1.348,4.729-9.336,31.35-17.051,23.958-8.441-8.07-4.341-26.726-4.341-26.726h.057L590,429.84l3.518,3.615h0Z" transform="translate(-135.415 -99.23)" fill="#d38884"/>
      <path id="Path_298" data-name="Path 298" d="M560.472,565.221l.452,50.838c-6.964,11.539-6.391,21.788-6.391,21.788l-22.95.9c-5.6-3.768-1.614-14.267-1.614-14.267V598.306s-3.543-25.572-1.832-32.657-7.19-20.174-7.19-20.174L519.688,531.2c-4.341-5.705-6.4-37.217-6.4-37.217l-4.656-15.913c.129.686,2.55,13.968,0,16.413s-3.543,13.242-3.543,13.242,2.51,29.922,0,35.966.678,9.482.678,9.482l.46,31.06s-2.171,8.336.226,20.093,0,29.922,0,29.922h-24.62l.113-12.677-3.986-10.732s-2.744-44.3-4.914-53.9a24.079,24.079,0,0,1,2.276-16.785s-4.559-7.3-4.333-12.443-3.518-14.945-3.518-14.945l-5.31-36.079a70.092,70.092,0,0,0-2.631-20.553c-3.083-10.281-7.65-23.757-7.65-23.757l5.156.46,26.016,2.316s63.257-4.253,66.09-.718a11.871,11.871,0,0,1,1.194,3.688c2.841,12.758,6.593,52.726,6.593,52.726s7.65,31.173,4.366,34.255-2.881,13.121-2.881,13.121C563.336,547.71,560.472,565.221,560.472,565.221Z" transform="translate(-112.381 -99.721)" fill="#444053"/>
      <path id="Path_299" data-name="Path 299" d="M508.976,700.645c-.178,2.832-3.333,3-3.333,3-9.248,1.453-11.217,5.052-11.217,5.052a29.7,29.7,0,0,1-22.264,7.537c-11.378-1.1-10.273-3.123-9.683-6.875a14.21,14.21,0,0,0,.186-2.114c0-5.14,3.938-6.6,10.1-10.49s6-7.109,8.562-9.934,2.832-8.3,2.832-8.3c2.905-5.06,10.273.807,10.273.807.347,1.791,11.3,1.541,11.3,1.541s1.453,5.826,2.2,6.165c.492.226.863,4.793,1.009,8.715C509.025,697.8,509.041,699.668,508.976,700.645Z" transform="translate(-114.362 -146.84)" fill="#b07473"/>
      <path id="Path_300" data-name="Path 300" d="M508.976,705.262c-.178,2.832-3.333,3-3.333,3-9.248,1.453-11.217,5.052-11.217,5.052a29.7,29.7,0,0,1-22.264,7.537c-11.378-1.1-10.273-3.123-9.683-6.875,5.084,1.259,14.8,3.018,20.472-.065,7.884-4.277,13.541-7.263,13.541-7.263l12.459-6.27C509.025,702.422,509.041,704.286,508.976,705.262Z" transform="translate(-114.362 -151.457)" opacity="0.1"/>
      <path id="Path_301" data-name="Path 301" d="M595.2,716.67a4.922,4.922,0,0,1-2.84,2.348l-.218.057c-3.768.807-18.334.807-18.334.807s-14.727-11.386-19.181-11.644a9.368,9.368,0,0,1-6.851-4.115s.089-2.647.371-5.729c.347-3.647.952-7.884,2.026-9,1.969-2.058,2.421-4.842,6.851-3.083,0,0,6.327-11.152,13.783-2.534l7.714,11.7s1.453,4.842,11.225,10.1c3.906,2.1,5.649,4.567,6.141,6.819A6.012,6.012,0,0,1,595.2,716.67Z" transform="translate(-130.894 -147.621)" fill="#b07473"/>
      <path id="Path_302" data-name="Path 302" d="M595.2,720.947c-.871.734-1.832,1.525-2.84,2.348l-.218.056c-3.768.807-18.334.807-18.334.807s-14.727-11.386-19.181-11.644a9.367,9.367,0,0,1-6.851-4.115s.089-2.647.371-5.729c4.535,1.356,11.4,3.752,13.242,6.334,2.824,3.93,11.4,9.417,11.4,9.417s15.994-1.541,23.095-1.751A6.012,6.012,0,0,1,595.2,720.947Z" transform="translate(-130.894 -151.899)" opacity="0.1"/>
      <path id="Path_303" data-name="Path 303" d="M519.216,225.123l-21.061,22.264s-25.524-1.88-21.07-9.417c2.268-3.841,2.623-11.878,2.421-18.867-.186-6.738-.88-12.475-.88-12.475s35.8-17.818,33.085-1.2a27.345,27.345,0,0,0-.1,9.482C513.14,223.3,519.216,225.123,519.216,225.123Z" transform="translate(-117.146 -54.54)" fill="#d38884"/>
      <path id="Path_304" data-name="Path 304" d="M512.173,205.425a27.344,27.344,0,0,0-.1,9.482,26.274,26.274,0,0,1-18.738,7.819c-4.842,0-10.079-3.978-13.993-6.278-.186-6.746-.226-9.821-.226-9.821S514.916,188.81,512.173,205.425Z" transform="translate(-117.639 -54.54)" opacity="0.1"/>
      <path id="Path_305" data-name="Path 305" d="M516.8,187.862a26.379,26.379,0,1,1-9.926-20.61A26.379,26.379,0,0,1,516.8,187.862Z" transform="translate(-114.728 -47.427)" fill="#d38884"/>
      <path id="Path_306" data-name="Path 306" d="M551.292,438.232c-6.569,15.631-48.821,15.953-48.821,15.953V437.142l-2.558-.169c1.106,4.882-1.549,16.785-1.549,16.785-33.392,4.713-41.534-14.315-41.534-14.315l1.162-6.512,26.016,2.316s63.257-4.253,66.09-.718a11.873,11.873,0,0,1,1.194,3.7Z" transform="translate(-113.336 -99.827)" opacity="0.1"/>
      <path id="Path_307" data-name="Path 307" d="M502.471,412.485V395.443l-2.558-.161c1.106,4.842-1.549,16.785-1.549,16.785-25.129,3.543-35.958-6.351-39.775-11.467a15.617,15.617,0,0,1-1.759-2.84l10.2-57.374,2.421-84.44,3.656-14.816.847-7.109v-.081h.089l2.6,1.114,15.55,6.722,17.664-13.339.258-.186.88-.67,1.461,1.17,3.631,2.913,11.644,75.2s20.174,57.9,23.95,81.268c.153.936.274,1.808.371,2.623C554.544,412.09,502.471,412.485,502.471,412.485Z" transform="translate(-113.336 -60.185)" fill="#2e7eb7"/>
      <circle id="Ellipse_123" data-name="Ellipse 123" cx="1.501" cy="1.501" r="1.501" transform="translate(379.242 181.751)" fill="#67647e"/>
      <circle id="Ellipse_124" data-name="Ellipse 124" cx="1.501" cy="1.501" r="1.501" transform="translate(379.936 195.453)" fill="#67647e"/>
      <circle id="Ellipse_125" data-name="Ellipse 125" cx="1.501" cy="1.501" r="1.501" transform="translate(381.436 217.636)" fill="#67647e"/>
      <circle id="Ellipse_126" data-name="Ellipse 126" cx="1.501" cy="1.501" r="1.501" transform="translate(383.914 241.53)" fill="#67647e"/>
      <circle id="Ellipse_127" data-name="Ellipse 127" cx="1.501" cy="1.501" r="1.501" transform="translate(385.415 263.963)" fill="#67647e"/>
      <circle id="Ellipse_128" data-name="Ellipse 128" cx="1.501" cy="1.501" r="1.501" transform="translate(386.916 287.857)" fill="#67647e"/>
      <circle id="Ellipse_129" data-name="Ellipse 129" cx="1.501" cy="1.501" r="1.501" transform="translate(386.319 311.493)" fill="#67647e"/>
      <path id="Path_308" data-name="Path 308" d="M474.952,350.193s-1.678,21.973-4.761,28.364-4.454,24.322-4.454,24.322l-7.158-.807a15.619,15.619,0,0,1-1.759-2.84l10.2-57.374,2.421-84.44,3.664-14.824.847-7.109.1-.04a2.889,2.889,0,0,1,2.55.04l.339.178q-.153.436-.291.9c-2.792,8.739-3.833,24.846-3.833,24.846s4.035,29.462,4.454,43.164S474.952,350.193,474.952,350.193Z" transform="translate(-113.335 -61.649)" opacity="0.1"/>
      <path id="Path_309" data-name="Path 309" d="M454.4,437.216a4.137,4.137,0,0,1-.274.533c-2.776,4.688-9.813,7.666-11.951,8.481-.4-.718-.629-1.138-.629-1.138l1.485-6.964,7.852-3.228a21.934,21.934,0,0,1,3.518,2.316Z" transform="translate(-110.387 -100.207)" opacity="0.1"/>
      <path id="Path_310" data-name="Path 310" d="M430.006,298.81l-6.512,3.881-5.931,26.379s-7.424,22.377-1.719,38.363,9.022,25.137,9.022,25.137,2.284,18.156,5.713,19.641,4.906,2.284,4.906,2.284l.686,4.341s9.3-3.155,12.58-8.715-2.421-19.367-2.421-19.367-4.906-11.765-3.647-17.245-2.518-19.867-2.518-20.174-.339-8,2.421-13.88.92-8.392.92-8.392l-1.719-16.785Z" transform="translate(-105.008 -73.935)" fill="#67647e"/>
      <path id="Path_311" data-name="Path 311" d="M564.417,393.788s-17.245,6.5-22.724.807-4.914-32.432-4.914-32.432-5.245-49.329-8.562-57.431-1.614-66.574-1.614-66.574-2.227-7.561-4.172-9.538a2.115,2.115,0,0,0-.412-.331l.67.145,2.34.5,3.631,2.913,11.644,75.2s20.174,57.9,23.95,81.268Z" transform="translate(-125.921 -60.322)" opacity="0.1"/>
      <path id="Path_312" data-name="Path 312" d="M594.012,434.4h-.194c-2.171.282-21.328,2.6-21.408-1.388a11.672,11.672,0,0,1,.073-1.38l17.753-1.816,3.518,3.615h0c.065.234.113.436.161.6Z" transform="translate(-135.649 -99.226)" opacity="0.1"/>
      <path id="Path_313" data-name="Path 313" d="M575.629,266.07l12.588,6.569s10.49,27.162,12.169,38.806c0,0,7.771,31.2,2.421,44.027s-4.906,38.3-4.906,38.3-3.083,4.68-4.341,3.43.46,4.906.46,4.906-21.521,2.857-21.61-1.372,4.939-24.435,4.939-24.435,1.372-48.07-.573-55.607S575.629,266.07,575.629,266.07Z" transform="translate(-135.648 -67.615)" fill="#67647e"/>
      <path id="Path_314" data-name="Path 314" d="M527.391,329.52s-7.085,17.35-9.369,18.5.46,5.705.46,5.705S531.386,335.685,527.391,329.52Z" transform="translate(-124.974 -79.864)" opacity="0.1"/>
      <path id="Path_315" data-name="Path 315" d="M521.966,254.1c.081-.331-8.449,8.368-10.732,9.683S519.569,263.7,521.966,254.1Z" transform="translate(-123.777 -65.302)" opacity="0.1"/>
      <path id="Path_316" data-name="Path 316" d="M492.44,327.82s-13.016,8.417-11.3,11.749S492.44,327.82,492.44,327.82Z" transform="translate(-118 -79.536)" opacity="0.1"/>
      <path id="Path_317" data-name="Path 317" d="M524.47,480.07s11.079,7.125,28.316,8.876Z" transform="translate(-126.394 -108.927)" opacity="0.1"/>
      <path id="Path_318" data-name="Path 318" d="M491.5,501.3s10.273,12.911,14.961,13.242S491.5,501.3,491.5,501.3Z" transform="translate(-120.029 -113.025)" opacity="0.1"/>
      <path id="Path_319" data-name="Path 319" d="M506.365,564c-.46.226-5.826,11.644-11.3,11.991S506.365,564,506.365,564Z" transform="translate(-120.506 -125.129)" opacity="0.1"/>
      <path id="Path_320" data-name="Path 320" d="M568.33,594.919s10.184-2.284,12.451,5.019C580.781,599.914,580.1,597.63,568.33,594.919Z" transform="translate(-134.861 -131.033)" opacity="0.1"/>
      <path id="Path_321" data-name="Path 321" d="M559.84,646.547s12.338-2.518,14.961.912S559.84,646.547,559.84,646.547Z" transform="translate(-133.222 -140.893)" opacity="0.1"/>
      <path id="Path_322" data-name="Path 322" d="M513.691,654c0,.113-12.556,2.518-12.1,4.115s13.4,1.372,13.855-1.146a2.421,2.421,0,0,0-1.751-2.97Z" transform="translate(-121.974 -142.504)" opacity="0.1"/>
      <path id="Path_323" data-name="Path 323" d="M554.75,667.246s20.634-2.518,19.367,1.824S554.75,667.246,554.75,667.246Z" transform="translate(-132.24 -144.921)" opacity="0.1"/>
      <path id="Path_324" data-name="Path 324" d="M420.89,352.44c.113.339,13.589,2.171,15.413,6.512,0,0-13.242-6.173-15.332-6.173" transform="translate(-106.398 -84.288)" opacity="0.1"/>
      <path id="Path_325" data-name="Path 325" d="M441.884,396.16s-11.192,3.543-10.394,8.876S430.352,402.567,441.884,396.16Z" transform="translate(-108.437 -92.728)" opacity="0.1"/>
      <path id="Path_326" data-name="Path 326" d="M437.92,428.717s4.075-5.592,7.957-4.567S437.92,428.717,437.92,428.717Z" transform="translate(-109.686 -98.108)" opacity="0.1"/>
      <path id="Path_327" data-name="Path 327" d="M506.882,167.251a6.35,6.35,0,0,1-1.307.976c-3.228,1.88-4.115,4.777-5.649,8.118-1.428,3.058-3,6.294-5.883,8.029-3.72,2.243-8.618,1.42-12.484,3.373a9.683,9.683,0,0,0-5.165,9.546,27.538,27.538,0,0,0,1.1,4.374,31.19,31.19,0,0,1,1.178,9.5,1.629,1.629,0,0,1,0,.282,26.371,26.371,0,1,1,28.243-44.2Z" transform="translate(-114.737 -47.425)" opacity="0.1"/>
      <path id="Path_328" data-name="Path 328" d="M503.045,155.649c-2.9-6.084-9.2-9.942-15.679-11.822-4.947-1.428-10.321-1.9-15.227-.323a55.858,55.858,0,0,0-7.965,3.736c-4.89,2.469-10.264,4.422-13.944,8.481a4.25,4.25,0,0,0-1.4,3.405,9.508,9.508,0,0,0,1.38,2.469,7.493,7.493,0,0,1,.073,6.205,56.92,56.92,0,0,0-2.276,5.963c-.5,2.074-.307,4.5,1.227,5.98a22.364,22.364,0,0,0,2.308,1.614,12.144,12.144,0,0,1,2.187,2.485l4.358,5.955a60.4,60.4,0,0,1,5.455,8.384,39.954,39.954,0,0,0,3.373,6.4c1.453,1.929,3.712,3.478,6.117,3.268a1.186,1.186,0,0,0,.968-.46,1.275,1.275,0,0,0,.121-.605,30.971,30.971,0,0,0-1.154-9.466,27.321,27.321,0,0,1-1.1-4.374,9.724,9.724,0,0,1,5.164-9.546c3.873-1.953,8.772-1.13,12.484-3.365,2.889-1.743,4.462-4.979,5.883-8.07,1.557-3.341,2.421-6.238,5.649-8.118S504.651,158.853,503.045,155.649Z" transform="translate(-111.587 -43.764)" fill="#585268"/>
      <path id="Path_329" data-name="Path 329" d="M501.63,693.06s4.035,5.14,2.986,8.07S501.63,693.06,501.63,693.06Z" transform="translate(-121.985 -150.044)" opacity="0.1"/>
      <path id="Path_330" data-name="Path 330" d="M569.28,707.314s.9-6.891,4.487-6.956,3.768-.371,6.512.686,5.318,2.7,4.495,2.937-4.721-3.938-8.723-1.8a28.821,28.821,0,0,0-6.77,5.132Z" transform="translate(-135.045 -151.435)" opacity="0.1"/>
      <path id="Path_331" data-name="Path 331" d="M484.193,251.947l11.3-7.916s-16.526-9.764-18.5-8.392-3.325,13.718-3.325,13.718Z" transform="translate(-116.587 -61.715)" opacity="0.1"/>
      <path id="Path_332" data-name="Path 332" d="M484.133,251.28l11.3-8.07s-16.526-9.764-18.5-8.392-3.325,14.4-3.325,14.4Z" transform="translate(-116.576 -61.557)" fill="#e1e7ef"/>
      <path id="Path_333" data-name="Path 333" d="M484.133,251.28l11.3-8.07s-16.526-9.764-18.5-8.392-3.325,14.4-3.325,14.4Z" transform="translate(-116.576 -61.557)" fill="#2e7eb7"/>
      <path id="Path_334" data-name="Path 334" d="M469.562,234.813l-.339-.169a2.929,2.929,0,0,0-3.171.331l-33.892,27.493s-7.367,10.192-6.343,27.775L445.8,318.559s2.284-9.587,5.019-7.763c0,0,3.881,49.1,0,56.18s-5.592,33.569-5.592,33.569l13.129,1.485s1.372-17.93,4.454-24.322,4.761-28.364,4.761-28.364,2.776-31.923,2.316-45.625-4.454-43.164-4.454-43.164S466.56,243.286,469.562,234.813Z" transform="translate(-107.331 -61.487)" fill="#67647e"/>
      <path id="Path_335" data-name="Path 335" d="M518.521,245.553,504.44,240.34s17.93-19.641,20.174-8.747Z" transform="translate(-122.527 -60.324)" opacity="0.1"/>
      <path id="Path_336" data-name="Path 336" d="M518.521,244.7,504.44,239.49s17.93-19.641,20.174-8.747Z" transform="translate(-122.527 -60.16)" fill="#e1e7ef"/>
      <path id="Path_337" data-name="Path 337" d="M518.521,244.7,504.44,239.49s17.93-19.641,20.174-8.747Z" transform="translate(-122.527 -60.16)" fill="#2e7eb7"/>
      <path id="Path_338" data-name="Path 338" d="M521.32,228.118a.807.807,0,0,1,.581.129Z" transform="translate(-125.786 -60.287)" opacity="0.1"/>
      <path id="Path_339" data-name="Path 339" d="M523,226.427l37.362,8.07s10.281,2.284,17.7,28.09S567.9,320.009,567.9,320.009l-3.881-3.3,1.945,75.361s-17.245,6.5-22.724.807-4.906-32.456-4.906-32.456-5.253-49.321-8.57-57.431-1.614-66.566-1.614-66.566S525.1,225.975,523,226.427Z" transform="translate(-126.11 -59.959)" fill="#67647e"/>
      <path id="Path_340" data-name="Path 340" d="M565.243,285.859c-.525.484-1.138,23.289,1.146,40.646a221.524,221.524,0,0,0,6.456,31.286l-3.389-69.535S566.841,284.374,565.243,285.859Z" transform="translate(-134.171 -71.37)" opacity="0.1"/>
      <path id="Path_341" data-name="Path 341" d="M559.7,261.6c.912.573,4.914,10.047,3.083,13.928S559.7,261.6,559.7,261.6Z" transform="translate(-133.195 -66.752)" opacity="0.1"/>
      <path id="Path_342" data-name="Path 342" d="M507.658,156.732a20.626,20.626,0,0,0-8.215-8.6,19.536,19.536,0,0,1,6.157,7.263c1.614,3.228,1.138,6.456-2,8.223s-4.115,4.777-5.649,8.118c-1.428,3.058-3,6.294-5.891,8.07-3.712,2.243-8.61,1.412-12.484,3.365a9.748,9.748,0,0,0-5.165,9.554,27.443,27.443,0,0,0,1.106,4.366,31.214,31.214,0,0,1,1.178,9.5,1.273,1.273,0,0,1-.129.605,1.154,1.154,0,0,1-.96.46,5.56,5.56,0,0,1-2.816-.524,6.552,6.552,0,0,0,4.842,1.9.952.952,0,0,0,1.081-1.065,30.964,30.964,0,0,0-1.17-9.5,26.517,26.517,0,0,1-1.106-4.374,9.724,9.724,0,0,1,5.164-9.546c3.873-1.953,8.772-1.13,12.484-3.365,2.889-1.743,4.463-4.979,5.883-8.07,1.557-3.341,2.421-6.238,5.649-8.118S509.272,159.936,507.658,156.732Z" transform="translate(-116.417 -44.847)" opacity="0.1"/>
      <path id="Path_343" data-name="Path 343" d="M763.239,262.507c-11.12-.218-20.932-8.07-26.492-17.664a17.752,17.752,0,0,1-2.679-7.561,8.726,8.726,0,0,1,.307-1.808,18.756,18.756,0,0,0,.807-2.768,4.84,4.84,0,0,0,0-1.13s0,0,0-.065c.266-2.042-.936-4.035-2.421-5.431s-3.349-2.421-4.9-3.809c-4.777-4.2-6.23-10.926-6.318-17.333V204.6c.056-2.744.274-5.5.25-8.239a34.65,34.65,0,0,0-.2-4.664c-.46-3.881-1.937-7.836-4.987-10.313-7.957-6.456-21.336.266-29.575-5.834-2-1.493-3.623-3.7-6.052-4.277-1.832-.444-3.736.153-5.528.75-6.068,2-12.839,4.632-15.211,10.49-1.356,3.365-.976,7.206-2.219,10.611-.807,2.284-2.348,4.245-3.47,6.407a10.03,10.03,0,0,0-1.291,5.35,6.036,6.036,0,0,0,.4,2.849,7.263,7.263,0,0,0,1.977,2.832,9.4,9.4,0,0,1-1.178,1.888c-1.549,1.9-3.93,3.228-5.544,5.116-2.986,3.462-2.873,8.166-1.4,12.233s4.124,7.771,5.955,11.733c.807,1.719,1.42,3.639.605,5.35A15.34,15.34,0,0,1,651.388,250a9.789,9.789,0,0,0-2.421,5.407c-18.165,4.148-18.181,18.746-18.181,18.746h0l-9.813,24.677s-1.574,4.156-3.421,9.643l-11.612-2.082,8.07,13.508c-1.525,5.5-2.606,10.6-2.251,13.169,0,0-3.607,16.946,2.808,19.908l14.154,6.367a8.386,8.386,0,0,0,1.961.88l.573.258a1.517,1.517,0,0,0,1.323,0h.194a1.9,1.9,0,0,0,.807-.121,1.614,1.614,0,0,0,.71-.767.244.244,0,0,1,0-.081l4.236-1.227,3.591,4.253c1.614,1.138,3.228,2.122,4.753,3.01l-5.56,55.212s-.9,73.433-3.607,90.169a46.871,46.871,0,0,0-.629,13.3l-.1.178c.67,4.721,2.421,5.649,2.421,5.649v-.065a.529.529,0,0,0,.1.065,47.545,47.545,0,0,1,2.905-6.23v1.21c-.057,6.23-.25,14.953-.9,20.626-1.1,9.683,2.808,41.6,2.808,41.6l1.348,29.05a26.856,26.856,0,0,1-3.309,14.154c-3.228,5.8-7.351,13.968-7.65,17.592a3.623,3.623,0,0,0,0,.589h0l-6.924,8.328s-2.7,4.18,3.405,5.867c3.284.912,8.949,0,13.5-1.073a9.022,9.022,0,0,0,7-8.78,31.068,31.068,0,0,1,5.713-10.967l1.138,6.69,7.618,1.888.976-18.334a8.07,8.07,0,0,0,.525-3.228h0c1.5-13.04-3.534-11.87-3.534-11.87a.7.7,0,0,1,.242.452l-.242-.444h0c-3.091-6.1-1.614-16.139-1.614-16.139s4.035-29.05,5.415-36.724c.992-5.423.581-23.176.25-33.085a11.813,11.813,0,0,0-.04-1.2c11.814-.153,26.291-.549,36.45-1.533v1.194L702.7,598.313a37.677,37.677,0,0,1-2.631,12.766.7.7,0,0,1-.089.234,55.679,55.679,0,0,0-3.72,17.987l-.872,21.788v.605h0c-1.517.581-3.914,2.268-3.978,7.158-.1,7.166,12.524,4.777,12.524,4.777,12.621,0,12.726-13.137,12.726-13.137s.4-12.048,1-20.109-1.9-6.286-1.9-6.286l-.194,22.934V627.105l.194-2.913v-.081h0v-.621l1.59-23.652s11.628-39.412,13.428-46.973c1.283-5.374.75-21.562.331-30.511a7.112,7.112,0,0,0-.065-1.186c3.607-.323,6.794-.355,8.07-.355h.589s-.6-63.3-2.106-87.151-3.906-45.682-9.917-52.25c-3.631-3.97-8.691-16.228-12.1-25.306a126.592,126.592,0,0,0,22.248,7.263c19.036,3.986,16.43-12.54,16.43-12.54l-1.929-31.253h.129a159.352,159.352,0,0,0-2.1-24.435,71.888,71.888,0,0,0-4.906-17.753c2.066-.807,4.107-1.67,6.109-2.558,5.173-2.284,11-5.52,11.741-11.1h-.25a7.191,7.191,0,0,0,.194-1.227Zm-118,45.189h0c.04,3.228-.081,8.828-.274,15.017l-6.044-8.07,6.06-9.829ZM726.224,324.086Zm2.518,12.209-10.071-3.228a45.187,45.187,0,0,1,6.222-7.7l.872-.807-.315.065.484-.444.29-.065-.46.444.549-.113a17.18,17.18,0,0,0,3.43,6.9c3.615,3.946-.993,4.947-.993,4.947Z" transform="translate(-142.122 -49.285)" fill="url(#linear-gradient-2)"/>
      <path id="Path_344" data-name="Path 344" d="M648.693,715.66,647.514,738,640,736.116l-1.582-9.288Z" transform="translate(-123.247 -138.155)" fill="#a27772"/>
      <path id="Path_345" data-name="Path 345" d="M648.693,715.66,647.514,738,640,736.116l-1.582-9.288Z" transform="translate(-123.247 -138.155)" opacity="0.1"/>
      <path id="Path_346" data-name="Path 346" d="M716.48,733.058l11.459,2.372,8.5-7.5v-21.15l.194-2.889V703.8h0v-.613l1.582-23.507s11.467-39.129,13.25-46.642c1.259-5.326.734-21.4.315-30.285-.169-3.639-.315-6.076-.315-6.076l-25.3-6.125L725.631,610l-1.848,68.139a37.759,37.759,0,0,1-2.59,12.677l-.089.234a55.455,55.455,0,0,0-3.672,17.85l-.855,21.667v.6Z" transform="translate(-163.461 -130.255)" fill="#cc818c"/>
      <path id="Path_347" data-name="Path 347" d="M741.45,730.146v.6h0v-.613Z" transform="translate(-168.281 -157.2)" opacity="0.1"/>
      <path id="Path_348" data-name="Path 348" d="M716.48,765.492l11.459,2.372,8.5-7.5v-1.8a2.421,2.421,0,0,1-1.219,1.937l-.121.073a22.836,22.836,0,0,1-12.863,2.542l-4.47-.379a4.187,4.187,0,0,0-1.186.291v.6Z" transform="translate(-163.461 -162.688)" opacity="0.1"/>
      <path id="Path_349" data-name="Path 349" d="M734.174,755.777l.121-.065a2.421,2.421,0,0,0,1.235-2.1l.186-22.764s2.469-1.767,1.872,6.238-.984,19.964-.984,19.964-.1,13.04-12.548,13.04c0,0-12.451,2.372-12.354-4.745s5.14-7.408,5.14-7.408l4.471.387A22.781,22.781,0,0,0,734.174,755.777Z" transform="translate(-162.538 -157.307)" fill="#b07473"/>
      <path id="Path_350" data-name="Path 350" d="M642.52,730c.291,5.14,15.413,2.171,15.413,2.171l10.176-19.754s8.5-6.528,4.245-12.258a9.116,9.116,0,0,1-.621-.976l-.04-.048h0c-.089-.145-.169-.3-.25-.46h0c-3.05-6.052-1.549-15.978-1.549-15.978s3.946-28.857,5.334-36.466c.976-5.374.573-23.006.25-32.867-.129-4.1-.25-6.851-.25-6.851l-25.1-6.722v7.489c-.057,6.189-.25,14.848-.888,20.48-1.081,9.579,2.768,41.3,2.768,41.3l1.332,28.865a26.734,26.734,0,0,1-3.228,14.049c-3.147,5.762-7.262,13.88-7.545,17.47a3.527,3.527,0,0,0-.04.557Z" transform="translate(-149.183 -132.038)" fill="#cc818c"/>
      <path id="Path_351" data-name="Path 351" d="M642.518,753.778c.29,5.14,15.413,2.171,15.413,2.171l10.176-19.754s8.5-6.528,4.245-12.258a9.13,9.13,0,0,1-.621-.976c-.137,2.994-3.422,10.49-3.422,10.49s-8.4,16.809-11.071,20.658-14.275-.718-14.711-.88A3.52,3.52,0,0,0,642.518,753.778Z" transform="translate(-149.182 -155.816)" opacity="0.1"/>
      <path id="Path_352" data-name="Path 352" d="M669.646,722.294s4.971-1.154,3.486,11.79h0a8.336,8.336,0,0,1-3.93,7.4c-3.559,2.235-9.046,7.045-11.822,16.4h0a8.941,8.941,0,0,1-6.9,8.715c-4.487,1.049-10.079,1.969-13.315,1.065-6.028-1.678-3.357-5.826-3.357-5.826l6.916-8.207s12.056,4.745,14.719.888,11.071-20.65,11.071-20.65S671.122,723.383,669.646,722.294Z" transform="translate(-147.388 -155.682)" fill="#b07473"/>
      <path id="Path_353" data-name="Path 353" d="M728.353,593.52l-.533,19.448c6.738-.654,11.564-1.565,12.387-2.849,1.783-2.76,8.255-3.922,13.759-4.4-.169-3.639-.315-6.076-.315-6.076Z" transform="translate(-165.65 -130.828)" opacity="0.1"/>
      <path id="Path_354" data-name="Path 354" d="M651.94,610.208a9.231,9.231,0,0,1,2.768-3.341c2.663-1.477,2.372,9.49,2.372,9.49s8.876.081,20.214-.065c-.129-4.1-.25-6.859-.25-6.859l-25.1-6.714S651.988,605.835,651.94,610.208Z" transform="translate(-151.002 -132.604)" opacity="0.1"/>
      <path id="Path_355" data-name="Path 355" d="M647.764,571.389s2.97-8.07,5.649-9.506,2.372,9.482,2.372,9.482,65.218.6,68.478-4.446,22.232-4.745,22.232-4.745-.589-62.846-2.074-86.554-3.849-45.359-9.78-51.879c-3.833-4.22-9.288-17.874-12.661-26.976-1.832-4.971-3.05-8.594-3.05-8.594l-62.248,3.551-.508,5.043-6.609,66.106s-.888,72.924-3.559,89.524S647.764,571.389,647.764,571.389Z" transform="translate(-149.691 -91.186)" fill="#444053"/>
      <g id="Group_36" data-name="Group 36" transform="translate(495.532 296.984)" opacity="0.1">
        <path id="Path_356" data-name="Path 356" d="M722.613,566.918c3.228-5.035,22.232-4.745,22.232-4.745s-.589-62.846-2.074-86.554-3.849-45.359-9.78-51.879c-3.849-4.236-9.288-17.874-12.661-26.976-1.541-4.18-2.647-7.4-2.953-8.32l4.842-.274s1.219,3.623,3.058,8.594c3.373,9.1,8.82,22.756,12.653,26.976,5.931,6.52,8.3,28.163,9.78,51.879s2.082,86.554,2.082,86.554-18.971-.291-22.24,4.745c-2.784,4.3-50.774,4.5-64.7,4.462C680.724,571.34,720.1,570.808,722.613,566.918Z" transform="translate(-648.639 -388.17)"/>
        <path id="Path_357" data-name="Path 357" d="M648.363,603.407c1.2-.67,1.8,1.186,2.1,3.438a46.545,46.545,0,0,0-2.8,6.068s-1.719-.928-2.421-5.649C646.224,605.578,647.314,603.988,648.363,603.407Z" transform="translate(-645.24 -429.694)"/>
      </g>
      <path id="Path_358" data-name="Path 358" d="M669.26,197.607c-4.309,5.875.048,14.227-4.575,19.94-1.525,1.888-3.873,3.228-5.463,5.084-2.945,3.438-2.832,8.11-1.388,12.145s4.035,7.715,5.875,11.652c.807,1.7,1.4,3.615.6,5.31a15.04,15.04,0,0,1-2.647,3.091c-2.97,3.317-3.05,7.924-1.453,11.83s4.648,7.263,7.658,10.571c1.186,1.3,2.687,2.736,4.664,2.7a6.455,6.455,0,0,0,2.929-.96A29.857,29.857,0,0,0,689.047,240c-2.5-6-6.674-11.741-6.714-18.076,0-5.027,2.582-9.829,3.042-14.832.557-6.084-3.042-15.744-10.385-18.4C675.474,192.6,671.447,194.589,669.26,197.607Z" transform="translate(-151.949 -52.677)" fill="#585268"/>
      <path id="Path_359" data-name="Path 359" d="M669.26,197.607c-4.309,5.875.048,14.227-4.575,19.94-1.525,1.888-3.873,3.228-5.463,5.084-2.945,3.438-2.832,8.11-1.388,12.145s4.035,7.715,5.875,11.652c.807,1.7,1.4,3.615.6,5.31a15.04,15.04,0,0,1-2.647,3.091c-2.97,3.317-3.05,7.924-1.453,11.83s4.648,7.263,7.658,10.571c1.186,1.3,2.687,2.736,4.664,2.7a6.455,6.455,0,0,0,2.929-.96A29.857,29.857,0,0,0,689.047,240c-2.5-6-6.674-11.741-6.714-18.076,0-5.027,2.582-9.829,3.042-14.832.557-6.084-3.042-15.744-10.385-18.4C675.474,192.6,671.447,194.589,669.26,197.607Z" transform="translate(-151.949 -52.677)" opacity="0.1"/>
      <path id="Path_360" data-name="Path 360" d="M720.138,464.55c-8.626.452-16.744,4.164-24.3,8.36s-14.864,8.949-22.99,11.927" transform="translate(-155.038 -105.931)" opacity="0.1"/>
      <path id="Path_361" data-name="Path 361" d="M715.123,489.74a35.562,35.562,0,0,0-22.393,10.894c-2.1,2.219-3.906,4.7-6.093,6.835a27.066,27.066,0,0,1-12.008,6.8" transform="translate(-155.382 -110.794)" opacity="0.1"/>
      <path id="Path_362" data-name="Path 362" d="M715.319,508.91a39.153,39.153,0,0,0-18.011,10.862c-1.323,1.428-2.526,2.953-3.849,4.382-7.142,7.666-17.229,11.733-26.968,15.582" transform="translate(-153.81 -114.494)" opacity="0.1"/>
      <path id="Path_363" data-name="Path 363" d="M717.9,242.96a177.069,177.069,0,0,0,1.775,20.594c.807,4.842,1.937,9.2,3.559,11.128,4.745,5.649-23.119,13.194-23.119,13.194l-16.454-12.75s13.04-12.008,6.964-23.716S717.9,242.96,717.9,242.96Z" transform="translate(-157.125 -63.073)" fill="#cc818c"/>
      <path id="Path_364" data-name="Path 364" d="M658.79,396.764H724.6c-1.832-4.971-3.05-8.594-3.05-8.594L659.3,391.721Z" transform="translate(-152.324 -91.186)" opacity="0.1"/>
      <path id="Path_365" data-name="Path 365" d="M650.467,373.2h70.358c-1.977-7.077,0-13.621,2.816-18.657a41.234,41.234,0,0,1,7.367-9.554l.484-.444,24.564-5.439,1.323-.29s.2-44.665-15.615-50.8-25.3-14.42-25.3-14.42l-21.731,6.714-16.01-8.07c-5.14,5.528-18.778,3.357-18.778,3.357-22.328,2.566-22.328,19.367-22.328,19.367s13.04,30.43,14.033,30.43S650.467,373.2,650.467,373.2Z" transform="translate(-148.237 -68.806)" fill="#2e7eb7"/>
      <path id="Path_366" data-name="Path 366" d="M679.04,360.069s-14.348-3.179-19.23-8.739" transform="translate(-152.521 -84.074)" opacity="0.1"/>
      <path id="Path_367" data-name="Path 367" d="M769.309,341.51,752.67,355.148a28.344,28.344,0,0,0,.549,3.228l.484-.444,24.564-5.439Z" transform="translate(-170.447 -82.178)" opacity="0.1"/>
      <path id="Path_368" data-name="Path 368" d="M717.46,386.837s3.639,2.05,9.215,4.745h9.562c-1.977-7.077,0-13.621,2.816-18.657L722.2,367.47C727.934,372.8,717.46,386.837,717.46,386.837Z" transform="translate(-163.65 -87.19)" opacity="0.1"/>
      <path id="Path_369" data-name="Path 369" d="M642.767,293.76l-9.877,5.334L623.206,323.6s-10.079,26.872-9.094,33.989c0,0-3.551,16.8,2.768,19.762l16.462,7.456a1.533,1.533,0,0,0,1.977-2.114c-2.348-4.446-4.931-11.4-.807-15.227l-4.745-9.877,17.148-28.066,5.729-9.683Z" transform="translate(-143.507 -72.961)" fill="#2e7eb7"/>
      <path id="Path_370" data-name="Path 370" d="M677.059,353.581c.855,3.486,3.744,8.876,13.307,10.886l10.49,8.594,11.16,5.06,4.551,2.058,1.929-13.936-4.382-2.421-5.108-2.792s-11.523-20.876-29.769-12.1a4.035,4.035,0,0,0-2.179,4.656Z" transform="translate(-155.826 -83.194)" opacity="0.1"/>
      <path id="Path_371" data-name="Path 371" d="M677.8,352.122c.855,3.494,3.736,8.876,13.3,10.886l10.491,8.594,11.168,5.06,4.543,2.058,1.929-13.936-4.382-2.421-5.068-2.768s-11.531-20.876-29.777-12.064a4.035,4.035,0,0,0-2.2,4.592Z" transform="translate(-155.973 -82.922)" fill="#cc818c"/>
      <circle id="Ellipse_130" data-name="Ellipse 130" cx="25.492" cy="25.492" r="25.492" transform="translate(516.9 146.979)" opacity="0.1"/>
      <circle id="Ellipse_131" data-name="Ellipse 131" cx="25.492" cy="25.492" r="25.492" transform="translate(516.9 146.39)" fill="#cc818c"/>
      <path id="Path_372" data-name="Path 372" d="M721.046,294.41l-7.666-14.9s11.217-4.535,12.032-9.788,10.749,6.157,8.6,9.942S721.046,294.41,721.046,294.41Z" transform="translate(-162.862 -68.058)" opacity="0.1"/>
      <path id="Path_373" data-name="Path 373" d="M721.046,292.94l-7.666-14.9s11.217-4.535,12.032-9.788,10.749,6.165,8.6,9.942S721.046,292.94,721.046,292.94Z" transform="translate(-162.862 -67.775)" fill="#2e7eb7"/>
      <path id="Path_374" data-name="Path 374" d="M637.817,345.536l42.357,56.947s-15.615,8.5-37.12-6.714L633.766,384.7,607.25,340Z" transform="translate(-142.374 -81.887)" fill="#f6f8fb"/>
      <path id="Path_375" data-name="Path 375" d="M634.563,381.72l3.857-.1s23.563-22.869,29.349-11.3S653.09,392.7,653.09,392.7l-6.222,3.357-8.11,2.421-5.189-6.964Z" transform="translate(-147.455 -87.109)" fill="#cc818c"/>
      <path id="Path_376" data-name="Path 376" d="M638.975,397c.355,1.315.694,2.768.1,3.986a1.614,1.614,0,0,1-.7.767,1.8,1.8,0,0,1-.807.113,8.11,8.11,0,0,1-5.318-2.631,24.288,24.288,0,0,1-3.446-4.987c-1.049-1.832-2.138-3.857-1.767-5.939.42-2.268,2.421-3.841,4.382-5.116,3.906-2.582,4.035.428,4.89,3.752S638.079,393.647,638.975,397Z" transform="translate(-146.179 -90.038)" opacity="0.1"/>
      <path id="Path_377" data-name="Path 377" d="M638.244,397c.347,1.315.694,2.768.1,3.986a1.614,1.614,0,0,1-.7.767,1.816,1.816,0,0,1-.807.113,8.069,8.069,0,0,1-5.318-2.631,24.009,24.009,0,0,1-3.454-4.987c-1.049-1.832-2.138-3.857-1.759-5.939.412-2.268,2.421-3.841,4.374-5.116,3.914-2.582,4.035.428,4.9,3.752S637.341,393.647,638.244,397Z" transform="translate(-146.037 -90.038)" fill="#2e7eb7"/>
      <path id="Path_378" data-name="Path 378" d="M623.85,317.143l1.969-3.333L624.1,320Z" transform="translate(-120.434 -60.579)" opacity="0.1"/>
      <path id="Path_379" data-name="Path 379" d="M721.19,380.729l4.543,2.058,1.929-13.936-4.382-2.421C726.306,369.9,723.659,376.315,721.19,380.729Z" transform="translate(-164.37 -86.989)" opacity="0.1"/>
      <path id="Path_380" data-name="Path 380" d="M738.79,363.357s-14.67.9-20.9-3.107" transform="translate(-163.733 -85.796)" opacity="0.1"/>
      <g id="Group_37" data-name="Group 37" transform="translate(510.775 204.596)" opacity="0.1">
        <path id="Path_381" data-name="Path 381" d="M739.966,356.336a41.3,41.3,0,0,1,7.367-9.562A19.664,19.664,0,0,1,749.5,345.6l22.869-4.7,1.323-.291s.2-44.665-15.607-50.8a95,95,0,0,1-24.661-13.888l1.735-.533s9.482,8.3,25.3,14.42,15.607,50.8,15.607,50.8H773.7l-23.4,4.479s-1.009.976-1.315,1.259a45.349,45.349,0,0,0-7.48,9.893,24.805,24.805,0,0,0-1.961,18.754h-2.421C735.165,367.915,737.182,361.371,739.966,356.336Z" transform="translate(-677.508 -274.01)"/>
        <path id="Path_382" data-name="Path 382" d="M664.13,277.963c.379-.057.742-.113,1.138-.153a40.911,40.911,0,0,0,4.842.4,44.01,44.01,0,0,1-5.979-.242Z" transform="translate(-664.13 -274.477)"/>
        <path id="Path_383" data-name="Path 383" d="M702.237,281.774l-14.477-7.327a7.653,7.653,0,0,0,.807-.767l15.106,7.642Z" transform="translate(-668.692 -273.68)"/>
      </g>
      <path id="Path_384" data-name="Path 384" d="M763.226,340l9.683,11.862,1.977,32.214s2.566,16.4-16.2,12.443-40.493-16.171-40.493-16.171,10.49-14.033,4.745-19.367l26.88,8.7s4.543-.993.984-4.939-4.188-11.071-4.188-11.071Z" transform="translate(-163.791 -81.887)" fill="#2e7eb7"/>
      <path id="Path_385" data-name="Path 385" d="M779.42,382.17l5.334,6.125a7.69,7.69,0,0,1-5.334-6.125Z" transform="translate(-175.611 -90.028)" opacity="0.1"/>
      <path id="Path_386" data-name="Path 386" d="M736.99,360.8l8.3,10.668-4.148.993Z" transform="translate(-142.276 -69.65)" opacity="0.1"/>
      <path id="Path_387" data-name="Path 387" d="M665.48,210.222c-.912-2.235-.21-4.842.888-6.948s2.607-4.1,3.43-6.367c1.218-3.373.847-7.19,2.179-10.49,2.348-5.85,9.022-8.465,15-10.49,1.767-.589,3.647-1.178,5.455-.742,2.421.573,3.994,2.768,5.971,4.245,8.118,6.052,21.32-.613,29.171,5.794,3,2.421,4.463,6.383,4.914,10.232s0,7.755-.048,11.636c-.129,6.795,1.146,14.227,6.23,18.729,1.533,1.356,3.341,2.372,4.842,3.777s2.679,3.365,2.421,5.4a18.732,18.732,0,0,1-.807,2.744c-1.009,3.543.5,7.263,2.34,10.49,5.487,9.5,15.163,17.325,26.129,17.543-.734,5.536-6.456,8.747-11.58,11.015-6.456,2.9-13.331,5.737-20.44,5.374s-14.525-4.914-15.768-11.919c-.428-2.421-.371-5.334-2.421-6.593-1.259-.767-2.889-.573-4.245-1.146-1.961-.807-2.929-3.01-3.575-5.035a45.322,45.322,0,0,1-2.106-12.911c-.089-5.2.6-10.87-2.348-15.147-2.727-3.962-7.569-5.971-10.716-9.611-2.9-3.373-6.06-7.44-10.821-8.07C682.99,210.8,669.369,219.752,665.48,210.222Z" transform="translate(-153.534 -50.041)" opacity="0.1"/>
      <path id="Path_388" data-name="Path 388" d="M665.48,208.752c-.912-2.235-.21-4.842.888-6.948s2.607-4.1,3.43-6.367c1.218-3.373.847-7.19,2.179-10.49,2.348-5.858,9.022-8.473,15-10.49,1.767-.589,3.647-1.178,5.455-.742,2.421.573,3.994,2.768,5.971,4.245,8.118,6.052,21.32-.613,29.171,5.794,3,2.421,4.463,6.383,4.914,10.24s0,7.747-.048,11.628c-.129,6.795,1.146,14.227,6.23,18.729,1.533,1.356,3.341,2.372,4.842,3.777s2.679,3.365,2.421,5.4a18.728,18.728,0,0,1-.807,2.744c-1.009,3.543.5,7.263,2.34,10.49,5.5,9.466,15.138,17.317,26.1,17.535-.734,5.536-6.456,8.747-11.58,11.023-6.456,2.889-13.331,5.729-20.44,5.366s-14.525-4.914-15.768-11.919c-.428-2.421-.371-5.334-2.421-6.593-1.259-.767-2.889-.573-4.245-1.146-1.961-.807-2.929-3.01-3.575-5.035a45.272,45.272,0,0,1-2.106-12.911c-.089-5.2.6-10.87-2.348-15.147-2.727-3.962-7.569-5.971-10.716-9.611-2.905-3.373-6.06-7.44-10.821-8.07C682.99,209.333,669.369,218.3,665.48,208.752Z" transform="translate(-153.534 -49.757)" fill="#585268"/>
      <path id="Path_389" data-name="Path 389" d="M686.8,292.739l14.614-11.862s-10.006-5.423-11.2-10.047-9.2,2.195-8.384,6.343S686.8,292.739,686.8,292.739Z" transform="translate(-156.76 -68.235)" opacity="0.1"/>
      <path id="Path_390" data-name="Path 390" d="M687.519,290.531l14.614-11.854s-10.006-5.423-11.152-10.047-9.2,2.195-8.384,6.343S687.519,290.531,687.519,290.531Z" transform="translate(-156.909 -67.811)" fill="#2e7eb7"/>
      <circle id="Ellipse_132" data-name="Ellipse 132" cx="1.162" cy="1.162" r="1.162" transform="translate(544.635 219.629)" opacity="0.1"/>
      <circle id="Ellipse_133" data-name="Ellipse 133" cx="1.162" cy="1.162" r="1.162" transform="translate(544.635 226.085)" opacity="0.1"/>
      <circle id="Ellipse_134" data-name="Ellipse 134" cx="1.162" cy="1.162" r="1.162" transform="translate(544.635 232.533)" opacity="0.1"/>
      <g id="Group_38" data-name="Group 38" transform="translate(511.709 132.591)" opacity="0.1">
        <path id="Path_391" data-name="Path 391" d="M672.527,194.376c1.154-3.171.9-6.73,1.985-9.926a10.844,10.844,0,0,0-1.235,2.276c-1.339,3.333-.96,7.15-2.187,10.49l-.081.194a18.443,18.443,0,0,0,1.517-3.034Z" transform="translate(-666.392 -184.45)"/>
        <path id="Path_392" data-name="Path 392" d="M763.617,278.5c-6.456,2.889-13.331,5.729-20.44,5.366s-14.525-4.914-15.768-11.911c-.428-2.421-.371-5.342-2.421-6.6-1.259-.767-2.889-.573-4.245-1.146-1.961-.807-2.929-3.01-3.575-5.035a45.272,45.272,0,0,1-2.106-12.911c-.089-5.189.605-10.862-2.34-15.147-2.736-3.962-7.577-5.963-10.724-9.611-2.905-3.365-6.06-7.44-10.821-8.07-6.528-.888-20.174,8.07-24.031-1.469a7.5,7.5,0,0,1,.25-5.511c-.282.476-.557.952-.807,1.436-1.1,2.146-1.791,4.721-.88,6.956,3.882,9.522,17.5.573,24.031,1.469,4.761.646,7.916,4.721,10.821,8.07,3.147,3.647,7.989,5.649,10.716,9.619,2.953,4.277,2.259,9.95,2.348,15.138a45.272,45.272,0,0,0,2.106,12.911c.646,2.034,1.614,4.212,3.575,5.035,1.356.573,2.986.387,4.245,1.146,2.082,1.259,2.026,4.2,2.421,6.6,1.259,7,8.667,11.547,15.768,11.911s13.944-2.469,20.44-5.366c4.68-2.082,9.893-4.963,11.3-9.683C771.234,274.769,767.264,276.883,763.617,278.5Z" transform="translate(-665.288 -188.699)"/>
      </g>
      <path id="Path_393" data-name="Path 393" d="M926.871,330.493c-17.083-9.829-23.539-12.25-23.571-12.25l-.355-.25a14.212,14.212,0,0,1-4.3-5.439,11.389,11.389,0,0,1,0-1.17.5.5,0,0,0,0,.113c.266-5.2,3.97-9.942,7.48-14.073l8.982-10.563a10.41,10.41,0,0,0,2.316-3.664,8.452,8.452,0,0,0,.242-2.251q0-.46,0-.92c-.048-2.623-.121-5.253-.218-7.876-.081-2.292-.67-5.181-2.961-5.649-1.194-.242-2.776.186-3.405-.807a1.961,1.961,0,0,1-.153-1.364.473.473,0,0,0,0,.113v-.129a30.381,30.381,0,0,0,.847-5.4,7.359,7.359,0,0,0-.371-2.736c-1.323-3.8-5.9-5.366-9.942-6.084s-8.578-1.331-11.112-4.495a32.89,32.89,0,0,0-2.211-3.042,8.724,8.724,0,0,0-4.132-2.042,23.4,23.4,0,0,0-15.034,1.307c-1.953.872-3.914,2.05-6.06,1.921s-4.132-1.678-6.327-2.05c-3.551-.605-6.948,2-8.7,5.092a12.452,12.452,0,0,0-1.614,6v.355h0a8.78,8.78,0,0,0,2.308,6.133c1.533,1.614,3.809,2.679,4.446,4.769.258.847.194,1.767.428,2.631a2.352,2.352,0,0,0,.1.315l-.113.153a26.63,26.63,0,0,0-5.649,16.413,27.243,27.243,0,0,0,19.141,25.823c0,.266,0,.533,0,.807a11.609,11.609,0,0,1-3.712,9.038l-24.2,9.667s-14.59-1.735-19.851,19.585a36.354,36.354,0,0,0-.9,10.813c.194,3.228-.25,8.876-4.035,16.2-5.979,11.717-4.616,38.613,7.618,41.276,11.548,2.518,16.066,1.469,16.543,1.348v.468c-.194,5.052-2.025,48.579-8.683,53.84-1.84,1.461-1.5,2.421,0,3.107,0,0,0,.282-.04.807-.2,3.228-1.227,15.332-5.649,22.207-5.173,7.989-4.632,54.066-4.632,54.066l-3.526,27.162s2.171,16.777,0,19.706c-1.945,2.606-4.527,64.669-5.068,78.129h-.226a6.552,6.552,0,0,0-5.229,3.228c-2.857,4.64-12.863,13.218-12.863,13.218-2.171,3.083-10.2,6.036-14.444,7.424a8.978,8.978,0,0,0-1.614.71,8.611,8.611,0,0,0-3.647,3.841,4.124,4.124,0,0,0-.387,3.228c1.081,2.655,23.652,4.527,29.365,1.856,4.487-2.09,22.272-4.842,29.656-5.923a6.084,6.084,0,0,0,5.277-5.278,3.478,3.478,0,0,0-.678-2.639h0c-1.412-1.751-2.13-6.536-2.421-9.684a6.547,6.547,0,0,0,1.662-.984,70.892,70.892,0,0,1,4.035-28.493c5.439-14.38,7.069-41.009,5.713-58.319,0,0,16.583-71.367,29.639-78.024h0c.2.258,6.536,8.384,7.343,33.553.807,25.564,10.055,42.341,10.055,42.341s-4.083,43.406,0,59.65l-5.334,25.621c-.4-.331-.646-.589-.646-.589s.161.71.379,1.848l-.113.549.234.048c.605,3.228,1.5,8.788,1.13,12.1-.21,1.864-.734,4.422-1.089,6.932-.565,3.946-.718,7.771,1.356,8.61,3.405,1.372,23.4,3.228,26.791-1.162a6.286,6.286,0,0,0,.984-6.577,6.655,6.655,0,0,0-.984-1.678s-5.31-8.675-3.809-14.792a4.5,4.5,0,0,0-.638-3.51c.234-3,1.444-16.9,4.575-28.7,3.405-12.814,10.579-40.913,5.3-59.384h0q-.3-1.089-.678-2.13a79.759,79.759,0,0,1-2.994-31.157,63.5,63.5,0,0,1,0-27.162c3.268-14.912,5.552-29.559,5.552-29.559s1.8-19.706.226-31.786a7.92,7.92,0,0,0-.1-.807l.855-.194s-4.624-20.5-6.254-33.553c-.387-3.083-.888-6.98-1.436-11.144a28.45,28.45,0,0,0,4.43-1.106c14.678-5.06,19.3-50.838,19.3-50.838V362.674S944,340.346,926.871,330.493ZM817.481,684.132c-.452-.226-.718-.379-.718-.379h0Z" transform="translate(-174.22 -62.551)" fill="url(#linear-gradient-3)"/>
      <path id="Path_394" data-name="Path 394" d="M927.487,648.577c6.367,18.31-1.065,48.03-4.519,61.329s-4.511,29.2-4.511,29.2c-13.533,2.122-23.353-.533-23.353-.533l5.576-27.331c-3.986-16.187,0-59.448,0-59.448s-9.022-16.72-9.821-42.2c-.807-25.072-6.964-33.182-7.158-33.432h0c-12.734,6.633-28.921,77.758-28.921,77.758,1.323,17.245-.274,43.785-5.576,58.1a71.819,71.819,0,0,0-3.978,28.389c-1.856,1.614-4.438,1.84-7.263,1.388-7.577-1.227-16.664-7.755-16.664-7.755s2.913-77.468,5.044-80.4,0-19.641,0-19.641l3.446-27.065s-.532-45.916,4.511-53.872c4.358-6.875,5.358-18.963,5.552-22.135v-.807l7.682-9.2s74.3-5.576,79.888,0c1.364,1.364,2.211,4.479,2.711,8.392,1.533,12.04-.226,31.673-.226,31.673s-2.227,14.6-5.415,29.454a64.651,64.651,0,0,0,0,27.073A81.04,81.04,0,0,0,927.487,648.577Z" transform="translate(-183.696 -116.334)" fill="#65617d"/>
      <path id="Path_395" data-name="Path 395" d="M940.427,816.06c-3.317,4.382-22.821,2.526-26.145,1.162-2.026-.807-1.872-4.656-1.323-8.586.347-2.494.855-5.044,1.065-6.9.525-4.777-1.614-14.469-1.614-14.469s4.374,4.648,5.431,0a5.061,5.061,0,0,1,3.793-3.6,9.909,9.909,0,0,1,6.891.428c3.446,1.5,9.191,4.688,8.166,9-1.461,6.092,3.712,14.743,3.712,14.743a6.716,6.716,0,0,1,.968,1.662A6.367,6.367,0,0,1,940.427,816.06Z" transform="translate(-201.284 -167.453)" fill="#a27772"/>
      <path id="Path_396" data-name="Path 396" d="M940.473,822.134c-3.317,4.382-22.821,2.526-26.145,1.162-2.025-.807-1.872-4.656-1.323-8.586,2.1.984,5.649,1.8,11.6,1.251a32.692,32.692,0,0,1,4.172-.129,97.038,97.038,0,0,0,12.669-.258A6.367,6.367,0,0,1,940.473,822.134Z" transform="translate(-201.33 -173.528)" opacity="0.1"/>
      <path id="Path_397" data-name="Path 397" d="M858.757,666.462c1.323,17.245-.274,43.785-5.576,58.1a71.817,71.817,0,0,0-3.978,28.389c-1.856,1.614-4.438,1.84-7.263,1.388,1.614-11.192,8.424-59.416,12.79-97.52,4.979-43.39,28.243-73.239,28.243-73.239l4.64,5.108C874.944,595.337,858.757,666.462,858.757,666.462Z" transform="translate(-187.681 -128.909)" opacity="0.1"/>
      <path id="Path_398" data-name="Path 398" d="M924.322,333.032l-3.228,15.921-15.873,26.67-19.569-8.36s-26.629-27.864-9.885-31.842a14.815,14.815,0,0,0,5.552-2.469c3.284-2.477,4.317-6.076,4.333-9.6a29.44,29.44,0,0,0-2.7-11.41l34.231-10.749a54.95,54.95,0,0,0-2.421,13.863c-.266,9.328,3.228,13.92,6.044,16.139A10.283,10.283,0,0,0,924.322,333.032Z" transform="translate(-193.143 -74.395)" fill="#fbbebe"/>
      <path id="Path_399" data-name="Path 399" d="M920.2,301.19a54.945,54.945,0,0,0-2.421,13.863,26.028,26.028,0,0,1-1.993,2.122,27.082,27.082,0,0,1-27.065,6.173,29.438,29.438,0,0,0-2.72-11.41Z" transform="translate(-196.186 -74.395)" opacity="0.1"/>
      <path id="Path_400" data-name="Path 400" d="M920.3,289.285A26.944,26.944,0,1,1,912.4,270.11,27.073,27.073,0,0,1,920.3,289.285Z" transform="translate(-192.354 -66.872)" fill="#fbbebe"/>
      <path id="Path_401" data-name="Path 401" d="M924.322,340.2l-3.228,15.921L905.221,382.8l-19.569-8.36s-26.629-27.864-9.885-31.842a14.815,14.815,0,0,0,5.552-2.469c-3.018,8.3,9.441,25.556,9.441,25.556,1.452,2.138,4.777.807,4.777.807,8.029-1.219,22.8-24.305,25.217-28.147a10.281,10.281,0,0,0,3.567,1.864Z" transform="translate(-193.143 -81.567)" opacity="0.1"/>
      <path id="Path_402" data-name="Path 402" d="M934.644,529.322c-4.713,1.073-30.785,6.843-40.67,5.4-10.878-1.614-32.028-2.647-32.028-2.647s-13.468.726-17.616-1.17V530.1l7.682-9.2s74.3-5.576,79.888,0C933.3,522.293,934.144,525.408,934.644,529.322Z" transform="translate(-188.142 -116.33)" opacity="0.1"/>
      <path id="Path_403" data-name="Path 403" d="M881.335,366.538s-14-19.367-8.723-26.952L848.96,349.27s-14.235-1.727-19.367,19.52a36.961,36.961,0,0,0-.88,10.781c.194,3.228-.242,8.876-3.9,16.139-5.834,11.677-4.511,38.484,7.432,41.155s16.179,1.323,16.179,1.323-1.614,48.562-8.489,54.139,17.592,4.245,17.592,4.245,21.15,1.065,32.036,2.655,41.4-5.576,41.4-5.576-4.511-20.432-6.109-33.432-5.318-40.695-5.318-40.695L946.6,382.855s4.777-22.159-11.943-31.98-23.006-12.225-23.006-12.225-16.8,27.356-25.556,28.679C886.112,367.329,882.787,368.669,881.335,366.538Z" transform="translate(-183.726 -81.626)" fill="#2e7eb7"/>
      <path id="Path_404" data-name="Path 404" d="M856.1,382.74s-.258,8.763,1.331,12.209,7.432,22.595,7.432,22.595H851.59s7.166-7.7,6.641-11.418S856.1,382.74,856.1,382.74Z" transform="translate(-189.543 -90.138)" opacity="0.1"/>
      <path id="Path_405" data-name="Path 405" d="M895.742,455.732s-29.309-7.166-32.036-13.266S853.45,422.7,853.45,422.7l3.091-4.164,14.251,11.184s16.946,13.533,24.951,14.864S895.742,455.732,895.742,455.732Z" transform="translate(-189.902 -97.049)" fill="#fbbebe"/>
      <path id="Path_406" data-name="Path 406" d="M895.742,455.732s-29.309-7.166-32.036-13.266S853.45,422.7,853.45,422.7l3.091-4.164,14.251,11.184s16.946,13.533,24.951,14.864S895.742,455.732,895.742,455.732Z" transform="translate(-189.902 -97.049)" opacity="0.05"/>
      <path id="Path_407" data-name="Path 407" d="M924.594,421.838v15.9h-2.55a74.31,74.31,0,0,0-36.1,9.352l-4.78,2.648-1.283.718-8.231-18.56,7.7-6.9h.4c1.88.186,10.022.863,13.476-.3,3.276-1.114,7.343-4.64,16.994-2.179,4.753,1.219,8.82,6.544,13.428,4.882Z" transform="translate(-193.416 -97.651)" fill="#fbbebe"/>
      <path id="Path_408" data-name="Path 408" d="M955.176,381.685l5.3,5.971v14.469s-4.511,45.641-18.834,50.685-39.912-2.921-39.912-2.921-6.609-17.511-3.518-18.56,27.315-7.456,27.315-7.456-.339-26.775,4.963-34.739c0,0-3.446-24.943,8.5-25.476S955.176,381.685,955.176,381.685Z" transform="translate(-198.385 -86.452)" opacity="0.1"/>
      <path id="Path_409" data-name="Path 409" d="M956.177,381.685l5.31,5.971v14.469s-4.511,45.641-18.842,50.685-39.912-2.921-39.912-2.921-6.609-17.511-3.51-18.56,27.315-7.456,27.315-7.456-.347-26.775,4.963-34.739c0,0-3.454-24.943,8.489-25.476S956.177,381.685,956.177,381.685Z" transform="translate(-198.579 -86.452)" fill="#2e7eb7"/>
      <path id="Path_410" data-name="Path 410" d="M914.2,300.753a10.668,10.668,0,0,0-.605-5.173,3.938,3.938,0,0,0-4.212-2.421c-2.268.533-3.228,3.486-5.471,4.2-1.88.6-3.93-.734-4.842-2.485a12.38,12.38,0,0,1-.92-5.778v-6.649c0-2.421-.081-5.019-1.565-6.916-1.848-2.356-6.2-3.389-9.1-3.292a7.722,7.722,0,0,0-5.2,2.09,6.688,6.688,0,0,1-5.463,1.945,4.7,4.7,0,0,1-3.809-3.292V272.9a27.065,27.065,0,1,1,40.235,35.926,72.973,72.973,0,0,0,.952-8.069Z" transform="translate(-193.678 -66.849)" opacity="0.1"/>
      <path id="Path_411" data-name="Path 411" d="M875.14,271.559a4.745,4.745,0,0,1-3.817-3.3c-.218-.855-.161-1.767-.412-2.615-.621-2.09-2.849-3.171-4.341-4.761-2.986-3.171-2.792-8.384-.678-12.2,1.711-3.074,5.019-5.649,8.489-5.068,2.146.371,4.035,1.9,6.181,2.042s4.035-1.041,5.915-1.912a22.288,22.288,0,0,1,14.7-1.307,8.472,8.472,0,0,1,4.035,2.042,35.273,35.273,0,0,1,2.154,3.026c2.469,3.147,6.9,3.768,10.845,4.479s8.408,2.276,9.683,6.068c.863,2.518,0,5.245-.468,7.86a2.373,2.373,0,0,0,.1,1.614c.621,1.017,2.163.589,3.325.807,2.235.476,2.808,3.357,2.9,5.649q.137,3.922.21,7.852a9.993,9.993,0,0,1-.234,2.9,10.255,10.255,0,0,1-2.251,3.656l-8.763,10.531c-3.89,4.664-8.013,10.1-7.263,16.139-1.84.807-4.035-.767-4.632-2.7s-.121-4.035.291-5.98a73.3,73.3,0,0,0,1.4-10.369,10.635,10.635,0,0,0-.605-5.164,3.938,3.938,0,0,0-4.212-2.421c-2.276.533-3.228,3.486-5.471,4.2-1.88.6-3.93-.734-4.842-2.485a12.347,12.347,0,0,1-.92-5.77v-6.657c0-2.421-.081-5.019-1.565-6.916-1.848-2.356-6.2-3.389-9.1-3.292a7.723,7.723,0,0,0-5.189,2.09C879.054,270.929,877.254,271.906,875.14,271.559Z" transform="translate(-192 -62.92)" fill="#7c5c5c"/>
      <path id="Path_412" data-name="Path 412" d="M885.3,381.92l8.312,34.142S900.164,416.022,885.3,381.92Z" transform="translate(-196.051 -89.979)" opacity="0.1"/>
      <path id="Path_413" data-name="Path 413" d="M918.668,374.85s-10.878,17.818-6.633,36.248l2.026.145S910.445,402.714,918.668,374.85Z" transform="translate(-201.022 -88.615)" opacity="0.1"/>
      <path id="Path_414" data-name="Path 414" d="M929,499.593s13.363-4.422,14.331,5.834C943.364,505.427,940.846,498.4,929,499.593Z" transform="translate(-204.487 -112.513)" opacity="0.1"/>
      <path id="Path_415" data-name="Path 415" d="M875.725,426.81s-2.655,18.56,2.122,26.008a58.2,58.2,0,0,1-23.353,3.187l-1.614-29.2Z" transform="translate(-189.792 -98.645)" opacity="0.1"/>
      <path id="Path_416" data-name="Path 416" d="M881.164,450.531l-1.283.718-8.231-18.56,7.7-6.9h.4C879.623,426.71,877.476,442.663,881.164,450.531Z" transform="translate(-193.416 -98.448)" opacity="0.1"/>
      <path id="Path_417" data-name="Path 417" d="M873.889,425.83s-2.655,18.56,2.122,26a58.032,58.032,0,0,1-23.353,3.187L843.37,425.83Z" transform="translate(-187.956 -98.456)" fill="#2e7eb7"/>
      <path id="Path_418" data-name="Path 418" d="M837.7,804.6a6.012,6.012,0,0,1-5.157,5.261c-7.206,1.073-24.564,3.817-28.945,5.907-5.576,2.655-27.6.807-28.663-1.856a4.212,4.212,0,0,1,.379-3.228,8.506,8.506,0,0,1,3.559-3.825,9.443,9.443,0,0,1,1.614-.71c4.148-1.38,11.983-4.317,14.1-7.4,0,0,9.772-8.546,12.556-13.161a6.375,6.375,0,0,1,5.1-3.179c2.324-.1,4.914,1.065,5.979,6.157,0,0,12.726,7.263,16.139.9,0,0,.533,9.78,2.647,12.459h0A3.551,3.551,0,0,1,837.7,804.6Z" transform="translate(-174.713 -167.291)" fill="#a27772"/>
      <path id="Path_419" data-name="Path 419" d="M837.7,809.269a6.012,6.012,0,0,1-5.157,5.261c-7.206,1.073-24.564,3.817-28.945,5.907-5.576,2.655-27.6.807-28.663-1.856a4.212,4.212,0,0,1,.379-3.228,8.505,8.505,0,0,1,3.559-3.825c3.591,2.421,11.564,4.713,29.1,1.977,16.728-2.615,25.016-5.173,29.05-6.916h0a3.551,3.551,0,0,1,.678,2.679Z" transform="translate(-174.713 -171.96)" opacity="0.1"/>
      <g id="Group_39" data-name="Group 39" transform="translate(672.291 191.378)" opacity="0.1">
        <path id="Path_420" data-name="Path 420" d="M942.462,270.677v-.129a23.762,23.762,0,0,0,.807-6.028,39.8,39.8,0,0,1-.807,4.842A2.937,2.937,0,0,0,942.462,270.677Z" transform="translate(-879.362 -258.694)"/>
        <path id="Path_421" data-name="Path 421" d="M911.9,294.121a7.673,7.673,0,0,1,.654,3.034,9.15,9.15,0,0,0-.654-4.228,3.923,3.923,0,0,0-4.2-2.421c-2.276.533-3.228,3.486-5.479,4.2-1.872.6-3.922-.734-4.842-2.485a12.278,12.278,0,0,1-.92-5.778V279.79c0-2.421-.081-5.019-1.565-6.916-1.856-2.364-6.2-3.389-9.1-3.3a7.731,7.731,0,0,0-5.2,2.1,6.7,6.7,0,0,1-5.471,1.945,4.729,4.729,0,0,1-3.809-3.292c-.218-.855-.161-1.775-.411-2.623-.621-2.082-2.849-3.171-4.341-4.753a8.691,8.691,0,0,1-2.235-5.649,9.046,9.046,0,0,0,2.235,6.8c1.493,1.614,3.72,2.671,4.341,4.753.25.807.194,1.767.412,2.623a4.728,4.728,0,0,0,3.809,3.292,6.7,6.7,0,0,0,5.471-1.945,7.73,7.73,0,0,1,5.2-2.1c2.9-.089,7.263.936,9.1,3.3,1.485,1.9,1.557,4.5,1.565,6.916v6.649c0,1.969,0,4.035.92,5.77s2.945,3.091,4.842,2.493c2.227-.71,3.228-3.664,5.479-4.2C909.406,291.289,911.157,292.564,911.9,294.121Z" transform="translate(-864.285 -257.3)"/>
        <path id="Path_422" data-name="Path 422" d="M945.941,293.469a10.2,10.2,0,0,1-2.259,3.647l-8.764,10.531c-3.688,4.43-7.585,9.562-7.263,15.219.266-5.189,3.881-9.909,7.263-14.025l8.763-10.531a10.2,10.2,0,0,0,2.26-3.647,10.074,10.074,0,0,0,.234-2.913A7.669,7.669,0,0,1,945.941,293.469Z" transform="translate(-876.515 -263.95)"/>
        <path id="Path_423" data-name="Path 423" d="M921.93,327.77a6.208,6.208,0,0,1-.266-1.42,7.155,7.155,0,0,0,.266,2.615c.6,1.921,2.784,3.51,4.632,2.687a11.287,11.287,0,0,1-.1-1.162C924.626,331.224,922.5,329.658,921.93,327.77Z" transform="translate(-875.357 -270.63)"/>
      </g>
      <path id="Path_424" data-name="Path 424" d="M812.69,789.36s2.776,4.842,12.831.581" transform="translate(-182.034 -168.634)" opacity="0.1"/>
      <path id="Path_425" data-name="Path 425" d="M918,790.82s8.667,10.208,19.593,3.349" transform="translate(-202.364 -168.916)" opacity="0.1"/>
      <path id="Path_426" data-name="Path 426" d="M947.746,641.23s-6.125,3.825-6.318,6.012,3.163-1.614,3.163-1.614Z" transform="translate(-206.885 -140.038)" opacity="0.1"/>
      <path id="Path_427" data-name="Path 427" d="M949.629,677.59a12.806,12.806,0,0,1-7.545,2.945c-4.583.2-4.2,6.173-1.2,4.382S949.629,677.59,949.629,677.59Z" transform="translate(-206.347 -147.057)" opacity="0.1"/>
      <path id="Path_428" data-name="Path 428" d="M952.426,682.34s-2.937,14.436-5.326,11.652" transform="translate(-207.981 -147.974)" opacity="0.1"/>
      <path id="Path_429" data-name="Path 429" d="M304.239,567.1l12.855-25.822a38.639,38.639,0,0,1,2.421-4.955c.807-1.477,1.88-3.3,3.228-5.487.4-.629.807-1.283,1.259-1.969,1.557-2.421,3.446-5.165,5.729-8.328,5.689-7.884,8.683-17.753,10.232-25.016l.686,2.276h.153l.186.04h.307l.331.056h.121l3.954,50.322c.242,19.625,7.448,30.487,7.448,30.487l-.993,43.325c1.356,10.434-1.614,24.346-2.978,29.9l-3.115,7.029a8.449,8.449,0,0,0-4.592,6.391c-.613,5.189-6.076,16.373-6.076,16.373-2.114,2.679-6.706,9.917-6.706,9.917s-2.163,6.988-.823,9.6,12.54,2.348,12.54,2.348c12.79,2.832,22.595-4.035,21.973-8.763s1.993-5.931,1.993-5.931c5.084-1.614,4.592-5.06,4.592-5.06a31.665,31.665,0,0,0-3.849-20.61l-.807,1.864a28.38,28.38,0,0,1,1.533-11l-.468.323-.145.089h-.048c.807-7.077,8.239-20.174,8.239-20.174,13.654-23.95,8.691-56.406,8.691-56.406L380,567.8l-.121-3.817a127.4,127.4,0,0,1,2.058-27.194c.734-3.97,1.493-8.763,2.074-14.049,1.227-11.168,5.181-22.692,7-27.574l.541-.1h.065c.742-.129,1.493-.258,2.251-.4h.145s.436-2.356.807-6.367c.218-2.558.4-5.8.4-9.53a107.223,107.223,0,0,0-5.092-33.174l.412-.589s.976-1.323,2.76-3.615h0c3.276-4.164,8.376-10.49,14.662-17.624,11.257-12.839,7.948-25.823,7.948-25.823s-8.15-29.865-11.782-47.8a54.354,54.354,0,0,0-8.941-21.263,42.319,42.319,0,0,0,1.13-8.618c.242-5.31.057-10.845-2.332-15.615s-7.472-8.538-12.782-7.9a4.889,4.889,0,0,1-2.292,0,3.486,3.486,0,0,1-1.509-1.315c-3.107-4.285-3.309-10.047-2.34-15.243s2.953-10.168,3.841-15.381.484-11-2.832-15.13c-3.9-4.842-10.692-6.205-15.76-9.845-3.559-2.558-6.23-6.23-9.982-8.5s-7.263-1.4-11.338-.549c-6.851,1.444-13.363,2.106-19.843,5.052a52.848,52.848,0,0,0-17.293,12.58,16.414,16.414,0,0,0-3.857,6.084c-1.614,5.334,1.541,11.015.88,16.534-.468,3.914-2.776,7.319-4.608,10.813s-3.228,7.642-1.791,11.3c2.259,5.713,9.627,6.924,14.985,9.966a4.576,4.576,0,0,1,1.775,1.541c1.323,2.308-1.38,4.7-3.083,6.754a10.176,10.176,0,0,0-2.017,4.1,14.622,14.622,0,0,0-8.772,10.587c-1.816,8.126.976,18.382,3.438,25.161-2.687,15.1.807,21.053,3.381,23.337a12.951,12.951,0,0,1,4.487,8.828v.282c.169,2.744.46,5.479.847,8.207h0c-.089-.638-.178-1.315-.226-1.614-2.106,3.9-6.117,13.855-8.376,30.608a91.987,91.987,0,0,1-2.042,10.66,58.294,58.294,0,0,0-1.711,19.06l.4,5.431a1.711,1.711,0,0,1-1.1-.363l2.832,5.189v8.755a32.28,32.28,0,0,1-2.146,11.548c-.2.533-.42,1.065-.654,1.614a9.393,9.393,0,0,0-.952,4.753c-6.092,9.336-20.061,61.659-20.061,61.659-7.577,17.156.621,28.243.621,28.243s3.97,47.764,4.713,50.233,2.389,31.584,2.389,31.584h0V661.6a5.435,5.435,0,0,0-1.38-.4c-6.641-.371-8.441,10.119-8.441,10.119L257.8,684.295s-6.205-1.049-15.332,5.8C242.466,690.1,302.748,570.1,304.239,567.1Zm79.816-139.958-.04-.145-.371.218h0l-.153.089-.073.048h0l-6.262-22.1a36.7,36.7,0,0,1-.46-18.181l4.842-21.207h0v-5.1l15.389,41.009C397.91,407.3,388.767,420.687,384.054,427.143Z" transform="translate(-71.387 -60.632)" fill="url(#linear-gradient-4)"/>
      <path id="Path_430" data-name="Path 430" d="M415.157,557s-6.214,15.114-7.8,29.615c-.573,5.229-1.315,9.958-2.042,13.88a126.838,126.838,0,0,0-1.985,26.847l.121,3.768,2.017,9.982s4.842,32.06-8.529,55.68c0,0-7.924,14.146-8.166,20.844l-5.366,2.074-10.845-3.042s5.237-18.778,3.534-31.939l.976-42.769s-7.045-10.7-7.287-30.067l-4.14-53.146Z" transform="translate(-95.734 -123.778)" fill="#fdc2cc"/>
      <path id="Path_431" data-name="Path 431" d="M348.913,547.62s-1.332,20.723-11.58,35.006-12.427,20.48-12.427,20.48l-12.621,25.516a14.614,14.614,0,0,0-1.186,9.546l1.243,5.745s6.827,23.16-.121,41.082l-3.292,34.618H289.675s-1.614-28.768-2.316-31.2-4.632-49.612-4.632-49.612-8.07-10.975-.613-27.913c0,0,16.825-63.386,21.328-62.289S348.913,547.62,348.913,547.62Z" transform="translate(-78.998 -121.967)" fill="#fdc2cc"/>
      <g id="Group_40" data-name="Group 40" transform="translate(227.978 425.653)" opacity="0.1">
        <path id="Path_432" data-name="Path 432" d="M317.093,643.954l-1.235-5.745a14.525,14.525,0,0,1,1.178-9.587l12.621-25.54s2.187-6.214,12.427-20.481c9.837-13.718,11.459-33.376,11.572-34.885l1.961-.1s-1.331,20.723-11.58,35.006-12.427,20.48-12.427,20.48L318.99,628.622a14.614,14.614,0,0,0-1.186,9.546l1.243,5.745s6.827,23.16-.121,41.082l-3.292,34.618H313.68L316.972,685C323.92,667.073,317.093,643.954,317.093,643.954Z" transform="translate(-313.68 -547.62)"/>
      </g>
      <path id="Path_433" data-name="Path 433" d="M390.835,717.64c.242-6.7,8.166-20.844,8.166-20.844,13.412-23.644,8.53-55.68,8.53-55.68l-2.066-9.99-.121-3.768a126.839,126.839,0,0,1,1.985-26.847c.718-3.922,1.461-8.651,2.034-13.88,1.525-13.96,7.343-28.485,7.771-29.551l2-.081s-6.214,15.114-7.8,29.615c-.573,5.229-1.315,9.958-2.042,13.88a126.838,126.838,0,0,0-1.985,26.847l.121,3.768,2.017,9.982s4.842,32.06-8.529,55.68c0,0-7.924,14.146-8.166,20.844l-5.366,2.074-1.13-.315Z" transform="translate(-99.713 -123.778)" opacity="0.1"/>
      <path id="Path_546" data-name="Path 546" d="M925.083,643.876c3.667,17.833,3.873,29.333-1.794,47s-15,36.333-15,36.333c-9,7.833-16.167-1.5-16.167-1.5l1.667-12c1.5-13.167,2.333-60.833,2.333-60.833s-7.7-11.358-8.5-36.833c-.807-25.072-2.973-42.417-3.167-42.667v-2.162c.781,8.683-13.034,27.246-23,44.828a223.926,223.926,0,0,0-14.667,32.167c4.606,12.094,4.839,16.6,4.448,36.979s-6.448,32.988-6.011,44.521c-1.856,1.614-8.28,2.785-11.1,2.333-7.577-1.227-9-2.333-9-2.333s-5.121-43.732-6.5-59.833-2.05-18.4-4.359-26,2.846-20.63,2.846-20.63,14.8-53.913,19.847-61.87c6.534-19.919,2.7-27.281,2.9-30.453v-.807l10.6-13.407s69.749-19.243,75.333-13.667c1.364,1.364,8.833,23.967,9.333,27.881,1.533,12.04,2.436,12.942.936,26.138s-2.146,12.758-5.333,27.614c-1.911,8.923-6.231,26.7-6.231,26.7S922.081,633.812,925.083,643.876Z" transform="translate(-614.807 -134.493)" fill="#65617d"/>
      <path id="Path_434" data-name="Path 434" d="M381.28,755.019a9.328,9.328,0,0,0,8.876-1.1,28.647,28.647,0,0,0-.726,16.091c2.195,8.78-20.48-7.069-20.48-7.069l4.842-11.063S375.672,755.382,381.28,755.019Z" transform="translate(-96.372 -161.399)" fill="#d39999"/>
      <path id="Path_435" data-name="Path 435" d="M382.971,755.505a9.062,9.062,0,0,0,7.206-1.614,28.647,28.647,0,0,0-.726,16.091c2.195,8.78-20.48-7.069-20.48-7.069l4.842-11.063s1.4,2.7,5.528,3.115C380.59,755.11,381.784,755.279,382.971,755.505Z" transform="translate(-96.375 -161.393)" opacity="0.1"/>
      <path id="Path_436" data-name="Path 436" d="M289.32,468.336h9.474V414.585l-7.109-1.275Z" transform="translate(-55.855 -79.787)" fill="#fdc2cc"/>
      <path id="Path_437" data-name="Path 437" d="M289.32,468.336h9.474V414.585l-7.109-1.275Z" transform="translate(-55.855 -79.787)" opacity="0.05"/>
      <path id="Path_438" data-name="Path 438" d="M371.959,760.679s5.971-.371,8.651,5l3.292,2.558,1.614-3.777a31.471,31.471,0,0,1,3.728,20.359s.484,3.405-4.511,5c0,0-2.558,1.219-1.953,5.85s-9.014,11.459-21.57,8.651c0,0-10.975.25-12.314-2.316s.855-9.385.855-9.385,4.511-7.15,6.577-9.788c0,0,5.366-11.055,5.98-16.139S368.788,757.871,371.959,760.679Z" transform="translate(-92.417 -162.911)" fill="#7e5659"/>
      <path id="Path_439" data-name="Path 439" d="M311.473,764.589l.1-7.577s-10.9,3.139-19.73-.412c0,0,.742,7.618-.484,8.659s4.083,10.845,4.083,10.845l5.931,6.214,10.2-3.712,2.768-8.715S312.2,764.589,311.473,764.589Z" transform="translate(-81.357 -162.31)" fill="#d39999"/>
      <path id="Path_440" data-name="Path 440" d="M311.473,764.589l.1-7.577s-10.9,3.139-19.73-.412c0,0,.742,7.618-.484,8.659s4.083,10.845,4.083,10.845l5.931,6.214,10.2-3.712,2.768-8.715S312.2,764.589,311.473,764.589Z" transform="translate(-81.357 -162.31)" opacity="0.1"/>
      <path id="Path_441" data-name="Path 441" d="M281.1,763.1s5.794.67,5.06,8.07.307,0,.307,0,6.157,2.493,8.352,5.971,6.157-3.107,6.456-4.995,2.768-2.671,2.768-2.671,9.683,17.955,7.973,22.893-22.5,6.076-22.5,6.076-3.785-2.13-12.5,4.511-26.815,1.614-26.815,1.614-14.751-6.157-5.786-12.911,15.05-5.729,15.05-5.729l13.347-12.863S274.582,762.726,281.1,763.1Z" transform="translate(-71.773 -163.562)" fill="#7e5659"/>
      <path id="Path_442" data-name="Path 442" d="M362.594,236.743c3.688,2.235,6.31,5.867,9.8,8.392,4.971,3.591,11.644,4.93,15.469,9.724,3.228,4.083,3.647,9.788,2.776,14.937s-2.824,10.063-3.768,15.195-.75,10.821,2.3,15.05a3.414,3.414,0,0,0,1.477,1.3,4.841,4.841,0,0,0,2.251,0c5.213-.629,10.216,3.1,12.556,7.8s2.526,10.176,2.284,15.421c-.2,4.3-.686,8.691-2.574,12.564-3.228,6.585-9.942,10.652-16.567,13.767a128.317,128.317,0,0,1-13.226,5.342c-3.1,1.049-6.367,1.993-9.587,1.444-5.512-.952-9.417-5.963-14.646-7.924-4.285-1.614-9.038-1.033-13.6-.629-3.89.339-8.336.331-11.015-2.51-3.438-3.647-1.888-9.53-.129-14.227a10.127,10.127,0,0,1-7.166-16.559c1.662-2.026,4.317-4.39,3.018-6.674a4.422,4.422,0,0,0-1.743-1.517c-5.253-3-12.492-4.2-14.7-9.837-1.42-3.623-.048-7.723,1.751-11.168s4.035-6.819,4.527-10.676c.646-5.455-2.421-11.063-.863-16.325a16.365,16.365,0,0,1,3.785-6.02A51.936,51.936,0,0,1,331.954,241.2c6.367-2.913,12.75-3.567,19.48-4.987C355.469,235.355,358.81,234.451,362.594,236.743Z" transform="translate(-84.069 -61.674)" fill="#865a61"/>
      <path id="Path_443" data-name="Path 443" d="M327.682,337.758s-15.437-.807-18.358,12.354,6.335,32.012,6.335,32.012Z" transform="translate(-84.751 -81.452)" fill="#fdc2cc"/>
      <path id="Path_444" data-name="Path 444" d="M327.682,337.758s-15.437-.807-18.358,12.354,6.335,32.012,6.335,32.012Z" transform="translate(-84.751 -81.452)" opacity="0.05"/>
      <path id="Path_445" data-name="Path 445" d="M320,369.294l5.85,4.632,27.3,1.219,17.043-11.7L387.526,333.7c-10.6-2.7-14.88-10.022-16.478-16.865a36.926,36.926,0,0,1-.339-14.089s-27.791-14.388-24.378,8.07a30.5,30.5,0,0,1,.258,8.344c-1.614,13.153-14.38,10.676-14.38,10.676l-4.9,7.553-5.608,18.56Z" transform="translate(-86.922 -73.819)" fill="#fdc2cc"/>
      <path id="Path_446" data-name="Path 446" d="M352.59,310.78a30.5,30.5,0,0,1,.258,8.344,24.636,24.636,0,0,0,24.459-2.292,36.926,36.926,0,0,1-.339-14.089S349.177,288.355,352.59,310.78Z" transform="translate(-93.157 -73.817)" opacity="0.1"/>
      <circle id="Ellipse_135" data-name="Ellipse 135" cx="24.62" cy="24.62" r="24.62" transform="translate(245.311 197.317)" fill="#fdc2cc"/>
      <path id="Path_447" data-name="Path 447" d="M337.993,372.055c.6,0,1.186.089,1.775.145,3.228.323,16.712,1.049,24.394-8.126,8.594-10.264,20.037-22.942,20.5-23.458l11.644,3.518S387.1,340.859,380.979,358a17.753,17.753,0,0,0,6,20.424,18.447,18.447,0,0,0,7.618,3.228.04.04,0,0,1,0,.04v7.521h0l-4.761,20.981a36.37,36.37,0,0,0,.452,17.955l7.263,25.669c-1.1.759-46.158,31.407-76.257,10.24h0c.113-.92,3.833-31.044,1.251-45.787a101.806,101.806,0,0,1-1.348-11.394c0-.1,0-.186,0-.282a12.847,12.847,0,0,0-4.414-8.715c-2.711-2.421-6.383-8.877-2.752-25.936a62.667,62.667,0,0,1,4.035-12.29l10.1-22.813h0l9.3.186v.065c-.807,1-11.6,14.477-12.766,23.16C323.549,368.5,322.136,371.039,337.993,372.055Z" transform="translate(-85.475 -81.277)" fill="#2e7eb7"/>
      <path id="Path_448" data-name="Path 448" d="M415.263,349.8s9.1,7.8,12.677,25.516,11.539,47.134,11.539,47.134,3.228,12.839-7.8,25.516-18.366,22.595-18.366,22.595l-7.263,10.7a9.11,9.11,0,0,1-5.229,3.7c-3.309.872-8.392,1.5-12.8-.912a7.456,7.456,0,0,1-3.228-9.417l1.614-3.736s-14.953,9.425-16.252,4.22,17.39-10.4,17.39-10.4,15.437-2.6,18.56-9.909c0,0,16.575-21.3,15.276-28.607l-16.01-42.906s-20.021-2.647-13.194-25.137S415.263,349.8,415.263,349.8Z" transform="translate(-96.592 -82.932)" fill="#fdc2cc"/>
      <g id="Group_41" data-name="Group 41" transform="translate(234.297 368.262)" opacity="0.05">
        <path id="Path_454" data-name="Path 454" d="M342.652,497.574c-1.921-.161-3.841-.315-5.77-.379-4.309-.161-10.886,0-15.372-3.3l1.565-.274c4.487,3.559,11.3,3.405,15.76,3.575,1.929.065,3.841.218,5.77.379.629.056,1.275.089,1.929.1A36.206,36.206,0,0,1,342.652,497.574Z" transform="translate(-321.51 -479.805)"/>
        <path id="Path_455" data-name="Path 455" d="M410.843,544.534q3.074-.484,6.383-1.081l.742-.137s.428-2.324.759-6.286c.759-9,1.025-26.42-5.318-44.253l-4.971-15.332c1.057-.6,1.614-.944,1.614-.944l5.277,16.252c6.335,17.834,6.068,35.256,5.318,44.253-.339,3.962-.767,6.286-.767,6.286l-.734.137q-3.3.6-6.383,1.081a201.017,201.017,0,0,1-32.883,2.824A207.4,207.4,0,0,0,410.843,544.534Z" transform="translate(-332.778 -476.5)"/>
        <path id="Path_456" data-name="Path 456" d="M360.749,559.3v.089H359.7Q360.3,559.348,360.749,559.3Z" transform="translate(-328.882 -492.484)"/>
      </g>
      <path id="Path_457" data-name="Path 457" d="M312.881,461.86c2.227-16.543,6.157-26.371,8.231-30.22.081.525.29,2.227.387,2.752.42,2.421.048,5.471.178,8.546l-2.066,37.41,2.768,11.7c2.6,9.264-7.029,1.945-7.029,1.945-1.993,4.39-5.649,3.906-5.649,3.906l-.5-6.714a57.987,57.987,0,0,1,1.678-18.826,89.7,89.7,0,0,0,2-10.5Z" transform="translate(-84.806 -99.578)" fill="#fdc2cc"/>
      <path id="Path_458" data-name="Path 458" d="M312.881,461.86c2.227-16.543,6.157-26.371,8.231-30.22.081.525.29,2.227.387,2.752.42,2.421.048,5.471.178,8.546l-2.066,37.41,2.768,11.7c2.6,9.264-7.029,1.945-7.029,1.945-1.993,4.39-5.649,3.906-5.649,3.906l-.5-6.714a57.987,57.987,0,0,1,1.678-18.826,89.7,89.7,0,0,0,2-10.5Z" transform="translate(-84.806 -99.578)" opacity="0.05"/>
      <path id="Path_459" data-name="Path 459" d="M417.592,490.135c-1.751,2.268-2.711,3.567-2.711,3.567l-7.263,10.692a9.07,9.07,0,0,1-5.229,3.7c-3.309.872-8.392,1.509-12.8-.912a7.44,7.44,0,0,1-3.228-9.409l1.614-3.744s-14.953,9.425-16.252,4.228,17.39-10.4,17.39-10.4,15.437-2.6,18.56-9.917c0,0,1.348-1.727,3.228-4.374" transform="translate(-96.895 -107.67)" fill="#fdc2cc"/>
      <path id="Path_465" data-name="Path 465" d="M382.289,273.521a9.5,9.5,0,0,1-6.633,3.494,52.274,52.274,0,0,1-7.706,0c-4.035-.065-8.328.557-11.628,2.929a29.566,29.566,0,0,0-5.334,5.649c-4.987,6.092-11.911,11.8-19.77,11.16a5.124,5.124,0,0,1-3.672-1.55,5.891,5.891,0,0,1-.936-3.341,76.365,76.365,0,0,1,.476-15.058,31.745,31.745,0,0,1,2.276-8.981,30.663,30.663,0,0,1,5.471-7.811,33.465,33.465,0,0,1,9.546-7.65,17.124,17.124,0,0,1,11.943-1.541c4.7,1.283,8.368,4.963,12.855,6.859C374.3,259.835,387.9,265.588,382.289,273.521Z" transform="translate(-88.164 -64.584)" opacity="0.1"/>
      <path id="Path_466" data-name="Path 466" d="M382.289,272.309a9.5,9.5,0,0,1-6.633,3.494,52.266,52.266,0,0,1-7.706,0c-4.035-.073-8.328.549-11.628,2.921a29.565,29.565,0,0,0-5.334,5.649c-4.987,6.092-11.911,11.8-19.77,11.16a5.092,5.092,0,0,1-3.672-1.549,5.867,5.867,0,0,1-.936-3.341,76.375,76.375,0,0,1,.476-15.058,31.747,31.747,0,0,1,2.276-8.981,30.454,30.454,0,0,1,5.471-7.8,33.351,33.351,0,0,1,9.546-7.658,17.123,17.123,0,0,1,11.943-1.541c4.7,1.283,8.368,4.963,12.855,6.859C374.3,258.623,387.9,264.36,382.289,272.309Z" transform="translate(-88.164 -64.348)" fill="#865a61"/>
      <path id="Path_467" data-name="Path 467" d="M292.126,473.47l-.065,2.945L291.4,473.6Z" transform="translate(-56.256 -91.401)" fill="#fdc2cc"/>
      <path id="Path_468" data-name="Path 468" d="M292.126,473.47l-.065,2.945L291.4,473.6Z" transform="translate(-56.256 -91.401)" opacity="0.05"/>
      <g id="Group_42" data-name="Group 42" transform="translate(293.748 263.173)" opacity="0.05">
        <path id="Path_469" data-name="Path 469" d="M399.538,356.777c-6.835,22.49,13.089,25.129,13.089,25.129l16.01,42.906c1.3,7.311-15.284,28.607-15.284,28.607-1.154,2.728-4.035,4.8-7.182,6.335a11.249,11.249,0,0,0,4.261-4.68s16.575-21.287,15.276-28.6L409.7,383.559s-19.916-2.639-13.089-25.129c2.284-7.513,5.649-10.934,9.054-12.161C403.315,348.158,401.16,351.426,399.538,356.777Z" transform="translate(-395.184 -346.27)"/>
      </g>
      <g id="Group_43" data-name="Group 43" transform="translate(227.088 255.555)" opacity="0.1">
        <path id="Path_470" data-name="Path 470" d="M401,384.61a16.814,16.814,0,0,0,3.228,3.058,18.341,18.341,0,0,0,7.618,3.228v.847a18.286,18.286,0,0,1-6.908-3.058A16.744,16.744,0,0,1,401,384.61Z" transform="translate(-329.647 -346.054)"/>
        <path id="Path_471" data-name="Path 471" d="M323.591,422.787v.282a104.222,104.222,0,0,0,1.388,11.435c2.421,13.912-.75,41.534-1.2,45.351-.258-.169-.516-.331-.807-.516.121-.92,3.841-31.044,1.259-45.779a102.253,102.253,0,0,1-1.348-11.394v-.282a12.451,12.451,0,0,0-2.171-6.173,12.548,12.548,0,0,1,2.881,7.077Z" transform="translate(-314.147 -352.057)"/>
        <path id="Path_472" data-name="Path 472" d="M336.877,337.936l-7.892-.153a.04.04,0,0,0-.04,0l-10.087,22.8a62.873,62.873,0,0,0-4.035,12.29c-2.937,13.8-1.089,20.674,1.154,24.071-2.526-2.978-5.132-9.764-1.88-25.016a62.208,62.208,0,0,1,3.994-12.3l10.16-22.8h0l9.3.186v.056C337.482,337.169,337.232,337.476,336.877,337.936Z" transform="translate(-312.577 -336.83)"/>
        <path id="Path_473" data-name="Path 473" d="M416.39,345.87l.137.04Z" transform="translate(-332.618 -338.575)"/>
        <path id="Path_474" data-name="Path 474" d="M396.517,344.907l-7.908-2.38h-.04c-.468.516-11.9,13.194-20.5,23.458-7.682,9.175-21.15,8.457-24.394,8.134-.589-.065-1.186-.113-1.775-.153-8.82-.565-12.29-1.614-13.452-3.841,1.654,1.614,5.294,2.421,12.718,2.873.6,0,1.186.089,1.775.145,3.228.323,16.712,1.041,24.394-8.126,8.594-10.273,20.037-22.95,20.5-23.466h0l11.507,3.486a7.19,7.19,0,0,0-2.832-.129Z" transform="translate(-315.642 -337.741)"/>
      </g>
      <path id="Path_475" data-name="Path 475" d="M293.59,777.215s-11.136,3.042-13.291-1.735" transform="translate(-79.258 -165.955)" opacity="0.1"/>
      <path id="Path_476" data-name="Path 476" d="M380.577,774.364s-12.911,3.333-15.9-1.824" transform="translate(-95.547 -165.387)" opacity="0.1"/>
      <ellipse id="Ellipse_141" data-name="Ellipse 141" cx="21.731" cy="3.672" rx="21.731" ry="3.672" transform="translate(133.686 574.156)" fill="#2e7eb7" opacity="0.1"/>
      <ellipse id="Ellipse_142" data-name="Ellipse 142" cx="21.731" cy="3.672" rx="21.731" ry="3.672" transform="translate(48.076 626.229)" fill="#2e7eb7" opacity="0.1"/>
      <ellipse id="Ellipse_143" data-name="Ellipse 143" cx="32.448" cy="5.487" rx="32.448" ry="5.487" transform="translate(14.732 577.828)" fill="#2e7eb7"/>
      <path id="Path_529" data-name="Path 529" d="M72.235,728.3a9.386,9.386,0,0,1-3.1-4.664c-.4-1.856.4-4.075,2.163-4.753,1.985-.759,4.107.613,5.713,2s3.454,2.978,5.56,2.687a8.465,8.465,0,0,1-2.615-7.924,3.228,3.228,0,0,1,.726-1.614c1.1-1.178,3.1-.67,4.422.258,4.188,2.953,5.366,8.651,5.382,13.783.428-1.856.073-3.776.081-5.649s.533-4.035,2.13-5.019a6.455,6.455,0,0,1,3.228-.807c1.888-.065,3.986.121,5.277,1.5,1.614,1.711,1.186,4.592-.21,6.456s-3.51,3.066-5.455,4.374a12.039,12.039,0,0,0-3.906,3.72,3.807,3.807,0,0,0-.291.662H79.554a32.634,32.634,0,0,1-7.319-5.011Z" transform="translate(-38.474 -153.961)" fill="#2e7eb7"/>
      <ellipse id="Ellipse_144" data-name="Ellipse 144" cx="21.731" cy="3.672" rx="21.731" ry="3.672" transform="translate(809.291 604.869)" fill="#2e7eb7" opacity="0.1"/>
      <path id="Path_530" data-name="Path 530" d="M1042.91,751.508s12.395-.379,16.139-3.042,19.06-5.834,19.988-1.565,18.633,21.215,4.632,21.328-32.512-2.179-36.24-4.454S1042.91,751.508,1042.91,751.508Z" transform="translate(-226.477 -160.034)" fill="#a8a8a8"/>
      <path id="Path_531" data-name="Path 531" d="M1083.911,768.351c-13.993.113-32.512-2.179-36.24-4.454-2.841-1.727-3.97-7.932-4.35-10.8h-.411s.807,10,4.511,12.266,22.248,4.567,36.24,4.454c4.035,0,5.439-1.469,5.358-3.6C1088.463,767.544,1086.921,768.351,1083.911,768.351Z" transform="translate(-226.477 -161.634)" opacity="0.2"/>
      <path id="Path_547" data-name="Path 547" d="M847.311,662.4c5.835,11.833,4.583,23.625,4.167,44s-6.428,27.866-5.833,37.5c-1.856,1.614-1.845,1.286-4.669.834,1.614-11.192-5.366-39.229-1-77.333,4.979-43.39,43-83.816,43-83.816l1.835,2.316c2.671,8.749-18.345,39.234-29.833,59.167-2.7,4.688-3.668,8.84-5.167,12.667C849.2,659.276,846.77,661.3,847.311,662.4Z" transform="translate(-615.967 -149.368)" opacity="0.1"/>
      <path id="Path_548" data-name="Path 548" d="M947.746,641.23s-6.125,3.825-6.318,6.012,3.163-1.614,3.163-1.614Z" transform="translate(-644.372 -157.497)" opacity="0.1"/>
      <path id="Path_549" data-name="Path 549" d="M949.629,677.59a12.806,12.806,0,0,1-7.545,2.945c-4.583.2-4.2,6.173-1.2,4.382S949.629,677.59,949.629,677.59Z" transform="translate(-643.834 -164.516)" opacity="0.1"/>
      <path id="Path_550" data-name="Path 550" d="M952.426,682.34s-2.937,14.436-5.326,11.652" transform="translate(-645.468 -165.433)" opacity="0.1"/>
      <path id="Path_551" data-name="Path 551" d="M527.391,329.52s-7.085,17.35-9.369,18.5.46,5.705.46,5.705S531.386,335.685,527.391,329.52Z" transform="matrix(0.848, 0.53, -0.53, 0.848, 33.672, -194.839)" opacity="0.1"/>
      <path id="Path_552" data-name="Path 552" d="M492.44,327.82s-13.016,8.417-11.3,11.749S492.44,327.82,492.44,327.82Z" transform="matrix(0.848, 0.53, -0.53, 0.848, 39.413, -190.865)" opacity="0.1"/>
    </g>
    <path id="Path_536" data-name="Path 536" d="M2454.664,1591.974s88.417-356.3,374.948-105.055,232.348,114.586,308.756-10.564,269.551-4.529,272.388,115.536,107.762,282.457-130.541,240.212-567.389,93.384-697.888,0S2454.664,1591.974,2454.664,1591.974Z" transform="translate(1942.997 -2473.136) rotate(95)" fill="#a2bbe1" opacity="0.87"/>
    <path id="Path_267" data-name="Path 267" d="M2454.664,1591.974s88.417-356.3,374.948-105.055,232.348,114.586,308.756-10.564,269.551-4.529,272.388,115.536,107.762,282.457-130.541,240.212-567.389,93.384-697.888,0S2454.664,1591.974,2454.664,1591.974Z" transform="translate(1937.997 -2510.784) rotate(95)" fill="#d9e3f2"/>
    <path id="Path_119" data-name="Path 119" d="M490.483,143.243c-42.878-1.491-83.721-15.33-122.717-30.475S290.147,80.841,248.3,72.818c-26.918-5.161-57.7-5.89-79.388,8.54-20.876,13.913-27.62,37.862-31.244,60.109-2.73,16.735-4.333,34.344,3.147,50.013,5.187,10.878,14.4,20.021,20.77,30.475,22.174,36.252,6.506,80.959-17.523,116.356-11.263,16.609-24.347,32.463-33.039,50.125S98.3,426.366,105.9,444.4c7.546,17.888,25.52,31.3,44.984,40.738,39.545,19.18,86.126,24.665,131.581,27.772,100.589,6.883,201.708,3.9,302.561.921,37.326-1.106,74.81-2.226,111.527-8,20.392-3.207,41.44-8.288,56.247-20.571,18.789-15.589,23.446-41.99,10.859-61.534-21.127-32.788-79.5-40.93-94.288-76.122-8.122-19.365.225-40.936,12.031-58.9,25.334-38.531,67.795-72.339,70.034-116.383,1.537-30.257-18.881-60.547-50.443-74.864C667.916,82.4,622.031,84.306,597.637,109.143,572.5,134.736,528.339,144.555,490.483,143.243Z" transform="matrix(0.978, -0.208, 0.208, 0.978, 76.26, 770.845)" fill="#a2bbe1" opacity="0.89"/>
    <path id="Path_534" data-name="Path 534" d="M-10.924,509.324c240.456,67.485,185.41,588.824,418.158,56.219s404.351,136.11,404.351,136.11,175.547,704.222,268.252,50.3S868.786-117.967,683.376,59.568,247.252,127.463,73.677,239.9-251.38,441.839-10.924,509.324Z" transform="matrix(0.545, -0.839, 0.839, 0.545, -534.395, 2031.1)" fill="#a2bbe1" opacity="0.93"/>
    <path id="Path_535" data-name="Path 535" d="M135.6,566.4c261.525-73.4,201.655-640.417,454.8-61.145s439.78-148.036,439.78-148.036S1221.1-408.706,1321.931,302.51s-229.543,946.143-431.2,753.053S416.395,981.719,227.611,859.429-125.926,639.8,135.6,566.4Z" transform="translate(859.423 2247.976) rotate(-75)" fill="#a2bbe1"/>
    <path id="Path_537" data-name="Path 537" d="M490.483,143.243c-42.878-1.491-83.721-15.33-122.717-30.475S290.147,80.841,248.3,72.818c-26.918-5.161-57.7-5.89-79.388,8.54-20.876,13.913-27.62,37.862-31.244,60.109-2.73,16.735-4.333,34.344,3.147,50.013,5.187,10.878,14.4,20.021,20.77,30.475,22.174,36.252,6.506,80.959-17.523,116.356-11.263,16.609-24.347,32.463-33.039,50.125S98.3,426.366,105.9,444.4c7.546,17.888,25.52,31.3,44.984,40.738,39.545,19.18,86.126,24.665,131.581,27.772,100.589,6.883,201.708,3.9,302.561.921,37.326-1.106,74.81-2.226,111.527-8,20.392-3.207,41.44-8.288,56.247-20.571,18.789-15.589,23.446-41.99,10.859-61.534-21.127-32.788-79.5-40.93-94.288-76.122-8.122-19.365.225-40.936,12.031-58.9,25.334-38.531,67.795-72.339,70.034-116.383,1.537-30.257-18.881-60.547-50.443-74.864C667.916,82.4,622.031,84.306,597.637,109.143,572.5,134.736,528.339,144.555,490.483,143.243Z" transform="matrix(0.978, -0.208, 0.208, 0.978, 46.28, 739.875)" fill="#d9e3f2"/>
    <path id="Path_538" data-name="Path 538" d="M-10.924,509.324c240.456,67.485,185.41,588.824,418.158,56.219s404.351,136.11,404.351,136.11,175.547,704.222,268.252,50.3S868.786-117.967,683.376,59.568,247.252,127.463,73.677,239.9-251.38,441.839-10.924,509.324Z" transform="matrix(0.545, -0.839, 0.839, 0.545, -533.395, 2000.046)" fill="#d9e3f2"/>
    <path id="Path_539" data-name="Path 539" d="M135.6,566.4c261.525-73.4,201.655-640.417,454.8-61.145s439.78-148.036,439.78-148.036S1221.1-408.706,1321.931,302.51s-229.543,946.143-431.2,753.053S416.395,981.719,227.611,859.429-125.926,639.8,135.6,566.4Z" transform="translate(847.423 2280.946) rotate(-75)" fill="#d9e3f2"/>
  </g>
</svg>
