<svg xmlns="http://www.w3.org/2000/svg" xmlns:xlink="http://www.w3.org/1999/xlink" width="375" height="1052" viewBox="0 0 375 1052">
  <defs>
    <linearGradient id="linear-gradient" x1="0.5" y1="1" x2="0.5" gradientUnits="objectBoundingBox">
      <stop offset="0" stop-color="gray" stop-opacity="0.251"/>
      <stop offset="0.54" stop-color="gray" stop-opacity="0.122"/>
      <stop offset="1" stop-color="gray" stop-opacity="0.102"/>
    </linearGradient>
    <linearGradient id="linear-gradient-2" x1="0.5" x2="0.5" y2="0" xlink:href="#linear-gradient"/>
    <linearGradient id="linear-gradient-3" x1="0.5" x2="0.5" y2="0" xlink:href="#linear-gradient"/>
    <linearGradient id="linear-gradient-4" x1="1.096" x2="1.096" y2="0" xlink:href="#linear-gradient"/>
    <clipPath id="clip-iPhone_6_7_8_1">
      <rect width="375" height="1052"/>
    </clipPath>
  </defs>
  <g id="iPhone_6_7_8_1" data-name="iPhone 6, 7, 8 – 1" clip-path="url(#clip-iPhone_6_7_8_1)">
    <rect width="375" height="1052" fill="#fff"/>
    <g id="Group_49" data-name="Group 49" transform="translate(158.618 32)">
      <g id="Ellipse_147" data-name="Ellipse 147" transform="translate(-63.575 -74.539) rotate(56)" fill="none" stroke="#707070" stroke-width="1" stroke-dasharray="30" opacity="0.52">
        <ellipse cx="166.797" cy="135.813" rx="166.797" ry="135.813" stroke="none"/>
        <ellipse cx="166.797" cy="135.813" rx="166.297" ry="135.313" fill="none"/>
      </g>
      <path id="Path_544" data-name="Path 544" d="M50.271,205.37c96.957,27.211,74.761,237.426,168.61,22.669s163.043,54.882,163.043,54.882S452.708,566.877,490.088,303.2s-85.1-350.77-159.861-279.184S154.373,51.4,84.384,96.733-46.686,178.158,50.271,205.37Z" transform="matrix(0.545, -0.839, 0.839, 0.545, -509.915, 1011.908)" fill="#bcd3e7"/>
      <path id="Path_541" data-name="Path 541" d="M311.118,71.519S245.263-18.081,169.9,3.3,39.425,52.786,9.647,157.028,27.221,289.138,41.532,431.793,6.583,603.117,66.893,727.648s278.255-2.334,278.255-2.334Z" transform="translate(-328.987 275.094) rotate(-87)" fill="#bcd3e7"/>
      <path id="Path_545" data-name="Path 545" d="M47.331,197.705c91.287-25.62,70.389-223.541,158.749-21.343s153.508-51.673,153.508-51.673,66.645-267.351,101.839-19.1S381.3,435.85,310.915,368.451s-165.57-25.775-231.466-68.462S-43.955,223.325,47.331,197.705Z" transform="translate(33.741 1057.386) rotate(-75)" fill="#bcd3e7"/>
      <g id="Ellipse_148" data-name="Ellipse 148" transform="translate(481.071 91.228) rotate(71)" fill="none" stroke="#707070" stroke-width="1" stroke-dasharray="30">
        <ellipse cx="166.797" cy="135.813" rx="166.797" ry="135.813" stroke="none"/>
        <ellipse cx="166.797" cy="135.813" rx="166.297" ry="135.313" fill="none"/>
      </g>
      <g id="Ellipse_145" data-name="Ellipse 145" transform="translate(493.048 109.251) rotate(124)" fill="none" stroke="#707070" stroke-width="1" stroke-dasharray="30">
        <ellipse cx="166.797" cy="135.813" rx="166.797" ry="135.813" stroke="none"/>
        <ellipse cx="166.797" cy="135.813" rx="166.297" ry="135.313" fill="none"/>
      </g>
      <g id="Ellipse_146" data-name="Ellipse 146" transform="translate(90.096 0.428) rotate(-13)" fill="none" stroke="#707070" stroke-width="1" stroke-dasharray="30">
        <ellipse cx="166.797" cy="135.813" rx="166.797" ry="135.813" stroke="none"/>
        <ellipse cx="166.797" cy="135.813" rx="166.297" ry="135.313" fill="none"/>
      </g>
      <path id="Path_2" data-name="Path 2" d="M311.118,71.519S245.263-18.081,169.9,3.3,39.425,52.786,9.647,157.028,27.221,289.138,41.532,431.793,6.583,603.117,66.893,727.648s278.255-2.334,278.255-2.334Z" transform="translate(-329.504 256.504) rotate(-87)" fill="#d9e3f2" opacity="0.79"/>
      <path id="Path_119" data-name="Path 119" d="M160.5,29.046c-17.71-.587-34.58-6.033-50.686-11.994S77.758,4.488,60.472,1.33C49.354-.7,36.639-.988,27.682,4.691c-8.622,5.475-11.408,14.9-12.9,23.657-1.127,6.586-1.79,13.517,1.3,19.683,2.143,4.281,5.949,7.879,8.579,11.994,9.159,14.267,2.687,31.862-7.238,45.793-4.652,6.537-10.056,12.776-13.646,19.727s-5.254,14.927-2.112,22.024c3.117,7.04,10.541,12.317,18.58,16.033,16.333,7.548,35.573,9.707,54.347,10.93,41.546,2.709,83.312,1.536,124.968.362,15.417-.435,30.9-.876,46.064-3.147,8.423-1.262,17.116-3.262,23.232-8.1,7.76-6.135,9.684-16.525,4.485-24.217-8.726-12.9-32.837-16.108-38.944-29.959-3.355-7.621.093-16.111,4.969-23.182,10.464-15.164,28-28.47,28.926-45.8.635-11.908-7.8-23.829-20.835-29.463-13.663-5.927-32.615-5.176-42.69,4.6C194.38,25.7,176.139,29.563,160.5,29.046Z" transform="matrix(0.978, -0.208, 0.208, 0.978, -154.871, 473.37)" fill="#b4cee5" opacity="0.89"/>
      <g id="undraw_team_spirit_hrr4" transform="translate(-148.36 -25.298)" opacity="0.22">
        <path id="Path_291" data-name="Path 291" d="M43.44,426.65c5.609,21.859,17.484,40.755,36.252,49.913,39.019,19.036,126.963,9.217,192.609-2.05,33.965-5.83,63.8-21.906,85.482-44.559Z" transform="translate(-39.622 -299.977)" fill="#2e7eb7" opacity="0.25"/>
        <path id="Path_292" data-name="Path 292" d="M407.723,43.924H371.7a2.851,2.851,0,1,1,0-5.677h6.232a2.85,2.85,0,1,1,0-5.674H373.49a3,3,0,0,1-3.116-2.839A2.994,2.994,0,0,1,373.49,26.9h18.8a53.261,53.261,0,0,0-14.664-3.683c-51.262-6-69.566-2.035-76.031,2.05a75.443,75.443,0,0,1-26.346,10.529C243.62,41.74,184.471,48.9,130.86,33.5c-26.645-7.65-46.448,5.3-58.32,26.895H413.977a46.986,46.986,0,0,0-4.228-17.16A3.266,3.266,0,0,1,407.723,43.924Z" transform="translate(-59.655 -20.14)" fill="#2e7eb7" opacity="0.25"/>
        <path id="Path_293" data-name="Path 293" d="M31.921,280.23a132.1,132.1,0,0,0,1.4,38.137L349.56,328.912a134.973,134.973,0,0,0,21.971-30.537Zm125.068,27.206h-6.232a2.85,2.85,0,1,1,0,5.674h-36a2.85,2.85,0,1,1,0-5.674h6.232a2.851,2.851,0,1,1,0-5.677h-4.453a2.85,2.85,0,1,1,0-5.674h36.018a2.85,2.85,0,1,1,0,5.674h4.437a2.851,2.851,0,1,1,0,5.677Z" transform="translate(-31.16 -199.182)" fill="#2e7eb7" opacity="0.25"/>
        <path id="Path_294" data-name="Path 294" d="M387.31,149.94,42.053,157.6A115.963,115.963,0,0,0,33.78,190.1H381.259a124.329,124.329,0,0,0,5.017-20.719A89.748,89.748,0,0,0,387.31,149.94ZM103.882,175.027H97.649a2.851,2.851,0,1,1,0,5.677H61.634a2.851,2.851,0,1,1,0-5.677h6.232a2.85,2.85,0,1,1,0-5.674H63.414a2.851,2.851,0,1,1,0-5.677H99.432a2.851,2.851,0,1,1,0,5.677h4.45a2.85,2.85,0,1,1,0,5.674Z" transform="translate(-32.973 -109.491)" fill="#2e7eb7" opacity="0.25"/>
        <ellipse id="Ellipse_118" data-name="Ellipse 118" cx="23.442" cy="5.263" rx="23.442" ry="5.263" transform="translate(183.56 228.424)" fill="#2e7eb7" opacity="0.1"/>
        <ellipse id="Ellipse_119" data-name="Ellipse 119" cx="42.291" cy="3.471" rx="42.291" ry="3.471" transform="translate(219.183 246.93)" fill="#2e7eb7" opacity="0.1"/>
        <ellipse id="Ellipse_120" data-name="Ellipse 120" cx="42.291" cy="5.263" rx="42.291" ry="5.263" transform="translate(49.38 239.875)" fill="#2e7eb7" opacity="0.1"/>
        <ellipse id="Ellipse_121" data-name="Ellipse 121" cx="31.821" cy="5.263" rx="31.821" ry="5.263" transform="translate(124.33 213.529)" fill="#2e7eb7" opacity="0.1"/>
        <path id="Path_295" data-name="Path 295" d="M472.96,195.763c-.673-4.531-4.789-15.1-4.789-15.1h0q-.108-.467-.243-.935c-2.92-10.034-6.961-10.906-6.961-10.906L446.489,165.7a1.122,1.122,0,0,1,.312.29,2.015,2.015,0,0,0-.227.034,5.671,5.671,0,0,1-1.268-2.742c-.028-.15-.053-.312-.072-.464a10.183,10.183,0,0,0-.829-15.309c-.153-.118-.312-.234-.464-.343a2.308,2.308,0,0,0,.193-2.745c-1.14-2.368-3.621-3.867-6.17-4.6a10.46,10.46,0,0,0-5.989-.128,21.636,21.636,0,0,0-3.135,1.455c-1.923.96-4.051,1.72-5.487,3.3a1.61,1.61,0,0,0-.548,1.324,3.574,3.574,0,0,0,.545.963,2.906,2.906,0,0,1,.028,2.412,23.385,23.385,0,0,0-.894,2.318,2.424,2.424,0,0,0,.483,2.328,10.251,10.251,0,0,0,.9.623,4.739,4.739,0,0,1,.863.969q.86,1.153,1.714,2.315a23.852,23.852,0,0,1,2.147,3.262,15.9,15.9,0,0,0,1.327,2.493,3.7,3.7,0,0,0,.57.6l-.168-.065a2.6,2.6,0,0,0,1.9.776h.087a.524.524,0,0,0,.349-.143v.312c.034,1.112.028,2.3-.05,3.409l-.134-.069a1.169,1.169,0,0,0-1.246.131L417.906,179.1s-2.9,3.964-2.493,10.806l-2.337,10.261s-2.92,8.706-.673,14.923,3.549,9.772,3.549,9.772.9,7.064,2.247,7.641,1.932.888,1.932.888l.268,1.689h0s.09.165.249.442c.982,1.708,4.618,7.734,6.731,7.089a27.013,27.013,0,0,1,.343,4.951l2.091,14.038s1.458,3.817,1.368,5.818,1.7,4.852,1.7,4.852a9.27,9.27,0,0,0-.9,6.528c.854,3.739,1.932,20.965,1.932,20.965l1.558,4.176-.044,4.9a4.674,4.674,0,0,1-.966,2.181c-1.01,1.1-.935,2.365-3.368,3.864s-3.976,2.066-3.976,4.051a5.208,5.208,0,0,1-.075.826c-.224,1.458-.661,2.25,3.814,2.674a11.8,11.8,0,0,0,8.762-2.929s.773-1.4,4.412-1.969c0,0,1.246-.065,1.312-1.165.025-.38.019-1.106,0-1.907a11.736,11.736,0,0,0-.4-3.39,7.391,7.391,0,0,1-.813-2.2h1.013s.935-7.064,0-11.638a18.881,18.881,0,0,1-.09-7.818l-.181-12.081a3.452,3.452,0,0,1-.268-3.689c.978-2.356,0-13.991,0-13.991s.361-4.175,1.393-5.154.05-6.117,0-6.385l1.839,6.167s.807,12.258,2.518,14.477l.492,5.553s3.5,5.11,2.829,7.862.72,12.7.72,12.7v10.174s-1.574,4.085.623,5.553l.935-.037c-.312.29-.552.726-.916,1.1-.421.433-.661,2.082-.795,3.5-.112,1.2-.15,2.231-.15,2.231a3.674,3.674,0,0,0,2.7,1.6c1.761.1,7.563,4.515,7.563,4.515a68.621,68.621,0,0,0,7.214-.312l.087-.022a1.948,1.948,0,0,0,1.119-.913,2.337,2.337,0,0,0,.268-1.68,4.194,4.194,0,0,0-2.418-2.652c-3.83-2.019-4.4-3.911-4.4-3.911l-2.515-3.773h.358a16.142,16.142,0,0,1,2.515-8.485L466.4,282s1.122-6.8-.807-10.485c0,0-.159-3.908,1.131-5.107s-1.717-13.324-1.717-13.324-.623-6.509-1.355-12.449h0c3.032,2.876,6.176-7.478,6.706-9.32h.078l-.034-.134c.022-.087.034-.131.034-.131h0s-.673-2.393-.181-1.907,1.708-1.334,1.708-1.334-.181-9.906,1.932-14.9S472.96,195.763,472.96,195.763Zm-9.037,6.3.016-.028c.312,6.048-.059,18.955-.059,18.955s-.418,1.655-.863,3.6l-.312-12.262h0l-.312-11.551ZM425.25,197.9s1.527,19.1,0,21.853a14.431,14.431,0,0,0-1.1,3.774c-.5-1.324-1.574-4.434-1.19-6.082.5-2.131-.988-7.731-.988-7.862a13.285,13.285,0,0,1,.935-5.4c1.069-2.281.368-3.269.368-3.269S424.172,197.175,425.25,197.9Z" transform="translate(-293.03 -102.177)" fill="url(#linear-gradient)"/>
        <path id="Path_296" data-name="Path 296" d="M449.621,444.391c-1.331,5.849-6.622-2.995-7.827-5.117-.156-.277-.243-.439-.243-.439l.573-2.689,3.032-1.246a8.468,8.468,0,0,1,1.359.885A8.191,8.191,0,0,1,449.621,444.391Z" transform="translate(-313.68 -305.656)" fill="#d38884"/>
        <path id="Path_297" data-name="Path 297" d="M579.916,431.339a.409.409,0,0,1-.034.131.664.664,0,0,1-.041.14c-.52,1.826-3.605,12.106-6.584,9.251-3.259-3.116-1.676-10.32-1.676-10.32h.022l6.855-.7,1.359,1.4h0Z" transform="translate(-402.928 -302.173)" fill="#d38884"/>
        <path id="Path_298" data-name="Path 298" d="M493.813,483.676l.174,19.631a16.1,16.1,0,0,0-2.468,8.413l-8.862.349c-2.163-1.455-.623-5.509-.623-5.509V496.452s-1.368-9.875-.707-12.611-2.776-7.79-2.776-7.79l-.486-5.512c-1.676-2.2-2.471-14.371-2.471-14.371l-1.8-6.145c.05.265.985,5.394,0,6.338s-1.368,5.113-1.368,5.113.969,11.554,0,13.888a3.438,3.438,0,0,0,.262,3.661l.178,11.994a18.755,18.755,0,0,0,.087,7.759c.925,4.54,0,11.554,0,11.554h-9.507l.044-4.9-1.539-4.144s-1.059-17.107-1.9-20.812a9.3,9.3,0,0,1,.879-6.481s-1.761-2.82-1.673-4.8-1.359-5.771-1.359-5.771l-2.05-13.932a27.067,27.067,0,0,0-1.016-7.937c-1.19-3.97-2.954-9.174-2.954-9.174l1.991.178,10.046.894s24.427-1.642,25.52-.277a4.584,4.584,0,0,1,.461,1.424c1.1,4.926,2.546,20.36,2.546,20.36S495.4,467,494.13,468.186s-1.112,5.067-1.112,5.067C494.919,476.914,493.813,483.676,493.813,483.676Z" transform="translate(-320.791 -303.922)" fill="#444053"/>
        <path id="Path_299" data-name="Path 299" d="M480.228,685.8c-.069,1.094-1.287,1.159-1.287,1.159-3.571.561-4.331,1.951-4.331,1.951a11.469,11.469,0,0,1-8.6,2.91c-4.394-.424-3.967-1.206-3.739-2.655a5.486,5.486,0,0,0,.072-.816c0-1.985,1.521-2.549,3.9-4.051s2.315-2.745,3.306-3.836a6.077,6.077,0,0,0,1.094-3.206c1.122-1.954,3.967.312,3.967.312.134.692,4.362.6,4.362.6a9.312,9.312,0,0,0,.851,2.381,11.7,11.7,0,0,1,.39,3.365C480.247,684.7,480.253,685.422,480.228,685.8Z" transform="translate(-327.856 -471.946)" fill="#b07473"/>
        <path id="Path_300" data-name="Path 300" d="M480.228,702.265c-.069,1.094-1.287,1.159-1.287,1.159-3.571.561-4.331,1.951-4.331,1.951a11.469,11.469,0,0,1-8.6,2.91c-4.394-.424-3.967-1.206-3.739-2.655,1.963.486,5.715,1.165,7.905-.025,3.044-1.651,5.229-2.8,5.229-2.8l4.811-2.421C480.247,701.168,480.253,701.888,480.228,702.265Z" transform="translate(-327.856 -488.412)" opacity="0.1"/>
        <path id="Path_301" data-name="Path 301" d="M566.093,694.473a1.9,1.9,0,0,1-1.1.907l-.084.022a66.1,66.1,0,0,1-7.08.312s-5.687-4.4-7.407-4.5a3.617,3.617,0,0,1-2.646-1.589s.034-1.022.143-2.212c.134-1.408.368-3.044.782-3.474.76-.795.935-1.87,2.646-1.19,0,0,2.443-4.306,5.322-.978l2.979,4.518s.561,1.87,4.334,3.9a4.181,4.181,0,0,1,2.371,2.633A2.322,2.322,0,0,1,566.093,694.473Z" transform="translate(-386.808 -474.733)" fill="#b07473"/>
        <path id="Path_302" data-name="Path 302" d="M566.093,709.728c-.337.284-.707.589-1.1.907l-.084.022a66.1,66.1,0,0,1-7.08.312s-5.687-4.4-7.407-4.5a3.617,3.617,0,0,1-2.646-1.589s.034-1.022.143-2.212c1.751.523,4.4,1.449,5.113,2.446,1.091,1.518,4.4,3.636,4.4,3.636s6.176-.6,8.918-.676A2.322,2.322,0,0,1,566.093,709.728Z" transform="translate(-386.808 -489.988)" opacity="0.1"/>
        <path id="Path_303" data-name="Path 303" d="M493.034,208.682l-8.133,8.6s-9.856-.726-8.136-3.636c.876-1.483,1.013-4.587.935-7.285-.072-2.6-.34-4.817-.34-4.817s13.823-6.88,12.776-.464a10.56,10.56,0,0,0-.037,3.661A4.8,4.8,0,0,0,493.034,208.682Z" transform="translate(-337.783 -142.809)" fill="#d38884"/>
        <path id="Path_304" data-name="Path 304" d="M491.883,201.076a10.559,10.559,0,0,0-.037,3.661,10.146,10.146,0,0,1-7.235,3.019c-1.87,0-3.892-1.536-5.4-2.424-.072-2.605-.087-3.792-.087-3.792S492.943,194.66,491.883,201.076Z" transform="translate(-339.543 -142.809)" opacity="0.1"/>
        <path id="Path_305" data-name="Path 305" d="M484.411,171.674a10.186,10.186,0,1,1-3.833-7.958A10.186,10.186,0,0,1,484.411,171.674Z" transform="translate(-329.16 -117.443)" fill="#d38884"/>
        <path id="Path_306" data-name="Path 306" d="M493.306,434.977c-2.536,6.036-18.852,6.16-18.852,6.16v-6.581l-.988-.065c.427,1.885-.6,6.481-.6,6.481-12.894,1.82-16.038-5.528-16.038-5.528l.449-2.515,10.046.894s24.427-1.642,25.52-.277A4.584,4.584,0,0,1,493.306,434.977Z" transform="translate(-324.198 -304.3)" opacity="0.1"/>
        <path id="Path_307" data-name="Path 307" d="M474.454,298.981V292.4l-.988-.062c.427,1.87-.6,6.481-.6,6.481-9.7,1.368-13.885-2.452-15.359-4.428a6.03,6.03,0,0,1-.679-1.1l3.939-22.155.935-32.606,1.412-5.721.327-2.745v-.031h.034l1,.43,6,2.6,6.821-5.151.1-.072.34-.259.564.452,1.4,1.125,4.5,29.038s7.79,22.358,9.248,31.382c.059.361.106.7.143,1.013C494.562,298.828,474.454,298.981,474.454,298.981Z" transform="translate(-324.198 -162.938)" fill="#2e7eb7"/>
        <circle id="Ellipse_123" data-name="Ellipse 123" cx="0.58" cy="0.58" r="0.58" transform="translate(146.436 70.185)" fill="#67647e"/>
        <circle id="Ellipse_124" data-name="Ellipse 124" cx="0.58" cy="0.58" r="0.58" transform="translate(146.704 75.476)" fill="#67647e"/>
        <circle id="Ellipse_125" data-name="Ellipse 125" cx="0.58" cy="0.58" r="0.58" transform="translate(147.283 84.042)" fill="#67647e"/>
        <circle id="Ellipse_126" data-name="Ellipse 126" cx="0.58" cy="0.58" r="0.58" transform="translate(148.24 93.269)" fill="#67647e"/>
        <circle id="Ellipse_127" data-name="Ellipse 127" cx="0.58" cy="0.58" r="0.58" transform="translate(148.819 101.931)" fill="#67647e"/>
        <circle id="Ellipse_128" data-name="Ellipse 128" cx="0.58" cy="0.58" r="0.58" transform="translate(149.399 111.158)" fill="#67647e"/>
        <circle id="Ellipse_129" data-name="Ellipse 129" cx="0.58" cy="0.58" r="0.58" transform="translate(149.168 120.285)" fill="#67647e"/>
        <path id="Path_308" data-name="Path 308" d="M463.822,279.584s-.648,8.485-1.838,10.953-1.72,9.392-1.72,9.392l-2.764-.312a6.032,6.032,0,0,1-.679-1.1l3.939-22.155.935-32.606,1.415-5.724.327-2.745.037-.016a1.115,1.115,0,0,1,.985.016l.131.069q-.059.168-.112.346A52.961,52.961,0,0,0,463,245.3s1.558,11.377,1.72,16.668S463.822,279.584,463.822,279.584Z" transform="translate(-324.192 -168.161)" opacity="0.1"/>
        <path id="Path_309" data-name="Path 309" d="M446.514,435.794a1.6,1.6,0,0,1-.106.206c-1.072,1.81-3.789,2.96-4.615,3.275-.156-.277-.243-.439-.243-.439l.573-2.689,3.032-1.246a8.469,8.469,0,0,1,1.359.894Z" transform="translate(-313.68 -305.656)" opacity="0.1"/>
        <path id="Path_310" data-name="Path 310" d="M419.99,298.81l-2.515,1.5-2.29,10.186s-2.867,8.641-.664,14.814S418,335.015,418,335.015s.882,7.011,2.206,7.584,1.895.882,1.895.882l.265,1.676s3.59-1.218,4.858-3.365-.935-7.478-.935-7.478-1.895-4.543-1.408-6.659-.972-7.672-.972-7.79a13.2,13.2,0,0,1,.935-5.36c1.066-2.272.355-3.241.355-3.241l-.664-6.481Z" transform="translate(-294.5 -211.973)" fill="#67647e"/>
        <path id="Path_311" data-name="Path 311" d="M538.392,292.2s-6.659,2.512-8.775.312-1.9-12.523-1.9-12.523-2.025-19.048-3.306-22.177-.623-25.707-.623-25.707-.86-2.92-1.611-3.683a.817.817,0,0,0-.159-.128l.259.056.9.193,1.4,1.125,4.5,29.038s7.79,22.358,9.248,31.382Z" transform="translate(-369.075 -163.427)" opacity="0.1"/>
        <path id="Path_312" data-name="Path 312" d="M580.751,431.59h-.075c-.838.109-8.236,1-8.267-.536a4.518,4.518,0,0,1,.028-.533l6.855-.7,1.359,1.4h0c.025.09.044.168.062.231Z" transform="translate(-403.763 -302.159)" opacity="0.1"/>
        <path id="Path_313" data-name="Path 313" d="M573.652,266.07l4.861,2.536s4.051,10.489,4.7,14.985c0,0,3,12.047.935,17s-1.895,14.789-1.895,14.789-1.19,1.807-1.676,1.324.178,1.895.178,1.895-8.31,1.1-8.345-.53,1.907-9.435,1.907-9.435.53-18.562-.221-21.473S573.652,266.07,573.652,266.07Z" transform="translate(-403.762 -189.435)" fill="#67647e"/>
        <path id="Path_314" data-name="Path 314" d="M521.083,329.52s-2.736,6.7-3.618,7.142.178,2.2.178,2.2S522.625,331.9,521.083,329.52Z" transform="translate(-365.698 -233.113)" opacity="0.1"/>
        <path id="Path_315" data-name="Path 315" d="M515.182,254.092c.031-.128-3.262,3.231-4.144,3.739S514.256,257.8,515.182,254.092Z" transform="translate(-361.43 -181.187)" opacity="0.1"/>
        <path id="Path_316" data-name="Path 316" d="M485.409,327.82s-5.026,3.25-4.362,4.537S485.409,327.82,485.409,327.82Z" transform="translate(-340.828 -231.943)" opacity="0.1"/>
        <path id="Path_317" data-name="Path 317" d="M524.47,480.07A26.9,26.9,0,0,0,535.4,483.5Z" transform="translate(-370.762 -336.751)" opacity="0.1"/>
        <path id="Path_318" data-name="Path 318" d="M491.5,501.3s3.967,4.986,5.777,5.113S491.5,501.3,491.5,501.3Z" transform="translate(-348.065 -351.366)" opacity="0.1"/>
        <path id="Path_319" data-name="Path 319" d="M498.756,564c-.178.087-2.25,4.5-4.362,4.63S498.756,564,498.756,564Z" transform="translate(-349.766 -394.528)" opacity="0.1"/>
        <path id="Path_320" data-name="Path 320" d="M568.33,594.712s3.932-.882,4.808,1.938C573.138,596.64,572.873,595.759,568.33,594.712Z" transform="translate(-400.955 -415.58)" opacity="0.1"/>
        <path id="Path_321" data-name="Path 321" d="M559.84,646s4.764-.972,5.777.352S559.84,646,559.84,646Z" transform="translate(-395.11 -450.74)" opacity="0.1"/>
        <path id="Path_322" data-name="Path 322" d="M506.254,654c0,.044-4.849.972-4.674,1.589s5.173.53,5.35-.442a.935.935,0,0,0-.676-1.147Z" transform="translate(-355.001 -456.484)" opacity="0.1"/>
        <path id="Path_323" data-name="Path 323" d="M554.75,666.8s7.968-.972,7.478.7S554.75,666.8,554.75,666.8Z" transform="translate(-391.606 -465.103)" opacity="0.1"/>
        <path id="Path_324" data-name="Path 324" d="M420.89,352.44c.044.131,5.247.838,5.952,2.515,0,0-5.113-2.384-5.92-2.384" transform="translate(-299.458 -248.891)" opacity="0.1"/>
        <path id="Path_325" data-name="Path 325" d="M435.479,396.16s-4.322,1.368-4.013,3.428S431.026,398.634,435.479,396.16Z" transform="translate(-306.727 -278.988)" opacity="0.1"/>
        <path id="Path_326" data-name="Path 326" d="M437.92,425.837s1.574-2.159,3.072-1.764S437.92,425.837,437.92,425.837Z" transform="translate(-311.181 -298.17)" opacity="0.1"/>
        <path id="Path_327" data-name="Path 327" d="M480.612,163.712a2.453,2.453,0,0,1-.5.377c-1.246.726-1.589,1.845-2.181,3.135a6.667,6.667,0,0,1-2.272,3.1c-1.436.866-3.328.548-4.82,1.3a3.739,3.739,0,0,0-1.994,3.686,10.633,10.633,0,0,0,.424,1.689,12.044,12.044,0,0,1,.455,3.668.626.626,0,0,1,0,.109,10.183,10.183,0,1,1,10.906-17.067Z" transform="translate(-329.194 -117.439)" opacity="0.1"/>
        <path id="Path_328" data-name="Path 328" d="M469.111,147.591a9.4,9.4,0,0,0-6.054-4.565,10.169,10.169,0,0,0-5.88-.125,21.569,21.569,0,0,0-3.076,1.443c-1.888.954-3.964,1.708-5.385,3.275a1.641,1.641,0,0,0-.539,1.315,3.672,3.672,0,0,0,.533.954,2.894,2.894,0,0,1,.028,2.4,21.98,21.98,0,0,0-.879,2.3,2.423,2.423,0,0,0,.474,2.309,8.632,8.632,0,0,0,.891.623,4.689,4.689,0,0,1,.844.96l1.683,2.3a23.325,23.325,0,0,1,2.106,3.238,15.429,15.429,0,0,0,1.3,2.471,2.82,2.82,0,0,0,2.362,1.262.458.458,0,0,0,.374-.178.493.493,0,0,0,.047-.234,11.96,11.96,0,0,0-.446-3.655,10.55,10.55,0,0,1-.424-1.689,3.755,3.755,0,0,1,1.994-3.686c1.5-.754,3.387-.436,4.82-1.3a6.622,6.622,0,0,0,2.272-3.116c.6-1.29.935-2.409,2.181-3.135A2.192,2.192,0,0,0,469.111,147.591Z" transform="translate(-317.958 -104.384)" fill="#585268"/>
        <path id="Path_329" data-name="Path 329" d="M501.63,693.06s1.558,1.985,1.153,3.116S501.63,693.06,501.63,693.06Z" transform="translate(-355.039 -483.373)" opacity="0.1"/>
        <path id="Path_330" data-name="Path 330" d="M569.28,702.989s.346-2.661,1.733-2.686a4.641,4.641,0,0,1,2.515.265c1.059.408,2.053,1.041,1.736,1.134s-1.823-1.521-3.368-.695a11.13,11.13,0,0,0-2.614,1.982Z" transform="translate(-401.609 -488.334)" opacity="0.1"/>
        <path id="Path_331" data-name="Path 331" d="M477.733,241.855,482.1,238.8s-6.382-3.77-7.142-3.241-1.284,5.3-1.284,5.3Z" transform="translate(-335.791 -168.395)" opacity="0.1"/>
        <path id="Path_332" data-name="Path 332" d="M477.673,241.094l4.362-3.116s-6.382-3.77-7.142-3.241-1.284,5.559-1.284,5.559Z" transform="translate(-335.75 -167.83)" fill="#e1e7ef"/>
        <path id="Path_333" data-name="Path 333" d="M477.673,241.094l4.362-3.116s-6.382-3.77-7.142-3.241-1.284,5.559-1.284,5.559Z" transform="translate(-335.75 -167.83)" fill="#2e7eb7"/>
        <path id="Path_334" data-name="Path 334" d="M442.649,234.513l-.131-.065a1.131,1.131,0,0,0-1.225.128l-13.087,10.616s-2.845,3.936-2.449,10.725l7.718,10.934s.882-3.7,1.938-3c0,0,1.5,18.961,0,21.694s-2.159,12.963-2.159,12.963l5.07.573s.53-6.924,1.72-9.392,1.838-10.953,1.838-10.953,1.072-12.327.894-17.618-1.72-16.668-1.72-16.668S441.489,237.785,442.649,234.513Z" transform="translate(-302.782 -167.581)" fill="#67647e"/>
        <path id="Path_335" data-name="Path 335" d="M509.877,234.963l-5.437-2.013s6.924-7.584,7.79-3.378Z" transform="translate(-356.973 -163.435)" opacity="0.1"/>
        <path id="Path_336" data-name="Path 336" d="M509.877,234.113,504.44,232.1s6.924-7.584,7.79-3.378Z" transform="translate(-356.973 -162.85)" fill="#e1e7ef"/>
        <path id="Path_337" data-name="Path 337" d="M509.877,234.113,504.44,232.1s6.924-7.584,7.79-3.378Z" transform="translate(-356.973 -162.85)" fill="#2e7eb7"/>
        <path id="Path_338" data-name="Path 338" d="M521.32,228.111a.312.312,0,0,1,.224.05Z" transform="translate(-368.593 -163.301)" opacity="0.1"/>
        <path id="Path_339" data-name="Path 339" d="M523,226.418l14.427,3.116s3.97.882,6.837,10.847-3.926,22.174-3.926,22.174l-1.5-1.274.751,29.1s-6.659,2.512-8.775.312-1.895-12.533-1.895-12.533-2.029-19.045-3.309-22.177-.623-25.7-.623-25.7S523.81,226.243,523,226.418Z" transform="translate(-369.75 -162.134)" fill="#67647e"/>
        <path id="Path_340" data-name="Path 340" d="M564.942,285.651c-.2.187-.439,8.993.442,15.7a85.548,85.548,0,0,0,2.493,12.081l-1.309-26.851S565.559,285.078,564.942,285.651Z" transform="translate(-398.492 -202.824)" opacity="0.1"/>
        <path id="Path_341" data-name="Path 341" d="M559.7,261.6c.352.221,1.9,3.879,1.19,5.378S559.7,261.6,559.7,261.6Z" transform="translate(-395.014 -186.357)" opacity="0.1"/>
        <path id="Path_342" data-name="Path 342" d="M486.254,151.452a7.965,7.965,0,0,0-3.172-3.322,7.544,7.544,0,0,1,2.378,2.8,2.216,2.216,0,0,1-.773,3.175c-1.212.682-1.589,1.845-2.181,3.135a6.775,6.775,0,0,1-2.275,3.116c-1.433.866-3.325.545-4.82,1.3a3.764,3.764,0,0,0-1.994,3.689,10.593,10.593,0,0,0,.427,1.686,12.053,12.053,0,0,1,.455,3.668.492.492,0,0,1-.05.234.446.446,0,0,1-.371.178,2.147,2.147,0,0,1-1.087-.2,2.53,2.53,0,0,0,1.87.732.368.368,0,0,0,.418-.411,11.956,11.956,0,0,0-.452-3.668,10.24,10.24,0,0,1-.427-1.689,3.755,3.755,0,0,1,1.994-3.686c1.5-.754,3.387-.436,4.82-1.3a6.622,6.622,0,0,0,2.272-3.116c.6-1.29.935-2.409,2.181-3.135A2.218,2.218,0,0,0,486.254,151.452Z" transform="translate(-335.185 -108.245)" opacity="0.1"/>
        <path id="Path_343" data-name="Path 343" d="M666.681,206.408c-4.294-.084-8.083-3.116-10.23-6.821a6.856,6.856,0,0,1-1.035-2.92,3.366,3.366,0,0,1,.118-.7,7.239,7.239,0,0,0,.312-1.069,1.865,1.865,0,0,0,0-.436s0,0,0-.025a2.578,2.578,0,0,0-.935-2.1c-.573-.539-1.293-.935-1.891-1.471-1.845-1.62-2.406-4.219-2.44-6.693v-.131c.022-1.059.106-2.122.1-3.181a13.378,13.378,0,0,0-.078-1.8,5.951,5.951,0,0,0-1.926-3.982c-3.072-2.493-8.239.1-11.42-2.253-.773-.576-1.4-1.427-2.337-1.651a3.937,3.937,0,0,0-2.134.29c-2.343.773-4.958,1.789-5.874,4.051-.523,1.3-.377,2.783-.857,4.1a20.452,20.452,0,0,1-1.34,2.474,3.873,3.873,0,0,0-.5,2.066,2.331,2.331,0,0,0,.153,1.1,2.805,2.805,0,0,0,.763,1.094,3.628,3.628,0,0,1-.455.729c-.6.732-1.517,1.246-2.141,1.976a4.668,4.668,0,0,0-.542,4.724c.567,1.57,1.592,3,2.3,4.531a2.432,2.432,0,0,1,.234,2.066,5.922,5.922,0,0,1-1.035,1.2,3.78,3.78,0,0,0-.935,2.088c-7.014,1.6-7.02,7.239-7.02,7.239h0l-3.789,9.529s-.608,1.6-1.321,3.724l-4.484-.8,3.116,5.216a16.471,16.471,0,0,0-.869,5.085s-1.393,6.544,1.084,7.687l5.466,2.459a3.239,3.239,0,0,0,.757.34l.221.1a.586.586,0,0,0,.511,0h.075a.735.735,0,0,0,.312-.047.623.623,0,0,0,.274-.3.1.1,0,0,1,0-.031l1.636-.474,1.387,1.642c.623.439,1.246.82,1.835,1.162l-2.147,21.32s-.346,28.356-1.393,34.819a18.1,18.1,0,0,0-.243,5.135l-.041.069c.259,1.823.935,2.181.935,2.181V309.7a.208.208,0,0,0,.041.025,18.364,18.364,0,0,1,1.122-2.406v.467c-.022,2.406-.1,5.774-.346,7.965-.424,3.739,1.084,16.063,1.084,16.063l.52,11.218A10.37,10.37,0,0,1,620,348.494c-1.246,2.24-2.839,5.394-2.954,6.793a1.4,1.4,0,0,0,0,.227h0l-2.674,3.216s-1.044,1.614,1.315,2.265a12.627,12.627,0,0,0,5.213-.414,3.484,3.484,0,0,0,2.7-3.39,12,12,0,0,1,2.206-4.235l.439,2.583,2.942.729.377-7.08a3.115,3.115,0,0,0,.2-1.246h0c.58-5.036-1.365-4.584-1.365-4.584a.271.271,0,0,1,.093.174l-.093-.171h0c-1.193-2.356-.623-6.232-.623-6.232s1.558-11.218,2.091-14.181c.383-2.094.224-8.949.1-12.776a4.566,4.566,0,0,0-.016-.464c4.562-.059,10.152-.212,14.075-.592v.461l-.723,26.5a14.55,14.55,0,0,1-1.016,4.93.27.27,0,0,1-.034.09,21.5,21.5,0,0,0-1.436,6.946l-.337,8.413v.234h0c-.586.224-1.511.876-1.536,2.764-.041,2.767,4.836,1.845,4.836,1.845,4.873,0,4.914-5.073,4.914-5.073s.153-4.652.386-7.765-.735-2.427-.735-2.427l-.075,8.856V347.2l.075-1.125v-.031h0v-.24l.614-9.133s4.49-15.219,5.185-18.138c.5-2.075.29-8.326.128-11.782a2.743,2.743,0,0,0-.025-.458c1.393-.125,2.624-.137,3.116-.137h.227s-.231-24.442-.813-33.653-1.508-17.64-3.83-20.176c-1.4-1.533-3.356-6.266-4.674-9.772a48.884,48.884,0,0,0,8.591,2.8c7.351,1.539,6.344-4.842,6.344-4.842l-.745-12.068h.05a61.52,61.52,0,0,0-.81-9.435,27.757,27.757,0,0,0-1.895-6.855c.8-.312,1.586-.645,2.359-.988,2-.882,4.247-2.131,4.534-4.285h-.1a2.78,2.78,0,0,0,.075-.474Zm-45.566,17.45h0c.016,1.246-.031,3.409-.106,5.8l-2.334-3.116,2.34-3.8ZM652.388,230.187Zm.972,4.715-3.889-1.246a17.453,17.453,0,0,1,2.4-2.973l.337-.312-.122.025.187-.171.112-.025-.178.171.212-.044a6.635,6.635,0,0,0,1.324,2.664c1.4,1.524-.383,1.91-.383,1.91Z" transform="translate(-426.845 -124.071)" fill="url(#linear-gradient-2)"/>
        <path id="Path_344" data-name="Path 344" d="M642.387,715.66l-.455,8.625-2.9-.726-.611-3.587Z" transform="translate(-439.495 -492.655)" fill="#a27772"/>
        <path id="Path_345" data-name="Path 345" d="M642.387,715.66l-.455,8.625-2.9-.726-.611-3.587Z" transform="translate(-439.495 -492.655)" opacity="0.1"/>
        <path id="Path_346" data-name="Path 346" d="M716.48,645.579l4.425.916,3.281-2.9V635.43l.075-1.116v-.034h0v-.237l.611-9.077s4.428-15.11,5.117-18.011c.486-2.057.284-8.264.122-11.695-.065-1.405-.122-2.346-.122-2.346l-9.769-2.365-.206,7.51-.714,26.312a14.58,14.58,0,0,1-1,4.9l-.034.09a21.414,21.414,0,0,0-1.418,6.893l-.33,8.367v.231Z" transform="translate(-502.941 -412.805)" fill="#cc818c"/>
        <path id="Path_347" data-name="Path 347" d="M741.45,730.136v.231h0v-.237Z" transform="translate(-520.13 -508.892)" opacity="0.1"/>
        <path id="Path_348" data-name="Path 348" d="M716.48,761.237l4.425.916,3.281-2.9v-.695a.934.934,0,0,1-.47.748l-.047.028a8.818,8.818,0,0,1-4.967.982l-1.726-.146a1.618,1.618,0,0,0-.458.112v.231Z" transform="translate(-502.941 -528.463)" opacity="0.1"/>
        <path id="Path_349" data-name="Path 349" d="M720.378,740.374l.047-.025a.935.935,0,0,0,.477-.81l.072-8.79s.953-.682.723,2.409-.38,7.709-.38,7.709-.037,5.036-4.845,5.036c0,0-4.808.916-4.771-1.832s1.985-2.86,1.985-2.86l1.726.15A8.8,8.8,0,0,0,720.378,740.374Z" transform="translate(-499.65 -509.273)" fill="#b07473"/>
        <path id="Path_350" data-name="Path 350" d="M642.52,650.07c.112,1.985,5.952.838,5.952.838l3.929-7.628s3.281-2.521,1.639-4.733a3.512,3.512,0,0,1-.24-.377l-.016-.019h0c-.034-.056-.065-.115-.1-.178h0c-1.178-2.337-.6-6.17-.6-6.17s1.524-11.143,2.06-14.081c.377-2.075.221-8.884.1-12.692-.05-1.583-.1-2.646-.1-2.646l-9.694-2.6v2.892c-.022,2.39-.1,5.734-.343,7.909-.418,3.7,1.069,15.948,1.069,15.948l.514,11.146a10.324,10.324,0,0,1-1.246,5.425c-1.215,2.225-2.8,5.359-2.913,6.746A1.362,1.362,0,0,0,642.52,650.07Z" transform="translate(-452.027 -419.166)" fill="#cc818c"/>
        <path id="Path_351" data-name="Path 351" d="M642.514,734.86c.112,1.985,5.952.838,5.952.838l3.929-7.628s3.281-2.521,1.639-4.733a3.521,3.521,0,0,1-.24-.377,18.948,18.948,0,0,1-1.321,4.051s-3.244,6.491-4.275,7.977-5.512-.277-5.68-.34A1.357,1.357,0,0,0,642.514,734.86Z" transform="translate(-452.021 -503.956)" opacity="0.1"/>
        <path id="Path_352" data-name="Path 352" d="M647.285,722.277s1.919-.446,1.346,4.553h0a3.219,3.219,0,0,1-1.518,2.857,10.912,10.912,0,0,0-4.565,6.332h0a3.453,3.453,0,0,1-2.664,3.365c-1.733.405-3.892.76-5.141.411-2.328-.648-1.3-2.25-1.3-2.25l2.67-3.169s4.655,1.832,5.684.343,4.275-7.974,4.275-7.974S647.856,722.7,647.285,722.277Z" transform="translate(-445.624 -503.479)" fill="#b07473"/>
        <path id="Path_353" data-name="Path 353" d="M728.026,593.52l-.206,7.51c2.6-.252,4.465-.6,4.783-1.1.689-1.066,3.188-1.514,5.313-1.7-.065-1.405-.122-2.346-.122-2.346Z" transform="translate(-510.747 -414.85)" opacity="0.1"/>
        <path id="Path_354" data-name="Path 354" d="M651.94,605.612a3.564,3.564,0,0,1,1.069-1.29c1.028-.57.916,3.665.916,3.665s3.428.031,7.806-.025c-.05-1.583-.1-2.649-.1-2.649l-9.694-2.593S651.959,603.923,651.94,605.612Z" transform="translate(-458.511 -421.183)" opacity="0.1"/>
        <path id="Path_355" data-name="Path 355" d="M646.159,458.92s1.147-3.116,2.181-3.671.916,3.661.916,3.661,25.184.231,26.443-1.717,8.585-1.832,8.585-1.832-.227-24.268-.8-33.423-1.486-17.515-3.777-20.033c-1.48-1.63-3.587-6.9-4.889-10.417-.707-1.919-1.178-3.319-1.178-3.319L649.6,389.541l-.2,1.948-2.552,25.527s-.343,28.16-1.374,34.569S646.159,458.92,646.159,458.92Z" transform="translate(-453.836 -273.488)" fill="#444053"/>
        <g id="Group_36" data-name="Group 36" transform="translate(191.341 114.682)" opacity="0.1">
          <path id="Path_356" data-name="Path 356" d="M685.927,457.193c1.246-1.944,8.585-1.832,8.585-1.832s-.227-24.268-.8-33.423-1.486-17.515-3.777-20.033c-1.486-1.636-3.587-6.9-4.889-10.417-.6-1.614-1.022-2.857-1.14-3.213l1.87-.106s.471,1.4,1.181,3.319c1.3,3.515,3.406,8.787,4.886,10.417,2.29,2.518,3.206,10.875,3.777,20.033s.8,33.423.8,33.423-7.326-.112-8.588,1.832c-1.075,1.661-19.606,1.739-24.984,1.723C669.752,458.9,684.955,458.7,685.927,457.193Z" transform="translate(-657.363 -388.17)"/>
          <path id="Path_357" data-name="Path 357" d="M646.446,603.322c.464-.259.695.458.81,1.327a17.984,17.984,0,0,0-1.081,2.343s-.664-.358-.935-2.181A4.242,4.242,0,0,1,646.446,603.322Z" transform="translate(-645.24 -536.243)"/>
        </g>
        <path id="Path_358" data-name="Path 358" d="M661.64,192.133c-1.664,2.268.019,5.494-1.767,7.7-.589.729-1.5,1.246-2.11,1.963a4.663,4.663,0,0,0-.536,4.69c.558,1.558,1.558,2.979,2.269,4.5a2.408,2.408,0,0,1,.231,2.05,5.808,5.808,0,0,1-1.022,1.193,4.3,4.3,0,0,0-.561,4.568,14.783,14.783,0,0,0,2.957,4.082,2.018,2.018,0,0,0,2.932.67A11.529,11.529,0,0,0,669.28,208.5c-.966-2.315-2.577-4.534-2.593-6.98,0-1.941,1-3.8,1.175-5.727.215-2.35-1.175-6.079-4.01-7.1C664.039,190.2,662.484,190.968,661.64,192.133Z" transform="translate(-461.889 -136.166)" fill="#585268"/>
        <path id="Path_359" data-name="Path 359" d="M661.64,192.133c-1.664,2.268.019,5.494-1.767,7.7-.589.729-1.5,1.246-2.11,1.963a4.663,4.663,0,0,0-.536,4.69c.558,1.558,1.558,2.979,2.269,4.5a2.408,2.408,0,0,1,.231,2.05,5.808,5.808,0,0,1-1.022,1.193,4.3,4.3,0,0,0-.561,4.568,14.783,14.783,0,0,0,2.957,4.082,2.018,2.018,0,0,0,2.932.67A11.529,11.529,0,0,0,669.28,208.5c-.966-2.315-2.577-4.534-2.593-6.98,0-1.941,1-3.8,1.175-5.727.215-2.35-1.175-6.079-4.01-7.1C664.039,190.2,662.484,190.968,661.64,192.133Z" transform="translate(-461.889 -136.166)" opacity="0.1"/>
        <path id="Path_360" data-name="Path 360" d="M691.11,464.55c-3.331.174-6.466,1.608-9.382,3.228a64.273,64.273,0,0,1-8.878,4.605" transform="translate(-472.906 -326.067)" opacity="0.1"/>
        <path id="Path_361" data-name="Path 361" d="M690.266,489.74a13.732,13.732,0,0,0-8.647,4.207c-.81.857-1.508,1.817-2.353,2.639a10.452,10.452,0,0,1-4.637,2.627" transform="translate(-474.131 -343.408)" opacity="0.1"/>
        <path id="Path_362" data-name="Path 362" d="M685.345,508.91a15.118,15.118,0,0,0-6.955,4.194c-.511.552-.975,1.141-1.486,1.692-2.758,2.96-6.653,4.531-10.414,6.017" transform="translate(-468.528 -356.605)" opacity="0.1"/>
        <path id="Path_363" data-name="Path 363" d="M696.881,242.7a68.375,68.375,0,0,0,.686,7.952,10.408,10.408,0,0,0,1.374,4.3c1.832,2.181-8.927,5.095-8.927,5.095l-6.354-4.923s5.036-4.637,2.689-9.158S696.881,242.7,696.881,242.7Z" transform="translate(-480.347 -173.239)" fill="#cc818c"/>
        <path id="Path_364" data-name="Path 364" d="M658.79,391.489H684.2c-.707-1.919-1.178-3.319-1.178-3.319l-24.037,1.371Z" transform="translate(-463.227 -273.488)" opacity="0.1"/>
        <path id="Path_365" data-name="Path 365" d="M642.581,311.225h27.169a9.427,9.427,0,0,1,1.088-7.2,15.922,15.922,0,0,1,2.845-3.689l.187-.171,9.485-2.1.511-.112s.078-17.247-6.03-19.615a35.706,35.706,0,0,1-9.769-5.568l-8.392,2.593-6.182-3.116c-1.985,2.134-7.251,1.3-7.251,1.3-8.622.991-8.622,7.478-8.622,7.478s5.036,11.751,5.419,11.751S642.581,311.225,642.581,311.225Z" transform="translate(-448.654 -193.682)" fill="#2e7eb7"/>
        <path id="Path_366" data-name="Path 366" d="M667.235,354.7s-5.54-1.228-7.426-3.375" transform="translate(-463.929 -248.127)" opacity="0.1"/>
        <path id="Path_367" data-name="Path 367" d="M759.1,341.51l-6.425,5.266a10.957,10.957,0,0,0,.212,1.246l.187-.171,9.485-2.1Z" transform="translate(-527.854 -241.367)" opacity="0.1"/>
        <path id="Path_368" data-name="Path 368" d="M717.46,374.948s1.405.791,3.558,1.832h3.693a9.427,9.427,0,0,1,1.087-7.2l-6.509-2.106C721.5,369.53,717.46,374.948,717.46,374.948Z" transform="translate(-503.615 -259.238)" opacity="0.1"/>
        <path id="Path_369" data-name="Path 369" d="M624.567,293.76l-3.814,2.06-3.739,9.463s-3.892,10.376-3.512,13.125c0,0-1.371,6.488,1.069,7.631l6.357,2.879a.592.592,0,0,0,.763-.816c-.907-1.717-1.9-4.4-.312-5.88l-1.832-3.814,6.622-10.838,2.212-3.739Z" transform="translate(-431.786 -208.496)" fill="#2e7eb7"/>
        <path id="Path_370" data-name="Path 370" d="M676.98,349.4c.33,1.346,1.446,3.428,5.138,4.2l4.051,3.319,4.31,1.954,1.757.795.745-5.381-1.692-.935-1.972-1.078s-4.45-8.061-11.5-4.674A1.558,1.558,0,0,0,676.98,349.4Z" transform="translate(-475.715 -244.99)" opacity="0.1"/>
        <path id="Path_371" data-name="Path 371" d="M677.734,347.972c.33,1.349,1.443,3.428,5.135,4.2l4.051,3.319,4.313,1.954,1.754.795.745-5.381-1.692-.935-1.957-1.069s-4.453-8.061-11.5-4.659a1.558,1.558,0,0,0-.851,1.773Z" transform="translate(-476.239 -244.018)" fill="#cc818c"/>
        <circle id="Ellipse_130" data-name="Ellipse 130" cx="9.844" cy="9.844" r="9.844" transform="translate(199.592 56.758)" opacity="0.1"/>
        <circle id="Ellipse_131" data-name="Ellipse 131" cx="9.844" cy="9.844" r="9.844" transform="translate(199.592 56.531)" fill="#cc818c"/>
        <path id="Path_372" data-name="Path 372" d="M716.34,278.423l-2.96-5.752s4.331-1.751,4.646-3.78,4.151,2.378,3.322,3.839S716.34,278.423,716.34,278.423Z" transform="translate(-500.806 -191.015)" opacity="0.1"/>
        <path id="Path_373" data-name="Path 373" d="M716.34,276.953l-2.96-5.752s4.331-1.751,4.646-3.78,4.151,2.381,3.322,3.839S716.34,276.953,716.34,276.953Z" transform="translate(-500.806 -190.004)" fill="#2e7eb7"/>
        <path id="Path_374" data-name="Path 374" d="M619.054,342.138l16.356,21.99s-6.029,3.281-14.334-2.593l-3.587-4.275L607.25,340Z" transform="translate(-427.747 -240.328)" fill="#f6f8fb"/>
        <path id="Path_375" data-name="Path 375" d="M633.953,372.714l1.49-.041s9.1-8.831,11.333-4.362-5.668,8.644-5.668,8.644l-2.4,1.3-3.132.935-2-2.689Z" transform="translate(-445.866 -258.948)" fill="#cc818c"/>
        <path id="Path_376" data-name="Path 376" d="M631.6,387.932a2.223,2.223,0,0,1,.037,1.539.624.624,0,0,1-.271.3.7.7,0,0,1-.312.044A3.132,3.132,0,0,1,629,388.795a9.378,9.378,0,0,1-1.331-1.926,3.553,3.553,0,0,1-.682-2.293,3.345,3.345,0,0,1,1.692-1.976c1.508-1,1.558.165,1.888,1.449S631.253,386.635,631.6,387.932Z" transform="translate(-441.314 -269.395)" opacity="0.1"/>
        <path id="Path_377" data-name="Path 377" d="M630.866,387.932a2.241,2.241,0,0,1,.037,1.539.624.624,0,0,1-.271.3.7.7,0,0,1-.312.044,3.116,3.116,0,0,1-2.053-1.016,9.27,9.27,0,0,1-1.334-1.926,3.531,3.531,0,0,1-.679-2.293,3.34,3.34,0,0,1,1.689-1.976c1.511-1,1.558.165,1.891,1.449S630.517,386.635,630.866,387.932Z" transform="translate(-440.809 -269.395)" fill="#2e7eb7"/>
        <path id="Path_378" data-name="Path 378" d="M623.85,315.1l.76-1.287-.664,2.39Z" transform="translate(-429.465 -216.023)" opacity="0.1"/>
        <path id="Path_379" data-name="Path 379" d="M721.19,371.952l1.754.795.745-5.381L722,366.43C723.166,367.77,722.143,370.247,721.19,371.952Z" transform="translate(-506.183 -258.522)" opacity="0.1"/>
        <path id="Path_380" data-name="Path 380" d="M725.96,361.45s-5.665.346-8.071-1.2" transform="translate(-503.911 -254.268)" opacity="0.1"/>
        <g id="Group_37" data-name="Group 37" transform="translate(197.227 79.007)" opacity="0.1">
          <path id="Path_381" data-name="Path 381" d="M735.954,306.647a15.946,15.946,0,0,1,2.845-3.693,7.6,7.6,0,0,1,.838-.455l8.831-1.814.511-.112s.078-17.247-6.026-19.615a36.683,36.683,0,0,1-9.523-5.363l.67-.206a35.613,35.613,0,0,0,9.769,5.568c6.107,2.365,6.026,19.615,6.026,19.615h-.916l-9.036,1.729s-.39.377-.508.486a17.51,17.51,0,0,0-2.889,3.82,9.578,9.578,0,0,0-.757,7.242h-.935A9.525,9.525,0,0,1,735.954,306.647Z" transform="translate(-711.836 -274.857)"/>
          <path id="Path_382" data-name="Path 382" d="M664.13,277.869c.146-.022.287-.044.439-.059a15.791,15.791,0,0,0,1.87.153A17,17,0,0,1,664.13,277.869Z" transform="translate(-664.13 -276.523)"/>
          <path id="Path_383" data-name="Path 383" d="M693.35,276.805l-5.59-2.829a2.956,2.956,0,0,0,.312-.3l5.833,2.951Z" transform="translate(-680.397 -273.68)"/>
        </g>
        <path id="Path_384" data-name="Path 384" d="M735.581,340l3.739,4.581.763,12.439s.991,6.332-6.257,4.8-15.636-6.245-15.636-6.245,4.051-5.419,1.832-7.478l10.38,3.359s1.754-.383.38-1.907a8.585,8.585,0,0,1-1.617-4.275Z" transform="translate(-504.118 -240.328)" fill="#2e7eb7"/>
        <path id="Path_385" data-name="Path 385" d="M779.42,382.17l2.06,2.365a2.97,2.97,0,0,1-2.06-2.365Z" transform="translate(-546.268 -269.357)" opacity="0.1"/>
        <path id="Path_386" data-name="Path 386" d="M736.99,360.8l3.206,4.119-1.6.383Z" transform="translate(-507.35 -248.371)" opacity="0.1"/>
        <path id="Path_387" data-name="Path 387" d="M665.222,188.621a3.287,3.287,0,0,1,.343-2.683,21.185,21.185,0,0,0,1.324-2.459c.47-1.3.327-2.776.841-4.051.907-2.259,3.484-3.269,5.793-4.051a3.9,3.9,0,0,1,2.106-.287c.935.221,1.542,1.069,2.306,1.639,3.135,2.337,8.233-.237,11.264,2.237a5.9,5.9,0,0,1,1.9,3.951,34.885,34.885,0,0,1-.019,4.493c-.05,2.624.443,5.494,2.406,7.232.592.524,1.29.916,1.87,1.458a2.553,2.553,0,0,1,.935,2.085,7.231,7.231,0,0,1-.312,1.059,5.423,5.423,0,0,0,.9,4.051c2.119,3.668,5.855,6.69,10.09,6.774-.284,2.138-2.493,3.378-4.472,4.253-2.493,1.119-5.148,2.215-7.893,2.075s-5.609-1.9-6.089-4.6c-.165-.935-.143-2.06-.935-2.546-.486-.3-1.115-.221-1.639-.442a2.887,2.887,0,0,1-1.38-1.944,17.5,17.5,0,0,1-.813-4.986c-.034-2.007.231-4.2-.907-5.849-1.053-1.53-2.923-2.306-4.138-3.711-1.122-1.3-2.34-2.873-4.179-3.116C671.984,188.846,666.724,192.3,665.222,188.621Z" transform="translate(-467.543 -126.765)" opacity="0.1"/>
        <path id="Path_388" data-name="Path 388" d="M665.222,187.151a3.287,3.287,0,0,1,.343-2.683,21.185,21.185,0,0,0,1.324-2.459c.47-1.3.327-2.776.841-4.051.907-2.262,3.484-3.272,5.793-4.051a3.894,3.894,0,0,1,2.106-.287c.935.221,1.542,1.069,2.306,1.639,3.135,2.337,8.233-.237,11.264,2.237a5.9,5.9,0,0,1,1.9,3.954,34.834,34.834,0,0,1-.019,4.49c-.05,2.624.443,5.494,2.406,7.232.592.523,1.29.916,1.87,1.458a2.553,2.553,0,0,1,.935,2.085,7.229,7.229,0,0,1-.312,1.059,5.423,5.423,0,0,0,.9,4.051c2.125,3.655,5.846,6.687,10.08,6.771-.284,2.138-2.493,3.378-4.472,4.257-2.493,1.116-5.148,2.212-7.893,2.072s-5.609-1.9-6.089-4.6c-.165-.935-.143-2.06-.935-2.546-.486-.3-1.116-.221-1.639-.442a2.888,2.888,0,0,1-1.38-1.944,17.483,17.483,0,0,1-.813-4.986c-.034-2.007.231-4.2-.907-5.849-1.053-1.53-2.923-2.306-4.138-3.711-1.122-1.3-2.34-2.873-4.179-3.116C671.984,187.376,666.724,190.837,665.222,187.151Z" transform="translate(-467.543 -125.753)" fill="#585268"/>
        <path id="Path_389" data-name="Path 389" d="M683.71,278.34l5.643-4.581s-3.864-2.094-4.325-3.879-3.552.848-3.238,2.449S683.71,278.34,683.71,278.34Z" transform="translate(-479.045 -191.646)" opacity="0.1"/>
        <path id="Path_390" data-name="Path 390" d="M684.461,276.137l5.643-4.577s-3.864-2.094-4.306-3.879-3.552.848-3.238,2.449S684.461,276.137,684.461,276.137Z" transform="translate(-479.575 -190.132)" fill="#2e7eb7"/>
        <circle id="Ellipse_132" data-name="Ellipse 132" cx="0.449" cy="0.449" r="0.449" transform="translate(210.302 84.812)" opacity="0.1"/>
        <circle id="Ellipse_133" data-name="Ellipse 133" cx="0.449" cy="0.449" r="0.449" transform="translate(210.302 87.305)" opacity="0.1"/>
        <circle id="Ellipse_134" data-name="Ellipse 134" cx="0.449" cy="0.449" r="0.449" transform="translate(210.302 89.794)" opacity="0.1"/>
        <g id="Group_38" data-name="Group 38" transform="translate(197.588 51.202)" opacity="0.1">
          <path id="Path_391" data-name="Path 391" d="M671.6,188.283c.446-1.225.349-2.6.767-3.833a4.185,4.185,0,0,0-.477.879c-.517,1.287-.371,2.761-.844,4.051l-.031.075A7.124,7.124,0,0,0,671.6,188.283Z" transform="translate(-669.227 -184.45)"/>
          <path id="Path_392" data-name="Path 392" d="M703.257,234.28c-2.493,1.116-5.148,2.212-7.893,2.072s-5.609-1.9-6.089-4.6c-.165-.935-.143-2.063-.935-2.549-.486-.3-1.115-.221-1.639-.442a2.888,2.888,0,0,1-1.38-1.944,17.481,17.481,0,0,1-.813-4.986c-.034-2,.234-4.194-.9-5.849-1.056-1.53-2.926-2.3-4.141-3.711-1.122-1.3-2.34-2.873-4.179-3.116-2.521-.343-7.79,3.116-9.28-.567a2.9,2.9,0,0,1,.1-2.128c-.109.184-.215.368-.312.555a3.3,3.3,0,0,0-.34,2.686c1.5,3.677,6.759.221,9.28.567,1.839.249,3.057,1.823,4.179,3.116,1.215,1.408,3.085,2.181,4.138,3.714,1.14,1.652.872,3.842.907,5.846a17.483,17.483,0,0,0,.813,4.986,2.9,2.9,0,0,0,1.38,1.944c.524.221,1.153.15,1.639.442.8.486.782,1.623.935,2.549.486,2.7,3.347,4.459,6.089,4.6s5.385-.954,7.893-2.072c1.807-.8,3.82-1.916,4.362-3.739A9.439,9.439,0,0,1,703.257,234.28Z" transform="translate(-665.288 -199.602)"/>
        </g>
        <path id="Path_393" data-name="Path 393" d="M831.934,274.844a73.305,73.305,0,0,0-9.1-4.73l-.137-.1a5.487,5.487,0,0,1-1.661-2.1,4.393,4.393,0,0,1,0-.452.193.193,0,0,0,0,.044c.1-2.01,1.533-3.839,2.889-5.434L827.391,258a4.019,4.019,0,0,0,.894-1.415,3.263,3.263,0,0,0,.093-.869v-.355c-.019-1.013-.047-2.029-.084-3.041-.031-.885-.259-2-1.144-2.181-.461-.093-1.072.072-1.315-.312a.757.757,0,0,1-.059-.527.18.18,0,0,0,0,.044v-.05a11.737,11.737,0,0,0,.327-2.085,2.844,2.844,0,0,0-.143-1.056c-.511-1.468-2.278-2.072-3.839-2.35s-3.312-.514-4.291-1.736a12.691,12.691,0,0,0-.854-1.175,3.368,3.368,0,0,0-1.6-.788,9.036,9.036,0,0,0-5.805.5,5.211,5.211,0,0,1-2.34.742c-.829-.05-1.6-.648-2.443-.791a3.486,3.486,0,0,0-3.359,1.966,4.809,4.809,0,0,0-.623,2.318v.137h0a3.39,3.39,0,0,0,.891,2.368c.592.623,1.471,1.035,1.717,1.842.1.327.075.682.165,1.016a.907.907,0,0,0,.037.122l-.044.059a10.283,10.283,0,0,0-2.181,6.338,10.52,10.52,0,0,0,7.391,9.971V267a4.483,4.483,0,0,1-1.433,3.49l-9.345,3.733s-5.634-.67-7.665,7.563a14.036,14.036,0,0,0-.349,4.176,12.1,12.1,0,0,1-1.558,6.254c-2.309,4.525-1.782,14.91,2.942,15.939,4.459.972,6.2.567,6.388.52v.181c-.075,1.951-.782,18.759-3.353,20.79-.71.564-.58.935,0,1.2,0,0,0,.109-.016.312-.078,1.246-.474,5.92-2.181,8.575-2,3.085-1.789,20.878-1.789,20.878L789.067,371.1s.838,6.478,0,7.609c-.751,1.006-1.748,24.972-1.957,30.169h-.087A2.53,2.53,0,0,0,785,410.127c-1.1,1.792-4.967,5.1-4.967,5.1-.838,1.19-3.939,2.331-5.578,2.867a3.466,3.466,0,0,0-.623.274,3.325,3.325,0,0,0-1.408,1.483,1.592,1.592,0,0,0-.15,1.246c.417,1.025,9.133,1.748,11.339.717,1.732-.807,8.6-1.87,11.451-2.287a2.349,2.349,0,0,0,2.038-2.038,1.343,1.343,0,0,0-.262-1.019h0a9.034,9.034,0,0,1-.935-3.739,2.529,2.529,0,0,0,.642-.38,27.374,27.374,0,0,1,1.558-11c2.1-5.553,2.73-15.836,2.206-22.52,0,0,6.4-27.558,11.445-30.129h0c.078.1,2.524,3.238,2.836,12.956a39.259,39.259,0,0,0,3.883,16.35s-1.577,16.761,0,23.034l-2.06,9.893c-.153-.128-.249-.227-.249-.227s.062.274.146.714l-.044.212.09.019a19.475,19.475,0,0,1,.436,4.674c-.081.72-.284,1.708-.421,2.677-.218,1.524-.277,3,.524,3.325,1.315.53,9.036,1.246,10.345-.449a2.427,2.427,0,0,0,.38-2.54,2.567,2.567,0,0,0-.38-.648s-2.05-3.35-1.471-5.712a1.739,1.739,0,0,0-.246-1.355,69.653,69.653,0,0,1,1.767-11.081c1.315-4.948,4.085-15.8,2.047-22.931h0q-.115-.421-.262-.823a30.8,30.8,0,0,1-1.156-12.031,24.521,24.521,0,0,1,0-10.489c1.262-5.758,2.144-11.414,2.144-11.414a72.155,72.155,0,0,0,.087-12.274,3.062,3.062,0,0,0-.041-.312l.33-.075s-1.786-7.918-2.415-12.956c-.15-1.19-.343-2.7-.555-4.3a10.988,10.988,0,0,0,1.711-.427c5.668-1.954,7.454-19.631,7.454-19.631v-5.609S838.549,278.649,831.934,274.844ZM789.693,411.4c-.174-.087-.277-.146-.277-.146h0Z" transform="translate(-541.307 -171.377)" fill="url(#linear-gradient-3)"/>
        <path id="Path_394" data-name="Path 394" d="M862.3,568.692c2.458,7.07-.411,18.547-1.745,23.682a71.59,71.59,0,0,0-1.742,11.274,23.743,23.743,0,0,1-9.018-.206l2.153-10.554c-1.539-6.251,0-22.956,0-22.956a39.825,39.825,0,0,1-3.792-16.294c-.312-9.682-2.689-12.813-2.764-12.91h0c-4.917,2.561-11.168,30.026-11.168,30.026.511,6.659-.106,16.908-2.153,22.435a27.733,27.733,0,0,0-1.536,10.962,3.334,3.334,0,0,1-2.8.536c-2.926-.474-6.435-2.995-6.435-2.995s1.125-29.914,1.948-31.048,0-7.584,0-7.584l1.331-10.451s-.206-17.73,1.742-20.8c1.683-2.655,2.069-7.323,2.144-8.547v-.312l2.966-3.552s28.693-2.153,30.849,0a6.15,6.15,0,0,1,1.047,3.241,73.426,73.426,0,0,1-.087,12.23s-.86,5.637-2.091,11.374a24.966,24.966,0,0,0,0,10.454A31.293,31.293,0,0,0,862.3,568.692Z" transform="translate(-575.098 -363.164)" fill="#65617d"/>
        <path id="Path_395" data-name="Path 395" d="M923.229,795.915c-1.281,1.692-8.812.975-10.1.449-.782-.312-.723-1.8-.511-3.315.134-.963.33-1.948.411-2.664a24.529,24.529,0,0,0-.623-5.587s1.689,1.795,2.1,0a1.955,1.955,0,0,1,1.464-1.39,3.827,3.827,0,0,1,2.661.165c1.331.58,3.549,1.81,3.153,3.474-.564,2.353,1.433,5.693,1.433,5.693a2.593,2.593,0,0,1,.374.642A2.459,2.459,0,0,1,923.229,795.915Z" transform="translate(-637.818 -545.455)" fill="#a27772"/>
        <path id="Path_396" data-name="Path 396" d="M923.393,817.577c-1.281,1.692-8.812.975-10.1.449-.782-.312-.723-1.8-.511-3.315a8.694,8.694,0,0,0,4.478.483,12.629,12.629,0,0,1,1.611-.05,37.478,37.478,0,0,0,4.892-.1A2.458,2.458,0,0,1,923.393,817.577Z" transform="translate(-637.982 -567.116)" opacity="0.1"/>
        <path id="Path_397" data-name="Path 397" d="M848.434,615.585c.511,6.659-.106,16.908-2.153,22.435a27.731,27.731,0,0,0-1.536,10.962,3.334,3.334,0,0,1-2.8.536c.623-4.322,3.253-22.943,4.939-37.657a61.62,61.62,0,0,1,10.906-28.281l1.792,1.972C854.685,588.12,848.434,615.585,848.434,615.585Z" transform="translate(-589.307 -408.007)" opacity="0.1"/>
        <path id="Path_398" data-name="Path 398" d="M891.123,313.486l-1.246,6.148-6.129,10.3-7.556-3.228s-10.283-10.76-3.817-12.3a5.721,5.721,0,0,0,2.144-.953,4.433,4.433,0,0,0,1.673-3.708,11.368,11.368,0,0,0-1.041-4.406l13.218-4.151a21.224,21.224,0,0,0-.935,5.353c-.1,3.6,1.246,5.375,2.334,6.232A3.971,3.971,0,0,0,891.123,313.486Z" transform="translate(-608.787 -213.611)" fill="#fbbebe"/>
        <path id="Path_399" data-name="Path 399" d="M899.206,301.19a21.215,21.215,0,0,0-.935,5.353,10.046,10.046,0,0,1-.77.82,10.457,10.457,0,0,1-10.451,2.384,11.367,11.367,0,0,0-1.05-4.406Z" transform="translate(-619.637 -213.611)" opacity="0.1"/>
        <path id="Path_400" data-name="Path 400" d="M887.059,272.671a10.4,10.4,0,1,1-3.048-7.4A10.454,10.454,0,0,1,887.059,272.671Z" transform="translate(-605.973 -186.784)" fill="#fbbebe"/>
        <path id="Path_401" data-name="Path 401" d="M891.123,339.06l-1.246,6.148-6.129,10.3-7.556-3.228s-10.283-10.76-3.817-12.3a5.721,5.721,0,0,0,2.144-.953c-1.165,3.2,3.646,9.868,3.646,9.868.561.826,1.845.312,1.845.312,3.1-.471,8.806-9.386,9.738-10.869A3.97,3.97,0,0,0,891.123,339.06Z" transform="translate(-608.787 -239.185)" opacity="0.1"/>
        <path id="Path_402" data-name="Path 402" d="M879.2,522.629c-1.82.414-11.888,2.642-15.7,2.085-4.2-.623-12.368-1.022-12.368-1.022s-5.2.28-6.8-.452v-.312l2.966-3.552s28.692-2.153,30.849,0A6.121,6.121,0,0,1,879.2,522.629Z" transform="translate(-590.952 -363.15)" opacity="0.1"/>
        <path id="Path_403" data-name="Path 403" d="M844.577,349.419s-5.406-7.478-3.368-10.408l-9.133,3.739s-5.5-.667-7.479,7.538a14.274,14.274,0,0,0-.34,4.163,12.317,12.317,0,0,1-1.505,6.232c-2.253,4.509-1.742,14.86,2.87,15.892s6.248.511,6.248.511-.623,18.752-3.278,20.905,6.793,1.639,6.793,1.639,8.167.411,12.371,1.025,15.985-2.153,15.985-2.153-1.742-7.89-2.359-12.91-2.053-15.714-2.053-15.714L869.78,355.72s1.845-8.557-4.612-12.349a72.961,72.961,0,0,0-8.884-4.721s-6.488,10.563-9.868,11.074C846.422,349.724,845.138,350.242,844.577,349.419Z" transform="translate(-575.204 -239.398)" fill="#2e7eb7"/>
        <path id="Path_404" data-name="Path 404" d="M853.332,382.74s-.1,3.384.514,4.715,2.87,8.725,2.87,8.725H851.59s2.767-2.973,2.565-4.409S853.332,382.74,853.332,382.74Z" transform="translate(-595.95 -269.75)" opacity="0.1"/>
        <path id="Path_405" data-name="Path 405" d="M869.781,432.9s-11.317-2.767-12.371-5.123-3.961-7.631-3.961-7.631l1.193-1.608,5.5,4.319s6.544,5.226,9.635,5.74S869.781,432.9,869.781,432.9Z" transform="translate(-597.23 -294.394)" fill="#fbbebe"/>
        <path id="Path_406" data-name="Path 406" d="M869.781,432.9s-11.317-2.767-12.371-5.123-3.961-7.631-3.961-7.631l1.193-1.608,5.5,4.319s6.544,5.226,9.635,5.74S869.781,432.9,869.781,432.9Z" transform="translate(-597.23 -294.394)" opacity="0.05"/>
        <path id="Path_407" data-name="Path 407" d="M892.094,421.729v6.139h-.985a28.7,28.7,0,0,0-13.94,3.611l-1.846,1.022-.5.277-3.178-7.167,2.973-2.664h.153c.726.072,3.87.333,5.2-.115,1.265-.43,2.836-1.792,6.562-.841,1.835.471,3.406,2.527,5.185,1.885Z" transform="translate(-609.759 -296.543)" fill="#fbbebe"/>
        <path id="Path_408" data-name="Path 408" d="M919.7,370.612l2.047,2.306V378.5s-1.742,17.624-7.273,19.572-15.412-1.128-15.412-1.128-2.552-6.762-1.359-7.167,10.548-2.879,10.548-2.879-.131-10.339,1.916-13.415c0,0-1.331-9.632,3.281-9.837S919.7,370.612,919.7,370.612Z" transform="translate(-627.478 -256.606)" opacity="0.1"/>
        <path id="Path_409" data-name="Path 409" d="M920.708,370.612l2.05,2.306V378.5s-1.742,17.624-7.276,19.572-15.412-1.128-15.412-1.128-2.552-6.762-1.355-7.167,10.548-2.879,10.548-2.879-.134-10.339,1.916-13.415c0,0-1.334-9.632,3.278-9.837S920.708,370.612,920.708,370.612Z" transform="translate(-628.17 -256.606)" fill="#2e7eb7"/>
        <path id="Path_410" data-name="Path 410" d="M888.914,277.026a4.12,4.12,0,0,0-.234-2,1.521,1.521,0,0,0-1.627-.935c-.876.206-1.246,1.346-2.113,1.62a1.688,1.688,0,0,1-1.87-.96,4.781,4.781,0,0,1-.355-2.231v-2.568a4.25,4.25,0,0,0-.6-2.67,4.715,4.715,0,0,0-3.515-1.271,2.982,2.982,0,0,0-2.007.807,2.583,2.583,0,0,1-2.11.751,1.817,1.817,0,0,1-1.471-1.271v-.031a10.451,10.451,0,1,1,15.537,13.873A28.183,28.183,0,0,0,888.914,277.026Z" transform="translate(-610.695 -186.702)" opacity="0.1"/>
        <path id="Path_411" data-name="Path 411" d="M868.495,253.26a1.832,1.832,0,0,1-1.474-1.274c-.084-.33-.062-.682-.159-1.01-.24-.807-1.1-1.225-1.676-1.838a4.118,4.118,0,0,1-.262-4.711,3.4,3.4,0,0,1,3.278-1.957c.829.143,1.558.732,2.387.788a4.816,4.816,0,0,0,2.284-.739,8.606,8.606,0,0,1,5.677-.5,3.271,3.271,0,0,1,1.558.788,13.628,13.628,0,0,1,.832,1.168c.953,1.215,2.664,1.455,4.188,1.729s3.247.879,3.739,2.343a6.124,6.124,0,0,1-.181,3.035.916.916,0,0,0,.041.623c.24.393.835.227,1.284.312.863.184,1.084,1.3,1.119,2.181q.053,1.514.081,3.032a3.857,3.857,0,0,1-.09,1.122,3.959,3.959,0,0,1-.869,1.412l-3.384,4.066c-1.5,1.8-3.094,3.9-2.8,6.232a1.451,1.451,0,0,1-1.789-1.041,4.655,4.655,0,0,1,.112-2.309,28.3,28.3,0,0,0,.542-4,4.106,4.106,0,0,0-.234-1.994,1.521,1.521,0,0,0-1.626-.935c-.879.206-1.246,1.346-2.113,1.62a1.688,1.688,0,0,1-1.87-.96,4.768,4.768,0,0,1-.355-2.228v-2.571a4.249,4.249,0,0,0-.6-2.67,4.715,4.715,0,0,0-3.515-1.271,2.982,2.982,0,0,0-2,.807A2.587,2.587,0,0,1,868.495,253.26Z" transform="translate(-604.709 -172.692)" fill="#7c5c5c"/>
        <path id="Path_412" data-name="Path 412" d="M885.3,381.92l3.21,13.184S891.04,395.088,885.3,381.92Z" transform="translate(-619.156 -269.185)" opacity="0.1"/>
        <path id="Path_413" data-name="Path 413" d="M913.993,374.85s-4.2,6.88-2.561,14l.782.056S910.818,385.61,913.993,374.85Z" transform="translate(-636.883 -264.318)" opacity="0.1"/>
        <path id="Path_414" data-name="Path 414" d="M929,499.011s5.16-1.708,5.534,2.253C934.546,501.264,933.574,498.55,929,499.011Z" transform="translate(-649.238 -349.538)" opacity="0.1"/>
        <path id="Path_415" data-name="Path 415" d="M861.7,426.81s-1.025,7.167.82,10.043a22.475,22.475,0,0,1-9.018,1.231l-.623-11.274Z" transform="translate(-596.838 -300.087)" opacity="0.1"/>
        <path id="Path_416" data-name="Path 416" d="M875.324,435.344l-.5.277-3.178-7.167,2.973-2.664h.153C874.729,426.145,873.9,432.306,875.324,435.344Z" transform="translate(-609.759 -299.385)" opacity="0.1"/>
        <path id="Path_417" data-name="Path 417" d="M855.155,425.83s-1.025,7.167.82,10.04a22.409,22.409,0,0,1-9.018,1.231L843.37,425.83Z" transform="translate(-590.291 -299.413)" fill="#2e7eb7"/>
        <path id="Path_418" data-name="Path 418" d="M799.068,790.974a2.322,2.322,0,0,1-1.991,2.032c-2.783.414-9.485,1.474-11.177,2.281-2.153,1.025-10.657.312-11.068-.717a1.627,1.627,0,0,1,.146-1.246,3.285,3.285,0,0,1,1.374-1.477,3.647,3.647,0,0,1,.623-.274c1.6-.533,4.627-1.667,5.444-2.857,0,0,3.773-3.3,4.849-5.082a2.462,2.462,0,0,1,1.969-1.228c.9-.041,1.9.411,2.309,2.378,0,0,4.914,2.8,6.232.346,0,0,.206,3.777,1.022,4.811h0A1.371,1.371,0,0,1,799.068,790.974Z" transform="translate(-543.066 -544.876)" fill="#a27772"/>
        <path id="Path_419" data-name="Path 419" d="M799.068,807.625a2.322,2.322,0,0,1-1.991,2.032c-2.783.414-9.485,1.474-11.177,2.281-2.153,1.025-10.657.312-11.068-.717a1.627,1.627,0,0,1,.146-1.246,3.284,3.284,0,0,1,1.374-1.477c1.387.935,4.465,1.82,11.236.763,6.46-1.01,9.66-2,11.218-2.67h0a1.371,1.371,0,0,1,.262,1.035Z" transform="translate(-543.066 -561.526)" opacity="0.1"/>
        <g id="Group_39" data-name="Group 39" transform="translate(259.596 73.903)" opacity="0.1">
          <path id="Path_420" data-name="Path 420" d="M942.416,266.9v-.05a9.174,9.174,0,0,0,.312-2.328,15.362,15.362,0,0,1-.312,1.87A1.134,1.134,0,0,0,942.416,266.9Z" transform="translate(-918.05 -262.27)"/>
          <path id="Path_421" data-name="Path 421" d="M882.671,271.518a2.963,2.963,0,0,1,.252,1.172,3.533,3.533,0,0,0-.252-1.633,1.515,1.515,0,0,0-1.623-.935c-.879.206-1.246,1.346-2.116,1.62a1.692,1.692,0,0,1-1.87-.96,4.741,4.741,0,0,1-.355-2.231v-2.568a4.249,4.249,0,0,0-.6-2.67,4.722,4.722,0,0,0-3.515-1.274,2.985,2.985,0,0,0-2.007.81,2.589,2.589,0,0,1-2.113.751A1.826,1.826,0,0,1,867,262.329c-.084-.33-.062-.686-.159-1.013-.24-.8-1.1-1.225-1.676-1.835a3.356,3.356,0,0,1-.863-2.181,3.493,3.493,0,0,0,.863,2.627c.576.623,1.437,1.031,1.676,1.835.1.312.075.682.159,1.013a1.826,1.826,0,0,0,1.471,1.271,2.589,2.589,0,0,0,2.113-.751,2.985,2.985,0,0,1,2.007-.81,4.713,4.713,0,0,1,3.515,1.274,4.275,4.275,0,0,1,.6,2.67V269a4.716,4.716,0,0,0,.355,2.228,1.7,1.7,0,0,0,1.87.963c.86-.274,1.246-1.415,2.116-1.62A1.574,1.574,0,0,1,882.671,271.518Z" transform="translate(-864.285 -257.3)"/>
          <path id="Path_422" data-name="Path 422" d="M934.7,292.414a3.94,3.94,0,0,1-.872,1.408l-3.384,4.066c-1.424,1.711-2.929,3.693-2.8,5.877.1-2,1.5-3.826,2.8-5.416l3.384-4.066a3.939,3.939,0,0,0,.873-1.408,3.89,3.89,0,0,0,.09-1.125A2.96,2.96,0,0,1,934.7,292.414Z" transform="translate(-907.896 -281.015)"/>
          <path id="Path_423" data-name="Path 423" d="M921.752,326.9a2.389,2.389,0,0,1-.1-.548,2.761,2.761,0,0,0,.1,1.01,1.446,1.446,0,0,0,1.789,1.038,4.364,4.364,0,0,1-.037-.449A1.448,1.448,0,0,1,921.752,326.9Z" transform="translate(-903.768 -304.834)"/>
        </g>
        <path id="Path_424" data-name="Path 424" d="M812.69,789.36s1.072,1.87,4.954.224" transform="translate(-569.171 -549.665)" opacity="0.1"/>
        <path id="Path_425" data-name="Path 425" d="M918,790.82s3.347,3.942,7.566,1.293" transform="translate(-641.666 -550.67)" opacity="0.1"/>
        <path id="Path_426" data-name="Path 426" d="M943.863,641.23s-2.365,1.477-2.44,2.321,1.221-.623,1.221-.623Z" transform="translate(-657.788 -447.693)" opacity="0.1"/>
        <path id="Path_427" data-name="Path 427" d="M942.88,677.59a4.945,4.945,0,0,1-2.914,1.137c-1.77.078-1.62,2.384-.464,1.692A29.005,29.005,0,0,0,942.88,677.59Z" transform="translate(-655.87 -472.723)" opacity="0.1"/>
        <path id="Path_428" data-name="Path 428" d="M949.156,682.34s-1.134,5.575-2.057,4.5" transform="translate(-661.698 -475.993)" opacity="0.1"/>
        <path id="Path_429" data-name="Path 429" d="M266.32,360.107l4.964-9.971a14.924,14.924,0,0,1,.935-1.913c.312-.57.726-1.274,1.246-2.119.153-.243.312-.5.486-.76.6-.935,1.331-1.994,2.212-3.216a26.315,26.315,0,0,0,3.951-9.66l.265.879h.059l.072.016h.118l.128.022h.047l1.527,19.432c.094,7.578,2.876,11.772,2.876,11.772l-.383,16.73c.523,4.029-.623,9.4-1.15,11.545l-1.2,2.714a3.262,3.262,0,0,0-1.773,2.468c-.237,2-2.346,6.322-2.346,6.322-.816,1.035-2.589,3.83-2.589,3.83s-.835,2.7-.318,3.708,4.842.907,4.842.907c4.939,1.094,8.725-1.558,8.485-3.384s.77-2.29.77-2.29c1.963-.623,1.773-1.954,1.773-1.954a12.227,12.227,0,0,0-1.486-7.958l-.312.72a10.959,10.959,0,0,1,.592-4.247l-.181.125-.056.034h-.019c.312-2.733,3.181-7.79,3.181-7.79,5.272-9.248,3.356-21.781,3.356-21.781l-.816-3.907-.047-1.474a49.192,49.192,0,0,1,.795-10.5c.284-1.533.576-3.384.8-5.425a47.95,47.95,0,0,1,2.7-10.648l.209-.037h.025c.287-.05.576-.1.869-.156h.056s.168-.91.312-2.459c.084-.988.153-2.24.153-3.68a41.4,41.4,0,0,0-1.966-12.81l.159-.227s.377-.511,1.066-1.4h0c1.265-1.608,3.234-4.051,5.662-6.805,4.347-4.958,3.069-9.971,3.069-9.971s-3.147-11.532-4.549-18.456a20.988,20.988,0,0,0-3.453-8.211,16.341,16.341,0,0,0,.436-3.328,12.158,12.158,0,0,0-.9-6.03,5.18,5.18,0,0,0-4.936-3.051,1.888,1.888,0,0,1-.885,0,1.346,1.346,0,0,1-.583-.508,7.648,7.648,0,0,1-.9-5.886c.374-2.007,1.14-3.926,1.483-5.939a7.354,7.354,0,0,0-1.094-5.843c-1.505-1.87-4.129-2.4-6.086-3.8-1.374-.988-2.406-2.406-3.855-3.281s-2.8-.542-4.378-.212c-2.646.558-5.16.813-7.662,1.951a20.407,20.407,0,0,0-6.678,4.858,6.338,6.338,0,0,0-1.489,2.35c-.623,2.06.6,4.253.34,6.385a12.633,12.633,0,0,1-1.779,4.176,5.41,5.41,0,0,0-.692,4.362c.872,2.206,3.717,2.674,5.786,3.848a1.767,1.767,0,0,1,.686.6c.511.891-.533,1.817-1.19,2.608a3.929,3.929,0,0,0-.779,1.583,5.646,5.646,0,0,0-3.387,4.088c-.7,3.138.377,7.1,1.327,9.716-1.038,5.83.312,8.13,1.306,9.012a5,5,0,0,1,1.733,3.409v.109c.065,1.059.178,2.116.327,3.169h0c-.034-.246-.069-.508-.087-.623-.813,1.505-2.362,5.35-3.234,11.819a35.519,35.519,0,0,1-.788,4.116,22.51,22.51,0,0,0-.661,7.36l.156,2.1a.661.661,0,0,1-.424-.14l1.094,2v3.381a12.465,12.465,0,0,1-.829,4.459c-.078.206-.162.411-.252.623a3.627,3.627,0,0,0-.368,1.835c-2.353,3.605-7.746,23.81-7.746,23.81-2.926,6.625.24,10.906.24,10.906s1.533,18.444,1.82,19.4.922,12.2.922,12.2h0v.894a2.1,2.1,0,0,0-.533-.153c-2.564-.143-3.259,3.908-3.259,3.908l-5.247,5.011s-2.4-.405-5.92,2.24C242.466,407.6,265.744,361.264,266.32,360.107Zm30.821-54.045-.016-.056-.143.084h0l-.059.034-.028.019h0l-2.418-8.535a14.171,14.171,0,0,1-.178-7.02l1.87-8.189h0v-1.969l5.942,15.836C302.491,298.4,298.96,303.569,297.14,306.062Z" transform="translate(-176.412 -164.532)" fill="url(#linear-gradient-4)"/>
        <path id="Path_430" data-name="Path 430" d="M384.767,557a49.074,49.074,0,0,0-3.01,11.436c-.221,2.019-.508,3.845-.788,5.36a48.98,48.98,0,0,0-.767,10.367l.047,1.455.779,3.855s1.87,12.38-3.294,21.5c0,0-3.06,5.462-3.153,8.049l-2.072.8-4.188-1.175s2.022-7.251,1.365-12.333l.377-16.515s-2.72-4.132-2.814-11.61l-1.6-20.522Z" transform="translate(-261.43 -389.71)" fill="#fdc2cc"/>
        <path id="Path_431" data-name="Path 431" d="M305.967,547.62s-.514,8-4.472,13.517-4.8,7.909-4.8,7.909l-4.873,9.853a5.643,5.643,0,0,0-.458,3.686l.48,2.219s2.636,8.943-.047,15.864l-1.271,13.368h-7.435s-.623-11.109-.894-12.05-1.789-19.157-1.789-19.157-3.116-4.238-.237-10.778c0,0,6.5-24.476,8.236-24.053S305.967,547.62,305.967,547.62Z" transform="translate(-201.748 -383.252)" fill="#fdc2cc"/>
        <g id="Group_40" data-name="Group 40" transform="translate(88.025 164.367)" opacity="0.1">
          <path id="Path_432" data-name="Path 432" d="M315,584.819l-.477-2.219a5.609,5.609,0,0,1,.455-3.7l4.873-9.862s.844-2.4,4.8-7.909c3.8-5.3,4.425-12.888,4.468-13.471l.757-.037s-.514,8-4.471,13.517-4.8,7.909-4.8,7.909L315.73,578.9a5.643,5.643,0,0,0-.458,3.686l.48,2.219s2.636,8.943-.047,15.864l-1.271,13.368h-.754l1.271-13.368C317.634,593.747,315,584.819,315,584.819Z" transform="translate(-313.68 -547.62)"/>
        </g>
        <path id="Path_433" data-name="Path 433" d="M388.027,619.031c.093-2.586,3.153-8.049,3.153-8.049,5.179-9.13,3.294-21.5,3.294-21.5l-.8-3.858-.047-1.455A48.979,48.979,0,0,1,394.4,573.8c.277-1.514.564-3.34.785-5.36a49.067,49.067,0,0,1,3-11.411l.773-.031a49.075,49.075,0,0,0-3.01,11.436c-.221,2.019-.508,3.845-.788,5.36a48.978,48.978,0,0,0-.767,10.367l.047,1.455.779,3.855s1.87,12.38-3.294,21.5c0,0-3.06,5.462-3.153,8.049l-2.072.8-.436-.122Z" transform="translate(-275.618 -389.71)" opacity="0.1"/>
        <path id="Path_546" data-name="Path 546" d="M856.691,556.8c1.416,6.886,1.5,11.327-.693,18.149a115.941,115.941,0,0,1-5.792,14.03c-3.475,3.025-6.243-.579-6.243-.579l.644-4.634c.579-5.084.9-23.491.9-23.491s-2.974-4.386-3.282-14.223A156.048,156.048,0,0,0,841,529.579v-.835c.3,3.353-5.033,10.521-8.881,17.31a86.465,86.465,0,0,0-5.663,12.421c1.779,4.67,1.869,6.412,1.718,14.279s-2.49,12.738-2.321,17.192a7.615,7.615,0,0,1-4.288.9c-2.926-.474-3.475-.9-3.475-.9s-1.977-16.887-2.51-23.1-.792-7.106-1.683-10.04,1.1-7.966,1.1-7.966,5.716-20.818,7.664-23.891c2.523-7.692,1.044-10.535,1.119-11.759v-.312l4.094-5.177s26.934-7.431,29.09-5.277c.527.527,3.411,9.255,3.6,10.766.592,4.649.941,5,.361,10.093s-.829,4.927-2.06,10.663c-.738,3.446-2.406,10.31-2.406,10.31S855.531,552.917,856.691,556.8Z" transform="translate(-736.886 -360.103)" fill="#65617d"/>
        <path id="Path_434" data-name="Path 434" d="M373.711,753.092a3.6,3.6,0,0,0,3.428-.424,11.062,11.062,0,0,0-.28,6.213c.848,3.39-7.908-2.73-7.908-2.73l1.87-4.272A2.931,2.931,0,0,0,373.711,753.092Z" transform="translate(-263.702 -523.864)" fill="#d39999"/>
        <path id="Path_435" data-name="Path 435" d="M374.376,753.262a3.5,3.5,0,0,0,2.783-.623,11.062,11.062,0,0,0-.28,6.213c.848,3.39-7.909-2.73-7.909-2.73l1.87-4.272a2.671,2.671,0,0,0,2.135,1.2C373.457,753.109,373.918,753.174,374.376,753.262Z" transform="translate(-263.716 -523.844)" opacity="0.1"/>
        <path id="Path_436" data-name="Path 436" d="M289.32,434.558h3.658V413.8l-2.745-.492Z" transform="translate(-199.176 -284.518)" fill="#fdc2cc"/>
        <path id="Path_437" data-name="Path 437" d="M289.32,434.558h3.658V413.8l-2.745-.492Z" transform="translate(-199.176 -284.518)" opacity="0.05"/>
        <path id="Path_438" data-name="Path 438" d="M357.536,760.087a3.647,3.647,0,0,1,3.34,1.929l1.271.988.623-1.458a12.152,12.152,0,0,1,1.44,7.862s.187,1.315-1.742,1.929c0,0-.988.471-.754,2.259s-3.481,4.425-8.329,3.34c0,0-4.238.1-4.755-.894s.33-3.624.33-3.624,1.742-2.761,2.54-3.78c0,0,2.072-4.269,2.309-6.232S356.311,759,357.536,760.087Z" transform="translate(-249.599 -529.258)" fill="#7e5659"/>
        <path id="Path_439" data-name="Path 439" d="M299.011,759.685l.037-2.926s-4.21,1.212-7.619-.159c0,0,.287,2.942-.187,3.343s1.577,4.188,1.577,4.188l2.29,2.4,3.939-1.433,1.069-3.365S299.292,759.685,299.011,759.685Z" transform="translate(-210.16 -527.113)" fill="#d39999"/>
        <path id="Path_440" data-name="Path 440" d="M299.011,759.685l.037-2.926s-4.21,1.212-7.619-.159c0,0,.287,2.942-.187,3.343s1.577,4.188,1.577,4.188l2.29,2.4,3.939-1.433,1.069-3.365S299.292,759.685,299.011,759.685Z" transform="translate(-210.16 -527.113)" opacity="0.1"/>
        <path id="Path_441" data-name="Path 441" d="M256.81,763.092s2.237.259,1.954,3.116.118,0,.118,0a8.194,8.194,0,0,1,3.225,2.306c.848,1.343,2.378-1.2,2.493-1.929s1.069-1.031,1.069-1.031,3.739,6.933,3.079,8.84-8.687,2.346-8.687,2.346-1.461-.823-4.827,1.742-10.355.623-10.355.623-5.7-2.378-2.234-4.986,5.811-2.212,5.811-2.212l5.154-4.967S254.292,762.948,256.81,763.092Z" transform="translate(-175.985 -531.58)" fill="#7e5659"/>
        <path id="Path_442" data-name="Path 442" d="M327.375,235.853c1.424.863,2.437,2.265,3.786,3.241,1.919,1.387,4.5,1.9,5.973,3.755a7.336,7.336,0,0,1,1.072,5.768c-.337,1.988-1.091,3.886-1.455,5.868a7.6,7.6,0,0,0,.888,5.811,1.318,1.318,0,0,0,.57.5,1.869,1.869,0,0,0,.869,0,5.089,5.089,0,0,1,4.849,3.013,12.067,12.067,0,0,1,.882,5.955,12.306,12.306,0,0,1-.994,4.852c-1.246,2.543-3.839,4.113-6.4,5.316a49.544,49.544,0,0,1-5.107,2.063,7.686,7.686,0,0,1-3.7.558c-2.128-.368-3.636-2.3-5.656-3.06a11.906,11.906,0,0,0-5.251-.243c-1.5.131-3.219.128-4.253-.969-1.327-1.408-.729-3.68-.05-5.494a3.911,3.911,0,0,1-2.767-6.394c.642-.782,1.667-1.7,1.165-2.577a1.707,1.707,0,0,0-.673-.586c-2.029-1.159-4.824-1.623-5.677-3.8a5.357,5.357,0,0,1,.676-4.313A12.786,12.786,0,0,0,307.872,251c.249-2.106-.935-4.272-.333-6.3A6.319,6.319,0,0,1,309,242.368a20.055,20.055,0,0,1,6.544-4.8c2.459-1.125,4.923-1.377,7.522-1.926C324.624,235.317,325.914,234.968,327.375,235.853Z" transform="translate(-219.831 -168.247)" fill="#865a61"/>
        <path id="Path_443" data-name="Path 443" d="M316.063,337.752s-5.961-.312-7.089,4.771,2.446,12.361,2.446,12.361Z" transform="translate(-222.263 -238.777)" fill="#fdc2cc"/>
        <path id="Path_444" data-name="Path 444" d="M316.063,337.752s-5.961-.312-7.089,4.771,2.446,12.361,2.446,12.361Z" transform="translate(-222.263 -238.777)" opacity="0.05"/>
        <path id="Path_445" data-name="Path 445" d="M320,325.656l2.259,1.789,10.542.471,6.581-4.518,6.693-11.486a8.275,8.275,0,0,1-6.363-6.513,14.259,14.259,0,0,1-.131-5.441s-10.732-5.556-9.414,3.116a11.779,11.779,0,0,1,.1,3.222c-.623,5.079-5.553,4.123-5.553,4.123l-1.891,2.917-2.166,7.167Z" transform="translate(-230.005 -211.556)" fill="#fdc2cc"/>
        <path id="Path_446" data-name="Path 446" d="M352.412,303.057a11.78,11.78,0,0,1,.1,3.222,9.513,9.513,0,0,0,9.445-.885,14.258,14.258,0,0,1-.131-5.441S351.094,294.4,352.412,303.057Z" transform="translate(-252.24 -211.551)" opacity="0.1"/>
        <circle id="Ellipse_135" data-name="Ellipse 135" cx="9.507" cy="9.507" r="9.507" transform="translate(94.719 76.196)" fill="#fdc2cc"/>
        <path id="Path_447" data-name="Path 447" d="M322.348,350.438c.231,0,.458.034.686.056,1.246.125,6.453.405,9.42-3.138,3.319-3.964,7.737-8.859,7.918-9.058l4.5,1.359s-3.559-1.265-5.92,5.353a6.855,6.855,0,0,0,2.315,7.887,7.124,7.124,0,0,0,2.942,1.246.016.016,0,0,1,0,.016v2.9h0l-1.838,8.1a14.044,14.044,0,0,0,.174,6.933l2.8,9.912c-.424.293-17.824,12.128-29.447,3.954h0c.044-.355,1.48-11.987.483-17.68a39.314,39.314,0,0,1-.52-4.4c0-.037,0-.072,0-.109a4.961,4.961,0,0,0-1.7-3.365c-1.047-.935-2.465-3.428-1.063-10.015a24.2,24.2,0,0,1,1.558-4.746l3.9-8.809h0l3.593.072v.025c-.312.386-4.478,5.59-4.93,8.943C316.771,349.067,316.225,350.046,322.348,350.438Z" transform="translate(-224.847 -238.152)" fill="#2e7eb7"/>
        <path id="Path_448" data-name="Path 448" d="M387.533,347.108s3.515,3.013,4.9,9.853,4.456,18.2,4.456,18.2a11.612,11.612,0,0,1-3.013,9.853c-4.26,4.9-7.092,8.725-7.092,8.725l-2.8,4.132a3.518,3.518,0,0,1-2.019,1.427,6.82,6.82,0,0,1-4.942-.352,2.879,2.879,0,0,1-1.246-3.636l.623-1.443s-5.774,3.64-6.276,1.63,6.715-4.017,6.715-4.017,5.961-1,7.167-3.827c0,0,6.4-8.223,5.9-11.046l-6.182-16.568s-7.731-1.022-5.095-9.706S387.533,347.108,387.533,347.108Z" transform="translate(-264.487 -244.055)" fill="#fdc2cc"/>
        <g id="Group_41" data-name="Group 41" transform="translate(90.465 142.206)" opacity="0.05">
          <path id="Path_454" data-name="Path 454" d="M329.674,495.147c-.742-.062-1.483-.122-2.228-.146-1.664-.062-4.2,0-5.936-1.274l.6-.106c1.733,1.374,4.362,1.315,6.086,1.38.745.025,1.483.084,2.228.146.243.022.492.034.745.041A13.981,13.981,0,0,1,329.674,495.147Z" transform="translate(-321.51 -488.285)"/>
          <path id="Path_455" data-name="Path 455" d="M391.836,502.771q1.187-.187,2.465-.418l.287-.053s.165-.9.293-2.427a41.986,41.986,0,0,0-2.053-17.088l-1.919-5.92c.408-.231.623-.365.623-.365l2.038,6.276a42.1,42.1,0,0,1,2.053,17.088c-.131,1.53-.3,2.427-.3,2.427l-.284.053q-1.274.231-2.465.418a77.623,77.623,0,0,1-12.7,1.091A80.089,80.089,0,0,0,391.836,502.771Z" transform="translate(-361.692 -476.5)"/>
          <path id="Path_456" data-name="Path 456" d="M360.105,559.3v.034H359.7Q359.931,559.319,360.105,559.3Z" transform="translate(-347.8 -533.499)"/>
        </g>
        <path id="Path_457" data-name="Path 457" d="M310.523,443.31c.86-6.388,2.378-10.183,3.178-11.67.031.2.112.86.15,1.063a30.861,30.861,0,0,1,.069,3.3l-.8,14.446,1.069,4.518c1,3.577-2.714.751-2.714.751a2.213,2.213,0,0,1-2.181,1.508l-.193-2.593a22.392,22.392,0,0,1,.648-7.27A34.635,34.635,0,0,0,310.523,443.31Z" transform="translate(-222.46 -303.412)" fill="#fdc2cc"/>
        <path id="Path_458" data-name="Path 458" d="M310.523,443.31c.86-6.388,2.378-10.183,3.178-11.67.031.2.112.86.15,1.063a30.861,30.861,0,0,1,.069,3.3l-.8,14.446,1.069,4.518c1,3.577-2.714.751-2.714.751a2.213,2.213,0,0,1-2.181,1.508l-.193-2.593a22.392,22.392,0,0,1,.648-7.27A34.635,34.635,0,0,0,310.523,443.31Z" transform="translate(-222.46 -303.412)" opacity="0.05"/>
        <path id="Path_459" data-name="Path 459" d="M389.4,479.96c-.676.876-1.047,1.377-1.047,1.377l-2.8,4.129a3.5,3.5,0,0,1-2.019,1.427,6.8,6.8,0,0,1-4.942-.352,2.873,2.873,0,0,1-1.246-3.633l.623-1.446s-5.774,3.639-6.276,1.633,6.715-4.017,6.715-4.017,5.961-1,7.167-3.83c0,0,.52-.667,1.246-1.689" transform="translate(-265.568 -332.27)" fill="#fdc2cc"/>
        <path id="Path_465" data-name="Path 465" d="M348,259.308a3.667,3.667,0,0,1-2.561,1.349,20.182,20.182,0,0,1-2.976,0,7.463,7.463,0,0,0-4.49,1.131,11.417,11.417,0,0,0-2.06,2.181c-1.926,2.353-4.6,4.556-7.634,4.309a1.979,1.979,0,0,1-1.418-.6,2.275,2.275,0,0,1-.361-1.29,29.486,29.486,0,0,1,.184-5.815,12.258,12.258,0,0,1,.879-3.468,11.84,11.84,0,0,1,2.113-3.016,12.922,12.922,0,0,1,3.686-2.954,6.612,6.612,0,0,1,4.612-.6c1.817.5,3.231,1.916,4.964,2.649C344.919,254.023,350.172,256.244,348,259.308Z" transform="translate(-234.436 -178.624)" opacity="0.1"/>
        <path id="Path_466" data-name="Path 466" d="M348,258.091a3.667,3.667,0,0,1-2.561,1.349,20.179,20.179,0,0,1-2.976,0,7.44,7.44,0,0,0-4.49,1.128,11.416,11.416,0,0,0-2.06,2.181c-1.926,2.353-4.6,4.556-7.634,4.309a1.966,1.966,0,0,1-1.418-.6,2.266,2.266,0,0,1-.361-1.29,29.493,29.493,0,0,1,.184-5.815,12.259,12.259,0,0,1,.879-3.468,11.759,11.759,0,0,1,2.113-3.013,12.878,12.878,0,0,1,3.686-2.957,6.612,6.612,0,0,1,4.612-.6c1.817.5,3.231,1.916,4.964,2.649C344.919,252.806,350.172,255.021,348,258.091Z" transform="translate(-234.436 -177.785)" fill="#865a61"/>
        <path id="Path_467" data-name="Path 467" d="M291.68,473.47l-.025,1.137-.256-1.087Z" transform="translate(-200.608 -325.932)" fill="#fdc2cc"/>
        <path id="Path_468" data-name="Path 468" d="M291.68,473.47l-.025,1.137-.256-1.087Z" transform="translate(-200.608 -325.932)" opacity="0.05"/>
        <g id="Group_42" data-name="Group 42" transform="translate(113.422 101.626)" opacity="0.05">
          <path id="Path_469" data-name="Path 469" d="M396.865,350.327c-2.639,8.684,5.054,9.7,5.054,9.7L408.1,376.6c.5,2.823-5.9,11.046-5.9,11.046a5.476,5.476,0,0,1-2.773,2.446,4.344,4.344,0,0,0,1.645-1.807s6.4-8.22,5.9-11.043l-6.182-16.571s-7.69-1.019-5.054-9.7c.882-2.9,2.181-4.222,3.5-4.7A8,8,0,0,0,396.865,350.327Z" transform="translate(-395.184 -346.27)"/>
        </g>
        <g id="Group_43" data-name="Group 43" transform="translate(87.682 98.685)" opacity="0.1">
          <path id="Path_470" data-name="Path 470" d="M401,384.61a6.491,6.491,0,0,0,1.246,1.181,7.082,7.082,0,0,0,2.942,1.246v.327a7.062,7.062,0,0,1-2.667-1.181A6.465,6.465,0,0,1,401,384.61Z" transform="translate(-373.447 -369.722)"/>
          <path id="Path_471" data-name="Path 471" d="M321.822,418.443v.109a40.239,40.239,0,0,0,.536,4.415c.935,5.372-.29,16.038-.464,17.512-.1-.065-.2-.128-.312-.2.047-.355,1.483-11.987.486-17.677a39.492,39.492,0,0,1-.52-4.4v-.109a4.808,4.808,0,0,0-.838-2.384A4.845,4.845,0,0,1,321.822,418.443Z" transform="translate(-318.176 -391.131)"/>
          <path id="Path_472" data-name="Path 472" d="M321.961,337.257l-3.047-.059a.015.015,0,0,0-.016,0L315,346a24.279,24.279,0,0,0-1.558,4.746c-1.134,5.328-.421,7.983.446,9.3-.975-1.15-1.982-3.77-.726-9.66a24.022,24.022,0,0,1,1.542-4.749l3.923-8.806h0l3.593.072v.022C322.194,336.961,322.1,337.079,321.961,337.257Z" transform="translate(-312.577 -336.83)"/>
          <path id="Path_473" data-name="Path 473" d="M416.39,345.87l.053.016Z" transform="translate(-384.042 -343.053)"/>
          <path id="Path_474" data-name="Path 474" d="M354.734,342.846l-3.054-.919h-.016c-.181.2-4.6,5.095-7.915,9.058-2.966,3.543-8.167,3.266-9.42,3.141-.227-.025-.458-.044-.686-.059-3.406-.218-4.746-.623-5.194-1.483.639.623,2.044.935,4.911,1.109.231,0,.458.034.686.056,1.246.125,6.453.4,9.42-3.138,3.319-3.967,7.737-8.862,7.918-9.061h0l4.443,1.346a2.776,2.776,0,0,0-1.094-.05Z" transform="translate(-323.504 -340.079)"/>
        </g>
        <path id="Path_475" data-name="Path 475" d="M285.432,776.15s-4.3,1.175-5.132-.67" transform="translate(-202.676 -540.11)" opacity="0.1"/>
        <path id="Path_476" data-name="Path 476" d="M370.819,773.244s-4.986,1.287-6.139-.7" transform="translate(-260.763 -538.087)" opacity="0.1"/>
        <ellipse id="Ellipse_141" data-name="Ellipse 141" cx="8.391" cy="1.418" rx="8.391" ry="1.418" transform="translate(51.615 221.712)" fill="#2e7eb7" opacity="0.1"/>
        <ellipse id="Ellipse_142" data-name="Ellipse 142" cx="8.391" cy="1.418" rx="8.391" ry="1.418" transform="translate(18.556 241.82)" fill="#2e7eb7" opacity="0.1"/>
        <ellipse id="Ellipse_143" data-name="Ellipse 143" cx="12.53" cy="2.119" rx="12.53" ry="2.119" transform="translate(5.681 223.13)" fill="#2e7eb7"/>
        <path id="Path_529" data-name="Path 529" d="M70.271,719.124a3.624,3.624,0,0,1-1.2-1.8,1.606,1.606,0,0,1,.835-1.835,2.345,2.345,0,0,1,2.206.773,2.961,2.961,0,0,0,2.147,1.038,3.269,3.269,0,0,1-1.01-3.06,1.247,1.247,0,0,1,.28-.623c.424-.455,1.2-.259,1.708.1,1.617,1.141,2.072,3.34,2.078,5.322a9.815,9.815,0,0,0,.031-2.181,2.244,2.244,0,0,1,.823-1.938,2.493,2.493,0,0,1,1.246-.312,2.606,2.606,0,0,1,2.038.58,2,2,0,0,1-.081,2.493,8.147,8.147,0,0,1-2.106,1.689,4.65,4.65,0,0,0-1.508,1.437,1.472,1.472,0,0,0-.112.255H73.1a12.6,12.6,0,0,1-2.826-1.935Z" transform="translate(-57.243 -497.34)" fill="#2e7eb7"/>
        <ellipse id="Ellipse_144" data-name="Ellipse 144" cx="8.391" cy="1.418" rx="8.391" ry="1.418" transform="translate(312.499 233.572)" fill="#2e7eb7" opacity="0.1"/>
        <path id="Path_530" data-name="Path 530" d="M1042.91,747.4s4.786-.146,6.232-1.175,7.36-2.253,7.718-.6,7.195,8.192,1.788,8.236-12.554-.841-13.994-1.72S1042.91,747.4,1042.91,747.4Z" transform="translate(-727.654 -518.998)" fill="#a8a8a8"/>
        <path id="Path_531" data-name="Path 531" d="M1058.742,758.989c-5.4.044-12.554-.841-13.994-1.72-1.1-.667-1.533-3.063-1.68-4.169h-.159s.312,3.861,1.742,4.736,8.591,1.764,13.994,1.72c1.558,0,2.1-.567,2.069-1.39C1060.5,758.678,1059.9,758.989,1058.742,758.989Z" transform="translate(-727.654 -524.704)" opacity="0.2"/>
        <path id="Path_547" data-name="Path 547" d="M841.912,614.014c2.253,4.569,1.77,9.123,1.609,16.991s-2.482,10.76-2.252,14.481c-.717.623-.712.5-1.8.322.623-4.322-2.072-15.148-.386-29.862,1.923-16.755,16.6-32.365,16.6-32.365l.709.894c1.032,3.378-7.084,15.15-11.52,22.847a30.436,30.436,0,0,0-2,4.891C842.642,612.81,841.7,613.591,841.912,614.014Z" transform="translate(-752.587 -415.907)" opacity="0.1"/>
        <path id="Path_548" data-name="Path 548" d="M943.863,641.23s-2.365,1.477-2.44,2.321,1.221-.623,1.221-.623Z" transform="translate(-826.723 -454.435)" opacity="0.1"/>
        <path id="Path_549" data-name="Path 549" d="M942.88,677.59a4.945,4.945,0,0,1-2.914,1.137c-1.77.078-1.62,2.384-.464,1.692A29.005,29.005,0,0,0,942.88,677.59Z" transform="translate(-824.805 -479.465)" opacity="0.1"/>
        <path id="Path_550" data-name="Path 550" d="M949.156,682.34s-1.134,5.575-2.057,4.5" transform="translate(-830.633 -482.735)" opacity="0.1"/>
        <path id="Path_551" data-name="Path 551" d="M3.968,0S1.232,6.7.351,7.142s.178,2.2.178,2.2S5.511,2.381,3.968,0Z" transform="matrix(0.848, 0.53, -0.53, 0.848, 114.906, 138.49)" opacity="0.1"/>
        <path id="Path_552" data-name="Path 552" d="M4.423,0S-.6,3.25.06,4.537,4.423,0,4.423,0Z" transform="matrix(0.848, 0.53, -0.53, 0.848, 105.64, 132.075)" opacity="0.1"/>
        <path id="Path_463" data-name="Path 463" d="M311.26,510.46s-2.39.848-2.861.377l1.075,1.979,2.032-1.558Z" transform="translate(-221.821 -357.272)" opacity="0.1"/>
      </g>
      <path id="Path_534" data-name="Path 534" d="M50.271,205.37c96.957,27.211,74.761,237.426,168.61,22.669s163.043,54.882,163.043,54.882S452.708,566.877,490.088,303.2s-85.1-350.77-159.861-279.184S154.373,51.4,84.384,96.733-46.686,178.158,50.271,205.37Z" transform="matrix(0.545, -0.839, 0.839, 0.545, -500.54, 994.648)" fill="#d9e3f2"/>
      <path id="Path_535" data-name="Path 535" d="M47.331,197.705c91.287-25.62,70.389-223.541,158.749-21.343s153.508-51.673,153.508-51.673,66.645-267.351,101.839-19.1S381.3,435.85,310.915,368.451s-165.57-25.775-231.466-68.462S-43.955,223.325,47.331,197.705Z" transform="translate(44.924 1047.081) rotate(-75)" fill="#d9e3f2"/>
      <path id="Path_543" data-name="Path 543" d="M160.5,29.046c-17.71-.587-34.58-6.033-50.686-11.994S77.758,4.488,60.472,1.33C49.354-.7,36.639-.988,27.682,4.691c-8.622,5.475-11.408,14.9-12.9,23.657-1.127,6.586-1.79,13.517,1.3,19.683,2.143,4.281,5.949,7.879,8.579,11.994,9.159,14.267,2.687,31.862-7.238,45.793-4.652,6.537-10.056,12.776-13.646,19.727s-5.254,14.927-2.112,22.024c3.117,7.04,10.541,12.317,18.58,16.033,16.333,7.548,35.573,9.707,54.347,10.93,41.546,2.709,83.312,1.536,124.968.362,15.417-.435,30.9-.876,46.064-3.147,8.423-1.262,17.116-3.262,23.232-8.1,7.76-6.135,9.684-16.525,4.485-24.217-8.726-12.9-32.837-16.108-38.944-29.959-3.355-7.621.093-16.111,4.969-23.182,10.464-15.164,28-28.47,28.926-45.8.635-11.908-7.8-23.829-20.835-29.463-13.663-5.927-32.615-5.176-42.69,4.6C194.38,25.7,176.139,29.563,160.5,29.046Z" transform="matrix(0.978, -0.208, 0.208, 0.978, -141.943, 473.31)" fill="#d9e3f2"/>
    </g>
  </g>
</svg>
