<svg id="Layer_1" data-name="Layer 1" xmlns="http://www.w3.org/2000/svg" viewBox="0 0 424.99 389.58"><defs><style>.cls-1,.cls-3{fill:#fff;stroke:#1e1e1c;stroke-miterlimit:10;}.cls-1{stroke-width:14px;}.cls-2{fill:#1e1e1c;}.cls-3{stroke-width:20px;}.cls-4{fill:#403f3e;}</style></defs><g id="Layer_1-2" data-name="Layer 1"><circle class="cls-1" cx="271.97" cy="149.35" r="114.05"/><polygon class="cls-2" points="288.68 35.14 255.26 35.14 259.82 0 284.12 0 288.68 35.14"/><circle class="cls-3" cx="271.97" cy="149.35" r="103.41"/><polygon class="cls-2" points="288.68 264.76 255.26 264.76 259.82 299.89 284.12 299.89 288.68 264.76"/><polygon class="cls-2" points="389.85 134.44 389.85 167.87 424.99 163.3 424.99 139.01 389.85 134.44"/><polygon class="cls-2" points="155.84 134.44 155.84 167.87 120.7 163.3 120.7 139.01 155.84 134.44"/><polygon class="cls-2" points="243.54 37.82 212.66 50.61 203.43 16.4 225.87 7.1 243.54 37.82"/><polygon class="cls-2" points="331.41 249.96 300.53 262.75 318.19 293.47 340.64 284.17 331.41 249.96"/><polygon class="cls-2" points="375.01 90.84 387.8 121.73 418.52 104.06 409.23 81.62 375.01 90.84"/><polygon class="cls-2" points="158.81 180.4 171.6 211.28 137.39 220.5 128.09 198.07 158.81 180.4"/><polygon class="cls-2" points="331.41 49.93 300.53 37.15 318.19 6.43 340.64 15.73 331.41 49.93"/><polygon class="cls-2" points="243.54 262.07 212.66 249.28 203.43 283.5 225.87 292.79 243.54 262.07"/><polygon class="cls-2" points="386.88 180.4 374.09 211.28 408.31 220.5 417.59 198.07 386.88 180.4"/><polygon class="cls-2" points="170.68 90.84 157.89 121.73 127.17 104.06 136.47 81.62 170.68 90.84"/><polygon class="cls-2" points="202.86 57.57 179.22 81.2 157.6 53.13 174.78 35.95 202.86 57.57"/><polygon class="cls-2" points="365.22 219.93 341.59 243.57 369.66 265.19 386.84 248.01 365.22 219.93"/><polygon class="cls-2" points="344.62 56.25 368.26 79.88 389.88 51.81 372.7 34.63 344.62 56.25"/><polygon class="cls-2" points="179.15 221.72 202.78 245.35 174.7 266.97 157.53 249.79 179.15 221.72"/></g><g id="Layer_3" data-name="Layer 3"><path class="cls-4" d="M334.52,197.74l.25.75q-55,35-110.23,70.2L114.31,338.94,32,299.13l.28-.55q66.57-22.12,133.36-44.5Z" transform="translate(-32.01 -64.63)"/><path class="cls-2" d="M334.77,198.49l-110.23,70.2Q279.68,233.5,334.77,198.49Z" transform="translate(-32.01 -64.63)"/><path class="cls-2" d="M334.52,197.74,165.64,254Q250.15,225.87,334.52,197.74Z" transform="translate(-32.01 -64.63)"/><path class="cls-2" d="M114.31,338.94l110.23-70.25Q169.42,303.88,114.31,338.94Z" transform="translate(-32.01 -64.63)"/><path class="cls-2" d="M32.29,298.6l133.36-44.5Q98.93,276.41,32.29,298.6Z" transform="translate(-32.01 -64.63)"/><path class="cls-4" d="M334.55,199.36q-21.74,25.35-43.47,50.78L116.46,454.2h-.83V357.78l.71-1.6q87.53-62.87,175-125.73l7.92-5.69Q316.89,212,334.55,199.36Z" transform="translate(-32.01 -64.63)"/><path class="cls-4" d="M334.93,199.11l-37.28,206-1.61-.3-73.88-35.38-.37-1.14L334.87,199.11Z" transform="translate(-32.01 -64.63)"/></g></svg>