<svg id="Layer_2" data-name="Layer 2" xmlns="http://www.w3.org/2000/svg" viewBox="0 0 422.46 489.12"><defs><style>.cls-1{fill:#f4e72f;}.cls-2{fill:#1d1d1b;}</style></defs><path class="cls-1" d="M217.84,207" transform="translate(-48.76 -10.09)"/><polygon class="cls-2" points="418.61 236.88 212.77 116.17 212.09 0 417.92 120.72 418.61 236.88"/><polygon class="cls-2" points="207.71 488.91 1.88 368.19 1.19 252.03 207.03 372.74 207.71 488.91"/><polygon class="cls-2" points="49.24 205.91 202.93 116.16 204 2.37 50.31 92.12 49.24 205.91"/><polygon class="cls-2" points="364.25 282.58 267.58 336.51 55.3 213.56 151.96 159.63 364.25 282.58"/><polygon class="cls-2" points="51.62 91.52 0.92 120.8 0 177.76 49.79 205.45 100.5 176.17 101.41 119.21 51.62 91.52"/><polygon class="cls-2" points="373.22 285.58 219.53 375.33 218.46 489.12 372.15 399.37 373.22 285.58"/><polygon class="cls-2" points="370.84 399.97 421.55 370.7 422.46 313.73 372.67 286.05 321.97 315.32 321.05 372.29 370.84 399.97"/></svg>