<?xml version="1.0" encoding="utf-8"?>
<!-- Generator: Adobe Illustrator 25.0.1, SVG Export Plug-In . SVG Version: 6.00 Build 0)  -->
<svg version="1.1" id="Layer_1" xmlns="http://www.w3.org/2000/svg" xmlns:xlink="http://www.w3.org/1999/xlink" x="0px" y="0px"
	 viewBox="0 0 512 511.5" style="enable-background:new 0 0 512 511.5;" xml:space="preserve">
<style type="text/css">
	.st0{fill:#21335A;stroke:#010202;stroke-width:3.000000e-02;stroke-linecap:round;stroke-linejoin:round;}
</style>
<path class="st0" d="M240.5,9.5c0.5,5.9-12.2,34.1-28.2,62.8c-42.8,78.1-43.9,97.8-9.4,164.6c28.1,53.4,42.2,98.8,36.6,116
	c-4.4,13.7-14.2-4.2-20-37.1c-15.2-83.1-116.1-140.1-183.6-103.3c-45,24.3-48.1,109.6-6.1,155.6c25.1,27.5,26.5,27.1,33.4-8.2
	c11-54.1,79.9-74.3,121-35.5c20.8,20,21.2,27.5,1,35.4c-7.4,3.1-15.4,10.4-17.3,16.4c-3,9.1-0.6,9.4,14.3,2.7
	c17.2-7.6,18-7.4,18.2,8.1c0,28.5-17.3,44.9-28.3,27c-19.9-32.5-55.3,5.1-36.9,38.6c21.4,39.1,74.6,4.5,88.4-57.1
	c5.7-25.2,21.6-27.4,16.7-2.3c-9.4,49.2-9.1,66.6,1.9,91c16.3,37.6,23,36.5,36.5-5.3c8.9-27.7,9-42.7,0.9-64.8
	c-21.9-57.4-2-57.2,23.1,0.3c23.2,53.5,66.7,68.8,79.8,28c11-34.1-6.6-51.6-34.2-34.1c-20,12.5-20.8,12.3-26.4-3.7
	c-9-25.4-2.3-37.6,14.2-26.6c10.3,6.5,13.9,6.5,14-1.2c-0.1-5.8-8.6-14.1-19.2-18.5c-42.5-18.5,12.6-65.1,66.6-56.4
	c32.6,5.5,47.7,22,58.4,65.6c6.3,25,44.9-21.2,53.1-64.2c30.6-154.5-181.1-143.3-215.4,11.6c-5.3,23.8-12.1,42.6-15.8,41.5
	c-12.4-3.7-5.3-37,25.9-116.2l32-82.1l-41-77.7C255.5,7.4,238.7-14.9,240.5,9.5z"/>
</svg>
