<svg id="Layer_1" data-name="Layer 1" xmlns="http://www.w3.org/2000/svg" viewBox="0 0 442.58 459.53"><defs><style>.cls-1{fill:#222d56;}</style></defs><path class="cls-1" d="M244.57,26.31C245,31.63,234,57,220.17,82.74c-36.95,70.17-37.93,87.85-8.13,147.92,24.22,48,36.48,88.77,31.69,104.24-3.81,12.3-12.31-3.82-17.32-33.39C213.22,226.88,126,175.65,67.69,208.77c-38.93,21.83-41.58,98.48-5.27,139.81C84.16,373.3,85.3,373,91.31,341.28c9.52-48.58,69.11-66.78,104.65-31.91,17.94,18,18.29,24.69.88,31.75-6.42,2.85-13.28,9.37-14.94,14.74-2.54,8.2-.55,8.47,12.38,2.45,14.9-6.79,15.54-6.6,15.73,7.29,0,25.6-14.92,40.34-24.46,24.24-17.24-29.2-47.76,4.58-31.86,34.75,18.51,35.13,64.45,4.06,76.44-51.37,5-22.67,18.7-24.64,14.48-2.08-8.15,44.16-7.82,59.83,1.64,81.78,14.09,33.76,19.92,32.8,31.56-4.75,7.72-24.93,7.75-38.41.74-58.22-19-51.53-1.72-51.37,20,.31,20,48.05,57.63,61.78,69,25.17,9.49-30.61-5.69-46.37-29.59-30.61-17.32,11.24-17.95,11-22.85-3.27-7.8-22.83-2-33.82,12.24-23.88,8.9,5.87,12,5.8,12.09-1.09-.11-5.23-7.48-12.7-16.65-16.58-36.72-16.56,10.87-58.53,57.54-50.65,28.21,4.94,41.28,19.71,50.58,58.9,5.49,22.46,38.77-19.11,45.89-57.71C503.14,151.73,320.19,161.8,290.55,301c-4.56,21.42-10.47,38.26-13.62,37.28-10.73-3.32-4.58-33.23,22.33-104.44l27.68-73.74L291.49,90.31C257.59,24.47,243.06,4.4,244.57,26.31Z" transform="translate(-36.76 -17.8)"/></svg>