<?xml version="1.0" encoding="utf-8"?>
<!-- Generator: Adobe Illustrator 25.0.1, SVG Export Plug-In . SVG Version: 6.00 Build 0)  -->
<svg version="1.1" id="Layer_1" xmlns="http://www.w3.org/2000/svg" xmlns:xlink="http://www.w3.org/1999/xlink" x="0px" y="0px"
	 viewBox="0 0 503.4 512.3" style="enable-background:new 0 0 503.4 512.3;" xml:space="preserve">
<style type="text/css">
	.st0{fill:#3DA045;}
</style>
<path class="st0" d="M404.9,4.6c5.8,27.5,6.6,67.7,1.8,94.6c-3.5,19.5-11.9,47-22.5,73.4c-3.2,8.1-5.8,15-5.6,15.4
	c0.4,1.2,7.1-7.9,12.5-16.9c10.9-18.7,19.3-38.8,24.8-59.8c4.4-17.2,5-23.1,5-47.8c0-21.2-0.1-22-2.1-30
	c-3.9-15.1-9.7-29.5-13.4-32.8C403.8-0.6,403.8-0.6,404.9,4.6z"/>
<path class="st0" d="M429.6,57.9c0,24-0.5,27.7-5.3,46.5C415,140,402.6,167.3,383,195c-11,15-22.8,29.4-35.4,43.1
	c-1.2,1.4-2,2.5-1.5,2.5c2.1,0,23.4-19.8,34.1-31.7c14.9-16.5,27.4-34.9,37.2-54.9c9-17.9,14.7-37.3,16.8-57.2
	c1.8-15.9-0.6-53.5-3.9-59.1C429.9,36.9,429.7,43.7,429.6,57.9z"/>
<path class="st0" d="M439.6,100.4c-2.4,11.8-7.9,33.1-10.8,41.5c-13.1,38-46.2,80.9-85.8,111.3l-2.8,2.1l1.3,2.4
	c2.5,4.3,9.2,9.7,13.5,10.9c10.5,3,25.3-5.1,38.6-21.4c23.8-29.1,41.1-75.9,45.7-123.6c1-9.9,1.9-27.9,1.5-27.9
	C440.3,97.1,439.8,98.7,439.6,100.4z"/>
<path class="st0" d="M445.6,134.5c0,2.6-6.9,32.2-9.7,41.3c-5.7,18.3-13.1,36.1-22.1,53c-13.9,24.9-28.2,39.9-42.6,44.7
	c-4.5,1.5-6.2,1.7-13.7,1.3l-8.5-0.4l-11-11.1c-8.6-8.7-12.1-11.7-16.6-14.2l-5.8-3.1h-25.9l-4.6,2.6c-2.5,1.4-5.1,3.4-5.8,4.5
	c-1,1.8-1,2.1,0.4,3.7c2.7,3.1,17.9,9,36.9,14.5c12.2,3.5,12.8,5.1,0.7,2.2c-3.5-0.8-7-1.4-10.6-1.5c-3,0-4.7-0.4-5.4-1.2
	c-2.1-2.5-9.8-5.4-9.8-3.6c0.6,1.1,1.2,2.1,2,3c1.1,1.5,1.8,2.8,1.5,3c-0.7,0.7-4.7-3.3-6.3-6.3c-1-1.8-2.9-3.5-5.8-5
	c-4.1-2.2-5.5-3.9-6.1-7.9c-0.2-1.2-0.8-1.4-2.5-1.3c-6.9,0.8-11.5,3.2-15.4,8.4s-3.6,5.5,4,5.5c8.2,0,10.5,1,15.5,6.6
	c4,4.5,4.9,6.4,2.9,6.4s-2.1,1.2-1.2,8.3c0.7,5.1,0.7,7.2,0,7.9c-1.3,2.7-2.5,5.4-3.5,8.2c-6,16.6-11.1,24.9-22,35.6
	c-19.6,19.5-40.3,31.3-78.9,45.3c-8.4,3-15.3,5.6-15.5,5.8c-1.1,0.9,1.9,0.8,15.6-0.8c31.5-3.8,48.9-6.7,66.4-11.2
	c15.3-3.9,21.1-6.2,41-15.8c8.7-4.2,16.6-7.9,17.5-8.1c2.1-0.5,5.1,2.4,20.1,19.8c11.8,13.8,28.6,31.3,34.4,35.6
	c4.6,3.5,13,7.6,24.2,12.1c12.2,4.9,11.5,3.4,8.1,16.5c-1.6,6.1-4,13.7-5.2,17c-4.3,10.5-15.2,28.5-24.4,40.2
	c-2.5,3.1-4.4,5.8-4,5.8c1-0.1,27.9-19.2,36.4-25.9c12-9.5,22.1-20.3,28.7-30.9c3-5,6.3-9.5,7.2-10c3.8-1.8,7.7-3.3,11.8-4.6
	c12-4,20.2-8.1,26.6-12.8s19.2-17.9,24.7-25.3c4.4-5.8,15.1-25.9,14.3-26.8c-0.2-0.2-3.6,3.4-7.4,8.1
	c-12.3,14.7-22.7,23.4-36.3,29.9c-12.5,6-27,8.9-30.5,6.1c-1.7-1.4-3.8-8.8-6.6-23c-4.6-23.7-9.7-38.7-21.7-64
	c-3.6-7.6-6.7-14.6-6.9-15.6c-0.6-2.4,0.8-5.3,10.5-20.1c13.8-21,20.5-34.2,26.4-52c5.8-17.2,13-49.4,14.6-64.9
	c1.3-13.4,1.9-36.7,0.9-36.7C446,133,445.6,133.7,445.6,134.5z M296,318.5c1.9,1.5,5.4,4,7.9,5.6c3.9,2.6,5.4,4.2,3.8,4.2
	c-2,0-15.8-10.8-17.2-13.3C289.5,313.3,289.5,313.2,296,318.5z M314.8,330c0.7,0.8,1.1,1.5,0.8,1.5c-1.8-0.4-3.4-1.3-4.7-2.7
	C310.5,327.3,313.2,328.2,314.8,330z"/>
<path class="st0" d="M0,269.3c0,0.9,6.9,13.6,9.9,18.2c10.6,16.4,30.1,33.6,48.4,42.8c11.1,5.5,27.3,10.3,43.7,12.8
	c7.9,1.2,12,1.4,30.4,1.4c19.4,0.1,22-0.1,29.6-1.4c13.8-2.4,48.2-11.7,47.2-12.7c-0.1-0.1-7.2,0.9-15.6,2.3
	c-36.9,6.3-68.7,4.6-99.5-5.3c-30.1-9.7-56.2-25.5-85.5-51.5C1.3,269.3,0,268.4,0,269.3z"/>
<path class="st0" d="M252.2,319.2c-25.7,23.8-39,33.6-58.4,43.6c-26.3,13.4-52.8,20-79.9,20c-11.9,0-21.2,0.6-19.3,1.4
	c4.2,1.5,16,3,24,3c33.7,0,60.3-5.1,85.1-16.2c17.1-7.4,32.4-18.3,45.2-31.8c4.8-5,6.2-6.9,8.9-12.6c3.7-7.6,6-14,5.7-16.2
	C263.3,309.2,261.8,310.2,252.2,319.2z"/>
<path class="st0" d="M243.2,317.3c-9.1,5.7-20.9,12.5-26.3,15.2c-15.8,7.8-34.6,13.3-61.3,17.9c-17.7,3-40.2,2.9-65.7-0.3
	c-18.9-2.4-27.2-5.4-50.8-17.9c-7.7-4.1-14.2-7.2-14.5-7c-0.6,0.6,13.2,14,19.5,19c6,4.8,12.6,9,19.5,12.5c18.2,9.2,32.1,11.2,70,10
	c19.9-0.6,23.7-1.1,38.1-5.3c25.8-7.6,55.4-24.7,81.1-46.8C265.2,303.9,264.1,304.2,243.2,317.3z"/>
<path class="st0" d="M493.5,360.2c-9.5,7.3-19.6,12.6-28.4,14.8c-4,1.1-11.1,1.8-21.4,2.4c-8.4,0.5-15.4,1.1-15.6,1.2
	c-0.5,0.4,2.1,22.9,2.7,23.9c1.3,2.1,16.2,0,25.5-3.5c14.5-5.5,32.4-22,43.1-39.8c1.6-2.7,2.8-5,2.6-5.1S498,356.5,493.5,360.2z"/>
<path class="st0" d="M362.1,423.6c-0.2,0.8-1.5,7.2-2.8,14.4c-4.2,23.4-11,41-23.9,62.2c-6.2,10.2-7.3,12.2-6.6,12.2
	c2.9-1.7,5.6-3.6,8.2-5.8c19.8-14.9,35.8-38.1,44.5-64.7c3.5-10.8,3.7-10.6-8.1-15.7C364.3,422.2,362.7,421.8,362.1,423.6z"/>
</svg>
