<svg id="Layer_1" data-name="Layer 1" xmlns="http://www.w3.org/2000/svg" viewBox="0 0 502 456.73"><defs><style>.cls-1{fill:#3da045;}</style></defs><path class="cls-1" d="M419.06,25.8c5.17,24.56,5.85,60.35,1.64,84.37-3.07,17.35-10.62,41.91-20.07,65.45-2.86,7.14-5.11,13.33-5,13.74.34,1.09,6.33-7,11.09-15a213.62,213.62,0,0,0,22.11-53.28c3.88-15.3,4.42-20.61,4.42-42.65,0-18.92-.07-19.6-1.9-26.74-3.4-13.47-8.64-26.33-11.91-29.26C418.11,21.18,418.11,21.18,419.06,25.8Z" transform="translate(-5 -21.71)"/><path class="cls-1" d="M441.11,73.36c0,21.36-.41,24.7-4.77,41.43-8.23,31.71-19.32,56.07-36.73,80.76A426.09,426.09,0,0,1,368,234c-1.09,1.23-1.77,2.25-1.36,2.25,1.83,0,20.88-17.69,30.41-28.24a212.07,212.07,0,0,0,33.2-48.91,150.33,150.33,0,0,0,15-51c1.63-14.22-.55-47.69-3.47-52.66C441.38,54.65,441.18,60.64,441.11,73.36Z" transform="translate(-5 -21.71)"/><path class="cls-1" d="M450,111.19c-2.11,10.54-7,29.46-9.59,36.94C428.72,182,399.27,220.25,364,247.33l-2.44,1.9,1.15,2.11c2.25,3.81,8.17,8.64,12,9.73,9.39,2.72,22.59-4.56,34.43-19,21.23-25.92,36.67-67.69,40.75-110.22.89-8.84,1.7-24.83,1.3-24.83A19,19,0,0,0,450,111.19Z" transform="translate(-5 -21.71)"/><path class="cls-1" d="M455.39,141.6c0,2.31-6.19,28.78-8.64,36.81A265.3,265.3,0,0,1,427,225.62c-12.38,22.18-25.17,35.59-38,39.87-4,1.36-5.51,1.5-12.24,1.16l-7.62-.34-9.8-9.87c-7.69-7.75-10.82-10.41-14.83-12.65L339.39,241H316.26l-4.08,2.31c-2.25,1.23-4.56,3-5.1,4-.89,1.56-.89,1.9.34,3.26,2.45,2.72,15.92,8,32.93,12.93,10.88,3.13,11.36,4.56.61,2a50.7,50.7,0,0,0-9.46-1.36c-2.65,0-4.15-.34-4.76-1.09-1.84-2.24-8.78-4.76-8.78-3.19a16,16,0,0,0,1.77,2.72c.95,1.29,1.57,2.51,1.36,2.72-.61.61-4.15-2.93-5.58-5.65-.88-1.63-2.58-3.06-5.17-4.49-3.67-2-4.9-3.47-5.44-7-.2-1.08-.68-1.29-2.25-1.15-6.19.68-10.2,2.85-13.74,7.48s-3.2,4.9,3.54,4.9c7.35,0,9.39.88,13.81,5.85,3.61,4,4.36,5.72,2.59,5.72s-1.84,1.08-1,7.41c.61,4.56.61,6.4,0,7.08a58.08,58.08,0,0,0-3.07,7.34c-5.37,14.84-9.93,22.18-19.59,31.71-17.49,17.35-35.92,27.89-70.35,40.41-7.48,2.66-13.67,5-13.81,5.11-.95.81,1.7.68,13.88-.75,28.1-3.4,43.61-6,59.19-10,13.61-3.47,18.85-5.52,36.54-14.09,7.75-3.74,14.76-7,15.64-7.21,1.91-.48,4.56,2.11,17.9,17.69,10.54,12.31,25.51,27.89,30.61,31.7,4.08,3.07,11.64,6.81,21.57,10.75,10.89,4.36,10.21,3,7.21,14.7C402.12,418.23,400,425,398.93,428c-3.81,9.39-13.54,25.45-21.78,35.86-2.24,2.79-3.87,5.1-3.6,5.1.88-.07,24.9-17.08,32.45-23.07,10.68-8.43,19.66-18.09,25.58-27.55,2.72-4.42,5.65-8.44,6.4-8.91a88.88,88.88,0,0,1,10.47-4.08c10.69-3.61,18-7.15,23.68-11.43s17.15-16,22-22.59c3.95-5.17,13.48-23.13,12.8-23.88-.21-.21-3.2,3-6.6,7.14-11,13.13-20.28,20.82-32.39,26.67-11.16,5.38-24.08,8-27.15,5.44-1.49-1.22-3.4-7.82-5.85-20.47-4.15-21.16-8.64-34.5-19.32-57.09-3.2-6.73-6-13-6.19-13.88-.54-2.17.75-4.76,9.39-18,12.31-18.71,18.23-30.48,23.54-46.33,5.17-15.31,11.57-44.09,13-57.9,1.16-12,1.71-32.72.82-32.72C455.73,140.31,455.39,140.92,455.39,141.6ZM322.05,305.7c1.7,1.36,4.83,3.61,7,5,3.47,2.31,4.77,3.74,3.4,3.74-1.76,0-14.08-9.59-15.3-11.84C316.26,301,316.19,300.94,322.05,305.7Zm16.73,10.21c.61.68,1,1.29.75,1.29-1,0-3.81-1.63-4.15-2.38C334.9,313.53,337.35,314.34,338.78,315.91Z" transform="translate(-5 -21.71)"/><path class="cls-1" d="M5,253c0,1,7.28,14.43,10.41,19.19,11.23,17.35,31.77,35.51,51.16,45.24,11.77,5.85,28.85,10.89,46.13,13.47,8.37,1.3,12.72,1.5,32.11,1.5,20.48.07,23.27-.07,31.3-1.5,14.56-2.51,50.89-12.31,49.8-13.4-.14-.13-7.62.95-16.53,2.45-39,6.67-72.53,4.9-105-5.58C72.49,304.07,44.94,287.47,14.05,260,6.29,253,5,252,5,253Z" transform="translate(-5 -21.71)"/><path class="cls-1" d="M289.39,293.52c-27.76,25.65-42,36.27-63.07,47C198,355,169.37,362.1,140.05,362.1c-12.86,0-22.86.68-20.82,1.5,4.56,1.63,17.21,3.27,25.85,3.27,36.4,0,65.11-5.52,91.78-17.49,19.6-8.84,34-19,48.79-34.29,5.23-5.44,6.73-7.48,9.66-13.54,4-8.16,6.46-15.1,6.19-17.42C301.29,282.71,299.8,283.86,289.39,293.52Z" transform="translate(-5 -21.71)"/><path class="cls-1" d="M263.13,303.32c-9.32,5.85-21.43,12.86-26.95,15.58-16.19,8-35.44,13.68-62.79,18.37-18.1,3.13-41.16,3-67.36-.34-19.32-2.45-27.89-5.51-52-18.37-7.9-4.22-14.56-7.42-14.84-7.14-.61.61,13.54,14.35,20,19.52a109.59,109.59,0,0,0,20,12.79c18.71,9.39,32.93,11.43,71.78,10.21,20.41-.61,24.28-1.16,39-5.44,26.47-7.76,56.81-25.31,83.07-48C285.65,289.58,284.56,289.92,263.13,303.32Z" transform="translate(-5 -21.71)"/><path class="cls-1" d="M498.05,342.78c-8.43,6.53-17.41,11.23-25.31,13.2-3.6.95-9.93,1.63-19.05,2.11-7.48.48-13.74,1-13.94,1.09-.41.34,1.83,20.41,2.38,21.29,1.15,1.84,14.42,0,22.72-3.13,12.93-4.9,28.92-19.66,38.44-35.51,1.43-2.38,2.52-4.42,2.31-4.56S502.07,339.58,498.05,342.78Z" transform="translate(-5 -21.71)"/><path class="cls-1" d="M381,399.32c-.2.68-1.29,6.39-2.45,12.79-3.74,20.89-9.79,36.53-21.29,55.45-5.51,9.05-6.53,10.88-5.92,10.88.34,0,3.67-2.31,7.35-5.1,17.69-13.27,31.91-34,39.66-57.69,3.13-9.66,3.27-9.46-7.14-14C382.94,398,381.44,397.69,381,399.32Z" transform="translate(-5 -21.71)"/></svg>