<?xml version="1.0" encoding="utf-8"?>
<!-- Generator: Adobe Illustrator 25.0.1, SVG Export Plug-In . SVG Version: 6.00 Build 0)  -->
<svg version="1.1" id="Layer_1" xmlns="http://www.w3.org/2000/svg" xmlns:xlink="http://www.w3.org/1999/xlink" x="0px" y="0px"
	 viewBox="0 0 511.3 510" style="enable-background:new 0 0 511.3 510;" xml:space="preserve">
<style type="text/css">
	.st0{fill:none;stroke:#139CD7;stroke-width:19;stroke-miterlimit:10;}
	.st1{fill:none;stroke:#DC1755;stroke-width:19;stroke-miterlimit:10;}
	.st2{fill:#139CD7;stroke:#139CD7;stroke-width:26;stroke-miterlimit:10;}
	.st3{fill:#DC1755;stroke:#DC1755;stroke-width:26;stroke-miterlimit:10;}
	.st4{fill:none;stroke:#8CBF3B;stroke-width:9;stroke-miterlimit:10;}
	.st5{fill:#8CBF3B;stroke:#8CBF3B;stroke-width:4;stroke-miterlimit:10;}
	.st6{fill:none;stroke:#8CBF3B;stroke-width:18;stroke-miterlimit:10;}
</style>
<ellipse class="st0" cx="261.4" cy="266.6" rx="134.2" ry="137.1"/>
<ellipse class="st1" cx="261.4" cy="266.6" rx="227.2" ry="232"/>
<ellipse class="st2" cx="200.6" cy="149.5" rx="30.4" ry="31"/>
<ellipse class="st2" cx="322.2" cy="381.4" rx="30.4" ry="31"/>
<ellipse class="st3" cx="198.3" cy="44" rx="30.4" ry="31"/>
<ellipse class="st3" cx="96.2" cy="108.5" rx="30.4" ry="31"/>
<ellipse class="st3" cx="467.9" cy="171.7" rx="30.4" ry="31"/>
<ellipse class="st3" cx="43.4" cy="340.4" rx="30.4" ry="31"/>
<ellipse class="st3" cx="115.7" cy="444.7" rx="30.4" ry="31"/>
<ellipse class="st3" cx="373.8" cy="465.9" rx="30.4" ry="31"/>
<ellipse class="st4" cx="260.9" cy="267.1" rx="45.5" ry="46.4"/>
<polygon class="st5" points="270,218.5 251.7,218.5 254.2,203.5 267.5,203.5 "/>
<polygon class="st5" points="270,314 251.7,314 254.2,329 267.5,329 "/>
<polygon class="st5" points="308.7,257.7 308.7,276.5 323.4,273.9 323.4,260.3 "/>
<polygon class="st5" points="214.4,257.7 214.4,276.5 199.7,273.9 199.7,260.3 "/>
<polygon class="st5" points="234.5,226.3 221.5,239.6 212.9,227.1 222.3,217.5 "/>
<polygon class="st5" points="300.6,293.9 287.6,307.1 299.8,315.9 309.3,306.3 "/>
<polygon class="st5" points="289,226.2 301.9,239.5 310.6,227 301.1,217.4 "/>
<polygon class="st5" points="222.3,294.2 235.3,307.5 223.1,316.3 213.7,306.6 "/>
<ellipse class="st6" cx="261" cy="267.1" rx="32.6" ry="33.3"/>
</svg>
