<?xml version="1.0" encoding="utf-8"?>
<!-- Generator: Adobe Illustrator 25.0.1, SVG Export Plug-In . SVG Version: 6.00 Build 0)  -->
<svg version="1.1" id="Layer_1" xmlns="http://www.w3.org/2000/svg" xmlns:xlink="http://www.w3.org/1999/xlink" x="0px" y="0px"
	 viewBox="0 0 510.8 507.6" style="enable-background:new 0 0 510.8 507.6;" xml:space="preserve">
<style type="text/css">
	.st0{fill:#F3E733;}
	.st1{fill:#93C121;}
	.st2{fill:#0C75BB;}
	.st3{fill:#E7246C;}
</style>
<path class="st0" d="M204.4,204.4"/>
<polygon class="st1" points="506.2,245.9 257.3,120.6 256.5,0 505.3,125.3 "/>
<polygon class="st1" points="251.2,507.4 2.3,382.1 1.4,261.6 250.3,386.9 "/>
<polygon class="st2" points="59.5,213.7 245.4,120.6 246.7,2.5 60.8,95.6 "/>
<polygon class="st3" points="440.4,293.3 323.5,349.2 66.9,221.6 183.8,165.7 "/>
<polygon class="st2" points="62.4,95 1.1,125.4 0,184.5 60.2,213.2 121.5,182.8 122.6,123.7 "/>
<polygon class="st2" points="451.3,296.4 265.5,389.5 264.1,507.6 450,414.5 "/>
<polygon class="st2" points="448.4,415.1 509.7,384.7 510.8,325.6 450.6,296.9 389.3,327.3 388.2,386.4 "/>
</svg>
