<?xml version="1.0" encoding="utf-8"?>
<!-- Generator: Adobe Illustrator 25.0.1, SVG Export Plug-In . SVG Version: 6.00 Build 0)  -->
<svg version="1.1" id="Layer_1" xmlns="http://www.w3.org/2000/svg" xmlns:xlink="http://www.w3.org/1999/xlink" x="0px" y="0px"
	 viewBox="0 0 499.3 504.5" style="enable-background:new 0 0 499.3 504.5;" xml:space="preserve">
<style type="text/css">
	.st0{display:none;fill:#1578BD;}
	.st1{fill:#1578BD;}
	.st2{fill:none;stroke:#1578BD;stroke-width:41;stroke-miterlimit:10;}
	.st3{fill:#E7246C;}
	.st4{fill:#1264A3;}
	.st5{fill:#13539F;}
	.st6{fill:#93C121;}
</style>
<g id="Layer_1-2">
	<g>
		<circle class="st0" cx="299.9" cy="194.6" r="148.6"/>
		<polygon class="st1" points="321.6,45.8 278.1,45.8 284,0 315.7,0 		"/>
		<circle class="st2" cx="299.9" cy="194.6" r="134.8"/>
		<polygon class="st1" points="321.6,345.1 278.1,345.1 284,390.9 315.7,390.9 		"/>
		<polygon class="st1" points="453.5,175.2 453.5,218.8 499.3,212.8 499.3,181.2 		"/>
		<polygon class="st1" points="148.5,175.2 148.5,218.8 102.7,212.8 102.7,181.2 		"/>
		<polygon class="st1" points="262.8,49.3 222.6,66 210.5,21.4 239.8,9.2 		"/>
		<polygon class="st1" points="377.3,325.8 337.1,342.4 360.1,382.5 389.4,370.4 		"/>
		<polygon class="st1" points="434.2,118.4 450.8,158.6 490.9,135.6 478.8,106.4 		"/>
		<polygon class="st1" points="152.4,235.1 169.1,275.4 124.5,287.4 112.4,258.1 		"/>
		<polygon class="st1" points="377.3,65.1 337.1,48.4 360.1,8.4 389.4,20.5 		"/>
		<polygon class="st1" points="262.8,341.6 222.6,324.9 210.5,369.5 239.8,381.6 		"/>
		<polygon class="st1" points="449.6,235.1 433,275.4 477.5,287.4 489.7,258.1 		"/>
		<polygon class="st1" points="167.9,118.4 151.2,158.6 111.2,135.6 123.3,106.4 		"/>
		<polygon class="st1" points="209.8,75 179,105.8 150.8,69.2 173.2,46.8 		"/>
		<polygon class="st1" points="421.4,286.6 390.6,317.4 427.2,345.6 449.6,323.2 		"/>
		<polygon class="st1" points="394.6,73.3 425.4,104.1 453.5,67.5 431.1,45.1 		"/>
		<polygon class="st1" points="178.9,289 209.7,319.8 173.1,347.9 150.7,325.6 		"/>
	</g>
</g>
<g id="Layer_3">
	<path class="st3" d="M357.2,201.7l0.3,0.9c-43.3,27.6-86.7,55.2-130.2,82.9l-130.2,83L0,321.5l0.3-0.7
		c52.4-17.4,104.9-34.9,157.5-52.5L357.2,201.7z"/>
	<path class="st4" d="M357.5,202.6l-130.2,82.9C270.8,257.8,314.2,230.1,357.5,202.6z"/>
	<path class="st4" d="M357.2,201.7l-199.4,66.5L357.2,201.7z"/>
	<path class="st4" d="M97.2,368.4l130.2-83C183.9,313.1,140.6,340.8,97.2,368.4z"/>
	<path class="st4" d="M0.3,320.8l157.5-52.5C105.3,285.8,52.8,303.3,0.3,320.8z"/>
	<path class="st5" d="M357.3,203.6c-17.1,20-34.2,40-51.3,60c-68.7,80.3-137.5,160.6-206.2,240.9h-1V390.7l0.8-1.9
		c68.9-49.5,137.8-99,206.6-148.5l9.4-6.7C329.5,223.6,343.4,213.6,357.3,203.6z"/>
	<path class="st6" d="M357.7,203.3l-44,243.3l-1.9-0.4l-87.2-41.8l-0.4-1.4L357.7,203.3L357.7,203.3z"/>
</g>
</svg>
