<svg id="Layer_2" data-name="Layer 2" xmlns="http://www.w3.org/2000/svg" viewBox="0 0 318.24 368.46"><defs><style>.cls-1{fill:#f4e72f;}.cls-2{fill:#93c121;}.cls-3{fill:#0c75bb;}.cls-4{fill:#e7246c;}</style></defs><path class="cls-1" d="M224.13,203.39" transform="translate(-96.76 -55.09)"/><polygon class="cls-2" points="315.33 178.44 160.28 87.51 159.76 0 314.82 90.94 315.33 178.44"/><polygon class="cls-2" points="156.47 368.3 1.42 277.36 0.9 189.85 155.95 280.79 156.47 368.3"/><polygon class="cls-3" points="37.09 155.11 152.87 87.5 153.67 1.79 37.9 69.39 37.09 155.11"/><polygon class="cls-4" points="274.39 212.87 201.57 253.49 41.65 160.87 114.47 120.25 274.39 212.87"/><polygon class="cls-3" points="38.89 68.94 0.69 91 0 133.91 37.51 154.76 75.7 132.71 76.39 89.8 38.89 68.94"/><polygon class="cls-3" points="281.15 215.13 165.37 282.74 164.57 368.45 280.34 300.85 281.15 215.13"/><polygon class="cls-3" points="279.35 301.3 317.55 279.25 318.24 236.34 280.73 215.48 242.54 237.53 241.85 280.44 279.35 301.3"/></svg>