<svg id="Layer_1" data-name="Layer 1" xmlns="http://www.w3.org/2000/svg" viewBox="0 0 512.03 511.53"><defs><style>.cls-1{fill:#21335a;stroke:#010202;stroke-linecap:round;stroke-linejoin:round;stroke-width:0.03px;}</style></defs><path class="cls-1" d="M240.45,9.48c.51,5.92-12.17,34.08-28.22,62.8-42.78,78.1-43.92,97.77-9.44,164.64,28.05,53.41,42.15,98.83,36.61,116-4.41,13.71-14.23-4.23-20-37.11C204.18,232.75,103.29,175.7,35.78,212.55c-45,24.26-48.12,109.58-6.1,155.6C54.82,395.66,56.13,395.3,63.11,360c11-54.07,79.94-74.32,121-35.49,20.76,20.05,21.16,27.48,1,35.36-7.43,3.15-15.36,10.42-17.29,16.39-3,9.14-.65,9.43,14.32,2.74,17.25-7.57,18-7.35,18.19,8.1,0,28.51-17.28,44.91-28.3,27-19.93-32.53-55.26,5.07-36.86,38.65,21.4,39.12,74.55,4.55,88.45-57.15,5.73-25.25,21.62-27.42,16.73-2.32-9.42,49.16-9.05,66.6,1.89,91,16.29,37.59,23,36.53,36.51-5.27,8.93-27.74,9-42.74.87-64.8-21.92-57.35-2-57.19,23.08.34,23.19,53.52,66.68,68.79,79.8,28.05,11-34.08-6.57-51.61-34.23-34.08-20,12.51-20.76,12.28-26.43-3.66-9-25.4-2.27-37.62,14.16-26.56,10.29,6.54,13.93,6.46,14-1.21-.11-5.82-8.62-14.15-19.23-18.47-42.48-18.45,12.57-65.15,66.62-56.36,32.63,5.52,47.74,21.95,58.43,65.57,6.34,25,44.86-21.25,53.1-64.24,30.58-154.5-181.08-143.33-215.39,11.59-5.28,23.83-12.12,42.59-15.77,41.48-12.41-3.68-5.27-37,25.87-116.24l32-82.09-41-77.66C255.53,7.42,238.71-14.92,240.45,9.48Z" transform="translate(0.01 0.01)"/></svg>