<svg id="Layer_1" data-name="Layer 1" xmlns="http://www.w3.org/2000/svg" viewBox="0 0 511.33 509.99"><defs><style>.cls-1,.cls-2,.cls-7{fill:none;}.cls-1,.cls-3{stroke:#1264a3;}.cls-1,.cls-2,.cls-3,.cls-4,.cls-5,.cls-6,.cls-7{stroke-miterlimit:10;}.cls-1,.cls-2{stroke-width:19px;}.cls-2,.cls-4{stroke:#21335a;}.cls-3{fill:#1264a3;}.cls-3,.cls-4{stroke-width:26px;}.cls-4{fill:#21335a;}.cls-5{fill:#fff;stroke-width:14px;}.cls-5,.cls-6,.cls-7{stroke:#3d93d0;}.cls-6{fill:#3d93d0;stroke-width:4px;}.cls-7{stroke-width:18px;}</style></defs><ellipse class="cls-1" cx="261.4" cy="266.62" rx="134.24" ry="137.06"/><ellipse class="cls-2" cx="261.4" cy="266.62" rx="227.17" ry="231.95"/><ellipse class="cls-3" cx="200.59" cy="149.48" rx="30.4" ry="31.04"/><ellipse class="cls-3" cx="322.21" cy="381.43" rx="30.4" ry="31.04"/><ellipse class="cls-4" cx="198.3" cy="44.04" rx="30.4" ry="31.04"/><ellipse class="cls-4" cx="96.18" cy="108.47" rx="30.4" ry="31.04"/><ellipse class="cls-4" cx="467.92" cy="171.73" rx="30.4" ry="31.04"/><ellipse class="cls-4" cx="43.4" cy="340.43" rx="30.4" ry="31.04"/><ellipse class="cls-4" cx="115.69" cy="444.69" rx="30.4" ry="31.04"/><ellipse class="cls-4" cx="373.84" cy="465.94" rx="30.4" ry="31.04"/><ellipse class="cls-5" cx="260.87" cy="267.08" rx="45.45" ry="46.4"/><polygon class="cls-6" points="270.05 218.46 251.68 218.46 254.19 203.46 267.55 203.46 270.05 218.46"/><polygon class="cls-6" points="270.05 314 251.68 314 254.19 329.02 267.55 329.02 270.05 314"/><polygon class="cls-6" points="308.66 257.7 308.66 276.46 323.36 273.91 323.36 260.26 308.66 257.7"/><polygon class="cls-6" points="214.42 257.7 214.42 276.46 199.72 273.91 199.72 260.26 214.42 257.7"/><polygon class="cls-6" points="234.48 226.3 221.48 239.57 212.87 227.15 222.31 217.5 234.48 226.3"/><polygon class="cls-6" points="300.64 293.86 287.65 307.12 299.81 315.93 309.27 306.29 300.64 293.86"/><polygon class="cls-6" points="288.95 226.18 301.94 239.46 310.56 227.03 301.12 217.39 288.95 226.18"/><polygon class="cls-6" points="222.31 294.22 235.31 307.48 223.14 316.29 213.69 306.65 222.31 294.22"/><ellipse class="cls-7" cx="260.95" cy="267.08" rx="32.58" ry="33.27"/></svg>