<svg id="Layer_1" data-name="Layer 1" xmlns="http://www.w3.org/2000/svg" viewBox="0 0 426.22 490.68"><defs><style>.cls-1{fill:#1d71b8;}.cls-2{fill:#2aaee4;}.cls-3{fill:#78b7e5;}</style></defs><path class="cls-1" d="M425.28,398.46A227.79,227.79,0,0,1,404,417.19l4.56-3.52a221.36,221.36,0,0,1-48.84,28.56l5.37-2.26a221,221,0,0,1-43.51,13.26q-6.33,1.23-12.73,2.1l6-.81a222.66,222.66,0,0,1-46.16,1.37q-6.52-.5-13-1.37l6,.81a221,221,0,0,1-44.06-10.65c-4.11-1.45-8.16-3-12.17-4.71l5.37,2.26A221.36,221.36,0,0,1,162,413.67l4.56,3.52a226.52,226.52,0,0,1-21.26-18.73,16.78,16.78,0,0,0-7.25-4.65,16.88,16.88,0,0,0-8.66-1.94l-6,.8a17,17,0,0,0-7.65,4,11.31,11.31,0,0,0-4,4,16.94,16.94,0,0,0-4,7.65,24,24,0,0,0,2.27,17.33l.28.53L145.53,399a227.79,227.79,0,0,1-18.73-21.26l3.52,4.55a221.13,221.13,0,0,1-28.56-48.84l2.26,5.38A221.45,221.45,0,0,1,90.76,295.3q-1.23-6.33-2.1-12.73l.81,6A222.56,222.56,0,0,1,88.1,242.4q.5-6.54,1.37-13l-.81,6a221.28,221.28,0,0,1,10.65-44.07c1.45-4.1,3-8.16,4.71-12.17l-2.26,5.38a221.13,221.13,0,0,1,28.56-48.84l-3.52,4.55a278,278,0,0,1,18.73-21.26c1.54-1.62,3-3.32,4.53-5,2.89-3.07,6.06-5.92,9.19-8.73q5.94-5.31,12.25-10.2L167,98.58A221.13,221.13,0,0,1,215.79,70l-5.38,2.26A222.13,222.13,0,0,1,253.92,59q6.33-1.23,12.73-2.1l-6,.81a222.56,222.56,0,0,1,46.15-1.37q6.54.49,13,1.37l-6-.81a221.28,221.28,0,0,1,44.07,10.65c4.1,1.45,8.16,3,12.17,4.71L364.73,70a221.13,221.13,0,0,1,48.84,28.56L409,95.06a227.79,227.79,0,0,1,21.26,18.73,23.21,23.21,0,0,0,15.91,6.59,25.06,25.06,0,0,0,15.91-6.59c3.93-4.29,6.86-9.92,6.59-15.91A23.45,23.45,0,0,0,462.1,82a260.86,260.86,0,0,0-31.68-26.63,220.36,220.36,0,0,0-30.05-18.22,238.91,238.91,0,0,0-70.21-23,261,261,0,0,0-39.46-3.42A261,261,0,0,0,251.23,14c-24.48,3.69-48.13,11.7-70.28,22.7a219.1,219.1,0,0,0-30.11,18.08,257.79,257.79,0,0,0-31.75,26.5c-2.21,2.19-4.19,4.6-6.37,6.81q-6.39,6.48-12.25,13.45A258,258,0,0,0,76.62,134.7a255.6,255.6,0,0,0-17.51,36.14,220.78,220.78,0,0,0-10.25,32.75,242.48,242.48,0,0,0-5.66,73.24c2,24.64,7.18,49,16.58,71.89a256.46,256.46,0,0,0,17.77,36,257.37,257.37,0,0,0,24.12,33q5.76,6.75,12,13a16.93,16.93,0,0,0,7.24,4.65,16.9,16.9,0,0,0,8.67,1.94l6-.8a16.94,16.94,0,0,0,7.65-4,11.33,11.33,0,0,0,4-4,16.94,16.94,0,0,0,4-7.65,24,24,0,0,0-2.27-17.34l-.29-.52-35.33,27.27a261.59,261.59,0,0,0,31.12,26.23,219.43,219.43,0,0,0,29.41,18,239.48,239.48,0,0,0,68.6,23.12c23.82,4,47.88,5.11,71.86,1.94a258.8,258.8,0,0,0,38.12-7.53,257.72,257.72,0,0,0,36.61-13.93,239.34,239.34,0,0,0,61.53-41.67q3.27-3,6.42-6.17a23.17,23.17,0,0,0,6.59-15.91,24.92,24.92,0,0,0-6.59-15.91c-4.28-3.94-9.91-6.86-15.91-6.59a23.52,23.52,0,0,0-15.91,6.59Z" transform="translate(-42.48 -10.74)"/><path class="cls-2" d="M386.35,356A163.63,163.63,0,0,1,371,369.58l4.55-3.51a160.77,160.77,0,0,1-35.46,20.75l5.38-2.27a161.44,161.44,0,0,1-41,11.18l6-.8a162.14,162.14,0,0,1-42.56,0l6,.8a161.26,161.26,0,0,1-41-11.18l5.38,2.27a161.07,161.07,0,0,1-35.47-20.75l4.56,3.51A162.38,162.38,0,0,1,191.86,356a17,17,0,0,0-7.25-4.65,17,17,0,0,0-8.66-1.94l-6,.81a16.93,16.93,0,0,0-7.65,4,11.31,11.31,0,0,0-4,4,16.94,16.94,0,0,0-4,7.65l-.8,6a22.34,22.34,0,0,0,3.07,11.36l.2.38,35.34-27.27A166.54,166.54,0,0,1,178.5,341l3.52,4.55a160.38,160.38,0,0,1-20.75-35.46l2.27,5.37a160.87,160.87,0,0,1-11.19-41l.81,6a162.14,162.14,0,0,1,0-42.56l-.81,6a160.87,160.87,0,0,1,11.19-41l-2.27,5.37A160.61,160.61,0,0,1,182,172.74l-3.52,4.56a162.37,162.37,0,0,1,12-13.81c1.4-1.44,3-2.58,4.43-4q3.27-3.24,6.73-6.29,3.9-3.43,8-6.62l-4.55,3.52a160.77,160.77,0,0,1,35.46-20.75l-5.38,2.27a161.44,161.44,0,0,1,41-11.18l-6,.8a162.14,162.14,0,0,1,42.56,0l-6-.8a161.26,161.26,0,0,1,41,11.18l-5.37-2.27a161,161,0,0,1,35.46,20.75l-4.56-3.52a165.3,165.3,0,0,1,15.4,13.57,25.06,25.06,0,0,0,15.9,6.59,25.06,25.06,0,0,0,15.91-6.59c3.94-4.29,6.86-9.92,6.59-15.91a23.39,23.39,0,0,0-6.59-15.91,197.92,197.92,0,0,0-24-20.11A158.57,158.57,0,0,0,374.89,95,178.82,178.82,0,0,0,323,77.69a201.87,201.87,0,0,0-30.15-2.84,201,201,0,0,0-30,2.4c-18.16,2.59-35.56,8.5-52.06,16.44a158,158,0,0,0-21.75,12.68A197.88,197.88,0,0,0,164.83,126c-2.38,2.28-4.9,4.34-7.18,6.72q-4.5,4.71-8.6,9.76a195.7,195.7,0,0,0-17.77,25.21,196.17,196.17,0,0,0-12.91,27.54A159.37,159.37,0,0,0,111.23,219a181.27,181.27,0,0,0-3.87,54.26c1.61,18.27,5.34,36.26,12.38,53.23a195.22,195.22,0,0,0,13.45,27.34,197.35,197.35,0,0,0,18.42,25.08q4.14,4.83,8.63,9.33a16.93,16.93,0,0,0,7.24,4.65,16.92,16.92,0,0,0,8.67,1.94l6-.8a17,17,0,0,0,7.66-4,11.31,11.31,0,0,0,4-4,16.94,16.94,0,0,0,4-7.65l.8-6A22.34,22.34,0,0,0,195.58,361l-.21-.37L160,387.84a200,200,0,0,0,23.84,20,159.49,159.49,0,0,0,21.38,13.09,179.5,179.5,0,0,0,51.13,17.36c17.92,3,35.94,4,54,1.63a197,197,0,0,0,29.3-5.71,198.84,198.84,0,0,0,27.89-10.67,160.54,160.54,0,0,0,21.75-12.21,199.82,199.82,0,0,0,24.18-19c1.59-1.47,3.14-3,4.67-4.49a25.06,25.06,0,0,0,6.59-15.91A25.06,25.06,0,0,0,418.17,356c-4.29-3.93-9.92-6.86-15.91-6.59A23.5,23.5,0,0,0,386.35,356Z" transform="translate(-42.48 -10.74)"/><circle class="cls-3" cx="245.89" cy="248.44" r="114.08"/></svg>