<svg id="Layer_1" data-name="Layer 1" xmlns="http://www.w3.org/2000/svg" viewBox="0 0 438.22 504.71"><defs><style>.cls-1{fill:#e51d84;}.cls-2{fill:#2aaee4;}.cls-3{fill:#8fc036;}</style></defs><path class="cls-1" d="M401.94,403.44A234,234,0,0,1,380,422.76l4.55-3.52a228.38,228.38,0,0,1-50.38,29.47l5.38-2.27a228.26,228.26,0,0,1-44.88,13.68q-6.53,1.28-13.13,2.16l6-.8a229.58,229.58,0,0,1-47.6,1.41c-4.49-.34-9-.81-13.44-1.41l6,.8a227.54,227.54,0,0,1-45.45-11c-4.24-1.49-8.42-3.12-12.55-4.86l5.37,2.27a228.38,228.38,0,0,1-50.38-29.47l4.56,3.52a234,234,0,0,1-21.93-19.32c-3.91-3.9-10.3-6.84-15.91-6.59l-6,.81a16.92,16.92,0,0,0-7.66,4,11.31,11.31,0,0,0-4,4,16.94,16.94,0,0,0-4,7.65,24,24,0,0,0,2.27,17.34l.29.54L112.38,404a234,234,0,0,1-19.32-21.93l3.52,4.55a228.27,228.27,0,0,1-29.46-50.37l2.27,5.37A227.62,227.62,0,0,1,55.7,296.72q-1.26-6.53-2.16-13.13l.8,6A229.69,229.69,0,0,1,52.94,242c.33-4.49.81-9,1.4-13.44l-.8,6a228.4,228.4,0,0,1,11-45.45q2.25-6.34,4.87-12.55l-2.27,5.37A228.34,228.34,0,0,1,96.58,131.5l-3.52,4.56a283.32,283.32,0,0,1,19.32-21.93c1.59-1.67,3.09-3.43,4.67-5.11,3-3.16,6.25-6.1,9.48-9q6.14-5.49,12.64-10.52L134.62,93A228.08,228.08,0,0,1,185,63.55l-5.37,2.27a228.38,228.38,0,0,1,44.87-13.68Q231,50.86,237.62,50l-6,.8a229.68,229.68,0,0,1,47.61-1.41q6.74.51,13.44,1.41l-6-.8a228.37,228.37,0,0,1,45.45,11q6.34,2.25,12.55,4.87l-5.37-2.27A228.08,228.08,0,0,1,389.71,93l-4.55-3.52a232.52,232.52,0,0,1,21.93,19.32A23.21,23.21,0,0,0,423,115.41c5.52,0,12.11-2.45,15.91-6.59s6.86-9.92,6.59-15.91A23.43,23.43,0,0,0,438.91,77a267.23,267.23,0,0,0-32.53-27.36,226.39,226.39,0,0,0-31-18.79c-22.74-11.4-47.09-19.72-72.25-23.62a268.32,268.32,0,0,0-40.52-3.5,268.38,268.38,0,0,0-40.52,3.36c-25.19,3.81-49.53,12-72.32,23.35a226,226,0,0,0-31.05,18.65A265.22,265.22,0,0,0,86.11,76.31c-2.28,2.26-4.32,4.75-6.58,7Q72.94,90,66.91,97.21a263.35,263.35,0,0,0-24.49,34,261.77,261.77,0,0,0-18,37.11,226.82,226.82,0,0,0-10.57,33.78A249,249,0,0,0,8,277.49c2.05,25.35,7.4,50.4,17.07,74a262.21,262.21,0,0,0,18.27,37,264.28,264.28,0,0,0,24.76,33.9q5.94,7,12.42,13.44c3.9,3.9,10.31,6.84,15.91,6.59l6-.8a16.94,16.94,0,0,0,7.65-4,11.25,11.25,0,0,0,4-4,16.94,16.94,0,0,0,4-7.65,24,24,0,0,0-2.27-17.34l-.29-.53L80.27,435.26a267.81,267.81,0,0,0,32,26.94,226.2,226.2,0,0,0,30.33,18.59,246.52,246.52,0,0,0,70.59,23.77c24.51,4.12,49.27,5.24,73.94,2a265.4,265.4,0,0,0,39.12-7.75,264.6,264.6,0,0,0,37.6-14.29,246.52,246.52,0,0,0,63.32-42.87q3.38-3.12,6.63-6.37a23.19,23.19,0,0,0,6.59-15.91c0-5.52-2.45-12.11-6.59-15.91s-9.92-6.86-15.91-6.59a23.5,23.5,0,0,0-15.91,6.59Z" transform="translate(-7.3 -3.73)"/><path class="cls-2" d="M361.78,359.67a169.84,169.84,0,0,1-15.93,14l4.55-3.52a165.91,165.91,0,0,1-36.67,21.43l5.38-2.27a166.37,166.37,0,0,1-42,11.45l6-.81a166.41,166.41,0,0,1-34.49,1q-4.89-.36-9.75-1l6,.81a166.18,166.18,0,0,1-42-11.45l5.37,2.27a165.91,165.91,0,0,1-36.67-21.43l4.56,3.52a171.23,171.23,0,0,1-15.94-14,16.87,16.87,0,0,0-7.24-4.65,16.9,16.9,0,0,0-8.67-1.94l-6,.8a16.94,16.94,0,0,0-7.65,4,11.33,11.33,0,0,0-4,4,16.93,16.93,0,0,0-4,7.65l-.81,6a22.45,22.45,0,0,0,3.08,11.36l.21.39,35.34-27.27a169.77,169.77,0,0,1-14-15.93l3.52,4.55A165.48,165.48,0,0,1,128.44,312l2.27,5.38a166.37,166.37,0,0,1-11.45-42l.8,6a167.1,167.1,0,0,1-1-34.49q.38-4.89,1-9.75l-.8,6a166.18,166.18,0,0,1,11.45-42l-2.27,5.37a165.48,165.48,0,0,1,21.42-36.67l-3.52,4.56A168.65,168.65,0,0,1,158.81,160c1.38-1.42,3-2.52,4.37-3.9q3.47-3.44,7.13-6.67,4-3.56,8.28-6.84L174,146.14a165.91,165.91,0,0,1,36.67-21.43L205.33,127a166.18,166.18,0,0,1,42-11.45l-6,.81a166.41,166.41,0,0,1,34.49-1q4.89.36,9.75,1l-6-.81a166.37,166.37,0,0,1,42,11.45l-5.38-2.27a165.91,165.91,0,0,1,36.67,21.43l-4.55-3.52a169.84,169.84,0,0,1,15.93,14,25.06,25.06,0,0,0,15.91,6.59,25.06,25.06,0,0,0,15.91-6.59c3.94-4.29,6.86-9.92,6.59-15.91a23.45,23.45,0,0,0-6.59-15.91A204.74,204.74,0,0,0,371.27,104a165,165,0,0,0-22.15-13.47,184,184,0,0,0-53.47-17.83A207.11,207.11,0,0,0,265,69.86a205.39,205.39,0,0,0-31,2.47c-18.66,2.67-36.55,8.74-53.51,16.92A164.49,164.49,0,0,0,158,102.38a203.65,203.65,0,0,0-24.79,20.12c-2.39,2.3-4.94,4.37-7.24,6.77q-4.69,4.89-9,10.16a201.88,201.88,0,0,0-18.17,25.78,202.14,202.14,0,0,0-13.28,28.31,164.6,164.6,0,0,0-7.35,24.39,205.26,205.26,0,0,0-4.26,30.52,164.68,164.68,0,0,0,.29,25.42c1.65,18.77,5.51,37.26,12.75,54.69a200.84,200.84,0,0,0,13.85,28.11,203.09,203.09,0,0,0,18.74,25.5c2.86,3.36,5.87,6.6,9,9.73a16.93,16.93,0,0,0,7.24,4.65,16.9,16.9,0,0,0,8.67,1.94l6-.8a16.94,16.94,0,0,0,7.65-4,11.33,11.33,0,0,0,4-4,16.83,16.83,0,0,0,4-7.65l.81-6a22.54,22.54,0,0,0-3.07-11.36l-.22-.39-35.34,27.27a205.31,205.31,0,0,0,24.53,20.58,164.47,164.47,0,0,0,21.82,13.37,183.89,183.89,0,0,0,52.73,17.91c18.36,3.1,36.84,4.11,55.33,1.68A202.15,202.15,0,0,0,313,439.12a203.32,203.32,0,0,0,28.53-10.92,164.89,164.89,0,0,0,22.35-12.54A203.33,203.33,0,0,0,388.8,396.1q2.44-2.25,4.8-4.61a25.06,25.06,0,0,0,6.59-15.91,25.06,25.06,0,0,0-6.59-15.91c-4.29-3.94-9.92-6.86-15.91-6.59a23.5,23.5,0,0,0-15.91,6.59Z" transform="translate(-7.3 -3.73)"/><circle class="cls-3" cx="252.91" cy="255.55" r="117.66"/></svg>