<svg xmlns="http://www.w3.org/2000/svg" xmlns:xlink="http://www.w3.org/1999/xlink" width="1186" height="2403" viewBox="0 0 1186 2403">
  <defs>
    <linearGradient id="linear-gradient" x1="0.5" y1="1" x2="0.5" gradientUnits="objectBoundingBox">
      <stop offset="0" stop-color="gray" stop-opacity="0.251"/>
      <stop offset="0.54" stop-color="gray" stop-opacity="0.122"/>
      <stop offset="1" stop-color="gray" stop-opacity="0.102"/>
    </linearGradient>
    <linearGradient id="linear-gradient-2" x1="0.5" x2="0.5" y2="0" xlink:href="#linear-gradient"/>
    <linearGradient id="linear-gradient-3" x1="0.5" x2="0.5" y2="0" xlink:href="#linear-gradient"/>
    <linearGradient id="linear-gradient-4" x1="1.096" x2="1.096" y2="0" xlink:href="#linear-gradient"/>
    <clipPath id="clip-Landing-Page_3">
      <rect width="1186" height="2403"/>
    </clipPath>
  </defs>
  <g id="Landing-Page_3" data-name="Landing-Page – 3" clip-path="url(#clip-Landing-Page_3)">
    <rect width="1186" height="2403" fill="#fff"/>
    <g id="Ellipse_147" data-name="Ellipse 147" transform="translate(354.418 -61.771) rotate(56)" fill="none" stroke="#707070" stroke-width="1" stroke-dasharray="30" opacity="0.52">
      <ellipse cx="323" cy="263" rx="323" ry="263" stroke="none"/>
      <ellipse cx="323" cy="263" rx="322.5" ry="262.5" fill="none"/>
    </g>
    <path id="Path_544" data-name="Path 544" d="M-38.248,397.7c187.756,52.694,144.774,459.773,326.511,43.9s315.73,106.279,315.73,106.279,137.073,549.879,209.46,39.277S648.658-92.112,503.884,46.513,163.343,99.527,27.81,187.323-226,345-38.248,397.7Z" transform="matrix(0.545, -0.839, 0.839, 0.545, -436.063, 1928.4)" fill="#bcd3e7"/>
    <path id="Path_541" data-name="Path 541" d="M560.98-19.664S433.241-125.51,281.944-96.5,19.516-31.164-44.21,96.363-14.58,255.7,8.1,427.954-68.707,636.972,46.526,785.369s555.429-14.294,555.429-14.294Z" transform="translate(496.615 561.517) rotate(-87)" fill="#bcd3e7"/>
    <path id="Path_545" data-name="Path 545" d="M91.657,382.855c176.776-49.613,136.307-432.886,307.417-41.331S696.34,241.46,696.34,241.46,825.4-276.262,893.551,204.48,738.392,844.019,602.085,713.5,281.46,663.587,153.853,580.926-85.119,432.468,91.657,382.855Z" transform="translate(542.869 2130.19) rotate(-75)" fill="#bcd3e7"/>
    <path id="Path_542" data-name="Path 542" d="M2454.662,1498.815s46.124-185.871,195.6-54.8,121.208,59.776,161.068-5.511,140.616-2.362,142.1,60.271,56.216,147.349-68.1,125.311-295.988,48.715-364.065,0S2454.662,1498.815,2454.662,1498.815Z" transform="translate(1800.772 -2350.172) rotate(95)" fill="#bcd3e7"/>
    <g id="Ellipse_148" data-name="Ellipse 148" transform="translate(1631.653 267) rotate(71)" fill="none" stroke="#707070" stroke-width="1" stroke-dasharray="30">
      <ellipse cx="323" cy="263" rx="323" ry="263" stroke="none"/>
      <ellipse cx="323" cy="263" rx="322.5" ry="262.5" fill="none"/>
    </g>
    <g id="Ellipse_145" data-name="Ellipse 145" transform="translate(1432.312 294.136) rotate(124)" fill="none" stroke="#707070" stroke-width="1" stroke-dasharray="30">
      <ellipse cx="323" cy="263" rx="323" ry="263" stroke="none"/>
      <ellipse cx="323" cy="263" rx="322.5" ry="262.5" fill="none"/>
    </g>
    <g id="Ellipse_146" data-name="Ellipse 146" transform="translate(652 83.4) rotate(-13)" fill="none" stroke="#707070" stroke-width="1" stroke-dasharray="30">
      <ellipse cx="323" cy="263" rx="323" ry="263" stroke="none"/>
      <ellipse cx="323" cy="263" rx="322.5" ry="262.5" fill="none"/>
    </g>
    <path id="Path_2" data-name="Path 2" d="M560.98-19.664S433.241-125.51,281.944-96.5,19.516-31.164-44.21,96.363-14.58,255.7,8.1,427.954-68.707,636.972,46.526,785.369s555.429-14.294,555.429-14.294Z" transform="translate(521.615 547.518) rotate(-87)" fill="#d9e3f2" opacity="0.79"/>
    <g id="undraw_team_spirit_hrr4" transform="translate(518.475 98.979)">
      <path id="Path_291" data-name="Path 291" d="M43.44,426.65c9.744,37.973,30.373,70.8,62.976,86.708,67.783,33.069,220.558,16.012,334.6-3.562,59-10.128,110.829-38.054,148.5-77.408Z" transform="translate(-36.799 -206.599)" fill="#2e7eb7" opacity="0.25"/>
      <path id="Path_292" data-name="Path 292" d="M654.815,61.455h-62.57a4.953,4.953,0,1,1,0-9.863h10.826a5.2,5.2,0,0,1-5.413-4.931,5.2,5.2,0,0,1,5.413-4.926h-7.725a5.2,5.2,0,0,1-5.413-4.931,5.2,5.2,0,0,1,5.413-4.931H628a92.524,92.524,0,0,0-25.474-6.4c-89.052-10.431-120.848-3.535-132.081,3.562a131.058,131.058,0,0,1-45.768,18.291c-54.943,10.334-157.7,22.768-250.829-3.984-46.288-13.289-80.688,9.2-101.312,46.721H665.68c-.774-10.913-3.091-20.992-7.346-29.81A5.673,5.673,0,0,1,654.815,61.455Z" transform="translate(-50.146 -20.14)" fill="#2e7eb7" opacity="0.25"/>
      <path id="Path_293" data-name="Path 293" d="M32.491,280.23a229.485,229.485,0,0,0,2.431,66.251L584.29,364.8a234.474,234.474,0,0,0,38.168-53.049Zm217.267,47.262H238.932a4.95,4.95,0,1,1,0,9.857H176.389a4.95,4.95,0,1,1,0-9.857h10.826a4.953,4.953,0,1,1,0-9.863H179.48a4.95,4.95,0,1,1,0-9.857H242.05a4.95,4.95,0,1,1,0,9.857h7.708a4.953,4.953,0,1,1,0,9.863Z" transform="translate(-31.16 -139.438)" fill="#2e7eb7" opacity="0.25"/>
      <path id="Path_294" data-name="Path 294" d="M647.928,149.94,48.152,163.24A201.449,201.449,0,0,0,33.78,219.71H637.416a215.982,215.982,0,0,0,8.715-35.992A155.912,155.912,0,0,0,647.928,149.94ZM155.559,193.521H144.733a4.953,4.953,0,1,1,0,9.863H82.168a4.953,4.953,0,1,1,0-9.863H92.994a4.95,4.95,0,1,1,0-9.857H85.259a4.953,4.953,0,1,1,0-9.863h62.571a4.953,4.953,0,1,1,0,9.863h7.73a4.95,4.95,0,1,1,0,9.857Z" transform="translate(-32.368 -79.676)" fill="#2e7eb7" opacity="0.25"/>
      <ellipse id="Ellipse_118" data-name="Ellipse 118" cx="40.723" cy="9.143" rx="40.723" ry="9.143" transform="translate(318.888 396.812)" fill="#2e7eb7" opacity="0.1"/>
      <ellipse id="Ellipse_119" data-name="Ellipse 119" cx="73.467" cy="6.03" rx="73.467" ry="6.03" transform="translate(380.771 428.961)" fill="#2e7eb7" opacity="0.1"/>
      <ellipse id="Ellipse_120" data-name="Ellipse 120" cx="73.467" cy="9.143" rx="73.467" ry="9.143" transform="translate(85.792 416.705)" fill="#2e7eb7" opacity="0.1"/>
      <ellipse id="Ellipse_121" data-name="Ellipse 121" cx="55.279" cy="9.143" rx="55.279" ry="9.143" transform="translate(215.995 370.937)" fill="#2e7eb7" opacity="0.1"/>
      <path id="Path_295" data-name="Path 295" d="M518.228,237.377c-1.169-7.871-8.32-26.237-8.32-26.237h0q-.187-.812-.422-1.624c-5.072-17.43-12.093-18.946-12.093-18.946l-25.149-5.413a1.949,1.949,0,0,1,.541.5,3.489,3.489,0,0,0-.4.06,9.852,9.852,0,0,1-2.2-4.764c-.049-.26-.092-.541-.124-.807a17.69,17.69,0,0,0-1.44-26.595c-.265-.206-.541-.406-.807-.6,1.185-1.261,1.223-3.015.336-4.769-1.981-4.114-6.29-6.718-10.718-7.99a18.17,18.17,0,0,0-10.4-.222,37.586,37.586,0,0,0-5.446,2.528c-3.34,1.667-7.037,2.988-9.533,5.733a2.8,2.8,0,0,0-.953,2.3,6.208,6.208,0,0,0,.947,1.673,5.048,5.048,0,0,1,.049,4.19,40.6,40.6,0,0,0-1.554,4.027,4.21,4.21,0,0,0,.839,4.044,17.816,17.816,0,0,0,1.57,1.083,8.231,8.231,0,0,1,1.5,1.683q1.494,2,2.977,4.022a41.434,41.434,0,0,1,3.73,5.668,27.617,27.617,0,0,0,2.306,4.331,6.421,6.421,0,0,0,.991,1.039l-.292-.114a4.509,4.509,0,0,0,3.307,1.348h.152a.909.909,0,0,0,.606-.249v.541c.06,1.932.049,3.989-.087,5.922l-.233-.119a2.03,2.03,0,0,0-2.165.227l-23.152,18.578s-5.034,6.886-4.331,18.773l-4.06,17.825s-5.072,15.124-1.169,25.924,6.166,16.976,6.166,16.976,1.559,12.272,3.9,13.273,3.356,1.543,3.356,1.543l.466,2.934h0s.157.287.433.769c1.705,2.966,8.022,13.435,11.692,12.315a46.923,46.923,0,0,1,.6,8.6l3.632,24.386s2.533,6.631,2.376,10.106,2.956,8.428,2.956,8.428a16.1,16.1,0,0,0-1.559,11.341c1.483,6.5,3.356,36.42,3.356,36.42l2.707,7.254-.076,8.5a8.121,8.121,0,0,1-1.678,3.789C449.6,439.5,449.73,441.7,445.5,444.3s-6.907,3.589-6.907,7.037a9.048,9.048,0,0,1-.13,1.434c-.39,2.533-1.148,3.908,6.626,4.645a20.5,20.5,0,0,0,15.222-5.088s1.342-2.436,7.665-3.421c0,0,2.165-.114,2.279-2.025.043-.66.032-1.922,0-3.313-.1-2.647-.357-5.738-.693-5.889-.422-.19-1.158-2.853-1.413-3.816h1.759s1.624-12.272,0-20.218a32.8,32.8,0,0,1-.157-13.582l-.314-20.987s-2.165-2.317-.466-6.409,0-24.305,0-24.305.628-7.254,2.42-8.953.087-10.626,0-11.092l3.194,10.713s1.4,21.3,4.374,25.149l.855,9.646s6.084,8.878,4.915,13.657,1.25,22.069,1.25,22.069v17.674s-2.734,7.1,1.083,9.646l1.624-.065c-.541.5-.958,1.261-1.591,1.916-.731.752-1.148,3.616-1.38,6.079-.195,2.084-.26,3.876-.26,3.876a6.382,6.382,0,0,0,4.682,2.777c3.058.179,13.138,7.844,13.138,7.844s9.955,0,12.531-.541l.152-.038a3.383,3.383,0,0,0,1.943-1.586,4.059,4.059,0,0,0,.466-2.918c-.319-1.521-1.526-3.188-4.2-4.607-6.653-3.508-7.643-6.794-7.643-6.794l-4.368-6.555h.623a28.041,28.041,0,0,1,4.368-14.74l-.309-34.336s1.949-11.806-1.4-18.215c0,0-.276-6.788,1.965-8.872s-2.983-23.147-2.983-23.147-1.083-11.308-2.355-21.626h0c5.267,5,10.729-12.992,11.649-16.191h.135l-.06-.233c.038-.152.06-.227.06-.227h0s-1.169-4.157-.314-3.313,2.966-2.317,2.966-2.317-.314-17.208,3.356-25.88S518.228,237.377,518.228,237.377Zm-15.7,10.951.027-.049c.541,10.507-.1,32.928-.1,32.928s-.725,2.874-1.5,6.258l-.541-21.3h0l-.541-20.067Zm-67.182-7.243s2.652,33.177,0,37.962a25.065,25.065,0,0,0-1.911,6.555c-.877-2.3-2.734-7.7-2.068-10.566.861-3.7-1.716-13.43-1.716-13.657s-.233-5.413,1.624-9.376.639-5.678.639-5.678S433.475,239.829,435.348,241.085Z" transform="translate(-205.647 -74.802)" fill="url(#linear-gradient)"/>
      <path id="Path_296" data-name="Path 296" d="M455.57,451.388c-2.311,10.16-11.5-5.2-13.6-8.888-.271-.482-.422-.763-.422-.763l1-4.672,5.267-2.165a14.714,14.714,0,0,1,2.36,1.537A14.229,14.229,0,0,1,455.57,451.388Z" transform="translate(-219.406 -210.383)" fill="#d38884"/>
      <path id="Path_297" data-name="Path 297" d="M586.344,432.444a.711.711,0,0,1-.059.227,1.153,1.153,0,0,1-.07.244c-.9,3.172-6.263,21.03-11.438,16.072-5.662-5.413-2.912-17.928-2.912-17.928h.038l11.909-1.218,2.36,2.425h0Z" transform="translate(-278.873 -208.062)" fill="#d38884"/>
      <path id="Path_298" data-name="Path 298" d="M524.725,521.491l.3,34.1a27.97,27.97,0,0,0-4.287,14.615l-15.4.606c-3.757-2.528-1.083-9.57-1.083-9.57v-17.56s-2.376-17.154-1.229-21.907-4.823-13.533-4.823-13.533l-.844-9.576c-2.912-3.827-4.293-24.965-4.293-24.965l-3.123-10.675c.087.46,1.711,9.37,0,11.01s-2.376,8.883-2.376,8.883,1.684,20.072,0,24.126.455,6.36.455,6.36l.309,20.835a32.58,32.58,0,0,0,.152,13.479c1.608,7.887,0,20.072,0,20.072H471.974l.076-8.5-2.674-7.2s-1.84-29.718-3.3-36.154a16.153,16.153,0,0,1,1.526-11.259s-3.058-4.9-2.907-8.347-2.36-10.025-2.36-10.025l-3.562-24.2a47.017,47.017,0,0,0-1.765-13.787c-2.068-6.9-5.132-15.936-5.132-15.936l3.459.309,17.452,1.554s42.434-2.853,44.334-.482a7.959,7.959,0,0,1,.8,2.474c1.906,8.558,4.423,35.369,4.423,35.369s5.132,20.911,2.929,22.979-1.933,8.8-1.933,8.8C526.646,509.745,524.725,521.491,524.725,521.491Z" transform="translate(-224.144 -209.227)" fill="#444053"/>
      <path id="Path_299" data-name="Path 299" d="M493.56,692.684c-.119,1.9-2.236,2.014-2.236,2.014-6.2.974-7.524,3.389-7.524,3.389a19.925,19.925,0,0,1-14.935,5.056c-7.633-.736-6.891-2.095-6.5-4.612a9.531,9.531,0,0,0,.124-1.418c0-3.448,2.642-4.428,6.777-7.037s4.022-4.769,5.743-6.664,1.9-5.57,1.9-5.57c1.949-3.394,6.891.541,6.891.541.233,1.2,7.578,1.034,7.578,1.034s.974,3.908,1.478,4.136c.33.152.579,3.215.677,5.846C493.592,690.778,493.6,692.029,493.56,692.684Z" transform="translate(-228.852 -321.183)" fill="#b07473"/>
      <path id="Path_300" data-name="Path 300" d="M493.56,703.655c-.119,1.9-2.236,2.014-2.236,2.014-6.2.974-7.524,3.389-7.524,3.389a19.925,19.925,0,0,1-14.935,5.056c-7.633-.736-6.891-2.095-6.5-4.612,3.41.844,9.928,2.024,13.733-.043,5.289-2.869,9.083-4.872,9.083-4.872l8.358-4.206C493.592,701.749,493.6,703,493.56,703.655Z" transform="translate(-228.852 -332.155)" opacity="0.1"/>
      <path id="Path_301" data-name="Path 301" d="M579.593,704.766a3.3,3.3,0,0,1-1.905,1.575l-.146.038c-2.528.541-12.3.541-12.3.541s-9.879-7.638-12.867-7.811a6.284,6.284,0,0,1-4.6-2.761s.06-1.776.249-3.843c.233-2.447.639-5.289,1.359-6.036,1.321-1.38,1.624-3.248,4.6-2.068,0,0,4.244-7.481,9.246-1.7l5.175,7.849s.974,3.248,7.53,6.772c2.62,1.407,3.789,3.064,4.119,4.574A4.034,4.034,0,0,1,579.593,704.766Z" transform="translate(-268.132 -323.041)" fill="#b07473"/>
      <path id="Path_302" data-name="Path 302" d="M579.593,714.931c-.585.493-1.229,1.023-1.905,1.575l-.146.038c-2.528.541-12.3.541-12.3.541s-9.879-7.638-12.867-7.811a6.284,6.284,0,0,1-4.6-2.761s.06-1.776.249-3.843c3.042.909,7.649,2.517,8.883,4.249,1.895,2.636,7.649,6.317,7.649,6.317s10.729-1.034,15.492-1.175A4.034,4.034,0,0,1,579.593,714.931Z" transform="translate(-268.132 -333.205)" opacity="0.1"/>
      <path id="Path_303" data-name="Path 303" d="M505.175,216.306l-14.128,14.935s-17.122-1.261-14.134-6.317c1.521-2.577,1.759-7.968,1.624-12.656-.125-4.52-.59-8.369-.59-8.369s24.013-11.952,22.194-.807a18.342,18.342,0,0,0-.065,6.36C501.1,215.083,505.175,216.306,505.175,216.306Z" transform="translate(-235.466 -101.876)" fill="#d38884"/>
      <path id="Path_304" data-name="Path 304" d="M501.292,203.093a18.343,18.343,0,0,0-.065,6.36,17.625,17.625,0,0,1-12.569,5.245c-3.248,0-6.761-2.669-9.386-4.211-.125-4.525-.152-6.588-.152-6.588S503.133,191.947,501.292,203.093Z" transform="translate(-236.639 -101.876)" opacity="0.1"/>
      <path id="Path_305" data-name="Path 305" d="M499.43,179.181a17.7,17.7,0,1,1-6.658-13.825A17.7,17.7,0,0,1,499.43,179.181Z" transform="translate(-229.721 -84.974)" fill="#d38884"/>
      <path id="Path_306" data-name="Path 306" d="M520.2,436.486c-4.406,10.485-32.75,10.7-32.75,10.7V435.756l-1.716-.114c.742,3.275-1.039,11.259-1.039,11.259-22.4,3.161-27.861-9.6-27.861-9.6l.779-4.368,17.452,1.554s42.434-2.853,44.334-.482A7.965,7.965,0,0,1,520.2,436.486Z" transform="translate(-226.415 -209.479)" opacity="0.1"/>
      <path id="Path_307" data-name="Path 307" d="M487.447,351.617V340.184l-1.716-.108c.742,3.248-1.039,11.259-1.039,11.259-16.857,2.376-24.121-4.26-26.681-7.692a10.476,10.476,0,0,1-1.18-1.905l6.842-38.487,1.624-56.643,2.452-9.939.568-4.769v-.054h.06l1.743.747L480.55,237.1l11.849-8.948.173-.125.59-.449.98.785,2.436,1.954,7.811,50.445s13.533,38.839,16.066,54.516c.1.628.184,1.213.249,1.759C522.378,351.351,487.447,351.617,487.447,351.617Z" transform="translate(-226.415 -115.288)" fill="#2e7eb7"/>
      <circle id="Ellipse_123" data-name="Ellipse 123" cx="1.007" cy="1.007" r="1.007" transform="translate(254.395 121.922)" fill="#67647e"/>
      <circle id="Ellipse_124" data-name="Ellipse 124" cx="1.007" cy="1.007" r="1.007" transform="translate(254.861 131.113)" fill="#67647e"/>
      <circle id="Ellipse_125" data-name="Ellipse 125" cx="1.007" cy="1.007" r="1.007" transform="translate(255.868 145.994)" fill="#67647e"/>
      <circle id="Ellipse_126" data-name="Ellipse 126" cx="1.007" cy="1.007" r="1.007" transform="translate(257.53 162.023)" fill="#67647e"/>
      <circle id="Ellipse_127" data-name="Ellipse 127" cx="1.007" cy="1.007" r="1.007" transform="translate(258.536 177.071)" fill="#67647e"/>
      <circle id="Ellipse_128" data-name="Ellipse 128" cx="1.007" cy="1.007" r="1.007" transform="translate(259.543 193.099)" fill="#67647e"/>
      <circle id="Ellipse_129" data-name="Ellipse 129" cx="1.007" cy="1.007" r="1.007" transform="translate(259.143 208.954)" fill="#67647e"/>
      <path id="Path_308" data-name="Path 308" d="M468.983,312.327s-1.126,14.74-3.194,19.027S462.8,347.67,462.8,347.67l-4.8-.541a10.475,10.475,0,0,1-1.18-1.905l6.842-38.487,1.624-56.643,2.458-9.944.568-4.769.065-.027a1.938,1.938,0,0,1,1.711.027l.227.119q-.1.292-.195.6c-1.873,5.862-2.571,16.667-2.571,16.667s2.707,19.763,2.988,28.955S468.983,312.327,468.983,312.327Z" transform="translate(-226.41 -118.768)" opacity="0.1"/>
      <path id="Path_309" data-name="Path 309" d="M450.173,436.453a2.778,2.778,0,0,1-.184.357c-1.862,3.145-6.582,5.142-8.017,5.689-.271-.482-.422-.763-.422-.763l1-4.672,5.267-2.165a14.712,14.712,0,0,1,2.36,1.554Z" transform="translate(-219.406 -210.383)" opacity="0.1"/>
      <path id="Path_310" data-name="Path 310" d="M424.635,298.81l-4.368,2.6-3.979,17.7s-4.98,15.011-1.153,25.734,6.052,16.862,6.052,16.862,1.532,12.18,3.832,13.176,3.291,1.532,3.291,1.532l.46,2.912s6.236-2.117,8.439-5.846-1.624-12.992-1.624-12.992-3.291-7.892-2.447-11.568-1.689-13.327-1.689-13.533-.227-5.364,1.624-9.311.617-5.63.617-5.63l-1.153-11.259Z" transform="translate(-206.626 -147.96)" fill="#67647e"/>
      <path id="Path_311" data-name="Path 311" d="M550.461,339.308s-11.568,4.363-15.243.541-3.3-21.755-3.3-21.755S528.4,285,526.177,279.569s-1.083-44.658-1.083-44.658-1.494-5.072-2.8-6.4a1.42,1.42,0,0,0-.276-.222l.449.1,1.57.336,2.436,1.954,7.811,50.445s13.533,38.839,16.066,54.516Z" transform="translate(-256.316 -115.614)" opacity="0.1"/>
      <path id="Path_312" data-name="Path 312" d="M586.9,432.895h-.13c-1.456.189-14.307,1.743-14.361-.931a7.844,7.844,0,0,1,.049-.926l11.909-1.218,2.36,2.425h0c.043.157.076.292.108.4Z" transform="translate(-279.429 -208.053)" opacity="0.1"/>
      <path id="Path_313" data-name="Path 313" d="M574.569,266.07l8.444,4.406s7.037,18.221,8.163,26.032c0,0,5.213,20.927,1.624,29.534s-3.291,25.691-3.291,25.691-2.068,3.14-2.912,2.3.309,3.291.309,3.291-14.437,1.916-14.5-.92,3.313-16.391,3.313-16.391.92-32.246-.384-37.3S574.569,266.07,574.569,266.07Z" transform="translate(-279.429 -132.943)" fill="#67647e"/>
      <path id="Path_314" data-name="Path 314" d="M524.008,329.52s-4.753,11.638-6.285,12.407.309,3.827.309,3.827S526.688,333.656,524.008,329.52Z" transform="translate(-254.066 -162.046)" opacity="0.1"/>
      <path id="Path_315" data-name="Path 315" d="M518.328,254.095c.054-.222-5.667,5.613-7.2,6.5S516.72,260.536,518.328,254.095Z" transform="translate(-251.222 -127.447)" opacity="0.1"/>
      <path id="Path_316" data-name="Path 316" d="M488.669,327.82s-8.731,5.646-7.578,7.882S488.669,327.82,488.669,327.82Z" transform="translate(-237.495 -161.267)" opacity="0.1"/>
      <path id="Path_317" data-name="Path 317" d="M524.47,480.07a46.739,46.739,0,0,0,18.995,5.954Z" transform="translate(-257.44 -231.102)" opacity="0.1"/>
      <path id="Path_318" data-name="Path 318" d="M491.5,501.3s6.891,8.661,10.036,8.883S491.5,501.3,491.5,501.3Z" transform="translate(-242.317 -240.839)" opacity="0.1"/>
      <path id="Path_319" data-name="Path 319" d="M502.285,564c-.309.152-3.908,7.811-7.578,8.044S502.285,564,502.285,564Z" transform="translate(-243.45 -269.599)" opacity="0.1"/>
      <path id="Path_320" data-name="Path 320" d="M568.33,594.808s6.831-1.532,8.352,3.367C576.682,598.159,576.222,596.627,568.33,594.808Z" transform="translate(-277.558 -283.626)" opacity="0.1"/>
      <path id="Path_321" data-name="Path 321" d="M559.84,646.254s8.277-1.689,10.036.612S559.84,646.254,559.84,646.254Z" transform="translate(-273.664 -307.054)" opacity="0.1"/>
      <path id="Path_322" data-name="Path 322" d="M509.7,654c0,.076-8.423,1.689-8.12,2.761s8.986.92,9.294-.769A1.624,1.624,0,0,0,509.7,654Z" transform="translate(-246.939 -310.881)" opacity="0.1"/>
      <path id="Path_323" data-name="Path 323" d="M554.75,667.007s13.841-1.689,12.992,1.223S554.75,667.007,554.75,667.007Z" transform="translate(-271.329 -316.624)" opacity="0.1"/>
      <path id="Path_324" data-name="Path 324" d="M420.89,352.44c.076.227,9.116,1.456,10.339,4.368,0,0-8.883-4.141-10.285-4.141" transform="translate(-209.93 -172.559)" opacity="0.1"/>
      <path id="Path_325" data-name="Path 325" d="M438.449,396.16s-7.508,2.376-6.972,5.954S430.714,400.458,438.449,396.16Z" transform="translate(-214.773 -192.613)" opacity="0.1"/>
      <path id="Path_326" data-name="Path 326" d="M437.92,427.172s2.734-3.751,5.337-3.064S437.92,427.172,437.92,427.172Z" transform="translate(-217.741 -205.394)" opacity="0.1"/>
      <path id="Path_327" data-name="Path 327" d="M492.794,165.353a4.26,4.26,0,0,1-.877.655c-2.165,1.261-2.761,3.2-3.789,5.446-.958,2.052-2.014,4.222-3.946,5.386-2.5,1.5-5.781.953-8.374,2.263a6.5,6.5,0,0,0-3.464,6.4,18.477,18.477,0,0,0,.736,2.934,20.922,20.922,0,0,1,.79,6.371,1.1,1.1,0,0,1,0,.189,17.69,17.69,0,1,1,18.946-29.648Z" transform="translate(-229.743 -84.971)" opacity="0.1"/>
      <path id="Path_328" data-name="Path 328" d="M484.848,151.328c-1.943-4.082-6.171-6.669-10.518-7.93a17.665,17.665,0,0,0-10.215-.217,37.47,37.47,0,0,0-5.343,2.506c-3.28,1.656-6.886,2.966-9.354,5.689a2.851,2.851,0,0,0-.936,2.284,6.377,6.377,0,0,0,.926,1.656,5.027,5.027,0,0,1,.049,4.163,38.18,38.18,0,0,0-1.527,4,4.209,4.209,0,0,0,.823,4.011,15,15,0,0,0,1.548,1.083,8.147,8.147,0,0,1,1.467,1.667l2.923,3.995a40.513,40.513,0,0,1,3.659,5.624,26.8,26.8,0,0,0,2.263,4.293,4.9,4.9,0,0,0,4.1,2.192.8.8,0,0,0,.65-.309.855.855,0,0,0,.081-.406,20.775,20.775,0,0,0-.774-6.35,18.33,18.33,0,0,1-.736-2.934,6.523,6.523,0,0,1,3.464-6.4c2.6-1.31,5.884-.758,8.374-2.257,1.938-1.169,2.993-3.34,3.946-5.413,1.045-2.241,1.624-4.184,3.789-5.446S485.925,153.477,484.848,151.328Z" transform="translate(-222.257 -76.273)" fill="#585268"/>
      <path id="Path_329" data-name="Path 329" d="M501.63,693.06s2.707,3.448,2,5.413S501.63,693.06,501.63,693.06Z" transform="translate(-246.964 -328.797)" opacity="0.1"/>
      <path id="Path_330" data-name="Path 330" d="M569.28,704.994s.6-4.623,3.01-4.666,2.528-.249,4.368.46,3.567,1.808,3.015,1.97-3.167-2.642-5.852-1.207A19.33,19.33,0,0,0,569.28,704.994Z" transform="translate(-277.994 -332.103)" opacity="0.1"/>
      <path id="Path_331" data-name="Path 331" d="M480.729,246.535l7.578-5.31s-11.086-6.55-12.407-5.63-2.23,9.2-2.23,9.2Z" transform="translate(-234.139 -118.924)" opacity="0.1"/>
      <path id="Path_332" data-name="Path 332" d="M480.669,245.818l7.578-5.413s-11.086-6.55-12.407-5.63-2.23,9.657-2.23,9.657Z" transform="translate(-234.111 -118.548)" fill="#e1e7ef"/>
      <path id="Path_333" data-name="Path 333" d="M480.669,245.818l7.578-5.413s-11.086-6.55-12.407-5.63-2.23,9.657-2.23,9.657Z" transform="translate(-234.111 -118.548)" fill="#2e7eb7"/>
      <path id="Path_334" data-name="Path 334" d="M455.129,234.652l-.227-.114a1.965,1.965,0,0,0-2.127.222L430.039,253.2s-4.942,6.837-4.255,18.632l13.408,18.995s1.532-6.431,3.367-5.207c0,0,2.6,32.939,0,37.686s-3.751,22.519-3.751,22.519l8.807,1s.92-12.028,2.988-16.315,3.194-19.027,3.194-19.027,1.862-21.414,1.554-30.606-2.988-28.955-2.988-28.955S453.115,240.336,455.129,234.652Z" transform="translate(-212.144 -118.381)" fill="#67647e"/>
      <path id="Path_335" data-name="Path 335" d="M513.886,239.874l-9.446-3.5s12.028-13.176,13.533-5.868Z" transform="translate(-248.253 -115.619)" opacity="0.1"/>
      <path id="Path_336" data-name="Path 336" d="M513.886,239.024l-9.446-3.5s12.028-13.176,13.533-5.868Z" transform="translate(-248.253 -115.229)" fill="#e1e7ef"/>
      <path id="Path_337" data-name="Path 337" d="M513.886,239.024l-9.446-3.5s12.028-13.176,13.533-5.868Z" transform="translate(-248.253 -115.229)" fill="#2e7eb7"/>
      <path id="Path_338" data-name="Path 338" d="M521.32,228.114a.541.541,0,0,1,.39.087Z" transform="translate(-255.995 -115.53)" opacity="0.1"/>
      <path id="Path_339" data-name="Path 339" d="M523,226.422l25.063,5.413s6.9,1.532,11.876,18.843-6.821,38.52-6.821,38.52l-2.6-2.214,1.3,50.553s-11.568,4.363-15.243.541-3.291-21.772-3.291-21.772-3.524-33.085-5.749-38.525-1.083-44.653-1.083-44.653S524.407,226.119,523,226.422Z" transform="translate(-256.766 -114.752)" fill="#67647e"/>
      <path id="Path_340" data-name="Path 340" d="M565.081,285.748c-.352.325-.763,15.622.769,27.266A148.6,148.6,0,0,0,570.181,334l-2.274-46.645S566.153,284.752,565.081,285.748Z" transform="translate(-275.917 -141.865)" opacity="0.1"/>
      <path id="Path_341" data-name="Path 341" d="M559.7,261.6c.612.384,3.3,6.739,2.068,9.343S559.7,261.6,559.7,261.6Z" transform="translate(-273.6 -130.893)" opacity="0.1"/>
      <path id="Path_342" data-name="Path 342" d="M496.18,153.9a13.836,13.836,0,0,0-5.511-5.77A13.1,13.1,0,0,1,494.8,153c1.083,2.165.763,4.331-1.342,5.516s-2.761,3.2-3.789,5.446c-.958,2.052-2.014,4.222-3.952,5.413-2.49,1.5-5.776.947-8.374,2.257a6.539,6.539,0,0,0-3.464,6.409,18.409,18.409,0,0,0,.742,2.928,20.937,20.937,0,0,1,.79,6.371.854.854,0,0,1-.087.406.774.774,0,0,1-.644.309,3.729,3.729,0,0,1-1.889-.352,4.4,4.4,0,0,0,3.248,1.272.639.639,0,0,0,.725-.715,20.77,20.77,0,0,0-.785-6.371,17.784,17.784,0,0,1-.742-2.934,6.523,6.523,0,0,1,3.464-6.4c2.6-1.31,5.884-.758,8.374-2.257,1.938-1.169,2.993-3.34,3.946-5.413,1.045-2.241,1.624-4.184,3.789-5.446S497.263,156.049,496.18,153.9Z" transform="translate(-233.735 -78.845)" opacity="0.1"/>
      <path id="Path_343" data-name="Path 343" d="M711.458,232.423c-7.459-.146-14.042-5.413-17.771-11.849a11.908,11.908,0,0,1-1.8-5.072,5.858,5.858,0,0,1,.206-1.213,12.59,12.59,0,0,0,.541-1.857,3.244,3.244,0,0,0,0-.758v-.043a4.479,4.479,0,0,0-1.624-3.643c-1-.936-2.246-1.624-3.286-2.555-3.2-2.815-4.179-7.329-4.239-11.627v-.227c.038-1.84.184-3.686.168-5.527a23.242,23.242,0,0,0-.135-3.129,10.339,10.339,0,0,0-3.345-6.918c-5.337-4.331-14.312.179-19.839-3.914-1.342-1-2.43-2.479-4.06-2.869a6.84,6.84,0,0,0-3.708.5c-4.071,1.342-8.612,3.107-10.2,7.037-.909,2.257-.655,4.834-1.489,7.118a35.545,35.545,0,0,1-2.328,4.3,6.729,6.729,0,0,0-.866,3.589,4.049,4.049,0,0,0,.265,1.911,4.873,4.873,0,0,0,1.326,1.9,6.305,6.305,0,0,1-.79,1.267c-1.039,1.272-2.636,2.165-3.719,3.432-2,2.322-1.927,5.478-.942,8.206s2.766,5.213,3.995,7.871a4.225,4.225,0,0,1,.406,3.589,10.292,10.292,0,0,1-1.8,2.089,6.567,6.567,0,0,0-1.624,3.627c-12.185,2.782-12.2,12.575-12.2,12.575h0l-6.582,16.553s-1.055,2.788-2.3,6.469l-7.789-1.4,5.413,9.062c-1.023,3.692-1.748,7.113-1.51,8.834,0,0-2.42,11.368,1.884,13.354l9.495,4.271a5.625,5.625,0,0,0,1.315.59l.384.173a1.018,1.018,0,0,0,.888,0h.13a1.278,1.278,0,0,0,.541-.081,1.083,1.083,0,0,0,.476-.514.161.161,0,0,1,0-.054l2.842-.823,2.409,2.853c1.083.763,2.165,1.424,3.188,2.019l-3.73,37.037s-.6,49.26-2.42,60.486a31.444,31.444,0,0,0-.422,8.921l-.07.119c.449,3.167,1.624,3.789,1.624,3.789v-.043a.356.356,0,0,0,.07.043,31.9,31.9,0,0,1,1.949-4.179v.812c-.038,4.179-.168,10.031-.6,13.836-.736,6.5,1.884,27.9,1.884,27.9l.9,19.487a18.015,18.015,0,0,1-2.219,9.495c-2.165,3.892-4.931,9.37-5.132,11.8a2.427,2.427,0,0,0,0,.4h0l-4.645,5.586s-1.813,2.8,2.284,3.935c2.2.612,6,0,9.056-.72a6.052,6.052,0,0,0,4.693-5.889A20.841,20.841,0,0,1,640.454,487l.763,4.487,5.11,1.267.655-12.3a5.413,5.413,0,0,0,.352-2.165h0c1.007-8.748-2.371-7.963-2.371-7.963a.471.471,0,0,1,.162.3l-.162-.3h0c-2.073-4.092-1.083-10.826-1.083-10.826s2.707-19.487,3.632-24.635c.666-3.638.39-15.547.168-22.194a7.914,7.914,0,0,0-.027-.807c7.925-.1,17.636-.368,24.451-1.028v.8l-1.256,46.039a25.275,25.275,0,0,1-1.765,8.564.468.468,0,0,1-.06.157,37.352,37.352,0,0,0-2.5,12.066l-.585,14.615v.406h0c-1.018.39-2.625,1.521-2.669,4.8-.07,4.807,8.4,3.2,8.4,3.2,8.466,0,8.536-8.813,8.536-8.813s.265-8.082.671-13.49-1.277-4.217-1.277-4.217l-.13,15.384V477l.13-1.954v-.054h0v-.417l1.066-15.866s7.8-26.438,9.008-31.51c.861-3.605.5-14.464.222-20.467a4.769,4.769,0,0,0-.043-.8c2.42-.217,4.558-.238,5.413-.238h.4s-.4-42.461-1.413-58.462-2.62-30.644-6.653-35.05c-2.436-2.663-5.83-10.886-8.12-16.976a84.918,84.918,0,0,0,14.924,4.872c12.77,2.674,11.021-8.412,11.021-8.412l-1.294-20.965h.087a106.882,106.882,0,0,0-1.407-16.391,48.222,48.222,0,0,0-3.291-11.909c1.386-.541,2.755-1.121,4.1-1.716,3.47-1.532,7.378-3.7,7.876-7.443h-.168a4.827,4.827,0,0,0,.13-.823ZM632.3,262.737h0c.027,2.165-.054,5.922-.184,10.074l-4.054-5.413,4.065-6.593ZM686.628,273.731Zm1.689,8.19-6.756-2.165a30.311,30.311,0,0,1,4.174-5.164l.585-.541-.211.043.325-.3.195-.043-.309.3.368-.076a11.525,11.525,0,0,0,2.3,4.628c2.425,2.647-.666,3.318-.666,3.318Z" transform="translate(-294.809 -89.39)" fill="url(#linear-gradient-2)"/>
      <path id="Path_344" data-name="Path 344" d="M645.311,715.66l-.79,14.984-5.04-1.261-1.061-6.23Z" transform="translate(-292.84 -328.261)" fill="#a27772"/>
      <path id="Path_345" data-name="Path 345" d="M645.311,715.66l-.79,14.984-5.04-1.261-1.061-6.23Z" transform="translate(-292.84 -328.261)" opacity="0.1"/>
      <path id="Path_346" data-name="Path 346" d="M716.48,686.146l7.687,1.591,5.7-5.034V668.515l.13-1.938v-.06h0v-.411l1.061-15.769s7.692-26.248,8.888-31.288c.844-3.573.493-14.356.211-20.316-.114-2.441-.211-4.076-.211-4.076l-16.97-4.109-.357,13.046-1.24,45.709a25.328,25.328,0,0,1-1.738,8.5l-.06.157a37.2,37.2,0,0,0-2.463,11.974l-.574,14.534v.4Z" transform="translate(-345.512 -281.777)" fill="#cc818c"/>
      <path id="Path_347" data-name="Path 347" d="M741.45,730.141v.4h0v-.411Z" transform="translate(-356.966 -345.801)" opacity="0.1"/>
      <path id="Path_348" data-name="Path 348" d="M716.48,763.21l7.687,1.591,5.7-5.034V758.56a1.624,1.624,0,0,1-.817,1.3l-.081.049a15.319,15.319,0,0,1-8.629,1.705l-3-.254a2.809,2.809,0,0,0-.8.195v.4Z" transform="translate(-345.512 -358.841)" opacity="0.1"/>
      <path id="Path_349" data-name="Path 349" d="M726.775,747.517l.081-.043a1.624,1.624,0,0,0,.828-1.407l.125-15.271s1.656-1.185,1.256,4.184-.66,13.392-.66,13.392-.065,8.748-8.417,8.748c0,0-8.352,1.591-8.288-3.183s3.448-4.969,3.448-4.969l3,.26A15.282,15.282,0,0,0,726.775,747.517Z" transform="translate(-343.32 -346.055)" fill="#b07473"/>
      <path id="Path_350" data-name="Path 350" d="M642.52,687.136c.195,3.448,10.339,1.456,10.339,1.456l6.826-13.251s5.7-4.379,2.847-8.223a6.121,6.121,0,0,1-.417-.655l-.027-.032h0c-.06-.1-.114-.2-.168-.308h0c-2.046-4.06-1.039-10.718-1.039-10.718s2.647-19.357,3.578-24.462c.655-3.605.384-15.433.168-22.048-.087-2.75-.168-4.6-.168-4.6l-16.84-4.509v5.023c-.038,4.152-.168,9.96-.6,13.739-.725,6.425,1.857,27.7,1.857,27.7l.893,19.363a17.933,17.933,0,0,1-2.165,9.424c-2.111,3.865-4.872,9.311-5.061,11.719a2.369,2.369,0,0,0-.027.373Z" transform="translate(-311.588 -286.016)" fill="#cc818c"/>
      <path id="Path_351" data-name="Path 351" d="M642.516,743.633c.195,3.448,10.339,1.456,10.339,1.456l6.826-13.251s5.7-4.379,2.847-8.223a6.129,6.129,0,0,1-.417-.655c-.092,2.008-2.3,7.037-2.3,7.037s-5.635,11.276-7.427,13.858-9.576-.482-9.868-.59A2.368,2.368,0,0,0,642.516,743.633Z" transform="translate(-311.584 -342.512)" opacity="0.1"/>
      <path id="Path_352" data-name="Path 352" d="M657.655,722.285s3.335-.774,2.339,7.909h0a5.592,5.592,0,0,1-2.636,4.964,18.956,18.956,0,0,0-7.93,11h0A6,6,0,0,1,644.8,752c-3.01.7-6.761,1.321-8.932.715-4.044-1.126-2.252-3.908-2.252-3.908l4.639-5.505s8.087,3.183,9.874.6,7.427-13.852,7.427-13.852S658.645,723.016,657.655,722.285Z" transform="translate(-307.322 -342.194)" fill="#b07473"/>
      <path id="Path_353" data-name="Path 353" d="M728.177,593.52l-.357,13.046c4.52-.438,7.757-1.05,8.309-1.911,1.2-1.851,5.538-2.631,9.229-2.95-.114-2.441-.211-4.076-.211-4.076Z" transform="translate(-350.714 -283.139)" opacity="0.1"/>
      <path id="Path_354" data-name="Path 354" d="M651.94,607.743A6.193,6.193,0,0,1,653.8,605.5c1.786-.991,1.591,6.366,1.591,6.366s5.954.054,13.56-.043c-.087-2.75-.168-4.6-.168-4.6l-16.84-4.5S651.972,604.809,651.94,607.743Z" transform="translate(-315.909 -287.359)" opacity="0.1"/>
      <path id="Path_355" data-name="Path 355" d="M646.9,511.075s1.992-5.413,3.789-6.377,1.591,6.36,1.591,6.36,43.749.4,45.936-2.983,14.913-3.183,14.913-3.183-.4-42.158-1.391-58.061-2.582-30.427-6.561-34.8c-2.571-2.831-6.231-11.99-8.493-18.1-1.229-3.335-2.046-5.765-2.046-5.765l-41.757,2.382-.341,3.383-4.433,44.344s-.6,48.919-2.387,60.053S646.9,511.075,646.9,511.075Z" transform="translate(-312.794 -188.948)" fill="#444053"/>
      <g id="Group_36" data-name="Group 36" transform="translate(332.404 199.222)" opacity="0.1">
        <path id="Path_356" data-name="Path 356" d="M702.94,508.076c2.165-3.378,14.913-3.183,14.913-3.183s-.4-42.158-1.391-58.061-2.582-30.427-6.561-34.8c-2.582-2.842-6.23-11.99-8.493-18.1-1.034-2.8-1.776-4.964-1.981-5.581l3.248-.184s.817,2.431,2.052,5.765c2.263,6.106,5.917,15.265,8.488,18.1,3.979,4.374,5.57,18.892,6.561,34.8s1.4,58.061,1.4,58.061-12.726-.195-14.919,3.183c-1.868,2.885-34.06,3.021-43.4,2.993C674.84,511.043,701.251,510.686,702.94,508.076Z" transform="translate(-653.317 -388.17)"/>
        <path id="Path_357" data-name="Path 357" d="M647.335,603.361c.807-.449,1.207.8,1.407,2.306a31.224,31.224,0,0,0-1.878,4.071s-1.153-.622-1.624-3.789A7.368,7.368,0,0,1,647.335,603.361Z" transform="translate(-645.24 -486.832)"/>
      </g>
      <path id="Path_358" data-name="Path 358" d="M665.174,194.672c-2.891,3.941.032,9.543-3.069,13.376-1.023,1.267-2.6,2.165-3.665,3.41-1.976,2.306-1.9,5.44-.931,8.147s2.707,5.175,3.941,7.817a4.182,4.182,0,0,1,.4,3.562,10.09,10.09,0,0,1-1.776,2.073,7.477,7.477,0,0,0-.974,7.936c1.072,2.62,3.118,4.872,5.137,7.091a3.506,3.506,0,0,0,5.094,1.164,20.029,20.029,0,0,0,9.116-26.14c-1.678-4.022-4.477-7.876-4.5-12.125,0-3.372,1.732-6.593,2.041-9.949.374-4.082-2.041-10.561-6.967-12.342C669.342,191.31,666.641,192.647,665.174,194.672Z" transform="translate(-318.159 -97.45)" fill="#585268"/>
      <path id="Path_359" data-name="Path 359" d="M665.174,194.672c-2.891,3.941.032,9.543-3.069,13.376-1.023,1.267-2.6,2.165-3.665,3.41-1.976,2.306-1.9,5.44-.931,8.147s2.707,5.175,3.941,7.817a4.182,4.182,0,0,1,.4,3.562,10.09,10.09,0,0,1-1.776,2.073,7.477,7.477,0,0,0-.974,7.936c1.072,2.62,3.118,4.872,5.137,7.091a3.506,3.506,0,0,0,5.094,1.164,20.029,20.029,0,0,0,9.116-26.14c-1.678-4.022-4.477-7.876-4.5-12.125,0-3.372,1.732-6.593,2.041-9.949.374-4.082-2.041-10.561-6.967-12.342C669.342,191.31,666.641,192.647,665.174,194.672Z" transform="translate(-318.159 -97.45)" opacity="0.1"/>
      <path id="Path_360" data-name="Path 360" d="M704.571,464.55c-5.787.3-11.232,2.793-16.3,5.608s-9.971,6-15.422,8" transform="translate(-325.5 -223.983)" opacity="0.1"/>
      <path id="Path_361" data-name="Path 361" d="M701.793,489.74a23.855,23.855,0,0,0-15.021,7.308c-1.407,1.489-2.62,3.156-4.087,4.585a18.157,18.157,0,0,1-8.055,4.563" transform="translate(-326.316 -235.537)" opacity="0.1"/>
      <path id="Path_362" data-name="Path 362" d="M699.245,508.91a26.264,26.264,0,0,0-12.082,7.286c-.888.958-1.694,1.981-2.582,2.939-4.791,5.142-11.557,7.871-18.091,10.453" transform="translate(-322.583 -244.33)" opacity="0.1"/>
      <path id="Path_363" data-name="Path 363" d="M706.628,242.823a118.773,118.773,0,0,0,1.191,13.814c.541,3.248,1.3,6.171,2.387,7.465,3.183,3.789-15.509,8.85-15.509,8.85L683.66,264.4s8.748-8.055,4.672-15.909S706.628,242.823,706.628,242.823Z" transform="translate(-330.458 -122.151)" fill="#cc818c"/>
      <path id="Path_364" data-name="Path 364" d="M658.79,393.935h44.144c-1.229-3.334-2.046-5.765-2.046-5.765l-41.757,2.382Z" transform="translate(-319.051 -188.948)" opacity="0.1"/>
      <path id="Path_365" data-name="Path 365" d="M646.238,339.964h47.2a16.376,16.376,0,0,1,1.889-12.515,27.659,27.659,0,0,1,4.942-6.409l.325-.3,16.478-3.648.888-.195s.135-29.962-10.474-34.076a62.028,62.028,0,0,1-16.97-9.673l-14.578,4.5-10.74-5.413c-3.448,3.708-12.6,2.252-12.6,2.252-14.978,1.721-14.978,12.992-14.978,12.992s8.748,20.413,9.413,20.413S646.238,339.964,646.238,339.964Z" transform="translate(-309.341 -135.773)" fill="#2e7eb7"/>
      <path id="Path_366" data-name="Path 366" d="M672.709,357.192s-9.625-2.133-12.9-5.862" transform="translate(-319.519 -172.05)" opacity="0.1"/>
      <path id="Path_367" data-name="Path 367" d="M763.832,341.51l-11.162,9.148a19,19,0,0,0,.368,2.165l.325-.3,16.478-3.648Z" transform="translate(-362.112 -167.546)" opacity="0.1"/>
      <path id="Path_368" data-name="Path 368" d="M717.46,380.461s2.441,1.375,6.182,3.183h6.415a16.376,16.376,0,0,1,1.889-12.515l-11.308-3.659C724.486,371.048,717.46,380.461,717.46,380.461Z" transform="translate(-345.962 -179.454)" opacity="0.1"/>
      <path id="Path_369" data-name="Path 369" d="M633.007,293.76l-6.626,3.578-6.5,16.44s-6.761,18.026-6.1,22.8c0,0-2.382,11.27,1.857,13.257l11.043,5a1.029,1.029,0,0,0,1.326-1.418c-1.575-2.983-3.307-7.649-.541-10.215l-3.183-6.626,11.5-18.827,3.843-6.5Z" transform="translate(-298.102 -145.644)" fill="#2e7eb7"/>
      <path id="Path_370" data-name="Path 370" d="M677.017,351.34c.574,2.338,2.512,5.954,8.926,7.3l7.037,5.765,7.486,3.394,3.053,1.38,1.294-9.348-2.939-1.624-3.427-1.873s-7.73-14-19.969-8.12A2.707,2.707,0,0,0,677.017,351.34Z" transform="translate(-327.372 -169.96)" opacity="0.1"/>
      <path id="Path_371" data-name="Path 371" d="M677.766,349.9c.574,2.344,2.506,5.954,8.921,7.3l7.037,5.765,7.492,3.394,3.048,1.38,1.294-9.348-2.939-1.624-3.4-1.857s-7.735-14-19.974-8.093a2.707,2.707,0,0,0-1.478,3.08Z" transform="translate(-327.721 -169.313)" fill="#cc818c"/>
      <circle id="Ellipse_130" data-name="Ellipse 130" cx="17.1" cy="17.1" r="17.1" transform="translate(346.738 98.597)" opacity="0.1"/>
      <circle id="Ellipse_131" data-name="Ellipse 131" cx="17.1" cy="17.1" r="17.1" transform="translate(346.738 98.202)" fill="#cc818c"/>
      <path id="Path_372" data-name="Path 372" d="M718.522,285.836l-5.143-9.993s7.524-3.042,8.071-6.566,7.21,4.13,5.77,6.669S718.522,285.836,718.522,285.836Z" transform="translate(-344.091 -133.996)" opacity="0.1"/>
      <path id="Path_373" data-name="Path 373" d="M718.522,284.367l-5.143-9.993s7.524-3.042,8.071-6.566,7.21,4.136,5.77,6.669S718.522,284.367,718.522,284.367Z" transform="translate(-344.091 -133.322)" fill="#2e7eb7"/>
      <path id="Path_374" data-name="Path 374" d="M627.755,343.713l28.414,38.2s-10.474,5.7-24.9-4.5l-6.231-7.427L607.25,340Z" transform="translate(-295.41 -166.853)" fill="#f6f8fb"/>
      <path id="Path_375" data-name="Path 375" d="M634.236,376.891l2.588-.07s15.806-15.341,19.688-7.578-9.847,15.016-9.847,15.016l-4.174,2.252-5.44,1.624-3.481-4.672Z" transform="translate(-307.483 -179.261)" fill="#cc818c"/>
      <path id="Path_376" data-name="Path 376" d="M635.019,392.139a3.862,3.862,0,0,1,.065,2.674,1.083,1.083,0,0,1-.471.514,1.207,1.207,0,0,1-.541.076,5.44,5.44,0,0,1-3.567-1.765,16.291,16.291,0,0,1-2.311-3.345c-.7-1.229-1.435-2.587-1.185-3.984.281-1.521,1.624-2.577,2.939-3.432,2.62-1.732,2.707.287,3.28,2.517S634.418,389.887,635.019,392.139Z" transform="translate(-304.45 -186.221)" opacity="0.1"/>
      <path id="Path_377" data-name="Path 377" d="M634.288,392.139a3.894,3.894,0,0,1,.065,2.674,1.083,1.083,0,0,1-.471.514,1.218,1.218,0,0,1-.541.076,5.413,5.413,0,0,1-3.567-1.765,16.107,16.107,0,0,1-2.317-3.345c-.7-1.229-1.434-2.588-1.18-3.984.276-1.521,1.624-2.577,2.934-3.432,2.625-1.732,2.707.287,3.286,2.517S633.681,389.887,634.288,392.139Z" transform="translate(-304.114 -186.221)" fill="#2e7eb7"/>
      <path id="Path_378" data-name="Path 378" d="M623.85,316.046l1.321-2.236-1.153,4.152Z" transform="translate(-286.157 -143.938)" opacity="0.1"/>
      <path id="Path_379" data-name="Path 379" d="M721.19,376.022l3.048,1.38,1.294-9.348-2.939-1.624C724.622,368.758,722.846,373.061,721.19,376.022Z" transform="translate(-347.673 -178.977)" opacity="0.1"/>
      <path id="Path_380" data-name="Path 380" d="M731.91,362.334s-9.841.6-14.02-2.084" transform="translate(-346.159 -176.142)" opacity="0.1"/>
      <g id="Group_37" data-name="Group 37" transform="translate(342.63 137.247)" opacity="0.1">
        <path id="Path_381" data-name="Path 381" d="M737.815,329.689a27.7,27.7,0,0,1,4.942-6.415,13.2,13.2,0,0,1,1.456-.79l15.341-3.15.888-.195s.135-29.962-10.469-34.076a63.724,63.724,0,0,1-16.543-9.316l1.164-.357a61.867,61.867,0,0,0,16.97,9.673c10.61,4.109,10.469,34.076,10.469,34.076h-1.591l-15.7,3s-.677.655-.882.844a30.423,30.423,0,0,0-5.018,6.637,16.64,16.64,0,0,0-1.315,12.58H735.9A16.547,16.547,0,0,1,737.815,329.689Z" transform="translate(-695.917 -274.464)"/>
        <path id="Path_382" data-name="Path 382" d="M664.13,277.913c.254-.038.5-.076.763-.1a27.443,27.443,0,0,0,3.248.265,29.519,29.519,0,0,1-4.011-.162Z" transform="translate(-664.13 -275.574)"/>
        <path id="Path_383" data-name="Path 383" d="M697.471,279.109l-9.711-4.915a5.13,5.13,0,0,0,.541-.514l10.133,5.126Z" transform="translate(-674.969 -273.68)"/>
      </g>
      <path id="Path_384" data-name="Path 384" d="M748.4,340l6.5,7.957,1.326,21.609s1.721,11-10.87,8.347-27.163-10.848-27.163-10.848,7.037-9.413,3.183-12.992L739.4,359.91s3.048-.666.66-3.313-2.809-7.427-2.809-7.427Z" transform="translate(-346.297 -166.853)" fill="#2e7eb7"/>
      <path id="Path_385" data-name="Path 385" d="M779.42,382.17,783,386.279a5.159,5.159,0,0,1-3.578-4.109Z" transform="translate(-374.382 -186.196)" opacity="0.1"/>
      <path id="Path_386" data-name="Path 386" d="M736.99,360.8l5.57,7.156-2.782.666Z" transform="translate(-338.053 -165.492)" opacity="0.1"/>
      <path id="Path_387" data-name="Path 387" d="M665.341,198.638a5.711,5.711,0,0,1,.6-4.661,36.79,36.79,0,0,0,2.3-4.271c.817-2.263.568-4.823,1.462-7.037,1.575-3.925,6.052-5.678,10.063-7.037a6.765,6.765,0,0,1,3.659-.5c1.624.384,2.68,1.857,4.006,2.847,5.446,4.06,14.3-.411,19.569,3.887a10.242,10.242,0,0,1,3.3,6.864,60.6,60.6,0,0,1-.032,7.806c-.087,4.558.769,9.543,4.179,12.564,1.028.909,2.241,1.591,3.248,2.533a4.435,4.435,0,0,1,1.624,3.621,12.571,12.571,0,0,1-.541,1.84c-.677,2.376.336,4.872,1.57,7.037,3.681,6.371,10.171,11.622,17.528,11.768-.493,3.713-4.331,5.868-7.768,7.389-4.331,1.943-8.943,3.849-13.712,3.605s-9.744-3.3-10.577-8c-.287-1.624-.249-3.578-1.624-4.423-.844-.514-1.938-.384-2.847-.769-1.315-.541-1.965-2.019-2.4-3.378a30.4,30.4,0,0,1-1.413-8.661c-.06-3.486.4-7.292-1.575-10.16-1.83-2.658-5.078-4.006-7.189-6.447-1.949-2.263-4.065-4.991-7.259-5.413C677.088,199.028,667.951,205.031,665.341,198.638Z" transform="translate(-321.927 -91.185)" opacity="0.1"/>
      <path id="Path_388" data-name="Path 388" d="M665.341,197.168a5.711,5.711,0,0,1,.6-4.661,36.789,36.789,0,0,0,2.3-4.271c.817-2.263.568-4.823,1.462-7.037,1.575-3.93,6.052-5.684,10.063-7.037a6.765,6.765,0,0,1,3.659-.5c1.624.384,2.68,1.857,4.006,2.847,5.446,4.06,14.3-.411,19.569,3.887a10.244,10.244,0,0,1,3.3,6.869,60.516,60.516,0,0,1-.032,7.8c-.087,4.558.769,9.543,4.179,12.564,1.028.909,2.241,1.591,3.248,2.533a4.435,4.435,0,0,1,1.624,3.621,12.57,12.57,0,0,1-.541,1.84c-.677,2.376.336,4.872,1.57,7.037,3.692,6.35,10.155,11.617,17.511,11.763-.493,3.713-4.331,5.868-7.768,7.394-4.331,1.938-8.943,3.843-13.712,3.6s-9.744-3.3-10.577-8c-.287-1.624-.249-3.578-1.624-4.423-.844-.514-1.938-.384-2.847-.769-1.315-.541-1.965-2.019-2.4-3.378a30.371,30.371,0,0,1-1.413-8.661c-.06-3.486.4-7.292-1.575-10.16-1.83-2.658-5.078-4.006-7.189-6.447-1.949-2.263-4.065-4.991-7.259-5.413C677.088,197.558,667.951,203.572,665.341,197.168Z" transform="translate(-321.927 -90.511)" fill="#585268"/>
      <path id="Path_389" data-name="Path 389" d="M685.141,285.017l9.8-7.957s-6.712-3.638-7.513-6.739-6.171,1.472-5.624,4.255S685.141,285.017,685.141,285.017Z" transform="translate(-329.59 -134.416)" opacity="0.1"/>
      <path id="Path_390" data-name="Path 390" d="M685.879,282.812l9.8-7.952s-6.712-3.638-7.481-6.739-6.171,1.472-5.624,4.255S685.879,282.812,685.879,282.812Z" transform="translate(-329.944 -133.407)" fill="#2e7eb7"/>
      <circle id="Ellipse_132" data-name="Ellipse 132" cx="0.779" cy="0.779" r="0.779" transform="translate(365.343 147.331)" opacity="0.1"/>
      <circle id="Ellipse_133" data-name="Ellipse 133" cx="0.779" cy="0.779" r="0.779" transform="translate(365.343 151.662)" opacity="0.1"/>
      <circle id="Ellipse_134" data-name="Ellipse 134" cx="0.779" cy="0.779" r="0.779" transform="translate(365.343 155.987)" opacity="0.1"/>
      <g id="Group_38" data-name="Group 38" transform="translate(343.256 88.945)" opacity="0.1">
        <path id="Path_391" data-name="Path 391" d="M672.028,191.108c.774-2.127.606-4.515,1.332-6.658a7.273,7.273,0,0,0-.828,1.526c-.9,2.236-.644,4.8-1.467,7.037l-.054.13a12.371,12.371,0,0,0,1.018-2.035Z" transform="translate(-667.912 -184.45)"/>
        <path id="Path_392" data-name="Path 392" d="M731.248,254.788c-4.331,1.938-8.943,3.843-13.712,3.6s-9.744-3.3-10.577-7.99c-.287-1.624-.249-3.583-1.624-4.428-.844-.514-1.938-.384-2.847-.769-1.315-.541-1.965-2.019-2.4-3.378a30.374,30.374,0,0,1-1.413-8.661c-.06-3.481.406-7.286-1.57-10.16-1.835-2.658-5.083-4-7.194-6.447-1.949-2.257-4.065-4.991-7.259-5.413-4.379-.6-13.533,5.413-16.12-.985a5.034,5.034,0,0,1,.168-3.7c-.189.319-.373.639-.541.964a5.734,5.734,0,0,0-.59,4.666c2.6,6.388,11.741.384,16.12.985,3.194.433,5.31,3.167,7.259,5.413,2.111,2.447,5.359,3.789,7.189,6.452,1.981,2.869,1.516,6.674,1.575,10.155a30.369,30.369,0,0,0,1.413,8.661c.433,1.364,1.083,2.826,2.4,3.378.909.384,2,.26,2.847.769,1.4.844,1.359,2.82,1.624,4.428.844,4.693,5.814,7.746,10.577,7.99s9.354-1.656,13.711-3.6c3.14-1.4,6.637-3.329,7.578-6.5C736.358,252.282,733.695,253.7,731.248,254.788Z" transform="translate(-665.288 -194.546)"/>
      </g>
      <path id="Path_393" data-name="Path 393" d="M875.959,300.65c-11.46-6.593-15.79-8.217-15.812-8.217l-.238-.168a9.535,9.535,0,0,1-2.885-3.648,7.652,7.652,0,0,1,0-.785.342.342,0,0,0,0,.076c.179-3.491,2.663-6.669,5.018-9.44l6.025-7.086a6.983,6.983,0,0,0,1.553-2.458,5.669,5.669,0,0,0,.162-1.51V266.8c-.032-1.759-.081-3.524-.146-5.283-.054-1.537-.449-3.475-1.987-3.789-.8-.162-1.862.125-2.284-.541a1.316,1.316,0,0,1-.1-.915.315.315,0,0,0,0,.076v-.087a20.383,20.383,0,0,0,.568-3.621,4.936,4.936,0,0,0-.249-1.835c-.888-2.55-3.957-3.6-6.669-4.082s-5.754-.893-7.454-3.015a22.1,22.1,0,0,0-1.483-2.041,5.852,5.852,0,0,0-2.771-1.37,15.7,15.7,0,0,0-10.085.877c-1.31.585-2.625,1.375-4.065,1.288s-2.771-1.126-4.244-1.375c-2.382-.406-4.661,1.342-5.835,3.416a8.354,8.354,0,0,0-1.083,4.027v.238h0a5.89,5.89,0,0,0,1.548,4.114c1.029,1.083,2.555,1.8,2.983,3.2.173.568.13,1.185.287,1.765a1.575,1.575,0,0,0,.065.211l-.076.1a17.864,17.864,0,0,0-3.789,11.01,18.275,18.275,0,0,0,12.84,17.322v.541a7.788,7.788,0,0,1-2.49,6.063l-16.234,6.485s-9.787-1.164-13.316,13.138a24.388,24.388,0,0,0-.606,7.254,21.027,21.027,0,0,1-2.707,10.864c-4.011,7.86-3.1,25.9,5.11,27.688,7.746,1.689,10.778.985,11.1.9v.314c-.13,3.389-1.359,32.587-5.825,36.116-1.234.98-1.007,1.624,0,2.084,0,0,0,.189-.027.541-.135,2.165-.823,10.285-3.789,14.9-3.47,5.359-3.107,36.268-3.107,36.268l-2.366,18.221s1.456,11.254,0,13.219c-1.3,1.748-3.037,43.381-3.4,52.41h-.152a4.4,4.4,0,0,0-3.508,2.165c-1.916,3.113-8.629,8.867-8.629,8.867-1.456,2.068-6.842,4.049-9.69,4.98a6.023,6.023,0,0,0-1.083.476,5.776,5.776,0,0,0-2.447,2.577,2.767,2.767,0,0,0-.26,2.165c.725,1.781,15.866,3.037,19.7,1.245,3.01-1.4,14.94-3.248,19.893-3.973a4.081,4.081,0,0,0,3.54-3.54,2.333,2.333,0,0,0-.455-1.77h0c-.947-1.175-1.429-4.385-1.624-6.5a4.392,4.392,0,0,0,1.115-.66,47.555,47.555,0,0,1,2.707-19.114c3.648-9.646,4.742-27.51,3.832-39.121,0,0,11.124-47.874,19.882-52.34h0c.135.173,4.385,5.624,4.926,22.508.541,17.149,6.745,28.4,6.745,28.4s-2.739,29.117,0,40.014l-3.578,17.187c-.265-.222-.433-.4-.433-.4s.108.476.254,1.24l-.076.368.157.032a33.827,33.827,0,0,1,.758,8.12c-.141,1.25-.493,2.966-.731,4.65-.379,2.647-.482,5.213.909,5.776,2.284.92,15.7,2.165,17.972-.779a4.217,4.217,0,0,0,.661-4.412,4.465,4.465,0,0,0-.661-1.126s-3.562-5.819-2.555-9.922a3.02,3.02,0,0,0-.428-2.355,121.025,121.025,0,0,1,3.069-19.249c2.284-8.6,7.1-27.445,3.556-39.835h0q-.2-.731-.455-1.429a53.5,53.5,0,0,1-2.008-20.9,42.6,42.6,0,0,1,0-18.221c2.192-10,3.724-19.828,3.724-19.828s1.207-13.219.152-21.322a5.326,5.326,0,0,0-.07-.541l.574-.13s-3.1-13.755-4.2-22.508c-.26-2.068-.6-4.682-.964-7.476a19.083,19.083,0,0,0,2.972-.742c9.846-3.394,12.948-34.1,12.948-34.1v-9.744S887.452,307.26,875.959,300.65ZM802.579,537.876c-.3-.152-.482-.254-.482-.254h0Z" transform="translate(-371.076 -120.911)" fill="url(#linear-gradient-3)"/>
      <path id="Path_394" data-name="Path 394" d="M892.531,605.737c4.271,12.282-.715,32.219-3.031,41.14a124.355,124.355,0,0,0-3.026,19.585,41.246,41.246,0,0,1-15.666-.357l3.74-18.334c-2.674-10.859,0-39.879,0-39.879s-6.052-11.216-6.588-28.305c-.541-16.819-4.672-22.259-4.8-22.427h0c-8.542,4.45-19.4,52.161-19.4,52.161.888,11.568-.184,29.372-3.74,38.975a48.177,48.177,0,0,0-2.669,19.043c-1.245,1.083-2.977,1.234-4.872.931-5.083-.823-11.178-5.2-11.178-5.2s1.954-51.966,3.383-53.937,0-13.176,0-13.176l2.311-18.156s-.357-30.8,3.026-36.138c2.923-4.612,3.594-12.721,3.724-14.848v-.541L838.9,520.1s49.844-3.74,53.59,0c.915.915,1.483,3,1.819,5.63,1.029,8.076-.152,21.247-.152,21.247s-1.494,9.792-3.632,19.758a43.368,43.368,0,0,0,0,18.161A54.362,54.362,0,0,0,892.531,605.737Z" transform="translate(-393.592 -248.701)" fill="#65617d"/>
      <path id="Path_395" data-name="Path 395" d="M931.2,805.257c-2.225,2.939-15.308,1.694-17.539.779-1.359-.541-1.256-3.123-.888-5.76.233-1.673.574-3.383.714-4.628.352-3.2-1.083-9.706-1.083-9.706s2.934,3.118,3.643,0a3.4,3.4,0,0,1,2.544-2.414,6.648,6.648,0,0,1,4.623.287c2.311,1.007,6.166,3.145,5.478,6.036-.98,4.087,2.49,9.89,2.49,9.89a4.505,4.505,0,0,1,.65,1.115A4.271,4.271,0,0,1,931.2,805.257Z" transform="translate(-435.383 -370.163)" fill="#a27772"/>
      <path id="Path_396" data-name="Path 396" d="M931.314,819.69c-2.225,2.939-15.308,1.694-17.539.779-1.359-.541-1.256-3.123-.888-5.76,1.407.66,3.789,1.207,7.779.839a21.934,21.934,0,0,1,2.8-.087,65.089,65.089,0,0,0,8.5-.173A4.271,4.271,0,0,1,931.314,819.69Z" transform="translate(-435.492 -384.596)" opacity="0.1"/>
      <path id="Path_397" data-name="Path 397" d="M853.221,639.178c.888,11.568-.184,29.372-3.74,38.975a48.175,48.175,0,0,0-2.669,19.043c-1.245,1.083-2.977,1.234-4.872.931,1.083-7.508,5.651-39.857,8.58-65.418a107.046,107.046,0,0,1,18.946-49.13l3.113,3.426C864.08,591.467,853.221,639.178,853.221,639.178Z" transform="translate(-403.059 -278.58)" opacity="0.1"/>
      <path id="Path_398" data-name="Path 398" d="M906.518,322.55l-2.165,10.68-10.648,17.89-13.127-5.608s-17.863-18.692-6.631-21.36a9.936,9.936,0,0,0,3.724-1.656,7.7,7.7,0,0,0,2.907-6.442,19.751,19.751,0,0,0-1.808-7.654l22.963-7.21a36.859,36.859,0,0,0-1.624,9.3c-.179,6.258,2.165,9.338,4.054,10.826A6.9,6.9,0,0,0,906.518,322.55Z" transform="translate(-416.039 -149.052)" fill="#fbbebe"/>
      <path id="Path_399" data-name="Path 399" d="M908.941,301.19a36.857,36.857,0,0,0-1.624,9.3,17.457,17.457,0,0,1-1.337,1.424,18.167,18.167,0,0,1-18.156,4.141A19.748,19.748,0,0,0,886,308.4Z" transform="translate(-423.269 -149.052)" opacity="0.1"/>
      <path id="Path_400" data-name="Path 400" d="M902.472,280.375a18.075,18.075,0,1,1-5.295-12.863A18.161,18.161,0,0,1,902.472,280.375Z" transform="translate(-414.164 -131.177)" fill="#fbbebe"/>
      <path id="Path_401" data-name="Path 401" d="M906.518,339.59l-2.165,10.68-10.648,17.89-13.127-5.608s-17.863-18.692-6.631-21.36a9.937,9.937,0,0,0,3.724-1.656c-2.024,5.565,6.333,17.143,6.333,17.143.974,1.435,3.2.541,3.2.541,5.386-.817,15.3-16.3,16.916-18.881a6.9,6.9,0,0,0,2.393,1.25Z" transform="translate(-416.039 -166.092)" opacity="0.1"/>
      <path id="Path_402" data-name="Path 402" d="M904.914,525.733c-3.161.72-20.651,4.59-27.282,3.621-7.3-1.083-21.485-1.776-21.485-1.776s-9.035.487-11.817-.785v-.541l5.153-6.171s49.844-3.74,53.59,0C904.01,521.018,904.578,523.107,904.914,525.733Z" transform="translate(-404.155 -248.692)" opacity="0.1"/>
      <path id="Path_403" data-name="Path 403" d="M861.623,357.358s-9.392-12.992-5.852-18.08l-15.866,6.5s-9.549-1.158-12.991,13.094a24.8,24.8,0,0,0-.59,7.232,21.4,21.4,0,0,1-2.615,10.826c-3.914,7.833-3.026,25.815,4.985,27.607s10.853.888,10.853.888-1.083,32.576-5.695,36.317,11.8,2.847,11.8,2.847,14.188.715,21.49,1.781,27.77-3.74,27.77-3.74-3.026-13.706-4.1-22.427-3.567-27.3-3.567-27.3L905.4,368.3s3.2-14.864-8.011-21.452-15.433-8.2-15.433-8.2S870.69,357,864.817,357.888C864.828,357.888,862.6,358.787,861.623,357.358Z" transform="translate(-393.663 -166.234)" fill="#2e7eb7"/>
      <path id="Path_404" data-name="Path 404" d="M854.616,382.74s-.173,5.879.893,8.19,4.985,15.157,4.985,15.157h-8.9s4.807-5.164,4.455-7.66S854.616,382.74,854.616,382.74Z" transform="translate(-407.486 -186.458)" opacity="0.1"/>
      <path id="Path_405" data-name="Path 405" d="M881.82,443.489s-19.661-4.807-21.49-8.9-6.88-13.257-6.88-13.257l2.073-2.793,9.56,7.5s11.368,9.078,16.737,9.971S881.82,443.489,881.82,443.489Z" transform="translate(-408.339 -202.879)" fill="#fbbebe"/>
      <path id="Path_406" data-name="Path 406" d="M881.82,443.489s-19.661-4.807-21.49-8.9-6.88-13.257-6.88-13.257l2.073-2.793,9.56,7.5s11.368,9.078,16.737,9.971S881.82,443.489,881.82,443.489Z" transform="translate(-408.339 -202.879)" opacity="0.05"/>
      <path id="Path_407" data-name="Path 407" d="M907.166,421.78v10.664h-1.711a49.848,49.848,0,0,0-24.216,6.273l-3.207,1.776-.861.482-5.521-12.45,5.164-4.628h.265c1.261.125,6.723.579,9.04-.2,2.2-.747,4.926-3.113,11.4-1.462,3.188.817,5.917,4.39,9.008,3.275Z" transform="translate(-416.687 -204.31)" fill="#fbbebe"/>
      <path id="Path_408" data-name="Path 408" d="M936.153,375.747l3.556,4.006v9.706s-3.026,30.617-12.634,34S900.3,421.5,900.3,421.5s-4.433-11.746-2.36-12.45,18.323-5,18.323-5-.227-17.961,3.329-23.3c0,0-2.311-16.732,5.7-17.089S936.153,375.747,936.153,375.747Z" transform="translate(-428.493 -177.7)" opacity="0.1"/>
      <path id="Path_409" data-name="Path 409" d="M937.156,375.747l3.562,4.006v9.706s-3.026,30.617-12.64,34S901.3,421.5,901.3,421.5s-4.433-11.746-2.355-12.45,18.323-5,18.323-5-.233-17.961,3.329-23.3c0,0-2.317-16.732,5.695-17.089S937.156,375.747,937.156,375.747Z" transform="translate(-428.955 -177.7)" fill="#2e7eb7"/>
      <path id="Path_410" data-name="Path 410" d="M900.639,288.029a7.157,7.157,0,0,0-.406-3.47,2.642,2.642,0,0,0-2.826-1.624c-1.521.357-2.165,2.339-3.67,2.815a2.933,2.933,0,0,1-3.248-1.667,8.3,8.3,0,0,1-.617-3.876v-4.46c0-1.624-.054-3.367-1.05-4.639-1.24-1.581-4.157-2.274-6.106-2.209a5.18,5.18,0,0,0-3.486,1.4,4.487,4.487,0,0,1-3.665,1.3,3.156,3.156,0,0,1-2.555-2.209v-.054a18.156,18.156,0,1,1,26.99,24.1A48.928,48.928,0,0,0,900.639,288.029Z" transform="translate(-417.311 -131.122)" opacity="0.1"/>
      <path id="Path_411" data-name="Path 411" d="M871.576,261.746a3.183,3.183,0,0,1-2.56-2.214c-.146-.574-.108-1.185-.276-1.754-.417-1.4-1.911-2.127-2.912-3.194-2-2.127-1.873-5.624-.455-8.185,1.148-2.062,3.367-3.789,5.695-3.4,1.44.249,2.707,1.272,4.146,1.37s2.707-.7,3.968-1.283a14.951,14.951,0,0,1,9.863-.877,5.683,5.683,0,0,1,2.707,1.37,23.651,23.651,0,0,1,1.445,2.03c1.656,2.111,4.628,2.528,7.275,3s5.641,1.526,6.5,4.071c.579,1.689,0,3.519-.314,5.272a1.591,1.591,0,0,0,.07,1.083c.417.682,1.451.4,2.23.541,1.5.319,1.884,2.252,1.943,3.789q.092,2.631.141,5.267a6.7,6.7,0,0,1-.157,1.949,6.879,6.879,0,0,1-1.51,2.452l-5.879,7.064c-2.609,3.129-5.375,6.777-4.872,10.826-1.234.541-2.707-.514-3.107-1.808a8.086,8.086,0,0,1,.195-4.011,49.169,49.169,0,0,0,.942-6.956,7.134,7.134,0,0,0-.406-3.464,2.642,2.642,0,0,0-2.826-1.624c-1.527.357-2.165,2.338-3.67,2.815a2.933,2.933,0,0,1-3.248-1.667,8.283,8.283,0,0,1-.617-3.87v-4.466c0-1.624-.054-3.367-1.05-4.639-1.24-1.581-4.157-2.274-6.106-2.209a5.18,5.18,0,0,0-3.481,1.4A4.5,4.5,0,0,1,871.576,261.746Z" transform="translate(-413.322 -121.787)" fill="#7c5c5c"/>
      <path id="Path_412" data-name="Path 412" d="M885.3,381.92l5.576,22.9S895.271,404.8,885.3,381.92Z" transform="translate(-422.948 -186.082)" opacity="0.1"/>
      <path id="Path_413" data-name="Path 413" d="M916.161,374.85s-7.3,11.952-4.45,24.316l1.359.1S910.645,393.542,916.161,374.85Z" transform="translate(-434.76 -182.839)" opacity="0.1"/>
      <path id="Path_414" data-name="Path 414" d="M929,499.281s8.964-2.966,9.614,3.914C938.635,503.195,936.946,498.48,929,499.281Z" transform="translate(-442.992 -239.622)" opacity="0.1"/>
      <path id="Path_415" data-name="Path 415" d="M868.2,426.81s-1.781,12.45,1.424,17.447a39.043,39.043,0,0,1-15.666,2.138L852.88,426.81Z" transform="translate(-408.077 -206.672)" opacity="0.1"/>
      <path id="Path_416" data-name="Path 416" d="M878.032,442.387l-.861.482-5.521-12.45,5.164-4.628h.265C877,426.407,875.558,437.109,878.032,442.387Z" transform="translate(-416.687 -206.204)" opacity="0.1"/>
      <path id="Path_417" data-name="Path 417" d="M863.842,425.83s-1.781,12.45,1.424,17.441a38.929,38.929,0,0,1-15.666,2.138L843.37,425.83Z" transform="translate(-403.715 -206.222)" fill="#2e7eb7"/>
      <path id="Path_418" data-name="Path 418" d="M816.981,797.292a4.033,4.033,0,0,1-3.459,3.529c-4.834.72-16.478,2.56-19.417,3.962-3.74,1.781-18.513.541-19.228-1.245a2.826,2.826,0,0,1,.254-2.165,5.707,5.707,0,0,1,2.387-2.566,6.336,6.336,0,0,1,1.083-.476c2.782-.926,8.038-2.9,9.457-4.964,0,0,6.555-5.733,8.423-8.829a4.276,4.276,0,0,1,3.421-2.133c1.559-.07,3.3.715,4.011,4.13,0,0,8.536,4.872,10.826.6,0,0,.357,6.561,1.776,8.358h0A2.383,2.383,0,0,1,816.981,797.292Z" transform="translate(-372.248 -369.777)" fill="#a27772"/>
      <path id="Path_419" data-name="Path 419" d="M816.981,808.387a4.033,4.033,0,0,1-3.459,3.529c-4.834.72-16.478,2.56-19.417,3.962-3.74,1.781-18.513.541-19.228-1.245a2.826,2.826,0,0,1,.254-2.165,5.707,5.707,0,0,1,2.387-2.566c2.409,1.624,7.757,3.161,19.52,1.326,11.221-1.754,16.781-3.47,19.487-4.639h0a2.381,2.381,0,0,1,.455,1.8Z" transform="translate(-372.248 -380.872)" opacity="0.1"/>
      <g id="Group_39" data-name="Group 39" transform="translate(450.976 128.38)" opacity="0.1">
        <path id="Path_420" data-name="Path 420" d="M942.438,268.65v-.087a15.94,15.94,0,0,0,.541-4.044,26.7,26.7,0,0,1-.541,3.248A1.971,1.971,0,0,0,942.438,268.65Z" transform="translate(-900.109 -260.612)"/>
        <path id="Path_421" data-name="Path 421" d="M896.225,282a5.146,5.146,0,0,1,.438,2.035,6.139,6.139,0,0,0-.438-2.836,2.631,2.631,0,0,0-2.82-1.624c-1.526.357-2.165,2.339-3.675,2.815a2.94,2.94,0,0,1-3.248-1.667,8.236,8.236,0,0,1-.617-3.876v-4.46c0-1.624-.054-3.367-1.05-4.639-1.245-1.586-4.157-2.273-6.106-2.214a5.186,5.186,0,0,0-3.486,1.407,4.5,4.5,0,0,1-3.67,1.3A3.172,3.172,0,0,1,869,266.037c-.146-.574-.108-1.191-.276-1.759-.417-1.4-1.911-2.127-2.912-3.188a5.83,5.83,0,0,1-1.5-3.789,6.069,6.069,0,0,0,1.5,4.563c1,1.083,2.5,1.792,2.912,3.188.168.541.13,1.186.276,1.759a3.172,3.172,0,0,0,2.555,2.209,4.5,4.5,0,0,0,3.67-1.3,5.186,5.186,0,0,1,3.486-1.407c1.949-.06,4.872.628,6.106,2.214,1,1.272,1.045,3.021,1.05,4.639v4.46a8.192,8.192,0,0,0,.617,3.87,2.947,2.947,0,0,0,3.248,1.673c1.494-.476,2.165-2.458,3.675-2.815A2.734,2.734,0,0,1,896.225,282Z" transform="translate(-864.285 -257.3)"/>
        <path id="Path_422" data-name="Path 422" d="M939.915,292.9a6.844,6.844,0,0,1-1.516,2.447l-5.879,7.064c-2.474,2.972-5.088,6.415-4.872,10.209.179-3.481,2.6-6.647,4.872-9.408l5.879-7.064a6.843,6.843,0,0,0,1.516-2.447,6.759,6.759,0,0,0,.157-1.954A5.144,5.144,0,0,1,939.915,292.9Z" transform="translate(-893.343 -273.102)"/>
        <path id="Path_423" data-name="Path 423" d="M921.834,327.3a4.162,4.162,0,0,1-.179-.953,4.8,4.8,0,0,0,.179,1.754c.4,1.288,1.868,2.355,3.107,1.8a7.606,7.606,0,0,1-.065-.779C923.642,329.619,922.213,328.569,921.834,327.3Z" transform="translate(-890.593 -288.972)"/>
      </g>
      <path id="Path_424" data-name="Path 424" d="M812.69,789.36s1.862,3.248,8.607.39" transform="translate(-389.643 -372.969)" opacity="0.1"/>
      <path id="Path_425" data-name="Path 425" d="M918,790.82s5.814,6.848,13.143,2.246" transform="translate(-437.947 -373.638)" opacity="0.1"/>
      <path id="Path_426" data-name="Path 426" d="M945.664,641.23s-4.109,2.566-4.239,4.033,2.122-1.083,2.122-1.083Z" transform="translate(-448.689 -305.023)" opacity="0.1"/>
      <path id="Path_427" data-name="Path 427" d="M946.01,677.59a8.59,8.59,0,0,1-5.061,1.976c-3.075.135-2.815,4.141-.807,2.939A50.381,50.381,0,0,0,946.01,677.59Z" transform="translate(-447.411 -321.701)" opacity="0.1"/>
      <path id="Path_428" data-name="Path 428" d="M950.672,682.34s-1.97,9.684-3.573,7.817" transform="translate(-451.295 -323.88)" opacity="0.1"/>
      <path id="Path_429" data-name="Path 429" d="M245.455,547.389s12.369,3.394,18.323-1.121,8.536-3.064,8.536-3.064,14.2-.785,15.368-4.141-5.446-15.547-5.446-15.547c-.471-1.083-1.158-2.458-1.467-2.458l.065-5.143h0l2.057-21.517c4.747-12.174.087-27.9.087-27.9l-.85-3.9a9.874,9.874,0,0,1,.807-6.5l8.623-17.322a25.922,25.922,0,0,1,1.624-3.324c.541-.991,1.261-2.214,2.165-3.681.265-.422.541-.861.844-1.321,1.045-1.624,2.311-3.464,3.843-5.586,3.816-5.289,5.825-11.909,6.864-16.781l.46,1.527h.1l.125.027h.206l.222.038h.081l2.652,33.756c.162,13.165,5,20.451,5,20.451l-.666,29.063c.909,7-1.083,16.331-2,20.056l-2.089,4.715a5.668,5.668,0,0,0-3.08,4.287c-.411,3.481-4.076,10.983-4.076,10.983-1.418,1.8-4.5,6.653-4.5,6.653s-1.451,4.688-.552,6.442,8.412,1.575,8.412,1.575c8.58,1.9,15.157-2.707,14.74-5.879s1.337-3.979,1.337-3.979c3.41-1.083,3.08-3.394,3.08-3.394a21.241,21.241,0,0,0-2.582-13.825l-.541,1.25a19.037,19.037,0,0,1,1.028-7.378l-.314.217-.1.06h-.032c.541-4.747,5.527-13.533,5.527-13.533,9.159-16.066,5.83-37.838,5.83-37.838l-1.418-6.788-.081-2.56a85.459,85.459,0,0,1,1.38-18.242c.493-2.663,1-5.879,1.391-9.424a83.3,83.3,0,0,1,4.7-18.5l.363-.065h.043c.5-.087,1-.173,1.51-.271h.1s.292-1.581.541-4.271c.146-1.716.265-3.892.265-6.393a71.928,71.928,0,0,0-3.416-22.253l.276-.4s.655-.888,1.851-2.425h0c2.2-2.793,5.619-7.037,9.836-11.822,7.551-8.612,5.332-17.322,5.332-17.322s-5.467-20.034-7.9-32.062a36.462,36.462,0,0,0-6-14.264,28.386,28.386,0,0,0,.758-5.781c.162-3.562.038-7.275-1.564-10.474s-5.013-5.727-8.574-5.3a3.279,3.279,0,0,1-1.537,0,2.338,2.338,0,0,1-1.012-.882c-2.084-2.874-2.219-6.739-1.57-10.225s1.981-6.821,2.577-10.317.325-7.378-1.9-10.15c-2.615-3.248-7.172-4.163-10.572-6.6-2.387-1.716-4.179-4.179-6.7-5.7s-4.872-.942-7.605-.368c-4.6.969-8.964,1.413-13.311,3.389a35.451,35.451,0,0,0-11.6,8.439,11.01,11.01,0,0,0-2.587,4.082c-1.083,3.578,1.034,7.389.59,11.092-.314,2.625-1.862,4.91-3.091,7.254s-2.165,5.126-1.2,7.578c1.516,3.832,6.458,4.644,10.052,6.685a3.07,3.07,0,0,1,1.191,1.034c.888,1.548-.926,3.156-2.068,4.531a6.827,6.827,0,0,0-1.353,2.75,9.808,9.808,0,0,0-5.884,7.1c-1.218,5.451.655,12.331,2.306,16.878-1.8,10.128.541,14.123,2.268,15.655a8.688,8.688,0,0,1,3.01,5.922v.189c.114,1.84.309,3.676.568,5.505h0c-.06-.428-.119-.882-.152-1.083-1.413,2.615-4.1,9.294-5.619,20.532a61.716,61.716,0,0,1-1.37,7.151,39.1,39.1,0,0,0-1.148,12.786l.271,3.643a1.148,1.148,0,0,1-.736-.244l1.9,3.481v5.873a21.654,21.654,0,0,1-1.44,7.746c-.135.357-.281.715-.438,1.083a6.3,6.3,0,0,0-.639,3.188C271.676,409,262.306,444.1,262.306,444.1c-5.083,11.508.417,18.946.417,18.946s2.663,32.04,3.161,33.7,1.6,21.187,1.6,21.187h0v1.554a3.648,3.648,0,0,0-.926-.265c-4.455-.249-5.662,6.788-5.662,6.788l-9.116,8.7s-4.163-.7-10.285,3.892S245.455,547.389,245.455,547.389Zm91.022-185.178-.027-.1-.249.146h0l-.1.06-.049.032h0l-4.2-14.827a24.619,24.619,0,0,1-.309-12.2l3.248-14.226h0v-3.421l10.323,27.51C345.771,348.9,339.638,357.881,336.477,362.211Z" transform="translate(-126.74 -116.35)" fill="url(#linear-gradient-4)"/>
      <path id="Path_430" data-name="Path 430" d="M398.86,557s-4.168,10.139-5.229,19.866c-.384,3.508-.882,6.68-1.37,9.311a85.083,85.083,0,0,0-1.332,18.01l.081,2.528,1.353,6.7s3.248,21.506-5.722,37.351c0,0-5.316,9.489-5.478,13.982l-3.6,1.391-7.275-2.041s3.513-12.6,2.371-21.425l.655-28.69s-4.726-7.178-4.888-20.169l-2.777-35.651Z" transform="translate(-184.592 -266.388)" fill="#fdc2cc"/>
      <path id="Path_431" data-name="Path 431" d="M325.883,547.62s-.893,13.9-7.768,23.482-8.336,13.739-8.336,13.739l-8.466,17.116a9.8,9.8,0,0,0-.8,6.4l.834,3.854s4.579,15.536-.081,27.558L299.061,663H286.145s-1.083-19.3-1.554-20.933-3.107-33.28-3.107-33.28-5.413-7.362-.411-18.724c0,0,11.286-42.52,14.307-41.784S325.883,547.62,325.883,547.62Z" transform="translate(-144.824 -262.086)" fill="#fdc2cc"/>
      <g id="Group_40" data-name="Group 40" transform="translate(152.926 285.534)" opacity="0.1">
        <path id="Path_432" data-name="Path 432" d="M315.97,612.242l-.828-3.854a9.744,9.744,0,0,1,.79-6.431l8.466-17.133s1.467-4.168,8.336-13.739c6.6-9.2,7.687-22.389,7.762-23.4l1.315-.065s-.893,13.9-7.768,23.482-8.336,13.739-8.336,13.739l-8.466,17.116a9.8,9.8,0,0,0-.8,6.4l.834,3.854s4.58,15.536-.081,27.558L314.99,663h-1.31l2.209-23.222C320.549,627.751,315.97,612.242,315.97,612.242Z" transform="translate(-313.68 -547.62)"/>
      </g>
      <path id="Path_433" data-name="Path 433" d="M389.329,664.759c.162-4.493,5.478-13.982,5.478-13.982,9-15.861,5.722-37.351,5.722-37.351l-1.386-6.7-.081-2.528a85.087,85.087,0,0,1,1.332-18.009c.482-2.631.98-5.8,1.364-9.311,1.023-9.365,4.926-19.108,5.213-19.823l1.342-.054s-4.168,10.139-5.229,19.866c-.384,3.508-.882,6.68-1.37,9.311a85.083,85.083,0,0,0-1.332,18.01l.081,2.528,1.353,6.7s3.248,21.506-5.722,37.351c0,0-5.316,9.489-5.478,13.982l-3.6,1.391-.758-.211Z" transform="translate(-194.045 -266.388)" opacity="0.1"/>
      <path id="Path_434" data-name="Path 434" d="M377.221,753.986a6.257,6.257,0,0,0,5.954-.736,19.217,19.217,0,0,0-.487,10.794c1.472,5.889-13.739-4.742-13.739-4.742l3.248-7.421S373.459,754.229,377.221,753.986Z" transform="translate(-186.105 -355.777)" fill="#d39999"/>
      <path id="Path_435" data-name="Path 435" d="M378.362,754.3a6.079,6.079,0,0,0,4.834-1.083,19.216,19.216,0,0,0-.487,10.794c1.472,5.89-13.739-4.742-13.739-4.742l3.248-7.421a4.64,4.64,0,0,0,3.708,2.089C376.765,754.037,377.566,754.151,378.362,754.3Z" transform="translate(-186.115 -355.763)" opacity="0.1"/>
      <path id="Path_436" data-name="Path 436" d="M289.32,450.222h6.355V414.165l-4.769-.855Z" transform="translate(-132.713 -189.578)" fill="#fdc2cc"/>
      <path id="Path_437" data-name="Path 437" d="M289.32,450.222h6.355V414.165l-4.769-.855Z" transform="translate(-132.713 -189.578)" opacity="0.05"/>
      <path id="Path_438" data-name="Path 438" d="M364.224,760.362a6.336,6.336,0,0,1,5.8,3.351l2.209,1.716,1.083-2.533a21.111,21.111,0,0,1,2.5,13.657s.325,2.284-3.026,3.351c0,0-1.716.817-1.31,3.925s-6.047,7.687-14.469,5.8c0,0-7.362.168-8.26-1.554s.574-6.3.574-6.3,3.026-4.8,4.412-6.566c0,0,3.6-7.416,4.011-10.826S362.1,758.478,364.224,760.362Z" transform="translate(-176.708 -359.371)" fill="#7e5659"/>
      <path id="Path_439" data-name="Path 439" d="M304.79,761.959l.065-5.083s-7.313,2.106-13.235-.276c0,0,.5,5.11-.325,5.808s2.739,7.275,2.739,7.275l3.979,4.168,6.842-2.49,1.857-5.846S305.278,761.959,304.79,761.959Z" transform="translate(-150.43 -357.942)" fill="#d39999"/>
      <path id="Path_440" data-name="Path 440" d="M304.79,761.959l.065-5.083s-7.313,2.106-13.235-.276c0,0,.5,5.11-.325,5.808s2.739,7.275,2.739,7.275l3.979,4.168,6.842-2.49,1.857-5.846S305.278,761.959,304.79,761.959Z" transform="translate(-150.43 -357.942)" opacity="0.1"/>
      <path id="Path_441" data-name="Path 441" d="M268.075,763.094s3.887.449,3.394,5.413.206,0,.206,0,4.13,1.673,5.6,4.006,4.13-2.084,4.331-3.351,1.857-1.792,1.857-1.792,6.5,12.044,5.348,15.357-15.092,4.076-15.092,4.076-2.539-1.429-8.385,3.026-17.988,1.083-17.988,1.083-9.9-4.13-3.881-8.661,10.1-3.843,10.1-3.843l8.953-8.629S263.7,762.845,268.075,763.094Z" transform="translate(-127.659 -360.918)" fill="#7e5659"/>
      <path id="Path_442" data-name="Path 442" d="M343.708,236.266c2.474,1.5,4.233,3.935,6.577,5.63,3.335,2.409,7.811,3.307,10.377,6.523,2.165,2.739,2.447,6.566,1.862,10.02s-1.895,6.75-2.528,10.193-.5,7.259,1.543,10.1a2.29,2.29,0,0,0,.991.871,3.247,3.247,0,0,0,1.51,0c3.5-.422,6.853,2.079,8.423,5.234s1.694,6.826,1.532,10.345a21.381,21.381,0,0,1-1.727,8.428c-2.165,4.417-6.669,7.145-11.113,9.235a86.078,86.078,0,0,1-8.872,3.583,13.351,13.351,0,0,1-6.431.969c-3.7-.639-6.317-4-9.825-5.316-2.874-1.083-6.063-.693-9.121-.422-2.609.227-5.592.222-7.389-1.683-2.306-2.447-1.267-6.393-.087-9.543a6.794,6.794,0,0,1-4.807-11.108c1.115-1.359,2.9-2.945,2.025-4.477a2.967,2.967,0,0,0-1.169-1.018c-3.524-2.014-8.38-2.82-9.863-6.6-.953-2.431-.033-5.18,1.175-7.492s2.707-4.574,3.037-7.162c.433-3.659-1.624-7.421-.579-10.951a10.978,10.978,0,0,1,2.539-4.038,34.84,34.84,0,0,1,11.368-8.331c4.271-1.954,8.553-2.393,13.067-3.345C338.928,235.334,341.169,234.728,343.708,236.266Z" transform="translate(-156.873 -118.826)" fill="#865a61"/>
      <path id="Path_443" data-name="Path 443" d="M321.451,337.755s-10.355-.541-12.315,8.288,4.249,21.474,4.249,21.474Z" transform="translate(-158.494 -165.821)" fill="#fdc2cc"/>
      <path id="Path_444" data-name="Path 444" d="M321.451,337.755s-10.355-.541-12.315,8.288,4.249,21.474,4.249,21.474Z" transform="translate(-158.494 -165.821)" opacity="0.05"/>
      <path id="Path_445" data-name="Path 445" d="M320,345.892,323.924,349l18.313.817,11.433-7.849L365.3,322.015A14.375,14.375,0,0,1,354.244,310.7a24.77,24.77,0,0,1-.227-9.451s-18.643-9.652-16.353,5.413a20.462,20.462,0,0,1,.173,5.6c-1.083,8.823-9.646,7.162-9.646,7.162l-3.286,5.067-3.762,12.45Z" transform="translate(-163.653 -147.683)" fill="#fdc2cc"/>
      <path id="Path_446" data-name="Path 446" d="M352.495,306.638a20.461,20.461,0,0,1,.173,5.6,16.526,16.526,0,0,0,16.407-1.537,24.77,24.77,0,0,1-.227-9.451S350.205,291.6,352.495,306.638Z" transform="translate(-178.468 -147.68)" opacity="0.1"/>
      <circle id="Ellipse_135" data-name="Ellipse 135" cx="16.515" cy="16.515" r="16.515" transform="translate(164.554 132.364)" fill="#fdc2cc"/>
      <path id="Path_447" data-name="Path 447" d="M329.6,360.463c.4,0,.8.06,1.191.1,2.165.216,11.211.7,16.364-5.451,5.765-6.885,13.441-15.39,13.755-15.736l7.811,2.36s-6.182-2.2-10.285,9.3a11.909,11.909,0,0,0,4.022,13.7,12.374,12.374,0,0,0,5.11,2.165.027.027,0,0,1,0,.027v5.045h0l-3.194,14.074a24.4,24.4,0,0,0,.3,12.044l4.872,17.219c-.736.509-30.963,21.068-51.154,6.869h0c.076-.617,2.571-20.824.839-30.714a68.287,68.287,0,0,1-.9-7.643c0-.065,0-.125,0-.19a8.618,8.618,0,0,0-2.961-5.846c-1.819-1.624-4.282-5.954-1.846-17.4a42.039,42.039,0,0,1,2.707-8.244L323,336.84h0l6.241.125v.043c-.541.671-7.779,9.711-8.564,15.536C319.914,358.081,318.966,359.781,329.6,360.463Z" transform="translate(-160.216 -165.404)" fill="#2e7eb7"/>
      <path id="Path_448" data-name="Path 448" d="M400.393,348.357s6.106,5.234,8.5,17.116,7.741,31.618,7.741,31.618,2.165,8.612-5.235,17.116-12.32,15.157-12.32,15.157l-4.872,7.178a6.111,6.111,0,0,1-3.508,2.479c-2.219.585-5.63,1.007-8.585-.612a5,5,0,0,1-2.165-6.317l1.083-2.506s-10.031,6.323-10.9,2.831S381.8,425.44,381.8,425.44s10.355-1.743,12.45-6.647c0,0,11.119-14.285,10.247-19.19l-10.74-28.782s-13.43-1.776-8.85-16.862S400.393,348.357,400.393,348.357Z" transform="translate(-186.628 -169.337)" fill="#fdc2cc"/>
      <path id="Path_449" data-name="Path 449" d="M307.362,517.085s24.532,4.9,30.314,4.249l.622,2.073s9.311,2.084,30.362-1.256q2.062-.325,4.282-.731l.493-.087s.287-1.559.514-4.217a73.128,73.128,0,0,0-3.567-29.686l-3.54-10.9s-21.88,13.116-36.365,11.909c-1.294-.108-2.577-.211-3.87-.254-2.972-.114-7.578,0-10.572-2.4l-6.279,1.083v17.863a21.4,21.4,0,0,1-1.418,7.643c-.135.357-.276.709-.433,1.083A5.684,5.684,0,0,0,307.362,517.085Z" transform="translate(-157.814 -229.478)" fill="#65617d"/>
      <path id="Path_450" data-name="Path 450" d="M364.58,552.241V557.8s10.718,2.4,35.137-2.073c0,0,.287-1.559.514-4.217C392.739,552.712,372.077,555.6,364.58,552.241Z" transform="translate(-184.101 -263.87)" opacity="0.1"/>
      <path id="Path_451" data-name="Path 451" d="M307.364,547.478s24.532,4.9,30.314,4.249l.622,2.073v-5.559c-2.793,1.158-22.735-3.648-29.962-5.451-.135.357-.276.709-.433,1.083a5.684,5.684,0,0,0-.541,3.605Z" transform="translate(-157.816 -259.87)" opacity="0.1"/>
      <path id="Path_452" data-name="Path 452" d="M417.31,537.046l1.819,11.281q2.063-.325,4.282-.731c-.568-3.3-1.808-10.826-1.467-12.077l-2.29-1.96Z" transform="translate(-208.287 -255.637)" fill="#65617d"/>
      <path id="Path_453" data-name="Path 453" d="M417.78,536.6l1.819,11.286q2.062-.33,4.282-.731c-.568-3.3-1.808-10.826-1.467-12.077l-2.29-1.965Z" transform="translate(-208.503 -255.43)" opacity="0.1"/>
      <g id="Group_41" data-name="Group 41" transform="translate(157.165 247.036)" opacity="0.05">
        <path id="Path_454" data-name="Path 454" d="M335.692,496.272c-1.288-.108-2.577-.211-3.87-.254-2.891-.108-7.3,0-10.312-2.214l1.05-.184c3.01,2.387,7.578,2.284,10.572,2.4,1.294.043,2.577.146,3.87.254.422.038.855.06,1.294.07A24.289,24.289,0,0,1,335.692,496.272Z" transform="translate(-321.51 -484.353)"/>
        <path id="Path_455" data-name="Path 455" d="M400.65,522.138q2.062-.325,4.282-.725l.5-.092s.287-1.559.509-4.217a72.936,72.936,0,0,0-3.567-29.686l-3.335-10.285c.709-.4,1.083-.633,1.083-.633l3.54,10.9a73.129,73.129,0,0,1,3.567,29.686c-.227,2.658-.514,4.217-.514,4.217l-.493.092q-2.214.4-4.282.725a134.849,134.849,0,0,1-22.059,1.895A139.131,139.131,0,0,0,400.65,522.138Z" transform="translate(-348.283 -476.5)"/>
        <path id="Path_456" data-name="Path 456" d="M360.4,559.3v.06h-.7Q360.1,559.332,360.4,559.3Z" transform="translate(-339.027 -514.479)"/>
      </g>
      <ellipse id="Ellipse_136" data-name="Ellipse 136" cx="0.926" cy="1.905" rx="0.926" ry="1.905" transform="translate(211.144 279.704)" fill="#d39999"/>
      <path id="Path_457" data-name="Path 457" d="M311.616,451.912c1.494-11.1,4.13-17.69,5.521-20.272.054.352.195,1.494.26,1.846a53.6,53.6,0,0,1,.119,5.732l-1.386,25.1,1.857,7.849c1.743,6.214-4.715,1.3-4.715,1.3-1.337,2.945-3.789,2.62-3.789,2.62l-.336-4.5a38.9,38.9,0,0,1,1.126-12.629,60.174,60.174,0,0,0,1.342-7.042Z" transform="translate(-158.625 -208.887)" fill="#fdc2cc"/>
      <path id="Path_458" data-name="Path 458" d="M311.616,451.912c1.494-11.1,4.13-17.69,5.521-20.272.054.352.195,1.494.26,1.846a53.6,53.6,0,0,1,.119,5.732l-1.386,25.1,1.857,7.849c1.743,6.214-4.715,1.3-4.715,1.3-1.337,2.945-3.789,2.62-3.789,2.62l-.336-4.5a38.9,38.9,0,0,1,1.126-12.629,60.174,60.174,0,0,0,1.342-7.042Z" transform="translate(-158.625 -208.887)" opacity="0.05"/>
      <path id="Path_459" data-name="Path 459" d="M402.471,484.679c-1.175,1.521-1.819,2.393-1.819,2.393l-4.872,7.172a6.084,6.084,0,0,1-3.508,2.479c-2.219.585-5.63,1.012-8.585-.612a4.991,4.991,0,0,1-2.165-6.312l1.083-2.512s-10.031,6.323-10.9,2.836,11.665-6.978,11.665-6.978,10.355-1.743,12.45-6.653c0,0,.9-1.158,2.165-2.934" transform="translate(-187.348 -228.116)" fill="#fdc2cc"/>
      <path id="Path_460" data-name="Path 460" d="M402.618,509.586s-11.86-1.153-15.617-7.936l-1.721,5.6s12.45,8.6,15.292,7.481Z" transform="translate(-193.596 -241)" fill="#65617d"/>
      <path id="Path_461" data-name="Path 461" d="M401.843,509.481s-11.855-1.153-15.617-7.941l-1.716,5.586s12.45,8.6,15.287,7.481Z" transform="translate(-193.243 -240.95)" opacity="0.1"/>
      <path id="Path_462" data-name="Path 462" d="M313.369,510.46s-4.152,1.472-4.969.655l1.868,3.437,3.529-2.707Z" transform="translate(-158.332 -245.041)" fill="#65617d"/>
      <path id="Path_463" data-name="Path 463" d="M313.369,510.46s-4.152,1.472-4.969.655l1.868,3.437,3.529-2.707Z" transform="translate(-158.332 -245.041)" opacity="0.1"/>
      <path id="Path_464" data-name="Path 464" d="M331.975,526.642V519.47l-1.705,7.346Z" transform="translate(-151.496 -238.272)" opacity="0.1"/>
      <path id="Path_465" data-name="Path 465" d="M363.9,265.9a6.37,6.37,0,0,1-4.45,2.344,35.064,35.064,0,0,1-5.17,0,12.965,12.965,0,0,0-7.8,1.965A19.832,19.832,0,0,0,342.905,274c-3.345,4.087-7.99,7.914-13.262,7.486a3.438,3.438,0,0,1-2.463-1.039,3.952,3.952,0,0,1-.628-2.241,51.224,51.224,0,0,1,.319-10.1,21.294,21.294,0,0,1,1.526-6.025,20.568,20.568,0,0,1,3.67-5.24,22.448,22.448,0,0,1,6.4-5.132,11.487,11.487,0,0,1,8.011-1.034c3.156.861,5.613,3.329,8.623,4.6C358.544,256.718,367.67,260.578,363.9,265.9Z" transform="translate(-166.605 -125.74)" opacity="0.1"/>
      <path id="Path_466" data-name="Path 466" d="M363.9,264.684a6.37,6.37,0,0,1-4.45,2.344,35.056,35.056,0,0,1-5.17,0,12.924,12.924,0,0,0-7.8,1.96,19.832,19.832,0,0,0-3.578,3.789c-3.345,4.087-7.99,7.914-13.262,7.486a3.416,3.416,0,0,1-2.463-1.039,3.935,3.935,0,0,1-.628-2.241,51.234,51.234,0,0,1,.319-10.1,21.3,21.3,0,0,1,1.527-6.025,20.431,20.431,0,0,1,3.67-5.235,22.372,22.372,0,0,1,6.4-5.137,11.487,11.487,0,0,1,8.011-1.034c3.156.861,5.613,3.329,8.623,4.6C358.544,255.5,367.67,259.352,363.9,264.684Z" transform="translate(-166.605 -125.18)" fill="#865a61"/>
      <path id="Path_467" data-name="Path 467" d="M291.887,473.47l-.043,1.976-.444-1.889Z" transform="translate(-133.667 -217.172)" fill="#fdc2cc"/>
      <path id="Path_468" data-name="Path 468" d="M291.887,473.47l-.043,1.976-.444-1.889Z" transform="translate(-133.667 -217.172)" opacity="0.05"/>
      <g id="Group_42" data-name="Group 42" transform="translate(197.045 176.541)" opacity="0.05">
        <path id="Path_469" data-name="Path 469" d="M398.1,353.318c-4.585,15.086,8.78,16.856,8.78,16.856l10.74,28.782c.871,4.9-10.252,19.19-10.252,19.19-.774,1.83-2.707,3.221-4.818,4.249a7.545,7.545,0,0,0,2.858-3.14s11.119-14.28,10.247-19.184l-10.74-28.787s-13.36-1.77-8.78-16.857c1.532-5.04,3.789-7.335,6.074-8.158C400.638,347.537,399.193,349.729,398.1,353.318Z" transform="translate(-395.184 -346.27)"/>
      </g>
      <g id="Group_43" data-name="Group 43" transform="translate(152.329 171.431)" opacity="0.1">
        <path id="Path_470" data-name="Path 470" d="M401,384.61a11.281,11.281,0,0,0,2.165,2.052,12.3,12.3,0,0,0,5.11,2.165v.568a12.265,12.265,0,0,1-4.634-2.052A11.233,11.233,0,0,1,401,384.61Z" transform="translate(-353.136 -358.746)"/>
        <path id="Path_471" data-name="Path 471" d="M322.642,420.457v.189a69.909,69.909,0,0,0,.931,7.67c1.624,9.332-.5,27.861-.807,30.422-.173-.114-.346-.222-.541-.346.081-.617,2.577-20.824.844-30.709a68.6,68.6,0,0,1-.9-7.643v-.189a8.352,8.352,0,0,0-1.456-4.141,8.417,8.417,0,0,1,1.932,4.747Z" transform="translate(-316.308 -373.011)"/>
        <path id="Path_472" data-name="Path 472" d="M328.878,337.572l-5.294-.1a.027.027,0,0,0-.027,0l-6.766,15.3a42.177,42.177,0,0,0-2.707,8.244c-1.97,9.256-.731,13.868.774,16.147-1.694-2-3.443-6.55-1.261-16.781a41.731,41.731,0,0,1,2.68-8.25l6.815-15.3h0l6.241.125v.038C329.284,337.057,329.116,337.263,328.878,337.572Z" transform="translate(-312.577 -336.83)"/>
        <path id="Path_473" data-name="Path 473" d="M416.39,345.87l.092.027Z" transform="translate(-360.195 -340.976)"/>
        <path id="Path_474" data-name="Path 474" d="M374.11,343.8l-5.3-1.6h-.027c-.314.346-7.984,8.85-13.749,15.736-5.153,6.155-14.188,5.673-16.364,5.456-.4-.043-.8-.076-1.191-.1-5.917-.379-8.244-1.083-9.024-2.577,1.11,1.083,3.551,1.624,8.531,1.927.4,0,.8.06,1.191.1,2.165.217,11.211.7,16.364-5.451,5.765-6.891,13.441-15.395,13.755-15.741h0l7.719,2.338a4.823,4.823,0,0,0-1.9-.087Z" transform="translate(-319.858 -338.995)"/>
      </g>
      <path id="Path_475" data-name="Path 475" d="M289.215,776.644s-7.47,2.041-8.915-1.164" transform="translate(-145.443 -366.602)" opacity="0.1"/>
      <path id="Path_476" data-name="Path 476" d="M375.344,773.763S366.683,776,364.68,772.54" transform="translate(-184.147 -365.253)" opacity="0.1"/>
      <ellipse id="Ellipse_141" data-name="Ellipse 141" cx="14.578" cy="2.463" rx="14.578" ry="2.463" transform="translate(89.674 385.152)" fill="#2e7eb7" opacity="0.1"/>
      <ellipse id="Ellipse_142" data-name="Ellipse 142" cx="14.578" cy="2.463" rx="14.578" ry="2.463" transform="translate(32.246 420.083)" fill="#2e7eb7" opacity="0.1"/>
      <ellipse id="Ellipse_143" data-name="Ellipse 143" cx="21.766" cy="3.681" rx="21.766" ry="3.681" transform="translate(9.878 387.615)" fill="#2e7eb7"/>
      <path id="Path_529" data-name="Path 529" d="M71.182,723.38a6.3,6.3,0,0,1-2.079-3.129,2.79,2.79,0,0,1,1.451-3.188c1.332-.509,2.755.411,3.833,1.342s2.317,2,3.73,1.8a5.678,5.678,0,0,1-1.754-5.316,2.166,2.166,0,0,1,.487-1.083c.736-.79,2.079-.449,2.966.173,2.809,1.981,3.6,5.8,3.611,9.246a17.051,17.051,0,0,0,.054-3.789,3.9,3.9,0,0,1,1.429-3.367,4.331,4.331,0,0,1,2.165-.541,4.528,4.528,0,0,1,3.54,1.007c1.083,1.148.8,3.08-.141,4.331a14.154,14.154,0,0,1-3.659,2.934,8.075,8.075,0,0,0-2.62,2.5,2.553,2.553,0,0,0-.195.444H76.092a21.889,21.889,0,0,1-4.91-3.362Z" transform="translate(-48.539 -338.104)" fill="#2e7eb7"/>
      <ellipse id="Ellipse_144" data-name="Ellipse 144" cx="14.578" cy="2.463" rx="14.578" ry="2.463" transform="translate(542.878 405.755)" fill="#2e7eb7" opacity="0.1"/>
      <path id="Path_530" data-name="Path 530" d="M1042.91,749.3s8.315-.254,10.826-2.041,12.786-3.914,13.408-1.05,12.5,14.231,3.107,14.307-21.809-1.462-24.31-2.988S1042.91,749.3,1042.91,749.3Z" transform="translate(-495.241 -352.535)" fill="#a8a8a8"/>
      <path id="Path_531" data-name="Path 531" d="M1070.414,763.331c-9.386.076-21.81-1.462-24.311-2.988-1.905-1.158-2.663-5.321-2.918-7.243h-.276s.541,6.707,3.026,8.228,14.924,3.064,24.31,2.988c2.706,0,3.648-.985,3.594-2.414C1073.467,762.789,1072.433,763.331,1070.414,763.331Z" transform="translate(-495.241 -356.337)" opacity="0.2"/>
    </g>
    <path id="Path_267" data-name="Path 267" d="M2454.662,1498.815s46.124-185.871,195.6-54.8,121.208,59.776,161.068-5.511,140.616-2.362,142.1,60.271,56.216,147.349-68.1,125.311-295.988,48.715-364.065,0S2454.662,1498.815,2454.662,1498.815Z" transform="translate(1795.773 -2377.467) rotate(95)" fill="#d9e3f2"/>
    <path id="Path_119" data-name="Path 119" d="M412.7,125.686C378.4,124.55,345.736,114,314.547,102.46S252.464,78.129,218.99,72.014c-21.53-3.933-46.154-4.489-63.5,6.508-16.7,10.6-22.091,28.856-24.99,45.811-2.183,12.754-3.466,26.175,2.517,38.116,4.149,8.291,11.52,15.258,16.612,23.226,17.736,27.629,5.2,61.7-14.016,88.678-9.008,12.658-19.474,24.741-26.426,38.2S99.016,341.46,105.1,355.2c6.036,13.633,20.412,23.852,35.98,31.047,31.63,14.617,68.887,18.8,105.243,21.166,80.454,5.246,161.333,2.974,242,.7,29.854-.843,59.836-1.7,89.2-6.094,16.31-2.444,33.145-6.316,44.988-15.678,15.028-11.881,18.753-32,8.685-46.9-16.9-24.988-63.588-31.194-75.415-58.014-6.5-14.759.18-31.2,9.623-44.892,20.263-29.366,54.224-55.131,56.015-88.7,1.229-23.059-15.1-46.144-40.346-57.055-26.458-11.477-63.158-10.023-82.669,8.907C478.3,119.2,442.978,126.686,412.7,125.686Z" transform="matrix(0.978, -0.208, 0.208, 0.978, -44.473, 722.512)" fill="#b4cee5" opacity="0.89"/>
    <path id="Path_534" data-name="Path 534" d="M-38.248,397.7c187.756,52.694,144.774,459.773,326.511,43.9s315.73,106.279,315.73,106.279,137.073,549.879,209.46,39.277S648.658-92.112,503.884,46.513,163.343,99.527,27.81,187.323-226,345-38.248,397.7Z" transform="matrix(0.545, -0.839, 0.839, 0.545, -417.91, 1894.977)" fill="#d9e3f2"/>
    <path id="Path_535" data-name="Path 535" d="M91.657,382.855c176.776-49.613,136.307-432.886,307.417-41.331S696.34,241.46,696.34,241.46,825.4-276.262,893.551,204.48,738.392,844.019,602.085,713.5,281.46,663.587,153.853,580.926-85.119,432.468,91.657,382.855Z" transform="translate(564.526 2110.234) rotate(-75)" fill="#d9e3f2"/>
    <path id="Path_543" data-name="Path 543" d="M412.7,125.686C378.4,124.55,345.736,114,314.547,102.46S252.464,78.129,218.99,72.014c-21.53-3.933-46.154-4.489-63.5,6.508-16.7,10.6-22.091,28.856-24.99,45.811-2.183,12.754-3.466,26.175,2.517,38.116,4.149,8.291,11.52,15.258,16.612,23.226,17.736,27.629,5.2,61.7-14.016,88.678-9.008,12.658-19.474,24.741-26.426,38.2S99.016,341.46,105.1,355.2c6.036,13.633,20.412,23.852,35.98,31.047,31.63,14.617,68.887,18.8,105.243,21.166,80.454,5.246,161.333,2.974,242,.7,29.854-.843,59.836-1.7,89.2-6.094,16.31-2.444,33.145-6.316,44.988-15.678,15.028-11.881,18.753-32,8.685-46.9-16.9-24.988-63.588-31.194-75.415-58.014-6.5-14.759.18-31.2,9.623-44.892,20.263-29.366,54.224-55.131,56.015-88.7,1.229-23.059-15.1-46.144-40.346-57.055-26.458-11.477-63.158-10.023-82.669,8.907C478.3,119.2,442.978,126.686,412.7,125.686Z" transform="matrix(0.978, -0.208, 0.208, 0.978, -19.436, 722.395)" fill="#d9e3f2"/>
  </g>
</svg>
