<?xml version="1.0" encoding="utf-8"?>
<!-- Generator: Adobe Illustrator 25.0.1, SVG Export Plug-In . SVG Version: 6.00 Build 0)  -->
<svg version="1.1" id="Layer_1" xmlns="http://www.w3.org/2000/svg" xmlns:xlink="http://www.w3.org/1999/xlink" x="0px" y="0px"
	 viewBox="0 0 710.8 483.1" style="enable-background:new 0 0 710.8 483.1;" xml:space="preserve">
<style type="text/css">
	.st0{fill:#7C7C7C;}
</style>
<path class="st0" d="M347,4c-10.5,6.4-21.7,20.3-29.6,35.8c-8.1,16.5-15.5,38.4-13.6,40.3c0.7,1,1.4,0.2,1.4-1.4
	c0-6.9,19.1-43.2,27.4-52.5c11.5-12.4,19.8-16.9,31.7-16.9c17.9,0,35.8,19.1,49.6,52.7c7.6,18.6,17.9,54.6,16.5,57.2
	c-0.6,1.1-0.3,2.4,0.7,3.1c1.9,1.2,6.4,29.1,11.9,74.2l1.7,14.3l3.8-13.1c3.6-13.4,3.3-18.4-3.8-68.2l-1.7-11.9l19.8-4.8
	c27.4-6.2,68.9-6.4,81.3,0c10.7,5.2,18.6,16.9,18.6,27.4c0,6.7,0.7,7.4,7.4,7.4c7.4,0,7.6,0,6-10.3c-2.6-16.4-15.7-29.8-34.6-35.1
	c-15.5-4.3-45.8-2.9-69.7,3.3c-12.4,3.1-24.1,6.4-26.2,7.4c-3.1,1.2-4.5-1.9-8.1-14.8C426,54.8,408.4,21.6,389.3,8.3
	C376.4-0.8,357.5-2.7,347,4z"/>
<path class="st0" d="M300.8,87c0,2.6,0.7,3.3,1.4,1.4c0.7-1.7,0.5-3.8-0.2-4.5C301.3,82.9,300.5,84.4,300.8,87z"/>
<path class="st0" d="M298.2,95.1c0,1.7,0.7,2.4,1.7,1.7c0.7-1,0.7-2.3,0-3.3C298.9,92.7,298.2,93.4,298.2,95.1z"/>
<path class="st0" d="M194.6,97.7c-14.5,2.4-31.7,11-37.9,19.1c-3.1,5.3-5.1,11.3-5.7,17.4c-1.4,11-1.4,11,6.2,11
	c6.9,0,7.4-0.5,7.4-9.3c0-12.2,8.4-22.4,22.7-27.9c14.3-5.2,56.8-3.6,82.3,3.3c30.5,8.6,30.1,8.3,27.4,6c-1.2-1.2-11-5-21.5-8.3
	C242.3,98.2,215.4,94.6,194.6,97.7z"/>
<path class="st0" d="M422.9,123c1,0.7,2.3,0.7,3.3,0c0.7-0.9,0-1.7-1.7-1.7S422.2,122.1,422.9,123z"/>
<path class="st0" d="M52.2,222C31,257.8,10.7,292.1,6.9,298.3L0,309.8h57l7.4-13.1l7.4-13.1h104.8l7.2,11.2
	c3.8,6.4,7.4,12.4,7.6,13.4c0.5,1,13.4,1.4,28.9,1.2l27.9-0.7l-45.6-75.9l-45.6-75.6H90.9L52.2,222z M141.7,223.2l15.5,26.9H91.1
	l15.7-28.4c8.8-15.7,16.7-27.7,17.6-26.9C125.5,195.8,133.1,208.6,141.7,223.2L141.7,223.2z"/>
<path class="st0" d="M212.8,160c0.5,1.7,12.6,36,27,76.3l26,73.5h59.9l19.1-50.1c10.5-27.4,19.8-49.1,20.8-48.2
	c0.7,1,6.9,16,13.6,33.4c6.7,17.6,13.1,33.4,14.1,35.3c1.4,2.6,5,1.2,16.9-7.2c8.3-6,15.5-11.2,16-11.7c0.7-0.5-7.6-24.3-18.4-52.7
	l-19.6-51.8l-23.6,0.7l-23.9,0.7L320.4,212c-11,29.6-21,54.6-22,55.6s-9.8-23.4-19.5-54.4l-17.7-56.1h-24.6
	C217.8,157.1,212.1,157.8,212.8,160z"/>
<path class="st0" d="M465.1,165.9c-1.2,5-7.6,25.8-14.3,46c-6.4,20.3-11.2,37.2-10.7,37.9c1.9,1.9,27.9-21.9,33.4-31
	c6.9-11,14.5-16.5,22.7-16.5c5.2,0,6.7-1.9,12.4-18.6c3.6-10,7.2-20.3,7.9-22.7c1.7-3.6-0.5-4.1-23.6-4.1h-25.1L465.1,165.9z"/>
<path class="st0" d="M531.9,233.4v76.3h178.9V274H582v-21.5h107.3v-38.2H582v-21.5h126.4v-35.8H531.9V233.4z"/>
<path class="st0" d="M485.9,214.4c-11.9,9.3-10,27.9,3.6,34.8c18.1,9.5,37.5-10.3,27.7-28.4C510.9,208.9,496.6,206,485.9,214.4z
	 M511.6,221.5c0,4.3-1.4,6.2-5.5,6.7c-5.7,1-9.1-4.3-6.7-10.5c0.7-2.1,3.6-3.3,6.7-2.9C510.2,215.3,511.6,217.2,511.6,221.5z"/>
<path class="st0" d="M458,244.6c-84.2,70.6-185.3,117.8-252.1,117.6c-21,0-36.5-5.5-41.5-14.5c-4.8-9.1-3.1-25,4-39.4
	c5-9.8,6-13.6,3.8-15.7c-4.1-4-11,3.1-19.6,20.3c-11.7,23.6-9.1,43.4,7.9,58.2c18.8,16.5,54.4,17.9,106.1,4.3
	c12.4-3.3,23.1-6,24.3-6c1,0,3.1,6.7,4.5,14.8c6.7,35.8,18.8,63.2,35.3,80.9c38.9,41.7,82.5,9.3,106.2-79c4.5-17.4,5.7-19.3,10-17.9
	c41,11.9,73.2,15,94,8.8c21-6.2,35.3-26,33.4-45.8c-0.7-7.1-1.7-8.4-7.2-9.1c-6.4-0.7-6.7-0.5-6.7,11.7c0,16.2-6.4,26.5-21,33.6
	c-9.8,4.8-14.3,5.5-35.1,5c-13.6-0.2-31.5-2.4-41.7-4.8c-20.3-5-18.8-2.4-15.5-32.4l1.9-16h-6.2c-6.2,0-6.4,0.5-10.3,26.7
	c-1,8.4-2.6,11.5-5.5,11.5c-3.1,0-3.3,0.5-0.2,2.1c2.9,1.9,2.4,6-3.1,27.7c-24.3,96-72.5,115.5-106.7,43.5
	c-10.5-21.7-22.7-61.3-19.8-63.7c1.2-1,11.7-5.2,23.4-9.5c51-18.6,107.8-49.1,154.3-83.2c18.4-13.4,21.7-16.9,15.3-16.9
	c-5.5,0-15.5-9.5-17.4-16.7l-1.9-6.9L458,244.6z"/>
<path class="st0" d="M453.7,297.8l-17.4,11.9h27.9l3.8-11.9c2.2-6.7,3.6-11.9,3.6-11.9C471.3,286.1,463.2,291.4,453.7,297.8z"/>
<path class="st0" d="M418.1,356.8c1,0.7,2.3,0.7,3.3,0c0.7-1,0-1.7-1.7-1.7S417.4,355.8,418.1,356.8z"/>
</svg>
