<?xml version="1.0" encoding="utf-8"?>
<!-- Generator: Adobe Illustrator 25.0.1, SVG Export Plug-In . SVG Version: 6.00 Build 0)  -->
<svg version="1.1" id="Layer_1" xmlns="http://www.w3.org/2000/svg" xmlns:xlink="http://www.w3.org/1999/xlink" x="0px" y="0px"
	 viewBox="0 0 400 400" style="enable-background:new 0 0 400 400;" xml:space="preserve">
<style type="text/css">
	.st0{fill:#7C7C7C;}
</style>
<path class="st0" d="M0,200v200h400V0H0V200z M136,125.8c2.2,4.2,2.8,62,0.8,69.6c-1.4,5.4-6.4,7.4-10,4.4
	c-2.2-1.8-2.8-10.2-2.8-38.8c0-20,0.6-37,1.4-37.6C128,120.6,134,122,136,125.8z M275.6,160.2c0.6,39-0.4,43.6-8.4,40.6
	c-2.8-1-3.2-6-3.2-38.6c0-20.6,0.6-38.2,1.4-39s3.2-1.2,5.6-0.8C274.8,123,275,124.4,275.6,160.2L275.6,160.2z M101.6,167.6
	C101,186.8,101,187,96,187s-5-0.2-5.6-19.8c-0.6-21,0.8-24.8,8-21C101.8,148,102,150.4,101.6,167.6L101.6,167.6z M171.6,167.6
	c-0.6,18.8-0.8,19.4-5.4,20c-6.8,1-8.2-2.4-8.2-21c0-18.4,3-24.4,10.2-20.4C171.8,148,172,150,171.6,167.6L171.6,167.6z
	 M238.8,147.2c2.4,2.2,3.2,7.2,3.2,19.4c0,18.6-1.4,22-8.2,21c-4.6-0.6-4.8-1.2-5.4-19.6c-0.4-16,0-19.4,3-21.4
	C235.6,143.4,235,143.4,238.8,147.2L238.8,147.2z M310.4,162.2c0.8,20.6-0.2,24.8-6.4,24.8c-5,0-5-0.4-5.6-19
	c-0.4-15.6,0-19.4,2.8-21.4C307.6,142,309.6,145.6,310.4,162.2L310.4,162.2z M65.6,164.4c2.8,2.8,3.2,17.2,0.6,21.2
	c-0.8,1.6-3.8,2.4-6.4,2c-4.2-0.6-4.8-1.8-5.4-10.2C53.6,164.4,59.2,158,65.6,164.4L65.6,164.4z M203.6,163.8c1.8,1,2.4,5,2,12.4
	c-0.6,10-1,10.8-5.6,10.8s-5-0.8-5.6-10.8c-0.6-9.8,1.2-14.2,5.6-14.2C201.3,162.3,202.5,163,203.6,163.8z M343.6,164.4
	c2.6,2.6,3.2,15,1.2,20.4c-1.6,4.2-10,4.2-11.6,0c-3.6-9.4-0.2-22.8,5.8-22.8C340.8,162.3,342.4,163.1,343.6,164.4L343.6,164.4z
	 M116.8,223.2c2,0.8,3.2,3.6,3.2,7.6c0,6-0.4,6.4-6,5.6c-9-1.2-15,1-17.6,6.6c-4.8,10.6,4.2,20.4,17,18c6.8-1.2,6.8-1.2,6.2,5.4
	c-0.6,6.4-0.8,6.6-10.6,7.2c-13.4,0.8-22.8-5.2-27-17c-2.6-7.8-2.4-9.2,1-17.8C88.6,225.4,104.2,218.4,116.8,223.2z M149.6,248.4
	l0.6,25.6H136v-24.6c0-13.6,0.6-25.4,1.4-26.2s3.8-1.2,6.6-0.8l5,0.6L149.6,248.4z M197.6,228.4c0.6,5,0,5.4-7.8,6
	c-10.8,0.8-12.2,4.6-3,7.6c9.8,3.2,15.8,11.2,14.4,19c-2,9.2-8.2,13-22.6,13H166v-6.2c0-6,0.2-6.2,6.8-5.2c15.4,2.4,20.6-4,7.4-9.2
	c-8.4-3.4-14.2-10-14.2-16c0-2,2.6-6.4,6-9.6c5.2-5.2,7.2-6,15.4-5.4C196.2,223,197,223.4,197.6,228.4L197.6,228.4z M251.6,230
	l0.6,7l-8.8-0.6c-7.4-0.6-9.4,0-12.2,3.8c-7.6,11,0,22.8,13.4,21.2c7.2-1,7.4-1,7.4,5.8v6.8h-10.2c-17.2,0-27.8-9.8-27.8-25.4
	s12.6-27,29-26C250.6,223,251,223.4,251.6,230L251.6,230z M305.2,225.2c4.2,2,8,6.2,10.8,11.6c4.8,10,5,13,1.2,22.2
	c-4,9.2-13.8,15-25.8,15c-8,0-10.6-1-16.6-6.6c-6.2-5.6-7.4-8.2-8.2-16.6C264.8,229.4,285.2,215.8,305.2,225.2L305.2,225.2z"/>
<path class="st0" d="M283.4,239.6c-6.8,7.6-3,19,7,21.4c4.2,1,6.6,0.2,10.4-3.8c3-2.8,5.2-6.8,5.2-9.2
	C306,238,290.2,232,283.4,239.6z"/>
</svg>
