<?xml version="1.0" encoding="utf-8"?>
<!-- Generator: Adobe Illustrator 25.0.1, SVG Export Plug-In . SVG Version: 6.00 Build 0)  -->
<svg version="1.1" id="Layer_1" xmlns="http://www.w3.org/2000/svg" xmlns:xlink="http://www.w3.org/1999/xlink" x="0px" y="0px"
	 viewBox="0 0 478.4 478.4" style="enable-background:new 0 0 478.4 478.4;" xml:space="preserve">
<style type="text/css">
	.st0{fill:#7C7C7C;}
</style>
<path class="st0" d="M0,239.2v239.2h478.4V0H0V239.2z M267.9,238c9.1,13.6,16.8,25.6,16.8,26.3s-2.2,1.2-4.5,1.2
	c-2.6,0-6.7-3.6-9.8-8.4c-4.8-7.9-6-8.4-18.2-8.4c-7.2,0-12.9-1-12.9-1.9c0-4.1,6-7.6,12.4-7.6c6.7,0,6.7,0,2.9-6
	c-2.2-3.4-4.8-5.3-6-4.6s-7.7,9.3-14.1,19.1c-8.6,12.4-13.6,17.7-17,17.7c-5,0-5-0.2-0.7-6.7c19.9-30.6,30.6-45.9,32.3-45.9
	C250.2,212.9,258.6,224.1,267.9,238z M95.2,218.2c-0.7,1.9-8.1,3.6-19.6,4.5c-21.5,1.9-27.8,6-27.8,17.9c0,11.7,6.7,15.3,29.2,15.3
	c10.3,0,18.7,1,18.7,2.2c0,5.7-7.9,7.9-25.4,6.9c-17-0.7-18.7-1.4-25.1-8.6c-11.2-12.4-9.1-30.1,4.5-37.3
	C58.1,214.3,96.6,213.8,95.2,218.2z M151.7,220.3c8.4,6.5,8.4,16.8,0.2,23.4l-6.2,4.8l8.6,6.7c4.5,3.6,8.4,7.4,8.4,8.4
	c0,4.8-11,1.2-19.9-6.5c-8.1-6.9-11.5-8.4-21-8.4c-11,0-11.5,0.2-12.2,7.7c-0.5,5.3-2.1,8.1-5,8.6c-3.8,0.7-4.3-0.7-3.6-12l0.7-12.7
	l22.7-1.1c22.2-1.2,22.7-1.4,22.7-7.2c0-7.2-5.5-9.1-30.9-9.3c-16.5-0.2-18.4-0.7-15.8-3.8c2.1-2.6,8.1-3.6,23.9-3.6
	C141.9,215.3,146.4,216,151.7,220.3L151.7,220.3z M214.8,219.3c-3.1,3.1-7.9,3.8-22,3.4l-18.2-0.5v7.2c0,4.1,0.7,7.2,1.9,7.2
	c1-0.2,7.2-0.2,14.1,0c10,0.2,12.2,1,11.2,3.8c-1.2,2.6-5,3.6-14.4,3.6c-12.2,0-12.9,0.2-12.9,6c0,6,0.2,6,19.1,6
	c10.5,0,19.1,1,19.1,1.9c0,5.7-7.2,7.6-26.8,7.6H165v-50.3h26.8C217,215.3,218.4,215.5,214.8,219.3L214.8,219.3z M330.1,218.8
	c-1.9,2.4-7.2,3.6-14.6,3.6h-11.7v21.5c0,19.9-0.2,21.5-4.8,21.5s-4.8-1.7-4.8-21.5v-21.5h-13.4c-11.7,0-13.2-0.5-10.5-3.6
	c2.4-2.9,9.3-3.6,32.8-3.6C329.4,215.3,332.7,215.8,330.1,218.8L330.1,218.8z M379.1,240.4v23.9l-25.6,0.7
	c-14.3,0.2-25.8-0.2-25.8-1.4c0-5.5,6.9-7.7,24.4-7.7c18.4,0,18.7,0,18.7-6c0-5.7-0.7-6-14.6-6c-19.4,0-18.4-5.7,1.2-6.7
	c13.4-0.7,13.6-1,12.9-7.2s-1.2-6.5-19.4-7.2c-16.5-0.5-18.4-1.2-15.8-4.3c2.2-2.6,7.4-3.4,23.5-2.9l20.6,0.7L379.1,240.4z
	 M428.1,218.8c8.8,4.5,12,10.3,12,21.5c0,6.9-1.9,10.8-8.1,17c-8.4,8.4-8.4,8.4-28.2,7.6l-19.9-0.7v-13.1c0-10.5,0.7-13.2,4.3-13.9
	c3.3-0.7,4.1,1,4.1,8.9v9.8h14.8c17.2,0,23.4-4.1,23.4-15.5c0-12.2-6.5-16.3-28.7-17.5c-16-1-18.7-1.7-16.5-4.3
	C389.2,213.8,419.1,214.1,428.1,218.8L428.1,218.8z"/>
</svg>
