<?xml version="1.0" encoding="utf-8"?>
<!-- Generator: Adobe Illustrator 25.0.1, SVG Export Plug-In . SVG Version: 6.00 Build 0)  -->
<svg version="1.1" id="Layer_1" xmlns="http://www.w3.org/2000/svg" xmlns:xlink="http://www.w3.org/1999/xlink" x="0px" y="0px"
	 viewBox="0 0 988.4 202" style="enable-background:new 0 0 988.4 202;" xml:space="preserve">
<style type="text/css">
	.st0{fill:#7C7C7C;}
</style>
<path class="st0" d="M0,48.3v48.3l48.7-0.2l48.5-0.3V0.6L48.7,0.2L0,0L0,48.3z"/>
<path class="st0" d="M160.2,0.9l-46.9,0.2L113,3.6c-0.2,1.3-0.2,22.6,0.1,47.2l0.6,44.8h94.4l0.3-47c0.1-25.8-0.1-47.1-0.6-47.4
	S185.9,0.7,160.2,0.9z"/>
<path class="st0" d="M912.2,35.1c-6.3,2.2-16,10.2-16,13.1c-0.2,1.5-0.8,2.9-1.7,4.1c-1.1,1.4-1.7,5.2-1.7,12.5
	c0,5.7-0.5,11.2-1.1,12.1c-0.7,1.1-3.4,1.9-7.9,2.2l-6.8,0.6v13.2l7.7,0.6l7.6,0.6l0.3,35.9l0.2,36h17.6l0.2-36L911,94h34l0.7,28
	c0.7,31,1.3,34.6,7.1,40.2c6,5.7,13.9,6.8,31,4.2l4.6-0.7v-14.3l-3.3,0.7c-1.8,0.3-4.7,1-6.4,1.3c-2,0.4-4.7-0.1-7.4-1.4
	c-6.9-3.3-7.8-7.4-7.1-34.9l0.5-23.1l11.9-0.3l11.8-0.3V79.1h-10c-14.4,0-14.2,0.2-14.2-14.3V52.7h-3.1c-1.6,0-3.1,0.4-4.4,1.3
	c-0.7,0.7-3.4,1.5-5.9,1.9l-4.7,0.7l-0.3,9.8c-0.2,5.5-0.9,10.5-1.5,11.3c-0.9,1-5,1.4-15.8,1.4c-17.8,0-18-0.1-18-11
	c0-9.7,2.7-15.4,8.9-18.6c4.6-2.4,10.3-3.1,11.4-1.2c1.8,2.9,2.8,0.4,2.8-6.5s-0.2-7.6-2.4-8.2C926.5,32.4,917.7,33.2,912.2,35.1z"
	/>
<path class="st0" d="M434.4,42.3c-2.9,2.3-3.3,3.4-3.3,8.1c0,7.7,2.4,10,10.4,10c7.8,0,11-2.8,11-9.6c0-3.5-0.7-5.2-3.5-7.9
	C444.6,38.7,439.2,38.3,434.4,42.3z"/>
<path class="st0" d="M273.5,104.3v61.6l8.9-0.3l8.8-0.3l-0.1-44.7c0-24.6,0.2-46,0.7-47.6c1.3-5.5,4-2.6,9.8,11
	c1.1,2.4,2.6,5.8,3.4,7.5c0.8,1.4,1.3,3,1.5,4.6c0.3,1.7,0.9,3.3,1.6,4.8c0.9,1.9,2.4,5,3.3,6.8c0.8,1.5,1.3,3.2,1.6,4.8
	c0,1.4,0.7,3.1,4.8,11.3c0.9,1.7,1.5,3.6,1.8,5.5c0.2,1.4,0.8,2.8,1.6,4c0.9,1.4,1.5,3,1.6,4.6c0.1,1.4,0.6,2.7,1.6,3.7
	c0.9,0.9,1.5,2,1.6,3.3c0.3,2,0.9,3.9,1.9,5.7c1,2,2.3,4.6,2.9,5.8c0.8,1.8,1.4,3.6,1.9,5.5c0.7,3.2,0.8,3.3,7.8,3.6
	s7.2,0.2,8.6-2.8c0.8-1.6,2.1-4.5,3-6.1c0.8-1.6,1.3-3.3,1.5-5c0.2-1.5,0.8-2.9,1.6-4.1c0.9-1.2,1.5-2.6,1.6-4.1
	c0.2-1.7,0.6-3.4,1.4-5c0.9-1.6,2.3-4.6,3.3-6.6c0.9-1.6,1.5-3.4,1.9-5.2c0.3-1.7,0.9-3.3,1.6-4.8c0.9-1.9,2.4-4.9,3.3-6.8
	c0.8-1.7,1.4-3.4,1.6-5.3c0.2-1.5,0.8-2.9,1.6-4.1c0.9-1.3,1.5-2.8,1.6-4.4c0.1-1.4,0.7-2.7,1.6-3.7s1.6-2.3,1.6-3.7
	c0.1-1.7,0.7-3.3,1.6-4.6c0.9-1.3,1.5-2.8,1.6-4.4c0.1-1.4,0.6-2.7,1.6-3.7c1.1-1.2,1.7-2.7,1.6-4.3c0-3.8,1.6-6,3.7-5.3
	c1.5,0.7,1.8,5.6,1.8,47.4v46.7h19.8v-123h-28.5l-1.2,4.4c-0.7,2.3-1.6,4.6-2.2,4.9s-1.1,1.6-1.1,2.8c-0.2,1.8-0.7,3.5-1.5,5.2
	c-1.4,2.9-3.1,6.8-6.9,15.7c-0.9,2.1-2.3,5.3-3.2,6.9c-0.8,1.5-1.3,3.1-1.5,4.8c-0.2,1.6-0.7,3.1-1.5,4.5c-1.3,2.6-2.4,5.2-3.4,7.9
	c-3.5,8.9-7.6,18.6-10,23.4c-0.8,1.6-1.3,3.3-1.5,5c0,6-7,7.2-8.4,1.4c-0.5-2.1-1.2-4-2.2-5.9c-0.9-1.6-1.4-3.3-1.5-5
	c-0.1-1.3-0.7-2.6-1.6-3.5c-1-1-1.6-2.3-1.6-3.7c-0.1-1.6-0.7-3.1-1.6-4.4c-0.9-1.3-1.5-2.8-1.6-4.4c-0.1-1.6-0.7-3.1-1.6-4.4
	c-0.9-1.2-1.5-2.6-1.6-4.1c-0.3-2-0.9-3.8-1.9-5.6c-1-2-2.4-4.9-3.3-6.6c-0.7-1.4-1.2-2.9-1.4-4.5c-0.3-1.9-1-3.7-1.9-5.4
	c-1-2-2.4-4.9-3.3-6.6c-0.8-1.5-1.3-3.2-1.4-4.9c-0.2-1.5-0.7-2.9-1.6-4.1c-0.9-1.4-1.5-3-1.6-4.6c-0.1-1.4-0.7-2.7-1.6-3.7
	c-0.9-0.9-1.5-2.1-1.6-3.4c0-2-1.1-2.1-15.4-2.1h-15.4V104.3z"/>
<path class="st0" d="M503.5,77.4c-1.9,0.9-4,1.4-6.2,1.6c-1.6,0-3.1,0.6-4.3,1.6c-0.8,0.9-1.9,1.5-3.1,1.6c-2,0-15.6,13.1-15.6,15.1
	c-0.3,1.5-0.8,3-1.5,4.4c-5,10.3-6.7,26.2-3.4,34c0.9,2,1.4,4.2,1.6,6.4c0.1,1.4,0.6,2.8,1.6,3.8c0.9,0.7,1.4,1.7,1.6,2.8
	c0,1.2,7.8,9.7,11.2,12.1c4,2.6,8.4,4.5,13,5.6c5.2,1,21.3,1,27.7-0.1c7-1.1,8.9-3.4,9-11.5c0.2-7.1-0.3-7.7-5.6-5
	c-8.6,4.3-14.1,4.8-22.7,2.3c-5.8-1.8-14.9-8.4-14.9-10.9c-0.1-1-0.6-1.9-1.3-2.6c-0.8-0.8-2-4.7-2.6-8.8
	c-1.4-8.6,0.1-19.7,3.4-24.9c3.1-4.8,9.2-10.3,12.4-11.2c1.9-0.5,3.8-1.2,5.6-2.1c3.7-2,8-2,13,0.1c1.9,0.8,3.9,1.4,5.9,1.6
	c1.3,0.2,2.6,0.7,3.6,1.6c2.4,2.5,4.3,2.1,3.5-0.9c-0.5-2.8-0.7-5.7-0.7-8.6v-6l-5.7-1.4C520.3,75.9,507.5,75.6,503.5,77.4z"/>
<path class="st0" d="M643.6,77.4c-2.1,0.9-4.4,1.4-6.7,1.5c-1.6,0.1-3.1,0.7-4.3,1.8c-0.6,0.8-1.5,1.4-2.4,1.6
	c-4,0-17.3,15.8-17.3,20.5c-0.2,1.6-0.8,3.2-1.8,4.5c-1.3,2-1.5,5.1-1.3,15.9c0.2,7.7,1.1,15,1.9,17.2s1.8,4.3,2,4.9
	c1.3,2.7,2.9,5.3,4.7,7.7c2.1,2.8,10.3,9.3,11.9,9.3c0.9,0.2,1.8,0.8,2.3,1.5c1.6,2,9.7,3.2,21.5,3.2c16.2,0,23.6-2.6,32.4-11.3
	c4.9-5.1,9.9-13.2,9.9-16.6c0.2-1.5,0.7-2.9,1.4-4.3c0.8-1.5,1.5-6.8,1.8-11.8c0.3-9.1-1.6-18.2-5.6-26.4
	c-2.2-4.8-9.8-13.1-13.5-14.7c-1.3-0.6-2.6-1.3-3.8-2C670.2,76.5,650.3,74.9,643.6,77.4z M662,92c6.2,2.2,11.5,6.6,14.8,12.3
	c2.1,3.3,2.3,5.4,2.3,18.2c0,12.2-0.3,14.9-1.9,16.7c-0.9,0.9-1.5,2-1.9,3.2c0,2.1-8.2,8.6-12.6,9.9c-5.7,1.8-9.8,1.8-16.2-0.1
	c-9.3-2.9-14.3-8.8-17.5-21c-2-7.9-2.1-8.8-0.4-15c0.7-2.7,1.3-5.5,1.7-8.2c0-3.4,10-14.5,13.2-14.6c1.6-0.3,3-0.8,4.4-1.6
	C651.7,89.6,655.2,89.7,662,92z"/>
<path class="st0" d="M733.6,77.8c-6.6,2.2-6.7,2.3-9.8,4c-3.6,2.2-8.9,8.1-8.9,10.3c-0.3,1.6-0.8,3.2-1.7,4.6c-2.1,3.6-2,7,0.4,14.1
	c2.8,8,7.2,12.4,16.6,16c1.1,0.5,2.2,1,3.3,1.6c0.9,0.5,3.8,2,6.6,3.2c10.1,4.7,13.6,11.3,9.3,17.5c-2.5,3.6-10.5,6.3-16.2,5.4
	c-5.3-0.9-14-3.6-15.7-4.9c-1-0.8-2.2-1.3-3.5-1.6c-2.4-0.8-2.5-0.5-2.5,6.8c0,10.8,0.4,11.1,20.8,13c7.5,0.8,16.8-0.8,23.1-3.9
	c3.8-1.8,10-7,10-8.5c0.3-1,0.9-1.9,1.7-2.6c2.5-2.9,2.4-18.6-0.1-22.7c-2.9-4.8-7.3-8.6-12.5-10.8c-0.9-0.4-2.4-1.2-3.3-1.8
	c-1.1-0.6-2.2-1.2-3.3-1.6c-13.5-4.9-18.9-11.2-15.9-18.3c2.2-5.4,7.4-7.7,15.4-7c6.8,0.4,13.3,2.5,16.4,5.1
	c1.5,1.3,1.8,0.7,1.8-7.4v-8.8l-5.5-0.8c-3-0.4-5.7-1.2-6.2-1.8C752.9,75.2,739.1,75.9,733.6,77.8z"/>
<path class="st0" d="M816,77.4c-2,0.8-4,1.3-6.2,1.5c-1.4,0.1-2.7,0.8-3.7,1.8c-0.9,0.9-2,1.5-3.3,1.6c-2.5,0-13.6,11.9-16,17.1
	c-2.3,5.1-5.2,18.1-5.2,23.5c0,4.6,2.2,15.3,4.6,21.9c2,5.6,13.3,17.7,16.5,17.7c1.3,0,2.4,0.6,3.3,1.5c0.8,0.9,3.4,1.9,5.9,2.3
	c6,1,23.4,1.1,28.2,0.1c11.2-2.3,23.1-11.9,26.9-21.5c0.3-0.9,1.4-3.1,2.3-4.7c2.4-4.8,2.2-33.4-0.3-38.3c-1-2-2.5-5.2-3.4-6.9
	c-3.6-7.5-12.6-14-22.7-16.9C835.2,76,820.7,75.7,816,77.4z M838.2,93.2c8.8,3.7,14.1,13.4,14.8,27.2c1.2,20-11.2,35.1-26.8,33
	c-9-1.3-11.2-2.2-15.4-6c-7.5-6.9-9.1-11.6-9.1-25.3c0-8.8,0.4-12.4,1.7-14.1c0.9-1.1,1.5-2.4,1.6-3.8c0-2.9,8.3-10.1,13.9-12.2
	C825.1,89.8,830.9,90.2,838.2,93.2L838.2,93.2z"/>
<path class="st0" d="M590.4,78.4c-4,1.2-10.8,7.2-11.9,10.5c-0.2,0.9-1.2,1.2-2.3,0.8c-1.4-0.6-1.9-2-1.9-5.7v-4.9h-19.8v86.8h19.8
	v-28.1c0-29.9,0-29.8,5.7-37.7c4.3-5.7,16-8.7,21.8-5.5c2.1,1.1,2.2,0.8,1.9-8l-0.3-9.1l-4.4-0.2C596.2,77.2,593.2,77.6,590.4,78.4z
	"/>
<path class="st0" d="M432,79c-0.5,0.7-0.5,86.3,0,87c0.2,0.2,4.3,0.2,8.9-0.1l8.4-0.5V79.6l-8.4-0.6C436.3,78.7,432.3,78.7,432,79z"
	/>
<path class="st0" d="M0,153.6V202l48.7-0.2l48.6-0.3v-95.5l-48.6-0.3L0,105.3V153.6z"/>
<path class="st0" d="M160.3,106.2l-46.9,0.2l-0.3,2.5c-0.2,1.3-0.2,22.6,0.1,47.2l0.6,44.8h94.4l0.3-47c0.1-25.8-0.1-47.1-0.6-47.4
	S186,106,160.3,106.2z"/>
</svg>
