<?xml version="1.0" encoding="utf-8"?>
<!-- Generator: Adobe Illustrator 25.0.1, SVG Export Plug-In . SVG Version: 6.00 Build 0)  -->
<svg version="1.1" id="Layer_1" xmlns="http://www.w3.org/2000/svg" xmlns:xlink="http://www.w3.org/1999/xlink" x="0px" y="0px"
	 viewBox="0 0 997.7 378.5" style="enable-background:new 0 0 997.7 378.5;" xml:space="preserve">
<style type="text/css">
	.st0{fill:#7C7C7C;}
</style>
<path class="st0" d="M34.1,3.2c-0.2,2.7-0.8,5.4-1.6,8c-0.9,3.1-2.5,9.7-3.5,14.6s-2.3,10.6-3,12.6s-1.6,6.4-2.1,9.5
	c-1.1,7.8-2.8,15.5-5,23.1c-0.8,2.6-1.4,5.2-1.6,7.9c-0.2,2.6-0.8,5.2-1.7,7.7C14.8,89,14.3,91.5,14,94c-0.3,2.9-0.9,5.8-1.8,8.6
	c-3.5,10.9-3.9,12.9-3.3,13.8c0.3,0.7,21.5,0.9,27.7,0.3c0.4-0.1,0.8-1.8,0.8-3.9c0.2-2.9,0.7-5.7,1.7-8.5c0.9-2.7,1.5-5.5,1.7-8.4
	c0.2-2.8,0.7-5.7,1.7-8.4c0.9-2.7,1.5-5.6,1.7-8.5c0.1-2.3,0.4-4.5,1.1-6.7c1.6-4,3.5-15.9,4.3-26.6c0.6-6.9,1.1-8.9,2.5-9.2
	c1.9-0.3,5.5,7.2,5.5,11.7c0.3,2.8,0.9,5.6,1.8,8.2c0.9,3.3,2.4,8.8,3.3,12.1s2.2,7.6,2.9,9.5s1.6,5.5,2.1,8c0.4,2.3,1,4.5,1.9,6.7
	c1.2,2.3,3.3,10.1,4.6,16.8c0.4,2.7,1.4,5.4,2.1,6c0.9,0.9,23.7,1.6,34.3,1c1.8-0.1,2.8-2.9,3.8-10.7c0.6-3.7,1.6-9.2,2.2-12.3
	c1.2-5.5,2.3-10.9,6.1-29c1-4.9,2.3-10.6,2.9-12.5c0.9-2.9,1.5-5.9,2-8.9c0.9-5,1.5-7.7,4.7-21.3c0.8-2.9,1.7-7.5,2.2-10.2
	s1.2-6.3,1.7-8.1l0.7-3h-28L108,7c-0.4,3.1-0.9,6.2-1.8,9.2c-1,2.9-1.6,5.9-2,8.9c-0.6,3.3-1.6,8.6-2.2,11.7
	c-3.7,16.5-6.7,33.7-6.7,38.7c0,2-0.2,3.9-0.7,5.8c-1.1,2.8-3.7,2.1-4.5-1.3c-0.3-1.7-1.1-5.6-1.8-8.6c-1.9-8.8-6.7-27.2-8.9-33.4
	c-0.6-1.9-1.6-5.6-2.1-8.4s-1.6-5.5-2.1-6s-1.1-2.6-1.1-4.2c-0.1-2.2-0.6-4.3-1.6-6.2c-1.1-2.5-1.9-5.1-2.3-7.8l-0.8-4.7H64
	c-5.3,0-5.5,0-5.5,3.6s0.4,5.5,3.8,15.9c1.1,3.7,1.7,7.5,1.8,11.4c0,7-1.4,7.6-7.7,2.7L52.3,31l-2.6,2.7c-5.8,6-10.3,1-8-9
	c0.7-3.1,1.7-7.5,2.2-9.8c0.6-3,0.7-6.1,0.3-9.1l-0.6-5H39C34.7,0.8,34.1,1.1,34.1,3.2z M105.4,90c-1.1,6.6-1.9,8.1-5.2,11
	s-4.5,3.3-7.5,2.7c-4.5-0.9-5.9-2.1-8.7-7.5c-2.1-4.1-4.2-16.3-2.8-16.3c2,1,4,2.1,5.8,3.4c4.4,3,5.6,3.4,7.6,2.2
	c4.1-2.2,5.9-3.9,7.5-6.7l1.4-2.8l1.6,3.1C106.4,81.8,106.5,83.6,105.4,90z"/>
<path class="st0" d="M630.4,7.1c-0.8,3.6-1.9,8.5-2.6,10.9s-1.7,6.7-2.1,9.5c-1.1,7.4-2.6,14.7-4.5,22c-0.9,2.9-1.6,5.9-2.1,8.9
	c-0.9,5-1.7,8.2-4.7,20.4c-0.7,2.8-1.6,7.2-2.1,10c-2.1,11.6-3.6,17.5-5.1,20.7c-0.9,2-1.5,4.5-1.2,5.6c0.3,1.9,1.6,2.1,13.7,2.1
	c7.3,0,14-0.4,14.8-1c0.9-0.9,1.3-2.1,1.3-3.4c0.3-3.2,0.9-6.4,1.7-9.6c0.9-4,2.2-11,2.9-15.6s1.5-9,1.7-9.8
	c0.7-2.6,3.8-1.3,4.3,1.7c0.4,1.7,1,3.4,1.8,5c0.6,1.1,0.9,2.4,1,3.7c0,1.6,2.2,7.2,5.1,13.1c0.8,1.5,1.3,3,1.6,4.7
	c0,1.2,2.5,7.7,4,10.4c0.1,0.2,7,0.4,15.4,0.7c14.9,0.3,15.2,0.2,15.2-2.1c-0.2-1.9-0.9-3.6-2-5.1c-2.3-3.5-4.4-7.2-6.2-11
	c-3.8-7.7-4.8-9.5-7.5-14.5c-1.7-2.9-4.3-9.1-4.3-9.9c0-0.3,2.1-3,4.8-5.8s8.2-9,12.5-13.8s9.7-10.6,12-12.8
	c4.2-4.2,5.2-6.6,2.8-6.8c-4.9-0.3-29.3,0.3-30.5,0.9c-1,0.5-1.7,1.3-2.1,2.3c-0.3,1.1-2.6,4.1-5,6.9s-4.5,5.4-4.5,5.7
	c-1.3,2.4-2.8,4.6-4.6,6.7c-2.5,3.3-5,7.1-5.6,8.6c-0.9,2.4-6.2,5.4-7.6,4.1c-0.3-0.3,0-1.6,0.7-2.6c1-2.1,1.6-4.4,2-6.7
	c0.4-2.6,1.2-4.9,1.7-5.2s1.3-3,1.8-5.9c0.3-2.5,0.9-5,1.8-7.4c0.7-1.1,1.6-4.7,2-7.8c1.4-7.6,3.1-15.1,5.2-22.5
	c0.8-2.8,1.3-5.7,1.6-8.6v-3h-27.6L630.4,7.1z M635.8,60.4c0,0.9-0.4,1.7-1,1.7c-1.5,0-2.5-1.8-1.6-2.7
	C634.5,58.2,635.8,58.7,635.8,60.4z M638,67.2c1.3,4.9,0.3,7.1-5.3,12.6c-4.9,4.7-5.3,3.6-3.5-7.7c1.2-7,1.6-7.7,4.2-8.1
	c1.1-0.1,2.2-0.3,3.2-0.7C637.2,64.5,637.7,65.8,638,67.2z"/>
<path class="st0" d="M728.4,5.4c-1,3.2-1.8,6.5-2.5,9.8c-0.5,2.8-1.3,7.2-2,10s-1.8,7.2-2.6,10s-1.6,7.2-2,10s-1.3,7.4-2.1,10.2
	s-1.8,7.7-2.5,10.6s-1.7,7.6-2.1,10.4s-1.5,7.5-2.1,10.6s-1.9,7.8-2.6,10.6s-1.7,7-2.2,9.5c-0.6,2.4-1,4.8-1.2,7.2l-0.2,2.7
	l13.6-0.1c7.4,0,13.9-0.3,14.6-0.8c0.9-0.6,2.3-6.6,4-16.8c0.8-4.7,2.8-14.5,4.5-21.7l1.3-6.1l8.4,0.2c8,0.1,8.3,0.2,11.8,4.4
	c2.2,2.4,3.7,5.4,3.7,7.1c0.2,2.9,0.7,5.7,1.6,8.5c1.1,3.9,1.8,7.9,2.2,11.9c0.4,3.6,1.3,8.1,2.2,10l1.5,3.6h13.8
	c15.8,0,15,0.7,11.7-10.6c-2.2-7.5-4.9-17.9-6.1-24c-1.5-7.2-4.9-13.1-9.4-16c-4.7-3.1-4.1-5,1.6-4.8c7.5,0.2,18.6-7,22.3-14.5
	c4.5-9,5.2-17.1,2.6-27.4c-2-7.5-12.1-14.7-20.7-14.7c-6.2,0-17.8,1.9-18.6,3c-1.1,1.6-6.4,3.5-11.8,4.3c-7,1-9.9,2.6-14.6,8.1
	c-2.2,2.5-4.3,4.6-4.8,4.6s-0.5-5.6-0.3-12.2l0.3-12.3h-4.8C730.1,0.8,729.9,0.9,728.4,5.4z M794.7,22.4c2.3,3.1,2.7,4.2,1.6,5.5
	c-1.9,2.4-4.5,0.9-4.5-2.7c0-1.8-0.8-3.3-1.8-3.8c-0.8-0.3-1.2-1.1-0.9-1.9c0.2-0.7,0.9-1.1,1.6-1C791.3,18.6,793.1,20.4,794.7,22.4
	L794.7,22.4z M772.7,23.7c7,0.9,10.2,4.3,10.2,11.2c0,5.9-1.7,8.7-7,12c-2.3,1.3-6.6,2.1-16.4,2.6c-13,0.7-13.4,0.7-13.4-1.7
	c0-1.1,0.3-2.2,1-3c0.7-0.3,1.5-3,1.8-5.9c1-6.9,2.8-13.8,4-15.4C753.9,22.4,762.5,22.5,772.7,23.7z M740.5,51.5
	c2.3,3.2,3.3,5.8,2.9,7.1c-1,3.2-10.6,12.4-12.9,12.4c-1.8,0-2.1-0.8-2.1-5.4c0.1-7.6,1.7-13.4,4.6-16.5c1.3-1.4,2.8-2.7,3.2-2.7
	S738.5,48.7,740.5,51.5L740.5,51.5z"/>
<path class="st0" d="M925.8,4.9c-0.8,2.3-1.9,6-2.5,8.1s-1.3,5-1.7,6.3c-0.6,1.8-0.3,2.6,0.7,2.7c5.3,0.3,26.9,0.1,27.3-0.3
	c1-1.1,3.8-13.4,3.8-17V0.8h-26.2L925.8,4.9z"/>
<path class="st0" d="M970.4,7.7c-1.4,8.3-3.1,16.6-5.3,24.7c-0.9,2.8-1.4,5.7-1.6,8.7c0,1.8-0.4,3.7-1.1,5.4c-1,3-1.8,6-2.2,9.1
	c-0.6,3.9-1.6,9-2.1,11.5s-1.9,8.5-2.9,13.4s-2.6,11.5-3.5,14.6c-0.8,2.9-1.4,5.9-1.6,8.9c0,2-0.6,3.9-1.7,5.6c-1,1.5-1.6,3.2-1.7,5
	v2.8l13.7-0.1c7.6-0.1,14.4-0.6,15-1s1.3-2.5,1.3-4.6c0.1-2.3,0.4-4.6,1.1-6.8c1-3,1.7-6.1,2.2-9.2c1-6.4,2.5-13.4,4.7-22.4
	c0.7-2.8,1.6-7.2,2-10s1.3-7.2,2-10c1.1-4.4,2-9,5.8-27.9c0.6-2.8,1.3-8.2,1.7-12.2s0.9-8.4,1.2-9.8c0.5-2.2,0.1-2.4-4-2.4
	c-3.9,0-4.5,0.3-4.5,2.6c0,1.4-0.3,3-0.8,3.3c-1.1,1.2-3.7-1.4-3.7-3.8c0-1.8-0.9-2.1-6.6-2.1h-6.6L970.4,7.7z"/>
<path class="st0" d="M266.4,9.8c-3.9,0.5-7.9,0.5-11.8,0.2c-7.8-0.8-9.9,1-9.9,8c0,2.5-0.3,5-1,7.5c-0.8,2.2-1.4,4.4-1.8,6.7
	l-0.7,4.2l-6.4-0.7l-6.5-0.7l-1.9,8.8c-1,4.8-1.9,9.4-1.9,10.1s2,1.3,6.2,1.3h6.2l-0.8,3c-0.9,3.3-1.9,7.6-3.9,16.5
	c-0.8,3-2,8-2.9,11c-2.1,7.4-2,11.7,0.7,17.7c2.4,5.8,7.1,10.5,12.9,12.8c4.9,1.9,29.1,3.2,30.6,1.7c1.2-1.2,4.3-12.9,4.3-16.4
	c0-3.7-0.8-4-5.6-2.3c-5.7,2-13,0.2-14.7-3.5c-1.3-2.8-0.2-14,2.2-23.3c0.8-3.1,1.5-6.3,1.9-9.5c1-8,1.1-8.1,14-7.9l11.6,0.2l1.5-7
	c0.9-3.9,1.8-8.5,2.1-10.2l0.7-3.2l-11.9,0.8c-11.1,0.7-11.8,0.7-11.8-1.4c0.2-1.8,0.8-3.6,1.7-5.2c0.9-1.6,1.4-3.4,1.7-5.2
	c0.2-1.9,0.8-3.7,1.8-5.3c1.8-3.6,1.8-9-0.1-9.4C270.8,9.1,268.6,9.3,266.4,9.8z M262.2,39.4l2.7,4.7l-4,4.4c-2.2,2.5-5,4.8-6.1,5.1
	c-1.3,0.5-2.4,1.5-2.8,2.9c-0.9,2.6-3.6,2.8-6.4,0.2c-3.3-3-2.7-9.7,1.7-15.7c4.5-6.6,5.1-7,8.9-6.7
	C258.6,34.6,260.1,35.9,262.2,39.4L262.2,39.4z"/>
<path class="st0" d="M170.8,34.8c-4.8,0.7-9.2,1.9-9.9,2.6c-0.8,0.8-1.8,1.2-2.9,1.3c-1.8,0-10.4,6.7-14.4,11.1
	c-3.5,3.8-7.9,13.4-10,21.1c-2.8,10.7-2,18.6,2.9,29c2.1,4.4,9.8,12.4,11.8,12.4c1.1,0.2,2.1,0.8,2.8,1.7c1,1,2.4,1.6,3.8,1.7
	c1.4,0,2.7,0.4,3.8,1.3c2.2,2.2,22.1,2.6,30.2,0.4c3.1-0.9,6.3-1.5,9.6-1.8c1.7,0,2.9-1,3.8-3.1c1.1-2.7,3.5-13.6,3.5-15.9
	c0-1.6-4.2-1.2-7.7,0.6c-4,2.1-18.2,3.4-26.1,2.4c-4.7-0.7-6.8-1.6-9.7-4.4c-4.6-4.4-6.2-8.5-4.2-10.2c1-0.9,9.2-1,28.8-0.4
	c22.4,0.6,27.6,0.3,29-0.9c2.4-2.2,3-21.2,0.8-26.2c-0.9-2-1.8-4-2.5-6.1c-1-3.5-8.2-10.6-13.5-13.4c-3.3-1.5-6.9-2.5-10.5-3
	c-3.4-0.4-7.1-1-8.4-1.1S175.6,34,170.8,34.8z M190.4,55.9c3.6,3.7,6.4,11,4.8,12.5c-0.3,0.3-8.2,0.7-17.6,0.7
	c-16.1,0.1-17,0-17.4-2.1c-0.4-2.8,5.7-10,10.8-12.7c3.1-1.4,6.4-2.1,9.8-2.2C186.1,52,187.1,52.5,190.4,55.9z M153.8,71.9
	c1.1,1.1,1.6,2.8,1.3,4.3c-1,3.1-7,8.4-8.5,7.5c-1.2-0.8-0.9-6.5,0.7-12C148.1,69.2,151.4,69.3,153.8,71.9L153.8,71.9z"/>
<path class="st0" d="M488.2,33.6c-0.6,0.3-4.6,1-8.9,1.6c-19.3,2.6-32.1,12.9-38.5,31c-3,8.7-3.1,23.7-0.1,30.5
	c2.6,5.7,9.5,14.2,12.8,15.6c1.4,0.6,2.7,1.2,4,2c7.8,4.6,29.3,6.1,38.4,2.9c1.9-0.8,3.9-1.3,6-1.7c3,0,11-4.6,16.1-9
	s10.8-13.1,10.8-16.5c0.1-1.2,0.5-2.3,1.3-3.2c0.8-0.8,1.5-6.2,1.8-13.3c0.4-12.4,0-14.4-5.7-24.4c-3.9-6.8-15-13-25.9-14.3
	c-3.7-0.4-7.7-1-8.9-1.2C490.4,33.4,489.3,33.4,488.2,33.6z M495.8,54.4c6.9,3.7,9.4,11.2,7.3,23.1c-2.6,14.8-9,21.4-20.8,21.4
	c-6,0-7-0.3-10-3.4c-8.1-8.4-6.4-25.9,3.7-36.2C481.2,53.7,490.3,51.6,495.8,54.4z"/>
<path class="st0" d="M594.6,34.6c-5.8,1.9-10.8,5.8-13.9,11c-1.3,2.3-3,4.4-5,6.1c-2.9,1.8-5.1,0.7-3.2-1.7c1.2-1.4,5.3-12,5.5-14
	c0-0.4-5.8-0.8-12.8-0.8c-14.6,0-12.8-1.6-15,12.8c-0.7,4.2-1.9,11-2.8,15s-1.8,8.7-2.1,10.6c-1.4,8.5-4.1,19.9-7.3,31.8
	c-0.8,2.9-1.3,5.9-1.6,8.9c-0.1,3.4,0.2,3.9,2.1,3.6c1.2-0.1,7-0.3,13-0.3c12.6-0.1,13.8-0.9,14.5-9.4c0.3-3.1,1.1-7.9,1.8-10.9
	c2.7-10.5,3.9-15.9,4.7-20.3c1.7-9.1,8.6-17.8,15.4-19.1c4.6-0.9,13.4,0.2,15.4,1.9c1.2,1,1.9,0.4,3.2-2.7c1.1-2.9,1.8-5.8,2.3-8.8
	c0.4-2.5,1.1-5,2.2-7.2c2.6-4.1,1.9-5.6-3.3-6.9C601.6,32.9,599.8,32.9,594.6,34.6z M568.4,54.2c1.1,1.8-1.7,5.7-3.7,5.4
	c-2.3-0.4-3.1-4.2-1.1-5.5S567.5,52.9,568.4,54.2z"/>
<path class="st0" d="M846.5,35.2c-10.6,1-13.5,2.8-15.3,9.6c-2.1,8.4-1.9,13.9,0.6,13.9c1.2,0,2.4-0.5,3.3-1.3
	c2.2-2.2,13.8-5.4,19.8-5.4c8.6,0,15,3.9,16.6,10.1c1,4.1-1.2,5.6-6.7,4.4c-9.9-2.4-26.9-0.2-38.6,4.8c-8.4,3.7-16.4,15.3-16.5,23.8
	c0.1,2.9,0.6,5.7,1.7,8.4c4,10.4,12.4,15.4,25.5,15.4c9.8,0,17.2-2.9,23-9.1c4.9-5.1,7.1-5.6,6-1.2c-2.1,8.8-2.2,8.7,9.6,9
	c12.2,0.3,10.8,1.8,13.3-12.6c0.7-4.5,1.7-8.9,2.9-13.2c0.8-2.5,1.3-5.2,1.6-7.8c0.3-2.3,0.8-4.6,1.7-6.8c0.9-2.7,1.6-8.7,1.6-15
	c0-9.7-0.2-10.9-3-15C885.8,36,873.1,32.7,846.5,35.2z M881.5,73.4c-0.3,2.7-0.9,5.4-1.8,8c-1,1.9-1.3,1.7-3.2-1.4
	c-2.7-4.5-2.7-5.8,0.2-9.5C880.6,65.6,882.3,66.6,881.5,73.4L881.5,73.4z M867.5,82.4c0.5,3.8-3.7,10.2-8.9,14.1
	c-2.6,1.9-5.6,2.8-10.1,3.1c-5.6,0.4-6.8,0.1-9.2-2.1c-3.7-3.5-3.5-7.8,0.8-11.8c2.7-2.8,4.9-3.7,11.9-4.7c4.7-0.8,9.4-1.6,10.2-1.8
	C865.6,78.7,867.1,79.4,867.5,82.4L867.5,82.4z"/>
<path class="st0" d="M298.2,37.2c0,1.1,0.8,6,1.7,10.9c0.9,5.9,1.5,11.9,1.7,17.8c0.2,6.7,0.7,13.4,1.7,20c1,6.9,1.5,13.9,1.7,20.9
	c0,7,0.4,9.8,1.4,9.9c0.7,0,8,0.1,16.2,0.1c12.6,0,15.2-0.2,16.9-1.9c1.2-1.1,2.2-2.7,2.2-3.4c0-1.2,2-5.7,4.7-10.5
	c0.5-0.9,1.2-2.4,1.6-3.3s2.2-4.9,4.1-8.9c3.4-7.2,4.7-10.2,8-18.4c1-2.5,2.2-5.5,2.8-6.7s1.2-3.1,1.6-4.2c0.3-1.2,1.4-1.9,2.6-1.7
	c1.7,0.3,2,1.4,1.9,5.9c-0.2,12.8-0.6,50.3-0.6,51.8s2.5,1.7,15.7,1.4c8.7-0.1,16-0.4,16.5-0.8s3.5-5.7,6.8-12s9.1-17.5,13-24.9
	s9.1-17.4,11.6-22.3c6.8-12.9,7.5-14.1,8.7-14.9c0.7-0.3,1.6-2.1,1.9-3.8l0.8-3h-28l-1.9,4.1c-1,2.3-2.6,6-3.5,8.1s-2.5,5.7-3.3,7.8
	s-2.5,5.7-3.4,7.8c-1.7,3.9-3,7.1-6.1,14.5c-2,4.8-3.6,9.8-4.7,14.8c-0.4,2.2-1.2,3-2.6,2.8c-1.8-0.3-1.9-2.7-1.5-30.2l0.5-29.8
	h-34.9l-1.2,3c-1.6,4.1-3.7,8.9-5.8,13.7c-1,2.1-3,6.7-4.5,10s-3.8,8.5-5.1,11.4s-2.3,6-2.3,6.9c0,0.9-0.4,1.8-1.1,2.3
	c-0.6,0.3-1.1,1.9-1.1,3.2c-0.2,2-1,3.9-2.2,5.5c-1.2,1.6-2.2,3.3-2.2,4s-1,1.2-2.3,1.2c-2.1,0-2.3-0.4-1.7-4.8
	c1.7-13.9,2.7-27.9,3-41.9l0.2-14l-14.6-0.3C299.4,35.3,298.2,35.4,298.2,37.2z M371.7,53.2c0,2.7-2.6,2.3-3.1-0.4
	c-0.2-1.1,0.3-1.9,1.3-1.9S371.7,51.9,371.7,53.2L371.7,53.2z M325.9,99.2l2.7,1.4l-2.5,1.3c-2.8,1.6-5.7,0-5.7-2.8
	C320.5,97.4,322.5,97.4,325.9,99.2L325.9,99.2z M387.1,100.2c0.2,1.3-0.3,1.9-1.9,1.9s-2.3-0.7-2.3-2.4
	C382.9,97,386.5,97.4,387.1,100.2L387.1,100.2z"/>
<path class="st0" d="M918.1,36.6c-0.5,0.8-1.2,4.5-1.6,8.1c-0.5,4.1-1.2,8.2-2.1,12.3c-0.7,3-2,9.4-3,13.9s-2.3,11.1-3.2,14.6
	c-0.8,2.8-1.3,5.8-1.6,8.7c-0.3,2.8-0.9,5.6-1.8,8.4c-3.3,10.8-3.7,11.9-3.1,13.4c0.3,1,4.2,1.3,14.2,1.1l13.6-0.2l1.5-4.9
	c1-3.6,1.8-7.2,2.5-10.9c1.3-8.1,3-16.1,5.1-24.1c0.8-2.8,1.3-5.6,1.6-8.5c0.2-2.6,0.8-5.1,1.7-7.6c0.9-2.5,1.5-5.1,1.7-7.8
	c0.2-2.4,0.7-4.8,1.7-7c0.9-2.4,1.5-4.9,1.7-7.5v-3.3h-13.8C923,35.3,918.8,35.8,918.1,36.6z"/>
<path class="st0" d="M950.9,174.6c0.1,2.1,0.1,4.2-0.1,6.4c-0.1,3.6-0.6,7-1,7.8c-1.1,1.8-2.9,10.9-5.9,30.4
	c-0.5,2.6-1.2,5.1-2.2,7.5c-0.9,2-1.4,4.2-1.6,6.5c0,3.6-2.8,16.7-5,24c-0.8,2.8-2.3,9.5-3.3,15s-2.2,12.2-2.9,15
	c-2.1,9.5-3,13.9-4.7,23.6c-1,5.3-2.1,10.4-2.6,11.1s-1.3,3.9-1.7,7c-0.9,6.1-4.5,22.8-6.5,30.2c-2,7.6-3.9,8.1-15.2,4.9
	c-1.8-0.5-6.8-1.9-11.1-2.9c-3.4-0.7-6.7-1.7-10-2.8c-2.5-1-18.5-5.5-32.3-8.8c-10.8-2.7-32.4-8.8-35.9-10.1
	c-1.5-0.5-2.6-1.9-2.6-2.9c0-2.3,7-11.7,15.8-21c3.6-3.7,10-11,14.6-16.3s10.6-12,13.7-15s8.9-9.6,13.2-14.6s8.2-9.4,9.1-9.7
	c1.1-0.6,2-1.6,2.5-2.8c0.5-1.1,4.9-6.6,10-12s11.4-12.1,13.9-15s6.5-7.1,8.6-9.5s6.8-7.6,10.4-11.5s8.7-9.9,11.7-13.1
	s7.3-8.2,10-11s4.7-5.4,4.7-5.9C944.5,178.3,949.2,175.1,950.9,174.6z"/>
<path class="st0" d="M904.5,170.4c-2.6,1.8-5,3.9-7.2,6.1c-2.6,2.5-5.5,4.7-8.5,6.7c-3,1.8-5.8,3.8-8.4,6.1
	c-5.1,4.4-10.5,8.4-16.2,11.9c-8.1,5.5-27.3,19.6-40.8,30.2c-3.1,2.4-6.3,4.4-6.8,4.4s-2.2,1.2-3.7,2.8s-3,2.8-3.6,2.8
	s-3.9,2.3-7.6,5.1s-9,6.7-11.7,8.7s-8.8,6.4-13.4,9.9s-9.4,6.8-10.4,7.1c-2.4,1.5-4.8,3.1-6.9,5c-3.9,3.3-8,6.5-12.3,9.4
	c-4,2.7-9.1,6.2-11.4,7.9c-11.7,8.7-21.3,14.9-25.3,16.6s-4.8,1.6-9.5,0c-2.3-0.9-4.7-1.5-7.1-1.8c-1,0-7.1-1.5-13.6-3.3
	s-16.5-4.6-22.3-6s-15.4-4-21.2-5.6s-17-4.6-25.1-6.7s-15.9-4.4-17.8-4.9s-6.4-2.1-10-3.2c-11.5-3.5-10.6-4.1,26.2-16
	c7.7-2.5,15-5,16.5-5.6c1.7-0.6,3.4-0.9,5.2-1c1.5,0,3-0.4,3.3-1.1s3.6-1.9,7-2.8s8.9-2.7,11.9-3.8c4.8-1.8,47.5-15.7,63-20.5
	c2.8-0.9,8.6-3,12.8-4.6s10.6-3.8,13.9-4.7s8.9-2.7,12.3-3.9s8.7-2.9,11.7-3.8c5.3-1.5,26.4-8.1,33.4-10.7c1.9-0.5,8.1-2.6,13.9-4.2
	s12.2-4,13.9-5c1.7-1,3.6-1.6,5.6-1.8c2.3-0.3,4.5-1.1,6.5-2.2c2.2-1.2,4.8-2.2,5.7-2.2c1.8,0,12.7-3.1,15.2-4.3
	c2.7-1.1,5.5-2,8.4-2.8c9.2-2.8,14.4-4.5,22.8-7.8c4-1.5,9-2.8,11.2-2.8l3.9-0.1L904.5,170.4z"/>
<path class="st0" d="M852,146.4c1.1,1-2.1,4.2-4.6,4.6c-1.7,0.3-3.3,0.7-4.9,1.3c-1.2,0.6-7.3,2-13.7,3.3s-13.5,2.9-16.2,3.8
	c-3.3,1.1-6.8,1.8-10.3,2.2c-6.6,0.8-29.1,5.7-36.2,7.9c-2.8,0.8-9,2-13.9,2.8c-5.4,0.8-10.8,1.9-16.2,3.3c-4,1.1-13.3,3.1-20.6,4.5
	s-19.8,4-27.9,5.8s-16.7,3.7-19.5,4.2s-8.8,1.8-13.4,2.8s-11.1,2.3-14.5,2.8s-8.1,1.6-10.6,2.2c-4.2,1.2-8.5,2.1-12.8,2.8
	c-13,2.2-15.7,2.8-22.8,5.1c-4.9,1.4-10,2.5-15,3.4c-4.6,0.8-11.1,2-14.5,2.9s-9.9,2.2-14.5,3.1c-7.7,1.5-17.9,3.7-44,9.4
	c-5.5,1.2-13.8,2.9-18.4,3.8s-11.4,2.5-15,3.4s-9.6,2.2-13,2.9s-9.4,1.9-12.8,2.6c-13.6,3-26.2,1.2-57.2-8c-4-1.1-10.5-2.9-14.5-3.9
	s-10.5-2.8-14.5-3.9s-9.6-2.5-12.5-2.9s-5.9-1.3-6.6-2.2c-1-1-2.3-1.6-3.7-1.6c-3-0.3-6.1-0.9-9-1.8c-3.7-1-8.5-2.2-10.6-2.7
	c-4.5-1-13.5-3.7-18.4-5.4c-3.3-1-6.6-1.9-10-2.6c-3.7-0.7-12.3-2.9-19.2-5s-13.6-3.8-15-3.8c-2.6-0.3-5.1-0.9-7.6-1.8
	c-3.8-1.3-7.7-2.4-11.7-3.2c-3.7-0.8-9.5-2.2-12.8-3.2s-10.9-3-16.7-4.6s-12.4-3.5-14.5-4.1s-5.1-1.3-6.7-1.7
	c-3.8-0.8-22.3-5.7-31.8-8.4c-4.2-1.1-9.8-2.6-12.3-3.1c-2.6-0.6-5.1-1.3-7.6-2.1c-1.9-0.7-3.8-1.1-5.8-1.2c-2.6-0.3-5.1-1-7.5-2.1
	c-3.9-1.6-7.9-2.9-12-3.8c-10.6-2.5-16.3-5-14.6-6.7c1-1,87.1-1.4,365.4-1.6c200.2-0.2,366.3-0.4,369.1-0.6
	C834.9,145,851.2,145.7,852,146.4z"/>
<path class="st0" d="M0.5,136.4c0.8-1,94.5-1.2,384.8-1c569,0.3,586.6,0.4,586.1,2.4c-0.2,0.9-0.8,3.9-1.2,6.7c-0.3,2.6-1,5.1-2,7.5
	c-0.9,1.9-1.3,4-1.3,6.1c-0.3,2.8-0.9,5.5-1.8,8.1c-1.1,3.3-1.8,6.6-2.2,10c-0.3,3-1,6-1.5,6.7s-1.2,4-1.6,7.6s-1.1,7.1-1.7,7.8
	s-1.3,4.3-1.7,7.9s-1.2,7.1-1.8,7.7s-1.2,3.3-1.2,6c-0.1,3-0.6,6.1-1.7,8.9c-1.2,3.2-2,6.6-2.3,10c-0.5,3.2-1.2,6.2-1.7,6.6
	s-1,2.7-1,5.2c-0.2,3.1-0.7,6.2-1.7,9.1c-0.9,2.6-1.5,5.4-1.7,8.1c-0.1,2.6-0.7,5.2-1.7,7.6c-1.1,3.1-1.8,6.2-2.1,9.5
	c-0.2,2.3-0.6,4.6-1.3,6.8c-1,1.6-3.3,13.4-4.9,24.2c-0.5,3.9-1.6,7.7-2.2,8.5s-1.2,3.7-1.3,6.4c0,2.8-0.5,5.5-1.5,8.1
	c-1.1,3.1-1.8,6.2-2.2,9.5c-0.3,3.3-1.1,6.6-1.6,7.2s-1.2,3.8-1.6,7.1c-1.3,11.8-5.5,18.4-9.2,14.6c-0.6-0.6-3.6-1.3-6.6-1.8
	c-2.7-0.2-5.3-0.7-7.8-1.6c-2.1-0.9-7.2-2.2-18.4-4.5c-2.5-0.5-4.9-1.2-7.2-2.1c-2.3-1.1-9.5-2.9-18.7-4.6c-3-0.6-6-1.5-6.7-2
	c-2.1-1-4.3-1.6-6.6-1.8c-2.9-0.5-5.6-1.2-5.9-1.7s-3-1.2-6-1.7s-5.9-1.1-6.1-1.7s-3.2-1.2-6.5-1.7s-6.3-1.2-7-1.8
	c-1.3-1.1-11.1-3.2-19.5-4.2c-4.2-0.6-6.2-1.3-6.5-2.5s2.9-5,6.7-8.9c8.3-8.7,23.6-25.4,37.1-40.7c5.5-6.1,10.9-12.1,12.2-13.4
	s5.1-5.5,8.5-9.4c6.6-7.7,14.8-16.8,21.2-23.6c2.1-2.2,6.1-6.7,8.9-9.9c5.1-6.1,14.2-16,21.2-23.4c2.1-2.2,5.1-5.6,6.7-7.4
	c4.8-5.7,21.4-24.2,29.1-32.2c4-4.4,9.1-9.8,11.3-12.3c2.1-2.4,6.1-6.8,8.8-9.7c6.6-6.9,7.7-8.4,7.7-9.8c0-2.1-2.8-1-9,3.7
	c-3.5,2.6-8.5,6.4-11.1,8.2c-2.7,1.9-6.6,5-8.7,6.7c-2.2,1.9-4.6,3.7-7.1,5.2c-2.4,1.6-4.7,3.4-6.8,5.4c-1.9,1.7-3.9,3.1-4.6,3.1
	s-2.7,1.5-4.6,3.1s-4.7,3.8-6,4.7c-2.7,1.9-30,21.9-31.8,23.3c-0.7,0.5-3.9,2.8-7.1,5c-5.8,4.1-27.4,20-29.6,21.7
	c-0.7,0.5-3.9,2.8-7.1,5c-9.2,6.5-28.3,20.6-30.2,22.3c-1.6,1.3-3.3,2.5-5,3.6c-1.8,1.1-6.2,4.2-9.7,6.8s-6.8,4.8-7.5,4.8
	c-0.6-0.1-1.2,0.4-1.2,1c0,0.6-2.9,2.9-6.4,5.2s-6.6,4.7-6.8,5.1c-1.3,1.3-2.8,2.4-4.5,3.4c-2.2,1.3-7,4.6-10.5,7.2
	s-6.8,4.8-7.5,4.8c-0.6-0.1-1.2,0.4-1.2,1c0,0.5-2.9,2.9-6.3,5.2c-3,2-5.9,4.1-8.7,6.4c-1.6,1.4-3.4,2.6-5.2,3.7
	c-1.8,0.9-3.1,2.1-3.1,2.7s-0.7,1.1-1.6,1.1c-1,0.1-1.9,0.8-2.2,1.8c-0.7,1.7-0.9,1.7-3.5,0c-1.5-1-3.3-1.6-5.1-1.8
	c-2-0.2-4-0.7-5.8-1.6c-2.8-1.1-5.8-1.9-8.8-2.3c-2.9-0.3-5.6-1.1-5.9-1.8s-2.3-1-4.2-1c-2.4-0.1-4.7-0.7-6.8-1.7
	c-1.8-0.9-3.8-1.5-5.8-1.7c-2.3-0.2-4.5-0.7-6.6-1.6c-2.9-1.1-5.9-1.9-8.9-2.3c-2.8-0.4-5.2-1.2-5.6-1.7s-3.1-1.2-6.1-1.7
	s-5.8-1.2-6.2-1.8s-1.9-1-3.6-1c-3.2-0.4-6.4-1.1-9.5-2.2c-2.9-1.1-5.9-1.8-9-2.2c-1.6,0-3-0.4-3.3-1s-3.1-1.2-6.1-1.7
	s-5.9-1.2-6.2-1.8s-2.2-1.1-4-1.1c-2.5-0.2-5-0.7-7.4-1.7c-2.2-0.9-4.5-1.5-6.9-1.7c-2.1-0.2-4.2-0.7-6.1-1.7
	c-1.8-0.9-3.8-1.5-5.8-1.7c-2.3-0.2-4.6-0.8-6.8-1.7c-2.5-1-5.1-1.5-7.7-1.7c-2.1,0-4.2-0.4-6.2-1c-1.8-0.7-3.7-1.2-5.6-1.7
	c-4.2-0.9-4-3.9,0.2-4.8c1.4-0.2,2.8-0.7,4-1.6c0.3-0.6,2.5-1,4.7-1s5.1-0.8,6.2-1.7c1.3-0.9,2.8-1.5,4.5-1.7
	c1.3,0,5.9-1.3,10.2-2.9s9.4-3.2,11.1-3.5c2-0.4,3.8-1.1,5.6-2.1c1.4-0.9,3-1.5,4.7-1.6c1.6,0,3.1-0.4,4.6-1
	c2.1-1.1,11-4.1,16.4-5.6c2-0.5,3.9-1.2,5.8-2.1c1.4-0.8,3-1.2,4.6-1.3c1.9-0.2,3.7-0.8,5.3-1.7c1.6-0.8,3.2-1.4,5-1.7
	c1.8-0.2,3.4-0.8,5-1.7c1.8-0.9,3.7-1.5,5.7-1.7c1.1,0.1,2.2-0.3,3.1-1c0.3-0.5,2.2-1.3,4.2-1.8c6.2-1.5,12.3-3.4,18.3-5.8
	c1.6-0.7,3.4-1.2,5.1-1.5c1.6-0.3,3.2-0.8,4.7-1.6c1.8-0.9,3.7-1.5,5.7-1.7c1.3,0,2.7-0.4,3-1s2.3-1.3,4.5-1.7
	c2.4-0.5,4.8-1.3,7-2.3c1.5-0.9,3.2-1.4,4.9-1.7c1.8-0.2,3.4-0.8,5-1.7c1.9-0.9,3.9-1.5,6-1.7c1.4,0.1,2.7-0.3,3.9-1
	c0.7-0.7,3.1-1.6,5.6-2.2c5.4-1.3,10.7-3.1,15.8-5.4c1.7-0.7,3.4-1.2,5.2-1.5c1.9-0.2,3.7-0.8,5.4-1.6c3.4-1.4,6.8-2.5,10.4-3.5
	c3.5-0.9,6.9-2.1,10.2-3.5c1.8-0.8,3.6-1.4,5.6-1.6c1.2,0,2.3-0.4,3.2-1c0.6-0.7,3-1.6,5.5-2.2s6.8-1.8,9.8-2.5s5.2-1.8,5.2-2.2
	s2.1-1.1,4.8-1.6s5.2-1.2,5.8-1.7c1.6-0.8,3.3-1.3,5-1.7c1.7-0.3,3.4-0.9,5-1.7c1.5-0.8,3.1-1.3,4.8-1.7c2.3-0.5,4.5-1.3,6.7-2.3
	c1.4-0.8,3-1.3,4.6-1.6c1.7,0,11.9-3.2,14.8-4.6c1.2-0.6,2.5-0.9,3.8-1c1.8-0.2,3.6-0.7,5.2-1.6c5.1-2.2,14.8-5.1,17.2-5.1
	c1.6-0.2,3.1-0.7,4.3-1.7c1.4-1,3.1-1.6,4.9-1.7c2.1-0.2,4.1-0.7,6-1.7c1.5-0.8,3.1-1.4,4.8-1.7c1.8-0.2,3.5-0.8,5.1-1.6
	c5.5-2.1,11.2-3.7,16.9-4.8c2-0.4,3.8-1.1,5.6-2.1c1.3-0.9,2.9-1.4,4.5-1.6c3-0.1,13.8-3.9,15.4-5.5c1-1,0.9-1.6-0.3-2.3
	c-2.3-1.4-5.3-1.3-10.6,0.6c-2.6,0.9-5.4,1.5-8.1,1.7c-2.6,0.2-5.2,0.7-7.7,1.7c-2.5,1-5.1,1.5-7.7,1.7c-2.7,0.1-5.4,0.6-7.9,1.6
	c-3.1,1.1-6.2,1.8-9.5,2.3c-2.9,0.3-5.6,1.1-5.9,1.8c-0.3,0.7-2.7,1-5.1,1c-2.9,0.1-5.8,0.7-8.5,1.7c-2.5,1-5.1,1.5-7.8,1.7
	c-2.6,0.1-5.2,0.6-7.6,1.6c-3.3,1.2-6.7,2-10.2,2.3c-3.6,0.4-6.9,1.2-7.6,1.7c-0.7,0.4-3.6,1.2-6.7,1.6c-3.5,0.6-7,1.4-10.4,2.4
	c-2.9,0.9-5.9,1.4-8.9,1.6c-2.3,0-4.7,0.4-5.3,1.1s-4.1,1.6-7.7,2.2c-9.7,1.6-21.7,4.1-26.2,5.5c-2.5,0.7-5.2,1.1-7.8,1.2
	c-2.2,0-4.6,0.5-5.2,1.2s-4.1,1.5-7.7,1.8s-7.1,1.1-7.9,1.7s-4.2,1.3-7.8,1.7s-7,1-7.7,1.6s-4.1,1.2-7.8,1.7s-7.1,1.2-7.9,1.8
	s-4.2,1.3-7.8,1.7s-7,1.1-7.8,1.7s-4.2,1.3-7.8,1.7s-7,1-7.6,1.6s-4.2,1.2-8.1,1.7s-7.2,1.1-7.5,1.7s-3.5,1.1-7,1.6
	c-3.6,0.4-7.1,1.2-10.6,2.3c-2.5,0.9-5.2,1.5-7.9,1.6c-2.6,0.1-5.2,0.7-7.7,1.7c-2.5,1-5.1,1.5-7.8,1.7c-2.7,0.1-5.3,0.7-7.8,1.7
	c-2.5,1-5.1,1.5-7.8,1.7c-2.7,0.1-5.3,0.7-7.8,1.7c-2.9,1-5.9,1.6-8.9,1.7c-2.7,0-5.2,0.5-5.8,1s-4.1,1.6-7.8,2.2
	c-16.8,2.9-23.6,4.4-26.5,5.6c-2.4,0.8-4.9,1.2-7.4,1.2c-2.2,0-4.7,0.6-5.3,1.2s-4.1,1.4-7.7,1.8s-7.1,1-7.8,1.6s-4.1,1.2-7.8,1.7
	s-7.1,1.2-7.8,1.8c-0.7,0.5-4,1.2-7.2,1.6c-2.8,0.2-5.6,0.8-8.2,1.7c-2.9,0.9-5.9,1.6-8.9,2.1c-3.7,0.6-10.1,1.8-14.5,2.7
	s-11.4,2.3-15.6,3.2s-8.6,1.9-9.2,2.3c-3.2,2-16.4,2.9-22.5,1.7c-2.5-0.4-4.9-1.1-7.2-2.1c-0.6-0.4-3.5-1.2-6.4-1.6
	s-5.6-1.2-5.9-1.9s-2.5-1-4.6-1c-2.4,0-4.7-0.6-6.9-1.6c-2.6-1.1-5.3-1.9-8-2.3c-2.1-0.3-4.2-0.8-6.1-1.7c-0.6-0.4-3.4-1.1-6-1.6
	c-2.1-0.3-4.2-0.8-6.1-1.6c-1.2-0.8-7.9-2.5-19.1-4.8c-3-0.7-6-1.7-6.6-2.2c-1.4-0.7-2.9-1.1-4.5-1c-2.3-0.1-4.6-0.7-6.7-1.7
	c-2.1-1-4.4-1.6-6.7-1.7c-2.2-0.1-4.3-0.7-6.2-1.7c-1.8-0.9-3.9-1.5-5.9-1.7c-2.1-0.1-4.2-0.6-6.1-1.6c-2.7-1.1-5.4-1.8-8.2-2.2
	c-2.9-0.5-5.6-1.2-5.9-1.9s-2.2-1-4-1c-2.5-0.2-5-0.7-7.4-1.7c-2.2-0.9-4.5-1.5-6.9-1.7c-2-0.1-4-0.6-5.8-1.6
	c-2.6-1.1-5.3-1.8-8-2.2c-2.9-0.5-5.5-1.2-5.8-1.9s-2.2-1-4-1c-2.5-0.2-5-0.7-7.4-1.7c-2.2-0.9-4.5-1.5-6.9-1.7
	c-2.1-0.2-4.2-0.7-6.1-1.7c-1.7-0.9-3.6-1.5-5.6-1.7c-2.5-0.2-5-0.8-7.4-1.6c-9.2-3-16.2-4.9-20.8-5.7c-2.7-0.5-5-1.2-5.5-1.8
	s-2.2-1-4.1-1c-2.4-0.1-4.7-0.7-6.8-1.7c-2.1-1-4.4-1.6-6.7-1.7c-2.3-0.1-4.6-0.7-6.7-1.7c-1.8-0.9-3.7-1.5-5.7-1.7
	c-2-0.1-4-0.6-5.8-1.3c-2.8-1-5.7-1.9-8.7-2.7c-3-0.7-8.6-2.1-12.3-3.2s-9.2-2.4-12.3-3s-6-1.7-6.7-2.2c-0.7-0.5-2.5-1-4.1-1
	c-2.5-0.1-4.9-0.7-7.2-1.6c-2.8-1-5.7-1.8-8.7-2.3c-2.4-0.4-4.9-1.1-5.6-1.7s-3.3-1.1-6.1-1.6c-2.1-0.3-4.2-0.8-6.1-1.6
	c-0.6-0.6-3.6-1.2-6.6-1.7s-6-1.1-6.7-1.7c-0.7-0.6-3.6-1.3-6.5-1.7c-2.9-0.3-5.6-1.2-5.9-1.9c-0.3-0.7-2.2-1-4-1
	c-2.5-0.2-5-0.7-7.3-1.7c-2.3-0.9-4.8-1.5-7.3-1.7c-2,0-3.9-0.5-5.7-1.3c-1.3-0.8-4.9-1.7-8-2.1c-9.1-1.5-17.2-3-18.4-3.8
	C-0.1,137.9-0.3,137.2,0.5,136.4z M953.1,141.3c1.8-1,1.6-1.1-1.2-1.2c-2.5,0-3,0.3-2.1,1.2C950.6,142.2,951.5,142.2,953.1,141.3z
	 M950.8,181c0.2-2.1,0.2-4.2,0.1-6.4c-1.7,0.5-6.3,3.7-6.3,4.5c0,0.5-2.1,3.2-4.7,5.9s-7.1,7.7-10,11s-8.2,9.1-11.7,13.1
	s-8.2,9.1-10.4,11.5s-6,6.6-8.6,9.5s-8.8,9.7-13.9,15s-9.6,10.9-10,12c-0.4,1.2-1.3,2.2-2.5,2.8c-0.9,0.3-5,4.7-9.1,9.7
	s-10.1,11.6-13.2,14.6s-9.2,9.8-13.7,15s-11,12.6-14.6,16.3c-8.8,9.2-15.8,18.6-15.8,21c0,1,1.1,2.3,2.6,2.9
	c3.5,1.3,25.1,7.5,35.9,10.1c13.8,3.3,29.9,7.8,32.3,8.8c3.3,1.1,6.6,2,10,2.8c4.3,1,9.4,2.3,11.1,2.9c11.2,3.2,13.2,2.7,15.2-4.9
	c2-7.4,5.6-24.1,6.5-30.2c0.3-3.1,1.1-6.2,1.7-7s1.6-5.8,2.6-11.1c1.7-9.7,2.6-14.2,4.7-23.6c0.7-2.8,1.9-9.6,2.9-15
	s2.6-12.3,3.3-15c2.2-7.2,5-20.4,5-24c0.1-2.2,0.6-4.4,1.6-6.5c1-2.4,1.8-4.9,2.2-7.5c3-19.5,4.8-28.6,5.9-30.4
	C950.2,188,950.7,184.5,950.8,181z M904.5,170.4l3.8-2.5l-3.9,0.1c-2.1,0-7.1,1.3-11.2,2.8c-8.5,3.3-13.6,5-22.8,7.8
	c-2.8,0.7-5.6,1.7-8.4,2.8c-2.5,1.2-13.4,4.3-15.2,4.3c-0.9,0-3.5,1-5.7,2.2c-2,1.1-4.2,1.9-6.5,2.2c-2,0.2-3.8,0.8-5.6,1.8
	c-1.8,1-8.1,3.2-13.9,5s-12,3.7-13.9,4.2c-7,2.6-28.1,9.2-33.4,10.7c-3,0.9-8.4,2.6-11.7,3.8s-8.9,3-12.3,3.9s-9.6,3-13.9,4.7
	s-10,3.7-12.8,4.6c-15.5,4.8-58.2,18.7-63,20.5c-3,1.1-8.5,2.8-11.9,3.8s-6.7,2.2-7,2.8s-1.9,1.1-3.3,1.1c-1.8,0.1-3.5,0.4-5.2,1
	c-1.5,0.5-8.8,3.1-16.5,5.6c-36.8,11.9-37.7,12.6-26.2,16c3.7,1.1,8.2,2.6,10,3.2s9.9,2.8,17.8,4.9s19.3,5.1,25.1,6.7
	s15.4,4.1,21.2,5.6s15.8,4.2,22.3,6s12.6,3.3,13.6,3.3c2.4,0.3,4.8,0.9,7.1,1.8c4.7,1.6,5.5,1.6,9.5,0s13.6-7.9,25.3-16.6
	c2.2-1.7,7.3-5.2,11.4-7.9c4.3-2.9,8.3-6,12.3-9.4c2.2-1.9,4.5-3.5,6.9-5c1-0.3,5.7-3.6,10.4-7.1s10.7-8,13.4-9.9s7.9-5.9,11.7-8.7
	s7.1-5.1,7.6-5.1s2.1-1.2,3.6-2.8s3.2-2.7,3.7-2.7s3.7-2,6.8-4.5c13.5-10.6,32.7-24.7,40.8-30.2c5.7-3.5,11.1-7.5,16.2-11.9
	c2.6-2.3,5.4-4.3,8.4-6.1c3-2,5.9-4.2,8.5-6.7C899.5,174.2,901.9,172.2,904.5,170.4z M847.5,151c2.5-0.3,5.7-3.6,4.6-4.6
	c-0.8-0.7-17.2-1.4-23.4-1c-2.8,0.1-168.8,0.3-369.1,0.6c-278.3,0.1-364.4,0.6-365.4,1.6c-1.7,1.7,4,4.2,14.6,6.7
	c4.1,0.9,8.1,2.2,12,3.8c2.4,1.1,4.9,1.8,7.5,2.1c2,0.1,3.9,0.5,5.8,1.2c2.5,0.9,5,1.6,7.6,2.1c2.4,0.5,8,2,12.3,3.1
	c9.5,2.7,28,7.6,31.8,8.4c1.6,0.3,4.6,1.1,6.7,1.7s8.7,2.5,14.5,4.1s13.4,3.7,16.7,4.6s9.1,2.5,12.8,3.2c4,0.9,7.9,1.9,11.7,3.2
	c2.4,0.9,5,1.5,7.6,1.8c1.4,0,8.2,1.7,15,3.8s15.5,4.4,19.2,5c3.4,0.7,6.7,1.5,10,2.6c4.9,1.7,13.9,4.4,18.4,5.4
	c2.1,0.4,6.9,1.7,10.6,2.7c2.9,0.9,6,1.5,9,1.8c1.4,0,2.7,0.6,3.7,1.6c0.7,0.9,3.7,1.9,6.6,2.2s8.5,1.8,12.5,2.9s10.5,2.9,14.5,3.9
	s10.5,2.8,14.5,3.9c31,9.2,43.6,11,57.2,8c3.5-0.7,9.2-1.9,12.8-2.6s9.4-2,13-2.9s10.5-2.3,15-3.4s12.9-2.6,18.4-3.8
	c26.1-5.7,36.3-7.9,44-9.4c4.6-0.9,11.1-2.2,14.5-3.1s9.9-2.1,14.5-2.9c5.2-0.8,10.3-1.9,15.3-3.3c7.1-2.3,9.8-2.9,22.8-5.1
	c4.3-0.7,8.6-1.6,12.8-2.8c2.5-0.7,7.2-1.7,10.6-2.2s9.9-1.8,14.5-2.8s10.6-2.3,13.4-2.8s11.6-2.5,19.5-4.2s20.5-4.5,27.9-5.8
	s16.6-3.3,20.6-4.5c5.3-1.4,10.7-2.5,16.2-3.3c4.9-0.8,11.1-2,13.9-2.8c7.1-2.2,29.6-7.1,36.2-7.9c3.5-0.4,6.9-1.2,10.3-2.2
	c2.7-0.9,9.9-2.6,16.2-3.8c6.2-1.2,12.5-2.8,13.7-3.3C844.1,151.7,845.8,151.2,847.5,151L847.5,151z"/>
<ellipse class="st0" cx="149.2" cy="76.9" rx="7.5" ry="12"/>
<ellipse transform="matrix(0.2548 -0.967 0.967 0.2548 140.6857 280.3521)" class="st0" cx="252.2" cy="48.9" rx="16" ry="12.5"/>
<ellipse class="st0" cx="101.2" cy="90.9" rx="7.5" ry="20"/>
<ellipse transform="matrix(0.9545 -0.2982 0.2982 0.9545 -23.4629 28.1438)" class="st0" cx="80.5" cy="91" rx="9.5" ry="20.7"/>
<ellipse transform="matrix(5.738980e-02 -0.9984 0.9984 5.738980e-02 -8.2294 184.14)" class="st0" cx="93.4" cy="96.4" rx="14.4" ry="20.7"/>
<ellipse transform="matrix(5.738980e-02 -0.9984 0.9984 5.738980e-02 34.9585 66.0464)" class="st0" cx="52.5" cy="14.5" rx="14.4" ry="19.9"/>
<ellipse transform="matrix(5.738980e-02 -0.9984 0.9984 5.738980e-02 25.2955 73.7179)" class="st0" cx="51.7" cy="23.5" rx="14.4" ry="19.9"/>
<ellipse transform="matrix(0.7726 -0.6349 0.6349 0.7726 -7.4679 45.0544)" class="st0" cx="59.2" cy="33" rx="7.3" ry="19.9"/>
<ellipse transform="matrix(0.7726 -0.6349 0.6349 0.7726 53.3633 249.0288)" class="st0" cx="374.3" cy="50" rx="6.8" ry="14.8"/>
<ellipse transform="matrix(0.7726 -0.6349 0.6349 0.7726 11.6879 225.5182)" class="st0" cx="320.7" cy="96.4" rx="6.8" ry="14.8"/>
<ellipse transform="matrix(0.7726 -0.6349 0.6349 0.7726 23.247 265.7905)" class="st0" cx="382.7" cy="100.4" rx="6.8" ry="14.8"/>
<ellipse transform="matrix(0.7726 -0.6349 0.6349 0.7726 94.696 371.2777)" class="st0" cx="565.7" cy="53.4" rx="6.8" ry="14.8"/>
<ellipse transform="matrix(0.1858 -0.9826 0.9826 0.1858 448.4265 676.7518)" class="st0" cx="632.6" cy="67.8" rx="21.2" ry="9.7"/>
<ellipse transform="matrix(0.1858 -0.9826 0.9826 0.1858 539.1832 770.2726)" class="st0" cx="734.4" cy="59.8" rx="21.2" ry="11.5"/>
<ellipse transform="matrix(0.1858 -0.9826 0.9826 0.1858 617.338 802.6415)" class="st0" cx="793" cy="28.8" rx="17.7" ry="9.7"/>
<ellipse class="st0" cx="770.7" cy="11.5" rx="31" ry="11.5"/>
<ellipse class="st0" cx="746.2" cy="11.5" rx="15.5" ry="11.5"/>
<ellipse class="st0" cx="740" cy="22.5" rx="11.2" ry="11.5"/>
<ellipse class="st0" cx="881.7" cy="75.5" rx="11.2" ry="11.5"/>
<ellipse class="st0" cx="982.7" cy="11.5" rx="11.2" ry="11.5"/>
</svg>
