<?xml version="1.0" encoding="utf-8"?>
<!-- Generator: Adobe Illustrator 25.0.1, SVG Export Plug-In . SVG Version: 6.00 Build 0)  -->
<svg version="1.1" id="Layer_1" xmlns="http://www.w3.org/2000/svg" xmlns:xlink="http://www.w3.org/1999/xlink" x="0px" y="0px"
	 viewBox="0 0 999.3 227" style="enable-background:new 0 0 999.3 227;" xml:space="preserve">
<style type="text/css">
	.st0{fill:#7C7C7C;}
</style>
<path class="st0" d="M83.5,4.1C12.2,25.2-22.4,110.6,15.7,172.8c9,14.6,24.6,29.6,39.2,39.2L79.5,227H920l24.1-15.1
	c13.6-8.5,31.6-25.1,40.2-37.2c13.5-19.1,15.1-25.6,15.1-57.7c0-31.6-2-39.7-15.1-60.8c-10.2-16.1-23.7-29.8-39.7-40.2L920,1.1
	l-409.7-1C254.7-0.4,94.1,1.1,83.5,4.1z M125.7,81.4c0,31.6-1,35.1-10.1,35.1c-8.5,0-10-4-11.5-29.6c-2-35.1,1-44.7,12.5-42.2
	C124.2,46.3,125.7,52.3,125.7,81.4L125.7,81.4z M619.2,59.8c1,8,5.5,14.1,11.5,15.6c12.5,3.5,12.5,13.6-0.5,17.1
	c-8.5,2.5-10,7-10,34.6c0,32.6-5.5,42.2-17.6,32.1c-5-4-7.5-16.1-7.5-34.1c0-20.1-2.5-29.1-8.5-34.2c-8-6.5-8.5-7.5-1-13.6
	c4.5-3,9.5-12.6,11.5-20.1C601.7,39.2,617.2,40.8,619.2,59.8z M91,76.4c1.5,4-0.5,12.1-5,18.6c-10.5,15.1-10,25.1,2.5,41.2
	c14.6,18.6,41.7,16.6,56.7-3.5c10.5-14.1,10.5-14.1-4.5-49.7c-2.5-6-1-10,5-12.1c22.1-8.5,37.7,51.7,19.6,77.3
	c-33.1,47.7-107.5,24.1-107.5-34.1C57.9,83.9,83,55.3,91,76.4L91,76.4z M262.8,82.4c7.5,10,8,74.8,1,79.3
	c-11,6.5-19.6-8.5-21.1-36.6c-1.5-26.6-2.5-28.6-14.1-28.6c-12,0-12.6,1.5-14,30.1c-1.5,33.6-6.5,42.7-18.6,32.6
	c-6-5-7.5-14.6-6.5-44.7l1.5-38.2l16.6-0.5c9-0.5,17.6-2,19.6-4C232.6,66.4,255.2,73.4,262.8,82.4L262.8,82.4z M396.3,73.9
	c8,3,13.1,8.5,13.1,15.1c0,9-2,10-17.6,7c-23.1-4-22.6,3,1.5,15.6c33.1,17.6,23.1,52.7-14.6,52.7c-18.6,0-39.2-17.1-31.1-25.6
	c5-5,9-5,19.1-0.5c13.6,6,22.6,4.5,22.6-4.5c0-2.5-3-4.5-7-4.5s-13.5-5-21.1-11.6c-11-9.5-13.1-14.6-10-25.6
	c2-7.5,8.5-15.6,14.6-18.1C380.2,67.9,381.2,67.9,396.3,73.9z M567,78.9c2.5,2.5,3,8,1,12.6c-2,6-7,7-21.1,4.5
	c-22.6-4-19.6,4,5.5,16.1c35.7,16.6,14.6,57.7-25.1,50.2c-19-3.5-27.6-15-18.6-24c4-4,9.5-4,19.1,0.5c23.6,10.5,26.1-2.5,2.5-14.1
	c-17.1-9-20.6-13-20.6-25.6c0-19.1,17.1-31.6,37.7-27.6C555.5,72.9,564,75.9,567,78.9L567,78.9z M700.1,76.4
	c15.1,7.5,29.1,33.1,23.1,42.2c-1.5,3-15.6,5.5-30.6,5.5c-28.1,0-34.6,5.5-17.1,15.1c7,3.5,13.1,4,19.6,0c15.1-8,25.6-6,25.6,4.5
	c0,12.6-25.1,22.6-47.7,18.6c-42.7-8-46.2-71.8-5-88.9C682,67.9,684.5,67.9,700.1,76.4L700.1,76.4z M808.5,74.9
	c6.8-0.3,13.5-1.3,20.1-3c7-2.5,15.1,0,24.1,7c12.5,10.1,13.6,13.6,13.6,45.7c0,19.1-2,35.2-5,35.2c-16.6,2.5-17.6,1-20.1-30.6
	c-2-26.6-4-32.6-12-34.1c-13-2.5-18.1,7.5-18.1,37.7c0,14.1-2.5,27.6-6,29.6c-10,6-19.1-14.1-19.1-42.2c0-25.1-1-26.6-11-25.1
	c-10.5,1.5-11.5,4.5-13.1,32.6c-1.6,30.6-7.6,40.2-20.7,32.1c-4-2.5-5.5-16.6-4.5-43.7l1.5-39.7l20.1-3c11-2,24.6-2,30.1-1
	C795,74,801.8,74.8,808.5,74.9L808.5,74.9z M928.5,73.9c8,3,13,8.5,13,15.1c0,9-2,10-17.6,7c-22.1-4-23.6,4.5-2.5,13.1
	c14.6,6,25.1,18.6,25.1,29.6c0,10.5-20.1,25.6-34.6,25.6c-19.6,0-40.7-17.1-32.1-25.6c5-5,9-5,19.6,0c23.6,10.5,25.6-2.5,2.5-14.6
	c-19.1-9.5-21.1-12-19.6-26.6c1-11,5.5-17.6,14.1-22.1C911.5,67.9,912.5,67.9,928.5,73.9L928.5,73.9z M444.5,87.4
	c13.1,35.7,13.1,36.2,24.6,10c7.5-17.1,13.1-23.6,20.6-23.6c14.1,0,13,7-10.5,63.3c-22.6,55.7-31.1,67.8-40.7,58.2
	c-4.5-4.5-4.5-10,0.5-24.6c5.5-17.1,4.5-22.1-6.5-50.2c-15.6-38.2-16.1-46.7-3-46.7C436,73.9,441.5,78.9,444.5,87.4L444.5,87.4z
	 M334.1,114.1c0,8.5-3.5,10-24.6,10c-24.6,0-34.1-5-28.1-15.1c1.5-3,14.1-5,28.1-5C330.5,104,334.1,105.5,334.1,114.1z"/>
<path class="st0" d="M669,97.5c-7.5,7.5-2.5,11.6,14,11.6c13.1,0,16.6-1.5,14.6-7.5C694.5,94,675,91,669,97.5z"/>
</svg>
