<?xml version="1.0" encoding="utf-8"?>
<!-- Generator: Adobe Illustrator 25.0.1, SVG Export Plug-In . SVG Version: 6.00 Build 0)  -->
<svg version="1.1" id="Layer_1" xmlns="http://www.w3.org/2000/svg" xmlns:xlink="http://www.w3.org/1999/xlink" x="0px" y="0px"
	 viewBox="0 0 923.4 122.8" style="enable-background:new 0 0 923.4 122.8;" xml:space="preserve">
<style type="text/css">
	.st0{fill:#7C7C7C;}
</style>
<path class="st0" d="M419,3.3c-4.7,4-76,114.3-76,118c0,0.7,5.7,1.3,12.7,1.3c12.3,0,12.3-0.3,42.3-48.3l29.7-48L440,45.7
	c23.3,37,24.3,33.7-10,33.7h-30l5.7,10l5.7,10h63.3L481,111c5.7,10.3,8,11.7,19.3,11.7c15.3,0,18,6.3-27.3-65
	C437,0.7,430.7-5.7,419,3.3z"/>
<path class="st0" d="M27.4,11c-38,23-36,82.7,3.3,104.3c9,4.7,19.3,5.7,62.7,5.7c51,0,52,0,65.7-9.3c31.3-20.7,36.7-63,11.3-90.3
	C155,5,144.7,2.7,90.7,2.7C44,2.7,40.7,3.3,27.4,11z M149.4,31c21,17.7,20.7,47.3-0.7,62.3c-9.3,6.7-15.7,7.7-49,8.7
	c-58.7,1.7-78.3-8.7-78.3-41.7c0-13,1.7-16.3,12.3-26.3l12.7-11.3h46.3C137.7,22.7,139.7,23,149.4,31L149.4,31z"/>
<path class="st0" d="M199.7,62.7v60H223v-100h41c27.7,0,42.7,1.3,46.3,4.3c9,7,10,17.3,2.7,26.7c-6.7,8.3-8.7,8.7-41.3,9.7l-34.3,1
	l33,29c31.7,28,33.7,29.3,48.7,29.3l15.7-0.3l-10-9c-5.7-5-16-14-23.3-19.7l-13.3-11h9.7c31.7,0,51.3-32,37-60
	c-9-17.7-18.7-20-80-20h-55L199.7,62.7z"/>
<path class="st0" d="M538,7.3c-19.3,8.7-35,33.7-35,56c0,16.7,12.3,38.7,27.7,48.7c12.7,8.3,16.3,9,56.7,10.3
	c42.3,1,43.7,0.7,49.3-6.7c3.3-4.3,6.3-9,6.3-10.3c0-1-20.7-2.7-45.7-3.3c-37-0.7-47.7-2.3-54.7-7c-11-7.3-16.3-19-16.3-36
	c0-11,2.3-16,11.3-25L549,22.7h82.7l5.7-10l6-10h-47.7C563.4,3,544.7,4.3,538,7.3z"/>
<path class="st0" d="M656.4,57.3c0,45.3,1,55.7,5.3,60s14.3,5.3,58,5.3c51,0,53-0.3,58-7.3c3-4,5.3-8.7,5.3-10
	c0-1.7-23.3-2.7-51.7-2.7h-51.7V2.7h-23.3V57.3z"/>
<path class="st0" d="M818,7.3c-42.3,19-47,78.7-8,104.3c13.3,8.7,16.7,9.3,57.3,10.7c42.3,1,43.7,0.7,49.3-6.7
	c3.3-4.3,6.3-9,6.3-10.7c0-1.3-17-2.3-38-2.3c-20.7,0-42.7-1-48.3-2c-10.3-2.3-30.3-18.7-30.3-25c0-1.7,21-3,48-3h48.3l7-10l7-10
	h-55c-38,0-55.3-1-55.3-3.7c0-2,5-8.7,11.3-15l11.3-11.3h80.4l7-10l7-10h-47.7C843.4,3,824.7,4.3,818,7.3z"/>
</svg>
