<?xml version="1.0" encoding="utf-8"?>
<!-- Generator: Adobe Illustrator 25.0.1, SVG Export Plug-In . SVG Version: 6.00 Build 0)  -->
<svg version="1.1" id="Layer_1" xmlns="http://www.w3.org/2000/svg" xmlns:xlink="http://www.w3.org/1999/xlink" x="0px" y="0px"
	 viewBox="0 0 974 374.8" style="enable-background:new 0 0 974 374.8;" xml:space="preserve">
<style type="text/css">
	.st0{fill:#7C7C7C;}
</style>
<path class="st0" d="M306.1,4.4c-8.1,8.1-5.8,26.3,4.2,29.8c17,6.6,33.2-15.1,22-29C326.6-1.4,312.3-1.8,306.1,4.4z"/>
<path class="st0" d="M218,30.3c1.2,1.6,12.8,5.4,25.5,8.1s22.8,6.2,22.4,7.7c-0.8,1.6-12.8,15.1-26.7,30.1l-25.6,27.4l-32.5,3.9
	c-17.8,2.3-34.8,4.2-37.5,4.2c-4.6,0-4.6,1.2-0.8,5.8c6.6,8.1,83.5,8.1,94.3,0c6.6-5,8.5-4.6,17.4,1.5
	c26.3,18.9,30.1,25.1,32.9,51.8c1.9,17,4.6,25.9,7.7,25.9c3.9,0,5.4-8.5,5.8-30.1c0.8-29.4,0.4-30.5-15.1-51.8
	c-8.5-12-15.5-22.8-15.5-24.4c0-1.2,7-11.2,15.1-22.4c15.1-19.3,15.1-20.1,8.9-30.5s-7-10.8-42.5-10.8
	C232.3,26.8,216.8,28.4,218,30.3z"/>
<path class="st0" d="M423.6,34.9c-2.3,7.3-37.1,160-37.1,163.1c0,1.5,7,2.7,15.1,2.7h15.1l8.9-36.7c7.7-32.9,10-37.1,17-35.9
	c6.6,1.2,8.5,5.8,12.4,32.1c2.3,17,4.6,33.2,4.6,35.6c0.4,3.1,6.6,5,17,5h16.6l-5-30.1c-2.7-16.2-5.8-33.6-7-38.3
	c-1.5-6.2,1.2-10,12-16.2c15.8-9.6,24.7-27.8,24.7-52.1c0-25.1-9.7-30.5-56.4-32.5C433.3,30.3,424.8,31.1,423.6,34.9z M474.6,52.3
	c17,4.6,13.9,37.1-4.6,49.9c-10.8,7.7-29.4,7.7-29.4-0.4c0-5.4,6.2-34.8,10-47.2C452.2,49.6,460.7,48.9,474.6,52.3L474.6,52.3z"/>
<path class="st0" d="M810.5,110.7c-10,44.4-18.2,82.7-18.2,85.4c0,3.5,4.6,4.6,14.3,3.9l14.3-1.2l18.5-79.2
	c10-43.7,18.2-81.6,18.5-84.3c0-2.7-5.4-4.6-14.7-4.6h-14.7L810.5,110.7z"/>
<path class="st0" d="M585.6,73.2c-27.8,6.2-34,13.9-44.8,56c-10,37.1-9.3,52.6,1.5,63C560,208.9,608,198,620,174.1
	c8.9-16.6,7.7-19.7-7.3-19.7c-11.6,0-14.3,1.5-18.9,13.5c-4.6,11.2-7.7,13.5-17,13.5c-14.3,0-17.8-7.7-12.4-27.4l4.2-15.1h64.9
	l2.3-20.9c3.1-23.6,0.4-35.6-8.9-40.6C616.5,72.4,597.9,70.1,585.6,73.2z M606.5,94.1c2.7,3.1,3.5,9.7,1.9,15.5
	c-1.9,8.9-4.2,10.1-19.7,10.1c-14.3,0-17-1.2-15.1-6.2c1.2-3.5,2.3-7.4,2.3-9.3c0-5.8,12-15.5,18.9-15.5
	C598.7,88.7,604.1,91,606.5,94.1z"/>
<path class="st0" d="M686.8,75.9c-1.9,3.1-37.5,156.2-37.5,161.2c0,1.2,7,2.3,15.1,2.3h15.5l4.6-23.6c3.9-18.9,5.8-22.8,10.8-20.5
	c3.5,1.5,13.5,3.5,22.4,4.6c23.6,2.3,33.2-9.3,43.3-53.7c9.3-39.4,10.4-61.5,3.5-68.4c-6.2-6.2-25.9-5.8-38.7,0.8
	c-9.3,5-10.8,5-10.8,0C715,72.8,689.9,70.5,686.8,75.9z M736.7,98.4c3.5,8.1-10.4,67.3-17.8,76.2c-7.3,9.3-23.2,6.6-23.2-3.9
	c0-17,15.5-68.4,21.7-73C726.3,91,734,91.4,736.7,98.4L736.7,98.4z"/>
<path class="st0" d="M884,136.6c1.9,56,1.5,64.9-4.2,73.4c-4.2,7-9.7,10-17.4,10c-8.9,0-11.6,1.9-13.2,10c-1.2,5.8,0,10.8,3.1,11.6
	c9.3,3.9,38.3-7,47.9-17.8C908.7,215,974,83.2,974,75.4c0-1.6-6.6-2.3-14.3-1.6l-13.9,1.2l-17,46.4c-9.3,25.5-17.8,47.2-18.9,48.3
	s-1.5-19.7-1.2-46.4l1.2-48.3l-14.3-1.1l-14.3-1.2L884,136.6z"/>
<path class="st0" d="M0,204.6c0,7.7,2.7,7.7,121.4,7.7c117.9,0,121.4-0.4,123.3-7.7c1.9-7.7,0-7.7-121.4-7.7
	C2.7,196.9,0,196.9,0,204.6z"/>
<path class="st0" d="M262,199.6c2.7,1.2,6.2,0.8,7.3-0.4c1.5-1.2-0.8-2.3-5-1.9C260.1,197.3,259,198.4,262,199.6z"/>
<path class="st0" d="M344,320.6c0,28.2,1.2,34.8,5.8,34.8s5.8-6.6,5.8-34.8s-1.2-34.8-5.8-34.8S344,292.4,344,320.6z"/>
<path class="st0" d="M251.2,297c0,4.2-2.3,8.5-4.6,9.7c-3.9,1.9-3.9,2.7,0,4.6c2.7,1.2,4.6,10,4.6,22.8c0,15.1,1.5,20.9,6.2,22.8
	c9.7,3.9,13.1,2.7,13.1-3.5c0-3.1-1.5-5.8-3.9-5.8c-5.8,0-4.6-33.6,1.2-36.3c3.9-1.9,3.9-2.7,0-4.6c-2.7-1.2-5-5.4-5-9.7
	c0-3.9-2.7-7.3-5.8-7.3S251.2,293.1,251.2,297z"/>
<path class="st0" d="M143,309c-9.7,9.7-5,21.6,9.7,25.5c5.4,1.2,9.7,4.6,9.7,7.7c0,6.6-5.4,7-15.5,0.8c-3.9-2.7-8.5-3.9-9.7-2.7
	c-4.2,4.6,2.7,14.3,12,16.6c23.6,6.2,34.8-19.3,13.1-30.5c-12.4-6.6-15.5-13.5-5.8-13.5c3.1,0,5.8,1.5,5.8,3.9
	c0,1.9,2.7,3.9,5.8,3.9c8.5,0,7.4-10.4-1.5-15.5C155.8,299.7,151.9,300.1,143,309z"/>
<path class="st0" d="M293.8,309c-4.6,4.6-7.7,12.8-7.7,21.2c0,13.1,10.4,29,19.7,29c7.7,0,18.9-8.1,18.9-13.5c0-7-10.4-7.7-12.4-1.1
	c-2.3,6.2-14.7,0.8-14.7-6.6c0-4.2,4.2-5.8,15.9-5.8c15.5,0,15.8-0.4,13.5-10.8C322,301.6,306.9,295.8,293.8,309z M313.1,318.6
	c0.1,3.1-2.3,5.7-5.4,5.8c-6.6,0-10.8-5.4-7.4-9.3C305,310.5,313.1,312.9,313.1,318.6z"/>
<path class="st0" d="M198.3,332.6c7.4,25.9,7.7,27.8,1.6,32.5c-3.5,2.7-6.6,5.8-6.6,7.3c0,4.6,14.7,2.3,19.3-3.5
	c5-5.8,20.1-60.7,17.4-63c-4.6-4.6-13.5,4.2-13.5,13.5c0,20.1-6.6,22.4-9.3,3.5c-2.3-13.5-4.2-17.8-9.7-17.8
	C190.6,305.1,190.6,306.3,198.3,332.6z"/>
</svg>
