<?xml version="1.0" encoding="utf-8"?>
<!-- Generator: Adobe Illustrator 25.0.1, SVG Export Plug-In . SVG Version: 6.00 Build 0)  -->
<svg version="1.1" id="Layer_1" xmlns="http://www.w3.org/2000/svg" xmlns:xlink="http://www.w3.org/1999/xlink" x="0px" y="0px"
	 viewBox="0 0 1001.2 236.2" style="enable-background:new 0 0 1001.2 236.2;" xml:space="preserve">
<style type="text/css">
	.st0{fill:#7C7C7C;}
</style>
<path class="st0" d="M40.9,13.4C38,21,27.5,44.8,17.7,66.5S0,106.7,0,107.4s7.2,1.1,16.6,1.1h16.3l8.7-19.9
	c8-17.4,10.1-19.9,19.5-19.9c15.9,0,19.9,7.6,13,23.5c-2.9,7.6-5.4,14.1-5.4,15.2c0,0.7,7.6,1.1,16.6,0.4c16.3-1.1,17-1.4,23.5-18.4
	c6.5-16.6,6.5-17.4,0-23.9s-6.2-6.5,5.8-11.2c15.2-5.4,24.6-23.5,19.5-37.2C129.5,4.7,113.2,0,77,0H46.7L40.9,13.4z M96.9,22.4
	c12.3,12.3-2.2,29.3-23.5,27.5l-14.1-1.1l6.5-15.6C71.6,20.6,74.1,18,82.5,18C88.2,18.1,94.4,19.9,96.9,22.4L96.9,22.4z"/>
<path class="st0" d="M356.6,11.6c-2.5,6.5-11.9,27.5-20.2,46.3c-24.6,55.3-24.2,50.6-5.1,50.6c16.3,0,16.3,0,24.2-18.8l7.6-18.4
	l5.8,17.8c5.8,17.7,6.1,17.7,22.8,18.8c9.4,0.7,17,0.4,17-0.7s-4-10.9-8.7-22.1c-5.1-10.9-7.6-19.9-5.8-19.9
	c1.5,0,11.9-7.2,23.1-16.6c11.2-9,20.3-14.1,20.3-11.6s-2.5,18.4-5.4,35.4s-5.4,31.8-5.4,33.3c0,1.8,8.7,2.9,19.2,2.9l18.8-0.4
	l21.3-26.8c11.9-14.8,21.7-27.1,22.1-27.1s-1.5,12.3-3.6,27.1l-4.3,27.1h38l28.6-33.6c43.4-51,40.9-45.9,19.9-45.9
	c-18.4,0-18.4,0-35.4,22.4C527,83.9,527,83.9,529.9,63.3c1-8.9,2.4-17.7,4.3-26.4c1.8-7.2,0.7-8-14.8-8c-16.3,0-17,0.4-38.3,27.1
	c-17.4,22.1-21.3,25.3-19.9,17.4c1.1-5.4,3.3-17.7,5.1-27.5l2.9-17h-63l-16.6,14.5c-9,7.9-17.4,14.5-18.5,14.5s3.6-12.3,10.5-27.5
	s12.7-28.2,12.7-28.9S387,0,377.9,0C363.1,0,361.3,1.1,356.6,11.6z"/>
<path class="st0" d="M708.8,51c-12.3,28.2-24.2,56.1-26,62.6c-2.2,6.1-5.1,12.6-6.5,14.8c-2.9,3.6-47,103.1-47,105.6
	c0,0.7,7.6,1.1,16.6,0.4l16.2-1.1l22.1-50.6c11.9-27.9,34.7-79.6,50.3-115c15.9-35.4,28.6-65.1,28.6-66.2c0-0.7-7.2-1.4-15.9-1.4
	h-15.9L708.8,51z"/>
<path class="st0" d="M776.5,18.8c-4.7,10.5-15.5,35.4-23.9,55.3c-8.7,19.9-22.4,51.7-31.1,70.5c-21.7,48.1-38,85.7-38,88.2
	c0,1.1,6.9,2.2,15.5,2.2h15.9l22.8-53.5c12.3-29.3,27.5-63.6,33.6-76.7c9.4-20.6,23.9-53.5,40.9-93.3L817.3,0H801
	C784.8,0,784.8,0,776.5,18.8z"/>
<path class="st0" d="M175.8,29.3c-26.8,6.5-49.2,31.1-49.2,53.9c0,4.3,4.3,11.6,9.4,17c8.3,8.3,11.2,9,35.4,7.6
	c22.1-1.1,28.6-2.9,39.4-11.2C256,62.2,231.5,15.6,175.8,29.3z M201.8,58.9c1.4,11.2-15.9,31.5-27.1,31.5
	c-17.7,0-20.2-17.7-4.7-32.9C184.1,43,200,43.8,201.8,58.9L201.8,58.9z"/>
<path class="st0" d="M293.6,29.3c-28.2,5.4-51.4,27.9-51.4,49.9c0,7.2,1.4,14.8,2.9,17c5.1,7.6,18.5,12.3,36.2,12.3
	c15.2,0,18.1-1.1,21.7-9c4-8.7,3.6-9-7.6-9c-34.7,0-22.8-38.3,13-42.3c11.9-1.4,18.4-4.3,21-9c2.2-4,3.3-7.6,2.5-8
	C328,27.9,307,26.8,293.6,29.3z"/>
<path class="st0" d="M632.2,30.4c-21.3,7.6-31.1,15.6-39.1,31.1c-9.8,18.8-9,23.9,3.3,36.5c10.1,9.8,12.3,10.5,39.8,10.5
	c25,0,29.7-1.1,32.9-6.9c1.8-4,3.6-7.6,3.6-8.3s-10.5-1.1-23.5-1.1c-22.4,0-30.4-3.6-30.7-13.7c0-1.4,13-2.5,28.9-2.5
	c24.2,0,30-1.1,36.2-7.2c9-9,9.4-26,0.7-33.6C674.8,26.4,648.4,24.2,632.2,30.4z M661.1,53.2c1.1,7.6,0,8.3-17.4,8.3
	c-17,0-18.1-0.4-14.5-6.9C636.5,40.9,659.3,39.8,661.1,53.2L661.1,53.2z"/>
<path class="st0" d="M788.4,115.4c-5.4,10.5-4.7,11.2,10.8,11.2c10.5,0,15.2-1.8,18.1-6.9c5.4-10.5,4.7-11.2-10.8-11.2
	C796,108.5,791.3,110.3,788.4,115.4z"/>
<path class="st0" d="M493.6,133.1c-23.5,7.6-47,30.4-52.1,50.3c-8.7,31.8,10.9,51.7,50.3,51.7c16.3,0,18.8-1.1,21.7-9.4
	c5.1-12.7,5.1-12.3-10.1-12.3c-17.7,0-27.1-6.9-27.1-20.2c0-23.1,23.5-41.6,53.5-42c13.7-0.4,15.9-1.8,21.3-12.7l5.8-11.9l-22.8,0.4
	C521.8,126.9,503.8,129.8,493.6,133.1z"/>
<path class="st0" d="M578.3,155.5c-21,3.6-39.4,17.4-47.4,34.7c-13,29.7-0.4,45.6,36.2,45.6c25,0,38.3-6.1,54.6-24.2
	c11.2-12.7,15.2-33.6,8.3-43.8S598.9,151.5,578.3,155.5z M599.6,186.6c2.2,20.6-27.1,39.4-39,25c-10.1-12.3,10.8-39.1,28.9-37.2
	C596.7,175,598.9,177.6,599.6,186.6L599.6,186.6z"/>
<path class="st0" d="M762.3,172.5c-4,9.8-11.9,27.5-17.7,40.1l-10.1,22.8l17-1.1l17-1.1l15.2-34.4c8.3-18.8,15.2-36.5,15.2-39
	c0.4-2.9-4.7-4.3-14.5-4.3C770.7,155.5,769.6,156.2,762.3,172.5z"/>
<path class="st0" d="M810.4,183.4c-6.9,15.5-14.5,33.6-17.4,39.8l-4.7,11.9h31.1l11.9-25c13-27.9,26.4-38,39.4-29.7
	c4,2.5,2.9,8.3-6.2,28.9l-10.8,25.7h16.3c15.9,0,15.9,0,24.6-19.5c17.7-40.1,18.8-44.5,11.2-52.8c-8.7-9.4-32.2-9.8-47.4-0.4
	c-11.2,6.9-11.6,6.9-9.8,0c1.8-5.8,0-6.9-12.3-6.9h-14.1L810.4,183.4z"/>
<path class="st0" d="M935.6,162c-18.8,11.6-16.6,27.8,5.4,39c20.3,10.5,9.4,21.3-17.3,17.4c-13.4-1.8-15.5-1.4-17.7,5.8
	c-1.5,4.3-1.5,8.7-0.7,9.8c1.1,1.1,13.7,1.8,28.6,2.2c18.8,0.4,29.7-1.1,38-5.8c20.3-10.9,19.2-29.7-2.5-38.7
	c-6.5-2.9-10.8-7.2-10.8-11.2c0-7.2,3.3-8,25.7-6.9c14.1,0.4,22.4-9,13.4-15.2C988.7,153,946.4,155.1,935.6,162z"/>
</svg>
