<?xml version="1.0" encoding="utf-8"?>
<!-- Generator: Adobe Illustrator 25.0.1, SVG Export Plug-In . SVG Version: 6.00 Build 0)  -->
<svg version="1.1" id="Layer_1" xmlns="http://www.w3.org/2000/svg" xmlns:xlink="http://www.w3.org/1999/xlink" x="0px" y="0px"
	 viewBox="0 0 432.8 491.9" style="enable-background:new 0 0 432.8 491.9;" xml:space="preserve">
<style type="text/css">
	.st0{fill:#7C7C7C;}
</style>
<path class="st0" d="M0,245.9v246h432.7V0H0V245.9z M258.9,56.3c8.8,8.4,22.8,9.4,39.7,2.7c16.7-6.3,19.9-6.6,29.6-2.2
	c9.4,4.2,16,4.8,25.4,1.7c5-1.4,10.1-2.3,15.3-2.6l8.9-0.6l1.2,7.9c1.7,12.4,1.3,54.5-0.9,66.1c-1.6,8.8-2.3,10.4-5.2,11.1
	c-5,1-10.1-1.2-12.7-5.5c-2.9-4.3-5.5-4.6-14-1.6c-5.3,1.9-6.5,1.9-10.1,0c-6.9-3.6-13.8-2.6-28,3.9c-10.7,4.9-14.7,6.1-21.9,6.1
	c-11,0.1-15.3-2.2-18.8-9.8s-6.3-7.9-20.5-2.6c-6.1,2.3-12.8,4.6-15,5.2c-3.9,0.9-4,0.7-4-5.2c0-9.1-5-42-8.7-55.8
	c-1.6-6.6-2.9-12.3-2.6-12.4c0.7-0.6,18.8-8.2,22.8-9.5C244.9,51.3,255.5,53.1,258.9,56.3z M61.3,63.5c4,1.6,11,3.8,15.6,5
	c5.6,1.4,10.7,4.3,14.7,8.5c5.8,5.8,15.7,11,17.5,9.1c0.4-0.4-0.4-5.9-2-12.3l-2.8-11.5l3,1c2.3,0.9,3.8,4,6.2,12.6
	c1.7,6.2,3.2,13.1,3.2,15.4l0.1,3.9l-18.3-0.7c-10.2-0.6-21.2-1.6-24.4-2.5c-4.3-1-6.9-1-9,0.2c-4.8,2.6-13,1.9-16.2-1.3
	c-4-4-3.6-6.3,0.7-3.5c2.7,1.9,5.2,2.2,9.8,1.3c8.4-1.4,14-1.4,19-0.2l4.3,1.3l-4.2-4.5c-4.6-4.9-7.5-6.2-21.4-9.5
	c-10.2-2.3-17-5.8-17-8.8c0-1.2,2.2-0.7,6.6,1.6c3.8,1.9,7.8,3.3,12,4.2c12,1.9,16.3,3.9,22.5,10.4c4.8,4.9,6.8,6.2,8.7,5.2
	c3.6-2-10.1-14.4-17.5-15.6c-11.1-1.9-20.2-5.1-26.8-9.2c-3.9-2.5-6.9-4.6-6.9-4.9C39,57.6,54.4,60.9,61.3,63.5z M132.6,74.9
	c1.6,6.6,3.2,12.3,3.6,12.7c1.4,1.4,13.7-6.2,21.4-13.4c5-4.9,9.4-7.8,11.5-7.8c1.9,0,6.4-1.2,10.1-2.5c6.8-2.4,9.5-2,7.8,0.9
	c-0.9,1.4-6.6,3.3-15.9,5.2c-2.2,0.4-7.4,3.9-11.5,7.8c-3.5,3.3-7.1,6.4-11,9.2c-2.9,2-3,2.4-1,2.4c3.9,0,8.2-2.6,15.6-9.4
	c4.9-4.6,8.5-6.5,14.4-7.8c4.4-1,8.7-2.6,12.7-4.6c4.9-2.9,7.2-2.2,7.4,2.3c0,2.5-7.4,6.1-16,7.8c-5.2,1.2-9.4,3-11.4,5.2l-3.3,3.6
	h6.8c4.1,0.1,8.2,0.9,12.1,2.3c3.4,1.4,7.1,2.2,10.8,2.2c3.6,0,5.3,0.7,5.3,2c0,3.3-5.9,3.9-13.7,1.4c-8.9-2.7-24.5-2.7-36.8,0
	c-4.8,1-9.6,1.7-14.4,2.1h-5.2l-3.3-14.6c-1.7-8.1-3.6-15.6-4-16.6c-0.4-1.3,3.3-3.6,4.9-2.7C129.5,62.8,131,68.2,132.6,74.9z
	 M187.7,107.7c3.3,1.4,6.8,2.2,10.3,2.4c5.6,0.1,8.1,1.4,8.2,4.2c0,2-11,1.3-16.3-1c-5.8-2.4-20.5-2.9-21.9-0.9
	c-0.4,0.9,3.2,2.9,8.1,4.6c5.5,2.2,10.7,5.1,15.4,8.8c3.8,3.2,8.5,6.1,10.8,6.5c3.9,0.9,6.3,2.9,4.9,4.3c-1.8,1.9-10.2-1.7-17.9-7.7
	c-4.5-3.5-10.8-7.1-14-7.9c-3.9-1.1-7.8-2.6-11.4-4.5c-3-1.4-6.6-2.6-7.9-2.3c-3.6,0.7,6.9,6.8,15.6,9.1c5.2,1.6,10,4.2,14.1,7.8
	c4,3.3,10,6.6,13.9,7.6c5,1.3,6.2,2,4.2,2.8c-6.5,2.6-12.4,1.3-19.8-4.3c-4.5-3.4-9.4-6-14.7-7.8c-5-1.6-9.8-3.6-14.4-5.9
	c-3.9-2-8.9-3.8-11.2-3.8h-4.2l1,11.4c0.9,9.7,0.7,11.4-1.3,12.3c-3,1-3.2,0-4.2-17.4l-0.7-14.7l6.8-0.9c3.8-0.4,11.4-1.6,16.9-2.8
	C171.8,104.9,182.5,104.9,187.7,107.7L187.7,107.7z M89.4,108.8c6.8,0.3,16.3,1,21.2,1.6l9,1.2l0.9,9.5c0.4,5.2,1.2,12.3,1.6,15.6
	c0.7,5.5,0.4,6.2-2,6.2s-2.9-1.4-3.8-11.8c-0.6-6.5-1.3-12.1-1.6-12.4c-1.3-1.3-10.2,3.3-15.1,7.8c-3.4,2.9-7.3,5-11.5,6.3
	c-4.4,1.4-8.6,3.4-12.4,6c-4,2.9-7.4,4-10,3.8c-3.6-0.4-3.3-0.9,5.2-6.5c5-3.2,11.5-6.3,14.3-6.9c3.6-1,7-2.6,10-4.9
	c3-2.2,6.1-4.2,9.2-6.1c3.6-2,3.9-2.5,1.7-3.3c-1.7-0.6-5,0.7-10,4c-4,2.7-9.7,5.3-12.4,5.9c-4.1,1.2-8,2.9-11.5,5.2
	c-3.9,2.3-7.9,4.5-12,6.4c-5.8,2.3-5.5,2.6-5.3-4.8c0-0.6,1.6-1.4,3.6-1.9c1.9-0.6,6.2-3,9.7-5.3c3.4-2.4,7.2-4.2,11.2-5.3
	c2.7-0.6,5.4-1.4,7.9-2.6c2.6-1.4,2.2-1.7-3.6-2.6c-6-0.8-12-1.2-18-1.2c-10.4-0.1-15.1-1.4-15.1-4.5
	C50.5,107.5,66.8,107.6,89.4,108.8L89.4,108.8z M266.4,148.4c1,0.6,2.7,3.5,4,6.3c1.2,3,3.5,6.1,4.9,6.9c6.1,3.2,18.2,1.6,35.5-4.5
	l16.9-6.1l7.8,2.7c6.8,2.3,8.4,2.4,12.5,0.7c3.2-1.3,6.6-2.2,10-2.6c4.8-0.6,5.5-0.3,7.5,3.8c1.7,3,3.5,4.5,5.8,4.5
	c3.2,0,3.6,0.9,4.5,7.5c0.4,4.2,3.2,16.7,5.9,27.8s5.5,24.8,5.9,30.4l0.9,10.2l-7.8,0.9c-5.2,0.6-10.4,1.6-15.4,3
	c-5.2,1.4-8.8,1.7-11.1,0.9c-3.3-1.3-3.9-2.3-5.6-10.5c-1.2-5.1-2.9-5.1-20.8,1c-21.3,7.2-34.9,9.9-46.5,9.2
	c-13-0.7-16.2-3.3-15.7-12.7c0.7-13.1-2.7-13.1-26.7-0.7c-9.8,5.2-18.2,9.4-18.6,9.4s0.3-3.8,1.3-8.4c2.7-11.5,5.9-35.8,7.1-53.7
	l1-15.1l16.2-6.1C263.1,146.8,263.9,146.7,266.4,148.4L266.4,148.4z M75.7,163c10.1-1.6,13.3-1.6,17.9,0c4.6,1.4,6.6,1.4,10.1,0
	c3.1-1.2,6.6-1.4,9.8-0.6c3,0.7,11,1.3,17.7,1.3c6.8,0.1,16.6,0.7,21.9,1.3c6.9,0.9,11.5,0.7,16.6-0.7c3.8-1,13.9-1.9,22.4-2h15.6
	v10.1c0,17-3.9,45.6-8.8,64.5l-1.4,5.5h-9.7c-13-0.1-20.6-2-23.7-6.1c-1.4-1.9-3.3-4.2-4-5.2c-2.7-3.2-12.3-1.9-31.2,4.2
	c-23.1,7.5-29.9,7.9-34.3,2.3c-3.9-4.9-7.1-4.9-19.9-0.3c-11,3.9-25.7,5.1-25.7,1.7c0-0.9,1.3-10.4,2.9-20.9s3.2-27.7,3.8-37.8
	l1-18.5l3.3,1.4C62.6,164.4,66.8,164.4,75.7,163z M170.2,267.7c5.6,1.7,9.5,4.2,15,9.7c16.5,16.4,16.5,39,0,55.4
	c-15.9,16-38.7,16-54.8-0.1s-16.2-38.8,0-55.1C141.8,266.2,154.5,263.1,170.2,267.7z M99.7,270.7c13,8.2,14.4,27.1,2.7,36.9
	l-5.5,4.5l10,14.9c5.5,8.1,10,15.1,10,15.6s-4.8,0.7-10.4,0.4L96,342.6l-8.7-14c-7.5-12.3-9.2-14.1-12.5-14.1h-3.9l-0.4,14L70,342.6
	H52.6l-0.4-36.1c-0.1-19.8,0-36.9,0.4-38.1c0.6-1.6,4.6-1.9,21.4-1.3C91.9,267.7,95.4,268.2,99.7,270.7L99.7,270.7z M224.3,283
	l8.4,16l8.1-15.7l8.1-15.7l9.8-0.4c5.3-0.3,9.7,0,9.7,0.6s-6.2,11.8-13.7,25.2l-13.7,24.4v26h-17.3v-27l-13-23.1
	c-7.1-12.8-13-24-13-24.8s3.5-1.6,9.2-1.6h9.2L224.3,283z M299.6,268.6c2.9,4.5,31.7,73.3,31,74c-1.6,1.6-17.5,0.7-18.6-1
	c-0.6-1-2.5-5-4.2-9.1c-2.6-6.3-3.5-7.2-7.6-7.6c-6.6-0.7-16.6,4.6-22.9,12.1c-5.2,6.2-5.3,6.3-14.3,6.3c-5,0-9.1-0.4-9.1-0.9
	s7.2-17.8,16.2-38.2l16-37.3h6.2C295.7,266.9,298.9,267.7,299.6,268.6L299.6,268.6z M356,297.5l0.3,30h23.1v15.9H339v-76.2l8.4,0.1
	l8.2,0.3L356,297.5z M90.9,379.8l18,26.3l0.4-26.4l0.3-26.3h20.2l-0.3,42.9l-0.4,43H109l-17.5-25.5c-9.5-14-17.7-25.5-18.3-25.7
	s-1.1,11.7-1.1,26v26.1l-9.7-0.4l-9.8-0.4l-0.4-43l-0.3-42.9h20.9L90.9,379.8z M205.9,395.7c9.7,22.9,17.8,42.3,17.8,43
	s-4.8,1.3-10.7,1.3h-10.7l-4.3-10.5c-4.9-11.5-6.8-12.7-16.7-9.7c-8.2,2.5-15.4,7.6-20.5,14.6l-3.9,5.6h-10.5
	c-5.9,0-10.7-0.4-10.7-1.2s7.5-18.6,16.7-40s17.3-40.4,18-42.3c1.1-3,2-3.3,9.4-2.9l8.2,0.4L205.9,395.7z M237.3,379.8
	c5.8,14.1,10.8,26.1,11.2,26.4s5.3-11.2,11.3-25.7l10.7-26.4l11.4-0.4c10.4-0.4,11.2-0.1,10.4,2.2c-3.9,10.1-34.8,80.9-35.9,82.4
	c-1,1.1-4,1.7-8.5,1.4l-7.1-0.4l-18-41.8c-9.8-22.9-17.9-42.3-17.9-43s4.9-1,11-0.7l11,0.4L237.3,379.8z M329.3,371.5l8.9,18l9.4-18
	l9.4-18h22.4l-2.7,5.3c-1.5,3-8.2,14.9-14.7,26.4l-12,20.9l-0.9,16.6l-0.7,16.6h-20.2l-0.7-16.6l-0.7-16.6L313.6,383
	c-7.2-12.7-13.8-24.5-14.9-26.4c-1.7-3.2-1.7-3.2,10-3.2h11.5L329.3,371.5z"/>
<path class="st0" d="M149,285.5c-16,7.4-15.7,32.2,0.6,39.4c8.2,3.6,14.6,2.6,21.4-3.3c9.1-8,10-21.8,2.1-31c-2.2-2.5-5-4.5-8.1-5.8
	C158.7,282.2,156.2,282.3,149,285.5z"/>
<path class="st0" d="M70.7,290.5v11h7.8c6.8,0,8.2-0.6,10.8-3.8c3.8-4.8,3.9-9.4,0.4-13.6c-2-2.6-4.6-3.5-10.8-4l-8.2-0.6V290.5z"/>
<path class="st0" d="M287.2,308.1c-4.3,10.8-4.3,11-1.2,10.1c1.7-0.4,5.8-1.3,9.1-1.7l5.9-0.9l-3.8-9.2c-2-5-4.2-9.2-4.6-9.2
	S289.8,302.1,287.2,308.1z"/>
<path class="st0" d="M174.7,397c-2.6,6.6-5,12.7-5.5,13.7c-0.6,1.3,0.4,1.4,4.2,0.4c3.3-0.9,6.7-1.4,10.1-1.5c3,0,5.5-0.4,5.5-1.1
	c0-1-8.5-22.1-9.4-23.1C179.5,385.3,177.3,390.5,174.7,397z"/>
</svg>
