<?xml version="1.0" encoding="utf-8"?>
<!-- Generator: Adobe Illustrator 25.0.1, SVG Export Plug-In . SVG Version: 6.00 Build 0)  -->
<svg version="1.1" id="Layer_1" xmlns="http://www.w3.org/2000/svg" xmlns:xlink="http://www.w3.org/1999/xlink" x="0px" y="0px"
	 viewBox="0 0 878.5 458.9" style="enable-background:new 0 0 878.5 458.9;" xml:space="preserve">
<style type="text/css">
	.st0{fill:#7C7C7C;}
</style>
<path class="st0" d="M417.1,2.6c0.6,1.5,1.5,4.1,2,5.8c0.8,2.9,0.8,2.9-3.2,0.3c-1.5-1-3-1.9-4.6-2.6c-0.3,0-0.6,3.8-0.5,8.4
	c0,4.6,0.3,8.5,0.6,8.5c1.4-0.7,2.8-1.5,4.1-2.5c4.9-3.2,4.9-1.1,0,5.5c-3.8,5.2-5.2,14.3-2.3,16.1c0.9,0.5,1.5,0.2,1.5-0.6
	c0-1.1,3.5-1.7,8.5-1.7c8,0,10.6,1.5,6.6,4c-0.7,0.5-1.7,0.4-2.3-0.3c-0.1-0.1-0.1-0.2-0.2-0.3c-0.6-2-5.8-2.5-7.1-0.6
	c-1.2,2-14.3,1.1-16.9-1.1c-1.4-1.1-3.4-1.7-4.6-1.2c-1.2,0.5-2.6-0.2-3-1.4c0,0,0-0.1,0-0.1c-0.8-1.7-2.1-2.2-5.5-1.5
	c-2.5,0.6-4.9,0.3-5.4-0.5c-1.2-2-6.9-2-6.9,0c0,0.8-2,1.1-4.3,0.6c-2.9-0.6-4.9-0.2-6.3,1.5c-1.3,1.4-3,2.3-4.9,2.5
	c-3.1,0-6,4.3-4.9,7.2c0.5,1.1-0.3,2-1.7,2c-3.4,0-5.7,4.9-3.7,8.3c1.1,1.8,1.1,3.2-0.1,4.4c-2.8,2.8-2,7.4,1.4,8.3
	c3.2,0.9,4,2.8,1.7,4.1c-2.5,1.5,0.1,7.1,3.7,8c3.7,0.9,6.1,7.7,4.5,12.1c-0.6,1.4,0,3.5,1.4,5.1c3.2,3.5,6,18.9,3.8,21.3
	c-2.1,2.6-0.5,6.6,2.8,6.6c2,0,2.1,0.5,0.6,2.3c-1.5,1.8-3.5,1.4-13.5-3.8c-6.6-3.2-16.1-8.4-21.5-11.4c-5.2-3.1-9.5-4.9-9.5-4.3
	s1.8,2.3,4.1,3.7c3.5,2,35.3,24.9,37,26.6c0.2,0.1-7.4,2.3-16.9,4.6c-34.7,8.4-47.5,14.7-40.4,20.3c1.7,1.2,2.4,2.6,1.5,2.9
	c-7.7,3.1-27.6,14-28.1,15.5c-0.3,0.9,0.9,2.9,2.5,4.6c4.9,4.6,9.4,14.7,8.4,19.4c-0.8,3.7-0.1,4.4,5.8,7.2c7.5,3.4,13.7,4,13.7,1.4
	c0-0.9-1.4-3.5-3.1-5.7l-3.2-4l3.5-1.8c2.5-1.2,3.8-1.4,4.5-0.3c1.7,2.6,14.1-2,16-6c0.8-2.2,3-3.5,5.4-3.2c2.1,0,8.3-1.7,13.8-3.8
	c12-4.6,13.7-4,18.3,6.4c1.7,4.3,4,8.1,4.8,8.6c0.9,0.5,1.5,2.6,1.5,4.6c0,3.7-0.1,3.7-9.7,2.8c-11.2-0.9-10.9-1.4-13.4,14.1
	c-1.3,6.6-3.3,13-6,19.2l-4.6,9.5l2.9,7.4l2.8,7.2l-15.2,9.2l-15.2,9.2l20.9,10.3c11.4,5.5,21.3,10.1,22.1,10.1c0.8,0,1.5,0.9,2,1.8
	c0.1,0.7,0.7,1.1,1.3,1.1c0.2,0,0.5-0.1,0.7-0.3c0.8-0.6,0.3-1.9-0.9-2.8c-2-1.2-1.9-1.8,0.6-3.7c4.1-3.1,32.9-3.2,37-0.2
	c2.8,2,2.8,2.1-0.1,2.9c-4.7,0.9-9.4,1.5-14.1,1.8c-9.4,0.9-11.7,0.6-14.1-1.5c-2.8-2.5-2.9-2.3-5.2,2c-2.6,4.9-5.2,6.5-11.2,6.5
	c-3.8,0-4,0-1.2-3.1c4.1-4.6,1.8-5.2-2.5-0.6c-3.1,3.2-3.2,4.1-1.4,5.4c3.1,2,12.3,0.6,15.1-2.3c2-2,4.1-1.4,17.4,5.4l15.2,7.5v10.6
	c0,7.1,0.6,10.9,2,11.4c1.4,0.6,1.4,1.2-0.3,2.3c-3.2,2.3-0.3,11.7,3.7,12.3c2.8,0.5,2.8,0.5,0.6-1.5c-1.6-1.5-2.8-3.4-3.4-5.5
	c-0.8-2.9-0.5-3.2,1.4-1.7c1.2,0.9,2.8,1.4,3.2,0.8s0.1-1.7-0.9-2.3c-1.4-0.9-1.8-3.1-1.4-6.1c0.8-5.1-1.1-6.8-2.3-2
	c-0.5,1.4-0.8-0.1-0.8-3.5s0.3-4.9,0.8-3.4c0.3,1.4,1.4,2.6,2.1,2.6c1.7,0,0-8.1-2-8.9c-1.8-0.8-1.5-9.5,0.5-9.5
	c1.1,0,1.2-2.5,0.5-7.1c-0.6-4.5-0.5-7.5,0.6-8.1c0.9-0.5,2-3.1,2.5-5.5c0.8-3.8,0.8-4.1-0.6-1.5s-1.4,2.3-0.6-1.5
	c0.5-2.6,1.5-4.9,2.3-5.1c1.5-0.6,0.3-3.4-1.5-3.4c-1.2,0-3.7,5.8-3.4,8c0.1,1.5-5.1-0.6-19.8-8l-12.6-6.3l15.8-10
	c8.8-5.4,16-10.7,16.1-11.8c0-0.9-1.9-4.3-4.1-7.2c-6.6-8.9-13.5-24.6-10.6-24.6c0.8,0,2.1,2.8,3.1,6s4.6,10.1,8.3,15.2
	c7.1,9.7,11.8,14.1,8.8,8.3c-0.9-1.9-2.3-3.7-3.2-4.1c-2.6-1.5-12.3-17-12.3-19.6c0-1.5,1.8-2.8,5.4-3.5c2.9-0.5,5.4-1.5,5.4-2.3
	s-2.1-0.9-4.8-0.3c-3.2,0.6-8-0.5-15.7-3.5c-12.3-4.8-15.2-6.4-14.1-8.3c0.4-0.7,0.2-1.7-0.6-2.1c0,0,0,0-0.1,0
	c-0.8-0.6-1.2,0.3-0.9,1.7c-0.1,2-1,4-2.6,5.2c-1.8,1.5-4.5,7.5-6.6,16.1c-2.8,10.1-4.1,13.7-6,13.5c-3.8-0.5-2.9,1.5,2.1,4.5
	c5.1,2.9,5.8,6.5,2.1,11.5c-2.8,4-5.2,3.1-5.2-2c0-4.1,2.4-6.5,3.5-3.5c0.3,1.1,1.2,1.5,1.8,0.8c0.8-0.6,0.6-1.9-0.5-2.9
	c-1.2-1.2-2.3-1.2-3.8,0.1c-1.8,1.4-2.6,0.8-4.1-2.9c-1.7-4.3-1.5-5.7,2-12.7c2.6-5.8,4.5-11.8,5.7-18c2.6-14.1,3.1-14.7,10.8-14.1
	c3.7,0.3,11.1-0.3,16.4-1.2c8-1.5,10.1-1.5,12.3,0.2c2.1,1.8,2.5,1.8,1.7-0.2c-0.5-1.5-2.8-2.3-7.2-2.3c-6.1,0-6.5-0.1-5.5-3.8
	c1.2-4.6,4.8-8.8,8.6-10c1.7-0.6,2.9-1.7,2.9-2.6s-0.9-0.9-2.3,0.3c-3.8,3.2-4.6,0.3-1.2-4.3c2.5-3.1,4.3-4,7.5-3.7
	c6,0.6,24.4,9.2,27.6,12.7c2.8,3.1,3.4,9.4,1.5,14.4c-0.8,2-0.3,1.8,1.4-0.8l2.5-3.8l-0.9,4.1c-0.5,2.8-0.1,4.3,0.9,4.3
	c0.9,0,1.4,1.1,0.8,2.3c-0.5,1.2,0,2.3,0.9,2.3c1.1,0,1.2-3.1,0.6-9.7c-0.8-6.9-0.6-9.1,0.6-7.8c0.9,0.9,2,5.1,2.5,9.4
	c0.9,6.4,0.5,8.6-3.1,14.1c-2.3,3.5-3.7,7.1-3.2,7.8c0.6,0.9,0.3,1.5-0.5,1.5c-1.5,0-6.6,6.9-7.1,9.8c-0.1,0.9-1.8,4.1-3.7,7.1
	s-3,6.2-2.8,7.2c0.5,0.9-0.3,2.1-1.5,2.6c-1.3,0.6-2.1,1.8-2.1,3.2c0,3.2-2,2.9-5.4-0.8c-1.5-1.7-3.1-2.8-3.5-2.3s0.5,2.1,1.8,3.7
	c2.1,2.5,2.3,3.5,0.9,6.1c-1.9,3.7-1.2,15.8,0.9,16.6c0.8,0.3,1.5-2.5,1.5-6c0.2-4.8-0.1-5.7-1.1-3.5c-1.1,2.9-1.2,2.9-1.2-0.5
	c-0.1-1.9,1.2-4.8,2.8-6.3c1.9-1.9,3.5-4,4.8-6.3c0.9-1.7,2.5-2.6,3.4-2.1c1.1,0.8,1.4,0,0.9-2.1c-0.5-2.1-0.3-3.1,0.6-2.3
	c0.9,0.5,1.2,0.2,0.6-0.8c-1.4-2.1,2.1-9.7,4.1-8.5c0.9,0.5,1.1,0.2,0.5-0.8c-0.6-1.1-0.5-1.9,0.5-1.9s1.1-1.1,0.6-2.6
	c-0.5-1.5-0.3-2.1,0.8-1.4c0.9,0.5,2,0.2,2.6-0.6c0.5-0.9,1.6-1.2,2.5-0.8c1.5,1.1,1.8-1.2,0.3-2.8c-0.5-0.6-1.8,0.1-2.9,1.7
	s-2.1,1.9-2.1,0.9s1.7-3.1,3.8-4.9c2.1-1.8,3.5-4.1,3.1-4.9c-1.2-2,2.1-8,4-6.9c1.5,1.1,1.5,0.9,2.1-6.6c0.1-2.9,1.2-6,2.1-6.9
	c1-1.2,1.6-2.7,1.7-4.3c0-1.5,0.6-2.9,1.9-3.8c1.2-0.8,1.4,0.3,0.8,3.7c-0.6,2.6-0.3,4.9,0.6,5.2c2,0.6-1.8,10.1-4,9.8
	c-0.8-0.1-1.5,2.1-1.7,4.8c-0.2,2.8,0.3,5.1,1.1,5.1s1.4-1.7,1.4-3.8s0.6-3.8,1.2-3.8c0.8,0,2.3-2.8,3.4-6.3
	c1.7-4.8,1.7-6.4,0.3-7.4c-1.2-0.8,0.3-2.3,4.3-4.6c6.9-3.8,7.5-5.4,3.1-7.8c-3.1-1.7-4.3-6.1-1.7-6.1c0.8,0,2.9-2.5,4.8-5.4
	c3.1-4.9,3.1-5.5,0.9-8.8c-1.4-2.1-2.3-4.6-2.5-7.2c0-3.7,0-3.7,2.3-0.8c1.3,1.7,2.1,3.8,2.3,6c0,2.4,4.1,5.2,18.6,12.4l18.6,9.2
	l-9.7,6.3c-9.4,6-36.5,22-37.6,22c-0.3,0-2.3,1.7-4.6,3.8c-4.1,3.8-4.1,4-1.8,8.9c1.4,2.6,6.6,9.7,11.7,15.4
	c5.2,5.8,10.1,13.1,11.2,16.1c0.7,2.6,1.7,5.1,3.1,7.4c0.8,0.9,1.1,2,0.6,2.5s0.1,0.8,1.2,0.9c9.1,0.9,26.9,5.4,30.7,7.5
	c2.8,1.5,6.3,5.5,7.8,8.8c2.8,5.7,2.8,6.6,0.5,20.7c-3.4,20-5.2,25.8-8,25.8c-1.5,0-2.1-0.9-1.5-2.1c0.4-0.9,0.6-1.9,0.8-2.9
	c0-0.5,0.6-0.3,1.5,0.2c0.9,0.6,1.1-0.2,0.5-1.9c-0.8-2-2.1-0.3-5.7,7.2c-3.8,8.1-4.8,12-4.8,21c0,6-0.5,10.6-1.1,10.1
	s-1.2-1.5-1.2-2.8c-0.1-1.3-1-2.3-2.1-2.8c-2.1-0.9-5.5-12.1-5.5-18.6c0-2.1,2.8-12.1,6.1-22.3c9.4-27.8,8.1-34.5-6.6-39.3
	c-4.3-1.5-9.2-3.8-10.8-5.1c-2.5-2.1-2.9-2.1-4.1-0.3c-0.8,1.1-1.4,2.3-1.5,3.7c0,0.8-1.7,3.7-4,6.6c-4.3,5.7-11.8,10.1-15.7,9.2
	c-1.8-0.3-1.1-1.2,2.8-3.1c6.6-3.1,9.2-5.2,12.8-10.6c3.1-4.9,3.4-17.2,0.6-22.1c-3.7-6.5-12.4-15.8-13.8-14.9
	c-0.9,0.5-1.1,0.2-0.6-0.6c0.6-0.9-0.3-3.2-2-5.1c-1.7-1.9-3-4.1-4-6.5c-0.8-2.3-1.2-2.6-3.1-1.1c-1.2,1.1-2,2.8-1.5,3.8
	s-0.5,2.8-1.8,4c-2.5,1.8-2.5,1.7-0.3-1.1s2.1-2.9-0.3-0.9c-1.5,1.1-2.8,2.9-2.8,3.8s-1.4,3.4-2.9,5.5l-2.9,3.7l0.1-4.1
	c0.2-2.3,0.8-4.1,1.4-4.1c1.9,0,7.4-10.9,6.4-12.6c-0.6-0.9-0.3-1.2,0.5-0.8c0.9,0.6,2.1,0,2.6-1.4c1.4-3.4,1.2-4-0.9-2.8
	c-0.9,0.6-1.2,0.5-0.8-0.5c0.6-0.9,0-2.1-1.4-2.6c-1.8-0.6-2.1-0.1-1.4,2c0.5,1.7,0.1,3.4-0.8,4c-1,0.8-1.4,2.2-0.9,3.4
	c0.6,1.4-0.6,3.8-3.1,6.1c-2.3,2.1-3.5,4.6-3.1,6s0.1,1.9-0.6,1.4c-0.8-0.5-1.1,0.1-0.6,1.4c0.5,1.2-0.5,3.5-2,5.1
	c-1.7,1.8-2.8,4.1-3.1,6.6c-0.1,2-1.8,5.7-3.5,8.1c-2.9,3.8-3.1,4.3-0.6,3.8c1.7-0.3,4,1.5,6.1,4.6l3.5,5.1l-5.4,6.9
	c-2.9,3.8-5.2,8-5.2,9.2s-1.4,2.1-2.9,2.1c-2.8,0-2.8-0.8,1.5-12.6c2.5-7.1,4.5-13.4,4.5-14.1c0-2.5-2.3,0.6-4.1,5.7
	c-0.9,2.8-1.8,3.7-1.8,2.3c-0.3-4.6-2.5-4.1-2.5,0.5c0,2.5,0.5,4.5,0.9,4.5s0.6,1.7,0.1,3.8c-0.3,2.1-1.2,3.5-1.7,3.1
	c-0.6-0.3-1.2,0.1-1.2,1.2c-0.2,1.5-0.6,3-1.2,4.5c-0.6,1.5-0.5,2.8,0.3,2.8c0.8,0,1.2,2,0.8,4.6c-0.3,2.5-1.2,4.1-2,3.7
	c-0.8-0.5-1.4,0.6-1.4,2.3s0.8,3.2,1.7,3.2c0.5-0.1,0.9,0.3,1,0.7c0,0.2,0,0.5-0.2,0.6c-1.4,2.1-2.1,27.8-0.9,28.6
	c0.6,0.5,1.2,3.2,1.1,6.3c-0.1,4.9-0.9,6-5.2,7.8c-18.7,7.7-30.4,32.7-25.2,53.6c1.8,6.9,1.7,7.4-2.3,11.5c-2.3,2.5-3.5,4.5-2.6,4.5
	c0.9,0,2.8-1.4,4.3-3.1c2.9-3.2,5.4-4,5.4-1.9c0,1.7-7.5,5.5-10.8,5.7c-2.5,0-23.3,16.4-22.3,17.4c0.3,0.3,3.5-1.4,7.2-3.8
	s10.9-7.1,16.3-10.3l9.7-5.8l8,7.5c10.9,10.4,18.9,13.2,35.2,12.4c14.6-0.6,21.2-3.2,30.4-12.1c10.3-10,13-16.9,13-32.9
	c0-10.1-0.8-15.2-2.8-19c-1.4-2.9-2.5-5.4-2.3-5.5c0.3-0.1,5.5-3.2,11.7-6.9c11.8-6.9,11.5-6.9,15.7,0.2c1.7,3.1,11.8,8.4,13.2,7.1
	c0.6-0.6,0.3-2-0.6-2.9c-1.2-1.5-1.8-3.3-1.8-5.2c0-4.6,4.3-16.4,6.6-18.3c1.1-0.9,2-3.2,2.1-5.4c0.8-5.2,2-10.3,3.5-15.4
	c4.3-15,3.8-36.1-0.9-42.7c-4.8-6.1-14.1-10.8-25.8-12.4c-12-1.7-15-3.8-17.7-12.6c-1.1-3.5-5.2-10-9.8-14.9
	c-4-4.3-7.8-8.8-11.4-13.5l-3.5-4.9l30.1-18.4l29.9-18.4l-20.8-11c-19.5-10.3-22.6-12.6-19.5-14.6c1.5-0.9,24.6,4,39.8,8.4
	c9.2,2.8,11,3.8,10.8,6.3c-0.3,3.5,0.5,4,14,9.8c5.2,2.3,9.5,4.4,9.5,4.8c-0.7,1.8-1.6,3.6-2.6,5.2c-3.4,5.8-2,6.8,6.5,4.4
	c8-2.3,10.7-4.9,9.5-9.5c-0.9-3.4,5.2-15.8,9.4-19c4.6-3.4,0.5-7.5-13.5-13.7c-7.5-3.4-13.8-6.3-13.8-6.6s1.4-1.7,3.1-3.1
	c2.8-2.1,2.9-3.1,1.2-5.2c-2.5-3.1-25.6-10.7-46.8-15.5c-15.4-3.4-15.5-3.4-14.7-7.4c0.5-2.3,0-4.6-0.9-5.1c-2.5-1.5-2-4,0.6-4
	c1.4,0,2.3-1.4,2.3-3.8c0-2.1-0.6-3.8-1.4-3.8c-1.5,0,2.5-18.6,4.6-20.7c0.8-0.8,1.4-3.8,1.4-6.9c0-6.3,1.1-8.1,5.8-10.6
	c3.7-2,4.5-6.1,1.5-9.1c-1.4-1.4-1.2-1.8,0.8-1.8c4.1,0,6.1-5.4,3.2-8.4c-2-1.8-2.1-2.9-0.8-4.3c2.8-2.8,2-7.4-1.4-8.3
	c-1.6-0.4-2.8-1.7-3.1-3.4c-0.1-3.5-2.8-6.2-6.3-6.3c-1.6-0.1-2.9-1-3.5-2.4c-0.6-1.5-2.5-2.3-5.1-2c-2.3,0.1-4.7-0.2-6.9-0.9
	c-1.7-0.6-3.6-0.6-5.4,0c-1.9,0.8-4,1.1-6.1,0.9c-1.7-0.2-3.7,0.5-4.3,1.2c-0.5,0.9-2.6,1.7-4.8,1.7s-4.1,0.9-4.6,2.2
	c-0.5,1.1-2.8,2-5.1,1.8c-3.7-0.2-4.1-0.6-3.1-2.8c2.3-4.3,1.5-7.8-3.2-14.9c-5.2-7.7-5.1-9.2,0.6-5.5l4,2.6V6l-4.7,2.4
	c-5.2,2.8-5.5,2.3-2.3-3.8l2.5-4.6h-8C416.9,0,416.2,0.3,417.1,2.6z M426,6.3c-0.8,2.9-5.1,4.1-5.1,1.5c-0.1-1.3-0.5-2.5-0.9-3.7
	c-0.6-1.7,0.2-2,2.9-1.5C425.7,3.2,426.5,4.1,426,6.3L426,6.3z M417.1,12c2.8,2,2.3,4.6-0.8,5.4c-2.5,0.6-3.1,0-3.1-2.9
	C413.3,10.6,414.3,10,417.1,12z M426.2,15.5c-1.2,2.2-5.2,1.7-5.2-0.6c-0.1-1.1,0.3-2.2,1.1-3.1C423.4,10.4,427.2,13.8,426.2,15.5z
	 M434,14.6c0.1,1.3,0,2.6-0.3,3.8c-4.3,0-6.8-5.2-3.1-6.6C433.8,10.4,434,10.6,434,14.6z M426.6,22.3c0.1,0.8-1.2,1.7-3.2,1.7
	c-2.8,0.2-3.5-0.3-2.9-2C421.4,19.6,425.7,19.8,426.6,22.3L426.6,22.3z M430.3,29.2c3.1,2.5,3.2,2.9,1.1,3.1
	c-1.8-0.2-3.4-1.2-4.3-2.8c-1.5-2.3-1.5-2.3-1.2,0.5c0.4,1.9,2,3.4,4,3.5c2.1,0.3,3.4,1.5,3.4,3.4c0,2.5-0.6,2.8-3.7,1.7
	c-2-0.8-6.4-1.1-10-0.6c-5.1,0.8-6.3,0.5-6.3-1.7c0-1.5,1.4-2.5,3.8-2.5c3.1,0,3.8-0.8,3.8-3.8C420.9,25.2,425.2,24.7,430.3,29.2
	L430.3,29.2z M419.4,29.9c-0.1,1.3-1.1,2.3-2.5,2.3c-2.1,0-2.1-0.5-0.6-2.3c0.7-0.9,1.5-1.7,2.4-2.3
	C419.1,27.6,419.4,28.7,419.4,29.9L419.4,29.9z M374.4,40.1c2.1,2.2,0.9,6-1.8,6c-2.8,0-4.3-2.6-3.2-5.4
	C370.3,37.9,372.1,37.8,374.4,40.1z M385.3,41c0.8,2.6-4,4.4-6.1,2.3c-0.9-0.9-1.1-2.3-0.5-3.4C380.1,37.8,384.4,38.5,385.3,41
	L385.3,41z M469,39.3c1.7,1.7-0.8,5.2-3.7,5.2c-1.9,0-2.9-1.1-2.9-3.1C462.4,38.5,466.7,37.1,469,39.3L469,39.3z M478.7,44.4
	c-1.2,1.7-3.6,2.1-5.3,0.9c-0.6-0.4-1-1-1.3-1.7c-1.2-3.4,2.8-5.7,5.5-3.1C478.7,41.8,479.1,43.5,478.7,44.4z M394.8,42.2
	c-0.1,1.5-1.1,2.8-2.4,3.4c-2.8,1.1-6-1.7-4.6-4C389.5,39,394.8,39.6,394.8,42.2z M459.3,43c0,3.5-5.4,4.3-6.6,0.9
	c-1.1-2.8,0.1-4,3.8-4C458.2,39.9,459.3,41,459.3,43L459.3,43z M404.1,45.4c0,2.9-4.3,4.6-6.5,2.5c-1.2-1.2-1.2-2.3,0.1-4
	C399.9,41.3,404.1,42.4,404.1,45.4L404.1,45.4z M367.2,47c0,2.9-4.3,4.6-6.4,2.5c-1.2-1.2-1.2-2.3,0.1-4
	C363.1,42.8,367.2,43.9,367.2,47L367.2,47z M426.6,45.4c0.3,0.8-1.2,1.5-3.4,1.5c-3.2,0.3-3.7-0.2-2.1-1.8
	C423.1,42.8,425.9,43,426.6,45.4L426.6,45.4z M450.1,46.1c0,1.7-1.4,3.1-3.1,3.1c-1.7,0-3.1-1.4-3.1-3.1c0-1.7,1.4-3.1,3.1-3.1
	c0,0,0,0,0,0c1.5-0.2,2.9,0.9,3.1,2.4C450.1,45.6,450.1,45.8,450.1,46.1z M487,47.8c0,1.8-1.1,2.9-3.1,2.9c-3.4,0-4.5-5.4-1.1-6.6
	C485.6,43.1,487,44.4,487,47.8z M413,48.8c0.5,2.5-0.3,3.4-2.6,3.4c-4,0-5.5-2.6-3.1-5.5S412.3,44.7,413,48.8L413,48.8z M440.9,48.5
	c0,2.9-4.3,4.6-6.4,2.5c-1.2-1.2-1.2-2.3,0.1-4C436.8,44.4,440.9,45.4,440.9,48.5L440.9,48.5z M421.7,76.8c7.4,0,7.7-0.6,7.2-16.1
	c-0.3-9.7,0-14.6,1.1-14.6s1.7,4.9,1.7,13.4c0,14.7-3.5,26.6-7.8,26.6c-4.3,0-8.4-12-8.1-23.8c0.6-17.5,1.2-18,1.7-1.2
	C418,76.5,418,76.8,421.7,76.8z M397.3,51.4c5.5,2.2,11.5,3.8,13,3.8c1.7,0,2.9,0.6,2.9,1.5c0,2.4-4.8,1.8-16.9-2.3
	c-14.4-4.9-20-4.9-26,0.2c-5.4,4.4-6.1,9.7-2.5,18.6c2.6,6.2,2.9,8.1,1.1,8.1c-2.5,0-6.4-10.9-6.4-17.5c0-5.8,0.8-7.4,5.4-11.5
	C374.9,46.4,383,46.1,397.3,51.4z M427.1,51.3c0,1.5-3.2,2-7.5,1.1c-0.3-0.2,0.3-1.1,1.4-2.3C422.9,47.6,427.1,48.4,427.1,51.3z
	 M476.2,49.9c9.1,4.8,11.2,15.7,5.2,27.2c-2.5,4.8-6.3,6.1-4.5,1.5c5.8-13.8,6-19.3,0.8-24.1c-4.9-4.4-13.5-4.4-26.7-0.2
	c-12.9,4.3-17.8,4.9-17.8,2.5c0-0.9,1.2-1.5,2.8-1.5s7.7-1.7,13.5-3.8C461.8,47.1,469.9,46.7,476.2,49.9z M360.8,55.7
	c0.6,3.1-3.8,5.2-6.1,2.9c-2.3-2.3-0.2-6.8,2.9-6.1C359.1,52.9,360.4,54.1,360.8,55.7z M492.9,54.4c1.4,1.5,1.2,2.5-0.6,4
	c-2.9,2.5-6.3-0.2-4.9-3.7C488.7,51.6,490.7,51.6,492.9,54.4z M399.4,57.9c7.7,2.3,13.8,4.8,13.8,5.4c0,2-3.2,1.5-14.3-2.2
	l-10.3-3.4l-4.6,3.4c-2.5,1.8-5.1,3.4-5.8,3.4s-3.2,1.4-5.4,3.1l-3.8,3.1l-0.8-3.2c-1.1-4.2,1.1-10,4.6-12
	C377.5,52.8,385,53.4,399.4,57.9L399.4,57.9z M427.1,57.4c0,1.5-3.2,2-7.5,1.1c-0.3-0.2,0.3-1.1,1.4-2.3
	C422.9,53.7,427.1,54.5,427.1,57.4L427.1,57.4z M476.2,56.8c2.1,2.3,3.2,5.4,3.1,8.6v5.4l-4-3.1c-2.3-1.8-5.1-3.2-6.1-3.2
	s-3.5-1.4-5.2-3.1s-4.3-3.1-5.8-3.1s-6.6,1.4-11.5,3.1c-4.8,1.7-9.7,3.1-11,3.1c-10.9,0,18.6-10.3,30.4-10.6
	C471.3,53.7,473.9,54.5,476.2,56.8z M402.7,64.8c9.1,3.1,10.6,4,10.6,7.1c0.2,2.9,1.1,5.7,2.4,8.2l2.6,4.9l-4.1-2.6
	c-3.4-2.3-4-2.3-4-0.3c0,2.6-2.5,3.1-3.8,0.6c-0.9-0.9-2.2-1.2-3.4-0.8c-1.8,0.8-2.1,0.2-1.7-2.9c0.5-2.2,0.5-3.5,0-3.1
	c-0.5,0.3-1.7-0.6-2.9-2.3c-1.2-1.7-3.2-3.1-4.3-3.1c-2.6,0-6.8,7.5-5.8,10.4c0.5,1.1,0.1,1.8-0.6,1.7c-3.8-0.6-6.9,0.6-10.3,4.3
	c-2.1,2.3-3.5,4.4-3.1,4.9s1.4-0.2,2.1-1.4c1.8-2.9,2.5-2,3.7,4.9c1.1,5.5,0.9,5.7-2.4,4.4c-4.6-1.7-6.8-10-3.8-14.4
	c2-2.9,1.8-3.8-0.9-7.5c-3.1-4.1-3.1-4.3-0.2-7.5c2-2.3,4.1-3.1,8-2.6c4,0.5,4.8,0.2,4.1-1.7c-0.9-2.3,1.7-4.8,5.1-4.8
	C391.2,61.4,396.8,63,402.7,64.8L402.7,64.8z M427.1,63.7c0,1.4-1.4,2.3-3.8,2.3c-3.7,0-4.9-1.5-2.8-3.5
	C422.3,60.5,427.1,61.4,427.1,63.7L427.1,63.7z M461.5,64.8c-0.2,2.2,0.9,2.8,4.3,2.8c9.4,0,13.2,5.2,7.8,11.1
	c-2.3,2.6-2.3,3.2,0.1,8.6l2.8,5.7l-3.2-2.9c-3.8-3.4-4.3-1.7-0.8,2.3c3.2,3.5,2,6.9-3.1,7.8c-3.5,0.8-3.8,0.5-2.9-3.2
	c0.5-2.2,1.5-5.5,2.1-7.5c0.8-1.8,0.9-3.4,0.6-3.4h-1.5c-0.5,0.2-2-0.9-3.2-2.3c-1.4-1.2-3.1-2-3.8-1.5c-0.8,0.6-1.4-0.6-1.4-2.6
	c-0.2-4.8-3.8-9.2-7.2-8.6c-1.5,0.2-3.7,2.6-4.8,5.1c-2.5,5.4-9.5,9.7-9.5,5.8c0-2-0.5-2-3.8,0.2c-4.4,2.9-4.4,2.9-1.5-4.3
	c1.8-4.5,3.2-5.5,6.6-5.5c2.3,0,6.5-1.4,9.4-3.2c2.9-1.7,6.5-2.8,8.1-2.5s2.8,0.2,2.8-0.6c0-2.4-7.5-1.5-12.6,1.7
	c-5.4,3.2-11.2,4-12.8,1.7c-0.5-0.9,1.7-2,4.9-2.6c3.3-0.7,6.6-1.7,9.7-3.1C453.9,60.6,461.6,61.4,461.5,64.8L461.5,64.8z
	 M359.2,67.2c0.3,2.2-0.3,3.4-1.8,3.4c-2.9,0-4.4-2.6-3.4-5.5C355.2,61.7,358.6,63.2,359.2,67.2z M493.9,66.9
	c-0.1,1.6-1.2,3-2.8,3.4c-3.4,0.6-5.4-4.2-2.5-6C491.7,62.5,493.9,63.6,493.9,66.9z M426.8,71.1c0.3,1.7-0.5,2.6-2.6,2.6
	c-3.5,0-5.4-2.3-4-4.8S426.2,68,426.8,71.1z M398.4,82.5c-0.2,3.3-0.7,6.5-1.7,9.6c-1.2,3.5-1.5,3.2-4.1-4.4
	c-2.1-6.6-2.3-8.9-0.9-12.1c1.7-3.5,2-3.7,4.4-1.4C397.6,75.8,398.5,78.9,398.4,82.5L398.4,82.5z M455.8,81.3
	c-0.5,3.2-1.1,6.3-1.9,9.4c-0.9,3.2-0.6,3.1,2.1-1.2c3.5-5.5,7.2-6.4,8.6-1.8c1.1,3.5-1.2,8.4-4.8,9.8c-2.1,0.8-2.3,0.6-0.6-1.4
	c2.8-3.4,0.6-4.9-2.8-1.8c-3.8,3.5-6,1.4-7.2-7.1C448,78,450.7,71,454.3,74C455.8,75.2,456.3,77.7,455.8,81.3L455.8,81.3z
	 M363.5,79.7c-1.4,2.2-5.1,2.2-6.3,0.2c-0.6-0.9-0.2-2.8,0.9-4c1.7-2,2.1-2,4.1,0C363.5,77.1,364,78.8,363.5,79.7L363.5,79.7z
	 M489.7,78c0.5,2.6-0.3,3.4-2.6,3.4s-3.2-0.9-3.2-2.8C483.9,72.8,489,72.3,489.7,78z M371.2,86.3c-2.6,6.2-4.9,7.1-6.1,2.5
	c-1.4-5.4-1.2-5.5,3.4-6.3c1.5-0.2,3-0.5,4.5-0.9C372.4,83.2,371.9,84.7,371.2,86.3L371.2,86.3z M482,87.2c-0.6,5.7-3.7,5.8-5.7,0.2
	c-0.9-2.8-1.7-5.1-1.7-5.2s1.7,0,4,0.5C481.7,83.2,482.4,84.1,482,87.2L482,87.2z M391,89.1c3.1,5.8,2.9,9.4-0.1,4.9
	c-1.2-1.8-3.1-3.1-4-2.5s-0.9,1.5,0.1,2.6c3.1,3.1,1.7,4.8-1.4,1.8c-2.9-2.8-4.1-8.4-2-10.4C385.8,83.2,388.7,84.6,391,89.1
	L391,89.1z M407.1,86.8c1.5,1.8,1.5,3.2,0.3,6.1c-2.1,4.8-4.9,5.1-3.8,0.3c0.6-3.2,0.6-3.2-1.7-0.5c-3.2,4.2-4.3,2.5-2.3-3.4
	C401.4,84,404.1,83.1,407.1,86.8L407.1,86.8z M419.1,91.2c0,2-1.5,4-3.7,5.1c-3.5,1.7-3.7,1.5-3.7-5.1c0-6.4,0.2-6.6,3.7-5.1
	C417.6,87.2,419.1,89.2,419.1,91.2L419.1,91.2z M435.5,91.3c0,3.8-0.3,6.9-0.8,6.9c-2.3-0.2-6.1-4.4-6.1-6.9c0-2.3,3.8-6.8,6.1-6.9
	C435.2,84.4,435.5,87.5,435.5,91.3L435.5,91.3z M447,87.3c0.8,1.8,1.4,3.8,1.5,5.8c-0.1,2.6-0.1,2.6-1.7,0c-2.3-3.8-4.9-3.2-3.5,0.8
	c0.9,3.1,0.8,3.2-1.5,1.4c-2.5-2-3.4-8-1.4-9.8C442.3,83.5,445.4,84.4,447,87.3L447,87.3z M426.3,89c1.5,2.4-2.5,6.6-4.3,4.8
	c-1.7-1.7-0.3-6.3,1.8-6.3C424.9,87.6,425.7,88.2,426.3,89L426.3,89z M371,96.7c-0.2,1.4-1.2,2.5-2.6,2.8c-2,0.3-2.8-0.5-2.8-2.8
	s0.8-3.1,2.8-2.8C369.8,94.2,370.9,95.3,371,96.7L371,96.7z M481.6,96.7c-0.2,1.4-1.2,2.5-2.6,2.8c-2,0.3-2.8-0.5-2.8-2.8
	s0.8-3.1,2.8-2.8C480.3,94.2,481.4,95.3,481.6,96.7L481.6,96.7z M401,98.2c0,0.8-2.3,1.5-4.9,1.4c-4.3,0-4.6-0.3-2-1.4
	C398.4,96.4,401,96.4,401,98.2L401,98.2z M413.4,99.3l5.1,2.6l-4.1,1.1c-6,1.7-9.5,0.8-10-2.6c-0.3-1.7,0-2.3,0.8-1.4
	c1.7,2,5.1,2.6,5.1,0.9c-0.2-1-0.9-1.8-1.9-2.2c-1.1-0.5-1.5-0.9-1.1-0.9C407.7,96.7,410.5,98,413.4,99.3L413.4,99.3z M428.6,100.6
	c1.7-0.3,3.4,0,3.8,0.8s-0.6,1.1-2.3,0.8c-3.8-0.8-4,1.7-0.2,3.8c4.7,2.4,10.4,1.8,14.4-1.5c4.3-3.4,5.7-3.8,5.7-1.5
	c0,0.8-1.9,2.8-4.1,4.1c-5.4,3.5-27.6,4.4-24.9,1.1c1.4-1.7,2.5-1.7,5.1-0.3c3.2,1.7,3.2,1.7,0.3-1.5c-2.4-2.9-3.1-2.9-5.1-0.9
	c-4,3.8-7.2,4.8-17.8,4.9c-8.9,0-10.1-0.3-8.6-2.1c1.4-1.7,2.3-1.9,4-0.5c3.2,2.8,3.8,0.6,0.6-2.3c-2.8-2.4-3.1-2.3-7.5,2.1
	c-5.7,5.7-13.2,6.1-19.4,1.4c-4-3.1-5.4-7.5-2.4-7.5c0.9,0,1.6,0.8,1.5,1.6c0,0,0,0,0,0.1c0,3.1,5.2,5.8,11.1,6
	c4.1,0,6.3-0.9,8.6-3.8c3.7-4.6,5.5-4.8,10.6-0.8c2.4,1.8,5.2,2.8,8.1,3.1c4.9,0,12.3-5.2,12.3-8.9c0.1-2.5,0.1-2.5,1.5,0
	C425.1,100,426.8,100.8,428.6,100.6L428.6,100.6z M440.1,98.2c-0.5,0.8,0.1,1.5,1.4,1.5c3.2,0,3.2,2.4,0,3.7c-6.5,2.5-9.2-0.8-4-4.6
	C440.7,96.4,441.4,96.3,440.1,98.2L440.1,98.2z M454.2,98.2c1.8,0,2,0.5,0.6,2s-0.8,2.9,2.1,5.7c5.4,5.1,12.6,4.8,17.2-0.6
	c3.7-4.3,7.2-4.6,3.7-0.3c-0.9,1.2-1.7,2.8-1.5,3.4c0.6,3.4-0.3,5.2-2.8,5.2s-2.1-0.3,0.5-2.3c1.5-1.2,2.1-2.3,1.1-2.3
	c-1.1,0-2.1,0.6-2.8,1.5c-0.5,0.8-3.7,1.5-7.1,1.5c-6.8,0-14.6-6-13-10c0.6-1.7-0.3-2.3-3.1-2.3c-2.3,0-3.5-0.6-2.9-1.7
	c0.8-0.9,2.2-1.3,3.4-0.8C451.1,97.8,452.7,98.2,454.2,98.2L454.2,98.2z M387.9,101.3c-0.5,0.9-1.6,1.2-2.5,0.8
	c-0.8-0.5-0.9,0-0.6,1.1c0.6,1.4-0.3,2.2-2.1,2.3c-2.8,0.3-2.9-0.2-1.2-2.8c1-1.6,2.7-2.7,4.6-2.9
	C387.6,99.8,388.4,100.6,387.9,101.3L387.9,101.3z M466.7,102.2c2.8,1.2,4.9,2.6,4.9,2.9c-2.1,0.4-4.2,0.6-6.3,0.5
	c-5.2,0.2-6-0.2-4.3-2.2c1.5-1.8,1.4-2-1.1-1.2s-2.5,0.6-0.6-0.8c0.8-0.6,1.6-1.2,2.5-1.7C461.8,99.8,464.1,100.9,466.7,102.2
	L466.7,102.2z M377.2,103c1.7,2.6-0.2,3.2-2.3,0.6c-1.2-1.4-1.2-2.3-0.3-2.3C375.7,101.4,376.6,102.1,377.2,103L377.2,103z
	 M454.7,111.3c0,1.2,3.5,2.1,10.1,2.8c9.4,0.6,12.7,1.7,11.2,3.2c-0.3,0.3-4.1,0-8.3-0.9c-10.1-2.1-77.7-2.1-87.5,0
	c-7.4,1.7-7.2,1.7,4.6,1.1c11.2-0.6,12-0.5,9.2,1.7c-2,1.4-3.2,1.7-3.5,0.6s-1.5-0.5-2.9,1.1c-1.2,1.5-1.9,1.8-1.2,0.8
	c0.4-0.5,0.2-1.3-0.3-1.6c-0.2-0.2-0.5-0.2-0.8-0.2c-1.1,0-2,1.7-2,3.8c0,4.6,1.5,4.9,4,0.9c1.7-2.6,2.1-2.6,6.1-0.3
	c3.7,2,4.9,2.1,7.5,0.5c1.9-1.1,4-1.4,5.1-0.8c2.5,1.5,7.2,1.7,8.1,0.3c0.3-0.8-0.1-1.8-0.9-2.1c-0.8-0.4-1.2-1.3-0.9-2.1
	c0.5-0.6-0.6-1.1-2.1-1.2c-2-0.1-2.6,0.5-2,2c0.5,1.2,0,2.1-0.9,2.1c-0.9,0.1-1.6-0.6-1.7-1.5c0,0,0,0,0-0.1c0-0.8-1.8-2-4.1-2.6
	c-4-1.1-3.8-1.2,2.6-2.1c7.7-1.1,42.8-0.5,44.1,0.6c0.3,0.5-0.8,1.2-2.6,1.8c-3.5,1.1-3.4,3.5,0.3,6c1.8,1.1,3.8,0.9,6.6-0.3
	c3.4-1.5,3.8-2.3,2.3-4.1c-1.1-1.2-2.6-2.3-3.4-2.3s-0.6,1.2,0.5,2.6c1.8,2.3,1.8,2.5-0.6,1.5c-1.7-0.6-2.5-0.5-1.8,0.5
	c0.5,0.9,0.3,1.5-0.6,1.5c-3.1,0-3.5-3.4-0.8-5.4c2.1-1.7,5.7-2,13.7-1.2c6,0.5,11.4,1.4,12.1,2.1s-2.1,1.1-6.5,0.6
	c-7.2-0.5-8-0.3-8,2.5c0,2-0.6,2.8-1.8,2c-0.9-0.6-1.2-0.5-0.6,0.6c0.5,0.9,2.3,1.5,3.8,1.4c2.5-0.1,2.8-0.8,1.5-2.9
	c-1.1-2-0.9-2.8,0.5-2.4c1.4,0.6,2.5,1.7,3.1,3.1c0.6,1.5,1.9,2.6,3.5,2.8c1.2,0,2.3,0.8,2.3,1.7c0,1.1-1.1,1.2-2.6,0.6
	s-9.8-1.4-18.4-1.8c-11.8-0.8-15.8-1.4-15.8-3.1c0-2.4,4.1-2.6,5.1-0.1c0.3,1.1,0.6,0.1,0.5-2.1c-0.1-5.2-0.5-5.2-5.1-0.1
	c-3.7,3.8-4.6,4-22.6,4.6c-10.1,0.3-22.7,1.2-27.8,1.8c-5.2,0.8-9.4,0.8-9.7,0c-0.6-0.9-1.7-1.4-2.8-1.4c-1.2,0-2.2-1.1-2.1-2.3
	c0-1.5,1.5-2.3,4.8-2.3c2.8,0,4.3,0.6,3.7,1.5c-0.6,0.9-2.5,1.2-4.3,0.8c-2.6-0.8-2.9-0.6-1.1,0.6c4.1,2.9,8,2,7.4-1.8
	c-0.3-2.5-1.4-3.2-3.8-3.1c-1.8,0.1-3.7-0.8-4.1-2.1c-1.4-3.2-1.1-3.4,7.7-4.4c3.3-0.3,6.6-0.9,9.8-1.7c1.2-0.3,16-0.6,32.7-0.5
	c18.7,0,30.1-0.5,29.6-1.4s-2.5-1.1-4.5-0.6c-3.2,0.6-3.2,0.6-0.5-1.7C450.9,105.8,454.7,107.5,454.7,111.3z M375.6,113.3
	c-1.1,1.2-5.4-1.1-5.4-2.8c0-0.9,1.1-0.9,3.1,0.3C374.9,111.9,376,113,375.6,113.3L375.6,113.3z M399.4,121c0,0.6-1.4,1.2-3.1,1.4
	s-2.8-0.3-2.3-1.2C395.1,119.5,399.4,119.3,399.4,121L399.4,121z M476.6,125.3c-0.9,2.5-2.9,2.8-4.3,0.6c-0.8-0.9-2.1-1.1-3.1-0.5
	c-1.2,0.5-2.3,0.1-2.3-0.6c0-2.4,1.4-3.1,6-2.3C476.1,123,477.3,123.8,476.6,125.3L476.6,125.3z M369.7,136.8
	c2.3,3.8-1.2,2.6-9.2-3.4c-4.8-3.5-8.6-6.6-8.6-6.8C351.8,125.7,368.7,135.4,369.7,136.8z M458.4,130.5c15.4,1.5,20.4,4.3,16.1,8.4
	c-2.1,2.1-4.6,2.3-19.8,0.6c-11.2-1.2-26.1-1.4-42.1-0.8c-43.6,2-40.1,2.1-40.5-1.8c-0.3-2,0.5-3.7,1.8-4.3
	C382.4,129.4,435.4,128,458.4,130.5L458.4,130.5z M443.2,141.2c5.8,1.5,5.7,1.5-20.7,2.3c-28.2,0.8-47.4,3.2-73.4,9.4
	c-12.3,2.9-32.7,9.7-35.2,11.7c-1.1,0.8-2,0.8-2.6,0c-1.4-2.5,2-4.1,17.5-9.2c23.3-7.7,39.9-10.9,74.5-14.7
	C412.2,139.7,438.6,140,443.2,141.2L443.2,141.2z M484.2,146c17.2,3.4,50.2,13.1,52.5,15.4c3.4,3.1-0.9,2.6-13.8-1.5
	c-17.6-5.7-35.6-10.1-53.9-12.9c-12-1.8-14.6-1.8-16-0.1c-1.2,1.3-2.8,2.1-4.6,2.1c-1.7,0-2.9,0.8-2.9,1.7c0,0.8,0.8,1.1,1.7,0.6
	c2.6-1.7,7.7,4,6.6,7.5c-0.6,2.5-0.5,2.6,0.6,1.1c2.3-3.4,4.1,10.9,2,15c-1.4,2.4-1.2,4.1,0.6,7.7c2.6,5.2,2.9,7.8,0.8,7.8
	c-0.8,0-1.8-2.4-2.5-5.5c-0.8-4.3-1.4-5.1-2.3-3.2c-0.9,1.5-0.5,4,1.2,7.1c1.5,2.5,2.1,5.1,1.4,5.8c-1.7,1.8-5.5-4-4.5-6.9
	c0.5-1.5-2.1,0.3-5.8,3.8c-3.8,3.7-7.7,6.6-8.8,6.6s-1.4,1.1-0.8,2.6c0.9,2.5,0.8,2.5-1.5,0.8c-1.4-1.2-3.1-1.7-3.8-1.2
	c-0.9,0.5-4.9-0.9-8.9-3.2c-4.9-2.7-10-4.9-15.2-6.8c-5.1-1.7-7.5-3.4-7.1-4.6c0.3-1.2,0.9-4.1,1.4-6.6c0.5-2.6,1.1-3.5,1.8-2.5
	c0.9,1.4,1.8,1.4,4.1-0.1c1.8-1.1,4-1.3,6-0.8c2.8,1.1,2.6,1.2-0.9,3.2c-2.9,1.5-4.1,1.5-4.9,0.3c-0.8-1.2-1.2-0.8-1.2,1.2
	c0,2.6-0.3,2.6-1.5,0.8c-1.7-2.6-2-1.5-0.6,2.1c0.8,2,1.4,2,4.1,0.3c1.8-1.2,8.8-4.3,15.2-7.1c6.5-2.6,12.7-5.8,13.8-7.2
	c1.7-2.1,1.5-2.3-1.9-1.2c-5.4,1.8-8.4,1.4-17.6-2.5c-6.6-2.8-8.8-3.1-10.6-1.5c-1.7,1.4-2.4,1.4-3.4-0.2c-2.9-4.6-2-6,2.8-5.1
	c2.8,0.6,5.1,0.5,5.7-0.5c0.6-1.2,3.1-1.2,7.5-0.2c4.5,1.1,7.5,0.9,9.2-0.1c2.1-1.4,2-1.5-0.9-0.8c-2.8,0.8-3.8,0.3-4.4-2.3
	c-0.6-2.5-1.2-2.8-2.1-1.2c-0.8,1.2-4.6,2-10.9,2.1c-6.1,0.1-8.6-0.3-6.6-1.1c2.9-1.1,2.9-1.2-0.3-1.2c-2.9-0.2-3.1-0.6-1.5-3.8
	c1.7-3.4,2.8-3.7,17.2-4.3c8.4-0.5,17.3-0.1,19.8,0.5c2.9,0.9,5.4,0.6,7.1-0.6C450,142.2,467.3,142.5,484.2,146L484.2,146z
	 M398.7,148.9c-0.7,0.9-1.7,1.4-2.8,1.5c-1.1,0-0.9-0.6,0.5-1.5C399.3,147.1,399.9,147.1,398.7,148.9z M393.3,152.5
	c0,2,0.6,4.1,1.5,5.1c1.9,1.8-0.6,6-2.9,4.4c-1.1-0.6-1.4-2.5-0.8-4.1c0.6-2.3,0.3-2.9-1.1-2.3c-1.2,0.4-1.9,1.6-1.5,2.8
	c0.3,1.8,0.5,3.7,0.5,5.5c-0.1,2,0.5,3.5,1.2,3.5c0.8,0,1.5-0.7,1.5-1.5c0-0.9,0.9-1.5,2.1-1.5c1.4,0,1.8,1.1,1.4,2.9
	c-0.5,2.1-2.4,3.1-6.4,3.5c-5.2,0.5-5.7,0.1-5.2-2.6c0.6-2.9,0.6-2.9-1.7-0.1c-2.5,2.9-19.4,7.8-19.4,5.5c0.1-0.9,0.6-1.7,1.4-2.1
	c1.5-1.1-0.8-12.9-3.1-15.7c-1.1-1.2,0.5-2.3,5.4-3.5c9.2-2.3,11.7-2.1,11.7,0.6c0,1.5-1.7,2.3-5.4,2.3c-5.5,0-6.3,0.8-4,4.4
	c1.2,1.8,1.8,1.8,3.8,0.3c1.4-1.2,2.4-1.7,2.4-1.2c0.2,1.2,0.6,2.4,1.1,3.5c0.8,2,0.5,2.5-1.4,1.8c-3.2-1.4-6,0.8-4.3,3.2
	c1.1,1.8,2,1.8,6,0.1c4.6-1.8,6.4-4.6,3.2-4.6c-2.6,0-1.7-5.8,1.2-7.5c1.4-0.9,1.7-1.7,0.8-1.7c-1.2-0.1-2.1-1.1-2-2.3
	c0-1.7,1.8-2.3,6.9-2.3C392.5,148.9,393.3,149.2,393.3,152.5L393.3,152.5z M460.6,150.8c0.9,0.8,1.5,1.8,1.8,2.9
	c0,1.7-7.5-0.3-9.4-2.6c-1.4-1.7-1.1-2.1,2-2.1C457,148.9,459,149.6,460.6,150.8L460.6,150.8z M468.6,153.8c0,2.3-0.6,4.3-1.4,4.3
	s-2-2-2.9-4.3c-1.2-3.7-1.1-4.3,1.4-4.3C467.8,149.5,468.5,150.8,468.6,153.8L468.6,153.8z M477.9,155.4c1.1,2.8,2.1,5.4,2.3,5.7
	c0.3,0.3,2.9-1.2,5.8-3.5c5.2-4,10.1-5.2,10.1-2.6c0,0.8-0.9,1.7-2.1,2.1c-2.5,0.9-4.9,14.6-2.9,16.6c0.6,0.6,2.3,0.6,3.5-0.2
	c1.5-1.1,1.7-1.5,0.5-1.5c-1.1,0-2-0.6-2-1.5s1.5-0.8,3.8,0.3c4.1,1.8,4.5,2.5,2.6,5.5c-0.9,1.4-2.5,1.5-5.1,0.6
	c-3.8-1.2-7.7-2.1-11.7-2.6c-6.8-0.9-8.1-1.5-8.1-4.1c0-2.8,0.2-2.8,2.6-0.3c1.8,1.8,2.8,2,3.2,0.6s0.9-1.4,2,0.2s1.7,0.9,2.9-2.3
	c2-5.5,0.9-6.8-2.9-3.4c-3.4,3.1-6.3,2.1-6.3-2.1c0-1.5-0.6-3.4-1.5-3.8c-0.9-0.6-1.5,1.8-1.5,6c0,7.5,0,7.5-3.7,6.1
	c-1.8-0.6-2-1.7-0.9-3.7c0.8-1.5,1.7-6,1.8-9.8C471,148.9,474.8,147.8,477.9,155.4L477.9,155.4z M484.5,154.4
	c1.1,2.6-0.9,2.8-3.4,0.3c-0.9-0.8-1.6-1.9-1.8-3.1C479.3,149.8,483.6,152,484.5,154.4L484.5,154.4z M358,155.8
	c1,1.6,1.3,3.6,0.8,5.4c-0.6,2-0.3,3.1,1.1,3.1c1.4,0,1.4,0.5,0.3,1.2c-2.9,2-3.8,6.4-1.4,6.4c1.2,0,2.3,0.6,2.3,1.4
	c0,1.8-8.6,4.8-15.7,5.4c-2.6,0.2-5.1,0.8-7.5,1.7c-1.8,1.2-1.8,0.9,0-1.4s1.8-2.9,0-4.6c-1.3-1.2-3.1-1.6-4.8-1.1
	c-2.5,0.8-2.5,1.4-0.6,5.1c1.8,3.5,1.8,4.1-0.2,4.9c-3.7,1.5-4.3,1.1-4.4-2.9c-0.1-2.1-1.7-6.6-3.2-9.8l-3.1-6.1l6.6-2.4
	c9.5-3.5,15.7,0.1,11.5,6.8c-1.1,1.5-0.3,3.1,2.1,5.1c4.3,3.4,6,3.5,4.9,0.6c-0.6-1.7-0.2-2,1.7-1.4c2.1,0.9,2.3,0.8,0.3-1.4
	c-0.9-1.2-2.2-2-3.7-2.3c-0.6,0.1-1.5-1.4-1.9-3.5c-0.5-2.1-1.8-4.8-3.2-5.7c-2-1.5-2.1-2-0.3-2.8c1.9-0.6,12.6-3.2,15.4-3.7
	C355.7,153.5,356.9,154.6,358,155.8z M462.5,158.3c1.7,1.7,2.8,3.5,2.5,4c-1.1,0.9-7.1-2.9-7.8-5.2C455.9,154,459,154.8,462.5,158.3
	z M503.1,156.3c1.4,0.9,1.5,2.4,0.9,7.1c0,0.6-1.7,0.1-3.7-1.1c-3.2-2.1-3.8-2-5.5,0.1c-0.9,1.5-0.6,0.3,0.9-2.5
	C498.3,155.1,500.2,154.1,503.1,156.3L503.1,156.3z M517.5,161.3c3.5,1.1,6.3,2.3,6.3,2.9c0,2.5-2.3,2.8-6.1,0.8
	c-4.3-2.3-6.1-1.7-6.1,1.8c0,1.1,1.4,2,3.1,2s3.1,0.9,3.1,2c0,3.2-1.8,4.3-4.1,2.3c-1.7-1.4-2.6-1.4-3.7,0.5
	c-2.3,3.7-1.5,4.4,4.5,4.4c5.5,0,6-0.3,8.6-7.5c2.6-6.6,3.4-7.4,6.6-6.4c1.8,0.5,3.5,1.5,3.5,2.4c0,2-6.3,20.7-6.9,20.7
	c-1-0.2-2.1-0.5-3.1-0.9c-2.2-0.9-2.2-1.2,0.1-3.8c1.4-1.7,2.2-2.9,1.5-2.9s0.1-2.5,1.4-5.5c1.2-3.1,2.3-6.3,2.3-7.2
	c0-2-2,0-2.5,2.5c-0.3,2.3-6.8,13.4-7.8,13.4c-0.3,0-3.8-0.8-7.8-1.7c-6.9-1.7-12.1-4.5-8.3-4.5c1.8,0,5.5-11.1,5.2-15.8
	c-0.1-1.8,0.6-2.6,2-2.1C510.3,159.1,514,160.3,517.5,161.3L517.5,161.3z M465.5,168.4c0,1.1-0.6,2-1.5,2c-0.9-0.1-1.6-0.9-1.5-1.8
	c0-0.9-0.5-1.2-1.1-0.8c-0.5,0.6,0.3,2.5,1.7,4c1.5,1.7,2.3,3.8,1.7,4.8c-1.8,2.9-5.2-3.4-5.4-9.8c0-5.8,0-6,3.1-3.2
	C464.1,165,465.5,167.2,465.5,168.4L465.5,168.4z M500.8,166.4c0,1.2-0.5,2.4-1.4,3.2c-1.8,1.1-3.7-1.9-2.5-3.8
	C498.3,163.5,500.8,164,500.8,166.4L500.8,166.4z M324.1,176.6c2.5,7.7,2.6,9.1,0.8,9.8c-3.5,1.4-8.9-13.1-5.5-14.9
	c0.6-0.3,0.2-0.3-0.8-0.2c-1.1,0.3-2,0.3-2,0c-0.2-1-0.5-2-0.9-2.9c-0.6-1.9,0-2.1,2.3-1.5C320.1,167.3,321.9,170.4,324.1,176.6z
	 M402.5,167.3c0,0.9-0.7,1.5-1.5,1.5c-0.8-0.1-1.5-0.7-1.5-1.5c0-0.8,0.7-1.5,1.5-1.5c0.8-0.1,1.5,0.6,1.5,1.4
	C402.5,167.2,402.5,167.3,402.5,167.3L402.5,167.3z M425.5,172c1.7,1.2-1.7,1.5-11.2,1.2c-7.4-0.3-13.4,0-13.4,0.5
	s-4.8,1.4-10.4,1.8c-9.4,1.2-18.7,2.9-27.9,5.1c-9.7,2.1-19.6,4.3-22.3,4.8c-2.5,0.3-7.7,2.4-11.2,4.6c-4.8,2.8-7.2,3.4-8.4,2.1
	c-1.8-1.8,1.2-3.2,22-9.4C374.9,173,418.8,167.5,425.5,172L425.5,172z M315.7,173.5c0.5,0.9-0.3,2-1.8,2.5
	c-7.7,2.8-21.5,9.1-23.8,11c-2.5,2.1-2.8,2-2.8-0.3c0-1.8,4-4.6,12.7-8.6C314.2,171.3,314.4,171.3,315.7,173.5L315.7,173.5z
	 M553.4,180.2c4.8,2.3,8.8,4.8,8.8,5.5c0,2-2.8,3.4-3.4,1.5c-0.2-0.8-6-3.8-12.6-6.6c-6.8-2.9-12.6-6-12.9-6.9
	C532.7,171.6,539.8,173.9,553.4,180.2L553.4,180.2z M486.9,177.5c13.8,3.1,41.5,11.8,41.5,13.2c0,0.6-1.8,2.1-4.1,3.4
	c-4.1,2.1-4.1,2.3-0.8,2.4c1.8,0,8,2,13.7,4.6c11.1,5.1,11.4,5.1,10.9,3.4c-0.2-0.6,0.5-2.6,1.5-4.4c1.3-2.4,2.4-4.8,3.4-7.4
	c1.4-3.5,1.2-4-1.1-3.5c-1.4,0.3-2.6,1.3-2.9,2.8c0,2.8-2.3,10.8-2.9,10.8c-1-0.3-2-0.6-2.9-0.9c-2.1-0.8-2-1.4,0.6-5.2
	c3.4-4.8,3.8-6.1,1.7-6.1c-0.8,0-2.1,2-3.1,4.6c-1.8,5.2-1.2,5.1-7.7,2.9c-2.6-0.9-4.8-2.8-4.8-4s0.6-1.8,1.4-1.4
	c0.6,0.5,0.9-0.8,0.6-2.8c-0.4-2.6,0.1-5.2,1.4-7.5l2-3.8l11.2,4.8c6,2.6,11,5.4,11,6.1s-2.2,5.1-4.6,9.7c-2.9,4.9-4.1,8.4-3.1,9.1
	c0.8,0.6,1.4,1.5,1.5,2.5c0,1.8-13.7,8.1-15,6.9c-0.5-0.5,2-2.1,5.5-3.7c3.5-1.4,6.5-2.9,6.5-3.4s-6.9-3.8-15.3-7.7
	s-15.3-7.1-15.3-7.4c0-0.5,1.1-1.5,2.5-2.6c2.2-1.5,0.6-2.5-9.5-5.7c-6.8-2.1-19.2-5.5-27.8-7.5c-8.8-1.8-15.8-4-15.8-4.6
	C467,173.5,470.8,173.9,486.9,177.5L486.9,177.5z M399.4,178.4c0,2.6-1.5,4.9-7.7,12.1l-5,5.7l-7.4-7.1c-4.1-4-7.5-7.7-7.5-8.1
	c0-0.6,5.1-1.7,11.2-2.6C398.8,176.4,399.4,176.4,399.4,178.4L399.4,178.4z M311.3,181.5c-0.6-1.1-0.3-1.8,0.9-1.8
	c3.2,0,6,7.5,4.1,11c-1.2,2.5-1.2,2.9,0.1,2c1.2-0.8,1.7-0.5,1.2,0.8c-0.5,1.2-1.8,2.8-3.4,3.7c-2,1.4-3.1,1.1-5.2-1.5
	c-2.5-3.2-2.8-3.2-5.2-0.8c-1.7,1.7-2.1,3.2-1.2,4.8c1.1,1.9,1.7,1.5,2.8-1.4c1.1-3.1,1.5-3.2,3.2-1.2c1.5,2,1.2,2.8-2.8,4.8
	c-1.9,1.1-3.9,2-6,2.5c-1.2,0-9.5-13.8-9.5-16c0-0.3,2.1-1.4,4.8-2.6c4.3-1.7,5.1-1.7,7.1,1.1c2.3,2.8,2.3,2.8,1.4-0.5
	c-0.8-2.1,0.3-4.5,2.4-5.4c1.4-0.5,3-0.3,4.2,0.7C312.1,183,312.2,183,311.3,181.5L311.3,181.5z M370.9,184.6
	c-0.1,1.5,0.3,2.3,1.2,1.8c1.4-0.9,12,9.7,12,12c0,2.8-2.5,0.9-6-4.3c-2.5-3.5-4.8-5.2-6.9-5.1c-2,0.1-4.1-0.2-6-0.9
	c-1.7-0.8-6.5,0.1-12.3,2.3c-5.2,1.9-11.7,3.5-14.4,3.7s-5.4,0.8-6,1.4s-3.2,1.1-5.8,0.9c-2.6,0-3.7-0.5-2.4-0.9
	c2.1-1,4-2.3,5.7-3.8c2.1-2,8-3.8,16.9-5.4c7.4-1.2,14.6-2.9,15.8-3.7C366.3,180.4,371,181.6,370.9,184.6L370.9,184.6z M379,201.9
	c-1.1,0.8-1.8,2.4-1.5,3.4c1.1,3.2-0.8,2.3-2.8-1.2c-1.2-2.6-1.2-3.1,0.1-2.1c1.2,0.8,1.7,0.5,1.2-0.9c-0.3-1.1-1.3-1.8-2.4-1.9
	c-0.9,0.3-1.4-0.5-0.9-1.7c0.4-1.1,0.1-2.4-0.8-3.2c-0.9-0.5-1.2-1.7-0.8-2.6c0.6-0.9,2.9,0.5,5.5,3.5
	C380.4,199.3,380.9,200.5,379,201.9L379,201.9z M451.7,196.8c0,1.5-0.6,2.8-1.5,2.8c-0.8,0-1.5-2.3-1.5-5.1c0-3.7,0.5-4.3,1.5-2.6
	C451,193.4,451.5,195.1,451.7,196.8z M447.1,196.4c-0.2,1.7-1.4,3.2-3.1,3.7c-1.7,0.5-3.1,1.8-3.1,3.2s-0.8,2.5-1.8,2.5
	c-0.9,0-1.4,0.5-0.9,0.9c0.6,0.5,2.5,0,4.3-0.9c2.8-1.4,3.1-2.1,1.4-3.1c-1.4-0.9-0.5-1.4,2.5-1.2l4.6,0.1l-4.5,4.9l-4.6,5.1
	l-5.8-4.8c-5.4-4.3-7.1-7.7-2.5-4.8c2.9,1.8,6,2.1,4.9,0.5c-0.5-0.8,1.1-3.1,3.5-5.2C447.2,192.7,447,192.8,447.1,196.4L447.1,196.4
	z M318.7,199.9c-0.3,1.1-4.4,3.7-9.1,5.7c-4.6,2-8.4,4.1-8.4,4.6c0,0.6,2.5,2,5.4,3.1c8,2.8,6.5,4.9-1.5,2.1
	c-11.1-3.7-10.6-5.4,3.1-12.4C318.4,197.6,319.9,197.3,318.7,199.9z M330.4,199.3c0,1.4-6.8,4.9-9.2,4.9c-2.9,0-1.5-3.2,2-4.6
	C327.6,197.9,330.4,197.8,330.4,199.3z M385,204c-2.1,2.3-4,5.7-4,7.7s-0.6,2.9-1.5,2.5c-2.8-1.7-1.7-6.6,2.5-11.4
	c2.1-2.6,4.6-4.3,5.5-3.8C388.4,199.4,387.2,201.7,385,204z M453,206.3c1.5,1.8,1.4,2.6-0.9,3.7s-2.8,0.9-2.9-2.1
	C448.9,203.7,450.4,203.1,453,206.3L453,206.3z M441.5,215.3c-0.6,0.9-1.5,0.8-2.3-0.5c-2.1-3.4-1.5-5.1,0.9-2.9
	C441.4,212.9,442,214.5,441.5,215.3L441.5,215.3z M377,231.1c3.1,1.4,6,3.5,6.5,5.1c0.5,1.4,1.8,4.8,2.9,7.5l2.1,4.9l-14,8.6
	c-11.8,7.2-14.3,8.3-15.4,6.1c-0.9-1.3-2.3-2.2-3.8-2.3c-2.3,0-2.3-0.3,0-2.8c1.6-1.8,2.5-4.2,2.6-6.6c0-5.5,4.6-20.4,6.8-21.6
	C367.4,228.1,370.9,228.6,377,231.1z M393.3,257.2c1.8,2.9,4,5.4,4.8,5.4c0.9,0,0.9,0.9,0,2.6c-1.5,2.9-10.9,9.1-10.9,7.2
	c0-0.6-0.9-0.1-1.9,1.2c-0.9,1.4-6.3,5.2-11.7,8.6l-9.7,6l15.7,8l15.8,8l-14.9-0.5c-12.3-0.3-15.2,0-17.4,2.1
	c-2.4,2.3-3.4,2.1-15.4-3.8c-6.9-3.4-12.3-6.9-11.8-7.7c0.5-0.9,0.1-1.1-0.6-0.6c-0.9,0.6-3.8,0.2-6.4-0.9l-4.9-2l12.8-7.8
	c7.1-4.3,13-7.2,13.2-6.5c1.1,2.9,5.1,1.2,7.8-3.4c2.5-4,27.5-21,31.2-21.3C389.5,251.8,391.5,254.2,393.3,257.2L393.3,257.2z
	 M446.3,255.1c-0.6,0.8-0.2,1.4,0.6,1.4c0.9,0,1.7,0.8,1.7,1.7c0,0.8-0.5,1.2-1.1,0.9c-0.8-0.5-3.2,1.4-5.8,4
	c-3.5,3.4-3.8,4.3-1.5,3.4c6.6-2.5,8.1-2.5,13.8-0.1c3.8,1.7,5.4,3.2,4.9,4.8c-0.6,1.1-0.3,2.5,0.8,3.2c1.1,0.8,1.2,0.3,0.5-1.1
	c-0.8-1.2-0.6-1.5,0-0.9c1.4,1.2,1.8,2.8,3.1,12.7c0.8,5.2,0.1,7.2-3.7,12.4c-2.8,3.8-6.6,6.9-10,8.1c-3.7,1.2-5.1,2.5-4.5,4
	c0.5,1.3,1.7,2.1,3.1,2.1c1.4,0,1.8,0.9,1.4,2.6c-0.5,1.5,0.9,6.1,2.9,10.3c3.5,7.4,3.7,10.1,0.6,10.1c-0.9,0-1.1-0.8-0.5-1.9
	s-1.1-0.3-3.7,1.7s-4.8,3.8-4.5,4.5c0.5,1.8-13.1,17.2-15,17.2c-1.1,0-2.8,1.1-3.8,2.3c-1.5,1.8-1.5,2.3,0.1,2.3
	c3.1,0.1-6,7.7-9.2,7.7c-3.8,0-6.3-3.1-6.3-7.7c0-2.3-0.5-4.6-1.1-5.1c-0.9-1.1-0.8-18.1,0.2-19.2c0.8-0.8,19.3,8.9,19.3,10.1
	c-0.1,0.6-2.6,2.9-5.8,5.1c-3.1,2.1-7.1,6.3-8.6,9.2s-2,4.3-0.8,3.2c1.3-1.1,2.9-1.7,4.6-1.9c1.5,0,2.9-0.6,3.8-1.8
	c0.8-1.2,0.3-1.4-1.4-0.8c-4.9,1.9-2.6-1.4,6.3-8.8c4.8-4.1,9.2-8.7,13-13.7c4.9-7.4,4.6-13.2-1.7-24.1c-7.1-12.3-9.5-18.1-9.7-23.3
	c0-2.8-0.5-4.1-0.9-2.9c-0.6,1.4-1.9,0.8-4.3-2.3l-3.5-4.4l3.1-6.3c3.2-6.5,20.7-22.7,23-21.3C446.5,253.2,446.8,254.2,446.3,255.1
	L446.3,255.1z M491.6,301.8c4.6,4.1,4,14.4-1.8,31l-4.9,14.1l-13.2-6.9c-12.1-6.5-13.4-7.5-16.6-14.9c-1.8-4.5-3.4-9-3.4-10.3
	c0.2-1.2,3.4-4.5,7.4-6.9c4-2.6,8.6-7.1,10.1-10.1l2.9-5.4l8.3,3.2C484.8,297.4,489.9,300.1,491.6,301.8L491.6,301.8z M436.2,314.5
	c1.7,2.8,3.3,5.7,4.8,8.8c0,0.5-5.2-1.8-11.5-4.9c-6.3-3.2-11.5-6.6-11.5-7.7s2.1-4.5,4.9-7.4l4.8-5.5l1.8,4.3
	C431.4,306.3,433.7,310.4,436.2,314.5L436.2,314.5z M389,314l12.4-1.1l-1.1,5.4c-0.6,3.7-0.5,5.5,0.9,6s0.9,0.9-0.6,1.7
	c-2.5,0.9-30.4-11.5-30.4-13.5c0-0.5,1.4-0.1,3.2,0.9C375.7,314.4,380.9,314.8,389,314L389,314z M428.3,320.6
	c14.3,7.4,15.4,9.5,8.8,18.1l-4,5.2l-12.1-6.1c-9.4-4.8-12-6.8-11.2-8.6c0.5-1.4,0-3-1.2-3.8c-1.5-0.9-1.5-1.4-0.2-1.4
	c0.9,0,1.9-1.4,1.9-3.2s0.6-2.6,1.7-2c0.9,0.5,1.4,3.4,1.1,6.1c-0.8,6.8,1.2,4.6,2.6-2.9c0.9-4.6,0.6-5.7-1.4-5.7
	c-1.4,0-2.5-0.8-2.5-1.7C411.7,312.3,413.7,313.1,428.3,320.6L428.3,320.6z M514.6,333.8c-0.9,4.9-4.9,17.4-8.8,27.5
	c-5.8,15.7-6.6,19-5.2,22.4l1.7,4l-3.1-3.7c-2.3-2.6-3.1-5.7-2.9-11.5c0.1-9.5,4.9-24.4,6.5-20.3c0.6,1.4-0.3,6.8-2.1,12
	c-1.7,5.1-2.8,10-2.5,11s1.7-1.8,3.1-6c1.2-4.3,4.5-13.5,7.1-20.6c2.5-7.5,4.5-15.2,5.8-23c0.8-6.8,1.4-8.6,1.7-5.5
	C516.1,322.6,515.7,328.7,514.6,333.8L514.6,333.8z M450.9,336.3c-1.2,2,1.2,2,3.4-0.1c1.2-1.2,5.5,0.3,15.7,5.5l14,7.2l0.2,8.8
	c0,4.8,0.6,10,1.2,11.7c1.1,2.5-0.6,4.1-10.4,10.1l-11.7,7.2l-5.8-5.8l-6-6l5.7-5.1c3-2.7,6.3-5,9.8-6.9c3.7-1.7,3.8-1.8,0.9-2.8
	c-1.7-0.6-8.4-3.5-14.9-6.6l-11.8-5.7l4.9-5.2c3.8-4,4.1-5.1,1.8-4.1c-3.1,0.9-3.1,0.9-0.1-1.4C451.2,334.4,452.3,334.1,450.9,336.3
	L450.9,336.3z M450.9,356.6c5.5,2.8,10,5.4,10,6s-2.8,3.2-6,5.8l-6,4.8l-6.6-3.1c-3.7-1.7-8.8-3.1-11.2-3.1c-3.2,0-4.1-0.6-3.4-2.5
	c0.5-1.5,0.8-3,0.9-4.6c0-1.4,0.8-1.9,1.5-1.4s3.1-0.8,5.1-2.9s3.8-4,4.5-4S445.4,353.8,450.9,356.6L450.9,356.6z M441.7,372.9
	c14.9,6.6,23.8,19,24.6,34.2c0.3,5.4,0.3,8.1-0.2,6.3c-0.5-2.1-1.5-3.1-2.9-2.5c-2,0.6-2,1.2,0,4c3.5,5.1,2.8,11.8-2.3,20.7
	c-11.7,20.1-36.7,27-58.3,16.1c-9.4-4.9-18.4-15.5-21.3-25c-2.5-8.3-2-21.2,1.2-29c2.9-7.4,16.1-23.2,19-23c1.4,0,1.2,0.3-0.2,0.9
	c-0.8,0.2-1.3,1.1-1,1.9c0,0.1,0.1,0.2,0.1,0.2c0.5,0.9,1.7,0.9,3.1-0.3c1.1-0.9,1.7-2.3,1.2-3.1c-0.5-0.8,0.5-0.9,1.8-0.3
	c2,0.8,2.3,0.5,1.4-1.1c-0.8-1.4-0.6-1.7,0.5-0.9c1.1,0.6,1.9,0.5,1.9-0.5C410.2,367.7,431.8,368.6,441.7,372.9z"/>
<path class="st0" d="M392.1,66c2.7,0.8,5.3,2.1,7.7,3.7c3.8,2.6,12,3.4,12,0.9c0-0.8-0.9-1.1-2.1-0.6c-1.2,0.5-4.9-0.6-8.4-2.3
	c-3.4-1.8-7.8-3.2-9.7-3.1C388.2,64.8,388.2,64.8,392.1,66z"/>
<path class="st0" d="M377.7,72.1c-2,1.5-3.1,3.4-2.3,4s2-0.2,3.2-1.7c1.2-1.7,3.1-2.4,4.6-1.8s2.5,0.3,2.5-0.3
	C385.6,69.4,381,69.4,377.7,72.1z"/>
<path class="st0" d="M381.8,79.8c-0.5,0.8-0.3,1.5,0.6,1.5c1-0.1,1.9-0.7,2.5-1.5c0.5-0.9,0.3-1.5-0.6-1.5
	C383.2,78.4,382.3,79,381.8,79.8z"/>
<path class="st0" d="M461.6,72.1c-0.8,1.2-0.1,1.5,1.7,0.9c3.4-0.9,5.8,0.3,7.2,3.7c0.6,1.4,0.9,0.6,0.6-1.5c-0.1-2.9-1.2-4-4.5-4.3
	C464.5,70.6,462.2,71.2,461.6,72.1z"/>
<path class="st0" d="M463.9,75.8c0,0.3,1.1,1.1,2.5,1.5s1.8,0.3,1.4-0.6C466.8,75.2,463.9,74.6,463.9,75.8z"/>
<path class="st0" d="M439.1,77.8c0.9,0.4,2,0.4,2.9-0.2c0.6-0.5-0.3-0.9-2-0.8S437.8,77.4,439.1,77.8z"/>
<path class="st0" d="M417.4,117.8c-0.6,0.5-1.1,2.3-1.1,3.8c0,2.3,1.2,2.8,6.9,2.8c7.4,0,11-3.5,6.8-6.3
	C427.5,116.5,418.8,116.2,417.4,117.8z M427.8,119.8c0.6,0.9-1.2,1.5-4.4,1.5c-3.1,0-5.5-0.8-5.5-1.5c0-0.9,2-1.5,4.5-1.5
	C424.9,118.2,427.4,118.8,427.8,119.8z"/>
<path class="st0" d="M387.9,125.9c-0.5,0.8-0.1,1.5,0.6,1.5c0.9,0,1.6-0.7,1.7-1.5c0-0.9-0.3-1.5-0.6-1.5
	C389.2,124.4,388.4,125,387.9,125.9z"/>
<path class="st0" d="M397,132.8c-2.8,2-2.6,2.1,1.7,2c2.8,0.1,5.7,0.4,8.4,0.9l3.8,1.1l-3.5-2c-1.8-1.2-2.9-2.6-2.5-3.2
	C407.1,129.4,400.1,130.5,397,132.8z"/>
<path class="st0" d="M418.3,131.6c-3.8,1.4-2,3.4,2.5,2.6c2.5-0.6,4.9-0.2,5.4,0.8c0.6,0.9,2.6,1.7,4.5,1.7c2.9,0,2.8-0.5-1.7-3.1
	C423.9,130.5,421.9,130,418.3,131.6z"/>
<path class="st0" d="M438.4,133.7c-0.8,1.2,0,1.5,2.6,0.9c2.3-0.5,4.7,0,6.6,1.4c4.5,3.2,6.6,2.6,2.8-0.9
	C446.9,131.7,440.1,131,438.4,133.7z"/>
<path class="st0" d="M458.6,133.6c-0.5,0.8,0.5,1.5,2,1.5c1.9,0.1,3.6,0.9,4.9,2.3c1.1,1.3,2.7,2.1,4.5,2.3c1.7,0,1.2-1.1-2-3.8
	C463.2,131.9,460.1,131.1,458.6,133.6z"/>
<path class="st0" d="M378.6,135.4c-0.8,1.2,0,1.4,2.1,0.9c1.8-0.6,3.8-0.3,4.3,0.5c0.9,0.9,2.1,1.4,3.4,1.4c2,0,2-0.3-0.6-2.3
	C384.2,133.3,380.1,133,378.6,135.4z"/>
<path class="st0" d="M405.9,149.5c0.1,1.5,1.2,2.6,2,2.6c2.3-0.1,1.9-3.7-0.5-4.4C406,147.2,405.4,148,405.9,149.5z"/>
<path class="st0" d="M428.6,149.8c0,1.7,0.9,2.1,3.2,1.4c2-0.8,3.8-0.3,4.6,0.9s1.7,1.5,2.3,0.9c1.7-1.7-2-4.9-6.1-5.4
	C429.8,147.5,428.6,148.1,428.6,149.8z"/>
<path class="st0" d="M412.5,150.5c-1.1,1.9,1.8,1.9,6.1,0c2.8-1.2,2.6-1.4-1.1-1.4C415.3,148.9,413,149.5,412.5,150.5z"/>
<path class="st0" d="M422.5,149.5c0,0.3,1.1,0.9,2.3,1.5c1.2,0.5,2.3,0.1,2.3-0.6c0-0.9-1.1-1.5-2.3-1.5
	C423.5,148.9,422.5,149.2,422.5,149.5z"/>
<path class="st0" d="M436,161.2c-3.1,5.5-8.6,6.1-12.7,1.5c-1.5-1.7-3.5-3.1-4.3-3.1c-0.8,0,0,1.7,2,3.8c2.1,2.4,5.2,3.8,8.5,3.8
	c5.4,0,10.6-4.4,9.7-8.3C438.7,157.4,437.8,158,436,161.2z"/>
<path class="st0" d="M453.2,166c0,6.8-4.3,14.9-11.1,21.5c-9.8,9.5-11.2,10-11.2,2.9s-0.3-7.5-6.4-6.6c-3.8,0.6-5.1,1.5-5.1,3.8
	c0,2.1,0.8,2.8,2.3,2.1c1.2-0.5,2.3,0,2.3,0.9s0.5,1.2,1.1,0.6c0.8-0.6-0.1-2.1-1.7-3.4c-2.9-2-2.9-2.1,0.9-2.1
	c3.7,0,5.8,2.4,5.8,6.6c0,1.1-0.6,0.9-1.5-0.5c-1.2-2-1.5-2-1.5,0.1c0.2,3.3,3,5.8,6.3,5.5c0.4,0,0.7-0.1,1.1-0.2
	c1.7-0.6,6.4-4.8,10.7-9.2c8.5-8.9,12.4-18.7,9.7-23.6C453.5,162.3,453.3,162.6,453.2,166z"/>
<path class="st0" d="M400.2,185.8c-0.5,0.8,0.1,1.5,1.5,1.5s2-0.8,1.5-1.5c-0.5-0.9-1.2-1.5-1.5-1.5S400.7,184.9,400.2,185.8z"/>
<path class="st0" d="M409.1,185.5c-5.2,0.8-4.3,3.5,1.1,3.1c2.6-0.1,4.6-0.9,4.6-1.5C414.8,185.3,412.8,184.9,409.1,185.5z"/>
<path class="st0" d="M411.7,189.8c0,0.3,3.7,2.1,8.1,4.4c4.3,2.1,6.6,2.8,4.9,1.5s-4.1-3.2-5.5-4.5
	C417.3,189.6,411.7,188.5,411.7,189.8z"/>
<path class="st0" d="M350.3,160c0,0.9,1.1,2.5,2.6,3.5c1.4,1.1,2,2.6,1.4,3.5c-1.7,2.8-3.5,2.1-4.8-1.7c-0.6-2-1.2-2.6-1.8-1.4
	c-0.3,0.9,1.2,4.1,3.5,6.9c2.3,2.8,3.8,3.7,3.2,2.1c-0.5-1.4-0.3-2.6,0.5-2.6c2.6,0,1.7-6.4-1.1-8.8c-1.5-1.2-2-1.8-0.9-1.4
	c0.8,0.6,2,0.5,2.6-0.3c0.3-0.6-0.6-1.4-2.3-1.4C351.7,158.4,350.3,159.1,350.3,160z"/>
<path class="st0" d="M330.2,163.8c-1.7,0.5-2.3,1.7-1.8,3.7c1.1,4,7.4,3.4,7.4-0.8C335.7,163.5,334.2,162.8,330.2,163.8z"/>
<path class="st0" d="M320.4,176.6c0.5,0.8,1.2,1.5,1.7,1.5c0.3,0,0.6-0.8,0.6-1.5c0-0.9-0.8-1.6-1.6-1.5c0,0,0,0-0.1,0
	C320.2,175,319.9,175.6,320.4,176.6z"/>
<path class="st0" d="M546.1,187.3c-0.5,0.8-0.2,1.5,0.6,1.5c0.9,0,1.6-0.7,1.7-1.5c0-0.9-0.3-1.5-0.6-1.5
	C547.3,185.8,546.5,186.4,546.1,187.3z"/>
<path class="st0" d="M297.3,187.1c-0.5,0.8,0.1,2.4,1.4,3.7c1.2,1.2,1.8,2.8,1.2,3.4c-0.6,0.8-0.3,0.8,0.8,0.1
	c2-1.1,0.9-5.5-1.4-5.5c-0.8,0-0.9-0.8-0.5-1.5s0.6-1.5,0.2-1.5S298,186.4,297.3,187.1z"/>
<path class="st0" d="M366.7,268.7c-2.1,2.6-3.7,6.4-5.1,12.6c-0.2,0.7-0.4,1.3-0.6,2c-0.3,0.7-0.5,1.4-0.6,2.1
	c-0.1,1-0.5,1.9-1.2,2.6c-1.8,1.7-1.4,3.2,0.8,3.2c1.1,0,2-1.4,1.8-3.1s1.1-4.5,2.8-6.1c1.8-1.7,2.6-4.2,2.1-6.6
	c-0.3-2-0.2-3.2,0.6-2.9c1.2,0.8,3.7-5.1,2.6-6.1C369.7,265.9,368.1,267,366.7,268.7z"/>
<path class="st0" d="M357.7,277c-3.1,2.3-3.5,4-1.2,4c0.8,0,2.1-1.4,3.1-3.1C361.4,274.4,361.2,274.2,357.7,277z"/>
<path class="st0" d="M339.6,285.6c-1.4,0.9-1.5,1.5-0.5,1.5c1.1-0.1,2.1-0.7,2.8-1.5C343.1,283.7,342.5,283.7,339.6,285.6z"/>
<path class="st0" d="M349.9,290.2c-0.5,1.7-0.2,3.1,0.5,3.1c0.6,0,0.9,1.5,0.5,3.4c-0.6,2.5-0.3,3.1,0.6,2
	c2.8-2.6,3.7-11.5,1.4-11.5C351.5,287.1,350.3,288.5,349.9,290.2z"/>
<path class="st0" d="M343.4,291.6c-0.4,0.9-0.1,2,0.8,2.5c0.8,0.5,1.5-0.1,1.5-1.4C345.7,289.9,344.8,289.4,343.4,291.6z"/>
<path class="st0" d="M358.1,298.8c0,1.7,0.5,2.1,0.9,0.9c0.4-0.9,0.4-2-0.1-2.9C358.4,296.2,358,297.1,358.1,298.8z"/>
<path class="st0" d="M424.8,277.9c0.5,0.9,1.4,1.4,2.5,1.5c0.8-0.1,1.4-0.7,1.4-1.5c0-0.9-1.1-1.5-2.5-1.5
	C424.9,276.4,424.3,277,424.8,277.9z"/>
<path class="st0" d="M437.8,307.8c0.9,2,2,3.9,3.2,5.7c1.8,2.8,2.8,3.7,2.1,2c-0.7-1.9-1.2-3.8-1.4-5.8
	C441.8,307.5,437.8,305.5,437.8,307.8z"/>
<path class="st0" d="M384.6,317.4c1.8,1.7,13,2.1,14.1,0.5c0.6-0.9-1.8-1.5-7.1-1.5C387.2,316.3,384.1,316.7,384.6,317.4z"/>
<path class="st0" d="M423.9,321.2c-0.3,1.2-0.5,2.3-0.6,3.5c-0.3,2.1-0.9,4.1-1.7,6c-0.8,2.1-0.6,2.6,0.6,1.8c1.1-0.8,1.8-2,1.9-3.4
	c0-1,0.8-1.9,1.9-1.9c0.2,0,0.4,0,0.6,0.1c3.8,0.6,4.3-2.9,0.8-4.9C425.4,321.5,423.9,321,423.9,321.2z"/>
<path class="st0" d="M425.5,331.6c0.1,0.9,0.8,1.5,1.7,1.5c0.8,0,1.1-0.8,0.6-1.5c-0.5-0.9-1.2-1.5-1.7-1.5
	C425.9,330.1,425.5,330.7,425.5,331.6z"/>
<path class="st0" d="M457.8,339.6c1.4,1.3,2.1,3.2,1.9,5.1c-0.3,2.5-0.2,2.6,1.1,0.8c2.3-3.4,2.1-4.3-1.7-6.1
	C456.1,337.9,455.8,337.9,457.8,339.6z"/>
<path class="st0" d="M448.6,343.5c-2.1,2.8-2.6,4.5-1.5,4.8c2.1,0.8,9.4-5.8,8.3-7.5C453.9,338.4,452,339.1,448.6,343.5z"/>
<path class="st0" d="M478.8,362c-1.1,5.2,0.1,11.4,2,10.3c1.2-0.8,0.8-12.9-0.5-14.1C479.9,357.9,479.3,359.6,478.8,362z"/>
<path class="st0" d="M469.1,369.7c-1.3,2.5-2.3,5.2-2.9,8c-1.1,4.9-0.9,5.1,1.4,2.6c1.5-1.4,2.1-3.4,1.5-4.3
	c-0.6-1.2-0.5-1.4,0.6-0.8s1.8,0.1,1.8-1.2c0.1-1.6,0.4-3.1,0.9-4.6C473.8,366,471.1,366.3,469.1,369.7z"/>
<path class="st0" d="M418.7,371.4c-1.7,0.8-3.5,1.1-4.1,0.8c-0.6-0.3-3.1,1.4-5.5,4c-2.6,2.5-5.7,4.6-6.8,4.6
	c-3.4,0-11.5,9.2-14.9,16.9c-3.1,6.9-3.2,8.8-0.3,6.9c0.9-0.5,1.7-2.6,1.7-4.6s0.8-4.1,1.5-4.6s1.5,0.5,1.5,2.1
	c0,2.3,0.9,3.2,3.2,3.2s2.9,0.5,1.7,1.8c-1.2,2.2-2.1,4.6-2.6,7.1c-1.2,6,2.3,12.6,6.9,12.6c2.3,0,3.1,1.1,3.1,4
	c0,2.3-0.6,3.5-1.7,2.9s-0.2,1.8,1.7,5.4c2.4,4.9,2.9,6.9,1.5,7.7c-1.4,0.9-1.4,1.4,0.1,1.9c1.2,0.5,1.7,1.4,1.1,2
	c-0.6,0.6-3.5-0.6-6.6-2.9c-2.9-2.3-5.4-3.7-5.4-3.1c0,1.5,4.3,4.8,11.5,8.6c8.8,4.8,26.7,4.8,35.3,0.1c11.2-6,18.4-14.4,21.5-25
	l1.1-3.8l-2.8,3.8c-1.5,2.1-5.1,6.5-7.8,9.7c-2.9,3.2-4.8,6.5-4.3,7.1c1.4,2.5-16.4,9.8-23.8,9.8c-10,0.1-19.5-2-16.9-3.5
	c1-0.7,2.2-0.9,3.4-0.6c0.6,0.5,1.2,0,1.2-0.9s-0.9-1.5-2.1-1.1c-2.3,0.9-3.8-4-4.6-15c-0.5-7.7-1.7-10-5.5-10c-3.7,0-5.1-2.3-4.9-8
	c0.1-6.5,2.5-8.5,10.3-8.6c3.8,0,8-0.8,9.1-1.7s2.3-1.2,2.8-0.9c0.5,0.5,2.6,0.1,4.9-0.6c3.1-1.2,4-2.6,4-6.1c0-2.8-0.9-4.8-2.5-5.4
	c-3.2-1.2-8.3,3.1-8.3,7.1c0,1.5-0.6,2.8-1.5,2.8c-0.8,0-1.5-1.1-1.5-2.3s-1.4-2.3-2.9-2.3c-2.6,0-2.8-0.5-1.2-4.6
	c1.2-3.4,2.6-4.6,4.9-4.3c3.5,0.5,4.5-4.1,1.7-7.8c-1.4-1.9-1.2-2,0.6-0.9c1.7,1,3.5,1.6,5.4,1.9c1.7,0.3,4.6,0.8,6.3,1.2
	c1.9,0.4,3.9-0.1,5.2-1.5c1.7-2,1.5-2.3-0.2-1.5c-1.2,0.5-4.1,0.2-6.8-0.6l-4.7-1.4l3.8-1.5l3.8-1.7h-3.8
	C423.2,370.2,420.9,370.7,418.7,371.4z M413.6,381.1c-1.4,1.4-2.3,1.4-3.7-0.2c-1.7-1.5-1.5-1.7,0.8-0.8c2.1,0.8,2.4,0.3,1.7-1.8
	c-0.9-2.5-0.8-2.6,1.1-1.1C415,378.8,415,379.7,413.6,381.1z M404.7,384.6c-2.5,2-2.5,2.1-0.1,1.4c1.4-0.5,2.6-0.2,2.6,0.8
	c0,0.9-0.7,1.6-1.5,1.7c-1.1,0-1.1,0.9,0,3.1c0.9,1.7,2.6,3.1,3.7,3.1c2.1,0,4.6,4.5,3.4,5.8c-1.1,0.3-2.3,0.2-3.4-0.3
	c-1.4-0.6-2.1-1.4-1.7-1.8c1.2-1.2-3.8-6.8-6.1-6.8c-1.2,0-2.8,1.7-3.5,3.8c-1.8,4.6-4,4.9-5.1,0.6c-0.6-2.3-0.3-2.9,1.2-2.3
	c1.5,0.5,1.8,0,1.2-1.9c-0.5-1.4-0.5-2.1,0.3-1.5c1.4,1.2,7.7-1.7,6.3-2.9c-1.2-1.2,2-5.1,4.1-5.1
	C407,382.3,406.4,383.4,404.7,384.6L404.7,384.6z M399.4,386.9c0,0.8-1.1,1.5-2.5,1.5s-1.8-0.8-1.4-1.5c0.5-0.9,1.4-1.5,2.5-1.5
	C398.8,385.4,399.5,386.1,399.4,386.9C399.4,386.9,399.4,386.9,399.4,386.9L399.4,386.9z M425.2,393.4c0.3,1.5-0.9,2.9-2.8,3.5
	c-4.3,1.4-5.2,0.3-3.1-3.8C421.4,389.5,424.5,389.7,425.2,393.4L425.2,393.4z M404.5,397.7c0.6,2.5,0,3.1-2.8,3.1
	c-2.8,0-3.4-0.6-2.8-3.1c0.5-1.7,1.7-3.1,2.8-3.1C402.8,394.6,404.1,396,404.5,397.7L404.5,397.7z"/>
<path class="st0" d="M435.1,380.6c0.6,2,2.8,2.5,2.9,0.6c0-0.6-0.8-1.4-1.7-1.8C435.2,379.1,434.6,379.7,435.1,380.6z"/>
<path class="st0" d="M429.7,384c-1.1,4.1,0.1,7.2,3.5,9.1c2.3,1.2,2.6,0.8,2.1-3.5c-0.6-6.8-0.8-6.9-2.3-2.6
	c-1.2,3.4-1.2,3.2-0.6-1.2C433.2,380.3,431.1,378.9,429.7,384z"/>
<path class="st0" d="M448.6,383.2c0,0.8-2,2.3-4.3,3.4c-3.8,1.7-4.3,2.6-4.1,8.9c0,4.3,0.9,7.7,2.5,8.9c1.3,1.2,2,3,1.9,4.8
	c-0.5,3.1-0.5,3.1,0.9,0c0.9-2,0.8-3.5-0.5-4.6c-2.8-2.5-1.2-7.4,2.1-6.5c1.7,0.5,3.2-0.2,3.7-1.4c0.6-1.3,1.8-2.1,3.2-2.1
	c1.2,0,2.3-0.8,2.3-1.5c0-1.1-0.9-1.1-2.9-0.1c-1.5,0.9-3.2,1.1-3.8,0.6c-0.5-0.5-0.9-0.1-0.9,0.8c0,2.8-4.6,2.1-5.7-0.8
	c-0.6-1.7,0.5-3.7,3.4-6c2.5-2,4-4,3.4-4.6S448.6,382.5,448.6,383.2z"/>
<path class="st0" d="M458.6,394.9c-1.2,4.8-2.3,5.2-5.1,2.5c-1.4-1.4-1.8-1.1-1.8,1.2c0,4.5-1.5,5.5-4.5,3.2
	c-2.1-1.5-2.1-1.5-0.5,0.6c2.1,2.8,1.8,14-0.5,13.2c-0.8-0.3-2.5-2.6-3.8-5.1c-1.5-3-4.5-5-7.8-5.2c-2.9-0.5-5.1-1.7-4.9-2.6
	s-0.9-1.4-2.6-0.9c-2.5,0.6-2.8,1.4-1.4,3.8c1,1.7,2.4,3,4.1,3.8c2,0.8,1.5,1.4-2,2.9c-4.6,2-1.8,3.1,2.9,1.2
	c3.1-1.2,3.2-5.2,0.3-5.2c-1.2,0-2.3-0.5-3.1-1.4c-0.5-0.8,2-0.5,5.4,0.5c6.3,1.9,10,5.7,8.3,8.6c-0.5,0.8,0,1.1,1.2,0.6
	s3.2,0.3,4.6,1.5c3.1,3.2,5.1,3.1,6.3-0.1c0.6-1.6,0.1-3.4-1.2-4.5c-1.3-0.9-2.2-2.3-2.5-3.8c0.1-2.3,4.5-10.6,4.6-8.6
	c0,0.6,1.8-0.2,4.1-1.5c4-2.6,4.1-2.6,3.1,0c-0.5,1.4-0.5,2.6,0.1,2.6s1.2,1.4,1.4,3.2c0.3,3.2,0.2,3.2-2.9,0.5
	c-3.2-2.9-3.2-2.9-1.4,0.6c1.1,2,2.8,3.2,3.7,2.9c2.8-0.9,2.5-6.3-0.5-12.9l-2.6-5.8L458.6,394.9z M452.4,416.1
	c0.5,0.8,0.1,1.5-0.6,1.5c-0.9,0-1.6-0.7-1.7-1.5c0-0.9,0.3-1.5,0.6-1.5S452,415.1,452.4,416.1z"/>
<path class="st0" d="M416.9,403.2c-2.3,0.9,0.6,12.9,3.4,14c1.2,0.5,1.5,1.7,0.8,3.2c-5.4,10.9-9.4,20.7-8.8,21.3
	c0.9,0.9,4.8-2.6,5.4-4.9c0.2-0.9,0.6-1.7,1.2-2.3c0.6-0.5,0.5,0,0,0.9c-0.6,1.1,0,2.6,1.1,3.5c1.7,1.5,2.8,1.1,4.6-1.7
	c3.2-4.6,3.1-6.6-0.6-9.1c-2.9-2-2.9-2.5-0.8-6.6c2.8-5.4,2.8-5.5,0-5.5c-2.8,0-5.8-5.5-4.9-8.1c0.5-1.1,1.4-0.1,2.3,2
	c1.1,2.5,1.7,2.9,1.7,1.4c0.1-1.4-0.9-3.4-2.1-4.5c-2-1.7-2-2.3-0.5-3.2C421.9,402.3,419.9,402,416.9,403.2z M425.5,431.1
	c0,0.8-1.1,2.6-2.5,4.3c-2.1,2.6-2.3,2.6-1.5,0.1c0.5-1.4,0.8-2.8,0.9-4.3c0.1-0.8,0.7-1.4,1.5-1.4
	C424.8,429.8,425.5,430.4,425.5,431.1L425.5,431.1z"/>
<path class="st0" d="M409.9,404.9c0.9,0.4,2,0.4,2.9-0.1c0.6-0.5-0.3-0.9-2-0.8S408.7,404.4,409.9,404.9z"/>
<path class="st0" d="M409.4,417.9c0.7,2.1,1,4.4,0.9,6.6c0,2,0.3,2.5,1.2,1.1c1.5-2.5,0.3-11-1.7-11
	C409,414.5,408.8,415.9,409.4,417.9z"/>
<path class="st0" d="M429.4,417.8c-0.6,0.9-0.8,1.8-0.3,2.3c0.5,0.5,1.1-0.3,1.5-1.7C431.7,415.8,430.8,415.3,429.4,417.8z"/>
<path class="st0" d="M427.5,425c0,1.8,0.8,3.4,1.4,3.4c1.7,0,1.5-1.8-0.3-4.6C427.5,421.9,427.2,422.2,427.5,425z"/>
<path class="st0" d="M389.6,432.2c0.5,1.3,1.7,2.1,3.1,2.3c3.1,0,2.6-1.1-0.9-3.1C389.3,430,389,430.2,389.6,432.2z"/>
<path class="st0" d="M430.3,432.4c0,1.7,0.5,2.1,0.9,0.9c0.4-0.9,0.4-2-0.1-2.9C430.6,429.8,430.2,430.7,430.3,432.4z"/>
<path class="st0" d="M396.4,436.7c0.6,1,1.4,1.8,2.3,2.5c1.4,1.1,2.3,1.2,2.3,0.3s-1.1-1.8-2.3-2.5
	C397.4,436.5,396.4,436.4,396.4,436.7z"/>
<path class="st0" d="M444.7,440.6c-0.9,1.5-10.3,4.5-16.4,4.9c-2.6,0.1-3.7,1.1-3.2,2.3c0.9,2.3,3.5,2.6,3.5,0.5
	c0-0.9,1.7-1.5,3.7-1.5c4.6,0,14.7-4.1,14.7-6.1S446,438.6,444.7,440.6z"/>
<path class="st0" d="M414.8,445.9c0,0.3,1.1,0.9,2.3,1.5c1.2,0.6,2.3,0.2,2.3-0.6c0-0.9-1.1-1.5-2.3-1.5S414.8,445.6,414.8,445.9z"
	/>
<path class="st0" d="M302.7,156.6c0.1,0.8,0.7,1.5,1.5,1.5c0.8,0,1.5-0.7,1.5-1.5c0.1-0.8-0.6-1.5-1.3-1.5c-0.1,0-0.1,0-0.2,0
	C303.4,155.1,302.7,155.8,302.7,156.6z"/>
<path class="st0" d="M464.5,205.3c-1.4,5.8-3.2,11.2-4,12.1c-1.2,1.7-0.1,3.7,2.1,3.7c0.8,0,1.1-0.6,0.5-1.4
	c-0.4-0.9-0.2-1.9,0.6-2.5c1-0.7,1.3-2,0.6-3.1c-0.5-1.2,0-2.3,0.8-2.3c1.7,0,4.9-9.4,4.9-14.3C470.1,191.6,467.2,195.6,464.5,205.3
	z"/>
<path class="st0" d="M475.6,199.9c-0.7,2-1.2,4.1-1.5,6.1c-0.5,2.3-1.2,4.6-2,6.8c-0.6,1.7-0.5,2.3,0.6,1.7
	c1.4-0.9,3.8-8.1,4.1-12.6c0.3-1,0.9-1.9,1.7-2.6c0.9-0.8,0.8-1.2-0.5-1.2C476.9,198.1,476,198.9,475.6,199.9z"/>
<path class="st0" d="M482.8,201.4c-0.3,2.4,0.1,2.8,1.5,1.4c1.1-1.1,1.2-2.1,0.2-3.2C483.6,198.7,483,199.3,482.8,201.4z"/>
<path class="st0" d="M403.7,200.7c-7.2,1.1-4.8,2.8,4.1,2.8c4.9,0,8.3-0.6,8-1.5C415.3,200.2,410,199.6,403.7,200.7z"/>
<path class="st0" d="M422.3,204.8c1,1.4,1.2,3.2,0.6,4.8c-0.6,2-0.5,2.5,0.8,1.7c2.8-1.7,2.3-6.6-0.6-7.7
	C420.9,202.8,420.8,203,422.3,204.8z"/>
<path class="st0" d="M415.6,207.1c-0.5,0.9-2.3,1.7-3.8,1.7c-1.4,0-2.8,0.4-3.8,1.4c-0.5,0.8,1.2,1.4,3.7,1.4
	c2.6-0.1,5.1-1.2,5.5-2.5C418.2,206.3,417.1,204.8,415.6,207.1z"/>
<path class="st0" d="M419.7,208.8c0,2.1,0.3,2.9,0.8,1.8c0.3-1.3,0.3-2.6,0-3.8C420,205.9,419.7,206.7,419.7,208.8z"/>
<path class="st0" d="M453.2,214.9c-1.4,0.9-1.5,1.5-0.5,1.5c1.1-0.1,2.1-0.7,2.8-1.5C456.7,213.1,456.1,213.1,453.2,214.9z"/>
<path class="st0" d="M414.2,217.2c-2.5,1.8-2.6,2.3-0.6,2.3c1.7-0.2,3.2-1,4.3-2.3C420.3,214.3,418,214.3,414.2,217.2z"/>
<path class="st0" d="M442.4,221.1c-1.2,2.5-1.2,3.1,0.6,3.1c2.5,0,4.5-4.1,2.5-5.4C444.7,218.3,443.4,219.4,442.4,221.1z"/>
<path class="st0" d="M370.3,224.3c0,0.8,1.4,1.4,3.1,1.4c1.5,0,6.6,1.4,10.9,3.2c9.8,3.7,17.2,3.4,18.1-0.9c0.5-2.3,0-2.6-1.5-1.4
	c-2.5,2-15.2,2.8-15.2,0.9c0.4-1.2,1-2.4,2-3.2c1.5-1.7,1.4-1.8-0.5-0.8c-3.5,2-6.5,2.1-11.8,0.6
	C372.3,223.4,370.3,223.4,370.3,224.3z"/>
<path class="st0" d="M405.1,229.7c-0.7,1-1.1,2.3-1.1,3.5c0,1.7,0.5,1.8,1.7,0.6c1-0.9,1.4-2.2,1.1-3.5
	C406.5,229.4,405.7,229.1,405.1,229.7z"/>
<path class="st0" d="M436.3,233.7c0.1,0.7,0.7,1.2,1.4,1.2c0.9-0.1,1.7-0.5,2.3-1.2c0.5-0.8-0.1-1.4-1.4-1.4
	S436.3,232.9,436.3,233.7z"/>
<path class="st0" d="M394.8,244.1c0.1,0.8,0.7,1.5,1.5,1.5c0.8,0,1.5-0.7,1.5-1.5c0.1-0.8-0.6-1.5-1.3-1.5c-0.1,0-0.1,0-0.2,0
	C395.5,242.6,394.8,243.3,394.8,244.1z"/>
<path class="st0" d="M421.9,260.2c-1.4,3.7,0.8,6.3,2.5,3.1c1.1-1.7,1.1-3.1,0-4.1C423.4,258.2,422.5,258.7,421.9,260.2z"/>
<path class="st0" d="M418,271.6c-1.2,0.8-1.4,1.7-0.5,2.3c0.8,0.5,1.8-0.2,2.4-1.4C420.9,269.9,420.9,269.8,418,271.6z"/>
<path class="st0" d="M411.3,282.4c1.1,6.1,2.9,6.9,2.9,1.2c0-3.1-0.8-5.2-1.8-5.2C411.1,278.4,410.8,279.9,411.3,282.4z"/>
<path class="st0" d="M420.7,295.9c-1.3,1.6-2.4,3.3-3.4,5.1c-0.6,1.2-0.1,1.1,1.1-0.5c1.6-1.8,3.3-3.4,5.2-4.9
	c1.5-1.2,2-2.3,1.1-2.3C423.8,293.2,421.9,294.5,420.7,295.9z"/>
<path class="st0" d="M500.6,296.6c1.1,1.5,2.6,2.5,3.2,2c1.7-1.1,4.6,2.9,7.2,9.5l2.1,5.8l-0.9-5.4c-0.8-4.9-6.6-13.2-8.1-11.5
	c-0.5,0.5-1.8-0.1-3.2-1.2C498.8,294.2,498.8,294.3,500.6,296.6z"/>
<path class="st0" d="M407.9,300.9c0.5,0.8,1.2,1.5,1.7,1.5c0.5,0,0.6-0.8,0.6-1.5c0-0.9-0.7-1.6-1.6-1.5c0,0,0,0-0.1,0
	C407.7,299.4,407.4,300,407.9,300.9z"/>
<path class="st0" d="M382.6,310.1c0.1,0.8,0.7,1.5,1.5,1.5c0.8,0,1.5-0.7,1.5-1.5c0.1-0.8-0.6-1.5-1.3-1.5c-0.1,0-0.1,0-0.2,0
	C383.2,308.6,382.6,309.3,382.6,310.1z"/>
<path class="st0" d="M404.1,314.8c0.1,0.9,0.8,1.5,1.7,1.5c0.8,0,1.1-0.8,0.6-1.5c-0.5-0.9-1.2-1.5-1.7-1.5
	C404.4,313.2,404.1,313.8,404.1,314.8z"/>
<path class="st0" d="M402.5,331.8c0,1.7,0.8,2.6,1.5,2.1c1-0.8,1.6-2,1.5-3.2c0-1.2-0.6-2.1-1.5-2.1
	C403.1,328.6,402.5,329.9,402.5,331.8z"/>
<path class="st0" d="M498.6,342.5c-2.3,7.5-4.6,13.5-5.1,13s0.3-4,1.7-8c3.1-9.2,3.1-12.3,0-5.2c-1.5,3.7-2.5,7.6-2.9,11.5
	c-0.3,3.4-0.9,9.2-1.4,13l-0.9,6.9l2.1-7.7c1.1-4.3,3.8-11.8,5.8-17c3.4-8.3,6.8-20.6,5.5-20.6C503.2,328.6,501.1,334.9,498.6,342.5
	z"/>
<path class="st0" d="M507.1,331.2c-0.1,2.1-0.5,4.1-1.1,6.1c-0.8,2.6-0.8,2.6,0.9,0c1-1.9,1.4-4,1.1-6.1
	C507.4,327.8,507.4,327.8,507.1,331.2z"/>
<path class="st0" d="M488.8,357.7c0,2.9,0.3,4.1,0.8,2.6c0.3-1.8,0.3-3.6,0-5.4C489.1,353.6,488.8,354.8,488.8,357.7z"/>
</svg>
