<?xml version="1.0" encoding="utf-8"?>
<!-- Generator: Adobe Illustrator 25.0.1, SVG Export Plug-In . SVG Version: 6.00 Build 0)  -->
<svg version="1.1" id="Layer_1" xmlns="http://www.w3.org/2000/svg" xmlns:xlink="http://www.w3.org/1999/xlink" x="0px" y="0px"
	 viewBox="0 0 687.5 480.1" style="enable-background:new 0 0 687.5 480.1;" xml:space="preserve">
<style type="text/css">
	.st0{fill:#7C7C7C;}
	.st1{fill:#FFFFFF;}
</style>
<g id="XMLID_1_">
	<g>
		<path class="st0" d="M669.2,159.1c1.6,4.4,4.8,11.8,6.9,16.2c1,2.2,1.8,6.5,2.5,12c-0.6-5.4-1.4-9.7-2.5-11.9
			C674,171,670.8,163.6,669.2,159.1c-2.3-5.7-5-11.3-8.3-16.6c-3-4.9-5.3-9.2-5.3-9.7c0-1.2-3.7-5.4-8.9-10.7c5.3,5.2,9,9.4,9,10.7
			c0,0.5,2.3,4.9,5.3,9.7C664.2,147.8,666.9,153.4,669.2,159.1z"/>
		<path class="st0" d="M646.6,122.2c-0.2-0.2-0.5-0.5-0.7-0.7C646.2,121.7,646.4,121.9,646.6,122.2z"/>
		<path class="st0" d="M643.8,119.4c0.7,0.7,1.5,1.4,2.2,2.1C645.2,120.8,644.5,120.1,643.8,119.4z"/>
		<path class="st0" d="M641.5,117.2c0.8,0.7,1.5,1.5,2.3,2.2C643,118.7,642.2,117.9,641.5,117.2z"/>
		<path class="st0" d="M634.1,110.5c1.1,1,2.2,2,3.3,2.9C636.2,112.4,635.2,111.4,634.1,110.5z"/>
		<path class="st0" d="M632.4,109c0.6,0.5,1.1,1,1.7,1.5C633.5,110,632.9,109.5,632.4,109z"/>
		<path class="st0" d="M627.3,104.7c1.4,1.1,2.8,2.3,4.2,3.5C630.1,107,628.7,105.8,627.3,104.7z"/>
		<path class="st0" d="M615.8,218.3c0.7,1.8,1.2,3.6,1.7,5.3C617,221.8,616.4,220.1,615.8,218.3z"/>
		<path class="st0" d="M614.9,235.1c0.2,0,0.4-0.1,0.5-0.1C615.2,235.1,615,235.1,614.9,235.1z"/>
		<path class="st0" d="M613.9,214c0.3,0.5,0.5,1.1,0.8,1.7C614.4,215.1,614.1,214.5,613.9,214z"/>
		<path class="st0" d="M612.6,211.6c0.3,0.5,0.6,1,0.9,1.6C613.2,212.6,612.9,212.1,612.6,211.6z"/>
		<path class="st0" d="M611.2,209.5c0.3,0.4,0.6,0.9,0.9,1.4C611.8,210.4,611.5,209.9,611.2,209.5z"/>
		<path class="st0" d="M612.3,235.6c-0.6,0.1-1.2,0.1-1.9,0.1C611.1,235.6,611.7,235.6,612.3,235.6z"/>
		<path class="st0" d="M609.2,207.1c0.5,0.5,1,1.1,1.5,1.8C610.2,208.2,609.7,207.6,609.2,207.1z"/>
		<path class="st1" d="M575.8,240.6c3,10.4,10.2,14.1,24.5,12.5c11.8-1.2,13.2-0.7,14.3,3.5c0.9,3.5-0.2,5.3-4.4,6.9
			c-8.6,3-23.1,2.5-32.1-1.2c-18.7-7.9-22.2-40.4-5.8-55.2c9-8.1,26.1-8.8,35.3-1.4c0.5,0.4,1,0.9,1.5,1.4c0.5,0.5,1,1.1,1.5,1.8
			c0.2,0.2,0.3,0.4,0.5,0.7c0.3,0.4,0.6,0.9,0.9,1.4c0.2,0.2,0.3,0.5,0.5,0.7c0.3,0.5,0.6,1,0.9,1.6c0.1,0.3,0.3,0.5,0.4,0.8
			c0.3,0.5,0.5,1.1,0.8,1.7c0.4,0.9,0.8,1.7,1.1,2.6c0.7,1.8,1.2,3.6,1.7,5.3c0.8,3.4,1.1,6.6,0.7,8.9c-0.2,1.2-0.9,2-2.8,2.6
			c-0.2,0-0.3,0.1-0.5,0.1c-0.7,0.2-1.6,0.3-2.6,0.4c-0.6,0.1-1.2,0.1-1.9,0.1c0,0,0,0,0,0c-2.5,0.1-5.6,0.2-9.8,0.1
			c0,0-0.1,0-0.1,0c-0.7,0-1.4,0-2.1,0c-0.8,0-1.6,0-2.4,0C574.2,235.2,574.2,235.2,575.8,240.6z M589.7,227.2
			c16.6,0,18-1.8,9.2-10.4c-5.8-5.8-6.2-6-13.4-4.2c-2.1,0.5-5.5,4.2-7.4,7.9l-3.7,6.7H589.7z"/>
		<path class="st0" d="M610.3,235.7c-2.5,0.1-5.6,0.2-9.8,0.1C604.7,235.9,607.9,235.8,610.3,235.7z"/>
		<path class="st0" d="M600.6,84.6c-0.3-0.6-1.5-1.2-3-1.4C599.1,83.4,600.3,83.9,600.6,84.6c0.5,1.2,7,5.8,14.6,10.9
			c3.2,2,7.5,5.4,12.2,9.2c-4.7-3.9-9-7.2-12.2-9.2C607.5,90.3,601,85.7,600.6,84.6z"/>
		<path class="st0" d="M598.9,216.8c8.8,8.6,7.4,10.4-9.2,10.4h-15.2l3.7-6.7c1.8-3.7,5.3-7.4,7.4-7.9
			C592.7,210.8,593.2,211.1,598.9,216.8z"/>
		<path class="st0" d="M600.4,235.8c-0.7,0-1.4,0-2.1,0C599.1,235.8,599.8,235.8,600.4,235.8z"/>
		<path class="st0" d="M597.5,83.1c-0.1,0-0.3-0.1-0.4-0.1C597.2,83.1,597.4,83.1,597.5,83.1z"/>
		<path class="st0" d="M590.9,81.1c0-1.3-4.1-2.7-10.5-4C586.8,78.4,590.9,79.8,590.9,81.1c0,0.7,1.2,1.4,2.8,1.7
			C592,82.5,590.9,81.8,590.9,81.1z"/>
		<path class="st0" d="M580.4,77.1c-0.3-0.1-0.6-0.1-0.8-0.2C579.8,76.9,580.1,77,580.4,77.1z"/>
		<path class="st1" d="M557.3,256.5c2.3,6.9,0.2,7.8-16.4,7.8c-8,0-11.8-0.2-15.1-1.8c-2.2-1.1-4.1-2.8-6.9-5.5
			c-6-6-7.6-9.7-8.5-19.9c-0.3-4-0.2-7.8,0.4-11.3c0.1-0.4,0.1-0.8,0.2-1.1c0.1-0.7,0.3-1.4,0.4-2.1c0.1-0.3,0.1-0.5,0.2-0.8
			c0.2-0.9,0.5-1.8,0.8-2.7c0.2-0.5,0.4-1,0.5-1.5c0.7-1.7,1.5-3.4,2.3-4.9c0.2-0.4,0.5-0.8,0.8-1.2c0.4-0.6,0.9-1.3,1.4-1.9
			c0.4-0.5,0.8-0.9,1.2-1.4c0,0,0,0,0,0c1.5-1.6,3.2-2.9,5-3.9c1.6-0.9,4.4-1.6,7.7-2.2c0,0,0,0,0,0c0.5-0.1,1-0.2,1.5-0.2
			c0,0,0,0,0,0c0.3,0,0.5-0.1,0.8-0.1c6.5-0.9,14.2-1.2,18.9-0.7c2.3,0.3,3.9,0.7,4.2,1.4c0.7,1.2,0.2,3.9-0.7,6.5
			c-0.9,2.3-2,3.5-5,3.8c-1.7,0.2-4,0.1-7.3-0.1c-0.4,0-0.8,0-1.1,0c-2-0.1-3.9,0-5.6,0.3c-0.7,0.1-1.3,0.2-2,0.3
			c-1.1,0.2-2,0.6-2.9,0.9c-6,2.6-8.5,8.5-8.5,18.8c0,9.7,0.9,12.2,6.5,16.4c2,1.7,3.7,2.8,5.6,3.5c2.2,0.8,4.7,0.9,8.1,0.5
			c0.5-0.1,1-0.1,1.5-0.2c0,0,0,0,0,0c0.3,0,0.5-0.1,0.8-0.1c0.3,0,0.6-0.1,0.9-0.1C554.7,251.9,556.2,252.5,557.3,256.5z"/>
		<path class="st0" d="M556.9,202.4c0.7,1.2,0.2,3.9-0.7,6.5c-0.9,2.4-2,3.5-5,3.8c3-0.3,4.1-1.5,5-3.8
			C557.1,206.4,557.5,203.6,556.9,202.4c-0.4-0.7-2-1.1-4.3-1.4C554.9,201.3,556.5,201.8,556.9,202.4z"/>
		<path class="st0" d="M554.3,220.9c3.5-0.7,2.5,21.9-1.2,24.3c-4.6,2.8-16.2,0.3-19.4-4.2c-4.4-6-3.7-12.9,2.1-18.2
			c4.6-4.4,15.7-6.5,15.7-3C551.6,220.9,552.7,221.4,554.3,220.9z"/>
		<path class="st0" d="M547.2,252.9c-0.3,0-0.6,0.1-0.9,0.1c-0.3,0-0.5,0.1-0.8,0.1c0.2,0,0.5-0.1,0.8-0.1
			C546.6,253,546.9,252.9,547.2,252.9z"/>
		<path class="st0" d="M545.5,253.1c-0.5,0.1-1,0.1-1.5,0.2C544.5,253.3,544.9,253.2,545.5,253.1z"/>
		<path class="st0" d="M542.8,212.6c-2-0.1-3.9,0-5.6,0.3C538.9,212.6,540.7,212.5,542.8,212.6z"/>
		<path class="st0" d="M537.2,212.8c-0.7,0.1-1.3,0.2-2,0.3C535.9,213,536.5,212.9,537.2,212.8z"/>
		<path class="st0" d="M533.7,201.7c-0.3,0-0.5,0.1-0.8,0.1C533.1,201.8,533.4,201.8,533.7,201.7z"/>
		<path class="st0" d="M532.8,201.8c-0.5,0.1-1,0.2-1.5,0.2C531.8,202,532.3,201.9,532.8,201.8z"/>
		<path class="st0" d="M287.5,54c-5.5,2.3-11.3-0.9-27.7-16.2C244,23.5,223.4,12.6,200.1,6.6c-10.4-2.8-34.9-2.1-50.6,0.9
			c-10.4,2.3-38.8,16-46.4,22.6c-18.5,16.2-22.4,20.1-28.4,28C67.8,67,54.4,93.7,56.2,94.4c0,0.1,0.1,0.1,0.2,0.1c0,0,0.1,0,0.1,0
			c0,0,0,0,0,0c0.2,0.4-0.7,1.8-2,3.8c-5.1,6-5.8,52-1.2,67.7c3.1,10.4,4.4,16.2,2.9,21.2c0,0,0,0,0,0.1l-1.9-0.3l-4.9-12
			c-7.4-18.3-7.2-64,0.2-84.6c15.3-42.5,50.8-75.8,92.9-86.9c16.9-4.4,51.1-4.6,68.2-0.2c22,5.8,42.2,17.1,58.7,32.8l14.8,14.3
			l9-7.9c20.4-17.3,51.6-28.9,78.1-28.9c38.6,0,81.1,22.9,100.7,54.3c6.5,9.7,6.7,9.9,12.9,6.7c10.6-5.5,34.4-10.2,52.7-10.2
			c41.6,0,73.5,13.4,104.2,43.9c16.2,15.9,21.7,23.3,29.6,39.3C702.9,211.8,687,286,631.8,332c-27.7,22.9-62.2,34-101,32.4
			c-22.4-0.9-22.7-0.7-26.4,5.3c-5.3,9-22,25-33.7,32.6c-15,9.7-37,15.7-56.4,15.7c-15.9,0-38.8-4.9-44.6-9.7
			c-2.1-1.6-4.4,1.2-9,10.2c-9.7,19-34,41.8-55.5,52.2c-17.8,8.3-18.9,8.5-48.8,9.2h-1.3l-0.1-2.2c31.9-0.6,69.5-21.5,91.5-51.4
			c19.4-26.4,17.8-25,26.8-23.3c4.6,0.9,9,2.8,9.9,4.2c2.5,3.9,60.1,3.7,61.2-0.2c0.7-1.4,3-2.8,5.3-2.8s4.9-0.9,5.6-2.1
			c0.7-1.2,3.9-2.8,7.2-3.5c3.2-0.9,14.3-10.2,24.7-20.8c18.7-19,19.6-19.6,31.6-20.8c6.8-0.5,10-0.5,10,0.3c0,0,0,0,0,0
			c0,0.2-0.3,0.5-0.8,0.8c-0.4,0.3-0.6,0.6-0.6,0.8c-0.1,1,3.5,1.2,11.2,0.6c24.7-1.9,48.3-7.2,54.5-12.5c2.1-1.7,4.7-2.8,7.4-3
			c2,0,3.8-0.8,3.9-1.9c0-0.1,0-0.1,0-0.2c0-1.2,3.2-3.2,6.9-4.9c7.9-3.2,35.6-29.3,43.2-40.4c4.8-7.1,10.8-17.6,14.5-25
			c1.8-3.6,3-6.5,3.3-8c0.2-2.1,2.1-7.2,3.9-10.9c0.9-2,1.6-5.9,2.2-10.8c1.6-14.8,1.5-39.4-0.2-54.7c-0.6-5.5-1.4-9.8-2.5-12
			c-2.1-4.4-5.3-11.8-6.9-16.2c-2.2-5.8-5-11.3-8.3-16.6c-3-4.9-5.3-9.2-5.3-9.7c0-1.2-3.7-5.4-9-10.7c-0.2-0.2-0.5-0.5-0.7-0.7
			c-0.7-0.7-1.4-1.4-2.2-2.1c0,0,0,0,0,0c-0.7-0.7-1.5-1.4-2.3-2.2c-1.3-1.2-2.7-2.5-4.1-3.8c-1.1-1-2.2-1.9-3.3-2.9c0,0,0,0,0,0
			c-0.5-0.5-1.1-1-1.7-1.5c-0.3-0.2-0.6-0.5-0.9-0.8c-1.4-1.2-2.8-2.4-4.2-3.5c0,0,0,0,0,0c-4.7-3.9-9-7.2-12.2-9.2
			c-7.6-5.1-14.1-9.7-14.6-10.9c-0.3-0.6-1.5-1.2-3.1-1.4c0,0,0,0,0,0c-0.1,0-0.3-0.1-0.4-0.1c-0.6-0.1-1.2-0.1-1.8-0.1
			c-0.6,0-1.1-0.1-1.6-0.2c-1.6-0.3-2.7-1-2.7-1.7c0-1.3-4.1-2.7-10.5-4c-0.3-0.1-0.6-0.1-0.8-0.2c-11.8-2.3-30.6-4.2-45.3-4.1
			c-11.7,0.2-26.1,1.8-34.6,3.6c-0.9,0.2-1.7,0.4-2.4,0.6c-1.8,0.5-3.7,1-5.5,1.4c0,0,0,0,0,0c-2.5,0.6-4.9,1.1-6.9,1.5
			c-2.4,0.5-4.2,0.7-4.9,0.7c-0.1,0-0.1,0-0.2,0c-2.6-0.6-13.8-10-25.4-21.5c-12-11.6-25.4-22.9-29.8-25c-6-2.9-10.7-5-14.8-6.7
			c0,0,0,0,0,0c-1.4-0.6-2.6-1.1-3.9-1.5c0,0,0,0,0,0c-1.2-0.5-2.4-0.9-3.6-1.2c-6.6-2.1-12.1-2.9-20.4-3.5
			c-15.9-1.2-40.7,1.8-49.5,6c-13.4,6.5-21,11.1-29.1,17.3c-3.3,2.7-6.7,5.2-10.4,7.4C290.9,52.3,289.1,53,287.5,54z"/>
		<path class="st0" d="M528.2,358.1c0.5-0.3,0.7-0.6,0.8-0.8C529,357.5,528.8,357.8,528.2,358.1c-0.4,0.4-0.6,0.6-0.6,0.8
			C527.6,358.7,527.8,358.4,528.2,358.1z"/>
		<path class="st0" d="M531.3,202.1c-3.3,0.6-6.1,1.3-7.7,2.2c-1.8,1-3.5,2.3-5,3.9c1.5-1.6,3.1-2.9,4.9-3.9
			C525.1,203.4,527.9,202.7,531.3,202.1z"/>
		<path class="st0" d="M523.8,232.9c0,9.7,0.9,12.2,6.5,16.4c2,1.7,3.7,2.8,5.5,3.5c-1.9-0.7-3.6-1.8-5.6-3.5
			C524.7,245.2,523.8,242.6,523.8,232.9c-0.1-10.4,2.4-16.3,8.5-18.8C526.3,216.7,523.8,222.6,523.8,232.9z"/>
		<path class="st0" d="M518.6,208.2c-0.4,0.5-0.8,0.9-1.2,1.4C517.8,209.1,518.2,208.6,518.6,208.2z"/>
		<path class="st0" d="M515.3,212.6c0.2-0.4,0.5-0.8,0.8-1.2C515.8,211.8,515.5,212.2,515.3,212.6z"/>
		<path class="st0" d="M512.4,219c0.2-0.5,0.4-1,0.5-1.5C512.7,218,512.5,218.5,512.4,219z"/>
		<path class="st0" d="M511.6,221.7c-0.1,0.3-0.1,0.5-0.2,0.8C511.5,222.3,511.5,222,511.6,221.7z"/>
		<path class="st0" d="M511,224.7c-0.1,0.4-0.1,0.8-0.2,1.1C510.8,225.4,510.9,225.1,511,224.7z"/>
		<path class="st0" d="M510.4,237.1c-0.3-4-0.2-7.8,0.4-11.3C510.3,229.4,510.1,233.1,510.4,237.1c1,10.1,2.6,13.8,8.6,19.8
			c2.7,2.7,4.6,4.5,6.9,5.5c-2.2-1.1-4.2-2.8-6.9-5.5C513,251,511.3,247.3,510.4,237.1z"/>
		<path class="st1" d="M476.7,200.8c3.5,0,5.5,1.4,5.5,3.7c0,3.2,0.5,3.2,5.1,0c7.2-5.1,21.2-5.1,19.4,0c-0.7,1.9-1.2,3.8-1.4,5.8
			c0,1.2-3,2.1-6.5,2.1c-4.5,0-7.8,1-10.2,3.4c-1.1,1.1-2,2.6-2.7,4.4c-0.2,0.5-0.4,1-0.5,1.5c-1.5,4.7-2.1,11.5-2.1,21v20.6h-13.9
			l0.7-31.2l0.7-31.2H476.7z"/>
		<path class="st0" d="M488.7,215.8c-1.1,1.1-2,2.6-2.7,4.4C486.7,218.3,487.6,216.9,488.7,215.8z"/>
		<path class="st0" d="M486,220.1c-0.2,0.5-0.4,1-0.5,1.5C485.6,221.1,485.8,220.6,486,220.1z"/>
		<path class="st0" d="M459.1,235.2c0,1.1-0.1,2.2-0.2,3.3C459,237.4,459.1,236.3,459.1,235.2z"/>
		<path class="st0" d="M458.3,242.6c-0.1,0.7-0.3,1.4-0.4,2.1C458,244,458.2,243.3,458.3,242.6z"/>
		<path class="st0" d="M457.6,245.9c-0.2,0.8-0.4,1.5-0.7,2.3C457.1,247.4,457.4,246.7,457.6,245.9z"/>
		<path class="st0" d="M455,252.3c-2,3.7-4.6,6.7-7.9,8.8C450.4,259,453.1,256,455,252.3z"/>
		<path class="st0" d="M441.3,263.8c0.3-0.1,0.6-0.2,0.9-0.3C442,263.6,441.6,263.7,441.3,263.8z"/>
		<path class="st0" d="M445.3,234.1c0,13.2-5.1,20.8-13.9,20.8c-8.1,0-12.9-4.6-15-13.9c-1.6-7.6,0.5-20.3,3.9-25
			c1.4-1.4,5.8-2.8,10.2-2.8C440.4,213.4,445.3,220.3,445.3,234.1z M431.9,245.7c4.9,0,7.2-7.2,5.3-15.9c-1.6-7.4-6.5-10.6-9.9-6.5
			C420.8,231.6,423.6,245.7,431.9,245.7z"/>
		<path class="st1" d="M430,200.8c6.2,0,13.4,1.6,16.6,3.7c8.3,5.6,12.5,15,12.5,28.6c0,0.7,0,1.4,0,2.1c0,1.1-0.1,2.2-0.2,3.3
			c-0.1,1.4-0.3,2.8-0.6,4.1c-0.1,0.7-0.3,1.4-0.4,2.1c-0.1,0.4-0.2,0.8-0.3,1.2c-0.2,0.8-0.4,1.5-0.7,2.3c-0.5,1.5-1.1,2.8-1.8,4.1
			c-2,3.7-4.6,6.7-7.9,8.8c-1.5,1-3.1,1.8-4.8,2.4c-0.3,0.1-0.6,0.2-0.9,0.3c-0.2,0.1-0.4,0.1-0.5,0.2c-4,1.1-8.6,1.5-13.7,0.9
			c-25.2-2.8-34.7-37-15.2-56.4c2.6-2.6,4.6-4.4,6.7-5.5c1.1-0.6,2.2-1.1,3.5-1.4C424.1,201,426.6,200.8,430,200.8z M431.4,254.9
			c8.8,0,13.9-7.6,13.9-20.8c0-13.8-4.9-20.8-14.8-20.8c-4.4,0-8.8,1.4-10.2,2.8c-3.5,4.7-5.5,17.4-3.9,25
			C418.5,250.3,423.3,254.9,431.4,254.9z"/>
		<path class="st0" d="M446.7,204.5c8.3,5.5,12.5,15,12.5,28.7h0C459.1,219.5,455,210.1,446.7,204.5c-3.3-2.1-10.5-3.7-16.7-3.7
			c-3.4,0-5.9,0.2-8,0.7c2.2-0.6,4.7-0.7,8.1-0.7C436.3,200.8,443.5,202.4,446.7,204.5z"/>
		<path class="st0" d="M437.2,229.8c1.9,8.8-0.5,15.9-5.3,15.9c-8.3,0-11.1-14.1-4.6-22.4C430.7,219.1,435.6,222.4,437.2,229.8z"/>
		<path class="st0" d="M454.3,59.2c11.6,11.4,22.9,20.9,25.4,21.5C477.2,80.1,466,70.6,454.3,59.2c-12-11.6-25.5-22.9-29.8-25
			c-6-2.9-10.7-5-14.8-6.7c4.1,1.7,8.9,3.9,14.8,6.7C428.9,36.2,442.3,47.6,454.3,59.2z"/>
		<path class="st0" d="M411.8,208.4c-19.4,19.4-9.9,53.6,15.2,56.4c5.1,0.6,9.7,0.3,13.7-0.9c-4,1.2-8.6,1.5-13.8,0.9
			C401.8,262,392.4,227.8,411.8,208.4c2.6-2.6,4.6-4.4,6.7-5.5C416.5,204,414.5,205.8,411.8,208.4z"/>
		<path class="st1" d="M399.5,175.4c6,0,11.1,0.7,11.1,1.4c0,2.4-1.2,4.8-3.1,6.6c-0.4,0.4-0.8,0.7-1.2,1.1
			c-0.6,0.4-1.2,0.8-1.9,1.2c-0.3,0.2-0.7,0.3-1,0.5s-0.7,0.3-1,0.4c-1.1,0.3-2.2,0.5-3.3,0.5c-0.5,0-1.1,0-1.6,0.1
			c-2.8,0.3-5,1.3-6.6,2.9c-0.4,0.4-0.8,0.9-1.1,1.4c-2.1,4.2-2.7,6.7-1.5,8c1,1.1,3,1.4,6.3,1.4c0.5,0,0.9,0,1.3,0
			c0.5,0,1,0,1.5,0.1c0.4,0,0.8,0.1,1.2,0.1c0.3,0.1,0.5,0.1,0.7,0.2c0.2,0.1,0.4,0.2,0.6,0.2c0.1,0.1,0.2,0.1,0.3,0.2
			c0,0,0.1,0.1,0.1,0.1c0.8,0.7,0.9,2,0.5,4.1c-0.4,3.1-1.6,4.7-4.6,5.4c-0.2,0.1-0.5,0.1-0.8,0.2c-0.7,0.1-1.4,0.2-2.2,0.3
			c-0.2,0-0.3,0-0.5,0c-2.7,0.2-4.5,0.5-5.9,2c-0.3,0.3-0.5,0.6-0.8,1c-0.1,0.2-0.2,0.4-0.4,0.6c-2.3,4.3-3.9,13.8-7.5,36
			c-2.9,18-6.6,29.1-12.6,35.3c-4.4,4.5-9.9,6.3-17.2,6.3c-4,0-6.6-0.7-7.9-2.2c-1.3-1.5-1.1-3.7,0.5-6.6c0.4-0.8,0.9-1.5,1.4-2
			c1.6-1.6,3.8-2,6.7-1.5c3,0.6,5.3,0,7.4-2.4c0,0,0,0,0,0c0.2-0.2,0.3-0.4,0.5-0.6c0.1-0.1,0.2-0.2,0.2-0.3
			c0.2-0.2,0.3-0.5,0.5-0.7c0.2-0.4,0.5-0.8,0.7-1.2c0.2-0.4,0.4-0.9,0.7-1.4c0.2-0.3,0.3-0.7,0.4-1c0.2-0.4,0.3-0.7,0.4-1.1
			c0.1-0.4,0.3-0.8,0.4-1.2c0.1-0.4,0.3-0.9,0.4-1.3c0.2-0.7,0.4-1.4,0.6-2.1c0.3-1,0.6-2,0.9-3.2c1.3-5.3,2.7-12.2,4.2-20.8
			c4-23.1,5.2-29.2,3.8-30.7c-0.7-0.7-1.9-0.5-3.8-0.5c-1.5,0-2.5-0.5-3.2-1.2c-1.7-1.9-1.2-5.5,1-7.8c1-1.1,2.4-1.8,4.1-2.1
			c1.4-0.2,2.7-0.9,3.8-1.9c0.6-0.6,1.2-1.4,1.8-2.2c0.3-0.4,0.5-0.9,0.8-1.4c0.1-0.3,0.2-0.5,0.4-0.8c0.2-0.5,0.5-1.1,0.7-1.7
			c1.9-5.2,4.1-9.1,6.9-11.9c0.4-0.4,0.9-0.8,1.3-1.2C387.9,176.8,392.9,175.4,399.5,175.4z"/>
		<path class="st0" d="M407.5,183.4c-0.4,0.4-0.8,0.7-1.2,1.1C406.7,184.1,407.1,183.8,407.5,183.4z"/>
		<path class="st0" d="M405.7,25.9c1.2,0.5,2.5,1,3.9,1.5C408.3,26.9,407,26.4,405.7,25.9z"/>
		<path class="st0" d="M404.4,185.6c0.7-0.3,1.3-0.7,1.9-1.2C405.7,184.9,405.1,185.3,404.4,185.6z"/>
		<path class="st0" d="M402.4,186.4c0.4-0.1,0.7-0.2,1-0.4C403.1,186.2,402.7,186.4,402.4,186.4z"/>
		<path class="st0" d="M402.2,24.6c1.1,0.4,2.3,0.8,3.6,1.2C404.5,25.4,403.3,25,402.2,24.6z"/>
		<path class="st0" d="M400.2,201.7c0,0,0.1,0.1,0.1,0.1C400.3,201.7,400.3,201.7,400.2,201.7z"/>
		<path class="st0" d="M399.9,201.5c0.1,0.1,0.2,0.1,0.3,0.2C400.1,201.6,400,201.5,399.9,201.5z"/>
		<path class="st0" d="M399.3,201.2c0.2,0.1,0.4,0.1,0.6,0.2C399.8,201.4,399.5,201.3,399.3,201.2z"/>
		<path class="st0" d="M399.1,186.9c1.1,0,2.2-0.2,3.3-0.5C401.3,186.8,400.2,187,399.1,186.9c-0.5,0-1.1,0-1.6,0.1
			C398,187,398.5,186.9,399.1,186.9z"/>
		<path class="st0" d="M398.6,201.1c0.3,0,0.5,0.1,0.7,0.2C399.1,201.2,398.9,201.1,398.6,201.1z"/>
		<path class="st0" d="M398.6,201.1c-0.4-0.1-0.8-0.1-1.2-0.1C397.9,200.9,398.3,201,398.6,201.1z"/>
		<path class="st0" d="M396,200.8c0.5,0,1,0,1.5,0.1C397,200.9,396.5,200.9,396,200.8z"/>
		<path class="st0" d="M395.6,211.5c0.3,0,0.5-0.1,0.8-0.2C396.1,211.4,395.9,211.5,395.6,211.5z"/>
		<path class="st0" d="M396,200.8c-0.4,0-0.8,0-1.3,0c-3.3,0-5.4-0.4-6.3-1.4c1,1,3,1.4,6.3,1.4C395.1,200.8,395.6,200.8,396,200.8z
			"/>
		<path class="st0" d="M390.9,189.9c1.5-1.6,3.8-2.6,6.6-2.9C394.7,187.3,392.4,188.3,390.9,189.9z"/>
		<path class="st0" d="M393.3,211.9c-0.2,0-0.3,0-0.5,0.1c-2.7,0.2-4.5,0.5-5.9,2c1.4-1.6,3.3-1.8,5.9-2
			C393,211.9,393.2,211.9,393.3,211.9z"/>
		<path class="st0" d="M385.8,215.6c0.1-0.2,0.2-0.4,0.4-0.6C386,215.2,385.9,215.4,385.8,215.6z"/>
		<path class="st0" d="M384,180.1c-0.5,0.4-0.9,0.8-1.3,1.2C383.1,180.9,383.5,180.5,384,180.1z"/>
		<path class="st0" d="M375.1,194.9c0.2-0.5,0.5-1.1,0.7-1.7C375.5,193.8,375.3,194.4,375.1,194.9z"/>
		<path class="st0" d="M374,197.1c0.3-0.4,0.5-0.9,0.8-1.4C374.5,196.2,374.2,196.7,374,197.1z"/>
		<path class="st0" d="M366.5,212.4c1.8,0,3.1-0.2,3.8,0.5C369.5,212.1,368.3,212.4,366.5,212.4c-1.5,0-2.5-0.5-3.2-1.2
			C364,211.9,365,212.4,366.5,212.4z"/>
		<path class="st0" d="M368.3,201.3c1.4-0.2,2.7-0.9,3.8-1.9C371,200.4,369.8,201.1,368.3,201.3c-1.7,0.2-3.1,1-4.1,2.1
			C365.2,202.3,366.6,201.5,368.3,201.3z"/>
		<path class="st0" d="M361.7,225.8c0.5,5.3,0,9.7-1.1,9.7l0,0c-2.1-0.2-17.8-13.9-16.4-14.6c0.2-0.2,2.8-1.6,5.3-3.2
			C357.5,212.8,361,215.1,361.7,225.8z"/>
		<path class="st0" d="M362.3,264.4c-0.3,1.1-0.6,2.2-0.9,3.2C361.7,266.6,362,265.5,362.3,264.4z"/>
		<path class="st0" d="M360.8,269.7c-0.1,0.5-0.3,0.9-0.4,1.3C360.5,270.6,360.7,270.1,360.8,269.7z"/>
		<path class="st0" d="M360,272.2c-0.1,0.4-0.3,0.8-0.4,1.1C359.7,273,359.8,272.6,360,272.2z"/>
		<path class="st0" d="M359.1,274.4c-0.2,0.5-0.4,1-0.7,1.4C358.6,275.3,358.9,274.9,359.1,274.4z"/>
		<path class="st0" d="M357.7,277c-0.1,0.2-0.3,0.5-0.5,0.7C357.4,277.5,357.6,277.2,357.7,277z"/>
		<path class="st0" d="M357,278c-0.2,0.2-0.3,0.4-0.5,0.6C356.7,278.5,356.8,278.2,357,278z"/>
		<path class="st0" d="M348.5,293.2c7.3,0,12.9-1.8,17.2-6.3C361.3,291.4,355.8,293.2,348.5,293.2c-4,0-6.6-0.7-7.9-2.2
			C341.8,292.5,344.5,293.2,348.5,293.2z"/>
		<path class="st0" d="M349.1,281c3,0.6,5.3,0,7.4-2.3C354.5,281,352.1,281.6,349.1,281c-2.9-0.5-5.1-0.1-6.7,1.5
			C344,280.9,346.2,280.5,349.1,281z"/>
		<path class="st0" d="M343.9,214.8c0.3,0.1,0.6,0.1,0.8,0.2C344.5,215,344.2,214.9,343.9,214.8z"/>
		<path class="st1" d="M330.7,200.8c6.7,0,13.9,1.4,16.2,3c3,2.1,3.7,4.6,2.8,7.9c-1,3-1.6,4.1-4.9,3.4c-0.3-0.1-0.5-0.1-0.8-0.2
			c-0.2,0-0.3-0.1-0.5-0.1c-1.3-0.4-2.9-0.9-4.9-1.7c-5.8-2-11.8-2.1-15.8-0.8c-1,0.3-1.8,0.7-2.5,1.2c-1.3,0.9-2.1,2.1-2.1,3.6
			c0,3,8.3,8.1,19,11.6c16.4,5.1,20.3,18.7,9,30.3c-0.9,0.9-1.8,1.6-2.8,2.3c-1.9,1.4-4.1,2.5-6.4,3.2c-7,2.3-15.6,1.6-24.6-2.1
			c-8.3-3.5-9.2-5.1-6.7-11.6c0.4-1,0.7-1.7,1.2-2.1c0.1-0.1,0.2-0.1,0.3-0.2c1.1-0.5,2.9,0.3,6.8,2.3c6.3,3.3,14.3,3.8,19.4,2
			c1-0.4,2-0.8,2.7-1.3c1.3-0.9,2.2-2.1,2.4-3.5c0.5-3.9-1.6-5.8-13.2-9.9c-15-5.3-18.7-9.7-18.7-20.8c0-5.1,2.2-9.2,6.4-12
			c1.5-1.1,3.3-1.9,5.4-2.6C321.9,201.4,326,200.8,330.7,200.8z"/>
		<path class="st0" d="M330.7,200.8c6.7,0,13.9,1.4,16.2,3c3,2.1,3.7,4.6,2.8,7.9l-0.1,0c0.9-3.2,0.2-5.8-2.8-7.9
			C344.5,202.2,337.4,200.8,330.7,200.8c-4.7,0-8.8,0.6-12.2,1.8C321.9,201.4,326,200.8,330.7,200.8z"/>
		<path class="st0" d="M338.6,213c2,0.7,3.6,1.3,4.9,1.7C342.1,214.3,340.5,213.8,338.6,213c-5.9-2-11.8-2.1-15.8-0.8
			C326.7,210.9,332.7,211,338.6,213z"/>
		<path class="st0" d="M337.2,228.6c-10.7-3.5-19-8.6-19-11.6c0-1.5,0.8-2.7,2.1-3.6c-1.3,0.9-2.1,2.1-2.1,3.6
			C318.2,220,326.6,225.1,337.2,228.6c16.4,5.1,20.4,18.7,9,30.2c-0.9,0.9-1.8,1.7-2.8,2.4c1-0.7,1.9-1.5,2.8-2.3
			C357.5,247.3,353.6,233.6,337.2,228.6z"/>
		<path class="st0" d="M314.1,250.7c6.3,3.3,14.2,3.8,19.4,2C328.4,254.5,320.3,254,314.1,250.7c-3.9-2-5.7-2.8-6.8-2.3
			C308.4,247.9,310.2,248.7,314.1,250.7z"/>
		<path class="st0" d="M307.6,239c2.5,1.8,4.2,3.7,3.5,4.2c-0.5,0.2-3.9,2-7.4,3.9c-5.6,2.8-6.7,2.8-8.6,0c-1.4-2.3-0.7-4.6,1.9-7.4
			C301.8,234.8,302,234.8,307.6,239z"/>
		<path class="st0" d="M306.7,217.2c0,11.1,3.7,15.5,18.7,20.8c11.6,4.2,13.6,6,13.2,9.9c-0.2,1.4-1.1,2.6-2.4,3.5
			c1.3-0.9,2.1-2.1,2.4-3.5c0.5-3.9-1.6-5.8-13.2-9.9C310.4,232.7,306.7,228.3,306.7,217.2c0-5.1,2.2-9.2,6.4-12
			C309,208,306.7,212.1,306.7,217.2z"/>
		<path class="st0" d="M305.8,250.7c-2.5,6.5-1.6,8.1,6.7,11.6c9,3.7,17.6,4.4,24.6,2.1c-7,2.3-15.6,1.6-24.6-2.1
			C304.1,258.8,303.2,257.2,305.8,250.7c0.3-1,0.7-1.7,1.2-2.1C306.5,249,306.1,249.7,305.8,250.7z"/>
		<path class="st1" d="M297,226.5c0.1,1.2,0.1,2.4,0.1,3.4c0,0.4-0.1,0.8-0.1,1.2c-0.2,1.5-0.5,2.5-1.2,3.2
			c-0.1,0.1-0.1,0.1-0.2,0.2c-0.1,0.1-0.2,0.1-0.2,0.2c-0.4,0.2-0.8,0.4-1.4,0.6c-0.1,0-0.2,0.1-0.4,0.1c-0.1,0-0.3,0.1-0.5,0.1
			c-0.3,0-0.6,0.1-0.9,0.1c-2.9,0.4-7.8,0.3-16,0.1c-17.4-0.4-20-0.3-20.3,3.1c0,0.3-0.1,0.7-0.1,1.2c0,0.1,0,0.3,0,0.5
			c0.2,2.8,2.4,6.8,4.8,9.2c4.4,4.4,6.7,4.9,18.3,3.7c12-1.4,13.4-1.2,14.5,3.2c0.1,0.4,0.2,0.8,0.2,1.1c0,0.3,0,0.5,0,0.8
			c-0.4,4.5-7.6,7-19.8,7c-19.1,0-30.4-10.2-31.8-28.6c-0.1-1.2-0.1-2.4-0.1-3.7c0-2,0.1-3.9,0.3-5.6c1.7-17.4,11.5-26.5,28.9-26.7
			c6.2,0,11.6,1.6,15.5,4.6C291.8,209.7,296.2,218.9,297,226.5z M269.7,227.2c14.6,0,16.9-2.1,11.1-9.7c-4.2-5.1-11.4-6.7-16.9-3.7
			c-5.3,3-8.1,6.5-8.1,10.4C255.8,226.3,260.2,227.2,269.7,227.2z"/>
		<path class="st0" d="M296.9,231.1c0.1-0.4,0.1-0.8,0.1-1.2C297,230.3,297,230.8,296.9,231.1L296.9,231.1z"/>
		<path class="st0" d="M295.5,234.5c0.1-0.1,0.1-0.1,0.2-0.2C295.6,234.4,295.6,234.4,295.5,234.5z"/>
		<path class="st0" d="M295.2,234.7c0.1-0.1,0.2-0.1,0.2-0.2C295.4,234.6,295.3,234.6,295.2,234.7z"/>
		<path class="st0" d="M293.5,235.4c0.1,0,0.2-0.1,0.4-0.1C293.7,235.3,293.6,235.3,293.5,235.4z"/>
		<path class="st0" d="M292.1,235.6c0.3,0,0.6-0.1,0.9-0.1C292.8,235.5,292.4,235.6,292.1,235.6z"/>
		<path class="st0" d="M280.8,217.5c5.8,7.6,3.5,9.7-11.1,9.7c-9.5,0-13.9-0.9-13.9-3c0-3.9,2.8-7.4,8.1-10.4
			C269.4,210.8,276.6,212.4,280.8,217.5z"/>
		<path class="st0" d="M276.1,235.7c8.2,0.2,13,0.3,16-0.1C289.2,236,284.3,235.9,276.1,235.7c-17.3-0.3-19.9-0.2-20.3,3.1
			C256.2,235.4,258.7,235.3,276.1,235.7z"/>
		<path class="st0" d="M278.9,253.3c12-1.4,13.4-1.2,14.5,3.2c0.1,0.4,0.2,0.8,0.2,1.2c0-0.4-0.1-0.8-0.2-1.1
			C292.3,252.2,290.9,251.9,278.9,253.3c-11.6,1.2-13.9,0.8-18.3-3.6c-2.4-2.4-4.6-6.4-4.8-9.2c0.3,2.8,2.4,6.8,4.8,9.2
			C265,254,267.4,254.4,278.9,253.3z"/>
		<polygon class="st0" points="255.1,477.7 255.1,479.9 255.1,479.9 		"/>
		<path class="st0" d="M286.5,205.4c5.3,4.2,9.7,13.5,10.5,21C296.2,218.9,291.8,209.7,286.5,205.4c-3.9-2.9-9.2-4.6-15.5-4.6
			c-17.4,0.2-27.2,9.3-28.9,26.7c1.7-17.4,11.5-26.6,28.9-26.8C277.3,200.8,282.6,202.4,286.5,205.4z"/>
		<path class="st0" d="M242.1,236.9c1.4,18.4,12.7,28.6,31.8,28.6c12.2,0,19.4-2.5,19.8-7c-0.4,4.6-7.6,7.1-19.8,7.1
			C254.7,265.6,243.4,255.4,242.1,236.9z"/>
		<path class="st0" d="M410.6,176.8c0-0.7-5.1-1.4-11.1-1.4c-6.6,0-11.6,1.4-15.5,4.7c-0.5,0.4-0.9,0.8-1.3,1.2
			c-2.8,2.8-5,6.7-6.9,11.9c-0.2,0.6-0.4,1.2-0.7,1.7c-0.1,0.3-0.2,0.5-0.4,0.8c-0.2,0.5-0.5,1-0.8,1.4c-0.5,0.9-1.1,1.6-1.8,2.2
			c-1.1,1.1-2.4,1.7-3.8,1.9c-1.7,0.2-3.1,1-4.1,2.1c-2.2,2.3-2.7,5.9-1,7.8c0.7,0.8,1.8,1.3,3.2,1.3c1.8,0,3.1-0.2,3.8,0.5
			c1.4,1.6,0.2,7.6-3.8,30.7c-1.5,8.6-2.9,15.5-4.2,20.8c-0.3,1.1-0.6,2.2-0.9,3.2c-0.2,0.8-0.4,1.5-0.6,2.1
			c-0.1,0.5-0.3,0.9-0.4,1.3c-0.1,0.4-0.3,0.8-0.4,1.2c-0.2,0.4-0.3,0.8-0.4,1.1c-0.1,0.4-0.3,0.7-0.4,1c-0.2,0.5-0.4,1-0.7,1.4
			c-0.2,0.5-0.5,0.9-0.7,1.2c-0.2,0.2-0.3,0.5-0.5,0.7c-0.1,0.1-0.2,0.2-0.2,0.3c-0.2,0.2-0.3,0.4-0.5,0.6c0,0,0,0,0,0
			c-2,2.4-4.4,2.9-7.4,2.3c-3-0.5-5.1-0.1-6.7,1.5c-0.5,0.5-1,1.2-1.4,2c-1.6,2.9-1.8,5.1-0.5,6.6c1.3,1.4,3.9,2.2,7.9,2.2
			c7.3,0,12.9-1.9,17.2-6.3c6-6.1,9.7-17.2,12.6-35.3c3.6-22.2,5.2-31.8,7.5-36c0.1-0.2,0.2-0.4,0.4-0.6c0.2-0.4,0.5-0.7,0.8-1
			c1.4-1.6,3.3-1.8,5.9-2c0.2,0,0.3,0,0.5-0.1c0.8-0.1,1.6-0.2,2.2-0.3c0.3,0,0.5-0.1,0.8-0.2c3-0.8,4.2-2.3,4.6-5.4
			c0.3-2.1,0.3-3.4-0.5-4.1c0-0.1-0.1-0.1-0.1-0.1c-0.1-0.1-0.2-0.1-0.3-0.2c-0.2-0.1-0.4-0.2-0.6-0.2c-0.2-0.1-0.4-0.1-0.7-0.2
			c-0.4-0.1-0.8-0.1-1.2-0.1c-0.4,0-0.9-0.1-1.5-0.1c-0.4,0-0.8,0-1.3,0c-3.3,0-5.4-0.4-6.3-1.4c-1.2-1.4-0.6-3.9,1.5-8
			c0.3-0.5,0.7-1,1.1-1.4c1.5-1.6,3.8-2.6,6.6-2.9c0.5-0.1,1-0.1,1.6-0.1c1.1,0,2.2-0.2,3.3-0.5c0.4-0.1,0.7-0.2,1-0.4
			s0.7-0.3,1-0.5c0.7-0.3,1.3-0.7,1.9-1.2c0.4-0.3,0.8-0.7,1.2-1.1C409.4,181.6,410.6,179.2,410.6,176.8z M578.2,262.3
			c9,3.7,23.6,4.2,32.1,1.2c4.2-1.6,5.3-3.5,4.4-6.9c-1.2-4.2-2.5-4.6-14.3-3.5c-14.3,1.6-21.5-2.1-24.5-12.5
			c-1.6-5.3-1.6-5.3,20.1-4.8c0.8,0,1.6,0,2.4,0c0.7,0,1.4,0,2.1,0c0,0,0.1,0,0.1,0c4.2,0.1,7.3,0,9.8-0.1c0,0,0,0,0,0
			c0.7,0,1.3-0.1,1.9-0.1c1-0.1,1.9-0.2,2.6-0.4c0.2,0,0.4-0.1,0.5-0.1c1.9-0.5,2.6-1.4,2.8-2.6c0.5-2.3,0.1-5.5-0.7-8.9
			c-0.4-1.7-1-3.5-1.7-5.3c-0.3-0.9-0.7-1.8-1.1-2.6c-0.3-0.6-0.5-1.1-0.8-1.7c-0.1-0.3-0.3-0.5-0.4-0.8c-0.3-0.5-0.6-1.1-0.9-1.6
			c-0.2-0.2-0.3-0.5-0.5-0.7c-0.3-0.5-0.6-1-0.9-1.4c-0.1-0.2-0.3-0.4-0.5-0.7c-0.5-0.6-1-1.2-1.5-1.8c-0.5-0.5-1-1-1.5-1.4
			c-9.2-7.4-26.3-6.7-35.3,1.4C556,221.8,559.4,254.4,578.2,262.3z M338.6,248c-0.2,1.4-1.1,2.5-2.4,3.5c-0.8,0.5-1.7,1-2.7,1.3
			c-5.1,1.7-13.1,1.2-19.4-2c-3.9-2-5.8-2.8-6.8-2.3c-0.1,0-0.2,0.1-0.3,0.2c-0.5,0.4-0.9,1.1-1.2,2.1c-2.5,6.5-1.6,8.1,6.7,11.6
			c9,3.7,17.6,4.4,24.6,2.1c2.3-0.8,4.4-1.8,6.4-3.2c1-0.7,1.9-1.5,2.8-2.4c11.3-11.6,7.4-25.2-9-30.3c-10.6-3.5-19-8.6-19-11.6
			c0-1.4,0.8-2.6,2.1-3.6c0.7-0.5,1.5-0.9,2.5-1.2c3.9-1.3,9.9-1.2,15.7,0.8c2,0.7,3.6,1.3,4.9,1.6c0.2,0,0.3,0.1,0.5,0.1
			c0.3,0.1,0.6,0.2,0.8,0.2c3.3,0.7,3.9-0.3,4.9-3.4l0.1,0c0.9-3.2,0.2-5.8-2.8-7.9c-2.3-1.6-9.5-3-16.2-3c-4.7,0-8.8,0.6-12.2,1.8
			c-2,0.7-3.8,1.6-5.4,2.6c-4.2,2.8-6.4,6.9-6.4,12c0,11.1,3.7,15.5,18.7,20.8C337,242.2,339,244,338.6,248z M459.1,235.2
			c0-0.7,0-1.4,0-2.1h0c0-13.6-4.2-23.1-12.5-28.7c-3.2-2.1-10.4-3.7-16.6-3.7c-3.4,0-5.9,0.2-8.1,0.7c-1.2,0.3-2.4,0.8-3.5,1.4
			c-2.1,1.1-4.1,2.9-6.8,5.6c-19.4,19.4-9.9,53.6,15.2,56.4c5.2,0.6,9.8,0.3,13.8-0.9c0.2,0,0.4-0.1,0.5-0.2
			c0.3-0.1,0.6-0.2,0.9-0.3c1.7-0.6,3.4-1.4,4.8-2.4c3.3-2.1,6-5.1,7.9-8.8c0.7-1.3,1.3-2.7,1.8-4.1c0.3-0.7,0.5-1.5,0.7-2.3
			c0.1-0.4,0.2-0.8,0.3-1.2c0.2-0.7,0.3-1.4,0.4-2.1c0.2-1.3,0.4-2.7,0.6-4.1C459,237.4,459.1,236.3,459.1,235.2z M469.5,263.2h13.9
			v-20.6c0-9.5,0.6-16.3,2.1-21c0.2-0.5,0.4-1.1,0.5-1.5c0.7-1.8,1.6-3.2,2.7-4.4c2.4-2.4,5.7-3.4,10.2-3.4c3.5,0,6.5-0.9,6.5-2.1
			c0.2-2,0.7-3.9,1.4-5.8c1.8-5.1-12.2-5.1-19.4,0c-4.6,3.2-5.1,3.2-5.1,0c0-2.3-2.1-3.7-5.5-3.7h-5.8l-0.7,31.2L469.5,263.2z
			 M489.2,244.7c0,17.3-4.2,25.4-12.7,25.4c-3.5,0-7.2-2.3-9.2-5.6c-2.5-3.7-5.1-5.1-8.1-4.4c-2.5,0.7-4.6,2.1-4.6,3
			c0,3.5-12.2,6.9-24.5,6.9c-21.7,0-33-11.1-33.5-31.9c0-8.1-0.7-9.7-2.1-6.2c-1.9,4.6-2.5,3.9-5.1-5.5c-0.5-1.6-2.3,6.7-3.9,18.5
			c-4.6,33.3-9,44.1-19.9,49.4c-8.1,3.7-21.3,4.6-25.6,1.6c-6.7-4.2-3.5-18,5.1-21.3c3.4-1.6,6.2-4.2,8.1-7.4
			c2.8-5.1,2.8-5.1-3.2-1.2c-8.1,5.3-34.2,5.3-43.2,0.2c-6-3.7-6.7-3.7-11.8,0c-3.7,2.5-10.2,3.7-21.7,3.7
			c-14.1,0-17.3-0.9-26.6-7.2c-9.2-6.2-10.4-6.7-11.3-2.8c-0.4,2.2-1.4,4.4-2.9,6.1l-2-1.5v-89.4l1.9-1.1c2,3,2.6,8.1,2.6,16.6
			c0,12.9,0.5,14.6,4.4,14.6c2.5,0,5.3-1.2,6-2.5c2.8-4.2,13.4-7.4,26.1-7.6c10.4-0.2,13.4,0.7,20.3,6.2l7.9,6.7l6.9-6
			c9.5-7.9,23.6-9.7,37.9-4.9c9.2,3.2,12.2,3.5,16.6,0.9c3-1.6,5.5-4.1,5.5-6c0-1.6,1.2-3,2.3-3c1.4,0,2.3-1.4,2.3-3
			c0-4.2,11.6-14.8,17.3-16.2c10.2-2.3,17.6-1.4,22,3c6.2,6.2,5.8,8.8-2.5,16.9c-5.5,5.1-6.5,7.2-4.2,8.6c1.6,1.1,5.1,0.9,7.6-0.5
			c8.8-4.9,29.4-3.7,40,2.1c11.8,6.5,13.6,6.5,15.2,0.7c1.2-4.2,3.2-4.6,20.8-4.6c14.5,0,20.3,0.9,22.4,3.5c1.9,2.3,3.9,2.8,5.6,1.4
			c4.6-3.7,25.2-7.6,33-6c4.2,0.7,9,3,11.1,4.9c3,3,4.4,3.2,10.4,0.5c3.9-1.6,6.9-3.5,6.9-4.1c0-1.2,8.8-1.2,24.7-0.5
			c10.2,0.7,18.9,12.2,20.8,27.5c1.2,10.4,0.7,12-4.2,15.2c-4.6,3.2-4.8,4.4-2.5,9.7c4.2,8.8,3.5,16.9-1.6,19.6
			c-6.9,3.7-34.2,2.8-42-1.4c-6.5-3.2-7.6-3.2-12.5,0c-7.9,5.1-33,4.9-40.4-0.2c-7.6-5.3-11.3-10.2-11.5-15.3c0-2.1-0.9-3.9-2.3-3.9
			c-1.2,0-2.3-4.9-2.3-11.1c0-6-1.2-12.5-2.3-14.3c-2.1-3-3-2.5-6.9,2.3C490.4,228.3,489.2,233.4,489.2,244.7z M540.9,264.4
			c16.6,0,18.7-0.9,16.4-7.8c-1.1-4-2.6-4.6-10.2-3.6c-0.3,0-0.6,0.1-0.9,0.1c-0.3,0-0.5,0.1-0.8,0.1c0,0,0,0,0,0
			c-0.5,0.1-1,0.1-1.5,0.2c-3.4,0.4-5.9,0.2-8.1-0.5c-1.9-0.7-3.6-1.8-5.5-3.5c-5.5-4.2-6.5-6.7-6.5-16.4c0-10.4,2.5-16.3,8.5-18.8
			c0.9-0.4,1.9-0.7,2.9-0.9c0.6-0.1,1.3-0.2,2-0.3c1.7-0.2,3.5-0.3,5.6-0.3c0.4,0,0.8,0,1.1,0c3.2,0.2,5.5,0.3,7.3,0.1
			c3-0.3,4.2-1.5,5-3.8c0.9-2.5,1.4-5.3,0.7-6.5c-0.4-0.7-2-1.1-4.3-1.4c-4.7-0.5-12.4-0.2-18.9,0.7c-0.3,0-0.5,0.1-0.8,0.1
			c0,0,0,0,0,0c-0.5,0.1-1,0.2-1.5,0.2c0,0,0,0,0,0c-3.3,0.6-6.1,1.3-7.7,2.2c-1.8,1-3.5,2.3-4.9,3.9c0,0,0,0,0,0
			c-0.4,0.4-0.8,0.9-1.2,1.4c-0.5,0.6-0.9,1.2-1.4,1.9c-0.2,0.4-0.5,0.8-0.8,1.2c-0.9,1.5-1.7,3.1-2.3,4.9c-0.2,0.5-0.4,1-0.5,1.5
			c-0.3,0.9-0.6,1.8-0.8,2.7c-0.1,0.3-0.1,0.5-0.2,0.8c-0.2,0.7-0.3,1.4-0.4,2.1c-0.1,0.4-0.1,0.8-0.2,1.1
			c-0.5,3.6-0.7,7.4-0.4,11.3c0.9,10.2,2.5,13.9,8.6,19.9c2.7,2.7,4.7,4.4,6.9,5.5C529.1,264.1,533,264.4,540.9,264.4z M553.2,245.1
			c3.7-2.3,4.6-24.9,1.2-24.3c-1.6,0.5-2.8,0-2.8-1.2c0-3.5-11.1-1.4-15.7,3c-5.8,5.3-6.5,12.2-2.1,18.2
			C537,245.4,548.6,248,553.2,245.1z M360.5,235.5c1.1,0,1.6-4.4,1.1-9.7c-0.7-10.6-4.2-12.9-12.2-8.1c-2.5,1.6-5.1,3-5.3,3.2
			C342.7,221.6,358.4,235.2,360.5,235.5L360.5,235.5z M311,243.1c0.7-0.5-0.9-2.3-3.5-4.2c-5.5-4.2-5.8-4.2-10.6,0.7
			c-2.5,2.8-3.2,5.1-1.9,7.4c1.9,2.8,3,2.8,8.6,0C307.1,245.1,310.6,243.3,311,243.1z M297.1,229.9c0.1-1.1,0-2.2-0.1-3.4
			c-0.8-7.5-5.1-16.9-10.5-21c-3.9-3-9.2-4.6-15.5-4.6c-17.4,0.2-27.2,9.4-28.9,26.8c-0.2,1.8-0.3,3.7-0.3,5.6c0,1.3,0,2.5,0.1,3.7
			c1.3,18.4,12.7,28.6,31.8,28.6c12.3,0,19.5-2.5,19.8-7.1c0-0.2,0-0.5,0-0.8c0-0.4-0.1-0.8-0.2-1.2c-1.1-4.4-2.5-4.6-14.5-3.2
			c-11.6,1.2-13.9,0.7-18.3-3.7c-2.4-2.4-4.6-6.4-4.8-9.2c0-0.2,0-0.3,0-0.5c0-0.4,0-0.8,0.1-1.2c0.4-3.3,3-3.4,20.3-3
			c8.2,0.2,13,0.2,16-0.2c0.3,0,0.6-0.1,0.9-0.1c0.2,0,0.3-0.1,0.5-0.1c0.1,0,0.3-0.1,0.4-0.1c0.6-0.2,1-0.4,1.4-0.6
			c0.1-0.1,0.2-0.1,0.2-0.2c0.1-0.1,0.1-0.1,0.2-0.2c0.8-0.7,1-1.8,1.2-3.2v0.1C297,230.8,297,230.3,297.1,229.9z"/>
		<polygon class="st0" points="230.4,175.4 230.4,264.8 230.4,264.8 230.4,220 230.4,175.4 230.4,175.4 232.4,174.3 		"/>
		<polygon class="st1" points="230.4,220 230.4,264.8 216.5,264.8 216.5,175.4 230.4,175.4 230.4,175.4 		"/>
		<path class="st0" d="M204.7,253.9c0,0.2,0,0.5-0.1,0.7C204.7,254.4,204.7,254.1,204.7,253.9z"/>
		<path class="st0" d="M204.4,256.5c0-0.3,0.1-0.5,0.1-0.8C204.5,256,204.4,256.3,204.4,256.5z"/>
		<path class="st0" d="M204.2,257.5c0.1-0.2,0.1-0.5,0.2-0.7C204.3,257,204.2,257.2,204.2,257.5z"/>
		<path class="st0" d="M203.7,259c0-0.1,0.1-0.2,0.1-0.4C203.8,258.8,203.8,258.9,203.7,259z"/>
		<path class="st0" d="M191.1,236.5v9.2c0,9.2,0,9.2-9,9.2c-5.1,0-10.6-0.7-12.7-1.4c-4.4-1.6-5.1-13.9-0.7-15.5
			c1.4-0.8,7.2-1.4,12.7-1.4L191.1,236.5z"/>
		<path class="st0" d="M197.3,206.4c-5.3-4.4-9-5.5-19.6-5.5c-12.2,0.2-19.2,2-21.1,5.8c1.8-3.8,8.8-5.7,21.1-5.9
			C188.3,200.8,192,202,197.3,206.4c3.7,3.1,5.3,4.8,6.1,10.6C202.6,211.2,201,209.5,197.3,206.4z"/>
		<path class="st0" d="M157.3,231.7c5.1-5.1,13.4-8.2,23.7-7.3c5.7,0.3,8.4,0.2,9.5-0.9c-1.1,1.1-3.8,1.3-9.6,0.9
			C170.7,223.5,162.4,226.6,157.3,231.7z"/>
		<path class="st1" d="M163.2,214.7c-3.7,2.1-4.8,1.6-6.5-2.8c-0.6-1.5-0.7-2.8-0.5-3.9c0.1-0.4,0.2-0.9,0.4-1.3
			c1.9-3.8,8.9-5.7,21.1-5.8c10.6,0,14.3,1.1,19.6,5.5c3.7,3.1,5.3,4.8,6.1,10.6c0.6,3.9,0.8,9.8,1.1,19.4
			c0.2,7.8,0.5,13.5,0.2,17.5c0,0.2,0,0.5-0.1,0.7c0,0.4-0.1,0.8-0.1,1.1c0,0.3-0.1,0.6-0.1,0.8c0,0.1,0,0.1,0,0.2
			c-0.1,0.3-0.1,0.5-0.2,0.7c-0.1,0.4-0.2,0.8-0.3,1.1c-0.1,0.1-0.1,0.2-0.1,0.4c0,0,0,0,0,0c-2.2,5.6-8.3,5.3-23.7,5.3
			c-15.7,0-17.3-0.5-22.6-6.5c-6.4-7.5-6.9-15.8-3.2-22.2c0.8-1.4,1.9-2.8,3.1-4c5.1-5.1,13.4-8.1,23.6-7.2c5.8,0.3,8.5,0.2,9.6-0.9
			c0.1-0.1,0.3-0.3,0.3-0.5c0.2-0.4,0.3-0.9,0.3-1.4c-0.1-2.4-1.1-4.7-2.8-6.5C184.9,211.7,169.4,211.4,163.2,214.7z M191.1,245.8
			v-9.2l-9.7,0.2c-5.5,0-11.3,0.6-12.7,1.4c-4.4,1.6-3.7,13.9,0.7,15.5c2.1,0.7,7.6,1.4,12.7,1.4C191.1,255,191.1,255,191.1,245.8z"
			/>
		<path class="st0" d="M157.4,257.9c5.3,6,6.9,6.5,22.6,6.5c15.4,0,21.5,0.2,23.7-5.3c-2.2,5.6-8.3,5.4-23.7,5.4
			C164.3,264.4,162.7,263.9,157.4,257.9c-6.5-7.5-7-15.8-3.2-22.2C150.4,242.1,150.9,250.4,157.4,257.9z"/>
		<path class="st0" d="M156.7,211.9c1.6,4.4,2.8,4.8,6.5,2.8c6.2-3.2,21.7-3,25.2,0.5c1.7,1.8,2.6,4.1,2.8,6.5c0,0.6-0.1,1-0.3,1.4
			c0.2-0.4,0.3-0.8,0.3-1.4c-0.1-2.4-1.1-4.7-2.8-6.5c-3.5-3.5-18.9-3.7-25.2-0.5C159.4,216.8,158.3,216.3,156.7,211.9
			c-0.6-1.4-0.8-2.8-0.5-3.9C156,209.1,156.1,210.4,156.7,211.9z"/>
		<path class="st0" d="M155.7,218.4c0.7,2.1-0.7,5.5-3.5,8.5l-5.1,4.9l-5.8-5.6l-5.8-5.3l5.3-3C148.1,214,154.1,214,155.7,218.4z"/>
		<path class="st0" d="M138.5,233.7c0.5,0.4,0.9,0.8,1.3,1.2C139.4,234.5,138.9,234.1,138.5,233.7z"/>
		<path class="st0" d="M132.1,249.5c-0.1,0.2-0.3,0.4-0.5,0.6C131.8,249.9,132,249.7,132.1,249.5z"/>
		<path class="st0" d="M128.6,252.1c1.3-0.6,2.3-1.2,3-2C130.9,250.9,129.9,251.5,128.6,252.1z"/>
		<path class="st0" d="M127.6,252.5c0.3-0.1,0.7-0.3,1-0.4C128.3,252.2,128,252.4,127.6,252.5z"/>
		<path class="st0" d="M126,253c0.4-0.1,0.8-0.2,1.1-0.3C126.8,252.8,126.4,252.9,126,253z"/>
		<path class="st0" d="M124.2,253.4c0.4-0.1,0.8-0.2,1.2-0.3C125,253.2,124.6,253.3,124.2,253.4z"/>
		<path class="st0" d="M113.7,213.8c4.4-4.4,6.5-4.4,17.8-0.5c8.1,3,8.8,2.8,10.2-1.6c0.4-1.3,0.5-2.5,0.3-3.7
			c-0.1-0.6-0.3-1.2-0.6-1.7c-0.5-0.9-1.3-1.7-2.4-2.5c-2.3-1.6-9.7-3-16.4-3c-10.2,0-13.6,1.2-18,5.8c-6.4,6.3-7.4,13.7-4.1,19.8
			c0,0,0,0,0,0c0.4,0.7,0.8,1.3,1.2,2c0.8,1.1,1.7,2.1,2.8,3.1c0.8,0.8,1.8,1.5,2.8,2.2c0,0,0,0,0,0c0.5,0.3,1,0.7,1.6,1
			c0,0,0,0,0,0c2.2,1.2,4.8,2.3,7.6,3c4.8,1.4,10.9,3.9,13.4,5.8c0.5,0.4,1,0.7,1.3,1.1c1.8,1.8,2,3.6,0.9,5.1
			c-0.1,0.2-0.3,0.4-0.5,0.6c-0.7,0.8-1.8,1.4-3,2c-0.3,0.1-0.6,0.3-1,0.4c-0.2,0.1-0.3,0.1-0.5,0.2c-0.3,0.1-0.7,0.2-1.1,0.3
			c-0.2,0.1-0.4,0.1-0.6,0.1c-0.4,0.1-0.8,0.2-1.2,0.3c-2.4,0.5-5.1,0.6-7.9,0.4c-0.5-0.1-1.1-0.1-1.6-0.2c-0.6-0.1-1.1-0.2-1.7-0.3
			c-0.6-0.1-1.1-0.3-1.7-0.4c-0.6-0.2-1.1-0.3-1.6-0.6c-0.5-0.2-1-0.4-1.5-0.7s-1-0.5-1.5-0.8c-0.2-0.1-0.5-0.3-0.7-0.5
			c-6-4.2-6.2-4.2-8.3,3.2c-1.4,4.4-0.5,5.8,6.5,8.5c15,6.2,35.6,2.5,39.3-6.9c3.1-8.1,1.7-14.9-3.7-20.2c-0.4-0.4-0.9-0.8-1.3-1.2
			c-3-2.5-6.9-4.6-11.8-6.3c-6.8-2.2-11.2-4.2-13.4-6.3C110.8,218.8,111,216.4,113.7,213.8z M230.4,264.8l1.9,1.4
			c-4.4,5-11.9,5.5-16.9,1.1c-0.8-0.7-1.5-1.5-2.1-2.4c-2.1-2.8-3.7-4.1-3.7-2.8c0,8.8-43.4,11.3-53.8,3.2c-7.2-5.8-7.6-5.8-13.6,0
			c-7.4,6.7-35.6,6.7-44.4-0.2c-3.2-2.6-6-6.5-6-8.6c0.2-4.9,5.2-12,8.9-12c3.5,0,3.2-0.7-2.3-10.4c-5.6-9.2-5.3-26.1,0.5-31.9
			c9.2-9.2,30-10.4,43.2-2.5c6.9,3.9,7.6,3.9,14.1,0.2c9.5-5.5,25.6-7.4,35.8-3.9c4.6,1.4,8.3,3.5,8.3,4.6c0,0.9,2.5,2.3,5.8,2.8
			c5.5,1.2,5.8,0.9,5.8-12.9c0-15.7,2.3-19.9,11.6-19.9c4.3,0,7.1,0.9,8.9,3.5l-2,1.1h-13.8v89.4H230.4L230.4,264.8z M163.1,214.7
			c6.2-3.2,21.7-3,25.2,0.5c1.7,1.8,2.6,4.1,2.8,6.5c0,0.6-0.1,1-0.3,1.4c-0.1,0.2-0.2,0.3-0.3,0.5c-1.1,1.1-3.8,1.2-9.5,0.9
			c-10.2-0.9-18.6,2.2-23.7,7.3c-1.2,1.2-2.3,2.6-3.1,4c-3.8,6.4-3.3,14.7,3.2,22.2c5.3,6,6.9,6.5,22.6,6.5
			c15.5,0,21.5,0.2,23.7-5.4c0,0,0,0,0,0c0.1-0.1,0.1-0.2,0.1-0.4c0.1-0.4,0.2-0.7,0.3-1.1c0.1-0.2,0.1-0.5,0.2-0.7
			c0-0.1,0-0.1,0-0.2c0.1-0.3,0.1-0.5,0.1-0.8c0.1-0.4,0.1-0.7,0.1-1.1c0-0.2,0-0.4,0.1-0.7c0.3-4.1,0.1-9.7-0.2-17.5
			c-0.3-9.5-0.5-15.4-1.1-19.4c-0.8-5.8-2.4-7.5-6.1-10.6c-5.3-4.4-9-5.5-19.6-5.5c-12.3,0.2-19.3,2-21.1,5.9
			c-0.2,0.4-0.3,0.8-0.4,1.3c-0.2,1.2-0.1,2.5,0.5,4C158.3,216.3,159.4,216.8,163.1,214.7z M152.3,226.9c2.8-3,4.2-6.5,3.5-8.5
			c-1.6-4.4-7.6-4.4-14.8-0.5l-5.3,3l5.8,5.3l5.8,5.6L152.3,226.9z"/>
		<path class="st0" d="M116.5,237.6c4.8,1.4,10.9,3.9,13.4,5.8c0.5,0.4,1,0.8,1.3,1.1c-0.4-0.4-0.8-0.7-1.3-1.1
			C127.3,241.5,121.3,239,116.5,237.6c-2.8-0.7-5.4-1.8-7.6-3C111.1,235.8,113.6,236.8,116.5,237.6z"/>
		<path class="st0" d="M116.4,253.8c-0.5-0.1-1.1-0.1-1.6-0.2C115.3,253.6,115.8,253.7,116.4,253.8z"/>
		<path class="st0" d="M113.7,213.7c4.4-4.4,6.5-4.4,17.8-0.5c8.1,3,8.8,2.8,10.2-1.6c0.4-1.3,0.5-2.5,0.3-3.6
			c0.2,1.1,0.1,2.3-0.3,3.7c-1.4,4.4-2.1,4.6-10.2,1.6C120.2,209.4,118.1,209.4,113.7,213.7c-2.7,2.7-2.9,5.1-0.4,7.4
			C110.8,218.8,111,216.4,113.7,213.7z"/>
		<path class="st0" d="M111.4,252.8c0.6,0.2,1.1,0.3,1.7,0.4C112.5,253.1,111.9,253,111.4,252.8z"/>
		<path class="st0" d="M108.2,251.6c0.5,0.2,1,0.5,1.5,0.7C109.2,252,108.7,251.8,108.2,251.6z"/>
		<path class="st0" d="M108.8,234.6c-0.5-0.3-1.1-0.6-1.6-1C107.8,233.9,108.3,234.2,108.8,234.6z"/>
		<path class="st0" d="M106.8,250.7c0.5,0.3,1,0.6,1.5,0.8C107.7,251.3,107.2,251,106.8,250.7z"/>
		<path class="st0" d="M107.2,233.6c-1-0.7-2-1.4-2.8-2.2C105.3,232.2,106.2,232.9,107.2,233.6z"/>
		<path class="st0" d="M104.5,206.6c4.4-4.6,7.8-5.8,18-5.8c6.7,0,14.1,1.4,16.4,3c1.1,0.8,1.9,1.6,2.4,2.5
			c-0.5-0.9-1.3-1.7-2.4-2.5c-2.3-1.6-9.7-3-16.4-3C112.3,200.8,108.8,202,104.5,206.6c-6.4,6.3-7.4,13.7-4.1,19.8
			C97,220.2,98.1,212.8,104.5,206.6z"/>
		<path class="st1" d="M122.5,200.8c6.7,0,14.1,1.4,16.4,3c1.1,0.8,1.9,1.6,2.4,2.5c0.3,0.6,0.5,1.1,0.6,1.7
			c0.2,1.1,0.1,2.3-0.3,3.6c-1.4,4.4-2.1,4.6-10.2,1.6c-11.3-3.9-13.4-3.9-17.8,0.5c-2.7,2.7-2.9,5.1-0.4,7.4
			c2.2,2.1,6.6,4.1,13.4,6.3c4.9,1.7,8.8,3.8,11.8,6.3c0.5,0.4,0.9,0.8,1.3,1.2c5.4,5.3,6.8,12.2,3.7,20.2
			c-3.7,9.5-24.3,13.2-39.3,6.9c-6.9-2.8-7.8-4.2-6.5-8.5c2.1-7.4,2.3-7.4,8.3-3.2c0.2,0.2,0.5,0.3,0.7,0.5c0.5,0.3,1,0.6,1.5,0.8
			s1,0.5,1.5,0.7c0.5,0.2,1.1,0.4,1.6,0.6c0.6,0.2,1.1,0.3,1.7,0.4c0.6,0.1,1.1,0.2,1.7,0.3c0.5,0.1,1.1,0.1,1.6,0.2
			c2.7,0.2,5.4,0.1,7.9-0.4c0.4-0.1,0.8-0.2,1.2-0.3c0.2-0.1,0.4-0.1,0.6-0.1c0.4-0.1,0.8-0.2,1.1-0.3c0.2-0.1,0.4-0.1,0.5-0.2
			c0.3-0.1,0.7-0.3,1-0.4c1.3-0.6,2.3-1.2,3-2c0.2-0.2,0.3-0.4,0.5-0.6c1-1.5,0.9-3.2-0.9-5.1c-0.4-0.4-0.8-0.8-1.3-1.1
			c-2.5-1.8-8.6-4.4-13.4-5.8c-2.8-0.8-5.4-1.8-7.6-3c0,0,0,0,0,0c-0.5-0.3-1.1-0.6-1.6-1c0,0,0,0,0,0c-1-0.7-2-1.4-2.8-2.2
			c-1.1-1-2-2-2.8-3.1c-0.5-0.6-0.9-1.3-1.2-2c0,0,0,0,0,0c-3.3-6.1-2.3-13.5,4.1-19.8C108.8,202,112.3,200.8,122.5,200.8z"/>
		<path class="st0" d="M100.4,226.4c0.4,0.7,0.8,1.3,1.2,2C101.2,227.7,100.8,227.1,100.4,226.4z"/>
		<path class="st0" d="M292.8,51.9c3.7-2.2,7.1-4.7,10.4-7.4c8.1-6.2,15.7-10.9,29.1-17.3c8.8-4.2,33.5-7.2,49.5-6
			c8.3,0.7,13.9,1.4,20.4,3.5c-6.6-2.1-12.1-2.8-20.5-3.4c-15.9-1.1-40.7,1.9-49.5,6c-13.4,6.5-21,11.1-29.1,17.3
			C299.9,47.3,296.4,49.8,292.8,51.9c-1.9,0.5-3.7,1.2-5.3,2.2c-5.5,2.3-11.3-0.9-27.7-16.2C244,23.5,223.4,12.6,200.1,6.7
			c-10.4-2.8-34.9-2.1-50.6,0.9c-10.4,2.3-38.8,16-46.4,22.6c-18.5,16.2-22.4,20.1-28.4,28C67.9,66.8,55,92.6,56.2,94.4
			C54.4,93.7,67.8,67,74.6,58.2c6-7.9,9.9-11.8,28.4-28c7.6-6.7,36.1-20.3,46.4-22.6c15.7-3,40.2-3.7,50.6-0.9
			c23.3,6,43.9,16.9,59.6,31.2C276.1,53,281.9,56.3,287.5,54C289.1,53,290.9,52.3,292.8,51.9z"/>
		<path class="st0" d="M53.4,166.1c3.1,10.4,4.4,16.1,2.9,21.2h0l-0.1,0c0,0,0,0,0-0.1C57.7,182.2,56.4,176.4,53.4,166.1
			c-4.7-15.8-4-61.8,1.1-67.8c1.4-2,2.3-3.5,2-3.8c0.5,0.2-0.4,1.7-2,3.9C49.5,104.4,48.8,150.4,53.4,166.1z"/>
		<path class="st0" d="M15.9,301.3c0.1,1.2,0.2,2.3,0.4,3.5C16.2,303.6,16.1,302.5,15.9,301.3z"/>
		<path class="st0" d="M14.9,292.4c0.4,3,0.7,5.9,1,8.9C15.6,298.3,15.3,295.4,14.9,292.4z"/>
		<path class="st0" d="M14.5,288.8c0.2,1.2,0.3,2.4,0.5,3.5C14.8,291.1,14.6,290,14.5,288.8z"/>
		<path class="st0" d="M13.7,283.5c0.2,1.1,0.3,2.3,0.5,3.4C14.1,285.8,13.9,284.7,13.7,283.5z"/>
		<path class="st0" d="M15.4,237.6c2.5-3.5,4.6-7.2,4.6-7.9c0-2.1,12.7-16.4,26.1-29.1c5.6-5.5,8.8-9.2,10-13.4l0.1,0
			c-1.2,4.3-4.4,8-10.1,13.5c-13.4,12.7-26.1,27-26.1,29.1C20.1,230.6,18,234.2,15.4,237.6c-3.4,5.7-6.4,11.5-8.9,17.6
			c0,0,0,0,0-0.1c0,0,0-0.1-0.1,0C9,249.1,12,243.2,15.4,237.6z"/>
		<path class="st0" d="M249.6,477.6c1.8,0.1,3.7,0.1,5.5,0.1l0.1,2.2h0v0c-25.2,0.6-31.4,0.1-43.7-4c-28.2-9.5-55.4-32.8-69.1-58.9
			l-7.6-14.5l-16.4,1.1c-20.8,1.4-38.8-2.5-58.5-12.5c-29.8-14.8-57.5-51.5-59.6-79c-0.1-1.7,0.3-7.3,1-14.4l0.2,6.4l2.2-28.5l0-0.1
			c0.1-1,0.2-2,0.4-3l0.2-2.7c0.8-6.2,1.4-11.3,1.9-13.5c0.1-0.1,0.1-0.3,0.2-0.4c0-0.1,0.1-0.3,0.1-0.4c0,0,0,0,0,0
			c0.1-0.1,0.1-0.2,0.2-0.4c1.4,3.4,2.6,7.1,3.7,10.9c0,0.1,0.1,0.2,0.1,0.4c0.4,1.5,0.8,3.1,1.2,4.7c0.9,4,1.7,8.2,2.3,12.4
			c0.2,1.1,0.3,2.3,0.5,3.4c0.1,0.6,0.2,1.2,0.3,1.9c0.2,1.2,0.3,2.4,0.5,3.5c0,0,0,0,0,0.1c0.4,3,0.7,5.9,1,8.9c0,0,0,0,0,0.1
			c0.1,1.2,0.2,2.3,0.4,3.5c1.3,13.5,2.3,26.3,4.6,35.8c1.2,5,2.7,9.1,4.8,11.9c12.9,17.6,44.8,40,56.8,40c2.2,0,4.3,0.8,6,2.3
			c1.2,1.2,12.9,2.5,26.3,2.8l24.3,0.7l8.1,13.6c12.9,22,48.1,54.5,58.9,54.5c1.7,0,3.2,0.6,3.4,1.6c0,0.1,0,0.1,0,0.2
			c0,0,0,0,0,0.1C209.9,471.2,232.8,476.4,249.6,477.6z"/>
		<path class="st0" d="M332.2,27.2c8.8-4.1,33.5-7.1,49.5-6c8.4,0.6,13.9,1.4,20.5,3.4c1.1,0.4,2.3,0.8,3.6,1.2c0,0,0,0,0,0
			c1.2,0.5,2.5,1,3.9,1.5c0,0,0,0,0,0c4.1,1.7,8.8,3.9,14.8,6.7c4.4,2.1,17.8,13.4,29.8,25c11.7,11.5,22.9,21,25.5,21.5
			c0.1,0,0.1,0,0.2,0c0.8,0,2.5-0.3,4.9-0.7c2-0.4,4.4-0.9,6.9-1.5c0,0,0,0,0,0c1.8-0.4,3.7-0.9,5.6-1.4c0.7-0.2,1.5-0.4,2.4-0.6
			c8.5-1.8,22.8-3.4,34.6-3.6c14.6-0.2,33.5,1.8,45.3,4.1c0.3,0.1,0.6,0.1,0.8,0.2c6.4,1.3,10.5,2.8,10.5,4c0,0.7,1.2,1.4,2.8,1.7
			c0.5,0.1,1.1,0.2,1.6,0.2c0.6,0,1.3,0,1.8,0.1c0.1,0,0.3,0,0.4,0.1c0,0,0,0,0,0c1.5,0.3,2.7,0.8,3,1.4c0.5,1.2,6.9,5.8,14.6,10.9
			c3.2,2,7.5,5.4,12.2,9.2c0,0,0,0,0,0c1.4,1.1,2.8,2.3,4.2,3.5c0.3,0.3,0.6,0.5,0.9,0.8c0.5,0.5,1.1,1,1.7,1.5c0,0,0,0,0,0
			c1.1,1,2.2,2,3.3,2.9c1.4,1.3,2.8,2.6,4.1,3.8c0.8,0.7,1.5,1.5,2.3,2.2c0,0,0,0,0,0c0.7,0.7,1.5,1.4,2.2,2.1
			c0.2,0.2,0.5,0.5,0.7,0.7c5.3,5.2,8.9,9.4,8.9,10.7c0,0.5,2.3,4.9,5.3,9.7c3.3,5.3,6.1,10.8,8.3,16.6c1.6,4.4,4.8,11.8,6.9,16.2
			c1,2.2,1.8,6.5,2.5,11.9c1.7,15.3,1.8,39.9,0.2,54.7c-0.5,4.9-1.2,8.7-2.2,10.7c-1.8,3.7-3.7,8.8-3.9,10.9c-0.3,1.4-1.5,4.4-3.3,8
			c-3.7,7.4-9.6,17.9-14.5,25c-7.6,11.1-35.3,37.2-43.2,40.4c-3.7,1.6-6.9,3.7-6.9,4.9c0,0,0,0,0,0c0,0.1,0,0.1,0,0.2
			c-0.2,1-2,1.9-3.9,1.9c-2.7,0.2-5.3,1.3-7.4,3c-6.2,5.3-29.8,10.6-54.5,12.5c-7.6,0.5-11.1,0.4-11.2-0.6c0-0.2,0.2-0.5,0.6-0.8
			c0.5-0.4,0.8-0.6,0.8-0.9c0,0,0,0,0,0c0.1-0.8-3.1-0.9-10-0.3c-12,1.2-12.9,1.9-31.6,20.8c-10.4,10.6-21.5,19.9-24.7,20.8
			c-3.2,0.7-6.5,2.3-7.2,3.5s-3.2,2.1-5.6,2.1s-4.6,1.4-5.3,2.8c-1.2,3.9-58.7,4.2-61.2,0.2c-0.9-1.4-5.3-3.2-9.9-4.2
			c-9-1.6-7.4-3-26.8,23.3c-22,29.9-59.6,50.7-91.5,51.4c-1.9,0-3.7,0-5.5-0.1c-16.6-1.1-39.3-6.3-40-9.1c0,0,0,0,0-0.1
			c0-0.1,0-0.2,0-0.2c-0.1-1.1-1.7-1.7-3.4-1.7c-10.9,0-46-32.6-58.9-54.5l-8.1-13.6l-24.3-0.7c-13.4-0.2-25.2-1.6-26.3-2.8
			c-1.7-1.5-3.8-2.3-6-2.3c-12,0-43.9-22.4-56.8-40c-2.1-2.8-3.6-6.9-4.8-11.8c-2.2-9.5-3.2-22.3-4.6-35.8c-0.1-1.2-0.2-2.3-0.4-3.5
			c0,0,0,0,0-0.1c-0.3-3-0.6-5.9-1-8.9c0,0,0-0.1,0-0.1c-0.1-1.2-0.3-2.4-0.5-3.5c-0.1-0.6-0.2-1.2-0.3-1.9
			c-0.2-1.1-0.3-2.3-0.5-3.4c-0.7-4.2-1.4-8.3-2.3-12.4c-0.4-1.6-0.8-3.2-1.2-4.7c0-0.1-0.1-0.2-0.1-0.4c-1-3.8-2.3-7.5-3.7-10.9
			c0,0,0,0,0,0c0,0,0,0,0.1,0c0,0,0,0,0,0.1c2.6-6.1,5.6-11.9,9-17.5c2.5-3.5,4.6-7.2,4.6-7.9c0-2.1,12.7-16.4,26.1-29.1
			c5.6-5.5,8.8-9.2,10.1-13.5h0c1.5-5,0.2-10.8-2.9-21.2c-4.6-15.7-3.9-61.7,1.2-67.7c1.5-2.2,2.4-3.7,2-3.9c0,0,0,0,0,0
			c0-0.1-0.1-0.1-0.2-0.1c0,0-0.1,0-0.1,0C55,92.6,67.9,66.8,74.6,58.2c6-7.9,9.9-11.8,28.4-28c7.6-6.7,36.1-20.3,46.4-22.6
			c15.7-3,40.2-3.7,50.6-0.9c23.3,6,43.9,16.9,59.6,31.2c16.4,15.2,22.2,18.5,27.7,16.2c1.7-0.9,3.5-1.6,5.3-2.1
			c3.7-2.2,7.1-4.7,10.4-7.4C311.2,38.3,318.9,33.7,332.2,27.2z M618.4,238.5c4.9-3.2,5.3-4.9,4.2-15.2
			c-1.9-15.2-10.6-26.8-20.8-27.5c-16-0.7-24.7-0.7-24.7,0.5c0,0.7-3,2.5-6.9,4.1c-6,2.8-7.4,2.5-10.4-0.5
			c-2.1-1.9-6.9-4.2-11.1-4.9c-7.8-1.6-28.4,2.3-33,6c-1.6,1.4-3.7,0.9-5.6-1.4c-2.1-2.5-7.9-3.5-22.4-3.5
			c-17.6,0-19.6,0.5-20.8,4.6c-1.6,5.8-3.5,5.8-15.2-0.7c-10.6-5.8-31.2-6.9-40-2.1c-2.5,1.4-6,1.6-7.6,0.5
			c-2.3-1.4-1.4-3.5,4.2-8.6c8.3-8.1,8.8-10.6,2.5-16.9c-4.4-4.4-11.8-5.3-22-3c-5.8,1.4-17.3,12-17.3,16.2c0,1.6-0.9,3-2.3,3
			c-1.2,0-2.3,1.4-2.3,3c0,1.9-2.5,4.4-5.5,6c-4.4,2.6-7.4,2.3-16.6-0.9c-14.3-4.9-28.4-3-37.9,4.9l-6.9,6l-7.9-6.7
			c-6.9-5.5-9.9-6.5-20.3-6.2c-12.7,0.2-23.3,3.5-26.1,7.6c-0.7,1.4-3.5,2.5-6,2.5c-3.9,0-4.4-1.6-4.4-14.6c0-8.5-0.6-13.6-2.6-16.6
			c-1.8-2.6-4.6-3.5-8.9-3.5c-9.2,0-11.6,4.2-11.6,19.9c0,13.9-0.2,14.1-5.8,12.9c-3.2-0.5-5.8-1.8-5.8-2.8c0-1.2-3.7-3.2-8.3-4.6
			c-10.2-3.5-26.3-1.6-35.8,3.9c-6.5,3.7-7.2,3.7-14.1-0.2c-13.2-7.9-34-6.7-43.2,2.5c-5.8,5.8-6,22.7-0.5,31.9
			c5.5,9.7,5.8,10.4,2.3,10.4c-3.7,0-8.8,7.2-8.9,12c0,2.1,2.8,6,6,8.6c8.8,6.9,37,6.9,44.4,0.2c6-5.8,6.5-5.8,13.6,0
			c10.4,8.1,53.8,5.5,53.8-3.2c0-1.4,1.6,0,3.7,2.8c0.6,0.9,1.3,1.7,2.1,2.4c5,4.4,12.6,3.9,16.9-1.1l-1.9-1.4l2,1.5
			c1.5-1.7,2.5-3.8,2.9-6.1c0.9-3.9,2.1-3.4,11.3,2.8c9.2,6.2,12.5,7.2,26.6,7.2c11.5,0,18-1.2,21.7-3.7c5.1-3.7,5.8-3.7,11.8,0
			c9,5.1,35.1,5.1,43.2-0.2c6-3.9,6-3.9,3.2,1.2c-1.9,3.2-4.7,5.8-8.1,7.4c-8.5,3.3-11.8,17.1-5.1,21.3c4.4,3,17.6,2.1,25.6-1.6
			c10.9-5.3,15.2-16.2,19.9-49.4c1.6-11.8,3.5-20.1,3.9-18.5c2.5,9.5,3.2,10.2,5.1,5.5c1.4-3.5,2.1-1.9,2.1,6.2
			c0.5,20.8,11.8,31.9,33.5,31.9c12.2,0,24.5-3.5,24.5-6.9c0-0.9,2.1-2.3,4.6-3c3-0.7,5.6,0.7,8.1,4.4c2.1,3.2,5.8,5.6,9.2,5.6
			c8.5,0,12.7-8.1,12.7-25.4c0-11.3,1.2-16.4,4.6-20.8c3.9-4.9,4.9-5.3,6.9-2.3c1.1,1.8,2.3,8.3,2.3,14.3c0,6.2,1.1,11.1,2.3,11.1
			c1.4,0,2.3,1.8,2.3,3.9c0.2,5.1,3.9,9.9,11.5,15.3c7.4,5.1,32.6,5.3,40.4,0.2c4.9-3.2,6-3.2,12.5,0c7.8,4.2,35.1,5.1,42,1.4
			c5.1-2.8,5.8-10.9,1.6-19.6C613.5,242.9,613.8,241.7,618.4,238.5z"/>
		<path class="st0" d="M15.4,237.6c-3.4,5.6-6.4,11.4-9,17.5c0,0,0,0,0,0h0c-0.1-0.2-0.2,0.1-0.3,0.8c0.1-0.2,0.1-0.3,0.2-0.5
			c0,0,0,0.1,0,0.1c0,0,0,0,0,0c-0.1,0.1-0.1,0.2-0.2,0.4c0,0.1-0.1,0.2-0.1,0.4c-0.4,0.9-0.7,1.7-1.1,2.6l-0.8,10.9
			c-0.1,0.9-0.2,1.8-0.3,2.6C2.9,280.1,2,289,1.3,296.5l-1.1-33.8c2.1-22.7,28.2-62.2,48.3-72.6l5.9-3.2h0l1.9,0.3
			c-1.2,4.2-4.4,7.9-10,13.4c-13.4,12.7-26.1,27-26.1,29.1C20,230.5,18,234.2,15.4,237.6z"/>
		<path class="st0" d="M6.3,255.5c0-0.1,0.1-0.2,0.1-0.3c0,0,0,0,0,0.1C6.4,255.3,6.3,255.4,6.3,255.5z"/>
		<path class="st0" d="M6.4,255.2c0,0.1-0.1,0.2-0.1,0.3v0c-0.1,0.2-0.2,0.3-0.2,0.5C6.2,255.3,6.3,255,6.4,255.2L6.4,255.2z"/>
		<path class="st0" d="M6.1,256c0-0.1,0.1-0.2,0.2-0.4C6.2,255.7,6.2,255.9,6.1,256c0,0.1,0,0.3-0.1,0.4C6,256.2,6.1,256.1,6.1,256z
			"/>
		<path class="st0" d="M3.9,272.6c-0.1,1-0.2,2-0.4,3l0.2-3c0.1-0.9,0.2-1.8,0.3-2.6L3.9,272.6z"/>
		<path class="st0" d="M1.3,296.5c0.7-7.5,1.7-16.3,2.5-23.9l-0.2,3l0,0.1c-0.8,7.2-1.7,15.1-2.3,21.7L1.3,296.5z"/>
		<path class="st0" d="M3.6,275.6l-2.2,28.5l-0.2-6.8c0,0.1,0,0.2,0,0.3l0-0.4c0-0.3,0.1-0.6,0.1-0.9l0,0.9
			C1.9,290.7,2.8,282.8,3.6,275.6z"/>
		<path class="st0" d="M1.2,297.4l0.2,6.8l-0.2-6.4C1.2,297.6,1.2,297.5,1.2,297.4z"/>
	</g>
	<g>
	</g>
</g>
</svg>
