<?xml version="1.0" encoding="utf-8"?>
<!-- Generator: Adobe Illustrator 25.0.1, SVG Export Plug-In . SVG Version: 6.00 Build 0)  -->
<svg version="1.1" id="Layer_1" xmlns="http://www.w3.org/2000/svg" xmlns:xlink="http://www.w3.org/1999/xlink" x="0px" y="0px"
	 viewBox="0 0 997.1 464.3" style="enable-background:new 0 0 997.1 464.3;" xml:space="preserve">
<style type="text/css">
	.st0{fill:#7C7C7C;}
</style>
<path class="st0" d="M205.7,6c30.8,18.8,28.2,51-6,76.4c-6,4.4-30.2,17.8-53.6,29.8C67,152.8,31.1,181.6,14,219.2
	c-28.2,61-12.7,135.4,37.2,182c26.5,24.8,54,40.6,94.9,54.3c30.2,10.1,45.6,12.1,24.1,3.4c-14.4-6-23.5-18.8-23.5-33.2
	c0-25.1,18.8-42.9,74.1-71.1c54.3-27.1,88.1-48.6,108.3-68.7c66.7-65.7,56.7-177.7-21.5-236.3C284.1,32.1,252,15.7,222.5,6.6
	C194.3-2.1,192.6-2.1,205.7,6z M266,39.8c57.7,32.9,67.7,84.5,24.8,127.4c-19.1,19.1-42.2,33.5-113,70.1
	c-33.5,17.1-69.7,38.2-80.4,46.9c-35.2,28.5-47.9,61-36.9,94.2l5.4,15.1l-13-14.8c-33.2-36.5-44.9-95.2-28.5-141.5
	C37.8,199.4,69.6,171.9,143,134c28.8-15.1,59.7-32.9,69.1-39.9c19.8-15.1,31.9-34.5,31.9-52c0-6.7,1-12.4,2.7-12.4
	C247.9,29.8,256.7,34.1,266,39.8z"/>
<path class="st0" d="M500,119.9c-38.9,9.4-60.7,40.9-51.3,75.4c5.7,21.1,23.8,36.2,61.3,50.6c17.4,6.7,35.5,15.8,40.2,20.1
	c12.4,11.4,11.7,25.5-1.7,36.5c-15.1,12.7-41.9,12.4-68.7-1.3c-21.8-11.1-28.1-10.7-34.9,2c-6.4,11.4-2.4,17.4,20.1,29.5
	c21.8,11.7,60.7,15.8,85.8,8.7c30.2-8.7,52.3-40.2,46.9-68.1c-5-26.8-17.1-36.2-83.1-65.7c-25.5-11.4-32.9-21.1-27.5-36.5
	c7-20.8,38.9-25.5,73.4-10.7l16.8,7l7.7-8.7c9.7-11.4,8.4-18.1-5.4-27.1C561.4,118.9,525.8,113.9,500,119.9z"/>
<path class="st0" d="M678.4,120.6c-37.9,9.4-58.3,41.3-49.3,75.8c5.4,19.8,23.5,34.5,60.7,49.3c49.3,19.4,61,35.5,40.6,56
	c-8.7,8.7-12.4,9.7-29.8,9.7c-15.4,0-24.1-2.3-39.6-10c-10.7-5.5-21.5-10.1-23.8-10.1c-5.4,0-14.4,13.4-14.4,21.8
	c0,14.4,41.6,31.9,75.8,32.2c48.9,0.3,79.1-23.1,79.5-61.7c0.3-32.2-13.4-46.9-62.7-66.4c-44.2-17.4-55-29.2-45.9-48.6
	c8.4-19.1,39.9-22.1,73.1-7.4l15.8,7l7.7-9c9.4-10.7,9.7-16.1,2-22.8C751.1,121.6,705.9,113.6,678.4,120.6z"/>
<path class="st0" d="M871.8,123.3c-38.9,13.4-61,41.6-68.4,88.2c-8.7,54.6,19.5,109.3,66,126.4c28.5,10.7,64.4,9.7,90.2-2.4
	c25.1-12.1,30.8-18.1,26.5-29.8c-5.4-15.4-12.4-16.8-32.2-6c-35.5,19.8-78.8,11.1-100.6-20.1c-5.4-7.4-10.4-19.1-11.7-26.1l-2-12.4
	h73.8c89.2,0,87.2,1,81.5-35.5c-7-44.9-28.2-73.4-61.7-83.5C911.3,115.2,893.2,115.9,871.8,123.3z M930.1,156.1
	c13.1,6,26.1,23.8,29.5,40.2l2.3,11.1H840.3l2.3-7.7c5-16.1,7.7-21.1,16.1-30.2C876.1,150.8,907,145.1,930.1,156.1z"/>
</svg>
