<?xml version="1.0" encoding="utf-8"?>
<!-- Generator: Adobe Illustrator 25.0.1, SVG Export Plug-In . SVG Version: 6.00 Build 0)  -->
<svg version="1.1" id="Layer_1" xmlns="http://www.w3.org/2000/svg" xmlns:xlink="http://www.w3.org/1999/xlink" x="0px" y="0px"
	 viewBox="0 0 977 316.6" style="enable-background:new 0 0 977 316.6;" xml:space="preserve">
<style type="text/css">
	.st0{fill:#7C7C7C;}
</style>
<path class="st0" d="M952.1,4.8c-6.1,4.6-6.2,5.1-7.7,16c-1.2,9.7-1.9,11.7-4.6,12.9c-4.5,2-4.3,7.4,0.3,9.4l3.6,1.7v23.7
	c0,13,0.4,24.7,0.9,26c1.2,3,12.6,3.2,15,0.3c1.2-1.6,1.6-9.1,1.3-26c-0.2-13.1,0-24.4,0.6-24.9c0.4-0.6,3-1.2,5.6-1.4
	s5.2-1.2,5.9-1.9c2.5-2.5-0.2-5.9-4.3-5.9c-7.2,0-8.1-1.7-7.8-14.2c0.1-7.2,4.5-12.6,9.2-11.3c3.6,0.9,6.8-1.4,6.8-4.9
	S974,0,965.4,0C959.8,0,957.2,0.9,952.1,4.8z"/>
<path class="st0" d="M21,7.2C8.8,8.4,6.2,9,4.2,11.7C0.9,16,0,38.3,0,114.9c0,58.2,0.3,64.4,2.9,74.1c4.9,18.6,13.3,32.8,28,47.3
	c5.4,5.4,11.1,10.3,17.2,14.9c3.8,2.5,7.7,5.2,8.7,6.1c12.6,10.5,50.3,33.2,55.5,33.2c2.3,0,18.1-8.4,29.3-15.8
	c4.3-2.8,9.1-5.8,10.4-6.6c15.9-9.7,39.3-28.6,48.9-39.3c6.6-7.4,14-19.5,17.2-27.9c6.2-16.5,6.5-21.7,5.6-105.1
	c-0.7-89.3-0.3-86-10.7-87.7C204.2,6.5,37,5.9,21,7.2z M49.4,50.1c1.4,1.3,2.6,2.8,2.6,3.5c0,1,4.6,6.6,12.7,15.5
	c2.6,2.8,4.3,5.4,3.9,5.8s-1.6,0-2.5-0.9c-2.5-2.5-5.5-2.2-5.5,0.3c0,1.2,1.7,3.9,3.8,6.2s3,4.2,2,4.5c-2,0.7-5.8-2.5-5.8-4.9
	c-0.1-1.1-1-2-2.2-2c-1.4,0-2.2,1.4-2.2,4.2c0,2.3,0.9,4.5,2.2,5.1c2.6,1,2.9,6.6,0.4,6.6c-1-0.1-3.5-3.3-5.3-7.2s-4-6.8-4.8-6.4
	s-0.7,4.2-0.3,8.4c0.7,5.3,0.4,8.1-0.9,8.8c-2.6,1.6-4.3-2-4.3-8.8c0-7.9-4.2-12-9.4-9.2c-2,1-3.6,3.2-3.6,4.6
	c0.1,1.3-0.9,2.5-2.2,2.6c-3,0-2.8-2.9,0.6-6.4c1.6-1.9,2.9-4,3.8-6.4c0.9-3.2,0.7-3.2-2.3-1.4c-1.9,1-3.6,2.3-5.1,3.9
	c-1,1.2-1.9,1.4-2.5,0.6c-0.4-0.7,1.6-3.8,4.5-6.5c4.2-4.4,8.2-9,11.8-13.9c3.5-4.9,6.8-9,7.1-9C47.3,48.3,48.5,49.1,49.4,50.1
	L49.4,50.1z M118.5,53.6c2.9,4.3,6.2,8.4,9.8,12.1c3.3,3.5,6.1,6.6,6.1,7.1c0,1.9-4,0.7-4.9-1.4c-1-2.7-3.8-1.3-3.8,2.3
	c-0.1,1.5-0.9,2.8-2.2,3.5c-2.9,1-2.7,6.1,0.1,7.2c1.4,0.6,2,2.2,1.7,4.8c-0.6,4.8-3.2,4.8-3.9,0.1c-0.4-3.6-6.9-10.8-8.4-9.4
	c-0.4,0.6-0.1,2.6,0.7,4.6c2.8,5.9,2.2,10.8-1,10.8s-4.5-2.6-4.5-8.4c-0.1-3.6-4.3-10.4-6.4-10.4c-1.4,0-6.1,5.2-7.2,7.9
	c-0.7,2-1.3,2.3-2.6,1s-0.9-2.5,1.4-5.1c1.7-1.9,3.2-4.1,3.2-4.9c0.2-1.1,0.9-1.9,1.9-2.3c1.3-0.6,1.3-1,0-2.4
	c-1.4-1.6-2-1.4-2.8,0.4c-0.4,1.3-1.5,2.3-2.9,2.5c-1.2,0-2,0.6-2,1.4c0,0.7-1.2,1.4-2.5,1.4c-1.9,0-0.9-1.7,3.6-6.1
	c4.4-4.5,8.5-9.3,12.1-14.4c3.2-4.6,6.9-8.4,8.2-8.4S116.5,50.4,118.5,53.6L118.5,53.6z M181.8,52.5c1.1,2.3,5.5,7.7,9.8,12.1
	c7.7,7.7,9.2,11.7,3.3,7.9c-2.3-1.4-3-1.4-3.8,0.6c-0.5,1.6,0,3.3,1.4,4.2c1.5,1,2.5,2.5,2.5,3.3s1.2,1.9,2.5,2.3
	c1.6,0.7,1.9,1.4,0.9,2.4c-1.9,1.9-7.7-3.2-7.7-6.8c0-2.9-3.5-1.9-4,1.3c-0.3,1.3,0.6,3.5,1.7,4.8c3,2.9,3,9.2,0.1,9.2
	c-1.4,0-2.2-1.4-2.2-4.9c0-3.9-0.6-5.1-3.3-5.5c-3.3-0.6-3.5-0.3-2.8,6.1c0.4,5.4,0.1,6.9-1.7,7.7c-2.9,1.2-5.2-2.9-5.2-9
	c-0.2-2.9-1.4-5.7-3.3-7.9l-3.3-3.5l-3.2,3.6c-1.7,1.9-3.2,4.2-3.2,4.9s-1,1.3-2.2,1.3c-3.3,0-2.6-2.2,2.2-7.5
	c3.9-4.2,5.6-8.4,3.6-8.4c-1.6,0-7.2,3.8-8.4,5.5c-0.7,1-1.9,1.4-2.6,0.9c-0.9-0.4,1.3-3.6,4.8-6.9c7.1-6.6,14.6-16.2,16-20.1
	C175.3,46.2,179.5,47.7,181.8,52.5L181.8,52.5z M129,55.2c-2.2,2.2-3.8,0.6-2.6-2.6c0.7-1.9,1.3-2.2,2.6-0.9
	C130.3,53,130.2,53.9,129,55.2z M34.4,54.6c0.3,1-0.4,1.7-1.7,1.7c-1.3,0-2.3-1-2.3-2.2c0,0,0,0,0-0.1C30.3,51.6,33.5,52,34.4,54.6
	L34.4,54.6z M63.8,54.2c-0.1,2.2-3.5,1.7-4.2-0.4c-0.4-1.3,0.3-1.9,1.7-1.4C62.7,52.5,63.7,53.3,63.8,54.2L63.8,54.2z M99.8,54.3
	c0,2.5-3.2,2-4.1-0.6c-0.3-1,0.4-1.7,1.7-1.7C98.7,52,99.7,53.1,99.8,54.3C99.7,54.4,99.7,54.4,99.8,54.3L99.8,54.3z M164.8,54.2
	c0,1.2-1,2.2-2.2,2.2s-2.2-1-2.2-2.2s1-2.2,2.2-2.2l0,0C163.8,52.1,164.7,53,164.8,54.2L164.8,54.2z M195.1,54.2
	c0,1.2-1,2.2-2.2,2.2s-2.2-1-2.2-2.2s1-2.2,2.2-2.2l0,0C194.1,52.1,195.1,53,195.1,54.2L195.1,54.2z M131.2,80.8
	c1.9,2.6,2.6,4.6,1.7,5.2c-0.9,0.6-1.9-0.1-2.3-1.3c-0.4-1.3-1.6-2.2-2.9-2.3c-1.1,0-2-1.3-2-2.9C125.7,75.4,127.6,75.9,131.2,80.8z
	 M38.6,87.6c-1,6.1-2,7.5-3.8,5.5c-2-2.2-0.2-10.7,2.3-10.7C38.9,82.4,39.2,83.5,38.6,87.6L38.6,87.6z M103.8,87.7
	c-0.4,6.1-3,7.4-3.8,2.2c-0.6-4.2,0.6-7.5,2.6-7.5C103.6,82.4,104,84.6,103.8,87.7L103.8,87.7z M169.1,88.9c0,3.5-0.7,5.1-2.2,5.1
	c-2.2,0-3.2-7.2-1.2-9.1C168,82.7,169.1,84.1,169.1,88.9L169.1,88.9z M139.5,135.9c0.4,0.7,0.1,2.8-0.9,4.5c-1.2,2-1.2,4.5,0,6.5
	c1.2,2.5,1,4.5-0.1,7.1c-1.1,2.6-1.2,4,0.3,5.8c1.4,1.8,1.4,3,0,6.4c-2.5,6.1-0.7,7.8,6.5,6.9c3.3-0.6,6.6-0.3,7.5,0.6
	c0.9,0.9,3,0.7,5.9-0.3c3.5-1.1,5.2-1.1,6.6,0c1.4,1.1,3,1.2,5.8,0.1c2.6-1,4.8-1,6.6,0c1.7,1,3.9,1,6.5,0c2.6-1,4.8-1,6.5,0
	c1.7,1,3.9,1,6.5,0c2.6-1,4.8-1,6.5,0c1.9,1,4.1,1,6.6,0c5.4-2,6.9-0.1,6.6,8.2s-5.6,22.3-12.6,33c-3.8,5.8-5.1,6.6-9.7,5.6
	c-2-0.4-4.2-0.1-4.6,0.7s-2.8,0.9-6.1-0.1s-5.8-0.9-6.6,0s-3.2,0.9-6.4-0.1c-3.6-1-5.5-1-6.5,0c-1.2,1.2-2.9,1.2-5.8,0.1
	c-2.6-0.9-4.9-0.9-6.5,0s-4,0.9-6.8,0c-5.9-2.2-9.2,1.2-7.1,7.1c0.9,2.8,0.9,5.2,0,6.8s-0.9,3.9,0,6.5s0.9,4.9,0,6.5
	s-0.9,3.9,0.1,6.6c0.9,2.6,0.9,4.6,0,5.1c-0.7,0.6-0.9,3.3-0.4,6.5c1,6.1,2.5,4.8-15.5,14c-4.9,2.6-9.8,4.8-10.8,4.8
	s-5.9-2.3-11-5.2c-5-2.7-10.3-5.5-11.6-5.9c-2.9-0.9-2.9-1.5-3.2-33.7c-0.1-17.2-0.4-19.5-2.6-20c-1.7-0.2-3.5,0.1-5.1,0.9
	c-1.6,1-3.6,0.9-5.8-0.1c-2-1-4.5-1-6.5,0c-2.1,1-4.6,1-6.7,0c-1.9-1.1-4.3-1.1-6.2,0.1c-2,1.3-3.6,1.3-6.4,0
	c-2.2-1.1-4.7-1.2-6.9-0.1c-2.2,1-4.2,1.2-5.5,0.3c-1.2-0.7-4-0.9-6.7-0.4c-5.1,1-4.5,1.6-14-17.9c-2.9-5.8-5.2-11.7-5.2-13.3
	c-0.2-2.3-0.7-4.5-1.5-6.6c-2.9-7.4,1-11.9,8.1-9.2c2.6,1,4.5,1,5.8-0.1s3.2-1.1,6.5,0s5.2,1.2,6.5,0s3.2-1.1,6.1-0.1s5.1,0.9,6.7,0
	s3.8-1,6.2,0.1s4.3,1.2,6.5,0s3.9-1.1,6.5,0c1.9,1,4.1,1.1,6.1,0.3c1.3-0.7,5.2-1,8.5-0.6c5.9,0.9,6.1,0.7,6.1-3.6
	c0-2.5-0.7-4.9-1.6-5.5c-1.2-0.6-1.2-1.3,0-2.5c2-2,2-9.2,0.2-10.4c-0.9-0.6-0.7-1.9,0.3-3.6c1.4-2.2,1.4-3.9,0.2-7.1
	c-0.9-2.5-1.2-4.6-0.7-5.1C86.4,133.7,138.6,134.4,139.5,135.9L139.5,135.9z"/>
<path class="st0" d="M109.8,161c0,2.5-7.4,8.1-10.4,8.1c-1.2,0-4,2.3-6.4,5.1c-2.9,3.5-5.3,5.1-8.1,5.1c-4.9,0-5.5,3.9-1.2,7.7
	c2,1.7,2.9,4.2,2.9,8.2c0,3.6,1,7.1,3,10.1c2.4,3.2,2.9,5.2,2.2,9.1c-1.2,5.9,1,8.1,4.6,4.9c3.3-2.9,28.9-3,31.8-0.1
	c4,4.2,6.4,0.7,3.2-5.2c-1-2-0.4-3.9,2.9-8.5c3-4.2,4.3-7.5,4.3-11.6s0.9-6.1,3.2-7.7c3.8-2.5,2.4-5.5-2.3-5.5c-2.2,0-5.1-2-8.1-5.8
	c-2.6-3.2-5.8-5.8-7.1-5.8c-3-0.1-6.5-2.8-8.7-6.9C113.9,158.7,109.8,157.8,109.8,161z M116.3,191.5c0,5.1-4,6.5-8.7,3
	c-2.9-2-2.9-2,0-5.2C111.7,184.8,116.3,186,116.3,191.5L116.3,191.5z"/>
<path class="st0" d="M442.5,8.1c-5.4,3.8-3.5,12.4,3.2,14.2c4.9,1.3,10.7-1.3,12.7-5.6c1.4-3.2,1.1-4.2-1.7-7.2
	C452.8,5.2,447.3,4.8,442.5,8.1z"/>
<path class="st0" d="M704.8,8.4c-1.5,1.4-2.5,4.8-2.5,7.4c0,3.6,0.7,4.9,3.9,6.1c5.6,2,11.8,0.3,13.6-4c1.9-4.9,1.7-5.8-1.6-9.1
	C714.7,5.1,707.9,4.9,704.8,8.4z"/>
<path class="st0" d="M284.3,9.5c-1.6,1.7-1.2,51.5,0.6,63.4c1.4,9.5,2.3,11.4,7.1,16.3c6.4,6.2,15.6,9.4,27.3,9.4
	c16.9-0.3,29.5-9.1,32.1-22.4c1.6-9,1.9-64.8,0.1-66.5c-0.7-0.7-3.9-1.2-6.9-0.9l-5.6,0.4l-0.7,35c-0.7,34.5-0.7,35-4.2,38.6
	c-3.2,3.3-4.6,3.8-13.7,3.8c-10.7-0.1-14.7-1.9-17.5-7.9c-0.7-1.6-1.7-17.9-2.2-36.1l-0.7-33.3L292.6,9C288.6,8.7,284.9,9,284.3,9.5
	z"/>
<path class="st0" d="M743.9,23.4c-2.2,3.6-4.9,6.8-8.1,9.5c-5.3,3.9-5.8,7.1-1,9.1c3.3,1.6,3.5,2.2,4,22.1c0.4,11.1,1.6,22.4,2.5,25
	c3,7.7,15.5,11.1,28,7.5c4.5-1.2,5.5-2,5.1-4.6c-0.3-2.6-1.6-3.3-7.5-4c-10.3-1.1-11-2.7-11-24.7c0-17,0.2-18.5,3-19.9
	c1.9-1,4-1.5,6.1-1.4c8.1,0.7,9.7,0.1,9.7-3.6c0-3.3-0.6-3.6-6.7-3.6c-9.4,0-12.1-1.9-12.1-8.4C755.8,15.8,749.3,14.3,743.9,23.4z"
	/>
<path class="st0" d="M395.3,33.5c-2,0.8-4,1.7-5.9,2.8c-0.9,0.7-3.5,0.4-6.1-1c-2.9-1.3-6.1-1.9-9.2-1.7l-4.8,0.4v62.1l6.4,0.4
	c3.5,0.3,6.9-0.1,7.7-0.9s1.3-11,1.3-23.1c-0.1-12,0.1-23.4,0.7-25.4c0.9-3.5,1.5-3.8,9.1-3.8c12.6,0,13.1,1.1,13.1,27.9
	c0,12,0.6,22.8,1.3,23.9c0.7,1.3,3.6,1.7,8.2,1.4l7.1-0.4l0.4-25c0.3-23.1,0.1-25.4-2.6-29.9C417.1,33.4,405.4,29.9,395.3,33.5z"/>
<path class="st0" d="M552.2,34c-13.2,4.1-18.9,13.9-18.9,32.1c0,13,2.3,19.4,9.4,25.3c7.2,6.2,25.2,8.8,37.2,5.5
	c6.4-1.9,7.5-3.3,5.5-7.1c-1.3-2.5-2.5-2.8-8.5-2c-10.4,1.1-16.6-0.4-21.8-5.8c-3.8-3.9-4.3-5.5-4-10.4l0.4-5.8l17.3-0.3
	c9.5-0.1,18.2-0.3,19.2-0.4c2.9,0,2.2-12.4-1.3-19.2C580.2,33.5,567.7,29.2,552.2,34z M568.5,42.1c3.3,2.6,3.9,4,3.5,9.1l-0.4,5.9
	h-20.2l-0.4-5.2c-0.4-4.3,0.3-5.9,4-9.1C560.5,38.1,563.5,38,568.5,42.1L568.5,42.1z"/>
<path class="st0" d="M631.6,32.8c-1.2,0.4-4.2,1.7-6.8,2.9c-4.2,1.9-5.1,1.9-8-0.1c-4-2.9-12.1-3-13.7-0.3
	c-0.6,1.2-0.9,15.3-0.4,31.5l0.7,29.3h14.5l0.7-24.1c0.6-17.2,1.3-24.7,2.6-26s5.3-1.9,10-1.9c7.7,0,8.2-0.3,9.5-4.1
	c0.7-2.3,0.7-4.6,0.1-5.3C639,32.9,634,31.9,631.6,32.8z"/>
<path class="st0" d="M659.7,33.5c-8.7,3-14.6,11.6-13.2,18.6c1.3,6.8,5.1,11.1,14.5,16.8c12,7.1,15.2,10.1,14.3,13.6
	c-1.3,4.5-5.8,5.9-17.6,5.4c-10.8-0.4-11-0.4-11.4,3.3c-0.4,3.2,0.3,3.9,5.2,5.4c12.4,3.8,26.6,1.6,34-5.2c3.5-3.3,3.9-4.8,3.9-12.3
	s-0.4-9-4.5-12.7c-3.9-3.2-8.1-5.9-12.6-8.1c-5.8-2.9-8.5-5.2-9.7-8.2c-2.2-6.2,1.9-8.5,13.2-7.5c9.1,0.7,12.1-0.4,12.1-4.9
	S668.8,30.4,659.7,33.5z"/>
<path class="st0" d="M887.5,34.1c-13.2,4-20.4,15.8-20.4,32.7c0,11.1,3.2,19.4,9.8,25c5.5,4.8,17.9,8.5,24.3,7.4
	c21.3-4,30.4-18.1,27.3-42.1C926.2,37.9,908,27.6,887.5,34.1z M906.9,45.2c3.5,2.9,3.9,4.5,4.6,15.5c1,15.8-1,23.7-6.8,26.7
	c-5.1,2.6-7.4,2.7-12,0.6c-5.6-2.6-8.2-10-8.2-23.1c0-12,2.2-18.6,6.8-21.4S902.8,41.8,906.9,45.2z"/>
<path class="st0" d="M442.5,35c-1.9,1.9-2.6,55.1-0.9,59.5c1,2.7,12.1,3.2,14.8,0.6c1.3-1.3,1.7-10,1.7-30.4
	c0-26.7-0.1-28.6-2.8-30.1C451.6,32.7,444.7,32.8,442.5,35z"/>
<path class="st0" d="M468.8,35.4c-1.1,2.7-0.3,6.6,3.8,16.6c1.7,4,3.1,8.1,4.4,12.3c2,6.9,5.6,17.2,7.2,19.8
	c0.9,1.6,1.4,3.5,1.4,5.4c0,4.8,4,7.4,11.4,7.4c7.1,0,9.1-1.3,10.7-6.5c0.9-3,3.2-9.1,8.4-22.4c1.6-4.3,3.3-9.5,3.8-11.6
	c0.6-2.3,1.5-4.5,2.8-6.5c1.2-1.7,1.9-3.7,2-5.8c0-1.7,0.5-3.3,1.6-4.6c2.5-2.5,0.4-6.2-3.3-6.2c-6.1,0-9.7,1.7-10.5,4.9
	c-1.9,7.2-5.6,19.4-7.4,24.4c-1.1,2.9-1.8,6-2,9.1c0,3.8-3.6,6.2-5.9,3.9c-0.7-0.7-2.2-4.5-3.3-8.5c-1.2-3.9-3-10.7-4.3-15
	s-2.9-9.5-3.3-11.6c-0.4-2.1-1.5-4-3-5.5C479.7,32.5,469.8,32.7,468.8,35.4z"/>
<path class="st0" d="M704.1,35c-2,2-2.5,56.9-0.4,60.1c0.7,1.3,3.6,1.7,8.2,1.4l7.1-0.4V34l-6.5-0.4C708.7,33.2,705.3,33.8,704.1,35
	z"/>
<path class="st0" d="M781.4,35c-0.3,1,0.3,3.8,1.3,6.2c0.9,2.3,2.9,7.2,4.2,10.8c1.3,3.6,2.8,7.1,4.5,10.6c1,1.8,1.6,3.7,2,5.6
	c0.4,2.1,1.1,4.1,2,5.9c2.2,5.1,5.3,13.1,8.5,22c1.9,5.1,1.9,6.2-0.3,10.8c-3.5,7.5-7.2,10.3-12.7,9.5c-4-0.6-4.9-0.1-5.6,2.7
	c-1.3,5.2,0.3,6.5,8.4,6.5c13.4,0,18.1-5.1,26.4-28.9c1.3-3.6,2.9-8.5,3.6-10.8c1.2-4.2,2.7-8.3,4.3-12.3c1.7-4.3,3.5-9.2,3.9-10.8
	c0.5-2,1.1-3.9,2-5.8c3-6.9,5.9-16.2,6.2-19.5s-0.6-3.6-5.2-4.1c-6.2-0.6-9,2.6-11.1,12.9c-2.2,9.7-7.4,27.5-9,30.6
	c-2,3.6-3,2.2-6.2-8.4c-1.5-4.8-3.5-11.3-4.5-14.4s-2.2-7.8-2.8-10.2c-1.9-8.5-4.5-10.8-12.1-10.8C784.8,33.2,781.9,34,781.4,35z"/>
<path class="st0" d="M667.2,126.8c-0.6,0.4-1,11.9-1,25.3c0,27-0.3,27.8-9.1,24.1c-6.8-2.9-22.1-2.3-30.2,1.3
	c-18.2,8.1-28.6,25.9-28.6,49.6c0,19.2,6.7,34.3,18.8,42.5c6.1,4,7.4,4.3,20.2,4.3c13.2,0,14-0.3,20.7-4.8c7.4-5.2,9.7-5.1,9.7,0.6
	c0,3.5,0.1,3.5,13,3.5h13V125.7H681C673.9,125.7,667.7,126.2,667.2,126.8z M664.7,189.9c1.2,1.3,1.6,11.4,1.3,33.5l-0.4,31.6
	l-5.8,1.9c-7.4,2.5-19.1,0.3-23.1-4.5c-6.8-7.8-8.2-12.7-8.2-28.6c0-12.4,0.6-16.3,2.9-21c5.3-10.4,12.4-14.7,24.3-14.9
	C660.2,187.9,663.6,188.6,664.7,189.9z"/>
<path class="st0" d="M724.8,133.2c-4.8,2.4-7.8,7.3-7.8,12.7c0,11.6,13.7,18.3,24.4,12c6.1-3.5,9.7-10.8,7.8-15.9
	C746.3,133.8,732.7,128.9,724.8,133.2z"/>
<path class="st0" d="M285.6,140c-1.4,2.3-1.1,130.5,0.3,132c0.7,0.7,6.8,1.2,13.4,0.9l12.1-0.4l0.7-26.7c0.7-26.2,0.7-26.7,3.9-27.2
	c3.9-0.6,9.7,6.6,35.8,44.8l6.8,9.8h15.8c12.6,0,15.8-0.4,15.8-2c0.1-1-0.4-2-1.3-2.6c-2-0.7-39.2-50.6-39.2-52.6
	c0-1,2.9-3.2,6.5-4.9c12.4-6.1,21-20.8,21-36.3c0-14.3-7.5-25.7-21.4-32.1c-6.2-2.7-9.7-3.2-38-3.6C297.4,138.7,286.1,139,285.6,140
	z M336.7,155.4c9.1,5.8,10.8,9.5,10.8,24c0,11.9-0.3,12.9-4.5,18.2c-5.4,6.5-12.7,9.4-23,8.8l-7.2-0.4l-0.4-27.2l-0.3-27h9.4
	C329.2,151.8,332.1,152.5,336.7,155.4z"/>
<path class="st0" d="M423.6,176.5c-11,3.5-21.1,12.7-26.2,23.9c-2.8,6.1-3.2,9.5-3.3,24.4s0.4,18.4,3.2,24.3
	c4.5,9.3,12.1,16.8,21.4,21.4c6.2,2.9,9.1,3.3,29.5,3.3c19.1,0,23.1-0.4,26.4-2.5c3.5-2.3,3.8-3.2,2.9-8c-1.3-6.9-2.8-7.7-9.7-5.2
	c-18.1,6.3-39.9-2.9-44.4-18.9c-3-11.1-3.6-10.8,27.5-10.8c16.3,0,28.8-0.6,30.5-1.4c3.3-1.9,3.5-5.6,0.9-19.5
	c-3.5-17.9-10-26-24.4-30.9C446.7,172.7,435.6,172.7,423.6,176.5z M450.9,190.1c2.3,2.5,3.8,6.2,4.5,11.9
	c1.7,12.7,0.9,13.4-15.3,13.4c-7.4,0-14.5-0.4-15.8-0.9c-4.6-1.7-2-18.2,3.9-24.9c2.5-2.6,4.5-3.2,11.1-3.2S448,187,450.9,190.1z"/>
<path class="st0" d="M516.7,176.2c-10.7,2.6-10.6,2.3-8.7,11.3c0.7,3,1.3,3.2,18.8,2.9c16.9-0.3,18.1-0.1,21.2,3
	c2.8,2.8,3.3,4.8,3.3,13v9.7l-17.3,0.7c-18.6,0.9-24.9,2.8-30.9,9.2c-11.9,12.7-8.7,36.1,6.1,45.1c3.6,2,7.4,2.8,16.9,2.8
	c10.8,0,13.2-0.6,18.9-4c8.1-4.8,10-4.9,9.5-0.7c-0.3,3.2,0.1,3.3,12.7,3.3h13v-37.5c-0.1-36-0.3-37.9-3.3-44.2
	c-3.8-7.7-8.4-11.4-18.2-14.7C549.5,172.7,530.1,172.8,516.7,176.2z M551.4,243.5v15.9l-9.4,0.4c-8.2,0.3-10.1,0-13.4-2.9
	c-3.5-3-3.9-4.5-3.9-12c0.1-13.1,5.6-18.2,19.5-17.6l7.2,0.3L551.4,243.5z"/>
<path class="st0" d="M816.1,176.3c-3.8,1.6-7.5,3.6-11,5.9c-4.3,3.2-7.8,2.8-6.5-0.7c1.5-3.8-3.3-5.4-14.9-4.9l-11.3,0.4l-0.4,48.1
	l-0.3,48.1l14-0.4l14.2-0.5l0.7-39.5c0.6-33,1-39.6,2.9-40.8c1.2-0.7,6.1-1.4,10.8-1.4c6.9,0,9.5,0.7,12.9,3.3
	c5.6,4.5,6.6,12.3,6.6,47.3c-0.1,15.5-0.1,29.1,0,30.1c0,1.5,3.3,1.7,14.2,1.5l14-0.4v-37.5c0-40.5-0.4-43.8-7.8-51.7
	c-5.5-6.1-11.4-8.5-21.8-9.1C825.4,173.6,821.3,174.2,816.1,176.3z"/>
<path class="st0" d="M904.7,176c-10.4,3.5-15.3,6.8-20.4,13.9c-3.8,5.1-4.2,6.8-4.2,16.5c0,8.7,0.6,11.9,3.2,16
	c4.2,6.6,8.1,10.1,13.2,11.1c6.4,1.4,6.2,3.3-1,9.8c-6.8,6.2-7.5,8.5-6.8,18.9c0.1,2.3,1.3,5,2.5,5.9c1.3,1.2,2,2.9,2,4.6
	c0,2.3-1.3,3.5-5.5,4.6c-3.4,0.9-6.6,2.7-9.1,5.2c-2.9,3-3.5,5.2-3.5,12.3s0.7,9.1,4,12.6c6.7,6.9,15.2,9,37,9.1
	c18.5,0,28.8-1.7,36.3-6.1c1.7-1,3.4-1.8,5.2-2.6c1.7-0.7,5.2-3.9,7.8-6.9c12-14.2,11.3-34.1-1.5-41.6c-4.3-2.5-8.4-3-27.3-3.6
	c-22-0.7-22.3-0.7-25.2-4.5c-2.2-3.2-2.5-4.8-1.4-8c1.3-4.2,1.6-4.2,15-5c18.9-1.2,28.9-6.1,34.5-17.4c3.5-6.8,3.8-18.2,0.6-22.7
	c-3.9-5.8-2.2-8.1,6.6-9l8-0.7V177l-20.2-0.9c-11.1-0.6-25.2-1.3-31.1-1.9C915.1,173.6,911,174,904.7,176z M933,190.4
	c4.9,5.9,5.3,25.6,0.7,31.6c-5.8,7.8-18.8,7.4-24.7-0.9c-4-5.8-4.2-23.4,0-29.6C914.1,183.7,927.1,183.1,933,190.4z M947.5,279.3
	c2.3,2.3,3.2,12.6,1.3,15.6c-0.6,0.9-3.5,3.2-6.7,5.1c-4.9,3.2-7.2,3.6-19.8,3.6c-14.5,0-18.3-1.2-23-7.2
	c-4.2-5.2-0.9-16.5,5.3-19.2c1.2-0.6,10.7-0.7,21.2-0.6C941.6,276.8,945.5,277.2,947.5,279.3L947.5,279.3z"/>
<path class="st0" d="M720.7,177.3c-0.6,0.4-1,22.2-1,48.4v47.5l13.4-0.4l13.3-0.4l0.4-44.8c0.2-24.7,0-46.2-0.4-48.1
	c-0.7-3-1.6-3.2-12.9-3.2C727.1,176.3,721.2,176.7,720.7,177.3z"/>
</svg>
