<svg id="Layer_1" data-name="Layer 1" xmlns="http://www.w3.org/2000/svg" viewBox="0 0 438.08 454.86"><defs><style>.cls-1,.cls-2{fill:#1f325a;}.cls-2{stroke:#010101;stroke-linecap:round;stroke-linejoin:round;stroke-width:0.03px;}</style></defs><path class="cls-1" d="M293.79,300.46c29.36-137.75,210.45-147.68,184.29-10.3-7.05,38.22-40,79.34-45.43,57.12-9.2-38.79-22.13-53.4-50-58.31-46.2-7.81-93.3,33.71-57,50.12,9.08,3.84,16.36,11.25,16.46,16.42-.05,6.82-3.16,6.89-12,1.08-14.06-9.84-19.84,1-12.11,23.62,4.85,14.17,5.47,14.37,22.61,3.25,23.67-15.59,38.68,0,29.29,30.3-11.23,36.23-48.44,22.65-68.28-24.94-21.43-51.15-38.5-51.31-19.75-.3,6.93,19.61,6.9,33-.74,57.62-11.53,37.17-17.3,38.11-31.24,4.69-9.36-21.72-9.68-37.23-1.62-80.94,4.19-22.32-9.41-20.39-14.31,2.06-11.89,54.87-57.37,85.61-75.68,50.82-15.74-29.86,14.49-63.29,31.54-34.37,9.43,15.93,24.23,1.35,24.21-24-.18-13.74-.8-13.94-15.56-7.21-12.81,5.95-14.78,5.69-12.25-2.43,1.65-5.31,8.43-11.78,14.79-14.58,17.23-7,16.89-13.61-.87-31.44C165,274.21,106,292.22,96.58,340.3c-6,31.37-7.09,31.69-28.6,7.23C32.05,306.61,34.7,230.74,73.22,209.14c57.76-32.77,144,18,157.08,91.84,5,29.27,13.36,45.22,17.14,33,4.74-15.29-7.37-55.68-31.33-103.17-29.5-59.46-28.52-77,8.08-146.4,13.73-25.54,24.58-50.58,24.15-55.84-1.49-21.7,12.9-1.83,46.43,63.34L329.85,161l-27.42,73c-26.64,70.47-32.75,100.08-22.13,103.36C283.42,338.33,289.27,321.65,293.79,300.46Z" transform="translate(-42.59 -20.16)"/><path class="cls-2" d="M248.34,28.6c.43,5.26-10.42,30.3-24.15,55.84-36.6,69.45-37.58,86.94-8.08,146.4,24,47.49,36.07,87.88,31.33,103.17-3.78,12.19-12.18-3.76-17.14-33-13-73.88-99.32-124.61-157.08-91.84C34.7,230.74,32.05,306.61,68,347.53c21.51,24.46,22.63,24.14,28.6-7.23C106,292.22,165,274.21,200.16,308.74c17.76,17.83,18.1,24.44.87,31.44-6.36,2.8-13.14,9.27-14.79,14.58-2.53,8.12-.56,8.38,12.25,2.43,14.76-6.73,15.38-6.53,15.56,7.21,0,25.35-14.78,39.93-24.21,24-17.05-28.92-47.28,4.51-31.54,34.37,18.31,34.79,63.79,4.05,75.68-50.82,4.9-22.45,18.5-24.38,14.31-2.06-8.06,43.71-7.74,59.22,1.62,80.94,13.94,33.42,19.71,32.48,31.24-4.69,7.64-24.67,7.67-38,.74-57.62-18.75-51-1.68-50.85,19.75.3,19.84,47.59,57.05,61.17,68.28,24.94,9.39-30.3-5.62-45.89-29.29-30.3-17.14,11.12-17.76,10.92-22.61-3.25-7.73-22.59-1.95-33.46,12.11-23.62,8.81,5.81,11.92,5.74,12-1.08-.1-5.17-7.38-12.58-16.46-16.42-36.34-16.41,10.76-57.93,57-50.12,27.92,4.91,40.85,19.52,50,58.31,5.42,22.22,38.38-18.9,45.43-57.12,26.16-137.38-154.93-127.45-184.29,10.3-4.52,21.19-10.37,37.87-13.49,36.89-10.62-3.28-4.51-32.89,22.13-103.36l27.42-73L294.77,91.94C261.24,26.77,246.85,6.9,248.34,28.6Z" transform="translate(-42.59 -20.16)"/></svg>