<svg id="Layer_1" data-name="Layer 1" xmlns="http://www.w3.org/2000/svg" viewBox="0 0 489 444.9"><defs><style>.cls-1{fill:#1f325a;}.cls-2{fill:#3a93d1;}.cls-3{fill:#1063a2;}</style></defs><path class="cls-1" d="M415.34,48.38c5,23.92,5.7,58.78,1.59,82.18-3,16.9-10.34,40.82-19.55,63.75-2.78,7-5,13-4.84,13.39.33,1.06,6.17-6.83,10.81-14.65a208.17,208.17,0,0,0,21.53-51.89c3.78-14.91,4.31-20.08,4.31-41.55,0-18.43-.06-19.09-1.85-26-3.32-13.12-8.42-25.65-11.6-28.5C414.41,43.87,414.41,43.87,415.34,48.38Z" transform="translate(-12 -44.39)"/><path class="cls-2" d="M436.81,94.7c0,20.81-.39,24.06-4.64,40.36-8,30.89-18.82,54.61-35.78,78.67a415.53,415.53,0,0,1-30.75,37.44c-1.06,1.2-1.73,2.19-1.33,2.19,1.79,0,20.35-17.23,29.62-27.5a206.82,206.82,0,0,0,32.35-47.65,146.38,146.38,0,0,0,14.58-49.71c1.59-13.85-.53-46.46-3.38-51.29C437.08,76.48,436.88,82.31,436.81,94.7Z" transform="translate(-12 -44.39)"/><path class="cls-3" d="M445.5,131.55c-2.06,10.27-6.83,28.7-9.35,36-11.4,33-40.09,70.25-74.49,96.62L359.27,266l1.13,2.05c2.19,3.71,8,8.42,11.73,9.48,9.15,2.65,22-4.44,33.53-18.56,20.68-25.25,35.73-65.94,39.7-107.36.86-8.61,1.66-24.19,1.26-24.19A18.71,18.71,0,0,0,445.5,131.55Z" transform="translate(-12 -44.39)"/><path class="cls-1" d="M450.73,161.17c0,2.26-6,28-8.42,35.86a259,259,0,0,1-19.22,46c-12.06,21.61-24.52,34.66-37,38.84-3.91,1.32-5.37,1.46-11.93,1.13l-7.42-.34L357.15,273c-7.49-7.55-10.53-10.14-14.44-12.32l-5-2.72H315.2l-4,2.25c-2.19,1.2-4.45,2.92-5,3.91-.86,1.53-.86,1.86.34,3.18,2.38,2.66,15.5,7.82,32.07,12.6,10.61,3.05,11.07,4.44.6,1.92a49.53,49.53,0,0,0-9.21-1.33c-2.59,0-4.05-.33-4.64-1.06-1.79-2.18-8.55-4.64-8.55-3.11a14.64,14.64,0,0,0,1.72,2.65c.93,1.26,1.53,2.45,1.33,2.65-.6.6-4.05-2.85-5.44-5.5-.86-1.59-2.52-3-5-4.38-3.58-1.92-4.78-3.38-5.31-6.82-.2-1.06-.66-1.26-2.18-1.13-6,.66-9.94,2.79-13.39,7.29s-3.12,4.77,3.45,4.77c7.15,0,9.14.87,13.45,5.7,3.51,3.91,4.24,5.57,2.52,5.57s-1.79,1.06-1,7.22c.6,4.44.6,6.23,0,6.9a57.87,57.87,0,0,0-3,7.15c-5.23,14.45-9.67,21.61-19.09,30.89-17,16.9-35,27.17-68.52,39.36-7.29,2.59-13.32,4.84-13.46,5-.92.8,1.66.67,13.52-.72,27.37-3.32,42.49-5.84,57.66-9.75,13.26-3.38,18.36-5.36,35.59-13.72,7.56-3.64,14.38-6.82,15.24-7,1.86-.46,4.44,2.05,17.43,17.23,10.28,12,24.86,27.17,29.83,30.88,4,3,11.33,6.63,21,10.48,10.6,4.24,9.94,2.91,7,14.31-1.39,5.3-3.45,11.93-4.51,14.78-3.71,9.15-13.18,24.79-21.2,34.93-2.19,2.71-3.78,5-3.52,5,.87-.07,24.26-16.64,31.62-22.47,10.4-8.22,19.15-17.63,24.92-26.84,2.65-4.31,5.5-8.22,6.22-8.68a88.78,88.78,0,0,1,10.21-4c10.41-3.51,17.5-7,23.06-11.13s16.71-15.58,21.48-22c3.84-5,13.12-22.53,12.46-23.26-.2-.2-3.12,2.92-6.43,7-10.67,12.79-19.75,20.28-31.55,26-10.87,5.24-23.46,7.75-26.44,5.3-1.46-1.19-3.32-7.62-5.7-19.95-4-20.61-8.42-33.6-18.82-55.6-3.12-6.56-5.83-12.66-6-13.52-.53-2.12.73-4.64,9.14-17.5,12-18.22,17.76-29.69,22.93-45.13,5-14.91,11.27-42.94,12.66-56.4,1.13-11.66,1.66-31.87.8-31.87C451.06,159.92,450.73,160.51,450.73,161.17ZM320.83,321c1.66,1.32,4.71,3.51,6.83,4.9,3.38,2.25,4.64,3.65,3.31,3.65-1.72,0-13.71-9.35-14.91-11.54C315.2,316.45,315.14,316.39,320.83,321ZM337.14,331c.59.66.93,1.26.73,1.26a7.72,7.72,0,0,1-4.05-2.32C333.36,328.65,335.75,329.44,337.14,331Z" transform="translate(-12 -44.39)"/><path class="cls-1" d="M12,269.66c0,.93,7.09,14,10.14,18.69,10.93,16.9,31,34.6,49.84,44.08,11.46,5.69,28.1,10.6,44.93,13.12,8.15,1.26,12.39,1.46,31.28,1.46,19.95.06,22.67-.07,30.49-1.46,14.18-2.45,49.57-12,48.51-13.06-.13-.13-7.42.93-16.1,2.39-38,6.49-70.65,4.77-102.33-5.44-31-10-57.86-26.18-87.95-52.95C13.26,269.66,12,268.74,12,269.66Z" transform="translate(-12 -44.39)"/><path class="cls-3" d="M289,309.16c-27,25-40.95,35.33-61.43,45.8-27.64,14.05-55.47,21-84,21-12.52,0-22.26.66-20.28,1.45,4.44,1.6,16.77,3.19,25.19,3.19,35.45,0,63.42-5.37,89.4-17C257,355,271,345.08,285.38,330.17c5.1-5.3,6.56-7.29,9.41-13.19,3.91-8,6.3-14.71,6-17C300.62,298.63,299.16,299.75,289,309.16Z" transform="translate(-12 -44.39)"/><path class="cls-2" d="M263.44,318.71c-9.08,5.7-20.87,12.52-26.24,15.17-15.78,7.82-34.53,13.32-61.17,17.9-17.63,3.05-40.1,2.91-65.61-.33-18.83-2.39-27.18-5.37-50.7-17.9-7.69-4.11-14.19-7.22-14.45-7-.6.6,13.19,14,19.48,19a107.5,107.5,0,0,0,19.49,12.46c18.22,9.15,32.07,11.14,69.92,9.94,19.88-.59,23.66-1.12,38-5.3,25.78-7.55,55.34-24.65,80.92-46.72C285.38,305.32,284.32,305.65,263.44,318.71Z" transform="translate(-12 -44.39)"/><path class="cls-2" d="M492.28,357.15c-8.21,6.36-17,10.93-24.65,12.85-3.51.93-9.68,1.59-18.56,2.06-7.29.46-13.38.92-13.58,1.06-.4.33,1.79,19.88,2.32,20.74,1.12,1.79,14.05,0,22.13-3.05,12.59-4.77,28.17-19.15,37.45-34.59,1.39-2.32,2.45-4.31,2.25-4.44S496.19,354,492.28,357.15Z" transform="translate(-12 -44.39)"/><path class="cls-2" d="M378.23,412.22c-.2.66-1.26,6.23-2.39,12.46-3.64,20.34-9.54,35.59-20.74,54-5.37,8.82-6.36,10.6-5.77,10.6a57.75,57.75,0,0,0,7.16-5c17.23-12.92,31.08-33.13,38.64-56.2,3.05-9.41,3.18-9.21-7-13.65C380.15,411,378.69,410.63,378.23,412.22Z" transform="translate(-12 -44.39)"/></svg>