<svg id="Layer_1" data-name="Layer 1" xmlns="http://www.w3.org/2000/svg" viewBox="0 0 503.43 512.32"><defs><style>.cls-1{fill:#21335a;}.cls-2{fill:#3d93d0;}.cls-3{fill:#1264a3;}</style></defs><path class="cls-1" d="M408.58,4.58c5.76,27.55,6.57,67.69,1.83,94.64-3.45,19.46-11.9,47-22.51,73.41-3.2,8.06-5.76,15-5.57,15.42.38,1.22,7.1-7.86,12.45-16.87a240.14,240.14,0,0,0,24.79-59.76c4.35-17.17,5-23.12,5-47.84,0-21.23-.07-22-2.13-29.95C418.58,18.53,412.71,4.1,409,.81,407.51-.61,407.51-.61,408.58,4.58Z" transform="translate(-3.72 0)"/><path class="cls-2" d="M433.31,57.92c0,24-.45,27.71-5.34,46.48-9.22,35.57-21.68,62.89-41.21,90.6a479,479,0,0,1-35.41,43.11c-1.22,1.38-2,2.52-1.53,2.52,2.06,0,23.43-19.84,34.11-31.66a238.57,238.57,0,0,0,37.25-54.88A168.51,168.51,0,0,0,438,96.85c1.83-15.95-.61-53.51-3.89-59.07C433.62,36.94,433.39,43.65,433.31,57.92Z" transform="translate(-3.72 0)"/><path class="cls-3" d="M443.32,100.36c-2.38,11.82-7.87,33.05-10.77,41.46-13.13,38-46.17,80.9-85.78,111.26L344,255.19l1.3,2.36c2.53,4.27,9.22,9.7,13.51,10.92,10.54,3,25.34-5.11,38.62-21.38,23.81-29.07,41.14-75.93,45.72-123.63,1-9.92,1.91-27.86,1.45-27.86A21.22,21.22,0,0,0,443.32,100.36Z" transform="translate(-3.72 0)"/><path class="cls-1" d="M449.34,134.47c0,2.6-6.91,32.24-9.7,41.29a298.18,298.18,0,0,1-22.13,53c-13.89,24.88-28.24,39.91-42.61,44.73-4.5,1.52-6.18,1.68-13.74,1.3l-8.54-.39-11.05-11.13c-8.62-8.69-12.12-11.68-16.63-14.19l-5.75-3.13H293.26l-4.6,2.59c-2.53,1.38-5.13,3.37-5.76,4.51-1,1.76-1,2.14.39,3.66,2.74,3.06,17.85,9,36.93,14.51,12.22,3.51,12.75,5.11.69,2.21a56.69,56.69,0,0,0-10.6-1.53c-3,0-4.67-.38-5.35-1.22-2.06-2.51-9.84-5.35-9.84-3.58a17.31,17.31,0,0,0,2,3.05c1.07,1.45,1.76,2.82,1.53,3.05-.69.69-4.66-3.28-6.27-6.34-1-1.83-2.9-3.45-5.75-5-4.13-2.21-5.51-3.89-6.12-7.85-.23-1.22-.76-1.45-2.51-1.3-6.91.76-11.45,3.21-15.42,8.39s-3.59,5.49,4,5.49c8.24,0,10.53,1,15.49,6.57,4.05,4.5,4.89,6.41,2.91,6.41s-2.07,1.22-1.16,8.32c.69,5.11.69,7.17,0,7.94a66.7,66.7,0,0,0-3.45,8.24c-6,16.64-11.14,24.88-22,35.57-19.57,19.46-40.3,31.29-78.9,45.33-8.4,3-15.34,5.57-15.5,5.75-1.06.93,1.91.78,15.57-.82,31.52-3.83,48.93-6.73,66.4-11.23,15.27-3.89,21.14-6.17,41-15.8,8.71-4.19,16.56-7.86,17.55-8.06,2.15-.53,5.12,2.36,20.08,19.84,11.83,13.82,28.62,31.29,34.35,35.56,4.6,3.45,13.05,7.64,24.18,12.07,12.21,4.88,11.45,3.35,8.06,16.48-1.6,6.1-4,13.74-5.19,17-4.27,10.54-15.18,28.55-24.42,40.22-2.52,3.13-4.35,5.76-4.05,5.76,1-.08,27.94-19.16,36.41-25.87,12-9.47,22.06-20.31,28.7-30.91,3.05-5,6.34-9.47,7.17-10a103,103,0,0,1,11.75-4.61c12-4,20.16-8.06,26.56-12.81s19.24-17.94,24.74-25.34c4.42-5.76,15.1-25.94,14.34-26.78-.23-.23-3.59,3.36-7.4,8.06-12.29,14.73-22.74,23.35-36.33,29.94-12.52,6-27,8.92-30.45,6.1-1.68-1.37-3.82-8.77-6.57-23-4.6-23.74-9.69-38.7-21.67-64-3.59-7.56-6.71-14.58-6.91-15.57-.61-2.44.84-5.34,10.53-20.15,13.82-21,20.45-34.2,26.4-52,5.76-17.17,13-49.45,14.58-64.95,1.3-13.42,1.91-36.7.92-36.7C449.72,133,449.34,133.71,449.34,134.47ZM299.75,318.53c1.91,1.52,5.42,4,7.86,5.64,3.89,2.59,5.35,4.2,3.81,4.2-2,0-15.79-10.76-17.17-13.28C293.26,313.29,293.19,313.22,299.75,318.53ZM318.53,330c.68.76,1.07,1.46.84,1.46a8.91,8.91,0,0,1-4.66-2.68C314.18,327.34,316.93,328.25,318.53,330Z" transform="translate(-3.72 0)"/><path class="cls-1" d="M3.72,269.29c0,.9,6.9,13.61,9.86,18.17C24.21,303.89,43.72,321.09,62,330.31c11.14,5.53,27.32,10.3,43.68,12.75,7.92,1.23,12,1.42,30.41,1.42,19.39.06,22-.06,29.64-1.42,13.78-2.38,48.18-11.66,47.15-12.69-.12-.13-7.21.9-15.65,2.32-36.94,6.31-68.68,4.64-99.47-5.29-30.14-9.72-56.25-25.45-85.5-51.47C5,269.29,3.72,268.4,3.72,269.29Z" transform="translate(-3.72 0)"/><path class="cls-3" d="M255.89,319.18c-25.69,23.79-39,33.62-58.45,43.59-26.3,13.37-52.79,20-79.93,20-11.92,0-21.19.63-19.3,1.38,4.22,1.52,16,3,24,3,33.73,0,60.35-5.11,85.07-16.17a137.28,137.28,0,0,0,45.2-31.81c4.85-5.05,6.24-6.94,8.95-12.56,3.72-7.61,6-14,5.71-16.17C267,309.16,265.56,310.23,255.89,319.18Z" transform="translate(-3.72 0)"/><path class="cls-2" d="M246.94,317.32c-9.09,5.71-20.9,12.54-26.28,15.2-15.81,7.83-34.59,13.34-61.27,17.93-17.66,3.05-40.17,2.91-65.72-.33-18.86-2.4-27.23-5.38-50.79-17.93-7.7-4.12-14.21-7.24-14.47-7-.6.61,13.21,14,19.51,19a108.17,108.17,0,0,0,19.52,12.48c18.25,9.16,32.13,11.16,70,9.95,19.91-.59,23.7-1.12,38.06-5.31,25.83-7.56,55.43-24.69,81.06-46.79C268.92,303.91,267.86,304.24,246.94,317.32Z" transform="translate(-3.72 0)"/><path class="cls-2" d="M497.19,360.16c-9.46,7.32-19.58,12.59-28.39,14.8-4,1.07-11.15,1.83-21.37,2.37-8.4.53-15.41,1.06-15.64,1.22-.46.38,2.06,22.89,2.67,23.88,1.29,2.07,16.18,0,25.49-3.51,14.49-5.49,32.44-22.05,43.12-39.83,1.6-2.67,2.82-5,2.59-5.12S501.69,356.53,497.19,360.16Z" transform="translate(-3.72 0)"/><path class="cls-2" d="M365.85,423.58c-.23.76-1.45,7.17-2.75,14.35-4.2,23.42-11,41-23.89,62.18-6.18,10.16-7.32,12.21-6.64,12.21a66.11,66.11,0,0,0,8.24-5.76c19.84-14.88,35.79-38.15,44.5-64.72,3.51-10.83,3.66-10.6-8.06-15.72C368.06,422.17,366.38,421.75,365.85,423.58Z" transform="translate(-3.72 0)"/></svg>