<svg id="Layer_1" data-name="Layer 1" xmlns="http://www.w3.org/2000/svg" viewBox="0 0 499.3 504.53"><defs><style>.cls-1{fill:#fff;stroke-width:14px;}.cls-1,.cls-3{stroke:#21335a;stroke-miterlimit:10;}.cls-2{fill:#21335a;}.cls-3{fill:none;stroke-width:20px;}.cls-4{fill:#1264a3;}</style></defs><g id="Layer_1-2" data-name="Layer 1"><circle class="cls-1" cx="299.87" cy="194.64" r="148.64"/><polygon class="cls-2" points="321.65 45.8 278.09 45.8 284.04 0 315.7 0 321.65 45.8"/><circle class="cls-3" cx="299.87" cy="194.64" r="134.78"/><polygon class="cls-2" points="321.65 345.06 278.09 345.06 284.04 390.85 315.7 390.85 321.65 345.06"/><polygon class="cls-2" points="453.5 175.22 453.5 218.78 499.3 212.83 499.3 181.17 453.5 175.22"/><polygon class="cls-2" points="148.51 175.22 148.51 218.78 102.72 212.83 102.72 181.17 148.51 175.22"/><polygon class="cls-2" points="262.82 49.29 222.57 65.96 210.54 21.37 239.79 9.25 262.82 49.29"/><polygon class="cls-2" points="377.34 325.77 337.09 342.44 360.11 382.47 389.36 370.36 377.34 325.77"/><polygon class="cls-2" points="434.16 118.4 450.83 158.65 490.87 135.63 478.76 106.37 434.16 118.4"/><polygon class="cls-2" points="152.39 235.12 169.06 275.36 124.47 287.38 112.36 258.14 152.39 235.12"/><polygon class="cls-2" points="377.34 65.08 337.09 48.41 360.11 8.38 389.36 20.5 377.34 65.08"/><polygon class="cls-2" points="262.82 341.56 222.57 324.89 210.54 369.49 239.79 381.59 262.82 341.56"/><polygon class="cls-2" points="449.63 235.12 432.96 275.36 477.55 287.38 489.66 258.14 449.63 235.12"/><polygon class="cls-2" points="167.85 118.4 151.18 158.65 111.15 135.63 123.27 106.37 167.85 118.4"/><polygon class="cls-2" points="209.8 75.03 178.99 105.83 150.82 69.24 173.21 46.85 209.8 75.03"/><polygon class="cls-2" points="421.4 286.64 390.6 317.44 427.19 345.62 449.58 323.23 421.4 286.64"/><polygon class="cls-2" points="394.56 73.31 425.36 104.11 453.54 67.52 431.15 45.13 394.56 73.31"/><polygon class="cls-2" points="178.89 288.96 209.69 319.77 173.1 347.94 150.71 325.56 178.89 288.96"/></g><g id="Layer_3" data-name="Layer 3"><path class="cls-4" d="M363.51,204.68l.3.88q-65,41.35-130.17,82.9l-130.16,83-97.19-47,.33-.66q78.6-26.13,157.47-52.54Z" transform="translate(-6.29 -3)"/><path class="cls-4" d="M363.81,205.56l-130.17,82.9Q298.76,246.91,363.81,205.56Z" transform="translate(-6.29 -3)"/><path class="cls-4" d="M363.51,204.68,164.08,271.15Z" transform="translate(-6.29 -3)"/><path class="cls-4" d="M103.48,371.42l130.16-83Q168.54,330,103.48,371.42Z" transform="translate(-6.29 -3)"/><path class="cls-4" d="M6.62,323.77l157.47-52.54Q85.31,297.57,6.62,323.77Z" transform="translate(-6.29 -3)"/><path class="cls-4" d="M363.55,206.59q-25.67,29.94-51.33,60Q209.11,387,106,507.53h-1V393.66l.83-1.88Q209.24,317.55,312.48,243.3l9.35-6.72Q342.7,221.57,363.55,206.59Z" transform="translate(-6.29 -3)"/><path class="cls-4" d="M364,206.29,320,449.6l-1.89-.35-87.25-41.78-.44-1.35L363.93,206.29Z" transform="translate(-6.29 -3)"/></g></svg>