<svg xmlns="http://www.w3.org/2000/svg" viewBox="0 0 483.17 442.86"><defs><style>.cls-1{fill:#fff;stroke-width:14px;}.cls-1,.cls-3{stroke:#1f325a;stroke-miterlimit:10;}.cls-2{fill:#1f325a;}.cls-3{fill:none;stroke-width:20px;}.cls-4{fill:#1063a2;}</style></defs><g id="Layer_1" data-name="Layer 1"><circle class="cls-1" cx="309.2" cy="169.79" r="129.66"/><polygon class="cls-2" points="328.2 39.95 290.2 39.95 295.39 0 323.01 0 328.2 39.95"/><circle class="cls-3" cx="309.2" cy="169.79" r="117.57"/><polygon class="cls-2" points="328.2 301 290.2 301 295.39 340.95 323.01 340.95 328.2 301"/><polygon class="cls-2" points="443.22 152.85 443.22 190.85 483.17 185.66 483.17 158.04 443.22 152.85"/><polygon class="cls-2" points="177.17 152.85 177.17 190.85 137.22 185.66 137.22 158.04 177.17 152.85"/><polygon class="cls-2" points="276.88 43 241.77 57.54 231.28 18.64 256.79 8.07 276.88 43"/><polygon class="cls-2" points="376.78 284.18 341.67 298.72 361.75 333.64 387.27 323.07 376.78 284.18"/><polygon class="cls-2" points="426.35 103.28 440.89 138.39 475.82 118.31 465.25 92.79 426.35 103.28"/><polygon class="cls-2" points="180.55 205.1 195.09 240.2 156.2 250.69 145.63 225.18 180.55 205.1"/><polygon class="cls-2" points="376.78 56.77 341.67 42.23 361.75 7.31 387.27 17.88 376.78 56.77"/><polygon class="cls-2" points="276.88 297.95 241.77 283.41 231.28 322.31 256.79 332.87 276.88 297.95"/><polygon class="cls-2" points="439.84 205.1 425.3 240.2 464.2 250.69 474.76 225.18 439.84 205.1"/><polygon class="cls-2" points="194.04 103.28 179.5 138.39 144.58 118.31 155.15 92.79 194.04 103.28"/><polygon class="cls-2" points="230.63 65.45 203.76 92.32 179.18 60.4 198.71 40.87 230.63 65.45"/><polygon class="cls-2" points="415.22 250.04 388.35 276.91 420.27 301.49 439.8 281.96 415.22 250.04"/><polygon class="cls-2" points="391.8 63.95 418.67 90.82 443.25 58.9 423.72 39.37 391.8 63.95"/><polygon class="cls-2" points="203.67 252.07 230.54 278.94 198.62 303.52 179.09 283.99 203.67 252.07"/></g><g id="Layer_3" data-name="Layer 3"><path class="cls-4" d="M354.53,204.34l.29.85Q292.24,245,229.5,285L104.18,364.87q-46.77-22.61-93.57-45.26l.32-.63q75.68-25.16,151.61-50.59Z" transform="translate(-10.61 -53)"/><path class="cls-4" d="M354.82,205.19,229.5,285Q292.19,245,354.82,205.19Z" transform="translate(-10.61 -53)"/><path class="cls-4" d="M354.53,204.34l-192,64Q258.62,236.32,354.53,204.34Z" transform="translate(-10.61 -53)"/><path class="cls-4" d="M104.18,364.87,229.5,285Q166.82,325,104.18,364.87Z" transform="translate(-10.61 -53)"/><path class="cls-4" d="M10.93,319l151.61-50.59Q86.69,293.78,10.93,319Z" transform="translate(-10.61 -53)"/><path class="cls-4" d="M354.57,206.18Q329.85,235,305.15,263.91q-99.27,116-198.53,232h-.94V386.28l.8-1.81Q206,313,305.4,241.52l9-6.47Q334.49,220.6,354.57,206.18Z" transform="translate(-10.61 -53)"/><path class="cls-4" d="M355,205.89,312.61,440.14l-1.82-.34q-42-20.12-84-40.22l-.42-1.3L354.93,205.89Z" transform="translate(-10.61 -53)"/></g></svg>