<svg id="Layer_1" data-name="Layer 1" xmlns="http://www.w3.org/2000/svg" viewBox="0 0 510.82 507.64"><defs><style>.cls-1{fill:#f3e733;}.cls-2{fill:#21335a;}.cls-3{fill:#3d93d0;}</style></defs><path class="cls-1" d="M204.45,204.37"/><polygon class="cls-2" points="506.17 245.85 257.27 120.57 256.45 0 505.33 125.29 506.17 245.85"/><polygon class="cls-2" points="251.16 507.42 2.27 382.13 1.44 261.57 250.33 386.85 251.16 507.42"/><polygon class="cls-3" points="59.54 213.71 245.38 120.56 246.67 2.46 60.83 95.61 59.54 213.71"/><polygon class="cls-2" points="440.44 293.28 323.55 349.25 66.87 221.65 183.75 165.68 440.44 293.28"/><polygon class="cls-3" points="62.42 94.99 1.11 125.37 0 184.49 60.2 213.23 121.52 182.84 122.62 123.72 62.42 94.99"/><polygon class="cls-3" points="451.29 296.39 265.45 389.54 264.15 507.64 449.99 414.49 451.29 296.39"/><polygon class="cls-3" points="448.41 415.12 509.72 384.74 510.82 325.61 450.62 296.88 389.31 327.26 388.2 386.39 448.41 415.12"/></svg>