<svg id="Layer_1" data-name="Layer 1" xmlns="http://www.w3.org/2000/svg" viewBox="0 0 449 440"><defs><style>.cls-1,.cls-2,.cls-7{fill:none;}.cls-1,.cls-3{stroke:#1063a2;}.cls-1,.cls-2,.cls-3,.cls-4,.cls-5,.cls-6,.cls-7{stroke-miterlimit:10;}.cls-1,.cls-2{stroke-width:19px;}.cls-2,.cls-4{stroke:#1f325a;}.cls-3{fill:#1063a2;}.cls-3,.cls-4{stroke-width:26px;}.cls-4{fill:#1f325a;}.cls-5{fill:#fff;stroke-width:14px;}.cls-5,.cls-6,.cls-7{stroke:#3a93d1;}.cls-6{fill:#3a93d1;stroke-width:4px;}.cls-7{stroke-width:18px;}</style></defs><circle class="cls-1" cx="229.5" cy="229.5" r="117"/><circle class="cls-2" cx="229.5" cy="229.5" r="198"/><circle class="cls-3" cx="176.5" cy="129.5" r="26.5"/><circle class="cls-3" cx="282.5" cy="327.5" r="26.5"/><circle class="cls-4" cx="174.5" cy="39.5" r="26.5"/><circle class="cls-4" cx="85.5" cy="94.5" r="26.5"/><circle class="cls-4" cx="409.5" cy="148.5" r="26.5"/><circle class="cls-4" cx="39.5" cy="292.5" r="26.5"/><circle class="cls-4" cx="102.5" cy="381.5" r="26.5"/><circle class="cls-4" cx="327.5" cy="400.5" r="26.5"/><circle class="cls-5" cx="229.04" cy="229.89" r="39.61"/><polygon class="cls-6" points="237.04 188.39 221.03 188.39 223.22 175.58 234.86 175.58 237.04 188.39"/><polygon class="cls-6" points="237.04 269.94 221.03 269.94 223.22 282.76 234.86 282.76 237.04 269.94"/><polygon class="cls-6" points="270.69 221.88 270.69 237.9 283.5 235.72 283.5 224.07 270.69 221.88"/><polygon class="cls-6" points="188.55 221.88 188.55 237.9 175.74 235.72 175.74 224.07 188.55 221.88"/><polygon class="cls-6" points="206.04 195.08 194.71 206.41 187.2 195.8 195.43 187.57 206.04 195.08"/><polygon class="cls-6" points="263.7 252.75 252.38 264.07 262.98 271.59 271.22 263.36 263.7 252.75"/><polygon class="cls-6" points="253.51 194.98 264.83 206.31 272.35 195.7 264.12 187.47 253.51 194.98"/><polygon class="cls-6" points="195.43 253.06 206.76 264.38 196.15 271.9 187.92 263.67 195.43 253.06"/><circle class="cls-7" cx="229.11" cy="229.89" r="28.4"/></svg>