<?xml version="1.0" encoding="utf-8"?>
<!-- Generator: Adobe Illustrator 25.0.1, SVG Export Plug-In . SVG Version: 6.00 Build 0)  -->
<svg version="1.1" id="Layer_1" xmlns="http://www.w3.org/2000/svg" xmlns:xlink="http://www.w3.org/1999/xlink" x="0px" y="0px"
	 viewBox="0 0 300 300" style="enable-background:new 0 0 300 300;" xml:space="preserve">
<style type="text/css">
	.st0{fill:none;stroke:#000000;stroke-width:0.5;stroke-linecap:round;stroke-linejoin:round;}
</style>
<g transform="translate(0.000000,300.000000) scale(0.050000,-0.050000)">
	<g id="XMLID_1_">
		<g>
			<path d="M3362.2,2471.8c330.6,1551.2,2369.8,1663,2075.2,116c-79.4-430.4-450.6-893.4-511.6-643.2
				c-103.6,436.8-249.2,601.4-563.6,656.6c-520.2,88-1050.6-379.6-641.4-564.4c102.2-43.2,184.2-126.6,185.4-184.8
				c-0.6-76.8-35.6-77.6-134.8-12.2c-158.4,110.8-223.4-11.6-136.4-266c54.6-159.6,61.6-161.8,254.6-36.6
				c266.6,175.6,435.6,0,329.8-341.2C4093,788,3674,941,3450.6,1476.8c-241.4,576-433.6,577.8-222.4,3.4
				c78-220.8,77.6-371-8.4-648.8C3090,412.8,3025,402.2,2868,778.6c-105.4,244.6-109,419.2-18.2,911.4
				c47.2,251.4-106,229.6-161.2-23.2c-133.8-617.8-646-964-852.2-572.2c-177.2,336.2,163.2,712.6,355.2,387
				c106.2-179.4,272.8-15.2,272.6,270.2c-2,154.8-9,157-175.2,81.2c-144.2-67-166.4-64-138,27.4c18.6,59.8,95,132.6,166.6,164.2
				c194,78.8,190.2,153.2-9.8,354c-396,388.8-1060.2,186-1166.4-355.4c-67.2-353.2-79.8-356.8-322-81.4
				c-404.6,460.8-374.8,1315.2,59,1558.4c650.4,369,1622-202.2,1768.8-1034.2c55.8-329.6,150.4-509.2,193-372
				c53.4,172.2-83,627-352.8,1161.8c-332.2,669.6-321.2,866.6,91,1648.6c154.6,287.6,276.8,569.6,272,628.8
				c-16.8,244.4,145.2,20.6,522.8-713.2l395-777.8l-308.8-821.8c-300-793.6-368.8-1127-249.2-1164
				C3245.4,2045.4,3311.2,2233.2,3362.2,2471.8z"/>
		</g>
		<g>
			<path class="st0" d="M2850.4,5533.2c4.8-59.2-117.4-341.2-272-628.8c-412.2-782-423.2-979-91-1648.6
				c269.8-534.8,406.2-989.6,352.8-1161.8c-42.6-137.2-137.2,42.4-193,372c-146.8,832-1118.4,1403.2-1768.8,1034.2
				c-433.8-243.2-463.6-1097.6-59-1558.4c242.2-275.4,254.8-271.8,322,81.4c106.2,541.4,770.4,744.2,1166.4,355.4
				c200-200.8,203.8-275.2,9.8-354c-71.6-31.6-148-104.4-166.6-164.2c-28.4-91.4-6.2-94.4,138-27.4
				c166.2,75.8,173.2,73.6,175.2-81.2c0.2-285.4-166.4-449.6-272.6-270.2c-192,325.6-532.4-50.8-355.2-387
				c206.2-391.8,718.4-45.6,852.2,572.2c55.2,252.8,208.4,274.6,161.2,23.2c-90.8-492.2-87.2-666.8,18.2-911.4
				c157-376.4,222-365.8,351.8,52.8c86,277.8,86.4,428,8.4,648.8c-211.2,574.4-19,572.6,222.4-3.4C3674,941,4093,788,4219.4,1196
				c105.8,341.2-63.2,516.8-329.8,341.2c-193-125.2-200-123-254.6,36.6c-87,254.4-22,376.8,136.4,266
				c99.2-65.4,134.2-64.6,134.8,12.2c-1.2,58.2-83.2,141.6-185.4,184.8c-409.2,184.8,121.2,652.4,641.4,564.4
				c314.4-55.2,460-219.8,563.6-656.6c61-250.2,432.2,212.8,511.6,643.2c294.6,1547-1744.6,1435.2-2075.2-116
				c-51-238.6-116.8-426.4-152-415.4c-119.6,37-50.8,370.4,249.2,1164l308.8,821.8l-395,777.8
				C2995.6,5553.8,2833.6,5777.6,2850.4,5533.2z"/>
		</g>
	</g>
</g>
</svg>
